#N canvas 847 133 554 361 10;
#X text 21 19 selection principle;
#X obj -68 120 tgl 15 0 empty empty start/stop 0 -6 0 8 -262144 -1
-1 0 1;
#X text 203 133 multiple list;
#X obj 143 105 loadbang;
#X msg 143 132 3 1 1 1;
#X floatatom -1 134 4 0 0 2 dev% - -;
#X floatatom -35 133 4 0 0 2 grid - -;
#X floatatom 67 206 4 0 0 1 ED - -;
#X obj -68 243 QT-PercPlayer;
#X text -97 292 1993-2001 by Karlheinz Essl;
#X floatatom 33 104 4 0 0 1 sel-princ - -;
#N canvas 556 269 497 418 sel_princ 0;
#X msg 231 228 1 alea;
#X msg 231 247 2 series;
#X msg 231 267 3 sequence;
#X msg 231 289 4 rota;
#X obj 231 318 list split 1;
#X obj 231 373 outlet;
#X obj 112 61 loadbang;
#X obj 112 192 select 1 2 3 4;
#X obj 112 171 + 1;
#X obj 112 123 hradio 15 1 0 4 empty empty empty 0 -6 0 8 -262144 -1
-1 2;
#X msg 112 82 2;
#X symbolatom 108 143 10 0 0 0 - - -;
#X connect 0 0 4 0;
#X connect 1 0 4 0;
#X connect 2 0 4 0;
#X connect 3 0 4 0;
#X connect 4 0 5 0;
#X connect 4 1 11 0;
#X connect 6 0 10 0;
#X connect 7 0 0 0;
#X connect 7 1 1 0;
#X connect 7 2 2 0;
#X connect 7 3 3 0;
#X connect 8 0 7 0;
#X connect 9 0 8 0;
#X connect 10 0 9 0;
#X coords 0 -1 1 1 90 65 1 100 100;
#X restore 34 37 pd sel_princ;
#X msg 143 159 2 2 1 2 2 2 1;
#X msg -68 209 60;
#X obj -37 211 bng 15 250 50 0 empty empty empty 17 7 0 10 -262144
-1 -1;
#X text -94 309 updated by sylvain to take into account silences;
#X msg 351 91 8 4 2 1 2 4;
#X msg 351 112 -4 -8 -6 4 7;
#X msg 352 135 8 8 8 8;
#X msg 351 157 8 8 -8 -8;
#X obj -72 54 metro;
#X obj -45 29 BPM2ms;
#X msg -45 6 60;
#X obj -72 77 bng 15 250 50 0 empty empty empty 17 7 0 10 -262144 -1
-1;
#X obj -19 59 / 8;
#X msg 354 184 4 4 4 4;
#X msg -16 5 120;
#X obj -68 176 slg.grid-rhythm 500 0 3;
#X connect 1 0 20 0;
#X connect 1 0 27 0;
#X connect 3 0 4 0;
#X connect 4 0 27 4;
#X connect 5 0 27 2;
#X connect 6 0 27 1;
#X connect 10 0 27 3;
#X connect 11 0 10 0;
#X connect 12 0 27 4;
#X connect 13 0 8 0;
#X connect 16 0 27 4;
#X connect 17 0 27 4;
#X connect 18 0 27 4;
#X connect 19 0 27 4;
#X connect 20 0 23 0;
#X connect 21 0 20 1;
#X connect 21 0 24 0;
#X connect 22 0 21 0;
#X connect 24 0 6 0;
#X connect 25 0 27 4;
#X connect 26 0 21 0;
#X connect 27 0 13 0;
#X connect 27 0 14 0;
#X connect 27 1 7 0;
