#N canvas 376 22 798 673 10;
#X obj 101 118 cnv 15 348 328 empty empty empty 20 12 0 14 -233017
-66577 0;
#X obj 112 179 vradio 10 1 1 12 \$0-pitch1 \$0-pitch1-ctl empty 0 -6
0 8 -262144 -1 -1 11;
#X text 112 287 C;
#X text 113 248 E;
#X text 113 218 G;
#X text 113 268 D;
#X text 113 238 F;
#X text 113 198 A;
#X text 113 177 B;
#X obj 122 179 vradio 10 1 1 12 \$0-pitch2 \$0-pitch2-ctl empty 0 -6
0 8 -262144 -1 -1 11;
#X obj 132 179 vradio 10 1 1 12 \$0-pitch3 \$0-pitch3-ctl empty 0 -6
0 8 -262144 -1 -1 11;
#X obj 142 179 vradio 10 1 1 12 \$0-pitch4 \$0-pitch4-ctl empty 0 -6
0 8 -262144 -1 -1 11;
#X obj 152 179 vradio 10 1 1 12 \$0-pitch5 \$0-pitch5-ctl empty 0 -6
0 8 -262144 -1 -1 11;
#X obj 162 179 vradio 10 1 1 12 \$0-pitch6 \$0-pitch6-ctl empty 0 -6
0 8 -262144 -1 -1 11;
#X obj 172 179 vradio 10 1 1 12 \$0-pitch7 \$0-pitch7-ctl empty 0 -6
0 8 -262144 -1 -1 11;
#X obj 182 179 vradio 10 1 1 12 \$0-pitch8 \$0-pitch8-ctl empty 0 -6
0 8 -262144 -1 -1 11;
#X obj 192 179 vradio 10 1 1 12 \$0-pitch9 \$0-pitch9-ctl empty 0 -6
0 8 -262144 -1 -1 11;
#X obj 202 179 vradio 10 1 1 12 \$0-pitch10 \$0-pitch10-ctl empty 0
-6 0 8 -262144 -1 -1 11;
#X obj 212 179 vradio 10 1 1 12 \$0-pitch11 \$0-pitch11-ctl empty 0
-6 0 8 -262144 -1 -1 11;
#X obj 222 179 vradio 10 1 1 12 \$0-pitch12 \$0-pitch12-ctl empty 0
-6 0 8 -262144 -1 -1 11;
#X obj 232 179 vradio 10 1 1 12 \$0-pitch13 \$0-pitch13-ctl empty 0
-6 0 8 -262144 -1 -1 11;
#X obj 242 179 vradio 10 1 1 12 \$0-pitch14 \$0-pitch14-ctl empty 0
-6 0 8 -262144 -1 -1 11;
#X obj 252 179 vradio 10 1 1 12 \$0-pitch15 \$0-pitch15-ctl empty 0
-6 0 8 -262144 -1 -1 11;
#X obj 262 179 vradio 10 1 1 12 \$0-pitch16 \$0-pitch16-ctl empty 0
-6 0 8 -262144 -1 -1 11;
#X obj 112 380 tgl 10 0 \$0-beat1-s \$0-beat1-r empty 0 -6 0 8 -262144
-1 -1 1 1;
#X obj 122 380 tgl 10 0 \$0-beat2-s \$0-beat2-r empty 0 -6 0 8 -262144
-1 -1 0 1;
#X obj 132 380 tgl 10 0 \$0-beat3-s \$0-beat3-r empty 0 -6 0 8 -262144
-1 -1 0 1;
#X obj 142 380 tgl 10 0 \$0-beat4-s \$0-beat4-r empty 0 -6 0 8 -262144
-1 -1 0 1;
#X obj 152 380 tgl 10 0 \$0-beat5-s \$0-beat5-r empty 0 -6 0 8 -262144
-1 -1 1 1;
#X obj 162 380 tgl 10 0 \$0-beat6-s \$0-beat6-r empty 0 -6 0 8 -262144
-1 -1 0 1;
#X obj 172 380 tgl 10 0 \$0-beat7-s \$0-beat7-r empty 0 -6 0 8 -262144
-1 -1 0 1;
#X obj 182 380 tgl 10 0 \$0-beat8-s \$0-beat8-r empty 0 -6 0 8 -262144
-1 -1 0 1;
#X obj 192 380 tgl 10 0 \$0-beat9-s \$0-beat9-r empty 0 -6 0 8 -262144
-1 -1 1 1;
#X obj 202 380 tgl 10 0 \$0-beat10-s \$0-beat10-r empty 0 -6 0 8 -262144
-1 -1 0 1;
#X obj 212 380 tgl 10 0 \$0-beat11-s \$0-beat11-r empty 0 -6 0 8 -262144
-1 -1 0 1;
#X obj 222 380 tgl 10 0 \$0-beat12-s \$0-beat12-r empty 0 -6 0 8 -262144
-1 -1 0 1;
#X obj 232 380 tgl 10 0 \$0-beat13-s \$0-beat13-r empty 0 -6 0 8 -262144
-1 -1 1 1;
#X obj 242 380 tgl 10 0 \$0-beat14-s \$0-beat14-r empty 0 -6 0 8 -262144
-1 -1 0 1;
#X obj 252 380 tgl 10 0 \$0-beat15-s \$0-beat15-r empty 0 -6 0 8 -262144
-1 -1 0 1;
#X obj 262 380 tgl 10 0 \$0-beat16-s \$0-beat16-r empty 0 -6 0 8 -262144
-1 -1 0 1;
#N canvas 0 22 462 312 graph8 0;
#X array \$0-velocity 16 float 2;
#X array . 1 float 2;
#X coords 0 127 16 0 160 50 1;
#X restore 112 395 graph;
#X obj 231 179 cnv 2 1 120 empty empty empty 20 12 0 14 -258049 -66577
0;
#X obj 113 161 hradio 10 1 0 16 \$0-tick-s \$0-tick-r empty 0 -6 0
8 -262106 -237697 -1 0;
#X floatatom 276 160 2 0 0 0 - - -;
#X text 153 129 BPM;
#X obj 139 132 tgl 10 0 \$0-play-s \$0-play-r empty 0 -6 0 8 -106458
-1 -1 0 1;
#X obj 180 132 nbx 3 10 1 240 0 0 \$0-bpm-s \$0-bpm-r empty 0 -6 0
10 -106458 -1 -1 90 256;
#X obj 426 156 bng 10 250 50 0 \$0-resetbutton \$0-resetbutton-ctl
empty 0 -6 0 8 -259674 -1 -1;
#X text 107 128 Play;
#X obj 101 101 cnv 15 348 15 empty \$0-hider-r 16_STEPS_SEQUENCER 3
9 1 9 -104064 -262144 0;
#X obj 434 101 bng 15 250 50 0 \$0-hide-on-s \$0-hide-on-r > 5 8 0
8 -104064 -104064 -262144;
#N canvas 780 22 496 514 canvas-management 0;
#X msg 95 169 label <;
#X obj 21 18 loadbang;
#X obj 93 46 tgl 15 0 empty empty empty 0 -6 0 8 -262144 -1 -1 0 1
;
#X obj 93 74 sel 1 0;
#X msg 49 131 label >;
#X msg 89 101 size 1 15 \, vis_size 1 15 \, label;
#X obj 82 280 s \$0-hider-r;
#X obj 93 19 r \$0-hide-on-s;
#X obj 49 211 s \$0-hide-on-r;
#X obj 22 334 s \$0-main-canvas-r;
#X msg 22 307 vis_size 150 65 \, size 15 15 \, label;
#X obj 26 454 s \$0-test-r;
#X msg 26 420 label >;
#X msg 91 421 label X;
#X obj 26 366 r \$0-test-s;
#X obj 26 392 sel 0 1;
#X msg 89 254 vis_size 348 15 \, size 15 15 \, label 16_STEPS_SEQUENCER
;
#X connect 0 0 8 0;
#X connect 1 0 4 0;
#X connect 1 0 16 0;
#X connect 1 0 10 0;
#X connect 2 0 3 0;
#X connect 3 0 5 0;
#X connect 3 0 0 0;
#X connect 3 1 16 0;
#X connect 3 1 4 0;
#X connect 4 0 8 0;
#X connect 5 0 6 0;
#X connect 7 0 2 0;
#X connect 10 0 9 0;
#X connect 12 0 11 0;
#X connect 13 0 11 0;
#X connect 14 0 15 0;
#X connect 15 0 12 0;
#X connect 15 1 13 0;
#X connect 16 0 6 0;
#X restore 106 463 pd canvas-management;
#X text 286 537 output: bangevent \, pitch \, velocity;
#X text 383 153 Reset;
#X text 334 552 metronome tick;
#X text 334 566 probabilistic;
#X text 334 581 Pitch Classes;
#X text 153 287 C;
#X text 153 248 E;
#X text 153 218 G;
#X text 153 268 D;
#X text 153 238 F;
#X text 153 198 A;
#X text 153 178 B;
#X text 193 287 C;
#X text 194 248 E;
#X text 194 218 G;
#X text 194 268 D;
#X text 194 238 F;
#X text 194 198 A;
#X text 194 178 B;
#X text 233 287 C;
#X text 233 248 E;
#X text 233 218 G;
#X text 233 268 D;
#X text 233 238 F;
#X text 233 198 A;
#X text 233 178 B;
#X text 51 581 C;
#X text 51 542 E;
#X text 50 516 G;
#X text 51 561 D;
#X text 51 532 F;
#X text 51 492 A;
#X text 51 471 B;
#X obj 101 73 cnv 1 160 1 empty empty empty 20 12 0 14 -258049 -66577
0;
#X obj 112 304 vradio 10 1 0 7 \$0-register1-s \$0-register1-r empty
0 -6 0 8 -262144 -1 -1 3;
#X obj 122 304 vradio 10 1 0 7 \$0-register2-s \$0-register2-r empty
0 -6 0 8 -262144 -1 -1 3;
#X obj 132 304 vradio 10 1 0 7 \$0-register3-s \$0-register3-r empty
0 -6 0 8 -262144 -1 -1 3;
#X obj 142 304 vradio 10 1 0 7 \$0-register4-s \$0-register4-r empty
0 -6 0 8 -262144 -1 -1 3;
#X obj 152 304 vradio 10 1 0 7 \$0-register5-s \$0-register5-r empty
0 -6 0 8 -262144 -1 -1 3;
#X obj 162 304 vradio 10 1 0 7 \$0-register6-s \$0-register6-r empty
0 -6 0 8 -262144 -1 -1 3;
#X obj 172 304 vradio 10 1 0 7 \$0-register7-s \$0-register7-r empty
0 -6 0 8 -262144 -1 -1 3;
#X obj 182 304 vradio 10 1 0 7 \$0-register8-s \$0-register8-r empty
0 -6 0 8 -262144 -1 -1 3;
#X obj 192 304 vradio 10 1 0 7 \$0-register9-s \$0-register9-r empty
0 -6 0 8 -262144 -1 -1 3;
#X obj 202 304 vradio 10 1 0 7 \$0-register10-s \$0-register10-r empty
0 -6 0 8 -262144 -1 -1 3;
#X obj 212 304 vradio 10 1 0 7 \$0-register11-s \$0-register11-r empty
0 -6 0 8 -262144 -1 -1 3;
#X obj 222 304 vradio 10 1 0 7 \$0-register12-s \$0-register12-r empty
0 -6 0 8 -262144 -1 -1 3;
#X obj 232 304 vradio 10 1 0 7 \$0-register13-s \$0-register13-r empty
0 -6 0 8 -262144 -1 -1 3;
#X obj 242 304 vradio 10 1 0 7 \$0-register14-s \$0-register14-r empty
0 -6 0 8 -262144 -1 -1 3;
#X obj 252 304 vradio 10 1 0 7 \$0-register15-s \$0-register15-r empty
0 -6 0 8 -262144 -1 -1 3;
#X obj 262 304 vradio 10 1 0 7 \$0-register16-s \$0-register16-r empty
0 -6 0 8 -262144 -1 -1 3;
#X obj 192 179 cnv 2 1 120 empty empty empty 20 12 0 14 -258049 -66577
0;
#X obj 152 179 cnv 2 1 120 empty empty empty 20 12 0 14 -258049 -66577
0;
#X obj 112 179 cnv 2 1 120 empty empty empty 20 12 0 14 -258049 -66577
0;
#X obj 271 178 cnv 2 1 120 empty empty empty 20 12 0 14 -258049 -66577
0;
#X obj 271 303 cnv 2 1 70 empty empty empty 20 12 0 14 -258049 -66577
0;
#X obj 74 472 cnv 2 1 120 empty empty empty 20 12 0 14 -258049 -66577
0;
#X obj 231 304 cnv 2 1 70 empty empty empty 20 12 0 14 -258049 -66577
0;
#X obj 191 304 cnv 2 1 70 empty empty empty 20 12 0 14 -258049 -66577
0;
#X obj 151 303 cnv 2 1 70 empty empty empty 20 12 0 14 -258049 -66577
0;
#X obj 112 303 cnv 2 1 70 empty empty empty 20 12 0 14 -258049 -66577
0;
#X obj 232 380 cnv 2 1 10 empty empty empty 20 12 0 14 -258049 -66577
0;
#X obj 65 474 cnv 2 1 10 empty empty empty 20 12 0 14 -258049 -66577
0;
#X obj 271 380 cnv 2 1 10 empty empty empty 20 12 0 14 -258049 -66577
0;
#X obj 112 380 cnv 2 1 10 empty empty empty 20 12 0 14 -258049 -66577
0;
#X obj 152 380 cnv 2 1 10 empty empty empty 20 12 0 14 -258049 -66577
0;
#X obj 192 380 cnv 2 1 10 empty empty empty 20 12 0 14 -258049 -66577
0;
#X text 335 597 Pitch bend for each step (microtones);
#N canvas 795 22 400 453 sequencer 1;
#X obj 31 76 slg.16step-seq 60;
#X obj 31 115 s \$0-seqbang;
#X obj 145 51 r \$0-bpm-s;
#X obj 31 26 r \$0-play-s;
#X obj 124 110 bng 15 250 50 0 empty empty empty 0 -6 0 8 -262144 -1
-1;
#X floatatom 138 187 5 0 0 0 - - -;
#X obj 93 213 bng 15 250 50 0 empty empty empty 0 -6 0 8 -262144 -1
-1;
#X obj 12 268 bng 15 250 50 0 empty empty empty 0 -6 0 8 -262144 -1
-1;
#X obj 35 252 metro 1000;
#X obj 35 274 cyclone/counter 0 15;
#X obj 138 236 / 4;
#X obj 34 227 tgl 15 0 empty empty empty 0 -6 0 8 -262144 -1 -1 0 1
;
#X text 180 275 Need cyclone library;
#X obj 138 142 r \$0-bpm-s;
#X obj 34 171 r \$0-play-s;
#X obj 35 311 s \$0-tick-r;
#X floatatom 122 311 5 0 0 0 - - -;
#X obj 214 184 r \$0-spb-s;
#X obj 214 208 t b f;
#X obj 114 27 r \$0-rhythmic-pattern-list-s;
#X obj 138 163 rtc/BPM2ms;
#X connect 0 0 1 0;
#X connect 0 0 4 0;
#X connect 2 0 0 2;
#X connect 3 0 0 0;
#X connect 5 0 6 0;
#X connect 5 0 10 0;
#X connect 8 0 7 0;
#X connect 8 0 9 0;
#X connect 9 0 15 0;
#X connect 9 0 16 0;
#X connect 10 0 8 1;
#X connect 13 0 20 0;
#X connect 14 0 8 0;
#X connect 14 0 9 2;
#X connect 14 0 11 0;
#X connect 17 0 18 0;
#X connect 18 0 10 0;
#X connect 18 1 10 1;
#X connect 19 0 0 1;
#X connect 20 0 5 0;
#X restore 107 485 pd sequencer;
#N canvas 51 294 237 162 format-gui-data 0;
#N canvas 38 22 964 768 rhytmic-pattern-format 0;
#X obj 281 18 r \$0-beat1-s;
#X obj 293 34 r \$0-beat2-s;
#X obj 304 50 r \$0-beat3-s;
#X obj 318 66 r \$0-beat4-s;
#X obj 359 88 r \$0-beat5-s;
#X obj 374 106 r \$0-beat6-s;
#X obj 391 122 r \$0-beat7-s;
#X obj 408 138 r \$0-beat8-s;
#X obj 429 156 r \$0-beat9-s;
#X obj 463 185 r \$0-beat10-s;
#X obj 485 201 r \$0-beat11-s;
#X obj 509 217 r \$0-beat12-s;
#X obj 540 233 r \$0-beat13-s;
#X obj 565 269 r \$0-beat14-s;
#X obj 594 285 r \$0-beat15-s;
#X obj 623 304 r \$0-beat16-s;
#X obj 347 325 pack f f f f f f f f f f f f f f f f;
#X obj 19 207 bng 15 250 50 0 empty empty empty 0 -6 0 8 -262144 -1
-1;
#X obj 44 206 bng 15 250 50 0 empty empty empty 0 -6 0 8 -262144 -1
-1;
#X obj 72 205 bng 15 250 50 0 empty empty empty 0 -6 0 8 -262144 -1
-1;
#X obj 94 207 bng 15 250 50 0 empty empty empty 0 -6 0 8 -262144 -1
-1;
#X obj 114 208 bng 15 250 50 0 empty empty empty 0 -6 0 8 -262144 -1
-1;
#X obj 135 210 bng 15 250 50 0 empty empty empty 0 -6 0 8 -262144 -1
-1;
#X obj 160 213 bng 15 250 50 0 empty empty empty 0 -6 0 8 -262144 -1
-1;
#X obj 182 215 bng 15 250 50 0 empty empty empty 0 -6 0 8 -262144 -1
-1;
#X obj 208 217 bng 15 250 50 0 empty empty empty 0 -6 0 8 -262144 -1
-1;
#X obj 232 221 bng 15 250 50 0 empty empty empty 0 -6 0 8 -262144 -1
-1;
#X obj 255 226 bng 15 250 50 0 empty empty empty 0 -6 0 8 -262144 -1
-1;
#X obj 279 235 bng 15 250 50 0 empty empty empty 0 -6 0 8 -262144 -1
-1;
#X obj 300 243 bng 15 250 50 0 empty empty empty 0 -6 0 8 -262144 -1
-1;
#X obj 320 251 bng 15 250 50 0 empty empty empty 0 -6 0 8 -262144 -1
-1;
#X obj 339 262 bng 15 250 50 0 empty empty empty 0 -6 0 8 -262144 -1
-1;
#X msg 553 378 1 0 0 0 1 0 0 0 1 0 0 0 1 0 0 0;
#X obj 347 377 s \$0-rhythmic-pattern-list-s;
#X obj 346 412 r \$0-rhythmic-pattern-list-r;
#X obj 85 427 s \$0-beat1-r;
#X obj 105 448 s \$0-beat2-r;
#X obj 116 464 s \$0-beat3-r;
#X obj 130 480 s \$0-beat4-r;
#X obj 171 502 s \$0-beat5-r;
#X obj 186 520 s \$0-beat6-r;
#X obj 203 536 s \$0-beat7-r;
#X obj 220 552 s \$0-beat8-r;
#X obj 241 570 s \$0-beat9-r;
#X obj 275 599 s \$0-beat10-r;
#X obj 297 615 s \$0-beat11-r;
#X obj 321 631 s \$0-beat12-r;
#X obj 352 649 s \$0-beat13-r;
#X obj 365 672 s \$0-beat14-r;
#X obj 394 688 s \$0-beat15-r;
#X obj 423 707 s \$0-beat16-r;
#X obj 346 440 unpack f f f f f f f f f f f f f f f f;
#X msg 680 472 1 0 0 1 1 0 0 0 1 1 1 0 1 0 0 1;
#X obj 680 446 prepend set;
#X obj 553 354 prepend set;
#X connect 0 0 16 0;
#X connect 1 0 16 1;
#X connect 1 0 17 0;
#X connect 2 0 16 2;
#X connect 2 0 18 0;
#X connect 3 0 16 3;
#X connect 3 0 19 0;
#X connect 4 0 16 4;
#X connect 4 0 20 0;
#X connect 5 0 16 5;
#X connect 5 0 21 0;
#X connect 6 0 16 6;
#X connect 6 0 22 0;
#X connect 7 0 16 7;
#X connect 7 0 23 0;
#X connect 8 0 16 8;
#X connect 8 0 24 0;
#X connect 9 0 16 9;
#X connect 9 0 25 0;
#X connect 10 0 16 10;
#X connect 10 0 26 0;
#X connect 11 0 16 11;
#X connect 11 0 27 0;
#X connect 12 0 16 12;
#X connect 12 0 28 0;
#X connect 13 0 16 13;
#X connect 13 0 29 0;
#X connect 14 0 16 14;
#X connect 14 0 30 0;
#X connect 15 0 16 15;
#X connect 15 0 31 0;
#X connect 16 0 33 0;
#X connect 16 0 54 0;
#X connect 17 0 16 0;
#X connect 18 0 16 0;
#X connect 19 0 16 0;
#X connect 20 0 16 0;
#X connect 21 0 16 0;
#X connect 22 0 16 0;
#X connect 23 0 16 0;
#X connect 24 0 16 0;
#X connect 25 0 16 0;
#X connect 26 0 16 0;
#X connect 27 0 16 0;
#X connect 28 0 16 0;
#X connect 29 0 16 0;
#X connect 30 0 16 0;
#X connect 31 0 16 0;
#X connect 34 0 51 0;
#X connect 34 0 53 0;
#X connect 51 0 35 0;
#X connect 51 1 36 0;
#X connect 51 2 37 0;
#X connect 51 3 38 0;
#X connect 51 4 39 0;
#X connect 51 5 40 0;
#X connect 51 6 41 0;
#X connect 51 7 42 0;
#X connect 51 8 43 0;
#X connect 51 9 44 0;
#X connect 51 10 45 0;
#X connect 51 11 46 0;
#X connect 51 12 47 0;
#X connect 51 13 48 0;
#X connect 51 14 49 0;
#X connect 51 15 50 0;
#X connect 53 0 52 0;
#X connect 54 0 32 0;
#X restore 6 10 pd rhytmic-pattern-format;
#N canvas 17 124 1263 680 register-pattern-format 0;
#X obj 21 9 r \$0-register1-s;
#X obj 21 56 abs;
#X obj 21 32 - 7;
#X obj 18 523 pack 4 4 4 4 4 4 4 4 4 4 4 4 4 4 4 4;
#X obj 56 82 abs;
#X obj 56 59 - 7;
#X obj 95 106 abs;
#X obj 95 82 - 7;
#X obj 132 132 abs;
#X obj 132 108 - 7;
#X obj 165 153 abs;
#X obj 165 129 - 7;
#X obj 201 181 abs;
#X obj 201 157 - 7;
#X obj 235 208 abs;
#X obj 235 184 - 7;
#X obj 273 240 abs;
#X obj 273 216 - 7;
#X obj 346 298 abs;
#X obj 346 274 - 7;
#X obj 385 321 abs;
#X obj 385 297 - 7;
#X obj 422 347 abs;
#X obj 422 323 - 7;
#X obj 455 368 abs;
#X obj 455 344 - 7;
#X obj 485 392 abs;
#X obj 485 368 - 7;
#X obj 519 419 abs;
#X obj 519 395 - 7;
#X obj 549 445 abs;
#X obj 549 421 - 7;
#X obj 315 273 abs;
#X obj 315 249 - 7;
#X obj 56 36 r \$0-register2-s;
#X obj 95 59 r \$0-register3-s;
#X obj 132 85 r \$0-register4-s;
#X obj 165 106 r \$0-register5-s;
#X obj 201 134 r \$0-register6-s;
#X obj 235 161 r \$0-register7-s;
#X obj 272 193 r \$0-register8-s;
#X obj 315 226 r \$0-register9-s;
#X obj 346 251 r \$0-register10-s;
#X obj 385 274 r \$0-register11-s;
#X obj 422 300 r \$0-register12-s;
#X obj 456 320 r \$0-register13-s;
#X obj 485 345 r \$0-register14-s;
#X obj 519 372 r \$0-register15-s;
#X obj 549 398 r \$0-register16-s;
#X obj 228 548 show;
#X msg 228 571 4 4 4 4 4 4 4 4 4 4 4 4 4 4 4 4;
#X obj 549 471 t b f;
#X obj 41 114 t b f;
#X obj 63 155 t b f;
#X obj 91 181 t b f;
#X obj 106 208 t b f;
#X obj 177 210 t b f;
#X obj 215 242 t b f;
#X obj 253 273 t b f;
#X obj 268 300 t b f;
#X obj 331 334 t b f;
#X obj 360 362 t b f;
#X obj 401 382 t b f;
#X obj 416 409 t b f;
#X obj 457 425 t b f;
#X obj 472 452 t b f;
#X obj 18 573 s \$0-register-pattern-list-s;
#X obj 645 26 r \$0-register-pattern-list-r;
#X obj 645 51 unpack f f f f f f f f f f f f f f f f;
#X obj 647 608 s \$0-register1-r;
#X obj 647 555 - 7;
#X obj 647 579 abs;
#X obj 675 524 - 7;
#X obj 675 548 abs;
#X obj 709 494 - 7;
#X obj 709 518 abs;
#X obj 737 487 abs;
#X obj 737 466 - 7;
#X obj 774 427 - 7;
#X obj 774 451 abs;
#X obj 802 396 - 7;
#X obj 802 420 abs;
#X obj 836 366 - 7;
#X obj 836 390 abs;
#X obj 864 359 abs;
#X obj 864 338 - 7;
#X obj 894 297 - 7;
#X obj 894 321 abs;
#X obj 922 266 - 7;
#X obj 922 290 abs;
#X obj 956 236 - 7;
#X obj 956 260 abs;
#X obj 984 229 abs;
#X obj 984 208 - 7;
#X obj 1021 169 - 7;
#X obj 1021 193 abs;
#X obj 1049 138 - 7;
#X obj 1049 162 abs;
#X obj 1083 108 - 7;
#X obj 1083 132 abs;
#X obj 1111 101 abs;
#X obj 1111 80 - 7;
#X obj 675 577 s \$0-register2-r;
#X obj 709 547 s \$0-register3-r;
#X obj 737 516 s \$0-register4-r;
#X obj 774 480 s \$0-register5-r;
#X obj 802 449 s \$0-register6-r;
#X obj 836 419 s \$0-register7-r;
#X obj 864 388 s \$0-register8-r;
#X obj 894 350 s \$0-register9-r;
#X obj 922 319 s \$0-register10-r;
#X obj 956 289 s \$0-register11-r;
#X obj 984 258 s \$0-register12-r;
#X obj 1021 222 s \$0-register13-r;
#X obj 1049 191 s \$0-register14-r;
#X obj 1083 161 s \$0-register15-r;
#X obj 1111 130 s \$0-register16-r;
#X connect 0 0 2 0;
#X connect 1 0 3 0;
#X connect 2 0 1 0;
#X connect 3 0 49 0;
#X connect 3 0 66 0;
#X connect 4 0 52 0;
#X connect 5 0 4 0;
#X connect 6 0 53 0;
#X connect 7 0 6 0;
#X connect 8 0 54 0;
#X connect 9 0 8 0;
#X connect 10 0 55 0;
#X connect 11 0 10 0;
#X connect 12 0 56 0;
#X connect 13 0 12 0;
#X connect 14 0 57 0;
#X connect 15 0 14 0;
#X connect 16 0 58 0;
#X connect 17 0 16 0;
#X connect 18 0 60 0;
#X connect 19 0 18 0;
#X connect 20 0 61 0;
#X connect 21 0 20 0;
#X connect 22 0 62 0;
#X connect 23 0 22 0;
#X connect 24 0 63 0;
#X connect 25 0 24 0;
#X connect 26 0 64 0;
#X connect 27 0 26 0;
#X connect 28 0 65 0;
#X connect 29 0 28 0;
#X connect 30 0 51 0;
#X connect 31 0 30 0;
#X connect 32 0 59 0;
#X connect 33 0 32 0;
#X connect 34 0 5 0;
#X connect 35 0 7 0;
#X connect 36 0 9 0;
#X connect 37 0 11 0;
#X connect 38 0 13 0;
#X connect 39 0 15 0;
#X connect 40 0 17 0;
#X connect 41 0 33 0;
#X connect 42 0 19 0;
#X connect 43 0 21 0;
#X connect 44 0 23 0;
#X connect 45 0 25 0;
#X connect 46 0 27 0;
#X connect 47 0 29 0;
#X connect 48 0 31 0;
#X connect 49 0 50 0;
#X connect 51 0 3 0;
#X connect 51 1 3 15;
#X connect 52 0 3 0;
#X connect 52 1 3 1;
#X connect 53 0 3 0;
#X connect 53 1 3 2;
#X connect 54 0 3 0;
#X connect 54 1 3 3;
#X connect 55 0 3 0;
#X connect 55 1 3 4;
#X connect 56 0 3 0;
#X connect 56 1 3 5;
#X connect 57 0 3 0;
#X connect 57 1 3 6;
#X connect 58 0 3 0;
#X connect 58 1 3 7;
#X connect 59 0 3 0;
#X connect 59 1 3 8;
#X connect 60 0 3 0;
#X connect 60 1 3 9;
#X connect 61 0 3 0;
#X connect 61 1 3 10;
#X connect 62 0 3 0;
#X connect 62 1 3 11;
#X connect 63 0 3 0;
#X connect 63 1 3 12;
#X connect 64 0 3 0;
#X connect 64 1 3 13;
#X connect 65 0 3 0;
#X connect 65 1 3 14;
#X connect 67 0 68 0;
#X connect 68 0 70 0;
#X connect 68 1 72 0;
#X connect 68 2 74 0;
#X connect 68 3 77 0;
#X connect 68 4 78 0;
#X connect 68 5 80 0;
#X connect 68 6 82 0;
#X connect 68 7 85 0;
#X connect 68 8 86 0;
#X connect 68 9 88 0;
#X connect 68 10 90 0;
#X connect 68 11 93 0;
#X connect 68 12 94 0;
#X connect 68 13 96 0;
#X connect 68 14 98 0;
#X connect 68 15 101 0;
#X connect 70 0 71 0;
#X connect 71 0 69 0;
#X connect 72 0 73 0;
#X connect 73 0 102 0;
#X connect 74 0 75 0;
#X connect 75 0 103 0;
#X connect 76 0 104 0;
#X connect 77 0 76 0;
#X connect 78 0 79 0;
#X connect 79 0 105 0;
#X connect 80 0 81 0;
#X connect 81 0 106 0;
#X connect 82 0 83 0;
#X connect 83 0 107 0;
#X connect 84 0 108 0;
#X connect 85 0 84 0;
#X connect 86 0 87 0;
#X connect 87 0 109 0;
#X connect 88 0 89 0;
#X connect 89 0 110 0;
#X connect 90 0 91 0;
#X connect 91 0 111 0;
#X connect 92 0 112 0;
#X connect 93 0 92 0;
#X connect 94 0 95 0;
#X connect 95 0 113 0;
#X connect 96 0 97 0;
#X connect 97 0 114 0;
#X connect 98 0 99 0;
#X connect 99 0 115 0;
#X connect 100 0 116 0;
#X connect 101 0 100 0;
#X restore 6 37 pd register-pattern-format;
#N canvas 0 22 1255 736 melody-pattern-format 0;
#X obj 21 61 abs;
#X obj 21 14 r \$0-pitch1;
#X obj 21 36 - 11;
#X obj 73 606 pack 0 0 0 0 0 0 0 0 0 0 0 0 0 0 0 0;
#X obj 68 88 abs;
#X obj 68 63 - 11;
#X obj 112 111 abs;
#X obj 112 86 - 11;
#X obj 156 132 abs;
#X obj 156 107 - 11;
#X obj 198 161 abs;
#X obj 198 136 - 11;
#X obj 242 184 abs;
#X obj 242 159 - 11;
#X obj 286 205 abs;
#X obj 286 180 - 11;
#X obj 327 229 abs;
#X obj 327 204 - 11;
#X obj 371 252 abs;
#X obj 371 227 - 11;
#X obj 415 273 abs;
#X obj 415 248 - 11;
#X obj 457 302 abs;
#X obj 457 277 - 11;
#X obj 501 325 abs;
#X obj 501 300 - 11;
#X obj 545 346 abs;
#X obj 545 321 - 11;
#X obj 581 370 abs;
#X obj 581 345 - 11;
#X obj 625 391 abs;
#X obj 625 366 - 11;
#X obj 657 434 abs;
#X obj 657 409 - 11;
#X obj 262 636 show;
#X msg 262 660 0 0 0 0 0 0 0 0 0 0 0 0 0 0 0 0;
#X obj 68 41 r \$0-pitch2;
#X obj 112 64 r \$0-pitch3;
#X obj 156 85 r \$0-pitch4;
#X obj 198 114 r \$0-pitch5;
#X obj 242 137 r \$0-pitch6;
#X obj 286 158 r \$0-pitch7;
#X obj 327 182 r \$0-pitch8;
#X obj 371 205 r \$0-pitch9;
#X obj 415 225 r \$0-pitch10;
#X obj 457 255 r \$0-pitch11;
#X obj 501 278 r \$0-pitch12;
#X obj 545 299 r \$0-pitch13;
#X obj 581 323 r \$0-pitch14;
#X obj 625 344 r \$0-pitch15;
#X obj 657 387 r \$0-pitch16;
#X obj 649 535 t b f;
#X obj 599 513 t b f;
#X obj 63 133 t b f;
#X obj 99 160 t b f;
#X obj 139 196 t b f;
#X obj 191 223 t b f;
#X obj 235 246 t b f;
#X obj 263 277 t b f;
#X obj 309 296 t b f;
#X obj 356 323 t b f;
#X obj 406 361 t b f;
#X obj 438 395 t b f;
#X obj 478 430 t b f;
#X obj 505 459 t b f;
#X obj 559 486 t b f;
#X obj 73 638 s \$0-pitch-pattern-list-s;
#X obj 725 6 r \$0-pitch-pattern-list-r;
#X obj 727 681 s \$0-pitch1-ctl;
#X obj 727 653 abs;
#X obj 727 628 - 11;
#X obj 761 627 abs;
#X obj 761 602 - 11;
#X obj 799 600 abs;
#X obj 799 575 - 11;
#X obj 833 574 abs;
#X obj 833 549 - 11;
#X obj 874 549 abs;
#X obj 874 524 - 11;
#X obj 908 523 abs;
#X obj 908 498 - 11;
#X obj 946 496 abs;
#X obj 946 471 - 11;
#X obj 980 470 abs;
#X obj 980 445 - 11;
#X obj 1019 439 abs;
#X obj 1019 414 - 11;
#X obj 1053 413 abs;
#X obj 1053 388 - 11;
#X obj 1091 386 abs;
#X obj 1091 361 - 11;
#X obj 1125 360 abs;
#X obj 1125 335 - 11;
#X obj 1166 335 abs;
#X obj 1166 310 - 11;
#X obj 1200 309 abs;
#X obj 1200 284 - 11;
#X obj 1238 282 abs;
#X obj 1238 257 - 11;
#X obj 1272 256 abs;
#X obj 1272 231 - 11;
#X obj 724 38 unpack f f f f f f f f f f f f f f f f;
#X obj 761 655 s \$0-pitch2-ctl;
#X obj 799 628 s \$0-pitch3-ctl;
#X obj 833 602 s \$0-pitch4-ctl;
#X obj 874 577 s \$0-pitch5-ctl;
#X obj 908 551 s \$0-pitch6-ctl;
#X obj 946 524 s \$0-pitch7-ctl;
#X obj 980 498 s \$0-pitch8-ctl;
#X obj 1019 467 s \$0-pitch9-ctl;
#X obj 1053 441 s \$0-pitch10-ctl;
#X obj 1091 414 s \$0-pitch11-ctl;
#X obj 1125 388 s \$0-pitch12-ctl;
#X obj 1166 363 s \$0-pitch13-ctl;
#X obj 1200 337 s \$0-pitch14-ctl;
#X obj 1238 310 s \$0-pitch15-ctl;
#X obj 1272 284 s \$0-pitch16-ctl;
#X connect 0 0 3 0;
#X connect 1 0 2 0;
#X connect 2 0 0 0;
#X connect 3 0 34 0;
#X connect 3 0 66 0;
#X connect 4 0 53 0;
#X connect 5 0 4 0;
#X connect 6 0 54 0;
#X connect 7 0 6 0;
#X connect 8 0 55 0;
#X connect 9 0 8 0;
#X connect 10 0 56 0;
#X connect 11 0 10 0;
#X connect 12 0 57 0;
#X connect 13 0 12 0;
#X connect 14 0 58 0;
#X connect 15 0 14 0;
#X connect 16 0 59 0;
#X connect 17 0 16 0;
#X connect 18 0 60 0;
#X connect 19 0 18 0;
#X connect 20 0 61 0;
#X connect 21 0 20 0;
#X connect 22 0 62 0;
#X connect 23 0 22 0;
#X connect 24 0 63 0;
#X connect 25 0 24 0;
#X connect 26 0 64 0;
#X connect 27 0 26 0;
#X connect 28 0 65 0;
#X connect 29 0 28 0;
#X connect 30 0 52 0;
#X connect 31 0 30 0;
#X connect 32 0 51 0;
#X connect 33 0 32 0;
#X connect 34 0 35 0;
#X connect 36 0 5 0;
#X connect 37 0 7 0;
#X connect 38 0 9 0;
#X connect 39 0 11 0;
#X connect 40 0 13 0;
#X connect 41 0 15 0;
#X connect 42 0 17 0;
#X connect 43 0 19 0;
#X connect 44 0 21 0;
#X connect 45 0 23 0;
#X connect 46 0 25 0;
#X connect 47 0 27 0;
#X connect 48 0 29 0;
#X connect 49 0 31 0;
#X connect 50 0 33 0;
#X connect 51 0 3 0;
#X connect 51 1 3 15;
#X connect 52 0 3 0;
#X connect 52 1 3 14;
#X connect 53 0 3 0;
#X connect 53 1 3 1;
#X connect 54 0 3 0;
#X connect 54 1 3 2;
#X connect 55 0 3 0;
#X connect 55 1 3 3;
#X connect 56 0 3 0;
#X connect 56 1 3 4;
#X connect 57 0 3 0;
#X connect 57 1 3 5;
#X connect 58 0 3 0;
#X connect 58 1 3 6;
#X connect 59 0 3 0;
#X connect 59 1 3 7;
#X connect 60 0 3 0;
#X connect 60 1 3 8;
#X connect 61 0 3 0;
#X connect 61 1 3 9;
#X connect 62 0 3 0;
#X connect 62 1 3 10;
#X connect 63 0 3 0;
#X connect 63 1 3 11;
#X connect 64 0 3 0;
#X connect 64 1 3 12;
#X connect 65 0 3 0;
#X connect 65 1 3 13;
#X connect 67 0 101 0;
#X connect 69 0 68 0;
#X connect 70 0 69 0;
#X connect 71 0 102 0;
#X connect 72 0 71 0;
#X connect 73 0 103 0;
#X connect 74 0 73 0;
#X connect 75 0 104 0;
#X connect 76 0 75 0;
#X connect 77 0 105 0;
#X connect 78 0 77 0;
#X connect 79 0 106 0;
#X connect 80 0 79 0;
#X connect 81 0 107 0;
#X connect 82 0 81 0;
#X connect 83 0 108 0;
#X connect 84 0 83 0;
#X connect 85 0 109 0;
#X connect 86 0 85 0;
#X connect 87 0 110 0;
#X connect 88 0 87 0;
#X connect 89 0 111 0;
#X connect 90 0 89 0;
#X connect 91 0 112 0;
#X connect 92 0 91 0;
#X connect 93 0 113 0;
#X connect 94 0 93 0;
#X connect 95 0 114 0;
#X connect 96 0 95 0;
#X connect 97 0 115 0;
#X connect 98 0 97 0;
#X connect 99 0 116 0;
#X connect 100 0 99 0;
#X connect 101 0 70 0;
#X connect 101 1 72 0;
#X connect 101 2 74 0;
#X connect 101 3 76 0;
#X connect 101 4 78 0;
#X connect 101 5 80 0;
#X connect 101 6 82 0;
#X connect 101 7 84 0;
#X connect 101 8 86 0;
#X connect 101 9 88 0;
#X connect 101 10 90 0;
#X connect 101 11 92 0;
#X connect 101 12 94 0;
#X connect 101 13 96 0;
#X connect 101 14 98 0;
#X connect 101 15 100 0;
#X restore 7 65 pd melody-pattern-format;
#N canvas 489 316 619 376 velocity-array-to-list-format 0;
#X obj 14 78 tabread \$0-velocity;
#X obj 14 27 cyclone/counter 0 15;
#X obj 14 233 list-replace 0;
#X obj 14 264 show;
#X msg 107 177 0 0 0 0 0 0 0 0 0 0 0 0 0 0 0 0;
#X obj 14 51 t f f b;
#X obj 13 -48 loadbang;
#X text 185 -33 list updated at each tick... probably not really efficient.
think about better solution;
#X obj 15 9 until;
#X msg 15 -10 16;
#X obj 84 -46 r \$0-tick-s;
#X obj 84 -25 bng 15 250 50 0 empty empty empty 0 -6 0 8 -262144 -1
-1;
#X obj 67 283 s \$0-velocity-pattern-list-s;
#X obj 351 44 r \$0-velocity-pattern-list-r;
#X obj 351 96 s \$0-velocity;
#X obj 351 70 prepend 0;
#X connect 0 0 2 0;
#X connect 1 0 5 0;
#X connect 2 0 3 0;
#X connect 2 0 12 0;
#X connect 3 0 4 0;
#X connect 4 0 2 2;
#X connect 5 0 0 0;
#X connect 5 1 2 1;
#X connect 5 2 4 0;
#X connect 6 0 9 0;
#X connect 8 0 1 0;
#X connect 9 0 8 0;
#X connect 10 0 11 0;
#X connect 11 0 9 0;
#X connect 13 0 15 0;
#X connect 15 0 14 0;
#X restore 6 94 pd velocity-array-to-list-format;
#X text 5 119 get all the gui values into lists;
#X restore 107 506 pd format-gui-data;
#N canvas 151 133 881 401 guts 0;
#X obj 214 352 outlet;
#X obj 214 274 pitch2note;
#X msg 19 60 1 0 0 0 1 0 0 0 1 0 0 0 1 0 0 0;
#X msg 214 162 0 0 0 0 0 0 0 0 0 0 0 0 0 0 0 0;
#X msg 384 63 4 4 4 4 4 4 4 4 4 4 4 4 4 4 4 4;
#X msg 613 112 0 0 0 0 0 0 0 0 0 0 0 0 0 0 0 0;
#X obj 279 188 r \$0-tick-s;
#X obj 214 216 list-idx 0;
#X floatatom 220 238 5 0 0 0 - - -;
#X floatatom 293 216 5 0 0 0 - - -;
#X obj 19 112 bng 15 250 50 0 empty empty empty 0 -6 0 8 -262144 -1
-1;
#X obj 19 90 r \$0-seqbang;
#X obj 214 98 prepend set;
#X obj 19 39 prepend set;
#X obj 384 40 prepend set;
#X obj 613 87 prepend set;
#X obj 449 214 r \$0-tick-s;
#X obj 384 241 list-idx 0;
#X floatatom 384 263 5 0 0 0 - - -;
#X floatatom 460 243 5 0 0 0 - - -;
#X obj 638 198 r \$0-tick-s;
#X obj 573 246 list-idx 0;
#X floatatom 626 274 5 0 0 0 - - -;
#X floatatom 665 272 5 0 0 0 - - -;
#X text 575 316 output midi note and velocity with given rhythm;
#X obj 573 274 outlet;
#X obj 230 300 r \$0-transpose-s;
#X obj 214 326 + 0;
#X obj 586 184 bng 15 250 50 0 empty empty empty 0 -6 0 8 -262144 -1
-1;
#X obj 19 18 r \$0-rhythmic-pattern-list;
#X obj 214 17 r \$0-pitch-pattern-list-s;
#X obj 384 17 r \$0-register-pattern-list-s;
#X obj 585 16 r \$0-velocity-pattern-list-s;
#X floatatom 665 226 5 0 0 0 - - -;
#X floatatom 338 209 5 0 0 0 - - -;
#X obj 162 181 bng 15 250 50 0 empty empty empty 0 -6 0 8 -262144 -1
-1;
#X obj 758 236 t l b;
#X obj 758 267 print t;
#X msg 758 208 list 2 3 4;
#X obj 538 156 list;
#X obj 81 147 t b b;
#X connect 1 0 27 0;
#X connect 3 0 7 0;
#X connect 4 0 17 0;
#X connect 6 0 7 1;
#X connect 6 0 9 0;
#X connect 7 0 8 0;
#X connect 7 0 1 0;
#X connect 11 0 10 0;
#X connect 11 0 39 0;
#X connect 11 0 40 0;
#X connect 12 0 3 0;
#X connect 13 0 2 0;
#X connect 14 0 4 0;
#X connect 15 0 5 0;
#X connect 16 0 17 1;
#X connect 16 0 19 0;
#X connect 17 0 18 0;
#X connect 17 0 1 1;
#X connect 20 0 23 0;
#X connect 20 0 21 1;
#X connect 21 0 22 0;
#X connect 21 0 25 0;
#X connect 26 0 27 1;
#X connect 27 0 0 0;
#X connect 28 0 21 0;
#X connect 29 0 13 0;
#X connect 30 0 12 0;
#X connect 31 0 14 0;
#X connect 32 0 15 0;
#X connect 32 0 39 1;
#X connect 33 0 21 1;
#X connect 34 0 7 1;
#X connect 35 0 7 0;
#X connect 36 0 37 0;
#X connect 38 0 36 0;
#X connect 39 0 21 0;
#X connect 40 0 3 0;
#X connect 40 1 4 0;
#X restore 107 574 pd guts;
#X text 335 612 Upper or Lower number of beats per mesure;
#X text 285 554 To do:;
#X obj 107 600 outlet;
#X obj 153 600 outlet;
#N canvas 157 320 699 455 initialize-parameters 0;
#X obj 28 12 loadbang;
#X text 27 251 Intialize all toggles to zero;
#X obj 62 50 float \$0;
#X obj 28 42 bng 15 250 50 0 empty empty empty 0 -6 0 8 -262144 -1
-1;
#X obj 96 12 r \$0-resetbutton;
#X text 26 229 initialize pitch histogram;
#X msg 391 116 \; \$1-register1-r 3 \; \$1-register2-r 3 \; \$1-register3-r
3 \; \$1-register4-r 3 \; \$1-register5-r 3 \; \$1-register6-r 3 \;
\$1-register7-r 3 \; \$1-register8-r 3 \; \$1-register9-r 3 \; \$1-register10-r
3 \; \$1-register11-r 3 \; \$1-register12-r 3 \; \$1-register13-r 3
\; \$1-register14-r 3 \; \$1-register15-r 3 \; \$1-register16-r 3 \;
;
#X obj 28 367 s \$0-velocity;
#X msg 28 341 0 64 64 64 64 64 64 64 64 64 64 64 64 64 64 64 64;
#X msg 396 343 1 0 0 0 1 0 0 0 1 0 0 0 1 0 0 0;
#X obj 396 367 s \$0-rhythmic-pattern-r;
#X msg 258 82 \; \$1-pitch1-ctl 11 \; \$1-pitch2-ctl 11 \; \$1-pitch3-ctl
11 \; \$1-pitch4-ctl 11 \; \$1-pitch5-ctl 11 \; \$1-pitch6-ctl 11 \;
\$1-pitch7-ctl 11 \; \$1-pitch8-ctl 11 \; \$1-pitch9-ctl 11 \; \$1-pitch10-ctl
11 \; \$1-pitch11-ctl 11 \; \$1-pitch12-ctl 11 \; \$1-pitch13-ctl 11
\; \$1-pitch14-ctl 11 \; \$1-pitch15-ctl 11 \; \$1-pitch16-ctl 11 \;
;
#X msg 552 78 \; \$1-beat1-r 1 \; \$1-beat2-r 0 \; \$1-beat3-r 0 \;
\$1-beat4-r 0 \; \$1-beat5-r 1 \; \$1-beat6-r 0 \; \$1-beat7-r 0 \;
\$1-beat8-r 0 \; \$1-beat9-r 1 \; \$1-beat10-r 0 \; \$1-beat11-r 0
\; \$1-beat12-r 0 \; \$1-beat13-r 1 \; \$1-beat14-r 0 \; \$1-beat15-r
0 \; \$1-beat16-r 0 \;;
#X msg 108 101 \; \$1-bpm-r 60 \; \$1-spb-r 4 \; \$1-play-r 0 \; \$1-transpose-r
0 \;;
#X connect 0 0 3 0;
#X connect 2 0 13 0;
#X connect 2 0 11 0;
#X connect 2 0 6 0;
#X connect 2 0 12 0;
#X connect 3 0 2 0;
#X connect 3 0 8 0;
#X connect 3 0 9 0;
#X connect 4 0 3 0;
#X connect 8 0 7 0;
#X connect 9 0 10 0;
#X restore 106 528 pd initialize-parameters;
#X obj 259 130 nbx 3 10 1 240 0 0 \$0-spb-s \$0-spb-r empty 0 -6 0
10 -106458 -1 -1 4 256;
#X text 225 128 SPB;
#X obj 290 265 nbx 3 10 -127 127 0 0 \$0-transpose-s \$0-transpose-r
empty 0 -6 0 10 -106458 -1 -1 0 256;
#X text 102 364 1;
#X text 102 352 2;
#X text 102 342 3;
#X text 102 323 5;
#X text 102 332 4;
#X text 102 312 6;
#X text 102 302 7;
#X text 274 362 1;
#X text 275 353 2;
#X text 274 341 3;
#X text 274 322 5;
#X text 274 331 4;
#X text 274 311 6;
#X text 274 301 7;
#X text 110 394 fff;
#X text 112 431 ppp;
#X text 279 247 Transpose;
#X obj 108 623 import maxlib cyclone;
#N canvas 178 160 997 562 save-load-parameters 0;
#X msg 416 279 write;
#X msg 460 280 read;
#X obj 16 131 list;
#X obj 39 92 list prepend 1;
#X obj 203 121 list;
#X obj 378 123 list;
#X obj 567 121 list;
#X obj 226 95 list prepend 2;
#X obj 401 95 list prepend 3;
#X obj 590 95 list prepend 4;
#X obj 746 243 bng 15 250 50 0 empty empty empty 0 -6 0 8 -262144 -1
-1;
#X msg 498 281 clear;
#X msg 176 90 clear;
#X obj 779 39 r \$0-bpm-s;
#X obj 729 95 pack 5 f;
#X obj 864 66 r \$0-transpose-s;
#X obj 813 94 pack 6 f;
#X text 773 244 load data in coll;
#X obj 266 354 print coll;
#X obj 345 380 route 1 2 3 4 5 6;
#X msg 580 281 dump;
#X msg 543 281 next;
#X obj 345 354 list prepend;
#X obj 773 500 s \$0-bpm-r;
#X obj 850 499 s \$0-transpose-r;
#X obj 23 47 r \$0-rhythmic-pattern-list-s;
#X obj 226 71 r \$0-pitch-pattern-list-s;
#X obj 401 38 r \$0-register-pattern-list-s;
#X obj 590 66 r \$0-velocity-pattern-list-s;
#X obj 32 500 s \$0-rhythmic-pattern-list-r;
#X obj 222 475 s \$0-pitch-pattern-list-r;
#X obj 357 500 s \$0-register-pattern-list-r;
#X obj 568 499 s \$0-velocity-pattern-list-r;
#X obj 640 321 t b b;
#X obj 640 298 r \$0-save-s;
#X obj 502 248 r \$0-load-s;
#X obj 345 314 coll \$0-style-file;
#C restore;
#X obj 83 243 r \$0-to-coll-s;
#X connect 0 0 36 0;
#X connect 1 0 36 0;
#X connect 2 0 36 0;
#X connect 3 0 2 1;
#X connect 4 0 36 0;
#X connect 5 0 36 0;
#X connect 6 0 36 0;
#X connect 7 0 4 1;
#X connect 8 0 5 1;
#X connect 9 0 6 1;
#X connect 10 0 2 0;
#X connect 10 0 4 0;
#X connect 10 0 5 0;
#X connect 10 0 6 0;
#X connect 10 0 14 0;
#X connect 10 0 16 0;
#X connect 11 0 36 0;
#X connect 12 0 3 1;
#X connect 13 0 14 1;
#X connect 14 0 36 0;
#X connect 15 0 16 1;
#X connect 16 0 36 0;
#X connect 19 0 29 0;
#X connect 19 1 30 0;
#X connect 19 2 31 0;
#X connect 19 3 32 0;
#X connect 19 4 23 0;
#X connect 19 5 24 0;
#X connect 20 0 36 0;
#X connect 21 0 36 0;
#X connect 22 0 19 0;
#X connect 25 0 3 0;
#X connect 26 0 7 0;
#X connect 27 0 8 0;
#X connect 28 0 9 0;
#X connect 33 0 0 0;
#X connect 33 1 10 0;
#X connect 34 0 33 0;
#X connect 35 0 1 0;
#X connect 36 0 18 0;
#X connect 36 0 22 0;
#X connect 36 1 22 1;
#X connect 36 2 20 0;
#X connect 37 0 36 0;
#X restore 107 551 pd save-load-parameters;
#X obj 376 179 bng 10 250 50 0 \$0-save-s \$0-save-r empty 0 -6 0 8
-259712 -1 -1;
#X obj 426 180 bng 10 250 50 0 \$0-load-s \$0-load-r empty 0 -6 0 8
-260097 -1 -1;
#X text 348 175 Save;
#X text 389 175 Load;
#X obj 517 35 inlet;
#N canvas 48 22 568 253 osc-inputs 0;
#X obj 13 8 inlet;
#X obj 13 58 s \$0-play-r;
#X obj 56 79 s \$0-bpm-r;
#X obj 82 103 s \$0-transpose-r;
#X obj 139 127 s \$0-resetbutton-ctl;
#X obj 300 175 s \$0-rhythm-random-r;
#X obj 348 202 s \$0-register-random-r;
#X obj 13 34 OSCroute /play /bpm /transpose /reset /cyclecell /random-rhythm
/random-register;
#X obj 192 151 s \$0-cyclecell;
#X connect 0 0 7 0;
#X connect 7 0 1 0;
#X connect 7 1 2 0;
#X connect 7 2 3 0;
#X connect 7 3 4 0;
#X connect 7 4 8 0;
#X connect 7 5 5 0;
#X connect 7 6 6 0;
#X restore 517 59 pd osc-inputs;
#X text 515 18 OSC input;
#X obj 419 36 inlet;
#X text 418 17 Dummy Inlet;
#N canvas 51 45 728 262 load-style-file 0;
#X obj 78 163 s \$0-to-coll-s;
#X msg 78 132 read \$1;
#X obj 78 84 r \$0-load-style-file-r;
#X msg 30 61 read stylefiles/theodorepianobass;
#X msg 16 41 read stylefiles/theodorepianomelody;
#X obj 240 154 prepend set;
#X msg 244 183 /Users/sylvainlegroux/Projects/Roboser/stylefiles/light/6
;
#X obj 78 108 symbol;
#X connect 1 0 0 0;
#X connect 2 0 5 0;
#X connect 2 0 7 0;
#X connect 3 0 0 0;
#X connect 4 0 0 0;
#X connect 5 0 6 0;
#X connect 7 0 1 0;
#X restore 256 488 pd load-style-file;
#X obj 300 395 bng 10 250 50 0 \$0-rhythm-random-s \$0-rhythm-random-r
empty 0 -6 0 8 -259674 -1 -1;
#N canvas 32 22 1252 755 randomize-parameters 0;
#X obj 276 56 make-choice-list 16 16 0 1;
#X obj 276 32 r \$0-rhythm-random-s;
#X obj 15 64 s \$0-beat1-r;
#X obj 35 85 s \$0-beat2-r;
#X obj 46 101 s \$0-beat3-r;
#X obj 60 117 s \$0-beat4-r;
#X obj 101 139 s \$0-beat5-r;
#X obj 116 157 s \$0-beat6-r;
#X obj 133 173 s \$0-beat7-r;
#X obj 150 189 s \$0-beat8-r;
#X obj 171 207 s \$0-beat9-r;
#X obj 205 236 s \$0-beat10-r;
#X obj 227 252 s \$0-beat11-r;
#X obj 251 268 s \$0-beat12-r;
#X obj 282 286 s \$0-beat13-r;
#X obj 295 309 s \$0-beat14-r;
#X obj 324 325 s \$0-beat15-r;
#X obj 353 344 s \$0-beat16-r;
#X obj 276 77 unpack f f f f f f f f f f f f f f f f;
#X obj 17 560 list;
#X obj 17 584 list append;
#X obj 59 533 t b f;
#X obj 17 612 prepend set;
#X msg 17 637 6 7 7 7 7 6 6 5 5 5 4 3 5 4 5 5;
#X msg 59 460 16;
#X obj 59 490 until;
#X obj 58 405 r \$0-register-random-s;
#X obj 645 51 unpack f f f f f f f f f f f f f f f f;
#X obj 647 608 s \$0-register1-r;
#X obj 647 555 - 7;
#X obj 647 579 abs;
#X obj 675 524 - 7;
#X obj 675 548 abs;
#X obj 709 494 - 7;
#X obj 709 518 abs;
#X obj 737 487 abs;
#X obj 737 466 - 7;
#X obj 774 427 - 7;
#X obj 774 451 abs;
#X obj 802 396 - 7;
#X obj 802 420 abs;
#X obj 836 366 - 7;
#X obj 836 390 abs;
#X obj 864 359 abs;
#X obj 864 338 - 7;
#X obj 894 297 - 7;
#X obj 894 321 abs;
#X obj 922 266 - 7;
#X obj 922 290 abs;
#X obj 956 236 - 7;
#X obj 956 260 abs;
#X obj 984 229 abs;
#X obj 984 208 - 7;
#X obj 1021 169 - 7;
#X obj 1021 193 abs;
#X obj 1049 138 - 7;
#X obj 1049 162 abs;
#X obj 1083 108 - 7;
#X obj 1083 132 abs;
#X obj 1111 101 abs;
#X obj 1111 80 - 7;
#X obj 675 577 s \$0-register2-r;
#X obj 709 547 s \$0-register3-r;
#X obj 737 516 s \$0-register4-r;
#X obj 774 480 s \$0-register5-r;
#X obj 802 449 s \$0-register6-r;
#X obj 836 419 s \$0-register7-r;
#X obj 864 388 s \$0-register8-r;
#X obj 894 350 s \$0-register9-r;
#X obj 922 319 s \$0-register10-r;
#X obj 956 289 s \$0-register11-r;
#X obj 984 258 s \$0-register12-r;
#X obj 1021 222 s \$0-register13-r;
#X obj 1049 191 s \$0-register14-r;
#X obj 1083 161 s \$0-register15-r;
#X obj 1111 130 s \$0-register16-r;
#X obj 58 434 t b b;
#X obj 35 405 bng 15 250 50 0 empty empty empty 0 -6 0 8 -262144 -1
-1;
#X obj 59 511 brownian 3 8 0.3;
#X connect 0 0 18 0;
#X connect 1 0 0 0;
#X connect 18 0 2 0;
#X connect 18 1 3 0;
#X connect 18 2 4 0;
#X connect 18 3 5 0;
#X connect 18 4 6 0;
#X connect 18 5 7 0;
#X connect 18 6 8 0;
#X connect 18 7 9 0;
#X connect 18 8 10 0;
#X connect 18 9 11 0;
#X connect 18 10 12 0;
#X connect 18 11 13 0;
#X connect 18 12 14 0;
#X connect 18 13 15 0;
#X connect 18 14 16 0;
#X connect 18 15 17 0;
#X connect 19 0 20 0;
#X connect 20 0 19 1;
#X connect 20 0 22 0;
#X connect 20 0 27 0;
#X connect 21 0 19 0;
#X connect 21 1 20 1;
#X connect 22 0 23 0;
#X connect 24 0 25 0;
#X connect 25 0 78 0;
#X connect 26 0 76 0;
#X connect 27 0 29 0;
#X connect 27 1 31 0;
#X connect 27 2 33 0;
#X connect 27 3 36 0;
#X connect 27 4 37 0;
#X connect 27 5 39 0;
#X connect 27 6 41 0;
#X connect 27 7 44 0;
#X connect 27 8 45 0;
#X connect 27 9 47 0;
#X connect 27 10 49 0;
#X connect 27 11 52 0;
#X connect 27 12 53 0;
#X connect 27 13 55 0;
#X connect 27 14 57 0;
#X connect 27 15 60 0;
#X connect 29 0 30 0;
#X connect 30 0 28 0;
#X connect 31 0 32 0;
#X connect 32 0 61 0;
#X connect 33 0 34 0;
#X connect 34 0 62 0;
#X connect 35 0 63 0;
#X connect 36 0 35 0;
#X connect 37 0 38 0;
#X connect 38 0 64 0;
#X connect 39 0 40 0;
#X connect 40 0 65 0;
#X connect 41 0 42 0;
#X connect 42 0 66 0;
#X connect 43 0 67 0;
#X connect 44 0 43 0;
#X connect 45 0 46 0;
#X connect 46 0 68 0;
#X connect 47 0 48 0;
#X connect 48 0 69 0;
#X connect 49 0 50 0;
#X connect 50 0 70 0;
#X connect 51 0 71 0;
#X connect 52 0 51 0;
#X connect 53 0 54 0;
#X connect 54 0 72 0;
#X connect 55 0 56 0;
#X connect 56 0 73 0;
#X connect 57 0 58 0;
#X connect 58 0 74 0;
#X connect 59 0 75 0;
#X connect 60 0 59 0;
#X connect 76 0 24 0;
#X connect 76 1 19 1;
#X connect 77 0 76 0;
#X connect 78 0 21 0;
#X restore 256 466 pd randomize-parameters;
#X obj 301 340 bng 10 250 50 0 \$0-register-random-s \$0-register-random-r
empty 0 -6 0 8 -259674 -1 -1;
#X obj 636 71 list-apply == 0;
#X msg 636 44 1 0 0 0 1 0 1;
#X obj 636 96 prepend set;
#X msg 636 121 0 1 1 1 0 1 0;
#X obj 343 251 playlist all 100 180 {Helvetica 9 normal} #457782 yellow
black red;
#X msg 507 182 seek \$1;
#N canvas 0 22 550 209 default-folder 0;
#X obj 30 42 loadbang;
#X obj 30 95 outlet;
#X msg 30 62 location /Users/sylvainlegroux/Projects/Roboser/stylefiles/light
;
#X msg 200 123 font Helvetica normal 9;
#X connect 0 0 2 0;
#X connect 0 0 3 0;
#X connect 2 0 1 0;
#X connect 3 0 1 0;
#X restore 507 234 pd default-folder;
#X obj 249 98 comment 0 20 Times ? 0 255 128 0 Musical Cell;
#X obj 50 18 comment 142 14 Helvetica ? 0 0 128 128 Musical Cell;
#X obj 404 467 prepend set;
#X msg 404 490 /Users/sylvainlegroux/Projects/Roboser/stylefiles/light/6
;
#X obj 492 440 s \$0-load-style-file-r;
#X obj 339 137 cnv 15 100 15 empty empty empty 3 9 1 9 -104064 -262144
0;
#X text 338 135 Preset Management;
#X obj 342 206 cnv 15 100 15 empty empty empty 3 9 1 9 -104064 -262144
0;
#X text 349 192 comment;
#X text 353 205 File Loader GUI;
#X obj 281 228 cnv 15 50 15 empty empty empty 3 9 1 9 -104064 -262144
0;
#X text 285 228 Melody;
#X obj 284 317 cnv 15 50 15 empty empty empty 3 9 1 9 -104064 -262144
0;
#X text 288 316 Register;
#X obj 283 376 cnv 15 50 15 empty empty empty 3 9 1 9 -104064 -262144
0;
#X text 288 373 Pattern;
#X obj 284 416 cnv 15 50 15 empty empty empty 3 9 1 9 -104064 -262144
0;
#X text 287 415 Velocity;
#X text 339 434 slegroux@iua.upf.edu;
#X obj 507 155 r \$0-cyclecell;
#N canvas 26 22 502 300 update-gui-values-endofcycle 0;
#X obj 179 239 outlet;
#X obj 179 71 r \$0-tick-s;
#X floatatom 261 104 5 0 0 0 - - -;
#X obj 71 147 s \$0-transpose-r;
#X obj 92 171 s \$0-bpm-r;
#X obj 111 193 s \$0-register-r;
#X text 94 16 At the end of each cell cycle look up for gui modulation
values \, and take into account.;
#X obj 179 94 sel 0;
#X obj 280 138 sel 15;
#X obj 289 188 float;
#X obj 334 190 float;
#X connect 1 0 2 0;
#X connect 1 0 7 0;
#X connect 1 0 8 0;
#X connect 7 0 0 0;
#X connect 7 0 3 0;
#X connect 7 0 4 0;
#X connect 7 0 5 0;
#X restore 486 322 pd update-gui-values-endofcycle;
#X obj 486 352 outlet;
#X connect 42 0 43 0;
#X connect 121 0 124 0;
#X connect 121 1 125 0;
#X connect 153 0 154 0;
#X connect 162 0 164 0;
#X connect 163 0 162 0;
#X connect 164 0 165 0;
#X connect 166 0 171 0;
#X connect 166 0 173 0;
#X connect 167 0 166 0;
#X connect 168 0 166 0;
#X connect 171 0 172 0;
#X connect 188 0 167 0;
#X connect 189 0 190 0;
#X coords 0 -1 1 1 350 350 1 100 100;
