#N canvas 214 64 1183 768 10;
#X obj 101 101 cnv 15 168 68 empty empty empty 20 12 0 14 -1 -66577
0;
#X obj 103 103 cnv 15 164 64 empty empty empty 20 12 0 14 -233017 -66577
0;
#X obj 314 182 seq;
#X msg 242 210 read;
#X obj 314 304 midiparse;
#X obj 379 525 unpack f f;
#X floatatom 379 555 5 0 0 0 - - -;
#X floatatom 444 555 5 0 0 0 - - -;
#X text 378 571 pitch;
#X text 443 572 velocity;
#X text 461 525 note on messages;
#X obj 388 456 unpack f f;
#X floatatom 388 486 5 0 0 0 - - -;
#X floatatom 453 486 5 0 0 0 - - -;
#X text 387 501 aftert;
#X text 453 503 pitch;
#X text 466 456 poly aftertouch messages;
#X obj 398 393 unpack f f;
#X floatatom 398 423 5 0 0 0 - - -;
#X floatatom 463 423 5 0 0 0 - - -;
#X text 397 438 value;
#X text 463 438 ctrl nr;
#X text 477 393 controller messages;
#X floatatom 408 369 5 0 0 0 - - -;
#X floatatom 417 347 5 0 0 0 - - -;
#X floatatom 437 321 5 0 0 0 - - -;
#X floatatom 437 301 5 0 0 0 - - -;
#X text 455 369 program change;
#X text 472 325 pitch bend;
#X text 462 349 aftertouch;
#X text 480 300 channel number;
#X msg 493 15 print;
#X msg 545 16 record;
#X msg 259 -41 stop;
#X msg 610 16 append;
#X msg 755 116 start \$1;
#X msg 755 70 512;
#X floatatom 755 96 5 0 0 0 - - -;
#X msg 633 100 delay \$1;
#X floatatom 633 77 5 0 0 0 - - -;
#X msg 694 100 hook \$1;
#X floatatom 694 79 5 0 0 0 - - -;
#X msg 278 210 write;
#X obj 311 606 midiformat;
#X obj 955 -6 tgl 15 0 empty empty empty 0 -6 0 8 -262144 -1 -1 0 1
;
#X msg 955 44 tick;
#X obj 1000 -7 / 48;
#X obj 955 17 metro 21;
#X obj 1000 -34 * 1000;
#X floatatom 1000 -58 5 0 0 0 - - -;
#X msg 1000 -85 1;
#X obj 228 14 int 1024;
#X floatatom 286 -28 5 0 0 0 - - -;
#X obj 273 -9 * 1024;
#X msg 228 37 start \$1;
#X msg 607 165 delay 0;
#X text 689 54 multiply all event times;
#X obj 668 498 flush;
#X obj 668 526 slg.notetransposer;
#X obj 668 551 pack;
#X obj 311 634 midiout;
#X obj 106 147 hsl 120 15 -36 36 0 0 empty empty empty -2 -6 0 10 -261682
-1 -1 5950 1;
#X obj 742 575 prepend set;
#X msg 742 600 47;
#X obj 592 585 prepend set;
#X msg 592 610 47 64;
#X obj 242 -68 sel 1 0;
#X obj 103 103 popup 124 25 #ffffff file open save;
#X msg 127 -44 options open save;
#X obj 32 -87 loadbang;
#X obj 228 108 tgl 15 0 empty empty empty 0 -6 0 10 -204786 -1 -1 0
1;
#X obj 248 108 bng 15 250 50 0 empty empty empty 0 -6 0 10 -261234
-1 -1;
#X obj 230 178 select 0 1;
#X obj 194 132 bng 10 250 50 0 empty empty empty 0 -6 0 10 -232576
-1 -1;
#X obj 230 147 nbx 3 14 -1e+37 1e+37 0 0 empty empty empty 0 -6 0 10
-262130 -1 -1 0 256;
#X obj 248 125 bng 15 250 50 0 empty empty empty 0 -6 0 10 -203904
-1 -1;
#X obj 104 133 bng 10 250 50 0 empty empty empty 0 -6 0 10 -232576
-1 -1;
#X msg 393 -37 0;
#X obj 119 131 nbx 3 14 0 20 0 0 empty empty empty 0 -6 0 10 -262130
-1 -1 0 256;
#X obj 436 199 bng 15 250 50 0 empty empty empty 0 -6 0 10 -262144
-1 -1;
#X obj 415 222 gate;
#X obj 228 126 tgl 15 0 empty empty empty 0 -6 0 10 -232576 -1 -1 1
1;
#X msg 103 229 0;
#X obj 336 221 t b b;
#X text 230 106 >;
#X text 142 146 transpose;
#X obj -18 623 outlet;
#X obj 30 623 outlet;
#X obj 78 623 outlet;
#X text 204 128 tr0;
#X obj 16 336 popup 124 25 #ffffff actions stop start record delay0
read write;
#X msg 20 307 options stop start record delay0 read write;
#X msg 17 285 name actions;
#X msg 30 -43 name file;
#X floatatom 199 196 5 0 0 0 - - -;
#X text 232 125 L;
#X text 250 122 +;
#X text 250 107 R;
#X text 160 128 speed;
#X obj 464 -43 print using;
#X msg 463 -67 slg.midiseq (c) 2007 Sylvain Le Groux <slegroux@iua.upf.edu>
;
#X obj 197 230 bng 15 250 50 0 empty empty empty 17 7 0 10 -262144
-1 -1;
#X connect 2 0 4 0;
#X connect 2 1 83 0;
#X connect 3 0 2 0;
#X connect 4 0 5 0;
#X connect 4 0 57 0;
#X connect 4 1 11 0;
#X connect 4 1 43 1;
#X connect 4 2 17 0;
#X connect 4 2 43 2;
#X connect 4 3 23 0;
#X connect 4 3 43 3;
#X connect 4 4 24 0;
#X connect 4 4 43 4;
#X connect 4 5 25 0;
#X connect 4 5 43 5;
#X connect 4 6 26 0;
#X connect 4 6 43 6;
#X connect 4 6 88 0;
#X connect 5 0 6 0;
#X connect 5 1 7 0;
#X connect 11 0 12 0;
#X connect 11 1 13 0;
#X connect 17 0 18 0;
#X connect 17 1 19 0;
#X connect 31 0 2 0;
#X connect 32 0 2 0;
#X connect 33 0 2 0;
#X connect 34 0 2 0;
#X connect 35 0 2 0;
#X connect 36 0 37 0;
#X connect 37 0 35 0;
#X connect 38 0 2 0;
#X connect 39 0 38 0;
#X connect 40 0 2 0;
#X connect 41 0 40 0;
#X connect 42 0 2 0;
#X connect 44 0 47 0;
#X connect 45 0 2 0;
#X connect 46 0 47 1;
#X connect 47 0 45 0;
#X connect 48 0 46 0;
#X connect 49 0 48 0;
#X connect 50 0 49 0;
#X connect 51 0 54 0;
#X connect 52 0 53 0;
#X connect 53 0 51 1;
#X connect 54 0 2 0;
#X connect 55 0 2 0;
#X connect 57 0 58 0;
#X connect 57 0 62 0;
#X connect 57 1 58 1;
#X connect 58 0 59 0;
#X connect 58 1 59 1;
#X connect 58 1 87 0;
#X connect 59 0 43 0;
#X connect 59 0 64 0;
#X connect 59 0 86 0;
#X connect 61 0 58 2;
#X connect 61 0 74 0;
#X connect 61 0 94 0;
#X connect 62 0 63 0;
#X connect 64 0 65 0;
#X connect 66 0 51 0;
#X connect 66 1 33 0;
#X connect 67 0 72 0;
#X connect 68 0 67 0;
#X connect 69 0 93 0;
#X connect 69 0 68 0;
#X connect 69 0 82 0;
#X connect 69 0 100 0;
#X connect 70 0 66 0;
#X connect 71 0 32 0;
#X connect 72 0 3 0;
#X connect 72 1 42 0;
#X connect 73 0 82 0;
#X connect 75 0 34 0;
#X connect 76 0 77 0;
#X connect 77 0 78 0;
#X connect 78 0 53 0;
#X connect 79 0 80 1;
#X connect 80 0 51 0;
#X connect 81 0 80 0;
#X connect 82 0 61 0;
#X connect 83 0 79 0;
#X connect 83 1 70 0;
#X connect 91 0 90 0;
#X connect 92 0 90 0;
#X connect 93 0 67 0;
#X connect 100 0 99 0;
#X connect 101 0 3 0;
#X coords 0 -1 1 1 170 70 1 100 100;
