#N canvas 0 22 485 419 10;
#X obj 143 49 slg.miniseq;
#X obj 143 220 slg.bombo;
#X msg 143 198 400;
#X obj 143 268 ezdac~;
#X connect 0 0 2 0;
#X connect 1 0 3 0;
#X connect 1 0 3 1;
#X connect 2 0 1 0;
