#N canvas 67 22 1332 800 10;
#X obj 2 2 cnv 15 159 60 empty empty empty 20 12 0 14 -62783 -66577
0;
#X obj 1147 391 metro 250;
#X obj 1 41 vsl 10 64 0 1 0 1 empty empty empty 0 -8 0 8 -260097 -1
-1 6300 0;
#X obj 1147 480 i;
#X obj 1146 575 sel 1;
#X msg 1168 449 0;
#X obj 1147 505 + 1;
#X floatatom 569 152 5 0 0 0 - - -;
#X obj 123 15 tgl 15 0 empty empty empty 0 -6 0 8 -4034 -1 -1 0 1;
#X obj 371 445 sel 1 2 3 4 5 6 7 8 9 10 11 12 13 14 15 16;
#X obj 11 41 vsl 10 64 0 1 0 1 empty empty empty 0 -8 0 8 -257985 -1
-1 0 0;
#X obj 21 41 vsl 10 64 0 1 0 0 empty empty empty 0 -8 0 8 -257985 -1
-1 0 0;
#X obj 31 41 vsl 10 64 0 1 0 0 empty empty empty 0 -8 0 8 -257985 -1
-1 0 0;
#X obj 41 41 vsl 10 64 0 1 0 0 empty empty empty 0 -8 0 8 -260097 -1
-1 6300 0;
#X obj 51 41 vsl 10 64 0 1 0 0 empty empty empty 0 -8 0 8 -257985 -1
-1 0 0;
#X obj 61 41 vsl 10 64 0 1 0 0 empty empty empty 0 -8 0 8 -257985 -1
-1 6300 0;
#X obj 70 41 vsl 10 64 0 1 0 0 empty empty empty 0 -8 0 8 -257985 -1
-1 0 0;
#X obj 80 41 vsl 10 64 0 1 0 0 empty empty empty 0 -8 0 8 -260097 -1
-1 0 0;
#X obj 90 41 vsl 10 64 0 1 0 0 empty empty empty 0 -8 0 8 -257985 -1
-1 0 0;
#X obj 100 41 vsl 10 64 0 1 0 0 empty empty empty 0 -8 0 8 -257985
-1 -1 0 0;
#X obj 110 41 vsl 10 64 0 1 0 0 empty empty empty 0 -8 0 8 -257985
-1 -1 0 0;
#X obj 121 41 vsl 10 64 0 1 0 0 empty empty empty 0 -8 0 8 -260097
-1 -1 0 0;
#X obj 131 41 vsl 10 64 0 1 0 0 empty empty empty 0 -8 0 8 -257985
-1 -1 0 0;
#X obj 141 41 vsl 10 64 0 1 0 0 empty empty empty 0 -8 0 8 -257985
-1 -1 0 0;
#X obj 151 41 vsl 10 64 0 1 0 0 empty empty empty 0 -8 0 8 -257985
-1 -1 0 0;
#X obj 503 652 outlet;
#X floatatom 5 12 5 0 0 0 - - -;
#X obj 1194 344 /;
#X obj 1180 284 t b f;
#X msg 1170 315 60000;
#X floatatom 41 13 5 1 16 0 - - -;
#X obj 394 19 t b f b b;
#X text 37 0 length;
#X text 4 0 BPM;
#X text 141 14 Run;
#X obj 700 184 == 1;
#X obj 1 30 tgl 10 0 empty empty empty 0 -6 0 8 -262144 -1 -1 0 1;
#X obj 11 30 tgl 10 0 empty empty empty 0 -6 0 8 -262144 -1 -1 0 1
;
#X obj 22 30 tgl 10 0 empty empty empty 0 -6 0 8 -262144 -1 -1 1 1
;
#X obj 32 30 tgl 10 0 empty empty empty 0 -6 0 8 -262144 -1 -1 0 1
;
#X obj 42 30 tgl 10 0 empty empty empty 0 -6 0 8 -262144 -1 -1 0 1
;
#X obj 53 30 tgl 10 0 empty empty empty 0 -6 0 8 -262144 -1 -1 0 1
;
#X obj 64 30 tgl 10 0 empty empty empty 0 -6 0 8 -262144 -1 -1 0 1
;
#X obj 72 30 tgl 10 0 empty empty empty 0 -6 0 8 -262144 -1 -1 0 1
;
#X obj 81 30 tgl 10 0 empty empty empty 0 -6 0 8 -262144 -1 -1 0 1
;
#X obj 91 30 tgl 10 0 empty empty empty 0 -6 0 8 -262144 -1 -1 0 1
;
#X obj 100 30 tgl 10 0 empty empty empty 0 -6 0 8 -262144 -1 -1 0 1
;
#X obj 110 30 tgl 10 0 empty empty empty 0 -6 0 8 -262144 -1 -1 0 1
;
#X obj 120 30 tgl 10 0 empty empty empty 0 -6 0 8 -262144 -1 -1 0 1
;
#X obj 130 30 tgl 10 0 empty empty empty 0 -6 0 8 -262144 -1 -1 0 1
;
#X obj 141 30 tgl 10 0 empty empty empty 0 -6 0 8 -262144 -1 -1 0 1
;
#X obj 151 30 tgl 10 0 empty empty empty 0 -6 0 8 -262144 -1 -1 0 1
;
#X obj 732 165 == 2;
#X obj 758 185 == 3;
#X obj 784 165 == 4;
#X obj 810 185 == 5;
#X obj 836 165 == 6;
#X obj 862 185 == 7;
#X obj 888 165 == 8;
#X obj 914 185 == 9;
#X obj 940 165 == 10;
#X obj 966 185 == 11;
#X obj 992 165 == 12;
#X obj 1018 185 == 13;
#X obj 1044 165 == 14;
#X obj 1070 185 == 15;
#X obj 1083 166 == 16;
#X obj 1146 542 >= 16;
#X obj 1198 367 / 4;
#X floatatom 81 13 5 1 4 0 - - -;
#X text 78 -1 Steps/Beat;
#X obj 1180 257 i;
#X obj 1180 234 t b f;
#X floatatom 19 256 5 0 0 0 - - -;
#X obj 4 -22 inlet;
#X obj 3 478 slg.probablyon;
#X obj 3 529 bng 15 250 50 0 empty empty empty 0 -6 0 10 -262144 -1
-1;
#X floatatom 10 508 5 0 0 0 - - -;
#X obj 97 480 slg.probablyon;
#X obj 196 484 slg.probablyon;
#X obj 297 487 slg.probablyon;
#X obj 290 547 slg.probablyon;
#X floatatom 297 577 5 0 0 0 - - -;
#X obj 384 549 slg.probablyon;
#X obj 483 553 slg.probablyon;
#X obj 584 556 slg.probablyon;
#X obj 602 467 slg.probablyon;
#X floatatom 609 497 5 0 0 0 - - -;
#X obj 696 469 slg.probablyon;
#X obj 795 473 slg.probablyon;
#X obj 896 476 slg.probablyon;
#X obj 752 557 slg.probablyon;
#X floatatom 749 584 5 0 0 0 - - -;
#X obj 845 556 slg.probablyon;
#X obj 938 555 slg.probablyon;
#X obj 1033 554 slg.probablyon;
#X obj 538 -33 inlet;
#X msg 122 -45 60;
#X msg 243 -35 4;
#X msg 209 -29 16;
#X obj 164 -49 loadbang;
#X obj 1165 421 sel 1;
#X obj 447 -33 inlet;
#X obj 491 -33 inlet;
#X obj 580 22 unpack 0 0 0 0 0 0 0 0 0 0 0 0 0 0 0 0;
#X msg 640 -33 0 0 0 0 0 0 0 0 0 0 0 0 0 0 0 0;
#X msg 52 534 1;
#X msg 82 532 2;
#X msg 112 532 3;
#X msg 143 532 4;
#X msg 373 588 5;
#X msg 404 588 6;
#X msg 434 588 7;
#X msg 465 588 8;
#X msg 665 509 9;
#X msg 696 509 10;
#X msg 726 509 11;
#X msg 757 509 12;
#X msg 802 592 13;
#X msg 832 592 14;
#X msg 862 592 15;
#X msg 893 592 16;
#X obj 43 624 bng 15 250 50 0 empty empty empty 0 -6 0 10 -262144 -1
-1;
#X obj 63 625 bng 15 250 50 0 empty empty empty 0 -6 0 10 -262144 -1
-1;
#X obj 82 624 bng 15 250 50 0 empty empty empty 0 -6 0 10 -262144 -1
-1;
#X obj 102 625 bng 15 250 50 0 empty empty empty 0 -6 0 10 -262144
-1 -1;
#X obj 123 625 bng 15 250 50 0 empty empty empty 0 -6 0 10 -262144
-1 -1;
#X obj 143 626 bng 15 250 50 0 empty empty empty 0 -6 0 10 -262144
-1 -1;
#X obj 162 625 bng 15 250 50 0 empty empty empty 0 -6 0 10 -262144
-1 -1;
#X obj 182 626 bng 15 250 50 0 empty empty empty 0 -6 0 10 -262144
-1 -1;
#X obj 204 627 bng 15 250 50 0 empty empty empty 0 -6 0 10 -262144
-1 -1;
#X obj 224 628 bng 15 250 50 0 empty empty empty 0 -6 0 10 -262144
-1 -1;
#X obj 243 627 bng 15 250 50 0 empty empty empty 0 -6 0 10 -262144
-1 -1;
#X obj 263 628 bng 15 250 50 0 empty empty empty 0 -6 0 10 -262144
-1 -1;
#X obj 284 628 bng 15 250 50 0 empty empty empty 0 -6 0 10 -262144
-1 -1;
#X obj 304 629 bng 15 250 50 0 empty empty empty 0 -6 0 10 -262144
-1 -1;
#X obj 323 628 bng 15 250 50 0 empty empty empty 0 -6 0 10 -262144
-1 -1;
#X obj 343 629 bng 15 250 50 0 empty empty empty 0 -6 0 10 -262144
-1 -1;
#X obj 580 -32 inlet;
#N canvas 0 22 529 152 (c) 0;
#X obj 24 7 loadbang;
#X obj 24 67 print using;
#X msg 24 30 slg.miniseq 2007 (c) Sylvain Le Groux <slegroux@iua.upf.edu>
;
#X connect 0 0 2 0;
#X connect 2 0 1 0;
#X restore 1157 -35 pd (c);
#X msg 946 62 substate \$1;
#X msg 919 62 set;
#X obj 919 40 t b f;
#X obj 919 84 originator \$1 \$0;
#X obj 1 114 hradio 10 1 0 10 empty empty empty 0 -6 0 10 -260097 -1
-1 0;
#X obj 103 111 slg.care;
#X obj 773 108 pack 0 0 0 0 0 0 0 0 0 0 0 0 0 0 0 0;
#X obj 723 71 commun rhythm \$0;
#X obj 1035 -35 commun bpm \$0;
#X obj 1034 -13 commun length \$0;
#X obj 1034 8 commun steps \$0;
#X obj 840 650 outlet;
#X obj 960 626 prepend set;
#X msg 960 649 1 0 0 0 0.84127 0 0.84127 0 0 0 0 0 0 0 0 0;
#X obj 1131 311 t f f;
#X connect 1 0 3 0;
#X connect 2 0 73 0;
#X connect 2 0 75 1;
#X connect 2 0 146 0;
#X connect 3 0 6 0;
#X connect 4 0 5 0;
#X connect 5 0 3 1;
#X connect 6 0 3 1;
#X connect 6 0 7 0;
#X connect 6 0 67 0;
#X connect 7 0 9 0;
#X connect 7 0 35 0;
#X connect 7 0 52 0;
#X connect 7 0 53 0;
#X connect 7 0 54 0;
#X connect 7 0 55 0;
#X connect 7 0 56 0;
#X connect 7 0 57 0;
#X connect 7 0 58 0;
#X connect 7 0 59 0;
#X connect 7 0 60 0;
#X connect 7 0 61 0;
#X connect 7 0 62 0;
#X connect 7 0 63 0;
#X connect 7 0 64 0;
#X connect 7 0 65 0;
#X connect 7 0 66 0;
#X connect 8 0 154 0;
#X connect 9 0 75 0;
#X connect 9 1 78 0;
#X connect 9 2 79 0;
#X connect 9 3 80 0;
#X connect 9 4 81 0;
#X connect 9 5 83 0;
#X connect 9 6 84 0;
#X connect 9 7 85 0;
#X connect 9 8 86 0;
#X connect 9 9 88 0;
#X connect 9 10 89 0;
#X connect 9 11 90 0;
#X connect 9 12 91 0;
#X connect 9 13 93 0;
#X connect 9 14 94 0;
#X connect 9 15 95 0;
#X connect 10 0 78 1;
#X connect 10 0 146 1;
#X connect 11 0 79 1;
#X connect 11 0 146 2;
#X connect 12 0 80 1;
#X connect 12 0 146 3;
#X connect 13 0 81 1;
#X connect 13 0 146 4;
#X connect 14 0 83 1;
#X connect 14 0 146 5;
#X connect 15 0 84 1;
#X connect 15 0 146 6;
#X connect 16 0 85 1;
#X connect 16 0 146 7;
#X connect 17 0 86 1;
#X connect 17 0 146 8;
#X connect 18 0 88 1;
#X connect 18 0 146 9;
#X connect 19 0 89 1;
#X connect 19 0 146 10;
#X connect 20 0 90 1;
#X connect 20 0 146 11;
#X connect 21 0 91 1;
#X connect 21 0 146 12;
#X connect 22 0 93 1;
#X connect 22 0 146 13;
#X connect 23 0 94 1;
#X connect 23 0 146 14;
#X connect 24 0 95 1;
#X connect 24 0 146 15;
#X connect 26 0 71 0;
#X connect 26 0 148 0;
#X connect 27 0 68 0;
#X connect 28 0 29 0;
#X connect 28 1 27 1;
#X connect 29 0 27 0;
#X connect 30 0 31 0;
#X connect 30 0 149 0;
#X connect 31 0 8 0;
#X connect 31 1 67 1;
#X connect 31 2 5 0;
#X connect 31 3 8 0;
#X connect 35 0 36 0;
#X connect 52 0 37 0;
#X connect 53 0 38 0;
#X connect 54 0 39 0;
#X connect 55 0 40 0;
#X connect 56 0 41 0;
#X connect 57 0 42 0;
#X connect 58 0 43 0;
#X connect 59 0 44 0;
#X connect 60 0 45 0;
#X connect 61 0 46 0;
#X connect 62 0 47 0;
#X connect 63 0 48 0;
#X connect 64 0 49 0;
#X connect 65 0 50 0;
#X connect 66 0 51 0;
#X connect 67 0 4 0;
#X connect 68 0 1 1;
#X connect 69 0 72 0;
#X connect 69 0 150 0;
#X connect 71 0 28 0;
#X connect 72 0 71 0;
#X connect 72 1 68 1;
#X connect 74 0 26 0;
#X connect 75 0 76 0;
#X connect 75 0 77 0;
#X connect 75 0 106 0;
#X connect 78 0 107 0;
#X connect 79 0 108 0;
#X connect 80 0 109 0;
#X connect 81 0 82 0;
#X connect 81 0 110 0;
#X connect 83 0 111 0;
#X connect 84 0 112 0;
#X connect 85 0 113 0;
#X connect 86 0 87 0;
#X connect 86 0 114 0;
#X connect 88 0 115 0;
#X connect 89 0 116 0;
#X connect 90 0 117 0;
#X connect 91 0 92 0;
#X connect 91 0 118 0;
#X connect 93 0 119 0;
#X connect 94 0 120 0;
#X connect 95 0 121 0;
#X connect 96 0 8 0;
#X connect 97 0 26 0;
#X connect 98 0 69 0;
#X connect 99 0 30 0;
#X connect 100 0 98 0;
#X connect 100 0 99 0;
#X connect 100 0 97 0;
#X connect 100 0 5 0;
#X connect 100 0 105 0;
#X connect 101 0 5 0;
#X connect 102 0 30 0;
#X connect 103 0 69 0;
#X connect 104 0 2 0;
#X connect 104 1 10 0;
#X connect 104 2 11 0;
#X connect 104 3 12 0;
#X connect 104 4 13 0;
#X connect 104 5 14 0;
#X connect 104 6 15 0;
#X connect 104 7 16 0;
#X connect 104 8 17 0;
#X connect 104 9 18 0;
#X connect 104 10 19 0;
#X connect 104 11 20 0;
#X connect 104 12 21 0;
#X connect 104 13 22 0;
#X connect 104 14 23 0;
#X connect 104 15 24 0;
#X connect 105 0 104 0;
#X connect 106 0 25 0;
#X connect 106 0 122 0;
#X connect 107 0 25 0;
#X connect 107 0 123 0;
#X connect 108 0 25 0;
#X connect 108 0 124 0;
#X connect 109 0 25 0;
#X connect 109 0 125 0;
#X connect 110 0 25 0;
#X connect 111 0 25 0;
#X connect 112 0 25 0;
#X connect 113 0 25 0;
#X connect 114 0 25 0;
#X connect 115 0 25 0;
#X connect 116 0 25 0;
#X connect 117 0 25 0;
#X connect 118 0 25 0;
#X connect 119 0 25 0;
#X connect 120 0 25 0;
#X connect 121 0 25 0;
#X connect 138 0 104 0;
#X connect 140 0 143 0;
#X connect 141 0 143 0;
#X connect 142 0 141 0;
#X connect 142 1 140 0;
#X connect 144 0 142 0;
#X connect 146 0 147 0;
#X connect 146 0 151 0;
#X connect 146 0 152 0;
#X connect 147 0 104 0;
#X connect 148 0 26 0;
#X connect 149 0 30 0;
#X connect 150 0 69 0;
#X connect 152 0 153 0;
#X connect 154 0 1 0;
#X connect 154 1 101 0;
#X coords 0 0 1 1 162 130 1 0 0;
