#N canvas 297 22 862 733 10;
#X obj 549 123 r \$0-on;
#X obj 493 123 r \$0-bpm;
#X obj 509 267 s \$0-sample1;
#X obj 589 267 s \$0-sample2;
#X obj 506 386 s \$0-sample3;
#X obj 586 385 s \$0-sample4;
#X obj 505 507 s \$0-sample5;
#X obj 587 506 s \$0-sample6;
#X obj 530 596 s \$0-sample7;
#X obj 620 597 s \$0-sample8;
#X obj 599 123 r \$0-nbeats;
#X obj 675 122 r \$0-nbars;
#X obj 101 102 cnv 15 328 495 empty empty empty 20 12 0 14 -162280
-66577 0;
#X obj 102 140 slg.miniseq;
#X obj 20 681 outlet;
#X obj 20 658 r \$0-sample1;
#X obj 106 683 outlet;
#X obj 106 660 r \$0-sample2;
#X obj 189 683 outlet;
#X obj 275 685 outlet;
#X obj 189 660 r \$0-sample3;
#X obj 275 662 r \$0-sample4;
#X obj 366 682 outlet;
#X obj 452 684 outlet;
#X obj 535 684 outlet;
#X obj 621 686 outlet;
#X obj 366 659 r \$0-sample5;
#X obj 452 661 r \$0-sample6;
#X obj 535 661 r \$0-sample7;
#X obj 621 663 r \$0-sample8;
#X obj 561 238 r \$0-on;
#X obj 505 238 r \$0-bpm;
#X obj 611 238 r \$0-nbeats;
#X obj 687 237 r \$0-nbars;
#X obj 560 353 r \$0-on;
#X obj 504 353 r \$0-bpm;
#X obj 610 353 r \$0-nbeats;
#X obj 686 352 r \$0-nbars;
#X obj 557 469 r \$0-on;
#X obj 501 469 r \$0-bpm;
#X obj 607 469 r \$0-nbeats;
#X obj 683 468 r \$0-nbars;
#X obj 106 121 nbx 5 14 1 1e+37 0 0 empty empty empty 0 -6 0 10 -4065
-1 -1 1 256;
#X obj 193 120 nbx 5 14 1 16 0 0 empty empty empty 0 -6 0 10 -4065
-1 -1 1 256;
#X obj 477 93 s \$0-bpm;
#X obj 269 119 nbx 5 14 1 4 0 0 empty empty empty 0 -6 0 10 -4065 -1
-1 1 256;
#X obj 538 93 s \$0-nbeats;
#X obj 623 91 s \$0-nbars;
#X obj 390 116 tgl 17 0 empty empty empty 0 -6 0 10 -261234 -1 -1 0
1;
#X text 105 104 BPM;
#X text 191 102 BEATS;
#X text 268 101 BARS;
#X text 380 100 ON/OFF;
#X obj 697 92 s \$0-on;
#X obj 266 140 slg.miniseq;
#X obj 102 256 slg.miniseq;
#X obj 266 255 slg.miniseq;
#X obj 102 371 slg.miniseq;
#X obj 266 371 slg.miniseq;
#X obj 102 487 slg.miniseq;
#X obj 266 486 slg.miniseq;
#X obj 131 18 loadbang;
#X msg 131 41 60;
#X msg 168 44 16;
#X msg 201 43 4;
#X connect 0 0 13 1;
#X connect 0 0 54 1;
#X connect 1 0 13 0;
#X connect 1 0 54 0;
#X connect 10 0 13 2;
#X connect 10 0 54 2;
#X connect 11 0 13 4;
#X connect 11 0 54 3;
#X connect 13 0 2 0;
#X connect 15 0 14 0;
#X connect 17 0 16 0;
#X connect 20 0 18 0;
#X connect 21 0 19 0;
#X connect 26 0 22 0;
#X connect 27 0 23 0;
#X connect 28 0 24 0;
#X connect 29 0 25 0;
#X connect 30 0 55 1;
#X connect 30 0 56 1;
#X connect 31 0 55 0;
#X connect 31 0 56 0;
#X connect 32 0 55 2;
#X connect 32 0 56 2;
#X connect 33 0 55 3;
#X connect 33 0 56 3;
#X connect 34 0 57 1;
#X connect 34 0 58 1;
#X connect 35 0 57 0;
#X connect 35 0 58 0;
#X connect 36 0 57 2;
#X connect 36 0 58 2;
#X connect 37 0 57 3;
#X connect 37 0 58 3;
#X connect 38 0 59 1;
#X connect 38 0 60 1;
#X connect 39 0 59 0;
#X connect 39 0 60 0;
#X connect 40 0 59 2;
#X connect 40 0 60 2;
#X connect 41 0 59 3;
#X connect 41 0 60 3;
#X connect 42 0 44 0;
#X connect 43 0 46 0;
#X connect 45 0 47 0;
#X connect 48 0 53 0;
#X connect 54 0 3 0;
#X connect 55 0 4 0;
#X connect 56 0 5 0;
#X connect 57 0 6 0;
#X connect 58 0 7 0;
#X connect 59 0 8 0;
#X connect 60 0 9 0;
#X connect 61 0 62 0;
#X connect 61 0 63 0;
#X connect 61 0 64 0;
#X connect 62 0 42 0;
#X connect 63 0 43 0;
#X connect 64 0 45 0;
#X coords 0 -1 1 1 330 500 1 100 100;
