#N canvas 37 24 473 479 10;
#X obj 32 348 outlet;
#X obj 119 279 outlet;
#X obj 91 163 int;
#X obj 46 76 sel 1;
#X text 31 373 1993 by Karlheinz Essl;
#X obj 179 176 int \$2;
#X obj 91 189 * \$1;
#X obj 208 75 sel-princ \$3;
#X obj 46 98 t b b;
#X obj 208 50 bng 15 250 50 0 empty empty empty 17 7 0 10 -262144 -1
-1;
#X obj 239 114 moses 0;
#X floatatom 298 156 5 0 0 0 - - -;
#X floatatom 55 180 5 0 0 0 - - -;
#X obj 26 293 bng 15 250 50 0 empty empty empty 17 7 0 10 -262144 -1
-1;
#X obj 239 140 int;
#X obj 239 184 * \$1;
#X obj 239 161 * -1;
#X obj 208 264 sel 0 1;
#X text 31 389 updated to include silence (noted as -8 \, -4 \, etc...
in the list) by Sylvain Le Groux;
#X obj 208 239 > 0;
#X msg 237 290 1;
#X msg 208 289 0;
#X obj 175 321 spigot;
#X floatatom 55 206 5 0 0 0 - - -;
#X floatatom 264 212 5 0 0 0 - - -;
#X obj 26 250 metro-dev% 500 0;
#X obj 26 23 inlet toggle;
#X obj 111 24 inlet grid;
#X obj 179 24 inlet dev;
#X obj 242 25 inlet sel;
#X obj 305 25 inlet rhythm;
#X text 288 114 if silence go left;
#X msg 317 52 3 3 3;
#X msg 359 52 8 8 8 8;
#X obj 15 221 bng 15 250 50 0 empty empty empty 17 7 0 10 -262144 -1
-1;
#X connect 2 0 6 0;
#X connect 2 0 12 0;
#X connect 3 0 8 0;
#X connect 5 0 25 2;
#X connect 6 0 23 0;
#X connect 6 0 25 1;
#X connect 7 0 10 0;
#X connect 7 0 19 0;
#X connect 8 0 2 0;
#X connect 8 1 5 0;
#X connect 9 0 7 0;
#X connect 10 0 11 0;
#X connect 10 0 14 0;
#X connect 10 1 2 0;
#X connect 14 0 16 0;
#X connect 15 0 24 0;
#X connect 15 0 25 1;
#X connect 16 0 15 0;
#X connect 17 0 21 0;
#X connect 17 1 20 0;
#X connect 19 0 17 0;
#X connect 20 0 22 1;
#X connect 21 0 22 1;
#X connect 22 0 0 0;
#X connect 25 0 7 0;
#X connect 25 0 13 0;
#X connect 25 0 22 0;
#X connect 25 1 1 0;
#X connect 26 0 3 0;
#X connect 26 0 25 0;
#X connect 27 0 6 1;
#X connect 27 0 15 1;
#X connect 28 0 5 0;
#X connect 29 0 7 1;
#X connect 30 0 7 2;
#X connect 32 0 7 2;
#X connect 33 0 7 2;
#X connect 34 0 25 0;
