#N canvas 23 517 479 332 10;
#X obj 27 57 pack f f;
#X obj 168 32 r osc;
#X obj 383 33 dumpOSC 5000;
#X obj 383 59 s osc;
#X obj 25 266 ezdac~;
#X obj 24 169 slg.freeverb~;
#N canvas 638 419 202 215 osc-ctl 0;
#X floatatom 53 36 5 0 0 0 - - -;
#X floatatom 53 85 5 0 0 0 - - -;
#X obj 54 141 s osc;
#X msg 53 57 /inst1/y \$1;
#X msg 53 106 /inst1/x \$1;
#X connect 0 0 3 0;
#X connect 1 0 4 0;
#X connect 3 0 2 0;
#X connect 4 0 2 0;
#X restore 382 81 pd osc-ctl;
#N canvas 719 416 362 143 syntax 0;
#X text 10 10 roboser:;
#X text 12 26 onoff \, bpm \, deviation \, articulation \, rhythm \,
dynamic \, scale \, register;
#X text 14 76 trisynth:;
#X text 15 89 x \, y \, attack \, decay \, sustain \, release \, curve
\, noise \, q \, vibf \, vibdepth \, evenodd \, decay \, detune;
#X restore 382 103 pd syntax;
#X obj 209 57 pack f f;
#X obj 27 108 throw~ L;
#X obj 125 107 throw~ R;
#X obj 24 143 catch~ L;
#X obj 80 142 catch~ R;
#X obj 209 111 throw~ L;
#X obj 310 109 throw~ R;
#X obj 347 33 r osc;
#X obj 171 206 pack f f;
#X obj 171 252 throw~ L;
#X obj 272 250 throw~ R;
#X obj 312 181 r osc;
#X obj 27 87 slg.trisynthpoly~ 2 inst1;
#X obj 209 87 slg.trisynthpoly~ 2 inst2;
#X obj 171 229 slg.trisynthpoly~ 2 inst3;
#X obj 377 177 dumpOSC 1979;
#X obj 377 201 print;
#X obj 209 32 slg.recomposer inst2 2;
#X obj 27 32 slg.recomposer inst1 1;
#X obj 171 181 slg.recomposer inst3 3;
#X connect 0 0 20 0;
#X connect 1 0 20 2;
#X connect 1 0 26 1;
#X connect 2 0 3 0;
#X connect 5 0 4 0;
#X connect 5 1 4 1;
#X connect 8 0 21 0;
#X connect 11 0 5 0;
#X connect 12 0 5 1;
#X connect 15 0 21 2;
#X connect 15 0 25 1;
#X connect 16 0 22 0;
#X connect 19 0 22 2;
#X connect 19 0 27 1;
#X connect 20 0 9 0;
#X connect 20 1 10 0;
#X connect 21 0 13 0;
#X connect 21 1 14 0;
#X connect 22 0 17 0;
#X connect 22 1 18 0;
#X connect 23 0 24 0;
#X connect 25 0 8 0;
#X connect 26 0 0 0;
#X connect 27 0 16 0;
