#N canvas 299 80 661 417 10;
#X declare -stdpath extra/tof;
#N canvas 1037 255 371 239 message-based-control 0;
#N canvas 0 22 349 501 esof 0;
#X msg 18 82 0 3 7 9 12;
#X text 18 62 celloSad;
#X msg 19 123 0 5 7 9 12;
#X text 19 105 cello;
#X text 16 149 cello happy;
#X msg 20 166 0 4 7 9 12;
#X msg 140 81 4 4;
#X text 137 63 rhythm cello;
#X msg 249 78 75 45 55 45;
#X text 19 40 SCALES;
#X text 140 39 RHYTHMS;
#X text 17 5 ESOF EARTH;
#X text 250 39 DYNAMICS;
#X text 251 58 cello slow;
#X msg 249 114 100 65 65 75;
#X text 248 95 cello;
#X msg 249 156 120 90 100 90;
#X text 246 137 cello fast;
#X msg 23 248 0 3;
#X text 20 229 cello2Sad;
#X msg 22 286 0 2;
#X msg 24 318 0 4;
#X text 20 270 cello2;
#X text 21 301 cellohappy;
#X msg 136 280 8 16 8 4 4;
#X msg 135 245 4 4;
#X msg 137 316 3 3 3;
#X msg 24 423 0 0 0 0;
#X msg 144 422 4 4;
#X msg 143 446 8;
#X msg 143 471 2 2;
#X msg 221 423 80 50;
#X msg 220 447 115 80;
#X obj 249 201 s dynamic;
#X obj 19 202 s scale;
#X obj 140 193 s rhythm;
#X obj 253 355 s dynamic;
#X obj 23 356 s scale2;
#X obj 137 356 s rhythm2;
#X connect 0 0 34 0;
#X connect 2 0 34 0;
#X connect 5 0 34 0;
#X connect 6 0 35 0;
#X connect 8 0 33 0;
#X connect 14 0 33 0;
#X connect 16 0 33 0;
#X connect 18 0 37 0;
#X connect 20 0 37 0;
#X connect 21 0 37 0;
#X connect 24 0 38 0;
#X connect 25 0 38 0;
#X connect 26 0 38 0;
#X restore 243 142 pd esof;
#X obj 243 23 tgl 15 0 empty empty empty 17 7 0 10 -262144 -1 -1 0
1;
#X msg 243 47 \; onoffpiano \$1 \;;
#X msg 10 20 \; scalepiano 0 2 4 6 8 10 12 \; registerpiano 4 \; rhythmpiano
4 4 -4 -4 2 2 2 2 \; dynamicpiano 100 90 70 40 10 \;;
#X msg 11 100 \; articulationpiano 1000 \;;
#X msg 11 138 \; pcpiano 9 \; channelpiano 1 \; modpiano 0 \; volpiano
90 \; panpiano 64 \;;
#X msg 243 85 \; bpmpiano 100 \; deviationpiano 0 \;;
#X connect 1 0 2 0;
#X restore 452 237 pd message-based-control;
#N canvas 306 25 406 488 osc-syntax 0;
#X obj 34 65 tgl 15 0 empty empty empty 17 7 0 10 -262144 -1 -1 0 1
;
#X msg 34 91 send /inst1/onoff \$1;
#X msg 34 142 send /inst1/bpm \$1;
#X floatatom 34 121 5 0 0 0 - - -;
#X text 32 22 Structure;
#X text 244 50 Sound;
#X msg 35 192 send /inst1/deviation \$1;
#X msg 36 240 send /inst1/articulation \$1;
#X msg 34 293 send /inst1/rhythm \$1;
#X floatatom 35 168 5 0 0 0 - - -;
#X floatatom 36 216 5 0 0 0 - - -;
#X msg 35 270 8 4 4 8;
#X msg 34 348 send /inst1/dynamic \$1;
#X msg 35 325 45 90 20 100 80;
#X msg 36 379 45 90 20 100 80;
#X msg 36 401 send /inst1/scale \$1;
#X msg 35 448 send /inst1/register \$1;
#X floatatom 35 427 5 0 0 0 - - -;
#X floatatom 244 96 5 0 0 0 - - -;
#X msg 244 117 send /inst1/pc \$1;
#X floatatom 243 143 5 0 0 0 - - -;
#X msg 243 164 send /inst1/channel \$1;
#X floatatom 245 197 5 0 0 0 - - -;
#X msg 245 218 send /inst1/mod \$1;
#X floatatom 245 244 5 0 0 0 - - -;
#X msg 245 265 send /inst1/vol \$1;
#X floatatom 241 292 5 0 0 0 - - -;
#X msg 241 313 send /inst1/pan \$1;
#X floatatom 241 350 5 0 0 0 - - -;
#X msg 241 371 send /inst1/bend \$1;
#X text 242 68 (midi synth);
#X connect 0 0 1 0;
#X connect 3 0 2 0;
#X connect 9 0 6 0;
#X connect 10 0 7 0;
#X connect 11 0 8 0;
#X connect 13 0 12 0;
#X connect 14 0 15 0;
#X connect 17 0 16 0;
#X connect 18 0 19 0;
#X connect 20 0 21 0;
#X connect 22 0 23 0;
#X connect 24 0 25 0;
#X connect 26 0 27 0;
#X connect 28 0 29 0;
#X restore 453 280 pd osc-syntax;
#N canvas 856 22 249 115 todo 0;
#X text 21 18 - volume is global? is this normal?;
#X text 22 36 - link to tristimulus synth;
#X text 23 53 - cresc-decresc \, schweller;
#X text 23 70 - markov rhythm \, pitch \, etc.;
#X text 23 88 - test with Iannix;
#X restore 454 301 pd todo;
#X obj 22 289 ezdac~;
#N canvas 715 22 397 196 osc-ctl 0;
#X obj 116 19 udpreceive 3001;
#X obj 246 53 unpack 0 0 0 0;
#X floatatom 246 84 3 0 0 0 - - -;
#X text 206 83 from;
#X obj 116 53 unpackOSC;
#X obj 126 79 print;
#X floatatom 209 122 10 0 0 1 millisecond_delay - -;
#X obj 116 123 pipelist;
#X obj 14 42 s \$0-osc;
#X obj 116 150 s \$0-osc;
#X obj 14 17 dumpOSC 3000;
#X connect 0 0 4 0;
#X connect 0 1 1 0;
#X connect 1 0 2 0;
#X connect 4 0 5 0;
#X connect 4 0 7 0;
#X connect 4 1 6 0;
#X connect 4 1 7 1;
#X connect 7 0 9 0;
#X connect 10 0 8 0;
#X restore 453 259 pd osc-ctl;
#N canvas 445 136 799 669 physio-ctl 0;
#X obj 103 103 cnv 15 640 170 empty empty empty 20 12 0 14 -191407
-66577 0;
#X obj 108 325 prepend list;
#X obj 108 349 any2list;
#X obj 108 378 unpack f f f;
#X floatatom 108 406 5 0 0 0 - - -;
#X floatatom 151 407 5 0 0 0 - - -;
#X floatatom 190 408 5 0 0 0 - - -;
#X obj 178 442 vsl 15 128 -1e+06 1e+06 0 0 empty empty empty 0 -9 0
10 -262144 -1 -1 0 1;
#X obj 235 443 vsl 15 128 -100000 100000 0 0 empty empty empty 0 -9
0 10 -262144 -1 -1 0 1;
#X obj 108 443 vsl 15 128 -1e+06 1e+06 0 0 empty empty empty 0 -9 0
10 -262144 -1 -1 0 1;
#X obj 293 495 table.write.next;
#N canvas 0 22 450 300 (subpatch) 0;
#X array HeartRate 200 float 2;
#X coords 0 1 200 0 200 140 1;
#X restore 110 119 graph;
#X obj 108 629 / 1000;
#N canvas 0 22 450 300 (subpatch) 0;
#X array HRV 200 float 2;
#X coords 0 1 200 0 200 140 1;
#X restore 318 121 graph;
#N canvas 0 22 450 300 (subpatch) 0;
#X array eda 200 float 2;
#X coords 0 100 200 -100 200 140 1;
#X restore 525 121 graph;
#X obj 177 627 / 1000;
#X text 167 596 HeartBeat;
#X text 233 576 EDA;
#X text 109 575 Respiration;
#X obj 455 488 table.write.next;
#X obj 655 489 table.write.next;
#X msg 656 364 set eda;
#X obj 531 337 loadbang;
#X obj 235 626 / 1000;
#X obj 108 297 netreceive 42225 1;
#X obj 293 458 maxlib/scale 55 120 0 1;
#X obj 293 524 s \$0-physio1;
#X obj 455 518 s \$0-physio2;
#X obj 607 514 s \$0-physio3;
#X obj 607 451 maxlib/scale 1 200 0 1;
#X obj 455 455 maxlib/scale 2 180 0 1;
#X text 301 543 valence;
#X text 462 541 arousal;
#X obj 231 358 prepend set;
#X msg 236 383 76.8 100 -413180;
#X msg 531 366 set HRV;
#X msg 419 368 set HeartRate;
#X connect 1 0 2 0;
#X connect 2 0 3 0;
#X connect 3 0 4 0;
#X connect 3 0 25 0;
#X connect 3 1 5 0;
#X connect 3 1 7 0;
#X connect 3 1 30 0;
#X connect 3 2 6 0;
#X connect 3 2 8 0;
#X connect 3 2 29 0;
#X connect 4 0 9 0;
#X connect 7 0 15 0;
#X connect 8 0 23 0;
#X connect 9 0 12 0;
#X connect 21 0 20 0;
#X connect 22 0 36 0;
#X connect 22 0 21 0;
#X connect 22 0 35 0;
#X connect 24 0 1 0;
#X connect 24 0 33 0;
#X connect 25 0 10 0;
#X connect 25 0 26 0;
#X connect 29 0 28 0;
#X connect 30 0 19 0;
#X connect 30 0 27 0;
#X connect 33 0 34 0;
#X connect 35 0 19 0;
#X connect 36 0 10 0;
#X coords 0 -1 1 1 645 175 1 100 100;
#X restore 6 43 pd physio-ctl;
#X obj 13 9 comment 0 20 Times ? 0 255 128 0 Interactive Music System
II;
#X obj 371 12 comment 0 14 Helvetica ? 0 0 128 128 09/2008 <slegroux@iua.upf.edu>
;
#N canvas 26 578 419 230 midi-synths 0;
#N canvas 0 22 715 217 direct-control 0;
#X msg 20 49 onoff \$1;
#X msg 85 74 bpm \$1;
#X msg 132 74 deviation \$1;
#X msg 505 74 articulation \$1;
#X msg 607 73 register \$1;
#X obj 20 24 tgl 15 0 empty empty empty 17 7 0 10 -262144 -1 -1 0 1
;
#X msg 85 51 90;
#X msg 132 52 0;
#X msg 504 39 500;
#X msg 607 43 4;
#X obj 219 73 prepend rhythm;
#X obj 311 74 prepend dynamic;
#X msg 311 39 75 45 80 90;
#X obj 411 73 prepend scale;
#X msg 411 39 0 3 7 9 12;
#X msg 219 29 4 4;
#X obj 163 168 outlet;
#X connect 0 0 16 0;
#X connect 1 0 16 0;
#X connect 2 0 16 0;
#X connect 3 0 16 0;
#X connect 4 0 16 0;
#X connect 5 0 0 0;
#X connect 6 0 1 0;
#X connect 7 0 2 0;
#X connect 8 0 3 0;
#X connect 9 0 4 0;
#X connect 10 0 16 0;
#X connect 11 0 16 0;
#X connect 12 0 11 0;
#X connect 13 0 16 0;
#X connect 14 0 13 0;
#X connect 15 0 10 0;
#X restore -13 37 pd direct-control;
#N canvas 0 22 381 204 direct-control 0;
#X msg 35 77 pc \$1;
#X msg 83 77 channel \$1;
#X msg 157 78 mod \$1;
#X msg 207 79 vol \$1;
#X msg 257 79 pan \$1;
#X msg 309 78 bend \$1;
#X floatatom 35 50 5 0 0 0 - - -;
#X floatatom 83 48 5 0 0 0 - - -;
#X floatatom 156 48 5 0 0 0 - - -;
#X floatatom 208 47 5 0 0 0 - - -;
#X floatatom 257 46 5 0 0 0 - - -;
#X floatatom 309 45 5 0 0 0 - - -;
#X obj 144 164 outlet;
#X connect 0 0 12 0;
#X connect 1 0 12 0;
#X connect 2 0 12 0;
#X connect 3 0 12 0;
#X connect 4 0 12 0;
#X connect 5 0 12 0;
#X connect 6 0 0 0;
#X connect 7 0 1 0;
#X connect 8 0 2 0;
#X connect 9 0 3 0;
#X connect 10 0 4 0;
#X connect 11 0 5 0;
#X restore 22 90 pd direct-control;
#X obj 116 40 r \$0-osc;
#X obj 151 92 r \$0-osc;
#X msg 184 33 60 90 1;
#X obj -13 199 slg.midictl simplesynth;
#X msg 239 33 60 90 2;
#X obj 122 178 r \$0-osc;
#X obj 303 93 r \$0-osc;
#X obj -13 62 slg.recomposer inst1 1;
#N canvas 0 22 381 204 direct-control 0;
#X msg 35 77 pc \$1;
#X msg 83 77 channel \$1;
#X msg 157 78 mod \$1;
#X msg 207 79 vol \$1;
#X msg 257 79 pan \$1;
#X msg 309 78 bend \$1;
#X floatatom 35 50 5 0 0 0 - - -;
#X floatatom 83 48 5 0 0 0 - - -;
#X floatatom 156 48 5 0 0 0 - - -;
#X floatatom 208 47 5 0 0 0 - - -;
#X floatatom 257 46 5 0 0 0 - - -;
#X floatatom 309 45 5 0 0 0 - - -;
#X obj 144 164 outlet;
#X connect 0 0 12 0;
#X connect 1 0 12 0;
#X connect 2 0 12 0;
#X connect 3 0 12 0;
#X connect 4 0 12 0;
#X connect 5 0 12 0;
#X connect 6 0 0 0;
#X connect 7 0 1 0;
#X connect 8 0 2 0;
#X connect 9 0 3 0;
#X connect 10 0 4 0;
#X connect 11 0 5 0;
#X restore 200 151 pd direct-control;
#X obj 329 153 r \$0-osc;
#X obj 174 117 slg.recomposer drum 10;
#X obj 22 116 slg.recomposer inst2 2;
#X obj 201 178 slg.recomposer inst3 3;
#X connect 0 0 9 0;
#X connect 1 0 13 0;
#X connect 2 0 9 1;
#X connect 3 0 13 1;
#X connect 4 0 5 0;
#X connect 6 0 5 0;
#X connect 7 0 5 2;
#X connect 8 0 12 1;
#X connect 9 0 5 0;
#X connect 10 0 14 0;
#X connect 11 0 14 1;
#X connect 12 0 5 0;
#X connect 13 0 5 0;
#X connect 14 0 5 0;
#X restore 247 240 pd midi-synths;
#N canvas 364 298 794 337 tristimulus-synth 0;
#X obj 323 207 slg.freeverb~;
#X obj 208 22 r \$0-osc;
#X obj 226 93 r \$0-osc;
#X obj 61 69 unpack f f f;
#X obj 61 94 pack f f;
#X obj 441 218 prepend set;
#X msg 442 240 18 0 1;
#X obj 323 304 outlet~;
#X obj 416 304 outlet~;
#X obj 447 11 r \$0-osc;
#X obj 465 82 r \$0-osc;
#X obj 294 58 unpack f f f;
#X obj 294 83 pack f f;
#X obj 679 13 r \$0-osc;
#X obj 697 85 r \$0-osc;
#X obj 526 59 unpack f f f;
#X obj 526 84 pack f f;
#X obj 294 105 slg.trisynthpoly~ 3 trisynth2;
#X obj 526 106 slg.trisynthpoly~ 3 trisynth3;
#X obj 61 116 slg.trisynthpoly~ 3 trisynth1;
#X obj 294 34 slg.recomposer trisynth2 2;
#X obj 526 35 slg.recomposer trisynth3 3;
#X obj 61 45 slg.recomposer trisynth1 1;
#X connect 0 0 7 0;
#X connect 0 1 8 0;
#X connect 1 0 22 1;
#X connect 2 0 19 2;
#X connect 3 0 4 0;
#X connect 3 1 4 1;
#X connect 4 0 19 0;
#X connect 5 0 6 0;
#X connect 9 0 20 1;
#X connect 10 0 17 2;
#X connect 11 0 12 0;
#X connect 11 1 12 1;
#X connect 12 0 17 0;
#X connect 13 0 21 1;
#X connect 14 0 18 2;
#X connect 15 0 16 0;
#X connect 15 1 16 1;
#X connect 16 0 18 0;
#X connect 17 0 0 0;
#X connect 17 1 0 1;
#X connect 18 0 0 0;
#X connect 18 1 0 1;
#X connect 19 0 0 0;
#X connect 19 1 0 1;
#X connect 20 0 11 0;
#X connect 21 0 15 0;
#X connect 22 0 3 0;
#X connect 22 0 5 0;
#X restore 247 264 pd tristimulus-synth;
#N canvas 0 22 523 202 fluid-synth 0;
#X obj 128 42 r \$0-osc;
#X obj -1 132 slg.fluidctl~ fluid;
#X obj 292 44 r \$0-osc;
#X obj 448 48 r \$0-osc;
#X obj 174 114 r \$0-osc;
#X obj 383 112 prepend set;
#X msg 383 137 84 0 3;
#X obj 308 113 prepend set;
#X msg 308 138 34 0 2;
#X obj 232 113 prepend set;
#X msg 233 138 73 0 1;
#X obj 1 161 outlet~;
#X obj 110 162 outlet~;
#X obj -1 66 slg.recomposer cell1 1;
#X obj 163 67 slg.recomposer cell2 2;
#X obj 319 71 slg.recomposer cell3 3;
#X connect 0 0 13 1;
#X connect 1 0 11 0;
#X connect 1 1 12 0;
#X connect 2 0 14 1;
#X connect 3 0 15 1;
#X connect 4 0 1 2;
#X connect 5 0 6 0;
#X connect 7 0 8 0;
#X connect 9 0 10 0;
#X connect 13 0 9 0;
#X connect 13 0 1 0;
#X connect 14 0 7 0;
#X connect 14 0 1 0;
#X connect 15 0 5 0;
#X connect 15 0 1 0;
#X restore 247 312 pd fluid-synth;
#X obj 247 287 throw~ L;
#X obj 364 286 throw~ R;
#X obj 247 336 throw~ L;
#X obj 328 336 throw~ R;
#X obj 22 266 catch~ L;
#X obj 76 266 catch~ R;
#N canvas 21 277 387 164 physio2IMS 0;
#X obj 41 25 r \$0-physio1;
#X obj 192 27 r \$0-physio2;
#X obj 41 115 s \$0-osc;
#X msg 41 85 /*/bpm \$1;
#X obj 41 59 maxlib/scale 0 1 50 100;
#X obj 280 27 r \$0-physio3;
#X connect 0 0 4 0;
#X connect 3 0 2 0;
#X connect 4 0 3 0;
#X restore 454 322 pd physio2IMS;
#N canvas 197 52 710 343 sampler 0;
#X obj 56 84 bng 15 250 50 0 empty empty empty 17 7 0 10 -262144 -1
-1;
#X floatatom 56 30 5 0 0 0 bpm - -;
#X obj 56 54 seq.timing.master @id sphtiming @bpm 120;
#X msg 55 120 1 60 127;
#X msg 55 140 1 60 0;
#X obj 55 306 outlet~;
#X obj 136 305 outlet~;
#X obj 376 38 bng 15 250 50 0 empty empty empty 17 7 0 10 -4034 -1
-1;
#X obj 376 95 dac~;
#X obj 376 68 sampler.bank~ @id soundbank;
#X obj 557 70 savepanel;
#X obj 557 49 bng 15 250 50 0 empty empty empty 17 7 0 10 -262144 -1
-1;
#X obj 557 93 param.save;
#X obj 626 48 bng 15 250 50 0 empty empty empty 17 7 0 10 -262144 -1
-1;
#X obj 626 70 openpanel;
#X obj 626 92 param.load;
#X msg 530 230 8 60 127;
#X obj 55 268 sampler.play~ @bank soundbank @timing sphtiming @fit
1 @loop 1;
#X msg 479 230 8 60 0;
#X obj 369 134 r \$0-osc;
#X msg 98 12 off;
#X msg 128 12 0;
#X obj 369 157 OSCroute /sampler;
#X obj 369 181 OSCroute /sample /bpm /onoff;
#X obj 479 206 sel 0 1;
#X connect 1 0 2 0;
#X connect 2 0 0 0;
#X connect 3 0 17 0;
#X connect 4 0 17 0;
#X connect 7 0 9 0;
#X connect 9 0 8 0;
#X connect 9 1 8 1;
#X connect 10 0 12 0;
#X connect 11 0 10 0;
#X connect 13 0 14 0;
#X connect 14 0 15 0;
#X connect 16 0 17 0;
#X connect 17 0 5 0;
#X connect 17 1 6 0;
#X connect 18 0 17 0;
#X connect 19 0 22 0;
#X connect 20 0 2 0;
#X connect 21 0 2 0;
#X connect 22 0 23 0;
#X connect 23 0 17 0;
#X connect 23 1 2 0;
#X connect 23 2 24 0;
#X connect 24 0 18 0;
#X connect 24 1 16 0;
#X restore 248 362 pd sampler;
#X obj 248 387 throw~ L;
#X obj 305 387 throw~ R;
#X connect 9 0 11 0;
#X connect 9 1 12 0;
#X connect 10 0 13 0;
#X connect 10 1 14 0;
#X connect 15 0 3 0;
#X connect 16 0 3 1;
#X connect 18 0 19 0;
#X connect 18 1 20 0;
