#N canvas 1128 22 306 312 10;
#N canvas 501 419 923 241 direct-control 0;
#X obj 20 158 s \$0-onoff;
#X obj 168 158 s \$0-getDeviation;
#X obj 278 158 s \$0-getArticulation;
#X obj 90 158 s \$0-getBPM;
#X obj 412 157 s \$0-getRhythm;
#X obj 506 157 s \$0-getDynamic;
#X obj 605 157 s \$0-getScale;
#X obj 691 157 s \$0-getRegister;
#X obj 21 -2 inlet;
#X obj 461 13 prepend set;
#X msg 461 35 channel 1;
#X obj 418 201 s \$0-getRhythmMode;
#X obj 537 200 s \$0-getPitchMode;
#X obj 653 201 s \$0-getDynamicMode;
#X obj 21 25 route onoff bpm deviation articulation rhythm dynamic
scale register rmode pmode dmode channel;
#X obj 799 156 s \$0-getChannel;
#X connect 8 0 9 0;
#X connect 8 0 14 0;
#X connect 9 0 10 0;
#X connect 14 0 0 0;
#X connect 14 1 3 0;
#X connect 14 2 1 0;
#X connect 14 3 2 0;
#X connect 14 4 4 0;
#X connect 14 5 5 0;
#X connect 14 6 6 0;
#X connect 14 7 7 0;
#X connect 14 8 11 0;
#X connect 14 9 12 0;
#X connect 14 10 13 0;
#X connect 14 11 15 0;
#X restore -138 24 pd direct-control \$1;
#X obj -138 0 inlet;
#N canvas 11 588 1420 228 remote-control 0;
#X obj 19 -69 inlet;
#X obj 19 -39 OSCroute /\$1;
#X obj 7 113 s \$0-onoff;
#X obj 153 113 s \$0-getDeviation;
#X obj 263 113 s \$0-getArticulation;
#X obj 75 113 s \$0-getBPM;
#X obj 397 112 s \$0-getRhythm;
#X obj 491 112 s \$0-getDynamic;
#X obj 593 111 s \$0-getScale;
#X obj 679 111 s \$0-getRegister;
#X obj 784 111 s \$0-getRhythmMode;
#X obj 902 111 s \$0-getPitchMode;
#X obj 1014 111 s \$0-getDynamicMode;
#X obj 1136 110 s \$0-getChannel;
#X obj 1256 -18 float \$0;
#X obj 1256 8 print;
#X obj 1256 -39 bng 15 250 50 0 empty empty empty 17 7 0 10 -262144
-1 -1;
#X obj 1236 109 s \$0-getBar;
#X obj 1137 9 s \$0-getTranspose;
#X obj 1311 108 s \$0-rhythmtype;
#X floatatom 909 26 5 0 0 0 - - -;
#X obj 1030 -16 OSCroute /pitchtype /transpose;
#X obj 1030 9 s \$0-pitchtype;
#X obj 536 -1 OSCroute /onoff /bpm /deviation /articulation /rhythm
/dynamic /scale /register /rmode /pmode /dmode /channel /bar /rhythmtype
;
#X connect 0 0 1 0;
#X connect 1 0 21 0;
#X connect 1 0 23 0;
#X connect 14 0 15 0;
#X connect 16 0 14 0;
#X connect 21 0 22 0;
#X connect 21 1 18 0;
#X connect 23 0 2 0;
#X connect 23 1 5 0;
#X connect 23 2 3 0;
#X connect 23 3 4 0;
#X connect 23 4 6 0;
#X connect 23 5 7 0;
#X connect 23 6 8 0;
#X connect 23 7 9 0;
#X connect 23 8 10 0;
#X connect 23 9 11 0;
#X connect 23 10 12 0;
#X connect 23 11 13 0;
#X connect 23 12 17 0;
#X connect 23 13 19 0;
#X connect 23 13 20 0;
#X restore -5 24 pd remote-control \$1;
#X obj -5 0 inlet;
#N canvas 289 22 1151 300 default 0;
#X msg 30 125 onoff \$1;
#X msg 95 150 bpm \$1;
#X msg 142 150 deviation \$1;
#X msg 515 150 articulation \$1;
#X msg 617 149 register \$1;
#X obj 30 100 tgl 15 0 empty empty empty 17 7 0 10 -262144 -1 -1 0
1;
#X msg 95 127 90;
#X msg 142 128 0;
#X msg 515 99 500;
#X msg 617 98 4;
#X obj 229 149 prepend rhythm;
#X obj 321 150 prepend dynamic;
#X obj 421 149 prepend scale;
#X msg 421 103 0 3 7 9 12;
#X obj 498 208 outlet;
#X obj 515 28 loadbang;
#X msg 321 103 90;
#X msg 229 105 8 8 8 8;
#X msg 703 149 rmode \$1;
#X msg 778 150 pmode \$1;
#X msg 853 149 dmode \$1;
#X msg 705 92 3;
#X msg 922 148 channel \$1;
#X obj 920 108 float \$2;
#X obj 922 64 bng 15 250 50 0 empty empty empty 17 7 0 10 -262144 -1
-1;
#X obj 1000 134 prepend set;
#X msg 1004 161 1;
#X msg 93 85 60;
#X connect 0 0 14 0;
#X connect 1 0 14 0;
#X connect 2 0 14 0;
#X connect 3 0 14 0;
#X connect 4 0 14 0;
#X connect 5 0 0 0;
#X connect 6 0 1 0;
#X connect 7 0 2 0;
#X connect 8 0 3 0;
#X connect 9 0 4 0;
#X connect 10 0 14 0;
#X connect 11 0 14 0;
#X connect 12 0 14 0;
#X connect 13 0 12 0;
#X connect 15 0 6 0;
#X connect 15 0 7 0;
#X connect 15 0 8 0;
#X connect 15 0 9 0;
#X connect 15 0 16 0;
#X connect 15 0 17 0;
#X connect 15 0 21 0;
#X connect 15 0 23 0;
#X connect 16 0 11 0;
#X connect 17 0 10 0;
#X connect 18 0 14 0;
#X connect 19 0 14 0;
#X connect 20 0 14 0;
#X connect 21 0 18 0;
#X connect 21 0 19 0;
#X connect 21 0 20 0;
#X connect 22 0 14 0;
#X connect 23 0 22 0;
#X connect 23 0 25 0;
#X connect 24 0 23 0;
#X connect 25 0 26 0;
#X connect 27 0 1 0;
#X restore -92 0 pd default;
#X obj -136 82 t b b;
#X obj -49 157 r \$0-getArticulation;
#X obj -136 282 outlet;
#X obj -136 179 makenote 80 200;
#X obj -136 256 pack f f f;
#X obj -49 238 float \$2;
#X obj -27 193 loadbang;
#X msg -4 214 1;
#X obj -49 216 bng 15 250 50 0 empty empty empty 17 7 0 10 -262144
-1 -1;
#N canvas 757 22 665 370 rhythm 0;
#X obj 42 117 BPM2ms;
#X obj 42 137 / 8;
#X obj 76 93 r \$0-getDeviation;
#X obj 42 65 r \$0-getBPM;
#X obj 110 124 r \$0-getRhythmMode;
#X obj 9 160 slg.grid-rhythm 500 0 3;
#X obj 197 322 outlet;
#X obj 407 122 repchord-rhythm 100 1000 12 6 0.8 0.2;
#X obj 227 121 brown-rhythm 75 1000 24 0.07;
#X text 242 141 rubato;
#X text 405 143 chords;
#X msg 446 245 1;
#X msg 493 246 2;
#X msg 540 247 3;
#X obj 385 196 loadbang;
#X obj 447 223 route grid rubato chords;
#X obj 447 197 r \$0-rhythmtype;
#X obj 9 194 bng 15 250 50 0 empty empty empty 17 7 0 10 -262144 -1
-1;
#X obj 9 129 tgl 15 0 empty empty empty 17 7 0 10 -262144 -1 -1 0 1
;
#X obj 295 98 tgl 15 0 empty empty empty 17 7 0 10 -262144 -1 -1 0
1;
#X obj 237 160 bng 15 250 50 0 empty empty empty 17 7 0 10 -262144
-1 -1;
#X obj 197 298 switch 3;
#X obj 9 38 r \$0-onoff;
#X obj 227 96 r \$0-onoff;
#X obj 407 98 r \$0-onoff;
#X obj 179 48 r \$0-getRhythm;
#X obj 97 217 slg.gridrhythm;
#X obj 106 254 bng 15 250 50 0 empty empty empty 17 7 0 10 -262144
-1 -1;
#X connect 0 0 1 0;
#X connect 1 0 5 1;
#X connect 2 0 5 2;
#X connect 3 0 26 1;
#X connect 4 0 26 3;
#X connect 5 0 17 0;
#X connect 7 0 21 3;
#X connect 8 0 20 0;
#X connect 8 0 21 2;
#X connect 11 0 21 0;
#X connect 12 0 21 0;
#X connect 13 0 21 0;
#X connect 14 0 11 0;
#X connect 15 0 11 0;
#X connect 15 1 12 0;
#X connect 15 2 13 0;
#X connect 16 0 15 0;
#X connect 18 0 5 0;
#X connect 19 0 8 0;
#X connect 21 0 6 0;
#X connect 22 0 26 0;
#X connect 23 0 8 0;
#X connect 24 0 7 0;
#X connect 25 0 26 4;
#X connect 26 0 21 1;
#X connect 26 0 27 0;
#X restore -136 56 pd rhythm;
#N canvas 33 172 612 454 pitch 1;
#X obj 171 -3 r \$0-getScale;
#X obj 108 84 sel-princ 3;
#X obj 262 -3 r \$0-getPitchMode;
#X obj 93 358 pitch2note 4;
#X obj 162 333 r \$0-getRegister;
#X text 180 359 add delay to turn off note;
#X obj 123 263 musical.arpeggio 0 4 7 11;
#X msg -141 270 1;
#X msg -84 269 2;
#X obj 270 237 r \$0-getScale;
#X obj 123 234 count.up&down 0 12;
#X obj -135 241 loadbang;
#X msg 228 213 0;
#X obj 123 115 r \$0-getTranspose;
#X obj 108 141 + 0;
#X obj 138 285 r \$0-getTranspose;
#X obj 123 307 + 0;
#X obj 93 382 outlet;
#X obj 108 -3 inlet;
#X obj -141 106 r \$0-pitchtype;
#X obj 93 332 switch 3;
#X msg -27 271 3;
#X text 298 135 --> add filters;
#X floatatom 303 189 5 0 0 0 - - -;
#X obj 280 156 brownian 0 24 0.5;
#X obj 262 22 route alea series sequence rota;
#X msg 262 43 1;
#X msg 308 44 2;
#X msg 352 43 3;
#X msg 400 43 4;
#X obj -141 145 route pattern arpeggio brown;
#X connect 0 0 1 2;
#X connect 1 0 14 0;
#X connect 2 0 25 0;
#X connect 3 0 17 0;
#X connect 4 0 3 1;
#X connect 6 0 16 0;
#X connect 7 0 20 0;
#X connect 8 0 20 0;
#X connect 9 0 6 1;
#X connect 10 0 6 0;
#X connect 11 0 7 0;
#X connect 12 0 10 1;
#X connect 13 0 14 1;
#X connect 14 0 20 1;
#X connect 15 0 16 1;
#X connect 16 0 20 2;
#X connect 18 0 1 0;
#X connect 18 0 10 0;
#X connect 18 0 24 0;
#X connect 19 0 30 0;
#X connect 20 0 3 0;
#X connect 21 0 20 0;
#X connect 24 0 20 3;
#X connect 24 0 23 0;
#X connect 25 0 26 0;
#X connect 25 1 27 0;
#X connect 25 2 28 0;
#X connect 25 3 29 0;
#X connect 26 0 1 1;
#X connect 27 0 1 1;
#X connect 28 0 1 1;
#X connect 29 0 1 1;
#X connect 30 0 7 0;
#X connect 30 1 8 0;
#X connect 30 1 12 0;
#X connect 30 2 21 0;
#X restore -136 110 pd pitch;
#N canvas 15 412 301 135 dynamics 0;
#X obj 170 45 r \$0-getDynamic;
#X obj 17 71 sel-princ 3;
#X obj 48 45 r \$0-getDynamicMode;
#X obj 17 102 outlet;
#X obj 17 14 inlet;
#X connect 0 0 1 2;
#X connect 1 0 3 0;
#X connect 2 0 1 1;
#X connect 4 0 1 0;
#X restore -93 134 pd dynamics;
#X msg -159 141 90;
#X obj -63 98 bng 15 250 50 0 empty empty empty 17 7 0 10 -262144 -1
-1;
#N canvas 0 22 291 365 trash 0;
#X obj 109 222 r \$0-getRhythm;
#X obj 75 34 BPM2ms;
#X obj 75 10 r \$0-getBPM;
#X obj 8 10 r \$0-onoff;
#X obj 8 75 bng 15 250 50 0 empty empty empty 17 7 0 10 -262144 -1
-1;
#X obj 10 96 counter;
#X obj 64 57 sel 0;
#X obj 10 148 mod 4;
#X obj 10 177 sel 0;
#X obj 10 205 bng 15 250 50 0 empty empty empty 17 7 0 10 -262144 -1
-1;
#X obj 8 54 metro;
#X floatatom 37 125 5 0 0 0 - - -;
#X text 69 105 number of beats/bar;
#X obj 10 284 QT-percplayer;
#X obj 46 249 list append;
#X obj 46 226 once;
#X msg -18 204 1;
#X obj 72 123 r \$0-beatspb;
#X obj 120 248 prepend set;
#X msg 120 272 8 8 8 8;
#X obj 93 246 bng 15 250 50 0 empty empty empty 17 7 0 10 -262144 -1
-1;
#N canvas 232 22 352 296 test 0;
#X obj 129 58 tgl 15 0 empty empty empty 17 7 0 10 -262144 -1 -1 0
1;
#X obj 128 125 bng 15 250 50 0 empty empty empty 17 7 0 10 -262144
-1 -1;
#X msg 179 34 1000;
#X msg 213 34 500;
#X obj 84 210 mod 4;
#X obj 84 259 bng 15 250 50 0 empty empty empty 17 7 0 10 -262144 -1
-1;
#X obj 84 235 sel 0;
#X obj 186 63 float;
#X obj 127 155 sel 0;
#X obj 129 100 metro 1000;
#X obj 213 107 metro-dev% 1000 0;
#X obj 213 130 bng 15 250 50 0 empty empty empty 17 7 0 10 -262144
-1 -1;
#X obj 53 126 metro 1000;
#X obj 166 156 bng 15 250 50 0 empty empty empty 17 7 0 10 -262144
-1 -1;
#X obj 84 185 cyclone/counter;
#X connect 0 0 8 0;
#X connect 0 0 9 0;
#X connect 0 0 10 0;
#X connect 0 0 12 0;
#X connect 2 0 7 1;
#X connect 3 0 7 1;
#X connect 4 0 6 0;
#X connect 5 0 7 0;
#X connect 6 0 5 0;
#X connect 7 0 9 1;
#X connect 7 0 10 1;
#X connect 8 0 14 2;
#X connect 9 0 1 0;
#X connect 10 0 11 0;
#X connect 12 0 14 0;
#X connect 13 0 14 3;
#X connect 14 0 4 0;
#X restore 109 196 pd test;
#X connect 0 0 14 1;
#X connect 0 0 18 0;
#X connect 0 0 15 1;
#X connect 1 0 10 1;
#X connect 2 0 1 0;
#X connect 3 0 6 0;
#X connect 3 0 10 0;
#X connect 5 0 7 0;
#X connect 6 0 5 2;
#X connect 7 0 8 0;
#X connect 8 0 9 0;
#X connect 8 0 15 0;
#X connect 8 0 16 0;
#X connect 10 0 4 0;
#X connect 10 0 5 0;
#X connect 11 0 7 1;
#X connect 15 0 14 0;
#X connect 17 0 7 1;
#X connect 18 0 19 0;
#X connect 20 0 14 0;
#X restore 7 80 pd trash;
#X connect 1 0 0 0;
#X connect 3 0 2 0;
#X connect 4 0 0 0;
#X connect 5 0 15 0;
#X connect 5 1 16 0;
#X connect 6 0 8 2;
#X connect 8 0 9 0;
#X connect 8 1 9 1;
#X connect 8 1 13 0;
#X connect 9 0 7 0;
#X connect 10 0 9 2;
#X connect 11 0 10 0;
#X connect 12 0 10 1;
#X connect 13 0 10 0;
#X connect 14 0 5 0;
#X connect 14 0 18 0;
#X connect 15 0 8 0;
#X connect 16 0 8 1;
#X connect 17 0 8 0;
