#N canvas 829 22 541 691 10;
#N canvas 0 22 715 217 direct-control 0;
#X msg 20 49 onoff \$1;
#X msg 85 74 bpm \$1;
#X msg 132 74 deviation \$1;
#X msg 505 74 articulation \$1;
#X msg 607 73 register \$1;
#X obj 20 24 tgl 15 0 empty empty empty 17 7 0 10 -262144 -1 -1 0 1
;
#X msg 85 51 90;
#X msg 132 52 0;
#X msg 504 39 500;
#X msg 607 43 4;
#X obj 219 73 prepend rhythm;
#X obj 311 74 prepend dynamic;
#X msg 311 39 75 45 80 90;
#X obj 411 73 prepend scale;
#X msg 411 39 0 3 7 9 12;
#X msg 219 29 4 4;
#X obj 163 168 outlet;
#X connect 0 0 16 0;
#X connect 1 0 16 0;
#X connect 2 0 16 0;
#X connect 3 0 16 0;
#X connect 4 0 16 0;
#X connect 5 0 0 0;
#X connect 6 0 1 0;
#X connect 7 0 2 0;
#X connect 8 0 3 0;
#X connect 9 0 4 0;
#X connect 10 0 16 0;
#X connect 11 0 16 0;
#X connect 12 0 11 0;
#X connect 13 0 16 0;
#X connect 14 0 13 0;
#X connect 15 0 10 0;
#X restore -24 45 pd direct-control;
#N canvas 0 22 381 204 direct-control 0;
#X msg 35 77 pc \$1;
#X msg 83 77 channel \$1;
#X msg 157 78 mod \$1;
#X msg 207 79 vol \$1;
#X msg 257 79 pan \$1;
#X msg 309 78 bend \$1;
#X floatatom 35 50 5 0 0 0 - - -;
#X floatatom 83 48 5 0 0 0 - - -;
#X floatatom 156 48 5 0 0 0 - - -;
#X floatatom 208 47 5 0 0 0 - - -;
#X floatatom 257 46 5 0 0 0 - - -;
#X floatatom 309 45 5 0 0 0 - - -;
#X obj 144 164 outlet;
#X connect 0 0 12 0;
#X connect 1 0 12 0;
#X connect 2 0 12 0;
#X connect 3 0 12 0;
#X connect 4 0 12 0;
#X connect 5 0 12 0;
#X connect 6 0 0 0;
#X connect 7 0 1 0;
#X connect 8 0 2 0;
#X connect 9 0 3 0;
#X connect 10 0 4 0;
#X connect 11 0 5 0;
#X restore 11 98 pd direct-control;
#N canvas 1037 255 371 239 message-based-control 0;
#N canvas 0 22 349 501 esof 0;
#X msg 18 82 0 3 7 9 12;
#X text 18 62 celloSad;
#X msg 19 123 0 5 7 9 12;
#X text 19 105 cello;
#X text 16 149 cello happy;
#X msg 20 166 0 4 7 9 12;
#X msg 140 81 4 4;
#X text 137 63 rhythm cello;
#X msg 249 78 75 45 55 45;
#X text 19 40 SCALES;
#X text 140 39 RHYTHMS;
#X text 17 5 ESOF EARTH;
#X text 250 39 DYNAMICS;
#X text 251 58 cello slow;
#X msg 249 114 100 65 65 75;
#X text 248 95 cello;
#X msg 249 156 120 90 100 90;
#X text 246 137 cello fast;
#X msg 23 248 0 3;
#X text 20 229 cello2Sad;
#X msg 22 286 0 2;
#X msg 24 318 0 4;
#X text 20 270 cello2;
#X text 21 301 cellohappy;
#X msg 136 280 8 16 8 4 4;
#X msg 135 245 4 4;
#X msg 137 316 3 3 3;
#X msg 24 423 0 0 0 0;
#X msg 144 422 4 4;
#X msg 143 446 8;
#X msg 143 471 2 2;
#X msg 221 423 80 50;
#X msg 220 447 115 80;
#X obj 249 201 s dynamic;
#X obj 19 202 s scale;
#X obj 140 193 s rhythm;
#X obj 253 355 s dynamic;
#X obj 23 356 s scale2;
#X obj 137 356 s rhythm2;
#X connect 0 0 34 0;
#X connect 2 0 34 0;
#X connect 5 0 34 0;
#X connect 6 0 35 0;
#X connect 8 0 33 0;
#X connect 14 0 33 0;
#X connect 16 0 33 0;
#X connect 18 0 37 0;
#X connect 20 0 37 0;
#X connect 21 0 37 0;
#X connect 24 0 38 0;
#X connect 25 0 38 0;
#X connect 26 0 38 0;
#X restore 243 142 pd esof;
#X obj 243 23 tgl 15 0 empty empty empty 17 7 0 10 -262144 -1 -1 0
1;
#X msg 243 47 \; onoffpiano \$1 \;;
#X msg 10 20 \; scalepiano 0 2 4 6 8 10 12 \; registerpiano 4 \; rhythmpiano
4 4 -4 -4 2 2 2 2 \; dynamicpiano 100 90 70 40 10 \;;
#X msg 11 100 \; articulationpiano 1000 \;;
#X msg 11 138 \; pcpiano 9 \; channelpiano 1 \; modpiano 0 \; volpiano
90 \; panpiano 64 \;;
#X msg 243 85 \; bpmpiano 100 \; deviationpiano 0 \;;
#X connect 1 0 2 0;
#X restore 363 17 pd message-based-control;
#N canvas 551 197 406 488 osc-syntax 0;
#X obj 34 65 tgl 15 0 empty empty empty 17 7 0 10 -262144 -1 -1 0 1
;
#X msg 34 91 send /inst1/onoff \$1;
#X msg 34 142 send /inst1/bpm \$1;
#X floatatom 34 121 5 0 0 0 - - -;
#X text 32 22 Structure;
#X text 244 50 Sound;
#X msg 35 192 send /inst1/deviation \$1;
#X msg 36 240 send /inst1/articulation \$1;
#X msg 34 293 send /inst1/rhythm \$1;
#X floatatom 35 168 5 0 0 0 - - -;
#X floatatom 36 216 5 0 0 0 - - -;
#X msg 35 270 8 4 4 8;
#X msg 34 348 send /inst1/dynamic \$1;
#X msg 35 325 45 90 20 100 80;
#X msg 36 379 45 90 20 100 80;
#X msg 36 401 send /inst1/scale \$1;
#X msg 35 448 send /inst1/register \$1;
#X floatatom 35 427 5 0 0 0 - - -;
#X floatatom 244 96 5 0 0 0 - - -;
#X msg 244 117 send /inst1/pc \$1;
#X floatatom 243 143 5 0 0 0 - - -;
#X msg 243 164 send /inst1/channel \$1;
#X floatatom 245 197 5 0 0 0 - - -;
#X msg 245 218 send /inst1/mod \$1;
#X floatatom 245 244 5 0 0 0 - - -;
#X msg 245 265 send /inst1/vol \$1;
#X floatatom 241 292 5 0 0 0 - - -;
#X msg 241 313 send /inst1/pan \$1;
#X floatatom 241 350 5 0 0 0 - - -;
#X msg 241 371 send /inst1/bend \$1;
#X text 242 68 (midi synth);
#X connect 0 0 1 0;
#X connect 3 0 2 0;
#X connect 9 0 6 0;
#X connect 10 0 7 0;
#X connect 11 0 8 0;
#X connect 13 0 12 0;
#X connect 14 0 15 0;
#X connect 17 0 16 0;
#X connect 18 0 19 0;
#X connect 20 0 21 0;
#X connect 22 0 23 0;
#X connect 24 0 25 0;
#X connect 26 0 27 0;
#X connect 28 0 29 0;
#X restore 364 67 pd osc-syntax;
#N canvas 939 159 251 125 todo 0;
#X text 21 18 - volume is global? is this normal?;
#X text 22 36 - link to tristimulus synth;
#X text 23 53 - cresc-decresc \, schweller;
#X text 23 70 - markov rhythm \, pitch \, etc.;
#X text 23 88 - test with Iannix;
#X restore 364 91 pd todo;
#X obj 105 48 r \$0-osc;
#X obj 140 100 r \$0-osc;
#X obj 111 271 r \$0-osc;
#X obj -9 617 ezdac~;
#X obj -18 361 slg.fluidctl~ fluid;
#X obj 275 273 r \$0-osc;
#X obj 431 277 r \$0-osc;
#X obj 157 343 r \$0-osc;
#X obj 366 341 prepend set;
#X msg 366 366 84 0 3;
#X obj 291 342 prepend set;
#X msg 291 367 53 0 2;
#X obj 215 342 prepend set;
#X msg 216 367 48 90 1;
#X msg 164 47 60 90 1;
#X obj -25 180 slg.midictl simplesynth;
#X msg 219 47 60 90 2;
#X obj 110 159 r \$0-osc;
#X obj 292 101 r \$0-osc;
#X obj -15 227 prepend set;
#X msg -15 248 58 90 1;
#N canvas 1014 192 397 196 osc-ctl 0;
#X obj 116 19 udpreceive 3001;
#X obj 246 53 unpack 0 0 0 0;
#X floatatom 246 84 3 0 0 0 - - -;
#X text 206 83 from;
#X obj 116 53 unpackOSC;
#X obj 126 79 print;
#X floatatom 209 122 10 0 0 1 millisecond_delay - -;
#X obj 116 123 pipelist;
#X obj 14 17 dumpOSC 3000;
#X obj 14 42 s \$0-osc;
#X obj 116 150 s \$0-osc;
#X connect 0 0 4 0;
#X connect 0 1 1 0;
#X connect 1 0 2 0;
#X connect 4 0 5 0;
#X connect 4 0 7 0;
#X connect 4 1 6 0;
#X connect 4 1 7 1;
#X connect 7 0 10 0;
#X connect 8 0 9 0;
#X restore 363 43 pd osc-ctl;
#X obj 141 487 slg.trisynthpoly~ 3 trisynth;
#X obj 141 510 slg.freeverb~;
#X obj 288 393 r \$0-osc;
#X obj 306 464 r \$0-osc;
#X obj 141 440 unpack f f f;
#X obj 141 465 pack f f;
#X text -21 9 Sylvain's (Re)Composer 5 voices;
#X obj 263 531 prepend set;
#X msg 263 554;
#X obj -24 70 slg.recomposer inst1 1;
#X obj -18 295 slg.recomposer cell1 1;
#X obj 146 296 slg.recomposer cell2 2;
#X obj 141 416 slg.recomposer trisynth 2;
#X obj 163 125 slg.recomposer drum 10;
#X obj 11 124 slg.recomposer inst2 2;
#X obj 302 300 slg.recomposer cell3 3;
#X connect 0 0 36 0;
#X connect 1 0 41 0;
#X connect 5 0 36 1;
#X connect 6 0 41 1;
#X connect 7 0 37 1;
#X connect 9 0 8 0;
#X connect 9 1 8 1;
#X connect 10 0 38 1;
#X connect 11 0 42 1;
#X connect 12 0 9 2;
#X connect 13 0 14 0;
#X connect 15 0 16 0;
#X connect 17 0 18 0;
#X connect 19 0 20 0;
#X connect 21 0 20 0;
#X connect 22 0 20 2;
#X connect 23 0 40 1;
#X connect 24 0 25 0;
#X connect 27 0 28 0;
#X connect 27 1 28 1;
#X connect 28 0 8 0;
#X connect 28 1 8 1;
#X connect 29 0 39 1;
#X connect 30 0 27 2;
#X connect 31 0 32 0;
#X connect 31 1 32 1;
#X connect 32 0 27 0;
#X connect 34 0 35 0;
#X connect 36 0 20 0;
#X connect 37 0 17 0;
#X connect 37 0 9 0;
#X connect 38 0 15 0;
#X connect 38 0 9 0;
#X connect 39 0 31 0;
#X connect 39 0 34 0;
#X connect 40 0 20 0;
#X connect 41 0 20 0;
#X connect 42 0 13 0;
#X connect 42 0 9 0;
