#N canvas 795 464 361 334 10;
#X obj 39 41 inlet~;
#X obj 114 299 outlet~;
#X obj 154 212 *~ 0.4;
#X obj 154 251 lop~ 1000;
#X obj 115 38 inlet~;
#X obj 39 96 spigot~;
#X obj 115 94 spigot~;
#X obj 38 300 outlet~;
#N canvas 452 23 523 310 waaaaah 1;
#X obj 11 164 wahwah~ --------------------------------------------------
;
#X obj 16 93 inlet~;
#X obj 20 242 outlet~;
#X obj 265 98 switch~;
#X msg 80 51 preset 2;
#X text 148 51 slow change medium wah-wah;
#X obj 78 24 loadbang;
#X obj 268 18 inlet;
#X obj 354 46 inlet;
#X connect 0 0 2 0;
#X connect 1 0 0 0;
#X connect 4 0 0 0;
#X connect 6 0 4 0;
#X connect 7 0 3 0;
#X connect 8 0 0 7;
#X restore 154 174 pd waaaaah;
#X obj 179 39 inlet on-off;
#X obj 271 38 inlet pedal;
#X text 275 62 [0..100];
#X connect 0 0 5 0;
#X connect 2 0 3 0;
#X connect 3 0 1 0;
#X connect 3 0 7 0;
#X connect 4 0 6 0;
#X connect 5 0 7 0;
#X connect 5 1 8 0;
#X connect 6 0 1 0;
#X connect 6 1 8 0;
#X connect 8 0 2 0;
#X connect 9 0 5 1;
#X connect 9 0 6 1;
#X connect 9 0 8 1;
#X connect 10 0 8 2;
