#N canvas 459 22 800 538 10;
#X obj 158 60 BPM2ms;
#X msg 120 37 60;
#X obj 158 82 / 8;
#X obj 21 69 tgl 15 0 empty empty empty 17 7 0 10 -262144 -1 -1 0 1
;
#X obj 314 266 sel-princ 3;
#X obj 377 234 list append;
#X obj 377 209 once;
#X obj 21 161 bng 15 250 50 0 empty empty empty 17 7 0 10 -262144 -1
-1;
#X obj 143 109 *;
#X obj 314 304 moses 0;
#X obj 207 92 * -1;
#X obj 149 341 sel 0 1;
#X obj 149 316 > 0;
#X msg 178 367 1;
#X msg 149 366 0;
#X obj 116 398 spigot;
#X text 365 306 if silence go left;
#X obj 207 115 *;
#X obj 495 283 prepend set;
#X msg 495 309 8;
#X obj 148 246 prepend set;
#X msg 148 272 1000;
#X obj 21 134 metro 1000;
#X obj 357 210 bng 15 250 50 0 empty empty empty 17 7 0 10 -262144
-1 -1;
#X obj 116 134 metro;
#X msg 208 35 8;
#X text 223 12 div/beat;
#X text 166 10 bpm;
#X text 17 33 start;
#X obj 398 177 r rhythmicpattern;
#X msg 505 38 4 4 4 4;
#X msg 559 38 8;
#X msg 438 38 2 3 4 2 2;
#X msg 382 39 2 2 2 2;
#X msg 351 39 1;
#X msg 589 37 -8 8 -8;
#X msg 645 37 3 3 4;
#X obj 344 78 s rhythmicpattern;
#X obj 116 423 bng 15 250 50 0 empty empty empty 17 7 0 10 -262144
-1 -1;
#X msg 688 38 2 2 -2 -2;
#X obj 116 446 outlet;
#X obj 448 -7 inlet rhythmicpattern;
#X obj 21 -5 inlet onoff;
#X obj 156 -5 inlet bpm;
#X obj 227 -6 inlet divbeat;
#X obj 329 -6 inlet selprinc;
#X obj 534 166 route alea series sequence rota;
#X msg 536 188 1;
#X msg 580 188 2;
#X msg 624 187 3;
#X msg 672 187 4;
#X connect 0 0 2 0;
#X connect 1 0 0 0;
#X connect 2 0 8 1;
#X connect 2 0 17 1;
#X connect 3 0 22 0;
#X connect 3 0 24 0;
#X connect 4 0 9 0;
#X connect 4 0 12 0;
#X connect 5 0 4 2;
#X connect 5 0 18 0;
#X connect 6 0 5 0;
#X connect 8 0 20 0;
#X connect 8 0 24 1;
#X connect 9 0 10 0;
#X connect 9 1 8 0;
#X connect 10 0 17 0;
#X connect 11 0 14 0;
#X connect 11 1 13 0;
#X connect 12 0 11 0;
#X connect 13 0 15 1;
#X connect 14 0 15 1;
#X connect 15 0 38 0;
#X connect 15 0 40 0;
#X connect 17 0 24 1;
#X connect 18 0 19 0;
#X connect 20 0 21 0;
#X connect 22 0 7 0;
#X connect 22 0 24 0;
#X connect 22 0 6 0;
#X connect 23 0 5 0;
#X connect 24 0 4 0;
#X connect 24 0 15 0;
#X connect 25 0 2 1;
#X connect 29 0 5 1;
#X connect 29 0 6 1;
#X connect 30 0 37 0;
#X connect 31 0 37 0;
#X connect 32 0 37 0;
#X connect 33 0 37 0;
#X connect 34 0 37 0;
#X connect 35 0 37 0;
#X connect 36 0 37 0;
#X connect 39 0 37 0;
#X connect 41 0 37 0;
#X connect 42 0 3 0;
#X connect 43 0 0 0;
#X connect 44 0 2 1;
#X connect 45 0 46 0;
#X connect 46 0 47 0;
#X connect 46 1 48 0;
#X connect 46 2 49 0;
#X connect 46 3 50 0;
#X connect 47 0 4 1;
#X connect 48 0 4 1;
#X connect 49 0 4 1;
#X connect 50 0 4 1;
