#N canvas 0 22 615 353 10;
#X obj 82 20 inlet~;
#X obj 74 248 outlet~;
#X obj 122 87 *~ 100;
#X obj 124 134 clip~ -1 1;
#X obj 80 54 spigot~;
#X obj 258 24 inlet~;
#X obj 250 252 outlet~;
#X obj 298 91 *~ 100;
#X obj 300 138 clip~ -1 1;
#X obj 256 58 spigot~;
#X obj 111 189 *~ 0.14;
#X obj 287 193 *~ 0.14;
#X obj 427 19 inlet;
#X connect 0 0 4 0;
#X connect 2 0 3 0;
#X connect 3 0 10 0;
#X connect 4 0 1 0;
#X connect 4 1 2 0;
#X connect 5 0 9 0;
#X connect 7 0 8 0;
#X connect 8 0 11 0;
#X connect 9 0 6 0;
#X connect 9 1 7 0;
#X connect 10 0 1 0;
#X connect 11 0 6 0;
#X connect 12 0 9 1;
#X connect 12 0 4 1;
