#N canvas 0 22 450 300 10;
#X obj 285 183 *~ 0.9;
#X obj 95 184 *~ 0.9;
#X obj 32 185 *~ 0.5;
#X obj 221 183 *~ 0.5;
#X obj 32 89 delwrite~ \$0-elevate 1000;
#X obj 225 88 delwrite~ \$0-trashed 1000;
#X obj 221 152 delread~ \$0-trashed 1000;
#X obj 298 26 inlet;
#X obj 396 30 inlet;
#X obj 396 54 switch~;
#X obj 32 33 inlet~;
#X obj 224 24 inlet~;
#X obj 31 213 outlet~;
#X obj 221 211 outlet~;
#X obj 32 149 delread~ \$0-elevate 1000;
#X connect 0 0 5 0;
#X connect 1 0 4 0;
#X connect 2 0 12 0;
#X connect 3 0 13 0;
#X connect 6 0 0 0;
#X connect 6 0 3 0;
#X connect 7 0 6 0;
#X connect 7 0 14 0;
#X connect 8 0 9 0;
#X connect 10 0 4 0;
#X connect 11 0 5 0;
#X connect 14 0 1 0;
#X connect 14 0 2 0;
