#N canvas 0 22 851 561 10;
#X obj 100 26 inlet~;
#X obj 227 30 inlet~;
#X obj 102 336 outlet~;
#X obj 225 340 outlet~;
#X obj 84 246 *~;
#X obj 238 252 *~;
#X obj 326 326 line~;
#X msg 361 271 1 5;
#X obj 333 243 delay;
#X obj 284 184 t b;
#X obj 324 299 spigot;
#X msg 396 324 1 5;
#X msg 434 262 1;
#X msg 489 263 0;
#X obj 473 294 t b f;
#X obj 437 326 loadbang;
#X obj 275 56 mod 8;
#X obj 330 219 random 100;
#X msg 319 268 0 100;
#X obj 438 218 sel 1 0;
#X obj 275 26 inlet;
#X obj 438 176 inlet;
#X obj 508 218 switch~;
#X msg 515 169 1;
#X connect 0 0 4 0;
#X connect 1 0 5 0;
#X connect 4 0 2 0;
#X connect 5 0 3 0;
#X connect 6 0 4 1;
#X connect 6 0 5 1;
#X connect 7 0 10 0;
#X connect 8 0 18 0;
#X connect 9 0 7 0;
#X connect 9 0 17 0;
#X connect 10 0 6 0;
#X connect 11 0 6 0;
#X connect 12 0 10 1;
#X connect 13 0 14 0;
#X connect 14 0 11 0;
#X connect 14 1 10 1;
#X connect 15 0 11 0;
#X connect 16 0 9 0;
#X connect 17 0 8 0;
#X connect 18 0 10 0;
#X connect 19 0 12 0;
#X connect 19 1 13 0;
#X connect 20 0 16 0;
#X connect 21 0 19 0;
#X connect 21 0 22 0;
#X connect 23 0 22 0;
