#N canvas 500 33 495 506 10;
#X obj -411 61 inlet~;
#X obj -314 58 inlet;
#X obj -271 438 outlet~;
#X obj -271 407 samphold~;
#X obj -155 165 clip~;
#X obj -329 208 phasor~ 22050;
#X msg -331 164 22050;
#X obj -330 186 -;
#X obj -325 141 t b 1;
#X obj -142 50 inlet;
#X floatatom -141 81 5 0 1 2 clip_amount - -;
#X floatatom -314 93 5 0 1 2 downsample_amount - -;
#X obj -140 123 - 1;
#X obj -119 143 * -1;
#X obj -141 101 * 0.85;
#X obj -123 241 / 1;
#X msg -138 213 1;
#X obj -94 191 sel 0;
#X msg -94 212 1;
#X obj -94 169 t b 1;
#X obj -155 293 *~;
#X obj -129 267 sig~;
#X floatatom -48 267 5 0 0 0 - - -;
#X floatatom 1 167 5 0 0 0 - - -;
#X obj -280 163 * 22000;
#X connect 0 0 4 0;
#X connect 1 0 11 0;
#X connect 3 0 2 0;
#X connect 4 0 20 0;
#X connect 5 0 3 1;
#X connect 6 0 7 0;
#X connect 7 0 5 0;
#X connect 8 0 6 0;
#X connect 8 1 24 0;
#X connect 9 0 10 0;
#X connect 10 0 14 0;
#X connect 11 0 8 0;
#X connect 12 0 4 1;
#X connect 12 0 13 0;
#X connect 13 0 4 2;
#X connect 13 0 19 0;
#X connect 13 0 23 0;
#X connect 14 0 12 0;
#X connect 15 0 22 0;
#X connect 15 0 21 0;
#X connect 16 0 15 0;
#X connect 17 0 18 0;
#X connect 17 1 15 1;
#X connect 18 0 15 1;
#X connect 19 0 16 0;
#X connect 19 1 17 0;
#X connect 20 0 3 0;
#X connect 21 0 20 1;
#X connect 24 0 7 1;
