#N canvas 257 237 378 329 10;
#X obj 21 30 inlet~;
#X obj 95 289 outlet~;
#X obj 135 207 *~ 0.4;
#X obj 135 246 lop~ 1000;
#X obj 97 30 inlet~;
#X obj 21 88 spigot~;
#X obj 97 86 spigot~;
#X obj 19 287 outlet~;
#N canvas 719 22 451 274 waaaaah 1;
#X obj 11 164 wahwah~ --------------------------------------------------
;
#X obj 11 110 inlet~;
#X obj 11 211 outlet~;
#X obj 265 98 switch~;
#X obj 341 88 random 100;
#X obj 344 63 t b;
#X msg 80 51 preset 2;
#X text 148 51 slow change medium wah-wah;
#X obj 78 24 loadbang;
#X obj 268 18 inlet;
#X obj 343 16 inlet;
#X floatatom 368 121 5 0 0 0 - - -;
#X connect 0 0 2 0;
#X connect 1 0 0 0;
#X connect 4 0 0 7;
#X connect 4 0 11 0;
#X connect 5 0 4 0;
#X connect 6 0 0 0;
#X connect 8 0 6 0;
#X connect 9 0 3 0;
#X connect 10 0 5 0;
#X restore 136 166 pd waaaaah;
#X obj 280 31 inlet on-off;
#X obj 237 126 bng 15 250 50 0 empty empty empty 17 7 0 10 -262144
-1 -1;
#X obj 196 30 inlet beat;
#X connect 0 0 5 0;
#X connect 2 0 3 0;
#X connect 3 0 1 0;
#X connect 3 0 7 0;
#X connect 4 0 6 0;
#X connect 5 0 7 0;
#X connect 5 1 8 0;
#X connect 6 0 1 0;
#X connect 6 1 8 0;
#X connect 8 0 2 0;
#X connect 9 0 5 1;
#X connect 9 0 6 1;
#X connect 9 0 8 1;
#X connect 11 0 8 2;
#X connect 11 0 10 0;
