#N canvas 289 29 913 590 10;
#X obj 172 334 *~;
#N canvas 747 32 815 768 hanning-window 0;
#X obj 92 206 phasor~;
#X obj 92 234 cos~;
#X obj 29 252 -~;
#X obj 28 218 sig~ 1;
#X msg 37 180 0;
#X text 141 13 CALCULATE HANNING;
#X text 141 27 WINDOW TABLE;
#N canvas 0 22 454 304 (subpatch) 0;
#X array \$0-hanning 8192 float 0;
#X coords 0 1 8191 -1 400 300 1;
#X restore 275 281 graph;
#X obj 93 131 / 1024;
#X obj 93 171 sig~;
#X text 183 192 sample rate / window size;
#X msg 23 144 bang;
#X obj 66 269 sig~ 0.5;
#X obj 29 299 *~;
#X obj 67 96 samplerate~;
#X obj 24 11 r window-size;
#X obj 25 53 t b f f;
#X obj 23 327 tabwrite~ \$0-hanning;
#X obj 182 92 float \$0;
#X msg 183 154 \; \$1-hanning resize \$2;
#X obj 184 117 pack f f;
#X obj 185 65 t f b;
#X connect 0 0 1 0;
#X connect 1 0 2 1;
#X connect 2 0 13 0;
#X connect 3 0 2 0;
#X connect 4 0 0 1;
#X connect 8 0 9 0;
#X connect 9 0 0 0;
#X connect 11 0 4 0;
#X connect 11 0 17 0;
#X connect 12 0 13 1;
#X connect 13 0 17 0;
#X connect 14 0 8 0;
#X connect 15 0 16 0;
#X connect 16 0 14 0;
#X connect 16 0 11 0;
#X connect 16 1 8 1;
#X connect 16 2 21 0;
#X connect 18 0 20 0;
#X connect 20 0 19 0;
#X connect 21 0 20 1;
#X connect 21 1 18 0;
#X restore -21 356 pd hanning-window;
#X text -22 87 click here first;
#N canvas 608 118 562 481 fft-convolution 0;
#X obj 130 198 *~;
#X obj 98 198 *~;
#X obj 225 97 *~;
#X obj 249 48 inlet~;
#X obj 222 134 rfft~;
#X obj 90 332 *~;
#X obj 89 108 *~;
#X obj 95 43 inlet~;
#X obj 89 131 rfft~;
#X obj 143 290 rifft~;
#X obj 91 402 outlet~;
#X obj 312 144 block~ 1024 4;
#X obj 189 197 *~;
#X obj 218 197 *~;
#X text 37 2 convoluion of two signals using an fft and a hanning window
;
#X obj 315 90 r window-size;
#X obj 122 244 -~;
#X obj 188 245 +~;
#X msg 314 116 set \$1 4;
#X obj 70 74 tabreceive~ \$0-hanning;
#X connect 0 0 16 1;
#X connect 1 0 16 0;
#X connect 2 0 4 0;
#X connect 3 0 2 1;
#X connect 4 0 1 1;
#X connect 4 0 13 1;
#X connect 4 1 0 1;
#X connect 4 1 12 1;
#X connect 5 0 10 0;
#X connect 6 0 8 0;
#X connect 7 0 6 1;
#X connect 8 0 1 0;
#X connect 8 0 12 0;
#X connect 8 1 0 0;
#X connect 8 1 13 0;
#X connect 9 0 5 1;
#X connect 12 0 17 0;
#X connect 13 0 17 1;
#X connect 15 0 18 0;
#X connect 16 0 9 0;
#X connect 17 0 9 1;
#X connect 18 0 11 0;
#X connect 19 0 6 0;
#X connect 19 0 2 0;
#X connect 19 0 5 0;
#X restore 172 223 pd fft-convolution;
#X obj 466 196 /;
#X obj 466 120 r window-size;
#X obj 466 168 t b f b;
#X msg 505 193 1;
#X obj 466 143 * 32;
#X obj 466 256 *;
#X obj 466 220 t b f;
#X obj 172 254 hip~ 20000;
#X obj 172 284 hip~ 20000;
#X obj 172 189 inlet~;
#X obj 172 376 outlet~;
#X obj 360 160 inlet;
#X obj -23 64 loadbang;
#X obj 277 193 inlet~;
#X msg -23 12 \; window-size 32768 \;;
#X msg -24 183 \; window-size 2048 \;;
#X msg -24 228 \; window-size 512 \;;
#X msg -24 274 \; window-size 128 \;;
#X msg -22 315 \; window-size 16 \;;
#X obj 101 102 cnv 15 98 56 empty empty empty 20 12 0 14 -233017 -66577
0;
#X obj 106 112 knob 20 20 0 127 0 0 empty empty empty 0 -8 0 8 -262144
-1 -1 1900 1;
#X obj 136 119 nbx 4 14 -1e+37 1e+37 0 0 empty empty empty 0 -6 0 10
-257985 -1 -1 20 256;
#X obj 120 146 hradio 10 1 0 6 empty empty empty 0 -6 0 10 -260097
-1 -1 1;
#X text 118 131 window size;
#X text 139 101 gain;
#X msg 151 56 1;
#X obj 233 52 sel 0 1 2 3 4 5;
#X msg -22 103 \; window-size 8192 \;;
#X obj 251 14 loadbang;
#X msg 357 50 127;
#X connect 0 0 14 0;
#X connect 3 0 11 0;
#X connect 4 0 10 0;
#X connect 5 0 8 0;
#X connect 6 0 4 0;
#X connect 6 1 4 1;
#X connect 6 2 7 0;
#X connect 7 0 4 0;
#X connect 8 0 6 0;
#X connect 9 0 0 1;
#X connect 10 0 9 0;
#X connect 10 1 9 1;
#X connect 11 0 12 0;
#X connect 12 0 0 0;
#X connect 13 0 3 0;
#X connect 15 0 9 0;
#X connect 15 0 25 0;
#X connect 15 0 24 0;
#X connect 16 0 31 0;
#X connect 16 0 29 0;
#X connect 17 0 3 1;
#X connect 24 0 25 0;
#X connect 24 0 9 0;
#X connect 26 0 30 0;
#X connect 29 0 26 0;
#X connect 30 0 18 0;
#X connect 30 1 31 0;
#X connect 30 2 19 0;
#X connect 30 3 20 0;
#X connect 30 4 21 0;
#X connect 30 5 22 0;
#X connect 32 0 33 0;
#X connect 33 0 24 0;
#X coords 0 -1 1 1 85 60 1 100 100;
