#N canvas 183 104 363 288 10;
#X obj 101 101 cnv 15 98 38 empty empty empty 20 12 0 14 -128992 -66577
0;
#X obj 33 228 slg.hardclip~;
#X obj 106 110 tgl 20 0 empty empty empty 17 7 0 10 -258113 -1 -1 0
1;
#X obj 33 192 r~ input1;
#X text 128 111 Hardclip;
#X obj 205 103 cnv 15 100 60 empty empty empty 20 12 0 14 -233017 -66577
0;
#X connect 2 0 1 2;
#X connect 3 0 1 0;
#X connect 3 0 1 1;
#X coords 0 -1 1 1 100 40 1 100 100;
