#N canvas 730 353 550 293 10;
#X obj 126 176 slg.harmonizer~;
#X obj 155 21 vsl 15 128 -127 127 0 0 empty empty empty 0 -9 0 10 -262144
-1 -1 5300 1;
#X obj 126 210 ezdac~;
#X msg 184 134 100;
#X obj 110 94 adc~;
#X text 131 1 transpose;
#X msg 213 133 0;
#X text 181 97 window;
#X text 222 98 delay;
#X obj 213 65 loadbang;
#X connect 0 0 2 0;
#X connect 0 0 2 1;
#X connect 1 0 0 1;
#X connect 3 0 0 2;
#X connect 4 0 0 0;
#X connect 6 0 0 3;
#X connect 9 0 3 0;
#X connect 9 0 6 0;
