#N canvas 129 22 243 297 10;
#X obj 50 141 slg.hardclip~;
#X obj 50 169 ezdac~;
#X obj 48 46 slg.loadsample~;
#X obj 124 117 tgl 15 0 empty empty empty 17 7 0 10 -262144 -1 -1 0
1;
#X connect 0 0 1 0;
#X connect 0 1 1 1;
#X connect 2 0 0 0;
#X connect 2 0 0 1;
#X connect 3 0 0 2;
