#N canvas 206 70 741 557 10;
#X obj 101 114 cnv 15 238 65 empty empty empty 20 12 0 14 -233017 -66577
0;
#X obj 50 155 inlet~;
#X obj 163 126 knob 32 32 0 5 0 0 empty \$0-frequency Frequence 0 -8
32 8 -262144 -4033 -1 3100 1;
#X obj 218 126 knob 32 32 0 127 0 0 empty \$0-modulation Modulation
0 -8 32 8 -262144 -4033 -1 450 1;
#X obj 108 125 knob 32 32 0 1 0 0 empty \$0-gain Gain 0 -8 32 8 -4033
-4033 -1 0 1;
#X obj 113 305 *~ 1;
#X obj 108 160 nbx 5 14 -1e+37 1e+37 0 0 empty empty empty 0 -6 0 10
-261338 -1 -1 0 256;
#X obj 163 160 nbx 5 14 -1e+37 1e+37 0 0 empty empty empty 0 -6 0 10
-261338 -1 -1 5 256;
#X obj 218 160 nbx 5 14 -1e+37 1e+37 0 0 empty empty empty 0 -6 0 10
-261338 -1 -1 18.4355 256;
#X obj 284 121 tgl 15 0 empty \$0-bypass Bypass 0 -6 0 8 -258049 -1
-1 0 1;
#X obj 283 148 hradio 10 1 0 5 empty \$0-preset1 Preset1 0 -6 0 8 -262081
-1 -1 0;
#X obj 283 159 hradio 10 1 0 5 empty \$0-preset2 Preset2 0 15 0 8 -262081
-1 -1 0;
#X obj 409 140 inlet;
#X obj 74 212 spigot~;
#X obj 310 272 s \$0-bypass;
#X obj 370 310 s \$0-gain;
#X obj 301 228 OSCroute /bypass /gain /frequency /modulation /preset1
;
#X obj 426 335 s \$0-frequency;
#X obj 470 363 s \$0-modulation;
#X obj 508 389 s \$0-preset1;
#X obj 114 356 outlet~;
#X obj 170 305 *~ 1;
#X obj 171 356 outlet~;
#X obj 226 304 *~ 1;
#X obj 227 355 outlet~;
#X obj 286 304 *~ 1;
#X obj 287 355 outlet~;
#N canvas 2 299 533 377 FX-chorus4 0;
#X obj 84 199 cos~;
#X obj 84 222 +~ 1;
#X obj 171 143 +~ 0.25;
#X obj 171 198 cos~;
#X obj 171 221 +~ 1;
#X obj 84 325 outlet~;
#X obj 171 326 outlet~;
#X obj 270 142 +~ 0.25;
#X obj 270 197 cos~;
#X obj 270 220 +~ 1;
#X obj 365 140 +~ 0.25;
#X obj 365 195 cos~;
#X obj 365 218 +~ 1;
#X obj 180 44 inlet;
#X obj 14 32 inlet~;
#X obj 420 224 line~;
#X obj 420 203 pack 0 50;
#X obj 365 279 *~;
#X obj 270 281 *~;
#X obj 171 282 *~;
#X obj 84 283 *~;
#X obj 180 94 line~;
#X obj 180 73 pack 0 50;
#X obj 84 124 phasor~;
#X obj 270 324 outlet~;
#X obj 365 321 outlet~;
#X obj 420 160 inlet;
#X text 424 135 modulation;
#X text 174 28 frequence;
#X obj 14 92 delwrite~ \$0-del 1000;
#X obj 84 304 vd~ \$0-del;
#X obj 171 303 vd~ \$0-del;
#X obj 270 302 vd~ \$0-del;
#X obj 365 300 vd~ \$0-del;
#X connect 0 0 1 0;
#X connect 1 0 20 0;
#X connect 2 0 3 0;
#X connect 2 0 7 0;
#X connect 3 0 4 0;
#X connect 4 0 19 0;
#X connect 7 0 8 0;
#X connect 7 0 10 0;
#X connect 8 0 9 0;
#X connect 9 0 18 0;
#X connect 10 0 11 0;
#X connect 11 0 12 0;
#X connect 12 0 17 0;
#X connect 13 0 22 0;
#X connect 14 0 29 0;
#X connect 15 0 17 1;
#X connect 15 0 18 1;
#X connect 15 0 19 1;
#X connect 15 0 20 1;
#X connect 16 0 15 0;
#X connect 17 0 33 0;
#X connect 18 0 32 0;
#X connect 19 0 31 0;
#X connect 20 0 30 0;
#X connect 21 0 23 0;
#X connect 22 0 21 0;
#X connect 23 0 0 0;
#X connect 23 0 2 0;
#X connect 26 0 16 0;
#X connect 30 0 5 0;
#X connect 31 0 6 0;
#X connect 32 0 24 0;
#X connect 33 0 25 0;
#X restore 112 250 pd FX-chorus4;
#X floatatom 533 267 5 0 0 0 - - -;
#X connect 1 0 13 0;
#X connect 2 0 7 0;
#X connect 2 0 27 1;
#X connect 3 0 8 0;
#X connect 3 0 27 2;
#X connect 4 0 5 1;
#X connect 4 0 6 0;
#X connect 4 0 21 1;
#X connect 4 0 23 1;
#X connect 4 0 25 1;
#X connect 5 0 20 0;
#X connect 9 0 13 1;
#X connect 12 0 16 0;
#X connect 13 0 27 0;
#X connect 16 0 14 0;
#X connect 16 1 15 0;
#X connect 16 2 17 0;
#X connect 16 3 18 0;
#X connect 16 3 28 0;
#X connect 16 4 19 0;
#X connect 21 0 22 0;
#X connect 23 0 24 0;
#X connect 25 0 26 0;
#X connect 27 0 5 0;
#X connect 27 1 21 0;
#X connect 27 2 23 0;
#X connect 27 3 25 0;
#X coords 0 -1 1 1 240 80 1 100 100;
