#N canvas 315 137 697 450 10;
#X obj 69 31 inlet~;
#X obj 227 29 inlet~;
#X obj 121 393 outlet~;
#X obj 276 401 outlet~;
#X obj 354 299 *~;
#X obj 313 301 *~;
#X obj 410 344 line~;
#X obj 548 162 random 1000;
#X obj 549 190 + 100;
#X obj 574 138 random 1050;
#N canvas 299 61 501 512 delayreads 0;
#X obj 10 76 inlet~;
#X obj 170 82 inlet~;
#X obj 115 432 outlet~;
#X obj 243 429 outlet~;
#X obj 344 83 inlet;
#X obj 419 79 inlet;
#X obj 107 242 lop~ 4000;
#X obj 237 242 lop~ 4000;
#X obj 65 201 + 100;
#X obj 115 267 *~ 0.8;
#X obj 241 269 *~ 0.8;
#X obj 10 101 delwrite~ \$0-trailsL 1100;
#X obj 171 101 delwrite~ \$0-trailsR 1100;
#X obj 65 220 delread~ \$0-trailsL 999;
#X obj 236 219 delread~ \$0-trailsR 995;
#X connect 0 0 11 0;
#X connect 1 0 12 0;
#X connect 4 0 8 0;
#X connect 5 0 14 0;
#X connect 6 0 9 0;
#X connect 7 0 10 0;
#X connect 8 0 13 0;
#X connect 9 0 2 0;
#X connect 9 0 11 0;
#X connect 10 0 3 0;
#X connect 10 0 12 0;
#X connect 13 0 6 0;
#X connect 14 0 7 0;
#X restore 288 218 pd delayreads;
#X obj 480 53 t f b;
#X msg 409 318 \$1 100;
#X obj 74 66 *~ 1;
#X obj 252 61 *~ 1;
#X obj 480 30 inlet;
#X connect 0 0 13 0;
#X connect 1 0 14 0;
#X connect 4 0 3 0;
#X connect 5 0 2 0;
#X connect 6 0 4 1;
#X connect 6 0 5 1;
#X connect 7 0 10 2;
#X connect 8 0 10 3;
#X connect 9 0 8 0;
#X connect 10 0 5 0;
#X connect 10 1 4 0;
#X connect 11 0 12 0;
#X connect 11 1 9 0;
#X connect 11 1 7 0;
#X connect 12 0 6 0;
#X connect 13 0 2 0;
#X connect 13 0 10 0;
#X connect 14 0 3 0;
#X connect 14 0 10 1;
#X connect 15 0 11 0;
