#N canvas 389 46 584 677 10;
#X obj 665 278 s \$0-frequency;
#X obj 102 103 cnv 5 198 138 empty empty Tremolo/Vibrato 5 5 0 14 -233017
-1 0;
#X obj 108 133 vsl 15 80 0 1 0 0 empty \$0-gain gain 0 -8 1 9 -4033
-1 -1 3555 1;
#X floatatom 105 222 5 0 0 0 - - -;
#X obj 263 118 tgl 15 0 empty \$0-bypass Bypass 0 -6 0 8 -258049 -1
-1 0 1;
#X obj 143 134 vsl 15 80 0 100 0 0 empty \$0-depth Depth 0 -8 1 9 -4033
-1 -1 7900 1;
#X floatatom 143 222 5 0 0 0 - - -;
#X obj 216 149 vradio 10 1 0 6 empty \$0--preset Presets 0 -6 1 8 -262081
-1 -1 5;
#X text 228 147 No vibrato;
#X text 229 179 Slight;
#X text 229 198 Crazy;
#X text 229 189 Low;
#X obj 40 321 inlet~;
#X obj 233 294 inlet;
#X obj 39 506 outlet~;
#X obj 181 135 vsl 15 80 1 15000 1 0 empty \$0-frequency Frequency
0 -8 1 9 -4033 -1 -1 5001 1;
#X floatatom 182 222 5 0 0 0 - - -;
#N canvas 0 22 879 695 FX-tremolo 0;
#X floatatom 263 321 5 0 0 0 - - -;
#X floatatom 309 464 5 0 100 0 - - -;
#X text 200 133 Depth (%) \, Frequency;
#X obj 413 316 bng 15 250 50 0 empty empty empty 0 -6 0 8 -262144 -1
-1;
#X obj 414 335 bng 15 250 50 0 empty empty empty 0 -6 0 8 -262144 -1
-1;
#X msg 379 316 5;
#X msg 381 335 10;
#X text 347 134 Tremolo Presets;
#X obj 412 269 loadbang;
#X msg 395 368 100;
#X msg 379 294 0;
#X obj 412 295 bng 15 250 50 0 empty empty empty 0 -6 0 8 -262144 -1
-1;
#X text 436 313 Slow vibrato;
#X text 441 333 Fast vibrato;
#X text 437 293 No vibrato;
#X obj 219 21 cnv 15 300 60 empty empty empty 20 12 0 14 -262081 -66577
0;
#X obj 76 565 outlet~;
#X obj 64 158 inlet~;
#X obj 199 157 inlet;
#X obj 283 153 inlet;
#X obj 466 166 inlet;
#X text 67 133 Audio;
#X obj 374 159 inlet;
#X text 458 134 OSC control;
#X obj 114 229 cnv 15 600 20 empty empty empty 20 12 0 14 -4033 -66577
0;
#X obj 123 527 cnv 15 600 20 empty empty empty 20 12 0 14 -258049 -66577
0;
#X text 278 39 Tremolo/Ring Modulation Effect;
#X text 559 304 Tremolo;
#X obj 433 416 bng 15 250 50 0 empty empty empty 0 -6 0 8 -262144 -1
-1;
#X obj 433 436 bng 15 250 50 0 empty empty empty 0 -6 0 8 -262144 -1
-1;
#X obj 433 455 bng 15 250 50 0 empty empty empty 0 -6 0 8 -262144 -1
-1;
#X msg 396 408 50;
#X msg 396 473 100;
#X text 452 416 Slight;
#X text 454 455 Crazy;
#X msg 396 429 440;
#X text 455 435 Low;
#X msg 395 450 100;
#X text 550 453 Ring Mod;
#X text 482 270 Bank of Presets:;
#X obj 158 157 inlet;
#X text 164 132 gain;
#X obj 76 466 *~ 0.9;
#X obj 550 383 route 0 1 2 3 4 5;
#X obj 550 364 hradio 15 1 0 8 empty empty empty 0 -6 0 8 -262144 -1
-1 5;
#X obj 466 191 OSCroute /bypass /gain /depth /frequency /preset;
#X obj 76 333 bypass;
#X obj 115 157 inlet;
#X text 114 132 bypass;
#X obj 123 192 tgl 15 0 empty empty empty 0 -6 0 8 -262144 -1 -1 0
1;
#X floatatom 160 196 5 0 0 0 - - -;
#X floatatom 671 213 5 0 0 0 - - -;
#X floatatom 724 214 5 0 0 0 - - -;
#X floatatom 603 212 5 0 0 0 - - -;
#X floatatom 536 213 5 0 0 0 - - -;
#X floatatom 482 210 5 0 0 0 - - -;
#X obj 472 252 s \$0-bypass;
#X obj 561 252 s \$0-gain;
#X obj 631 254 s \$0-depth;
#X obj 665 278 s \$0-frequency;
#X obj 732 303 s \$0-preset;
#N canvas 0 22 458 308 effect-trem 0;
#X obj 315 76 osc~;
#X obj 315 11 inlet;
#X obj 75 15 inlet~;
#X obj 140 250 outlet~;
#X obj 224 11 inlet;
#X obj 253 80 / 100;
#X obj 26 161 *~;
#X obj 268 120 *~;
#X obj 269 168 *~;
#X obj 99 77 * -1;
#X obj 85 106 + 100;
#X obj 83 133 / 100;
#X obj 139 217 +~;
#X connect 0 0 7 1;
#X connect 1 0 0 0;
#X connect 2 0 6 0;
#X connect 2 0 8 0;
#X connect 4 0 5 0;
#X connect 4 0 9 0;
#X connect 5 0 7 0;
#X connect 6 0 12 0;
#X connect 7 0 8 1;
#X connect 8 0 12 1;
#X connect 9 0 10 0;
#X connect 10 0 11 0;
#X connect 11 0 6 1;
#X connect 12 0 3 0;
#X restore 76 415 pd effect-trem;
#X obj 306 497 s \$0-depth;
#X obj 264 344 s \$0-frequency;
#X connect 0 0 63 0;
#X connect 1 0 62 0;
#X connect 3 0 5 0;
#X connect 3 0 9 0;
#X connect 4 0 6 0;
#X connect 4 0 9 0;
#X connect 5 0 0 0;
#X connect 6 0 0 0;
#X connect 8 0 11 0;
#X connect 9 0 1 0;
#X connect 10 0 0 0;
#X connect 11 0 10 0;
#X connect 17 0 46 0;
#X connect 18 0 61 1;
#X connect 19 0 61 2;
#X connect 20 0 45 0;
#X connect 22 0 44 0;
#X connect 28 0 35 0;
#X connect 28 0 31 0;
#X connect 29 0 37 0;
#X connect 29 0 32 0;
#X connect 30 0 35 0;
#X connect 30 0 32 0;
#X connect 31 0 1 0;
#X connect 32 0 1 0;
#X connect 35 0 0 0;
#X connect 37 0 0 0;
#X connect 40 0 42 1;
#X connect 40 0 50 0;
#X connect 42 0 16 0;
#X connect 43 0 11 0;
#X connect 43 1 3 0;
#X connect 43 2 4 0;
#X connect 43 3 28 0;
#X connect 43 4 29 0;
#X connect 43 5 30 0;
#X connect 44 0 43 0;
#X connect 45 0 55 0;
#X connect 45 0 56 0;
#X connect 45 1 54 0;
#X connect 45 1 57 0;
#X connect 45 2 53 0;
#X connect 45 2 58 0;
#X connect 45 3 51 0;
#X connect 45 3 59 0;
#X connect 45 4 44 0;
#X connect 45 4 52 0;
#X connect 45 4 60 0;
#X connect 46 0 61 0;
#X connect 46 1 16 0;
#X connect 47 0 46 1;
#X connect 47 0 49 0;
#X connect 61 0 42 0;
#X restore 39 475 pd FX-tremolo;
#X text 228 158 Slow vib;
#X text 228 168 Fast vib;
#X connect 2 0 3 0;
#X connect 2 0 17 2;
#X connect 4 0 17 1;
#X connect 5 0 6 0;
#X connect 5 0 17 3;
#X connect 7 0 17 5;
#X connect 12 0 17 0;
#X connect 13 0 17 6;
#X connect 15 0 16 0;
#X connect 15 0 17 4;
#X connect 17 0 14 0;
#X coords 0 -1 1 1 202 142 1 100 100;
