#N canvas 288 196 540 354 10;
#X obj 104 310 outlet~;
#X msg 441 188 1.61803;
#X obj 221 27 inlet;
#X obj 441 212 pow 1;
#X obj 441 165 t b f;
#X obj 43 309 outlet~;
#X obj 464 53 inlet;
#X obj 221 52 sel 0 4 8 12 16 20 24 28;
#X obj 338 148 + 3;
#X obj 338 108 random 5;
#X obj 44 133 spigot~;
#X obj 109 135 spigot~;
#X obj 44 105 inlet~;
#X obj 110 108 inlet~;
#N canvas 456 420 447 262 gutties 1;
#X obj 241 122 *~ 0.9;
#X obj 78 122 *~ 0.9;
#X obj 35 182 *~ 0.5;
#X obj 126 184 *~ 0.5;
#X obj 32 89 delwrite~ \$0-elevate 1000;
#X obj 225 88 delwrite~ \$0-trashed 1000;
#X obj 221 152 delread~ \$0-trashed 1000;
#X obj 294 28 inlet;
#X obj 350 27 inlet;
#X obj 350 55 switch~;
#X obj 31 30 inlet~;
#X obj 225 28 inlet~;
#X obj 31 213 outlet~;
#X obj 121 217 outlet~;
#X obj 32 149 delread~ \$0-elevate 1000;
#X connect 0 0 5 0;
#X connect 1 0 4 0;
#X connect 2 0 12 0;
#X connect 3 0 13 0;
#X connect 6 0 0 0;
#X connect 6 0 3 0;
#X connect 7 0 6 0;
#X connect 7 0 14 0;
#X connect 8 0 9 0;
#X connect 10 0 4 0;
#X connect 11 0 5 0;
#X connect 14 0 1 0;
#X connect 14 0 2 0;
#X restore 151 201 pd gutties;
#X floatatom 441 238 5 0 0 0 - - -;
#X floatatom 440 125 5 0 0 0 - - -;
#X connect 1 0 3 0;
#X connect 2 0 7 0;
#X connect 2 0 16 0;
#X connect 3 0 14 2;
#X connect 3 0 15 0;
#X connect 4 0 1 0;
#X connect 4 1 3 1;
#X connect 6 0 11 1;
#X connect 6 0 10 1;
#X connect 6 0 14 3;
#X connect 7 0 9 0;
#X connect 7 1 9 0;
#X connect 7 2 9 0;
#X connect 7 3 9 0;
#X connect 7 4 9 0;
#X connect 7 5 9 0;
#X connect 7 6 9 0;
#X connect 7 7 9 0;
#X connect 8 0 4 0;
#X connect 9 0 8 0;
#X connect 10 0 5 0;
#X connect 10 1 14 0;
#X connect 11 0 0 0;
#X connect 11 1 14 1;
#X connect 12 0 10 0;
#X connect 13 0 11 0;
#X connect 14 0 5 0;
#X connect 14 1 0 0;
