#N canvas 305 31 844 555 10;
#X obj 1 1 cnv 5 198 138 empty empty Harmonizer 5 5 1 14 -233017 -66577
0;
#X obj 3 31 vsl 15 80 0 1 0 0 empty \$0-gain Gain 0 -8 1 8 -4033 -1
-1 0 1;
#X obj 161 12 tgl 15 0 empty \$0-bypass Bypass 0 -6 0 8 -258049 -1
-1 0 1;
#X obj 39 30 vsl 15 80 -36 36 0 0 empty \$0-transpose Transpose 0 -8
1 8 -4033 -1 -1 3950 1;
#X obj 161 43 vradio 10 1 0 9 empty \$0-preset Presets -10 -6 0 8 -262081
-1 -1 0;
#X text 220 108 +1 Octave;
#X text 220 124 +2 Octaves;
#X text 220 139 -1 Octave;
#X text 224 48 Tone;
#X text 223 31 Half Tone;
#X text 222 14 Normal (without transp.);
#X text 221 63 Minor Third;
#X text 221 78 Major Third;
#X text 223 93 Fifth;
#X obj 80 30 vsl 15 80 0 255 0 0 empty \$0-window Window 0 -8 0 8 -4033
-1 -1 3098 1;
#X obj 114 31 vsl 15 80 0 3000 0 0 empty \$0-delay Delay 0 -8 0 8 -4033
-1 -1 0 1;
#X obj 22 221 inlet~;
#X obj 81 317 outlet~;
#X obj 189 224 inlet;
#X obj 3 121 nbx 3 12 -1e+37 1e+37 0 0 empty empty empty 0 -6 0 10
-261338 -1 -1 0 256;
#X obj 40 121 nbx 3 12 -1e+37 1e+37 0 0 empty empty empty 0 -6 0 10
-261338 -1 -1 0 256;
#X obj 77 122 nbx 3 12 -1e+37 1e+37 0 0 empty empty empty 0 -6 0 10
-261338 -1 -1 99.9987 256;
#X obj 114 123 nbx 4 12 -1e+37 1e+37 0 0 empty empty empty 0 -6 0 10
-261338 -1 -1 0 256;
#N canvas 0 118 1123 686 FX-harmonizer 1;
#X floatatom 245 359 5 0 0 0 - - -;
#X floatatom 267 434 5 0 0 0 - - -;
#X floatatom 333 494 5 0 0 0 - - -;
#X text 202 92 transpose window delay;
#X obj 482 495 loadbang;
#X msg 534 530 0;
#X msg 485 528 100;
#X obj 471 211 bng 15 250 50 0 empty empty empty 0 -6 0 8 -258699 -1
-1;
#X obj 473 401 bng 15 250 50 0 empty empty empty 0 -6 0 8 -258699 -1
-1;
#X obj 472 436 bng 15 250 50 0 empty empty empty 0 -6 0 8 -258699 -1
-1;
#X text 494 399 +1 Octave;
#X text 492 437 +2 Octaves;
#X obj 472 469 bng 15 250 50 0 empty empty empty 0 -6 0 8 -258699 -1
-1;
#X text 497 466 -1 Octave;
#X msg 425 403 120;
#X msg 425 279 0;
#X text 382 185 Harmonizer Presets;
#X msg 377 216 0;
#X msg 380 396 12;
#X msg 378 429 24;
#X msg 380 453 -12;
#X obj 471 372 bng 15 250 50 0 empty empty empty 0 -6 0 8 -258699 -1
-1;
#X obj 471 270 bng 15 250 50 0 empty empty empty 0 -6 0 8 -258699 -1
-1;
#X text 500 269 Tone;
#X obj 471 241 bng 15 250 50 0 empty empty empty 0 -6 0 8 -258699 -1
-1;
#X text 498 238 Half Tone;
#X text 494 209 Normal (without transp.);
#X msg 376 237 1;
#X msg 379 266 2;
#X msg 379 369 7;
#X obj 471 336 bng 15 250 50 0 empty empty empty 0 -6 0 8 -258699 -1
-1;
#X obj 470 305 bng 15 250 50 0 empty empty empty 0 -6 0 8 -258699 -1
-1;
#X text 497 304 Minor Third;
#X text 499 334 Major Third;
#X msg 379 299 3;
#X msg 379 330 4;
#X text 503 373 Fifth;
#X obj 156 8 cnv 15 300 40 empty empty empty 20 12 0 14 -262081 -66577
0;
#X text 250 20 Harmonizer;
#X obj 35 120 inlet~;
#X obj 36 594 outlet~;
#X obj 215 117 inlet;
#X obj 268 116 inlet;
#X obj 321 115 inlet;
#X text 36 98 Audio;
#X obj 373 116 inlet;
#X text 368 90 Preset;
#X text 417 71 OSC Control;
#X obj 76 152 cnv 15 650 25 empty empty empty 20 12 0 14 -4033 -66577
0;
#X obj 73 560 cnv 15 650 25 empty empty empty 20 12 0 14 -4033 -66577
0;
#X obj 424 91 inlet;
#X obj 638 273 vradio 15 1 0 9 empty empty empty 0 -6 0 8 -262144 -1
-1 0;
#X obj 611 429 route 0 1 2 3 4 5 6 7 8;
#X obj 36 275 bypass;
#X obj 93 120 inlet;
#X text 92 95 bypass;
#X obj 101 155 tgl 15 0 empty empty empty 0 -6 0 8 -262144 -1 -1 0
1;
#X obj 142 120 inlet;
#X text 148 95 gain;
#X floatatom 144 159 5 0 0 0 - - -;
#X obj 35 496 *~ 0.9;
#X obj 423 116 OSCroute /bypass /gain /transpose /window /delay /preset
;
#X obj 639 236 s \$0-bypass;
#X obj 724 237 s \$0-gain;
#X obj 793 238 s \$0-transpose;
#X obj 983 240 s \$0-delay;
#X obj 956 281 s \$0-preset;
#X obj 245 384 s \$0-transpose;
#X obj 901 240 s \$0-window;
#X obj 267 458 s \$0-window;
#X obj 332 515 s \$0-delay;
#N canvas 0 22 703 611 harmonizer 0;
#X obj 50 462 hip~ 5;
#X obj 109 340 *~;
#X obj 198 277 line~;
#X obj 210 241 pack 0 200;
#X obj 284 142 moses 1;
#X msg 239 142 1;
#X obj 50 144 exp;
#X obj 50 249 /;
#X obj 166 186 * 0.001;
#X obj 368 344 line~;
#X obj 369 318 pack 0 200;
#X obj 109 364 +~;
#X msg 369 294 1;
#X obj 369 270 moses 1.5;
#X obj 50 387 cos~;
#X obj 50 411 *~;
#X obj 50 438 +~;
#X obj 129 302 wrap~;
#X obj 252 340 *~;
#X obj 252 370 +~;
#X obj 195 395 cos~;
#X obj 195 419 *~;
#X obj 166 210 t b f;
#X floatatom 50 273 0 0 0 0 - - -;
#X obj 50 298 phasor~ 0;
#X obj 129 278 +~ 0.5;
#X obj 50 339 -~ 0.5;
#X obj 50 363 *~ 0.5;
#X obj 195 339 -~ 0.5;
#X obj 195 369 *~ 0.5;
#X floatatom 239 166 0 0 0 0 - - -;
#X obj 50 192 - 1;
#X obj 50 120 * 0.05776;
#X obj 50 216 * -1;
#X text 91 78 <-- transposition;
#X text 120 94 (halftones);
#X text 116 163 speed;
#X text 115 176 change;
#X text 309 114 <--window (msec);
#X text 82 243 tape head;
#X text 83 255 rotation speed;
#X obj -11 21 inlet~;
#X obj 50 483 outlet~;
#X obj 50 79 inlet;
#X obj 264 117 inlet;
#X obj 367 239 inlet;
#X text 410 237 <--delay (msec);
#X text 106 -14 HARMONIZER;
#X obj -10 47 delwrite~ \$0-del 2000;
#X obj 109 387 vd~ \$0-del;
#X obj 252 397 vd~ \$0-del;
#X connect 0 0 42 0;
#X connect 1 0 11 0;
#X connect 2 0 1 1;
#X connect 2 0 18 1;
#X connect 3 0 2 0;
#X connect 4 0 5 0;
#X connect 4 1 30 0;
#X connect 5 0 30 0;
#X connect 6 0 31 0;
#X connect 7 0 23 0;
#X connect 8 0 22 0;
#X connect 9 0 11 1;
#X connect 9 0 19 1;
#X connect 10 0 9 0;
#X connect 11 0 49 0;
#X connect 12 0 10 0;
#X connect 13 0 12 0;
#X connect 13 1 10 0;
#X connect 14 0 15 0;
#X connect 15 0 16 0;
#X connect 16 0 0 0;
#X connect 17 0 18 0;
#X connect 17 0 28 0;
#X connect 18 0 19 0;
#X connect 19 0 50 0;
#X connect 20 0 21 0;
#X connect 21 0 16 1;
#X connect 22 0 7 0;
#X connect 22 1 7 1;
#X connect 23 0 24 0;
#X connect 24 0 1 0;
#X connect 24 0 26 0;
#X connect 24 0 25 0;
#X connect 25 0 17 0;
#X connect 26 0 27 0;
#X connect 27 0 14 0;
#X connect 28 0 29 0;
#X connect 29 0 20 0;
#X connect 30 0 3 0;
#X connect 30 0 8 0;
#X connect 31 0 33 0;
#X connect 32 0 6 0;
#X connect 33 0 7 0;
#X connect 41 0 48 0;
#X connect 43 0 32 0;
#X connect 44 0 4 0;
#X connect 45 0 13 0;
#X connect 49 0 15 1;
#X connect 50 0 21 1;
#X restore 39 404 pd harmonizer;
#X connect 0 0 67 0;
#X connect 1 0 69 0;
#X connect 2 0 70 0;
#X connect 4 0 5 0;
#X connect 4 0 6 0;
#X connect 5 0 0 0;
#X connect 5 0 2 0;
#X connect 6 0 1 0;
#X connect 7 0 14 0;
#X connect 7 0 15 0;
#X connect 7 0 17 0;
#X connect 8 0 14 0;
#X connect 8 0 15 0;
#X connect 8 0 18 0;
#X connect 9 0 14 0;
#X connect 9 0 15 0;
#X connect 9 0 19 0;
#X connect 12 0 14 0;
#X connect 12 0 15 0;
#X connect 12 0 20 0;
#X connect 14 0 1 0;
#X connect 15 0 2 0;
#X connect 17 0 0 0;
#X connect 18 0 0 0;
#X connect 19 0 0 0;
#X connect 20 0 0 0;
#X connect 21 0 29 0;
#X connect 21 0 15 0;
#X connect 21 0 14 0;
#X connect 22 0 28 0;
#X connect 22 0 15 0;
#X connect 22 0 14 0;
#X connect 24 0 27 0;
#X connect 24 0 15 0;
#X connect 24 0 14 0;
#X connect 27 0 0 0;
#X connect 28 0 0 0;
#X connect 29 0 0 0;
#X connect 30 0 35 0;
#X connect 30 0 15 0;
#X connect 30 0 14 0;
#X connect 31 0 34 0;
#X connect 31 0 15 0;
#X connect 31 0 14 0;
#X connect 34 0 0 0;
#X connect 35 0 0 0;
#X connect 39 0 53 0;
#X connect 41 0 71 1;
#X connect 42 0 71 2;
#X connect 43 0 71 3;
#X connect 45 0 51 0;
#X connect 50 0 61 0;
#X connect 51 0 52 0;
#X connect 52 0 7 0;
#X connect 52 1 24 0;
#X connect 52 2 22 0;
#X connect 52 3 31 0;
#X connect 52 4 30 0;
#X connect 52 5 21 0;
#X connect 52 6 8 0;
#X connect 52 7 9 0;
#X connect 52 8 12 0;
#X connect 53 0 71 0;
#X connect 53 1 40 0;
#X connect 54 0 56 0;
#X connect 54 0 53 1;
#X connect 57 0 59 0;
#X connect 57 0 60 1;
#X connect 60 0 40 0;
#X connect 61 0 53 1;
#X connect 61 0 62 0;
#X connect 61 1 60 1;
#X connect 61 1 63 0;
#X connect 61 2 0 0;
#X connect 61 2 64 0;
#X connect 61 3 1 0;
#X connect 61 3 68 0;
#X connect 61 4 2 0;
#X connect 61 4 65 0;
#X connect 61 5 51 0;
#X connect 61 5 66 0;
#X connect 71 0 60 0;
#X restore 81 273 pd FX-harmonizer;
#X text 172 50 1/2;
#X text 176 71 3m;
#X text 173 61 1;
#X text 176 82 3M;
#X text 175 91 5;
#X text 173 101 +12;
#X text 173 112 +24;
#X text 173 122 -12;
#X connect 1 0 19 0;
#X connect 1 0 23 2;
#X connect 2 0 23 1;
#X connect 3 0 20 0;
#X connect 3 0 23 3;
#X connect 4 0 23 6;
#X connect 14 0 21 0;
#X connect 14 0 23 4;
#X connect 15 0 22 0;
#X connect 15 0 23 5;
#X connect 16 0 23 0;
#X connect 18 0 23 7;
#X connect 23 0 17 0;
#X coords 0 0 1 1 200 140 1 0 0;
