#N canvas 340 43 1083 774 10;
#X obj 671 6 slg.iqr2PD;
#X obj 32 8 r laser1;
#X obj 92 8 r laser2;
#X obj 151 9 r laser3;
#X obj 207 9 r laser4;
#X obj 265 10 r laser5;
#X obj 323 10 r laser6;
#X obj 379 10 r laser7;
#X obj 436 10 r laser8;
#X obj 491 10 r \$0-in9-r;
#X obj 316 62 r red;
#X obj 356 61 r motionsum;
#X floatatom 32 32 5 0 0 0 - - -;
#X floatatom 93 30 5 0 0 0 - - -;
#X floatatom 151 34 5 0 0 0 - - -;
#X floatatom 206 32 5 0 0 0 - - -;
#X floatatom 265 32 5 0 0 0 - - -;
#X floatatom 323 34 5 0 0 0 - - -;
#X floatatom 379 34 5 0 0 0 - - -;
#X floatatom 436 34 5 0 0 0 - - -;
#X floatatom 316 85 5 0 0 0 - - -;
#X floatatom 356 84 5 0 0 0 - - -;
#X obj 33 66 slg.wind~;
#X obj 32 150 slg.spectralsynth20~;
#X obj 33 271 slg.substractive~;
#X obj 619 467 slg.loadsample~;
#X obj 677 87 ezdac~;
#X obj 672 29 catch~ out;
#X obj 379 540 slg.fm~;
#X obj 587 708 slg.pianoroll;
#X obj 616 163 slg.sampler8~;
#X obj 737 556 slg.distortion~;
#X obj 31 664 slg.DLSPlayer;
#X obj 832 5 slg.DAFXreverb~;
#X obj 616 399 throw~ out;
#X obj 31 535 slg.randnotepick;
#X obj 31 419 slg.miniseq;
#N canvas 529 51 403 320 motion-to-tempo 0;
#X obj 20 40 maxlib/average 20;
#X floatatom 24 64 5 0 0 0 - - -;
#X obj 21 100 delta;
#X obj 21 123 abs;
#X obj 20 15 r motionsum;
#X obj 21 196 s motion2tempo;
#X floatatom 39 158 5 0 0 0 - - -;
#X obj 77 95 maxlib/scale 10 500 20 200;
#X floatatom 175 151 5 0 0 0 - - -;
#X connect 0 0 1 0;
#X connect 0 0 2 0;
#X connect 0 0 7 0;
#X connect 2 0 3 0;
#X connect 3 0 6 0;
#X connect 4 0 0 0;
#X connect 7 0 5 0;
#X connect 7 0 8 0;
#X restore 883 508 pd motion-to-tempo;
#X obj 197 387 r motion2tempo;
#N canvas 5 397 581 294 laser2heartvolume 0;
#X obj 133 40 r laser1;
#X obj 193 40 r laser2;
#X obj 252 41 r laser3;
#X obj 308 41 r laser4;
#X obj 366 42 r laser5;
#X obj 424 42 r laser6;
#X floatatom 133 64 5 0 0 0 - - -;
#X floatatom 194 62 5 0 0 0 - - -;
#X floatatom 252 66 5 0 0 0 - - -;
#X floatatom 307 64 5 0 0 0 - - -;
#X floatatom 366 64 5 0 0 0 - - -;
#X floatatom 424 66 5 0 0 0 - - -;
#X obj 151 159 sum;
#X floatatom 151 231 5 0 0 0 - - -;
#X obj 151 138 pack f f f f f f;
#X obj 151 181 / 6;
#X obj 212 227 s heartvolume;
#X obj 212 205 maxlib/scale 0 1 0.1 1;
#X connect 0 0 6 0;
#X connect 0 0 14 0;
#X connect 1 0 7 0;
#X connect 1 0 14 1;
#X connect 2 0 8 0;
#X connect 2 0 14 2;
#X connect 3 0 9 0;
#X connect 3 0 14 3;
#X connect 4 0 10 0;
#X connect 4 0 14 4;
#X connect 5 0 11 0;
#X connect 5 0 14 5;
#X connect 12 0 15 0;
#X connect 14 0 12 0;
#X connect 15 0 13 0;
#X connect 15 0 17 0;
#X connect 17 0 16 0;
#X restore 883 529 pd laser2heartvolume;
#X obj 714 406 r heartvolume;
#X obj 618 550 throw~ out;
#X obj 32 642 + 0;
#X obj 31 393 throw~ out;
#X obj 528 106 r spectralsynthroute;
#X obj 32 259 throw~ out;
#N canvas 45 463 470 320 motion-to-transpose 0;
#X obj 145 124 maxlib/average 20;
#X obj 145 154 maxlib/scale 0 800 0 48;
#X obj 145 203 s spectralsynthroute;
#X obj 145 94 r motionsum;
#X msg 145 178 /transpose \$1;
#X floatatom 270 111 5 0 0 0 - - -;
#X obj 323 225 prepend set;
#X msg 328 258 /transpose 0;
#X connect 0 0 1 0;
#X connect 1 0 4 0;
#X connect 3 0 0 0;
#X connect 3 0 5 0;
#X connect 4 0 2 0;
#X connect 4 0 6 0;
#X connect 6 0 7 0;
#X restore 884 570 pd motion-to-transpose;
#X obj 600 427 loadbang;
#N canvas 675 22 429 256 red-to-spectrum 0;
#X obj 288 130 tgl 15 0 empty empty empty 0 -6 0 10 -262144 -1 -1 1
1;
#X obj 43 76 maxlib/average 20;
#X obj 43 98 > 100;
#X obj 244 110 < 100;
#X obj 244 131 sel 1;
#X obj 43 122 sel 1;
#X obj 42 178 s spectralsynthroute;
#X obj 244 182 s spectralsynthroute;
#X msg 244 156 /spectrumtable 0;
#X msg 43 145 /spectrumtable 1;
#X obj 43 50 r red;
#X connect 1 0 2 0;
#X connect 1 0 3 0;
#X connect 2 0 5 0;
#X connect 3 0 0 0;
#X connect 3 0 4 0;
#X connect 4 0 8 0;
#X connect 5 0 9 0;
#X connect 8 0 7 0;
#X connect 9 0 6 0;
#X connect 10 0 1 0;
#X restore 883 550 pd red-to-spectrum;
#X obj 474 502 line;
#X obj 378 504 unpack f f f f;
#X msg 476 456 2;
#X msg 509 458 0;
#X obj 378 457 loadbang;
#N canvas 0 22 435 275 laser-to-harmonicity 0;
#X obj 49 28 r laser1;
#X obj 109 28 r laser2;
#X obj 168 29 r laser3;
#X obj 224 29 r laser4;
#X obj 282 30 r laser5;
#X obj 340 30 r laser6;
#X floatatom 49 52 5 0 0 0 - - -;
#X floatatom 110 50 5 0 0 0 - - -;
#X floatatom 168 54 5 0 0 0 - - -;
#X floatatom 223 52 5 0 0 0 - - -;
#X floatatom 282 52 5 0 0 0 - - -;
#X floatatom 340 54 5 0 0 0 - - -;
#X obj 67 147 sum;
#X obj 67 126 pack f f f f f f;
#X obj 67 169 / 6;
#X obj 67 196 > 0.8;
#X obj 67 223 send fm-harmo;
#X connect 0 0 6 0;
#X connect 0 0 13 0;
#X connect 1 0 7 0;
#X connect 1 0 13 1;
#X connect 2 0 8 0;
#X connect 2 0 13 2;
#X connect 3 0 9 0;
#X connect 3 0 13 3;
#X connect 4 0 10 0;
#X connect 4 0 13 4;
#X connect 5 0 11 0;
#X connect 5 0 13 5;
#X connect 12 0 14 0;
#X connect 13 0 12 0;
#X connect 14 0 15 0;
#X connect 15 0 16 0;
#X restore 884 593 pd laser-to-harmonicity;
#X obj 477 406 r fm-harmo;
#X obj 477 432 sel 1 0;
#X obj 379 573 throw~ out;
#X obj 476 480 pack f 1000;
#X obj 409 640 slg.loadsample~;
#X obj 294 399 loadbang;
#X msg 293 419 1;
#X obj 411 728 throw~ out;
#X obj 412 705 *~ 10;
#N canvas 616 172 291 180 motion-to-wind 0;
#X obj 52 40 maxlib/average 20;
#X obj 52 15 r motionsum;
#X obj 52 99 s motion2wind;
#X obj 52 68 maxlib/scale 10 500 60 110;
#X connect 0 0 3 0;
#X connect 1 0 0 0;
#X connect 3 0 2 0;
#X restore 883 484 pd motion-to-wind;
#X obj 33 128 throw~ out;
#X obj 201 59 r motion2wind;
#X obj 201 694 slg.DLSPlayer;
#X obj 202 556 slg.randnotepick;
#X obj 202 440 slg.miniseq;
#X obj 201 660 - 24;
#X msg 378 478 150 0.3 1.31 0;
#X obj 619 528 *~ 15;
#X msg 666 428 /Users/Shared/Musebot/apps/autodemo/data/wav/tests/irregular_heartbeat.wav
;
#X msg 456 616 /Users/Shared/Musebot/apps/autodemo/data/wav/tests/boing.wav
;
#X connect 1 0 12 0;
#X connect 2 0 13 0;
#X connect 3 0 14 0;
#X connect 4 0 15 0;
#X connect 5 0 16 0;
#X connect 6 0 17 0;
#X connect 7 0 18 0;
#X connect 8 0 19 0;
#X connect 10 0 20 0;
#X connect 11 0 21 0;
#X connect 22 0 65 0;
#X connect 23 0 45 0;
#X connect 24 0 43 0;
#X connect 25 0 72 0;
#X connect 27 0 33 0;
#X connect 28 0 57 0;
#X connect 30 0 34 0;
#X connect 33 0 26 0;
#X connect 33 0 26 1;
#X connect 35 0 42 0;
#X connect 36 0 35 0;
#X connect 38 0 36 0;
#X connect 38 0 69 0;
#X connect 40 0 25 2;
#X connect 42 0 32 0;
#X connect 44 0 23 4;
#X connect 47 0 73 0;
#X connect 47 0 25 0;
#X connect 47 0 74 0;
#X connect 49 0 28 3;
#X connect 50 0 28 0;
#X connect 50 1 28 1;
#X connect 50 2 28 2;
#X connect 50 3 28 2;
#X connect 51 0 58 0;
#X connect 52 0 58 0;
#X connect 53 0 71 0;
#X connect 55 0 56 0;
#X connect 56 0 51 0;
#X connect 56 1 52 0;
#X connect 58 0 49 0;
#X connect 59 0 63 0;
#X connect 60 0 61 0;
#X connect 61 0 36 3;
#X connect 63 0 62 0;
#X connect 66 0 22 2;
#X connect 68 0 70 0;
#X connect 69 0 68 0;
#X connect 70 0 67 0;
#X connect 71 0 50 0;
#X connect 72 0 41 0;
#X connect 73 0 25 1;
#X connect 74 0 59 1;
