#N canvas 194 33 967 827 10;
#X obj 809 618 slg.audioonoff;
#X obj 809 685 slg.cpu;
#X obj 48 623 slg.master2~;
#X text 62 750 Master;
#X obj 347 627 slg.2-M~;
#X text 361 754 Textures;
#X obj 252 605 catch~ rhythmL;
#X obj 252 605 catch~ rhythmR;
#X obj 162 605 catch~ musicL;
#X obj 162 605 catch~ musicR;
#X obj 347 607 catch~ textureL;
#X obj 347 607 catch~ textureR;
#X obj 49 592 comment 103 20 Times ? 0 255 128 0 Mix;
#X text 459 753 Voice Over;
#X obj 449 606 catch~ voiceR;
#X obj 449 606 catch~ voiceL;
#X obj 549 605 catch~ sfxL;
#X obj 549 605 catch~ sfxR;
#X text 639 753 Sound Track;
#X obj 632 604 catch~ trackR;
#X obj 632 604 catch~ trackL;
#X obj 726 600 catch~ loopsL;
#X obj 726 600 catch~ loopsR;
#X text 747 750 Loops;
#X obj 162 627 slg.2-M~;
#X obj 252 626 slg.2-M~;
#X obj 449 627 slg.2-M~;
#X obj 549 627 slg.2-M~;
#X obj 632 627 slg.2-M~;
#X obj 726 619 slg.2-M~;
#X obj 773 323 slg.iqr2PD;
#N canvas 0 22 286 102 (c) 0;
#X obj 8 66 print using;
#X obj 8 6 loadbang;
#X msg 8 31 slg.autodemo1107 (c) 2007 Sylvain Le Groux <slegroux@iua.upf.edu>
;
#X connect 1 0 2 0;
#X connect 2 0 0 0;
#X restore 678 5 pd (c);
#X text 723 4 (c) 2008 Sylvain Le Groux;
#X obj 249 70 comment 196 20 Times ? 0 255 128 0 Pitch;
#X obj 372 71 comment 196 20 Times ? 0 255 128 0 Rhythm;
#N canvas 0 22 474 324 scales 0;
#X msg 55 9 0 2 4 5 7 9 11;
#X text 166 10 major;
#X msg 73 36 0 1 4 5 7 8 11;
#X msg 87 64 0 2 4 6 7 9 10;
#X msg 110 95 0 2 3 5 7 8 11;
#X msg 138 145 0 2 4 6 8 10;
#X msg 151 170 0 2 3 5 6 8 9 11;
#X text 188 37 middle-east-like minor;
#X text 201 66 lydian-dominant (jazzy);
#X text 229 96 harmonic minor;
#X msg 126 123 0 2 3 4 5 6 7 9 10 11;
#X text 276 123 chromatic blues;
#X text 246 149 whole-tones scale;
#X text 274 171 diminished scale;
#X msg 168 195 0 2 4 7 9;
#X text 250 198 pentatonic;
#X text 277 221 pentatonic blues;
#X msg 173 222 0 2 3 4 7 8 9;
#X restore 249 125 pd scales;
#N canvas 160 173 1190 706 pitch-material 0;
#X obj -10 64 slg.randnotepick;
#X obj 7 179 slg.scalize;
#X obj 187 149 musical.arpeggio 0 4 7 11;
#X obj 187 170 + 36;
#X obj 187 127 count.up&down 0 25;
#X obj 234 589 s trisynth-note;
#X obj 188 250 pack f f;
#X msg 233 229 120;
#X obj 188 208 t f b;
#X obj 234 566 pack f f;
#X obj 234 497 t f b;
#X msg 280 518 127;
#X obj 445 521 s hollowstring-note;
#X msg 445 496 60;
#X msg 477 496 80;
#X obj 708 358 slg.randnotepick;
#X obj 708 480 slg.scalize;
#X msg 770 123 50 52 66 69 76 79 83 86;
#X msg 735 144 50 48 64 67 76 79 81 86;
#X msg 709 165 52 48 64 67 76 79 81 83;
#X text -12 18 PITCH;
#X text 656 35 HARMONY;
#X obj 707 315 s padsynth-chords;
#X msg 334 114 0 4 7 11;
#X obj 918 409 s bass-chords;
#X obj 508 337 s sawswoop-chords;
#X obj 605 39 r beat;
#X floatatom 669 56 5 0 0 0 - - -;
#X obj 605 61 mod 12;
#X obj 607 126 sel 0 1 2;
#X obj 605 106 random 2;
#X obj 774 86 prepend set;
#X msg 738 107 7;
#X obj 605 84 sel 0;
#X obj 186 53 r beat;
#X msg 400 114 0 4 7 11 14;
#X obj 740 241 tgl 15 0 empty empty empty 0 -6 0 10 -262144 -1 -1 0
1;
#X obj 707 266 spigot;
#X msg 964 331 0 0 0 0 0 0 0 0 0;
#X obj -10 41 r prob;
#X obj -10 281 musical.closest.note 0 4 7 11;
#X obj 188 274 spigot;
#X obj 274 259 tgl 15 0 empty empty empty 0 -6 0 10 -262144 -1 -1 0
1;
#X obj -10 304 - 12;
#X obj -10 370 spigot;
#X floatatom 327 521 5 0 0 0 - - -;
#X obj 234 540 makenote 127 500;
#X obj 258 173 r transpose;
#X obj 189 189 + 0;
#X obj 22 321 r transpose;
#X obj -10 346 + 0;
#X obj 281 50 s transpose;
#X floatatom 211 8 5 0 0 0 - - -;
#X obj 999 358 r transpose;
#X obj 918 386 list-apply + 0;
#X obj 788 232 r transpose;
#X obj 707 289 list-apply + 0;
#X obj 706 189 s accords;
#X obj 707 222 r accords;
#X msg 372 6 4;
#X msg 255 6 0;
#X msg 403 6 5;
#X msg 344 6 3;
#X msg 284 6 1;
#X msg 314 6 2;
#X msg 918 247 50 52;
#X obj 918 206 r accords;
#X obj 918 229 bng 15 250 50 0 empty empty empty 0 -6 0 10 -262144
-1 -1;
#X msg 439 6 6;
#X msg 469 6 7;
#X msg 499 6 8;
#X msg 527 6 9;
#X msg 558 5 10;
#X msg 591 5 11;
#X msg 622 4 12;
#X obj 964 274 tgl 15 0 empty empty empty 0 -6 0 10 -262144 -1 -1 0
1;
#X obj 918 303 spigot;
#X obj 964 302 sel 0;
#X obj 100 349 tgl 15 0 empty empty empty 0 -6 0 10 -262144 -1 -1 0
1;
#X obj 541 261 tgl 15 0 empty empty empty 0 -6 0 10 -262144 -1 -1 0
1;
#X obj 508 286 spigot;
#X obj 589 252 r transpose;
#X obj 508 309 list-apply + 0;
#X obj 508 236 r accords;
#X obj 100 324 r tribasscell-onoff;
#X obj 964 252 r basscell-onoff;
#X obj 274 232 r trimelocell-onoff;
#X obj 541 208 r sawswoop-onoff;
#X msg 25 258 12;
#X obj 234 365 slg.passpct 50;
#X obj 234 407 float;
#X obj 279 408 bng 15 250 50 0 empty empty empty 0 -6 0 10 -262144
-1 -1;
#X obj 234 339 bng 15 250 50 0 empty empty empty 0 -6 0 10 -262144
-1 -1;
#X floatatom 282 437 5 0 0 0 - - -;
#X obj 234 316 t f b;
#X obj -9 451 slg.passpct 50;
#X obj -9 493 float;
#X obj -9 425 bng 15 250 50 0 empty empty empty 0 -6 0 10 -262144 -1
-1;
#X obj -9 402 t f b;
#X obj 20 515 bng 15 250 50 0 empty empty empty 0 -6 0 10 -262144 -1
-1;
#X floatatom 319 338 5 0 0 0 - - -;
#X obj 486 168 s sawswoop-onoff;
#X obj 486 146 tgl 15 0 empty empty empty 0 -6 0 10 -262144 -1 -1 0
1;
#X obj 789 202 r padsynth-onoff;
#X obj 401 567 prepend set;
#X msg 401 590 52 127;
#X connect 0 0 1 0;
#X connect 0 0 40 0;
#X connect 2 0 3 0;
#X connect 3 0 48 0;
#X connect 4 0 2 0;
#X connect 6 0 41 0;
#X connect 7 0 6 1;
#X connect 8 0 6 0;
#X connect 8 1 7 0;
#X connect 9 0 5 0;
#X connect 9 0 104 0;
#X connect 10 0 46 0;
#X connect 10 1 11 0;
#X connect 11 0 46 1;
#X connect 13 0 12 0;
#X connect 14 0 12 0;
#X connect 15 0 16 0;
#X connect 17 0 57 0;
#X connect 18 0 57 0;
#X connect 19 0 57 0;
#X connect 23 0 2 1;
#X connect 26 0 27 0;
#X connect 26 0 28 0;
#X connect 28 0 31 0;
#X connect 28 0 33 0;
#X connect 29 0 19 0;
#X connect 29 1 18 0;
#X connect 29 2 17 0;
#X connect 30 0 29 0;
#X connect 31 0 32 0;
#X connect 33 0 30 0;
#X connect 34 0 4 0;
#X connect 35 0 2 1;
#X connect 36 0 37 1;
#X connect 37 0 56 0;
#X connect 38 0 54 0;
#X connect 39 0 0 0;
#X connect 40 0 43 0;
#X connect 41 0 94 0;
#X connect 42 0 41 1;
#X connect 43 0 50 0;
#X connect 44 0 98 0;
#X connect 45 0 46 2;
#X connect 46 0 9 0;
#X connect 46 1 9 1;
#X connect 47 0 48 1;
#X connect 48 0 8 0;
#X connect 49 0 50 1;
#X connect 50 0 44 0;
#X connect 52 0 51 0;
#X connect 53 0 54 2;
#X connect 54 0 24 0;
#X connect 55 0 56 2;
#X connect 56 0 22 0;
#X connect 58 0 37 0;
#X connect 59 0 51 0;
#X connect 60 0 51 0;
#X connect 61 0 51 0;
#X connect 62 0 51 0;
#X connect 63 0 51 0;
#X connect 64 0 51 0;
#X connect 65 0 76 0;
#X connect 66 0 67 0;
#X connect 67 0 65 0;
#X connect 68 0 51 0;
#X connect 69 0 51 0;
#X connect 70 0 51 0;
#X connect 71 0 51 0;
#X connect 72 0 51 0;
#X connect 73 0 51 0;
#X connect 74 0 51 0;
#X connect 75 0 76 1;
#X connect 75 0 77 0;
#X connect 76 0 54 0;
#X connect 77 0 38 0;
#X connect 78 0 44 1;
#X connect 79 0 80 1;
#X connect 80 0 82 0;
#X connect 81 0 82 2;
#X connect 82 0 25 0;
#X connect 83 0 80 0;
#X connect 84 0 78 0;
#X connect 85 0 75 0;
#X connect 86 0 42 0;
#X connect 87 0 79 0;
#X connect 88 0 43 1;
#X connect 89 0 90 0;
#X connect 89 0 91 0;
#X connect 90 0 10 0;
#X connect 90 0 93 0;
#X connect 92 0 89 0;
#X connect 94 0 90 1;
#X connect 94 1 92 0;
#X connect 95 0 96 0;
#X connect 95 0 99 0;
#X connect 96 0 10 0;
#X connect 97 0 95 0;
#X connect 98 0 96 1;
#X connect 98 1 97 0;
#X connect 100 0 89 1;
#X connect 102 0 101 0;
#X connect 103 0 36 0;
#X connect 104 0 105 0;
#X restore 249 101 pd pitch-material;
#N canvas 17 77 1303 547 rhythmic-material 0;
#X obj 270 66 seq.8x8_;
#X obj 563 44 seq.tgl8_;
#X obj 19 38 r bpm;
#X obj 137 103 r start;
#X obj 175 135 r melorhythm;
#X obj 20 156 slg.miniseq;
#X obj 57 58 r steps;
#X obj 98 77 r stepsperbeat;
#X floatatom 21 296 5 0 0 0 - - -;
#X obj 57 294 bng 15 250 50 0 empty empty empty 0 -6 0 10 -262144 -1
-1;
#X msg 425 41 1 0 0 0 0 1 1 1 1;
#X obj 563 69 bng 15 250 50 0 empty empty empty 0 -6 0 10 -262144 -1
-1;
#X obj 563 23 r beat;
#X obj 270 26 r beat;
#X obj 270 236 prepend set;
#X msg 270 260 0 0 0 0 0 0 0 0;
#X obj 498 106 r beat;
#X obj 506 214 bng 15 250 50 0 empty empty empty 0 -6 0 10 -262144
-1 -1;
#X msg 454 145 on;
#X msg 452 170 off;
#X obj 555 174 slg.seq12;
#X msg 615 106 0 0 0 0 0 0 0 0 0 0 0 0;
#X obj 505 295 s cyberbeat;
#X msg 505 272 0;
#X obj 580 296 s cyberbeat;
#X msg 580 273 1;
#X obj 656 294 s cyberbeat;
#X msg 656 271 2;
#X obj 739 295 s cyberbeat;
#X msg 739 272 3;
#X msg 844 127 1 0 0 0 0 0 1 0 0 0 0 0;
#X msg 844 157 0 0 0 1 0 0 0 0 0 1 0 0;
#X msg 845 188 0 1 0 0 0 0 0 0 0 0 0 0;
#X msg 846 219 0 0 0 0 0 0 0 1 0 0 0 1;
#X obj 843 101 loadbang;
#X msg 206 48 0 0 0 1 0 0 0 0 0 1 0 0;
#X obj 114 307 s prob;
#X obj 433 291 s bombo;
#X obj 585 325 s cowbell;
#X msg 20 360 0.52381 0.412698 0.619048 0.460317 0.444444 0.380952
0.31746 0.587302 0.746032 0.412698 0.333333 0.222222 0.571429 0.222222
0.269841 0.31746;
#X obj 20 335 prepend set;
#X msg 16 430 0.52381 0.412698 0.619048 0.460317 0.444444 0.380952
0.31746 0.587302 0.746032 0.412698 0.333333 0.222222 0.571429 0.222222
0.269841 0.31746;
#X obj 16 407 loadbang;
#X obj 1064 137 r beat;
#X obj 1064 186 sel 0;
#X obj 1064 247 sel 4;
#X obj 1064 294 sel 0;
#X obj 1064 387 s r2d2-onoff;
#X msg 1064 324 1;
#X floatatom 1151 267 5 0 0 0 - - -;
#X obj 1064 224 cyclone/counter 0 4;
#X msg 1104 350 0;
#X obj 1064 271 random 4;
#X obj 1103 323 delay 5000;
#X obj 1064 163 spigot;
#X obj 1113 137 tgl 15 0 empty empty empty 0 -6 0 10 -262144 -1 -1
0 1;
#X obj 777 17 r beat3-onoff;
#X obj 557 144 slg.seq12;
#X obj 555 205 slg.seq12;
#X obj 555 236 slg.seq12;
#X obj 777 39 sel 0 1;
#X msg 777 62 off;
#X msg 808 63 on;
#X obj 869 36 sel 0 1;
#X msg 869 59 off;
#X msg 900 60 on;
#X obj 869 14 r beat2-onoff;
#X obj 1113 110 r scarsevent-onoff;
#X obj 573 408 r fourtrack-onoff;
#X obj 573 437 sel 0 1;
#X obj 959 36 sel 0 1;
#X msg 959 59 off;
#X msg 990 60 on;
#X obj 959 14 r beat1-onoff;
#X obj 1052 35 sel 0 1;
#X msg 1052 58 off;
#X msg 1083 59 on;
#X obj 1052 13 r beat4-onoff;
#X floatatom 1021 226 5 0 0 0 - - -;
#X connect 0 0 14 0;
#X connect 1 0 11 0;
#X connect 2 0 5 0;
#X connect 3 0 5 3;
#X connect 4 0 5 4;
#X connect 5 0 8 0;
#X connect 5 0 9 0;
#X connect 5 0 36 0;
#X connect 5 1 40 0;
#X connect 6 0 5 1;
#X connect 7 0 5 2;
#X connect 10 0 0 1;
#X connect 12 0 1 0;
#X connect 13 0 0 0;
#X connect 14 0 15 0;
#X connect 16 0 20 0;
#X connect 16 0 57 0;
#X connect 16 0 58 0;
#X connect 16 0 59 0;
#X connect 18 0 20 0;
#X connect 18 0 57 0;
#X connect 18 0 58 0;
#X connect 18 0 59 0;
#X connect 19 0 20 0;
#X connect 19 0 57 0;
#X connect 19 0 58 0;
#X connect 19 0 59 0;
#X connect 20 0 25 0;
#X connect 21 0 57 0;
#X connect 23 0 22 0;
#X connect 25 0 24 0;
#X connect 27 0 26 0;
#X connect 29 0 28 0;
#X connect 30 0 57 1;
#X connect 31 0 20 1;
#X connect 32 0 58 1;
#X connect 33 0 59 1;
#X connect 34 0 30 0;
#X connect 34 0 31 0;
#X connect 34 0 32 0;
#X connect 34 0 33 0;
#X connect 35 0 5 4;
#X connect 40 0 39 0;
#X connect 41 0 5 4;
#X connect 42 0 41 0;
#X connect 43 0 54 0;
#X connect 43 0 78 0;
#X connect 44 0 50 0;
#X connect 45 0 52 0;
#X connect 46 0 48 0;
#X connect 46 0 53 0;
#X connect 48 0 47 0;
#X connect 50 0 45 0;
#X connect 50 0 49 0;
#X connect 51 0 47 0;
#X connect 52 0 46 0;
#X connect 53 0 51 0;
#X connect 54 0 44 0;
#X connect 55 0 54 1;
#X connect 56 0 60 0;
#X connect 57 0 17 0;
#X connect 57 0 23 0;
#X connect 58 0 27 0;
#X connect 59 0 29 0;
#X connect 59 0 38 0;
#X connect 60 0 61 0;
#X connect 60 1 62 0;
#X connect 61 0 58 0;
#X connect 62 0 58 0;
#X connect 63 0 64 0;
#X connect 63 1 65 0;
#X connect 64 0 20 0;
#X connect 65 0 20 0;
#X connect 66 0 63 0;
#X connect 67 0 55 0;
#X connect 68 0 69 0;
#X connect 69 0 19 0;
#X connect 69 1 18 0;
#X connect 70 0 71 0;
#X connect 70 1 72 0;
#X connect 71 0 57 0;
#X connect 72 0 57 0;
#X connect 73 0 70 0;
#X connect 74 0 75 0;
#X connect 74 1 76 0;
#X connect 75 0 59 0;
#X connect 76 0 59 0;
#X connect 77 0 74 0;
#X restore 372 100 pd rhythmic-material;
#X obj 122 71 comment 196 20 Times ? 0 255 128 0 Roboser;
#N canvas 556 89 417 171 midivariations 0;
#X obj 21 15 slg.midiseq;
#X obj 21 96 s midisynth-note;
#X obj 123 96 s midisynth-velocity;
#X obj 250 96 s midisynth-channel;
#X connect 0 0 1 0;
#X connect 0 1 2 0;
#X connect 0 2 3 0;
#X restore 123 100 pd midivariations;
#X obj 28 69 comment 196 20 Times ? 0 255 128 0 Tempo;
#N canvas 82 466 309 302 tempo 0;
#X obj 136 173 slg.clock;
#X obj 27 114 timing.tempo_;
#X obj 27 166 s beat;
#X floatatom 32 7 5 0 0 0 - - -;
#X obj 32 26 s bpm;
#X floatatom 75 7 5 0 0 0 - - -;
#X obj 75 26 s steps;
#X obj 82 90 r bpm;
#X obj 190 92 r steps;
#X obj 174 -8 tgl 15 0 empty empty empty 0 -6 0 10 -262144 -1 -1 0
1;
#X obj 137 26 s start;
#X obj 28 90 r start;
#X obj 32 -40 loadbang;
#X msg 75 -16 16;
#X obj 137 -9 inlet;
#X msg 32 -17 60;
#X obj 214 17 r motion2tempo;
#X connect 1 0 2 0;
#X connect 3 0 4 0;
#X connect 5 0 6 0;
#X connect 7 0 1 1;
#X connect 8 0 1 3;
#X connect 9 0 10 0;
#X connect 11 0 1 0;
#X connect 12 0 15 0;
#X connect 12 0 13 0;
#X connect 13 0 5 0;
#X connect 14 0 10 0;
#X connect 15 0 3 0;
#X connect 16 0 4 0;
#X restore 32 115 pd tempo;
#X obj 32 94 tgl 15 0 empty empty empty 0 -6 0 10 -262144 -1 -1 1 1
;
#X obj 33 163 comment 196 20 Times ? 0 255 128 0 Synths;
#N canvas 748 157 669 294 sines 0;
#X obj 17 65 drunk_sines/drunk_sines;
#X obj 17 38 r sine-onoff;
#X obj 84 38 r sine-volume;
#X obj 152 38 r sine-freq;
#X obj 203 57 tgl 15 0 empty empty empty 0 -6 0 10 -262144 -1 -1 0
1;
#X floatatom 203 84 5 0 0 0 - - -;
#X obj 130 228 throw~ musicR;
#X obj 17 230 throw~ musicL;
#X obj 403 57 vsl 15 128 0 1 0 0 empty empty empty 0 -8 0 10 -262144
-1 -1 0 1;
#X obj 430 52 hsl 128 15 0 1 0 0 empty empty empty -2 -6 0 10 -262144
-1 -1 6350 1;
#X obj 403 193 maxlib/scale 0 1 0 100;
#X obj 17 202 gpan~;
#X obj 563 29 loadbang;
#X msg 563 50 0.5;
#X obj 403 19 r updown;
#X obj 459 18 r leftright;
#X connect 0 0 11 0;
#X connect 0 1 11 1;
#X connect 1 0 0 0;
#X connect 2 0 0 1;
#X connect 3 0 0 2;
#X connect 4 0 0 0;
#X connect 5 0 0 1;
#X connect 8 0 10 0;
#X connect 9 0 11 2;
#X connect 10 0 0 2;
#X connect 11 0 7 0;
#X connect 11 1 6 0;
#X connect 12 0 13 0;
#X connect 13 0 9 0;
#X connect 14 0 8 0;
#X connect 15 0 9 0;
#X restore 34 210 pd sines;
#N canvas 127 376 663 466 anthony 1;
#X obj 28 98 slg.spectralsynth20~;
#N canvas 688 22 478 328 transpose-behaviors 0;
#X obj 60 17 tgl 15 0 empty empty empty 0 -6 0 10 -262144 -1 -1 0 1
;
#X obj 90 68 random 6;
#X msg 142 134 5 4000;
#X msg 200 134 0 5000;
#X obj 122 198 outlet;
#X obj 90 16 inlet;
#X obj 90 45 metro 5000;
#X msg 90 134 0 3000;
#X msg 256 133 12 10000;
#X msg 320 132 17 10000;
#X msg 381 131 24 5000;
#X obj 89 107 sel 0 1 2 3 4 5;
#X connect 0 0 6 0;
#X connect 1 0 11 0;
#X connect 2 0 4 0;
#X connect 3 0 4 0;
#X connect 5 0 6 0;
#X connect 6 0 1 0;
#X connect 7 0 4 0;
#X connect 8 0 4 0;
#X connect 9 0 4 0;
#X connect 10 0 4 0;
#X connect 11 0 7 0;
#X connect 11 1 2 0;
#X connect 11 2 3 0;
#X connect 11 3 8 0;
#X connect 11 4 9 0;
#X connect 11 5 10 0;
#X restore 354 30 pd transpose-behaviors;
#X obj 36 78 r additive-onoff;
#X obj 354 8 r additive-onoff;
#X obj 387 71 r additive-transpose;
#X obj 211 74 r additive-volume;
#X obj 290 307 loadbang;
#X obj 28 249 cross-delay-gop;
#X obj 239 220 loadbang;
#X msg 332 250 0.8;
#X msg 234 251 80;
#X msg 267 251 160;
#X msg 198 252 0.7;
#X msg 300 252 0.2;
#X msg 290 337 \; volr 60 \; bfreqr 40 \;;
#X obj 211 12 loadbang;
#X obj 28 388 throw~ musicL;
#X obj 181 386 throw~ musicR;
#X msg 464 49 0;
#X msg 496 48 12;
#X msg 557 55 1;
#X msg 211 33 63;
#X obj 557 29 loadbang;
#X obj 28 34 r midisynth-note;
#X obj 583 92 r spectralsynthroute;
#X obj 46 6 s additive-onoff;
#X obj 22 6 tgl 15 0 empty empty empty 0 -6 0 10 -262144 -1 -1 0 1
;
#X connect 0 0 7 0;
#X connect 0 0 7 1;
#X connect 1 0 0 3;
#X connect 2 0 0 1;
#X connect 3 0 1 0;
#X connect 4 0 0 3;
#X connect 5 0 0 2;
#X connect 6 0 14 0;
#X connect 7 0 16 0;
#X connect 7 1 17 0;
#X connect 8 0 12 0;
#X connect 8 0 10 0;
#X connect 8 0 11 0;
#X connect 8 0 13 0;
#X connect 8 0 9 0;
#X connect 9 0 7 6;
#X connect 10 0 7 3;
#X connect 11 0 7 4;
#X connect 12 0 7 2;
#X connect 13 0 7 5;
#X connect 15 0 21 0;
#X connect 18 0 0 3;
#X connect 19 0 0 3;
#X connect 20 0 0 4;
#X connect 21 0 0 2;
#X connect 22 0 20 0;
#X connect 23 0 0 0;
#X connect 24 0 0 5;
#X connect 26 0 25 0;
#X restore 34 234 pd anthony;
#N canvas 66 171 441 225 test-synth 0;
#X text 14 7 --- Sines ---;
#X text 149 5 --- Anthony ---;
#X obj 17 57 s sine-onoff;
#X obj 18 101 s sine-volume;
#X obj 18 144 s sine-freq;
#X obj 17 37 tgl 15 0 empty empty empty 0 -6 0 10 -262144 -1 -1 0 1
;
#X floatatom 18 82 5 0 0 0 - - -;
#X floatatom 18 125 5 0 0 0 - - -;
#X obj 153 52 s additive-onoff;
#X obj 151 95 s additive-volume;
#X obj 152 136 s additive-transpose;
#X obj 153 30 tgl 15 0 empty empty empty 0 -6 0 10 -262144 -1 -1 1
1;
#X floatatom 151 75 5 0 0 0 - - -;
#X floatatom 152 117 5 0 0 0 - - -;
#X text 277 3 --- R2D2 ---;
#X obj 289 25 tgl 15 0 empty empty empty 0 -6 0 10 -262144 -1 -1 1
1;
#X floatatom 287 70 5 0 0 0 - - -;
#X obj 289 47 s r2d2-onoff;
#X obj 287 90 s r2d2-metro;
#X connect 5 0 2 0;
#X connect 6 0 3 0;
#X connect 7 0 4 0;
#X connect 11 0 8 0;
#X connect 12 0 9 0;
#X connect 13 0 10 0;
#X connect 15 0 17 0;
#X connect 16 0 18 0;
#X restore 39 385 pd test-synth;
#X obj 34 258 slg.tristimulusynth~;
#N canvas 46 623 1169 165 2midisynths 0;
#X obj 25 54 slg.DLSPlayer;
#X obj 25 7 r midisynth-note;
#X obj 254 7 r midisynth-velocity;
#X obj 383 7 r midisynth-channel;
#X obj 509 9 r midisynth-pc;
#X obj 607 8 r midisynth-volume;
#X obj 736 8 r midisynth-modulation;
#X obj 882 9 r midisynth-panning;
#X obj 1011 9 r midisynth-pitchbend;
#X obj 129 7 r midisynth-duration;
#X connect 1 0 0 0;
#X connect 2 0 0 1;
#X connect 3 0 0 3;
#X connect 4 0 0 4;
#X connect 5 0 0 5;
#X connect 6 0 0 6;
#X connect 7 0 0 7;
#X connect 8 0 0 8;
#X connect 9 0 0 2;
#X restore 39 335 pd 2midisynths;
#X obj 39 359 addons/obi/G2-padsynth;
#X text 34 188 Mono;
#X text 40 317 Poly;
#X obj 34 282 addons/obi/M1-strings;
#X text 194 181 Drums;
#X obj 195 200 addons/obi/H1-drums;
#X obj 195 271 addons/obi/I1-bassline;
#X text 195 249 Bass;
#X obj 195 295 addons/obi/L1-sawswoop;
#X text 196 318 FX;
#N canvas 24 22 584 506 R2D2 0;
#X obj 92 63 metro 90;
#X obj 19 176 osc~;
#X obj 101 175 osc~;
#X obj 53 290 osc~;
#X obj 53 212 +~;
#X obj 53 264 +~;
#X obj 53 238 *~;
#X obj 268 128 random 500;
#X obj 101 128 random 2000;
#X obj 19 128 random 1000;
#X obj 19 152 + 20;
#X obj 101 152 + 20;
#X obj 184 128 random 3000;
#X obj 92 85 t b b b b;
#X text 353 128 4 random values;
#X text 353 154 base offset;
#X text 98 234 random scaling;
#X text 96 264 random offset;
#X text 290 70 3 oscillators in simple FM;
#X text 352 179 sum 2 oscillators;
#X text 96 291 input to FM oscillator;
#X obj 92 37 tgl 15 0 empty empty empty 0 -6 0 10 -262144 -1 -1 0 1
;
#X floatatom 173 37 5 0 0 0 - - -;
#X obj 53 372 throw~ sfxL;
#X obj 133 371 throw~ sfxR;
#X obj 92 10 r r2d2-onoff;
#X obj 173 10 r r2d2-metro;
#X obj 53 345 *~;
#X obj 258 266 bng 15 250 50 0 empty empty empty 0 -6 0 10 -262144
-1 -1;
#X obj 348 245 sel 0;
#X obj 276 266 sel 1;
#X obj 347 271 pack 0 500;
#X obj 258 290 pack 0.05 4000;
#X obj 258 310 line~ 0.05;
#X connect 0 0 13 0;
#X connect 1 0 4 0;
#X connect 2 0 4 1;
#X connect 3 0 27 0;
#X connect 4 0 6 0;
#X connect 5 0 3 0;
#X connect 6 0 5 0;
#X connect 7 0 6 1;
#X connect 8 0 11 0;
#X connect 9 0 10 0;
#X connect 10 0 1 0;
#X connect 11 0 2 0;
#X connect 12 0 5 1;
#X connect 13 0 9 0;
#X connect 13 1 8 0;
#X connect 13 2 12 0;
#X connect 13 3 7 0;
#X connect 21 0 0 0;
#X connect 21 0 30 0;
#X connect 21 0 29 0;
#X connect 22 0 0 1;
#X connect 25 0 21 0;
#X connect 26 0 22 0;
#X connect 27 0 23 0;
#X connect 27 0 24 0;
#X connect 28 0 32 0;
#X connect 29 0 31 0;
#X connect 30 0 32 0;
#X connect 31 0 33 0;
#X connect 32 0 33 0;
#X connect 33 0 27 1;
#X restore 197 336 pd R2D2;
#N canvas 58 475 531 327 analog-drums 0;
#X obj 23 186 slg.bombo;
#X obj 86 186 slg.caja;
#X obj 142 185 slg.cowbell;
#X obj 217 185 slg.crash;
#X msg 21 139 100;
#X msg 49 139 200;
#X msg 78 140 400;
#X msg 163 142 200;
#X msg 197 142 400;
#X msg 397 147 200;
#X msg 429 146 400;
#X msg 361 147 100;
#X msg 127 142 50;
#X obj 31 81 random 3;
#X obj 31 104 sel 0 1 2;
#X obj 150 79 random 3;
#X obj 150 102 sel 0 1 2;
#X msg 270 141 200;
#X msg 304 141 400;
#X msg 234 141 50;
#X obj 257 78 random 3;
#X obj 257 101 sel 0 1 2;
#X obj 363 84 random 3;
#X obj 363 107 sel 0 1 2;
#X obj 257 56 sel 2;
#X obj 257 34 random 6;
#X obj 32 264 throw~ rhythmL;
#X obj 196 259 throw~ rhythmR;
#X obj 31 52 r bombo;
#X obj 150 49 r caja;
#X obj 257 10 r cowbell;
#X obj 363 61 r crash;
#X connect 0 0 26 0;
#X connect 0 0 27 0;
#X connect 1 0 26 0;
#X connect 2 0 26 0;
#X connect 3 0 27 0;
#X connect 4 0 0 0;
#X connect 5 0 0 0;
#X connect 6 0 0 0;
#X connect 7 0 1 0;
#X connect 8 0 1 0;
#X connect 9 0 3 0;
#X connect 10 0 3 0;
#X connect 11 0 3 0;
#X connect 12 0 1 0;
#X connect 13 0 14 0;
#X connect 14 0 4 0;
#X connect 14 1 5 0;
#X connect 14 2 6 0;
#X connect 15 0 16 0;
#X connect 16 0 12 0;
#X connect 16 1 7 0;
#X connect 16 2 8 0;
#X connect 17 0 2 0;
#X connect 18 0 2 0;
#X connect 19 0 2 0;
#X connect 20 0 21 0;
#X connect 21 0 19 0;
#X connect 21 1 17 0;
#X connect 21 2 18 0;
#X connect 22 0 23 0;
#X connect 23 0 11 0;
#X connect 23 1 9 0;
#X connect 23 2 10 0;
#X connect 24 0 20 0;
#X connect 25 0 24 0;
#X connect 28 0 13 0;
#X connect 29 0 15 0;
#X connect 30 0 25 0;
#X connect 31 0 22 0;
#X restore 196 223 pd analog-drums;
#N canvas 640 54 474 397 spacey 0;
#X obj 10 30 outerSpace/OuterSpaceMainPDGui;
#X text 28 3 on/off;
#X text 92 5 volume;
#X text 271 7 preset;
#X obj 10 -25 r outerspace-onoff;
#X obj 144 -23 r outerspace-volume;
#X obj 278 -23 r outerspace-preset;
#X obj 10 5 tgl 15 0 empty empty empty 0 -6 0 10 -262144 -1 -1 0 1
;
#X floatatom 144 4 5 0 0 0 - - -;
#X obj 10 267 throw~ textureL;
#X obj 278 265 throw~ textureR;
#X msg 325 7 1;
#X msg 354 5 2;
#X floatatom 369 83 5 0 0 0 - - -;
#X msg 382 8 0;
#X connect 0 0 9 0;
#X connect 0 1 10 0;
#X connect 4 0 0 0;
#X connect 5 0 0 1;
#X connect 6 0 0 2;
#X connect 7 0 0 0;
#X connect 8 0 0 1;
#X connect 11 0 0 2;
#X connect 12 0 0 2;
#X connect 14 0 0 2;
#X restore 372 195 pd spacey;
#N canvas 116 450 659 342 windchild 0;
#X obj 76 115 slg.wind~;
#X obj 76 188 slg.convolution~;
#X obj 236 169 slg.gain~;
#N canvas 0 22 462 312 modulate-behaviors 0;
#X obj 72 194 line;
#X obj 72 84 metro 4000;
#X obj 41 60 tgl 15 0 empty empty empty 0 -6 0 10 -262144 -1 -1 0 1
;
#X floatatom 140 133 5 0 0 0 - - -;
#X obj 72 109 random 6;
#X msg 124 164 50 4000;
#X msg 238 163 40 10000;
#X obj 72 135 sel 0 1 2 3;
#X msg 182 164 60 5000;
#X msg 72 164 80 3000;
#X obj 72 218 outlet;
#X obj 72 57 inlet;
#X connect 0 0 10 0;
#X connect 1 0 4 0;
#X connect 2 0 1 0;
#X connect 4 0 3 0;
#X connect 4 0 7 0;
#X connect 5 0 0 0;
#X connect 6 0 0 0;
#X connect 7 0 9 0;
#X connect 7 1 5 0;
#X connect 7 2 8 0;
#X connect 7 3 6 0;
#X connect 8 0 0 0;
#X connect 9 0 0 0;
#X connect 11 0 1 0;
#X restore 148 60 pd modulate-behaviors;
#X obj 147 34 tgl 15 0 empty empty empty 0 -6 0 10 -262144 -1 -1 1
1;
#X obj 45 34 r wind-onoff;
#N canvas 110 24 346 132 autoloadchild 0;
#X obj 28 25 loadbang;
#X obj 28 70 outlet;
#X msg 28 48 autodemo/data/wav/loops/chilld_high_down.wav;
#X connect 0 0 2 0;
#X connect 2 0 1 0;
#X restore 308 87 pd autoloadchild;
#X obj 289 263 throw~ spat;
#X obj 343 188 slg.gain~;
#X obj 452 112 loadbang;
#X msg 474 156 4;
#X obj 426 62 r wind-volume;
#X obj 514 62 r child-volume;
#X text 553 89 0-127;
#X obj 344 17 loadbang;
#X msg 344 41 1;
#X obj 237 63 r child-onoff;
#X obj 69 263 throw~ textureL;
#X obj 172 263 throw~ textureR;
#X msg 438 156 0.2;
#X msg 508 154 200;
#X obj 237 113 slg.loadsample~;
#X obj 300 37 tgl 15 0 empty empty empty 0 -6 0 10 -262144 -1 -1 1
1;
#X msg 538 111 20;
#X obj 389 261 catch~ spat;
#X obj 437 14 r motion2wind;
#X msg 375 43 2;
#X connect 0 0 1 0;
#X connect 0 0 8 0;
#X connect 1 0 17 0;
#X connect 1 0 18 0;
#X connect 2 0 1 1;
#X connect 3 0 0 2;
#X connect 4 0 3 0;
#X connect 5 0 4 0;
#X connect 5 0 0 0;
#X connect 6 0 21 1;
#X connect 9 0 19 0;
#X connect 9 0 10 0;
#X connect 9 0 20 0;
#X connect 10 0 2 1;
#X connect 11 0 8 1;
#X connect 12 0 1 2;
#X connect 14 0 15 0;
#X connect 14 0 26 0;
#X connect 15 0 21 3;
#X connect 16 0 21 0;
#X connect 19 0 8 1;
#X connect 20 0 1 2;
#X connect 21 0 2 0;
#X connect 22 0 21 0;
#X connect 23 0 1 2;
#X connect 26 0 21 1;
#X restore 372 243 pd windchild;
#N canvas 0 22 584 491 substractive 0;
#X obj 69 98 slg.substractive~;
#X obj 69 48 r substractive-onoff;
#X floatatom 87 76 5 0 0 0 - - -;
#X obj 70 222 cross-delay-gop;
#X obj 70 366 throw~ textureL;
#X obj 223 371 throw~ textureR;
#X connect 0 0 3 0;
#X connect 0 0 3 1;
#X connect 1 0 0 0;
#X connect 1 0 2 0;
#X connect 3 0 4 0;
#X connect 3 1 5 0;
#X restore 372 219 pd substractive;
#N canvas 46 35 250 142 storm 0;
#X obj 13 30 slg.storm;
#X obj 13 8 r storm-onoff;
#X obj 13 69 throw~ textureL;
#X obj 113 68 throw~ textureR;
#X connect 0 0 2 0;
#X connect 0 0 3 0;
#X connect 1 0 0 0;
#X restore 374 271 pd storm;
#N canvas 15 440 653 263 test-textures 0;
#X obj 17 49 s wind-onoff;
#X obj 17 28 tgl 15 0 empty empty empty 0 -6 0 10 -262144 -1 -1 1 1
;
#X obj 17 91 s child-onoff;
#X obj 17 70 tgl 15 0 empty empty empty 0 -6 0 10 -262144 -1 -1 0 1
;
#X obj 18 131 s wind-volume;
#X obj 18 172 s child-volume;
#X floatatom 18 113 5 0 0 0 - - -;
#X floatatom 18 153 5 0 0 0 - - -;
#X obj 146 46 s storm-onoff;
#X obj 146 24 tgl 15 0 empty empty empty 0 -6 0 10 -262144 -1 -1 1
1;
#X obj 254 26 tgl 15 0 empty empty empty 0 -6 0 10 -262144 -1 -1 0
1;
#X obj 254 46 s substractive-onoff;
#X text 419 5 --- Spacey ---;
#X text 252 6 --- Substractive ---;
#X text 145 6 --- Storm ---;
#X text 14 7 ---- Windchild ----;
#X obj 422 26 tgl 15 0 empty empty empty 0 -6 0 10 -262144 -1 -1 0
1;
#X obj 422 46 s outerspace-onoff;
#X obj 422 87 s outerspace-volume;
#X obj 423 126 s outerspace-preset;
#X floatatom 422 69 5 0 0 0 - - -;
#X floatatom 423 110 5 0 0 0 - - -;
#X connect 1 0 0 0;
#X connect 3 0 2 0;
#X connect 6 0 4 0;
#X connect 7 0 5 0;
#X connect 9 0 8 0;
#X connect 10 0 11 0;
#X connect 16 0 17 0;
#X connect 20 0 18 0;
#X connect 21 0 19 0;
#X restore 374 296 pd test-textures;
#X obj 369 169 comment 196 20 Times ? 0 255 128 0 Textures;
#N canvas 0 22 598 448 sea 0;
#X obj 101 79 slg.sea_waves;
#X obj 101 54 r sea-onoff;
#X obj 101 204 throw~ textureL;
#X obj 264 205 throw~ textureR;
#X connect 0 0 2 0;
#X connect 0 1 3 0;
#X connect 1 0 0 0;
#X restore 432 270 pd sea;
#N canvas 619 22 669 514 all-off 0;
#X obj 176 52 r allsynthsoff;
#X obj 35 305 r alltexturesoff;
#X msg 37 95 \; welcome-onoff off \; awasample off \; outside off \;
garden off \; readsoundfile 0 \; int26 0 \; happy-onoff 0 \; happytechno-onoff
0 \; sense-onoff 0 \; happysynth-onoff 0 \; pong off \;;
#X obj 37 72 r allsamplesoff;
#X obj 37 12 inlet;
#X msg 304 72 \; start 0 \;;
#X obj 304 49 r tempo-off;
#X msg 286 257 \; trimelocell-onoff 0 \; tribasscell-onoff 0 \; basscell-onoff
0 \; sawswoop-onoff 0 \; bassline-onoff 0 \; r2d2-onoff 0 \;;
#X obj 435 226 r allrhythmcellsoff;
#X obj 286 227 r allpitchcellsoff;
#X msg 451 366 \; nrginteract-onoff 0 \;;
#X msg 445 283 \; fourtrack-onoff 0 \; scarsevent-onoff 0 \;;
#X text 237 411 sea-onoff triggers last;
#X msg 176 73 \; sine-onoff 0 \; additive-onoff 0 \; sawswoop-onoff
0 \; bassline-onoff 0 \; r2d2-onoff 0 \; padsynth-onoff 0 \;;
#X obj 393 48 r spat-off;
#X msg 393 71 \; spat-volume 0 \; spat-onoff 0 \;;
#X msg 35 327 \; wind-onoff 0 \; child-onoff 0 \; storm-onoff 0 \;
substractive-onoff 0 \; outerspace-onoff 0 \; child-volume 20 \;;
#X connect 0 0 13 0;
#X connect 1 0 16 0;
#X connect 3 0 2 0;
#X connect 4 0 2 0;
#X connect 4 0 13 0;
#X connect 4 0 16 0;
#X connect 4 0 5 0;
#X connect 4 0 7 0;
#X connect 4 0 11 0;
#X connect 4 0 10 0;
#X connect 4 0 15 0;
#X connect 6 0 5 0;
#X connect 8 0 11 0;
#X connect 9 0 7 0;
#X connect 14 0 15 0;
#X restore 751 124 pd all-off;
#X obj 749 57 comment 196 20 Times ? 0 255 128 0 Panic!;
#X obj 751 87 bng 30 250 50 0 empty all-off empty 0 -6 0 10 -258113
-1 -1;
#X text 789 87 All Voices Off;
#X obj 750 167 s sea-onoff;
#X obj 750 147 tgl 15 0 empty empty empty 0 -6 0 10 -262144 -1 -1 0
1;
#X obj 32 9 comment 0 25 Helvetica ? 0 0 128 128 --- The Situated Music
Bot Project ---;
#N canvas 0 22 276 256 simplefm 0;
#X obj 44 142 slg.fm~;
#X obj 139 104 line;
#X obj 43 106 unpack f f f f;
#X msg 141 58 2;
#X msg 174 60 0;
#X obj 43 59 loadbang;
#X obj 142 8 r fm-harmo;
#X obj 142 34 sel 1 0;
#X obj 141 82 pack f 1000;
#X msg 43 80 150 0.3 1.31 0;
#X obj 44 178 throw~ textureL;
#X obj 144 177 throw~ textureR;
#X connect 1 0 0 3;
#X connect 2 0 0 0;
#X connect 2 1 0 1;
#X connect 2 2 0 2;
#X connect 2 3 0 2;
#X connect 3 0 8 0;
#X connect 4 0 8 0;
#X connect 5 0 9 0;
#X connect 6 0 7 0;
#X connect 7 0 3 0;
#X connect 7 1 4 0;
#X connect 8 0 1 0;
#X connect 9 0 2 0;
#X restore 374 322 pd simplefm;
#X obj 41 435 comment 196 20 Times ? 0 255 128 0 Samples;
#N canvas 495 161 486 215 heart 0;
#X obj -100 73 slg.loadsample~;
#X obj -29 6 r heartvolume;
#X obj -100 7 loadbang;
#X obj -100 134 *~ 15;
#X msg -65 26 /Users/Shared/Musebot/apps/autodemo/data/wav/tests/irregular_heartbeat.wav
;
#X obj -26 156 throw~ sfxR;
#X obj -100 156 throw~ sfxL;
#X msg 7 51 1;
#X msg -105 38 1;
#X floatatom 90 99 5 0 0 0 - - -;
#X connect 0 0 3 0;
#X connect 1 0 0 2;
#X connect 1 0 9 0;
#X connect 2 0 4 0;
#X connect 2 0 7 0;
#X connect 2 0 8 0;
#X connect 3 0 5 0;
#X connect 3 0 6 0;
#X connect 4 0 0 1;
#X connect 7 0 0 3;
#X connect 8 0 0 0;
#X restore 44 466 pd heart;
#X obj 554 187 r spectralsynthroute;
#X obj 555 213 r fm-harmo;
#X obj 556 242 r motion2tempo;
#X text 267 752 Rhythmik;
#X text 179 753 Melodik;
#X text 558 754 Sound FX;
#N canvas 22 376 387 307 midi-expresion 0;
#X text 35 17 Dynamic;
#X obj 173 53 vsl 15 128 0 127 0 0 empty empty empty 0 -8 0 10 -262144
-1 -1 8000 1;
#X obj 38 56 vsl 15 128 0 127 0 0 empty empty empty 0 -8 0 10 -262144
-1 -1 8000 1;
#X text 199 72 Pedal;
#X text 198 109 legato;
#X text 200 137 portato;
#X text 199 165 staccato;
#X text 57 57 fff;
#X text 56 173 ppp;
#X text 60 110 mf;
#X text 167 13 Legato;
#X obj 173 208 maxlib/scale 0 127 50 3000;
#X obj 173 232 s midisynth-duration;
#X obj 38 207 s midisynth-velocity;
#X obj 277 20 loadbang;
#X msg 277 48 80;
#X connect 1 0 11 0;
#X connect 2 0 13 0;
#X connect 11 0 12 0;
#X connect 14 0 15 0;
#X connect 15 0 1 0;
#X connect 15 0 2 0;
#X restore 527 100 pd midi-expresion;
#X obj 526 72 comment 196 20 Times ? 0 255 128 0 Expressivity;
#X obj 556 299 comment 196 20 Times ? 0 255 128 0 Musical Input;
#X obj 770 295 comment 196 20 Times ? 0 255 128 0 Environment;
#N canvas 955 349 234 244 mappings 1;
#N canvas 529 51 423 340 motion-to-tempo 0;
#X obj 20 40 maxlib/average 20;
#X floatatom 24 64 5 0 0 0 - - -;
#X obj 21 100 delta;
#X obj 21 123 abs;
#X obj 20 15 r motionsum;
#X obj 21 196 s motion2tempo;
#X floatatom 39 158 5 0 0 0 - - -;
#X obj 77 95 maxlib/scale 10 500 20 200;
#X floatatom 175 151 5 0 0 0 - - -;
#X connect 0 0 1 0;
#X connect 0 0 2 0;
#X connect 0 0 7 0;
#X connect 2 0 3 0;
#X connect 3 0 6 0;
#X connect 4 0 0 0;
#X connect 7 0 5 0;
#X connect 7 0 8 0;
#X restore -29 13 pd motion-to-tempo;
#N canvas 5 397 589 302 laser2heartvolume 0;
#X obj 133 40 r laser1;
#X obj 193 40 r laser2;
#X obj 252 41 r laser3;
#X obj 308 41 r laser4;
#X obj 366 42 r laser5;
#X obj 424 42 r laser6;
#X floatatom 133 64 5 0 0 0 - - -;
#X floatatom 194 62 5 0 0 0 - - -;
#X floatatom 252 66 5 0 0 0 - - -;
#X floatatom 307 64 5 0 0 0 - - -;
#X floatatom 366 64 5 0 0 0 - - -;
#X floatatom 424 66 5 0 0 0 - - -;
#X obj 151 159 sum;
#X floatatom 151 231 5 0 0 0 - - -;
#X obj 151 138 pack f f f f f f;
#X obj 151 181 / 6;
#X obj 212 227 s heartvolume;
#X obj 212 205 maxlib/scale 0 1 0.1 0.5;
#X connect 0 0 6 0;
#X connect 0 0 14 0;
#X connect 1 0 7 0;
#X connect 1 0 14 1;
#X connect 2 0 8 0;
#X connect 2 0 14 2;
#X connect 3 0 9 0;
#X connect 3 0 14 3;
#X connect 4 0 10 0;
#X connect 4 0 14 4;
#X connect 5 0 11 0;
#X connect 5 0 14 5;
#X connect 12 0 15 0;
#X connect 14 0 12 0;
#X connect 15 0 13 0;
#X connect 15 0 17 0;
#X connect 17 0 16 0;
#X restore -29 34 pd laser2heartvolume;
#N canvas 45 463 478 328 motion-to-transpose 0;
#X obj 145 124 maxlib/average 20;
#X obj 145 154 maxlib/scale 0 800 0 48;
#X obj 145 203 s spectralsynthroute;
#X obj 146 49 r motionsum;
#X msg 145 178 /transpose \$1;
#X floatatom 270 111 5 0 0 0 - - -;
#X obj 323 225 prepend set;
#X msg 328 258 /transpose 0.051328;
#X connect 0 0 1 0;
#X connect 1 0 4 0;
#X connect 3 0 5 0;
#X connect 4 0 2 0;
#X connect 4 0 6 0;
#X connect 6 0 7 0;
#X restore -29 79 pd motion-to-transpose;
#N canvas 675 22 445 272 red-to-spectrum 0;
#X obj 288 130 tgl 15 0 empty empty empty 0 -6 0 10 -262144 -1 -1 0
1;
#X obj 43 76 maxlib/average 20;
#X obj 43 98 > 100;
#X obj 244 110 < 100;
#X obj 244 131 sel 1;
#X obj 43 122 sel 1;
#X obj 42 178 s spectralsynthroute;
#X obj 244 182 s spectralsynthroute;
#X msg 244 156 /spectrumtable 0;
#X msg 43 145 /spectrumtable 1;
#X obj 43 50 r red;
#X connect 1 0 2 0;
#X connect 1 0 3 0;
#X connect 2 0 5 0;
#X connect 3 0 0 0;
#X connect 3 0 4 0;
#X connect 4 0 8 0;
#X connect 5 0 9 0;
#X connect 8 0 7 0;
#X connect 9 0 6 0;
#X connect 10 0 1 0;
#X restore -29 56 pd red-to-spectrum;
#N canvas 420 22 467 354 laser-to-harmonicity 0;
#X obj 49 28 r laser1;
#X obj 109 28 r laser2;
#X obj 168 29 r laser3;
#X obj 224 29 r laser4;
#X obj 282 30 r laser5;
#X obj 340 30 r laser6;
#X floatatom 49 52 5 0 0 0 - - -;
#X floatatom 110 50 5 0 0 0 - - -;
#X floatatom 168 54 5 0 0 0 - - -;
#X floatatom 223 52 5 0 0 0 - - -;
#X floatatom 282 52 5 0 0 0 - - -;
#X floatatom 340 54 5 0 0 0 - - -;
#X obj 67 147 sum;
#X obj 67 126 pack f f f f f f;
#X obj 67 169 / 6;
#X obj 67 196 > 0.8;
#X obj 67 223 send fm-harmo;
#X obj 265 288 s r2d2-onoff;
#X obj 264 191 sel 1;
#X msg 265 216 1;
#X msg 295 266 0;
#X obj 294 243 delay 2000;
#X connect 0 0 6 0;
#X connect 0 0 13 0;
#X connect 1 0 7 0;
#X connect 1 0 13 1;
#X connect 2 0 8 0;
#X connect 2 0 13 2;
#X connect 3 0 9 0;
#X connect 3 0 13 3;
#X connect 4 0 10 0;
#X connect 4 0 13 4;
#X connect 5 0 11 0;
#X connect 5 0 13 5;
#X connect 12 0 14 0;
#X connect 13 0 12 0;
#X connect 14 0 15 0;
#X connect 15 0 16 0;
#X connect 15 0 18 0;
#X connect 18 0 19 0;
#X connect 18 0 21 0;
#X connect 19 0 17 0;
#X connect 20 0 17 0;
#X connect 21 0 20 0;
#X restore -29 102 pd laser-to-harmonicity;
#N canvas 1048 25 396 300 motion-to-wind 0;
#X obj 52 40 maxlib/average 20;
#X obj 52 15 r motionsum;
#X obj 52 99 s motion2wind;
#X obj 52 68 maxlib/scale 10 500 60 110;
#X connect 0 0 3 0;
#X connect 1 0 0 0;
#X connect 3 0 2 0;
#X restore -29 -11 pd motion-to-wind;
#N canvas 589 283 454 304 motion-to-phasor 0;
#X obj 62 18 r motionsum;
#X obj 62 47 maxlib/average 20;
#X obj 62 106 s motion2phasor;
#X obj 62 78 maxlib/scale 10 500 0 0.5;
#X connect 0 0 1 0;
#X connect 1 0 3 0;
#X connect 3 0 2 0;
#X restore -28 126 pd motion-to-phasor;
#X restore 773 350 pd mappings;
#X obj 560 328 slg.midimonitor;
#N canvas 149 122 1080 496 pitch-analysis-and-memory 0;
#X obj 71 27 tgl 30 0 empty empty empty 0 -6 0 10 -204786 -1 -1 0 1
;
#X obj 267 27 notein;
#X obj 267 81 % 12;
#X msg 97 241 12;
#X obj 70 286 +;
#X obj 70 216 t f b;
#X obj 97 263 * 5;
#X msg 142 83 dump;
#X msg 406 13 reset;
#X text 74 32 > [];
#X obj 69 150 histogram2d 12 12;
#X obj 69 175 unpack f f;
#X obj 71 73 metro 1000;
#X obj 126 198 pipe 500;
#X obj 171 120 / 2;
#X floatatom 171 54 5 0 0 0 - - -;
#X msg 171 30 800;
#X obj 171 6 loadbang;
#X obj 267 56 stripnote;
#X obj 267 133 transition;
#X msg 296 298 connect localhost 12345;
#X msg 210 297 disconnect;
#X obj 210 363 packOSC;
#X obj 209 389 udpsend;
#X text 256 209 connect to port 12345;
#X obj 211 265 sel 0 1;
#X obj 236 212 tgl 15 0 empty empty empty 0 -6 0 10 -204786 -1 -1 0
1;
#X obj 95 327 prepend send /pitch/grid;
#X obj 394 130 histogram 12;
#X msg 394 86 dump;
#X msg 411 31 reset;
#X msg 463 160 send /pitch/histogram \$1 \$2 \$3 \$4 \$5 \$6 \$7 \$8
\$9 \$10 \$11 \$12;
#X obj 264 364 packOSC;
#X msg 28 75 1;
#X msg 27 96 2;
#X obj 73 113 gate 2;
#X obj 212 234 inlet;
#X obj 472 8 inlet;
#X obj 70 371 outlet;
#X obj 107 12 inlet;
#X floatatom 517 318 5 0 0 0 - - -;
#X symbolatom 588 324 48 0 0 0 - - -;
#X floatatom 618 261 5 0 0 0 - - -;
#X floatatom 675 261 5 0 0 0 - - -;
#X floatatom 733 261 5 0 0 0 - - -;
#X floatatom 792 261 5 0 0 0 - - -;
#X floatatom 603 294 5 0 0 0 - - -;
#X text 615 388 MIDI note number of bass note;
#X text 660 287 root position (0) \, 1st inversion (1);
#X text 659 300 or 2nd inversion (2);
#X floatatom 560 410 5 0 0 0 - - -;
#X text 628 363 class of bass note;
#X text 775 230 list of chord notes;
#X text 634 198 <-- notes higher than 59 get ignored;
#X text 633 344 notes in chord : chord name;
#X obj 618 230 unpack f f f f f f;
#X floatatom 847 261 5 0 0 0 - - -;
#X floatatom 906 261 5 0 0 0 - - -;
#X obj 601 409 outlet;
#X obj 559 198 chord;
#X floatatom 473 93 5 0 0 0 - - -;
#X obj 459 375 anal;
#X obj 459 399 prob;
#C restore;
#X msg 459 351 clear;
#X floatatom 459 428 5 0 0 0 - - -;
#X floatatom 119 410 5 0 0 0 - - -;
#X connect 0 0 12 0;
#X connect 1 0 7 0;
#X connect 1 0 18 0;
#X connect 1 0 29 0;
#X connect 1 0 59 0;
#X connect 1 1 18 1;
#X connect 1 1 59 1;
#X connect 2 0 19 0;
#X connect 2 0 28 1;
#X connect 3 0 6 0;
#X connect 5 0 4 0;
#X connect 5 1 3 0;
#X connect 6 0 4 1;
#X connect 7 0 10 0;
#X connect 8 0 10 0;
#X connect 10 1 11 0;
#X connect 10 2 27 0;
#X connect 11 0 5 0;
#X connect 11 1 13 0;
#X connect 12 0 35 1;
#X connect 13 0 5 0;
#X connect 14 0 13 1;
#X connect 15 0 12 1;
#X connect 15 0 14 0;
#X connect 16 0 15 0;
#X connect 17 0 16 0;
#X connect 17 0 34 0;
#X connect 18 0 2 0;
#X connect 18 0 61 0;
#X connect 19 0 10 1;
#X connect 20 0 23 0;
#X connect 21 0 23 0;
#X connect 22 0 23 0;
#X connect 25 0 21 0;
#X connect 25 1 20 0;
#X connect 26 0 25 0;
#X connect 27 0 22 0;
#X connect 28 0 5 0;
#X connect 28 1 31 0;
#X connect 29 0 28 0;
#X connect 30 0 28 0;
#X connect 30 0 63 0;
#X connect 31 0 32 0;
#X connect 32 0 23 0;
#X connect 33 0 35 0;
#X connect 34 0 35 0;
#X connect 35 0 28 0;
#X connect 35 1 10 0;
#X connect 36 0 25 0;
#X connect 37 0 8 0;
#X connect 37 0 30 0;
#X connect 39 0 35 1;
#X connect 39 0 62 0;
#X connect 55 0 42 0;
#X connect 55 1 43 0;
#X connect 55 2 44 0;
#X connect 55 3 45 0;
#X connect 55 4 56 0;
#X connect 55 5 57 0;
#X connect 59 0 40 0;
#X connect 59 1 50 0;
#X connect 59 2 41 0;
#X connect 59 2 58 0;
#X connect 59 3 46 0;
#X connect 59 4 55 0;
#X connect 60 0 28 1;
#X connect 61 0 62 0;
#X connect 62 0 64 0;
#X connect 62 0 38 0;
#X connect 63 0 61 0;
#X connect 63 0 62 0;
#X restore 565 459 pd pitch-analysis-and-memory;
#X obj 586 437 tgl 15 0 empty empty empty 0 -6 0 10 -204786 -1 -1 0
1;
#X obj 730 440 bng 15 250 50 0 empty empty empty 0 -6 0 10 -261234
-1 -1;
#X text 605 434 ->OpenGL visualizer;
#X text 728 407 Erase;
#X text 728 422 Memories;
#X obj 565 437 bng 15 250 50 0 empty empty empty 0 -6 0 10 -204786
-1 -1;
#X floatatom 563 490 5 0 0 0 - - -;
#X symbolatom 728 486 25 0 0 0 - - -;
#X obj 519 438 r prob;
#X obj 249 507 maxlib/scale 0 127 -127 18;
#X obj 192 605 r musicG;
#X obj 282 605 r rhythmG;
#X obj 377 607 r textureG;
#X obj 479 605 r voiceG;
#X obj 580 605 r sfxG;
#X obj 662 604 r trackG;
#X obj 756 600 r loopsG;
#X obj 509 513 s midisynth-note;
#X obj 652 520 mtof;
#X obj 652 542 s sine-freq;
#X obj 652 499 - 24;
#N canvas 670 80 506 356 drumloop 0;
#N canvas 0 22 1057 673 loopzor 0;
#N canvas 0 22 450 300 graph1 0;
#X array drums1 61205 float 0;
#X coords 0 0 61204 1 200 130 0;
#X restore 156 -251 graph;
#X obj 69 -252 soundfiler;
#X obj 153 -320 list;
#X obj 153 -370 loadbang;
#X msg 69 -274 read -resize \$1 drums1;
#X obj 52 -97 tabread4~ drums1;
#X obj 52 52 *~ 0.5;
#X obj 51 76 *~;
#X obj 168 137 tgl 12 1 empty \$0-lpzr-inout-r empty 0 -6 0 8 -260818
-1 -1 1 1;
#X obj 53 -358 inlet~;
#X obj 53 -120 *~;
#X text 379 -240 amen.wav anizts.wav bigj.wav lofi.wav neck.wav skipper.wav
;
#X obj 107 152 hradio 12 1 0 6 empty \$0-lpzr-brksel-r empty 0 -6 0
8 -260818 -1 -1 0;
#X obj 384 -405 r \$0-breakselector;
#X obj 108 216 s \$0-breakselector;
#X obj 384 -381 sel 0 1 2 3 4 5;
#X obj 51 -54 *~;
#X obj 175 -117 cos~;
#X obj 174 -97 abs~;
#X obj 175 -139 *~;
#X obj 107 166 hradio 12 1 0 6 empty \$0-lpzr-cutf-r empty 0 -6 0 8
-260818 -1 -1 0;
#X obj 191 -203 swap 2;
#X obj 191 -178 pow;
#X obj 191 -158 * 0.125;
#X obj 191 -227 r \$0-cutterfreq;
#X obj 114 190 s \$0-cutterfreq;
#X obj 174 -77 sqrt~;
#X obj 101 51 line~;
#X obj 107 -36 r \$0-loopzorinout;
#X obj 225 190 s \$0-loopzorinout;
#X text 50 176 ajf;
#X obj 107 -15 t b f;
#X obj 101 8 *;
#X obj 101 -55 r \$0-loopzorvol;
#X obj 114 123 hsl 64 10 0 1 0 1 empty \$0-lpzr-vol-r vol 18 5 1 8
-260818 -1 -1 3880 1;
#X obj 224 168 s \$0-loopzorvol;
#X obj 51 97 hip~ 10;
#X obj 53 -332 *~ 2;
#X obj 52 -312 wrap~;
#X msg 101 30 \$1 5;
#X obj 0 155 outlet~;
#X obj 52 155 outlet~;
#X msg 153 -341 ./data/wav/loops/bigj.wav;
#X msg 315 -341 ./data/wav/loops/amen.wav;
#X msg 478 -341 ./data/wav/loops/anizts.wav;
#X msg 660 -341 ./data/wav/loops/lofi.wav;
#X msg 826 -341 ./data/wav/loops/neck.wav;
#X msg 990 -340 ./data/wav/loops/skipper.wav;
#X floatatom 263 -195 5 0 0 0 - - -;
#X obj 338 -113 snapshot~;
#X floatatom 342 -84 5 0 0 0 - - -;
#X obj 363 -167 tgl 15 0 empty empty empty 0 -6 0 10 -262144 -1 -1
0 1;
#X obj 346 -141 metro 200;
#X obj 416 -106 snapshot~;
#X floatatom 420 -77 5 0 0 0 - - -;
#X connect 1 0 10 1;
#X connect 2 0 4 0;
#X connect 3 0 42 0;
#X connect 4 0 1 0;
#X connect 5 0 16 0;
#X connect 6 0 7 0;
#X connect 7 0 36 0;
#X connect 8 0 29 0;
#X connect 9 0 37 0;
#X connect 10 0 5 0;
#X connect 12 0 14 0;
#X connect 13 0 15 0;
#X connect 15 0 42 0;
#X connect 15 1 43 0;
#X connect 15 2 44 0;
#X connect 15 3 45 0;
#X connect 15 4 46 0;
#X connect 15 5 47 0;
#X connect 16 0 6 0;
#X connect 17 0 18 0;
#X connect 18 0 26 0;
#X connect 19 0 17 0;
#X connect 20 0 25 0;
#X connect 21 0 22 0;
#X connect 21 1 22 1;
#X connect 22 0 23 0;
#X connect 23 0 19 1;
#X connect 24 0 21 0;
#X connect 26 0 16 1;
#X connect 27 0 7 1;
#X connect 28 0 31 0;
#X connect 31 0 32 0;
#X connect 31 1 32 1;
#X connect 32 0 39 0;
#X connect 33 0 32 0;
#X connect 34 0 35 0;
#X connect 36 0 40 0;
#X connect 36 0 41 0;
#X connect 37 0 38 0;
#X connect 38 0 19 0;
#X connect 38 0 10 0;
#X connect 39 0 27 0;
#X connect 42 0 2 0;
#X connect 43 0 2 0;
#X connect 44 0 2 0;
#X connect 45 0 2 0;
#X connect 46 0 2 0;
#X connect 47 0 2 0;
#X connect 48 0 21 0;
#X connect 49 0 50 0;
#X connect 51 0 52 0;
#X connect 52 0 49 0;
#X connect 52 0 53 0;
#X connect 53 0 54 0;
#X coords 0 -1 1 1 85 80 1 100 100;
#X restore 98 74 pd loopzor;
#X obj 98 166 throw~ loopsL;
#X obj 188 167 throw~ loopsR;
#X obj 98 39 phasor~ 440;
#X floatatom 98 -6 5 0 0 0 - - -;
#X obj 98 14 sig~;
#X obj 195 10 r motion2phasor;
#X floatatom 229 43 5 0 0 0 - - -;
#X connect 0 0 1 0;
#X connect 0 1 2 0;
#X connect 3 0 0 0;
#X connect 4 0 5 0;
#X connect 5 0 3 0;
#X connect 6 0 7 0;
#X restore 244 437 pd drumloop;
#N canvas 54 46 1116 546 drumbank 0;
#X obj 409 281 sample.play~;
#X obj 8 107 sample.display_;
#X obj 8 200 sample.bounds_;
#X obj 8 253 sample.adsr_;
#X msg 478 113 60 127;
#X obj 478 164 midi.note.close;
#X obj 434 346 tgl 15 0 empty empty empty 0 -6 0 10 -262144 -1 -1 0
1;
#X obj 434 367 gate;
#X msg 807 62 write data/banks/garden.bank.coll;
#X obj 739 64 loadbang;
#X obj 362 -38 t b f;
#X obj 311 -60 route off;
#X msg 529 114 60 0;
#X obj 8 82 sample.r;
#X obj 409 308 throw~ rhythmL;
#X obj 502 308 throw~ rhythmR;
#X obj 739 154 sample.bank cyberbeat;
#X obj 311 -83 r cyberbeat;
#X msg 401 -5 cyberbeat \$1;
#X msg 808 86 read data/banks/cyberbeat.bank.coll;
#X obj 605 -51 s cyberbeat;
#X msg 605 -85 2;
#X msg 547 -85 0;
#X msg 576 -85 1;
#X msg 635 -86 3;
#X msg 666 -86 4;
#X msg 697 -86 5;
#X msg 728 -86 6;
#X obj 478 48 delay 100;
#X obj 664 211 poly;
#X obj 666 239 nqpoly;
#X connect 0 0 14 0;
#X connect 0 1 15 0;
#X connect 0 2 7 1;
#X connect 1 0 2 0;
#X connect 2 0 3 0;
#X connect 3 0 0 0;
#X connect 4 0 5 0;
#X connect 5 0 0 1;
#X connect 6 0 7 0;
#X connect 8 0 16 0;
#X connect 9 0 19 0;
#X connect 10 0 28 0;
#X connect 10 1 18 0;
#X connect 11 0 12 0;
#X connect 11 1 10 0;
#X connect 12 0 5 0;
#X connect 13 0 1 0;
#X connect 17 0 11 0;
#X connect 18 0 13 0;
#X connect 19 0 16 0;
#X connect 21 0 20 0;
#X connect 22 0 20 0;
#X connect 23 0 20 0;
#X connect 24 0 20 0;
#X connect 25 0 20 0;
#X connect 26 0 20 0;
#X connect 27 0 20 0;
#X connect 28 0 4 0;
#X restore 244 459 pd drumbank;
#N canvas 0 377 1193 367 test-samples 0;
#X msg 14 118 0;
#X msg 11 38 0;
#X obj 11 61 s welcome-onoff;
#X obj 14 141 s awasample;
#X text 9 19 INTRO;
#X text 12 87 INSIDE;
#X text 47 101 intro;
#X text 84 101 sense;
#X text 120 102 floor;
#X text 153 103 light;
#X text 186 103 robbie;
#X text 223 103 inter;
#X msg 49 118 1;
#X msg 85 119 2;
#X msg 119 120 3;
#X msg 152 121 4;
#X msg 189 120 5;
#X text 12 166 OUTSIDE;
#X msg 14 198 0;
#X text 51 179 intro;
#X msg 49 198 1;
#X msg 85 199 2;
#X msg 119 200 3;
#X msg 152 201 4;
#X msg 186 201 5;
#X obj 14 221 s outside;
#X text 85 181 fly;
#X text 119 182 video;
#X text 154 183 inter;
#X text 187 183 pong;
#X text 217 183 farewell;
#X msg 285 53 0;
#X obj 285 76 s garden;
#X msg 317 54 1;
#X text 9 4 -----VOICE OVER-----;
#X text 257 9 ---SOUNDFX----;
#X text 281 21 bird;
#X text 373 9 ----SOUNDTRACK----;
#X obj 373 51 s readsoundfile-onoff;
#X obj 373 30 tgl 15 0 empty empty empty 0 -6 0 10 -262144 -1 -1 0
1;
#X floatatom 373 72 5 0 0 0 - - -;
#X obj 373 90 s readsounfile-volume;
#X text 520 5 ----INTERACTION----;
#X obj 520 46 s int26;
#X obj 520 92 s section1;
#X obj 587 91 s section2;
#X obj 654 91 s section3;
#X floatatom 520 72 5 0 0 0 - - -;
#X floatatom 587 71 5 0 0 0 - - -;
#X floatatom 654 72 5 0 0 0 - - -;
#X obj 520 25 tgl 15 0 empty empty empty 0 -6 0 10 -262144 -1 -1 0
1;
#X msg 45 37 off;
#X text 288 32 walk forest;
#X msg 254 53 off;
#X msg 244 120 off;
#X msg 252 202 off;
#X text 268 123 ----WELCOME SAMPLES----;
#X obj 287 166 s happy-onoff;
#X obj 287 206 s happytechno-onoff;
#X obj 288 247 s sense-onoff;
#X obj 289 288 s happysynth-onoff;
#X obj 287 146 tgl 15 0 empty empty empty 0 -6 0 10 -262144 -1 -1 0
1;
#X obj 287 187 tgl 15 0 empty empty empty 0 -6 0 10 -262144 -1 -1 0
1;
#X obj 288 226 tgl 15 0 empty empty empty 0 -6 0 10 -262144 -1 -1 0
1;
#X obj 289 268 tgl 15 0 empty empty empty 0 -6 0 10 -262144 -1 -1 0
1;
#X msg 219 120;
#X text 479 132 --- PONG ---;
#X text 486 154 intro;
#X msg 480 174 1;
#X msg 516 175 2;
#X msg 550 176 3;
#X msg 583 177 4;
#X msg 617 177 5;
#X text 523 154 fly;
#X text 557 155 video;
#X text 592 156 inter;
#X text 625 156 pong;
#X text 655 156 farewell;
#X msg 1110 178 off;
#X obj 817 251 s pong;
#X msg 653 177 6;
#X msg 686 177 7;
#X msg 722 177 8;
#X msg 753 177 9;
#X msg 786 176 10;
#X msg 843 178 12;
#X msg 877 179 13;
#X msg 910 180 14;
#X msg 944 180 15;
#X msg 980 180 16;
#X msg 1013 180 17;
#X msg 1049 180 18;
#X msg 1080 180 19;
#X msg 814 177 11;
#X msg 222 201 6;
#X obj 778 19 receive fm-harmo;
#X obj 811 56 sel 1;
#X connect 0 0 3 0;
#X connect 1 0 2 0;
#X connect 12 0 3 0;
#X connect 13 0 3 0;
#X connect 14 0 3 0;
#X connect 15 0 3 0;
#X connect 16 0 3 0;
#X connect 18 0 25 0;
#X connect 20 0 25 0;
#X connect 21 0 25 0;
#X connect 22 0 25 0;
#X connect 23 0 25 0;
#X connect 24 0 25 0;
#X connect 31 0 32 0;
#X connect 33 0 32 0;
#X connect 39 0 38 0;
#X connect 40 0 41 0;
#X connect 47 0 44 0;
#X connect 48 0 45 0;
#X connect 49 0 46 0;
#X connect 50 0 43 0;
#X connect 51 0 2 0;
#X connect 53 0 32 0;
#X connect 54 0 3 0;
#X connect 55 0 25 0;
#X connect 61 0 57 0;
#X connect 62 0 58 0;
#X connect 63 0 59 0;
#X connect 64 0 60 0;
#X connect 65 0 3 0;
#X connect 68 0 79 0;
#X connect 69 0 79 0;
#X connect 70 0 79 0;
#X connect 71 0 79 0;
#X connect 72 0 79 0;
#X connect 78 0 79 0;
#X connect 80 0 79 0;
#X connect 81 0 79 0;
#X connect 82 0 79 0;
#X connect 83 0 79 0;
#X connect 84 0 79 0;
#X connect 85 0 79 0;
#X connect 86 0 79 0;
#X connect 87 0 79 0;
#X connect 88 0 79 0;
#X connect 89 0 79 0;
#X connect 90 0 79 0;
#X connect 91 0 79 0;
#X connect 92 0 79 0;
#X connect 93 0 79 0;
#X connect 94 0 25 0;
#X connect 95 0 96 0;
#X restore 245 482 pd test-samples;
#N canvas 89 165 1088 539 soundfx 0;
#X obj 505 277 sample.play~;
#X obj 104 103 sample.display_;
#X obj 104 196 sample.bounds_;
#X obj 104 249 sample.adsr_;
#X msg 574 109 60 127;
#X obj 574 160 midi.note.close;
#X msg 585 -44 0;
#X obj 730 243 sample.bank garden;
#X obj 505 304 throw~ sfxL;
#X obj 598 304 throw~ sfxR;
#X obj 530 342 tgl 15 0 empty empty empty 0 -6 0 10 -262144 -1 -1 0
1;
#X obj 530 363 gate;
#X msg 730 212 read data/banks/garden.bank.coll;
#X msg 788 157 write data/banks/garden.bank.coll;
#X obj 585 -21 s garden;
#X msg 617 -43 1;
#X obj 728 175 loadbang;
#X msg 788 107 0 data/wav/sfx/nature/garden.wav;
#X msg 788 132 1 data/wav/sfx/nature/walkingforest.wav;
#X obj 585 -93 r birdy-onoff;
#X obj 585 -69 sel 1;
#X obj 768 287 sample.bank welcome;
#X obj 458 -42 t b f;
#X obj 407 -64 route off;
#X obj 407 -87 r garden;
#X msg 625 110 60 0;
#X msg 485 4 garden \$1;
#X obj 728 354 sample.bank pong;
#X obj 796 -51 t b f;
#X obj 745 -73 route off;
#X obj 745 -96 r pong;
#X msg 823 -2 pong \$1;
#X obj 823 -26 - 1;
#X obj 104 78 sample.r;
#X msg 728 330 read data/banks/pong.bank.coll;
#X connect 0 0 8 0;
#X connect 0 1 9 0;
#X connect 0 2 11 1;
#X connect 1 0 2 0;
#X connect 2 0 3 0;
#X connect 3 0 0 0;
#X connect 4 0 5 0;
#X connect 5 0 0 1;
#X connect 6 0 14 0;
#X connect 10 0 11 0;
#X connect 12 0 7 0;
#X connect 13 0 7 0;
#X connect 15 0 14 0;
#X connect 16 0 12 0;
#X connect 16 0 34 0;
#X connect 17 0 7 0;
#X connect 18 0 7 0;
#X connect 19 0 20 0;
#X connect 20 0 6 0;
#X connect 22 0 4 0;
#X connect 22 1 26 0;
#X connect 23 0 25 0;
#X connect 23 1 22 0;
#X connect 24 0 23 0;
#X connect 25 0 5 0;
#X connect 26 0 33 0;
#X connect 28 0 4 0;
#X connect 28 1 32 0;
#X connect 29 0 25 0;
#X connect 29 1 28 0;
#X connect 30 0 29 0;
#X connect 31 0 33 0;
#X connect 32 0 31 0;
#X connect 33 0 1 0;
#X connect 34 0 27 0;
#X coords 0 0 1 1 310 90 0;
#X restore 45 489 pd soundfx;
#N canvas 617 233 322 239 wind 0;
#X obj 181 49 r motion2wind;
#X obj 86 70 slg.wind~;
#X obj 86 142 throw~ textureL;
#X obj 94 163 throw~ textureR;
#X obj 86 20 loadbang;
#X msg 87 47 1;
#X connect 0 0 1 2;
#X connect 1 0 2 0;
#X connect 1 0 3 0;
#X connect 4 0 5 0;
#X connect 5 0 1 0;
#X restore 265 388 pd wind;
#X connect 6 0 25 0;
#X connect 7 0 25 1;
#X connect 8 0 24 0;
#X connect 9 0 24 1;
#X connect 10 0 4 0;
#X connect 11 0 4 1;
#X connect 14 0 26 1;
#X connect 15 0 26 0;
#X connect 16 0 27 0;
#X connect 17 0 27 1;
#X connect 19 0 28 1;
#X connect 20 0 28 0;
#X connect 21 0 29 0;
#X connect 22 0 29 1;
#X connect 42 0 41 0;
#X connect 70 0 68 0;
#X connect 73 0 72 0;
#X connect 90 0 97 0;
#X connect 90 0 108 0;
#X connect 90 1 98 0;
#X connect 91 0 90 1;
#X connect 92 0 90 2;
#X connect 96 0 90 0;
#X connect 99 0 96 0;
#X connect 101 0 24 2;
#X connect 102 0 25 2;
#X connect 103 0 4 2;
#X connect 104 0 26 2;
#X connect 105 0 27 2;
#X connect 106 0 28 2;
#X connect 107 0 29 2;
#X connect 109 0 110 0;
#X connect 111 0 109 0;
