#N canvas 36 53 522 660 10;
#X declare -path synth/;
#X declare -path ../persistance/_sssad;
#X obj 30 36 GUI;
#X obj 70 319 ezdac~;
#X obj 70 213 slg.freeverb~;
#X obj 344 -67 sssad/panel;
#X obj 30 -69 slg.midiseq;
#X obj 30 9 pack f f;
#X text 334 -92 Save/Load Presets;
#X text 55 -96 Read midi file;
#X text 168 241 Reverb;
#X text 178 331 Audio Out;
#X obj 13 -152 comment 0 14 Helvetica ? 0 0 128 128 Tristimulus Polyphonic
Synthesizer Demo Patch;
#X obj 300 233 slg.plot;
#X obj 437 -214 image iua_logo.gif;
#X obj 190 -204 image specs_logo.gif;
#X text 369 -183 <slegroux@iua.upf.edu>;
#X text 280 214 Plot Audio & Spectrum;
#N canvas 1133 25 294 366 plotWindow 0;
#N canvas 0 22 450 300 (subpatch) 0;
#X array signal 882 float 0;
#X coords 0 5 882 -5 200 130 1;
#X restore 22 -13 graph;
#N canvas 0 22 450 300 (subpatch) 0;
#X array spectrum 128 float 0;
#X coords 0 4300 127 -40 257 130 1;
#X restore 22 158 graph;
#X text 51 118 ---- 0.02 seconds ----;
#X text 52 290 1;
#X text 86 290 2;
#X text 118 290 3;
#X text 150 290 4;
#X text 183 290 5;
#X text 213 290 6;
#X text 244 290 7;
#X text 20 290 0;
#X text 56 309 -- partial number --;
#X text 114 135 SPECTRUM;
#X restore 303 306 pd plotWindow;
#N canvas 0 22 242 58 TODO 0;
#X text 26 -53 - psychoacoustics vu-meters;
#X restore 411 -153 pd TODO;
#N canvas 497 347 839 496 visuals 0;
#X obj 350 204 gemhead;
#X obj 350 382 rotate;
#X floatatom 409 320 0 0 0 0 - - -;
#X msg 452 189 1 1 1;
#X text 438 137 change the color;
#X msg 237 358 draw line;
#X msg 237 391 draw fill;
#X text 111 73 this demonstrates how to create a blue rectangle;
#X obj 350 424 rectangle 2 1;
#X text 382 305 rotate the rectangle;
#X msg 452 214 0 0 1;
#X text 402 404 width;
#X text 460 403 height;
#X obj 20 104 cnv 15 220 70 empty empty empty 20 12 0 14 -195568 -66577
0;
#N canvas 397 422 454 304 gemwin 0;
#X obj 132 136 gemwin;
#X obj 67 89 outlet;
#X obj 67 10 inlet;
#X obj 67 41 route create;
#X msg 67 70 set destroy;
#X msg 182 68 set create;
#X msg 132 112 create \, 1;
#X msg 238 112 destroy;
#N canvas 87 154 247 179 Gem.init 0;
#X obj 59 46 loadbang;
#X msg 118 81 reset;
#X obj 118 113 outlet;
#X obj 59 65 t b b;
#X connect 0 0 3 0;
#X connect 1 0 2 0;
#X connect 3 1 1 0;
#X restore 289 80 pd Gem.init;
#X connect 2 0 3 0;
#X connect 3 0 4 0;
#X connect 3 0 6 0;
#X connect 3 1 5 0;
#X connect 3 1 7 0;
#X connect 4 0 1 0;
#X connect 5 0 1 0;
#X connect 6 0 0 0;
#X connect 7 0 0 0;
#X connect 8 0 0 0;
#X restore 25 148 pd gemwin;
#X msg 24 123 create;
#X text 21 104 Create window and render;
#X text 504 215 blue;
#X text 495 191 white;
#X obj 350 264 color 0 0 1;
#X text 422 266 (blue);
#X floatatom 297 129 5 0 0 0 - - -;
#X floatatom 333 130 5 0 0 0 - - -;
#X floatatom 373 130 5 0 0 0 - - -;
#X obj 375 175 pack f f f;
#X obj 278 159 bng 15 250 50 0 empty empty empty 17 7 0 10 -262144
-1 -1;
#X obj 546 288 loadbang;
#X msg 547 325 3;
#X msg 579 326 2;
#X obj 25 72 inlet;
#X obj 453 11 inlet;
#X obj 481 58 unpack f f;
#X msg 555 373 create;
#X obj 481 114 expr ($f1 + $f2 -1.0) * -1;
#X obj 666 134 maxlib/scale 0 127 0 1;
#X obj 613 71 maxlib/scale 0 127 0 1;
#X connect 0 0 19 0;
#X connect 1 0 8 0;
#X connect 2 0 1 1;
#X connect 3 0 19 1;
#X connect 5 0 8 0;
#X connect 6 0 8 0;
#X connect 10 0 19 1;
#X connect 14 0 15 0;
#X connect 15 0 14 0;
#X connect 19 0 1 0;
#X connect 21 0 24 0;
#X connect 22 0 24 1;
#X connect 22 0 25 0;
#X connect 23 0 24 2;
#X connect 23 0 25 0;
#X connect 24 0 19 1;
#X connect 25 0 24 0;
#X connect 26 0 27 0;
#X connect 26 0 28 0;
#X connect 26 0 32 0;
#X connect 27 0 8 1;
#X connect 28 0 8 2;
#X connect 29 0 15 0;
#X connect 30 0 31 0;
#X connect 30 0 25 0;
#X connect 31 0 34 0;
#X connect 31 1 35 0;
#X connect 33 0 24 2;
#X connect 34 0 33 0;
#X connect 34 0 24 0;
#X connect 35 0 33 1;
#X connect 35 0 24 1;
#X restore 367 345 pd visuals;
#X obj 350 346 bng 15 250 50 0 empty empty empty 17 7 0 10 -258113
-1 -1;
#X text 295 345 colors!;
#N canvas 612 67 739 740 osc 0;
#X obj 44 -5 osc/slg.parse;
#X obj 41 -94 dumpOSC 3000;
#X obj 44 -38 OSCroute /in1;
#X obj 146 -36 OSCroute /in2;
#X obj 240 -34 OSCroute /in3;
#X obj 146 17 osc/slg.parse;
#X obj 240 17 osc/slg.parse;
#X floatatom 44 51 5 0 0 0 - - -;
#X floatatom 146 56 5 0 0 0 - - -;
#X floatatom 240 55 5 0 0 0 - - -;
#X text 40 76 EDA;
#X text 144 80 HB;
#X text 242 80 HRV;
#X obj 45 381 unpack f f;
#X msg 79 348 3 110;
#X msg 128 349 87 20;
#X obj 45 459 line;
#X obj 102 460 line;
#X obj 102 408 t f b;
#X obj 45 414 t f b;
#X obj 45 626 s synth;
#X msg 310 527 noise \$1;
#X msg 182 523 evenodd \$1;
#X msg 441 530 detune \$1;
#X msg 98 528 x \$1;
#X msg 45 528 y \$1;
#X msg 131 433 10000;
#X obj 182 491 line;
#X obj 311 482 line;
#X obj 312 435 t f b;
#X obj 182 440 t f b;
#X obj 442 474 line;
#X obj 442 429 t f b;
#X msg 181 408 50;
#X msg 239 407 100;
#X msg 311 404 2;
#X msg 370 404 30;
#X msg 442 386 0;
#X msg 505 388 50;
#X msg 45 348 2 2;
#X msg 210 409 75;
#X msg 340 404 15;
#X msg 471 387 25;
#X floatatom 354 83 5 0 0 0 - - -;
#X obj 354 -58 vsl 15 128 0 1 0 0 empty empty empty 0 -9 0 10 -262144
-1 -1 0 1;
#X obj 45 182 expr ($f1 < 0.3);
#X obj 166 182 expr ($f1 < 0.6);
#X obj 149 224 +;
#X obj 291 183 expr ($f1 < 0.9);
#X obj 276 240 +;
#X obj 148 283 sel 1;
#X obj 148 307 bng 15 250 50 0 empty empty empty 17 7 0 10 -262144
-1 -1;
#X obj 148 260 change;
#X obj 276 289 sel 1;
#X obj 276 313 bng 15 250 50 0 empty empty empty 17 7 0 10 -262144
-1 -1;
#X obj 276 266 change;
#X obj 46 285 sel 1;
#X obj 46 309 bng 15 250 50 0 empty empty empty 17 7 0 10 -262144 -1
-1;
#X obj 46 262 change;
#N canvas 0 22 450 300 garbage 0;
#X obj 777 328 moses 0.3;
#X obj 744 297 moses 0.6;
#X obj 712 266 moses 0.9;
#X obj 602 444 expr 127 - $f1;
#X msg 602 470 3 \$1;
#X msg 780 474 \$1 2;
#X obj 602 412 maxlib/scale 0.3 0.6 0 127;
#X obj 779 410 maxlib/scale 0.6 0.9 0 127;
#X obj 777 355 maxlib/scale 0 0.3 0 127;
#X floatatom 791 444 5 0 0 0 - - -;
#X floatatom 702 442 5 0 0 0 - - -;
#X connect 0 0 8 0;
#X connect 1 0 0 0;
#X connect 2 0 1 0;
#X connect 3 0 4 0;
#X connect 6 0 3 0;
#X connect 6 0 10 0;
#X connect 7 0 5 0;
#X connect 7 0 9 0;
#X restore 454 238 pd garbage;
#X obj 82 27 s EDA;
#X obj 291 148 r EDA;
#X obj 323 292 r EDA;
#X obj 182 354 r EDA;
#X obj 373 114 s EDA;
#X floatatom 377 296 5 0 0 0 - - -;
#X floatatom 336 366 5 0 0 0 - - -;
#X obj 323 327 maxlib/scale 0 1 2 30;
#X obj 442 364 maxlib/scale 0 1 0 50;
#X obj 181 379 maxlib/scale 0 1 0 100;
#X obj 188 52 s HR;
#X obj 475 324 r HR;
#X obj 428 -57 vsl 15 128 0 1 0 0 empty empty empty 0 -9 0 10 -262144
-1 -1 0 1;
#X obj 428 83 s HR;
#X obj 470 -57 vsl 15 128 0 1 0 0 empty empty empty 0 -9 0 10 -262144
-1 -1 0 1;
#X obj 470 83 s HRV;
#X obj 280 55 s HRV;
#X obj 514 324 r HRV;
#X obj 535 -47 vsl 15 128 0 1 0 0 empty empty empty 0 -9 0 10 -262144
-1 -1 0 1;
#X obj 609 -46 vsl 15 128 0 1 0 0 empty empty empty 0 -9 0 10 -262144
-1 -1 0 1;
#X obj 662 -45 vsl 15 128 0 1 0 0 empty empty empty 0 -9 0 10 -262144
-1 -1 0 1;
#X obj 536 -69 r EDA;
#X obj 610 -69 r HR;
#X obj 660 -69 r HRV;
#X obj 156 -68 gate;
#X obj 155 -92 tgl 15 0 empty empty empty 17 7 0 10 -262144 -1 -1 0
1;
#X connect 0 0 7 0;
#X connect 0 0 60 0;
#X connect 1 0 84 1;
#X connect 2 0 0 0;
#X connect 3 0 5 0;
#X connect 4 0 6 0;
#X connect 5 0 8 0;
#X connect 5 0 70 0;
#X connect 6 0 9 0;
#X connect 6 0 76 0;
#X connect 13 0 19 0;
#X connect 13 1 18 0;
#X connect 14 0 13 0;
#X connect 15 0 13 0;
#X connect 16 0 25 0;
#X connect 17 0 24 0;
#X connect 18 0 17 0;
#X connect 18 1 26 0;
#X connect 19 0 16 0;
#X connect 19 1 26 0;
#X connect 21 0 20 0;
#X connect 22 0 20 0;
#X connect 23 0 20 0;
#X connect 24 0 20 0;
#X connect 25 0 20 0;
#X connect 26 0 16 1;
#X connect 26 0 17 1;
#X connect 26 0 27 1;
#X connect 26 0 28 1;
#X connect 26 0 31 1;
#X connect 27 0 22 0;
#X connect 28 0 21 0;
#X connect 29 0 28 0;
#X connect 29 1 26 0;
#X connect 30 0 27 0;
#X connect 30 1 26 0;
#X connect 31 0 23 0;
#X connect 32 0 31 0;
#X connect 32 1 26 0;
#X connect 33 0 30 0;
#X connect 34 0 30 0;
#X connect 35 0 29 0;
#X connect 36 0 29 0;
#X connect 37 0 32 0;
#X connect 38 0 32 0;
#X connect 39 0 13 0;
#X connect 40 0 30 0;
#X connect 41 0 29 0;
#X connect 42 0 32 0;
#X connect 44 0 43 0;
#X connect 44 0 45 0;
#X connect 44 0 46 0;
#X connect 44 0 48 0;
#X connect 44 0 64 0;
#X connect 45 0 47 0;
#X connect 45 0 58 0;
#X connect 46 0 47 1;
#X connect 47 0 49 0;
#X connect 47 0 52 0;
#X connect 48 0 49 1;
#X connect 49 0 55 0;
#X connect 50 0 51 0;
#X connect 50 0 14 0;
#X connect 52 0 50 0;
#X connect 53 0 54 0;
#X connect 53 0 15 0;
#X connect 55 0 53 0;
#X connect 56 0 57 0;
#X connect 56 0 39 0;
#X connect 58 0 56 0;
#X connect 61 0 48 0;
#X connect 61 0 46 0;
#X connect 61 0 45 0;
#X connect 62 0 65 0;
#X connect 62 0 67 0;
#X connect 63 0 69 0;
#X connect 67 0 29 0;
#X connect 67 0 66 0;
#X connect 68 0 32 0;
#X connect 69 0 30 0;
#X connect 72 0 73 0;
#X connect 74 0 75 0;
#X connect 81 0 78 0;
#X connect 82 0 79 0;
#X connect 83 0 80 0;
#X connect 84 0 2 0;
#X connect 84 0 3 0;
#X connect 84 0 4 0;
#X connect 85 0 84 0;
#X restore 246 -57 pd osc;
#X obj 424 11 r synth;
#X connect 0 0 2 0;
#X connect 0 1 2 1;
#X connect 0 1 11 0;
#X connect 0 2 18 1;
#X connect 2 0 1 0;
#X connect 2 1 1 1;
#X connect 4 0 5 0;
#X connect 4 1 5 1;
#X connect 5 0 0 0;
#X connect 19 0 18 0;
#X connect 22 0 0 1;
