#N canvas 42 252 823 520 10;
#N canvas 68 33 482 433 filterednoise 0;
#X obj -21 103 noise~;
#X obj -22 199 bp~ 100 1;
#X obj 288 129 / 100;
#X obj 139 130 * 3;
#X floatatom 148 156 5 0 0 0 - - -;
#X obj 114 268 *~ 0;
#X obj 114 201 bp~ 300 1;
#X obj 135 247 / 127;
#X obj -22 267 *~ 0;
#X obj -1 247 / 127;
#X obj 114 335 *~;
#X obj 309 317 / 100;
#X floatatom 309 344 5 0 0 0 - - -;
#X obj 330 276 *~ 0;
#X obj 351 255 / 127;
#X obj 330 209 bp~ 700 1;
#X obj 355 127 * 9;
#X obj 364 154 nbx 5 14 -1e+37 1e+37 0 0 empty empty empty 0 -6 0 10
-262144 -1 -1 8889.9 256;
#X text -20 -13 fundfreq \, qfactor \, leveloff \, levelon \, natt
\, ndec \, nsus \, nrel;
#X floatatom 161 277 5 0 0 0 - - -;
#X floatatom 373 281 5 0 0 0 - - -;
#X floatatom 34 272 5 0 0 0 - - -;
#X obj 114 365 outlet~;
#X obj 167 25 inlet;
#X obj 139 102 r \$0-fund;
#X obj 355 97 r \$0-fund;
#X obj 167 76 s \$0-fund;
#X obj 167 50 route f0 q low mid high noise;
#X connect 0 0 1 0;
#X connect 0 0 6 0;
#X connect 0 0 15 0;
#X connect 1 0 8 0;
#X connect 2 0 1 2;
#X connect 2 0 6 2;
#X connect 2 0 15 2;
#X connect 3 0 4 0;
#X connect 3 0 6 1;
#X connect 5 0 10 0;
#X connect 6 0 5 0;
#X connect 7 0 5 1;
#X connect 7 0 19 0;
#X connect 8 0 10 0;
#X connect 9 0 8 1;
#X connect 9 0 21 0;
#X connect 10 0 22 0;
#X connect 11 0 10 1;
#X connect 11 0 12 0;
#X connect 13 0 10 0;
#X connect 14 0 13 1;
#X connect 14 0 20 0;
#X connect 15 0 13 0;
#X connect 16 0 15 1;
#X connect 16 0 17 0;
#X connect 23 0 27 0;
#X connect 24 0 3 0;
#X connect 24 0 1 1;
#X connect 25 0 16 0;
#X connect 27 0 26 0;
#X connect 27 1 2 0;
#X connect 27 2 9 0;
#X connect 27 3 7 0;
#X connect 27 4 14 0;
#X connect 27 5 11 0;
#X restore 67 405 pd filterednoise;
#X obj 461 342 oscbank~;
#N canvas 506 29 854 368 harmonic-bank 0;
#X obj 42 131 slg.harmonic 1;
#X obj 244 339 outlet;
#X obj 244 19 inlet;
#X obj 142 106 r \$0-one;
#X obj 143 140 r \$0-two;
#X obj 133 169 r \$0-three;
#X obj 136 224 r \$0-five;
#X obj 354 117 r \$0-six;
#X obj 355 151 r \$0-seven;
#X obj 344 179 r \$0-eight;
#X obj 354 210 r \$0-nine;
#X obj 348 235 r \$0-ten;
#X obj 541 120 r \$0-eleven;
#X obj 542 155 r \$0-twelve;
#X obj 533 183 r \$0-thirteen;
#X obj 541 214 r \$0-fourteen;
#X obj 535 238 r \$0-fifteen;
#X obj 753 107 r \$0-sixteen;
#X obj 753 137 r \$0-seventeen;
#X obj 756 166 r \$0-eighteen;
#X obj 759 199 r \$0-nineteen;
#X obj 754 224 r \$0-twenty;
#X obj 142 199 r \$0-four;
#X obj 43 161 slg.harmonic 2;
#X obj 44 190 slg.harmonic 3;
#X obj 42 219 slg.harmonic 4;
#X obj 44 252 slg.harmonic 5;
#X obj 245 126 slg.harmonic 6;
#X obj 243 155 slg.harmonic 7;
#X obj 244 185 slg.harmonic 8;
#X obj 244 216 slg.harmonic 9;
#X obj 243 251 slg.harmonic 10;
#X obj 425 126 slg.harmonic 11;
#X obj 426 154 slg.harmonic 12;
#X obj 428 187 slg.harmonic 13;
#X obj 429 221 slg.harmonic 14;
#X obj 426 249 slg.harmonic 15;
#X obj 643 124 slg.harmonic 16;
#X obj 644 154 slg.harmonic 17;
#X obj 645 183 slg.harmonic 18;
#X obj 645 216 slg.harmonic 19;
#X obj 646 241 slg.harmonic 20;
#X obj 376 15 inlet;
#X text 415 15 detune;
#X connect 0 0 1 0;
#X connect 2 0 0 0;
#X connect 2 0 23 0;
#X connect 2 0 24 0;
#X connect 2 0 25 0;
#X connect 2 0 26 0;
#X connect 2 0 27 0;
#X connect 2 0 28 0;
#X connect 2 0 29 0;
#X connect 2 0 30 0;
#X connect 2 0 31 0;
#X connect 2 0 32 0;
#X connect 2 0 33 0;
#X connect 2 0 34 0;
#X connect 2 0 35 0;
#X connect 2 0 36 0;
#X connect 2 0 37 0;
#X connect 2 0 38 0;
#X connect 2 0 39 0;
#X connect 2 0 40 0;
#X connect 2 0 41 0;
#X connect 3 0 0 1;
#X connect 4 0 23 1;
#X connect 5 0 24 1;
#X connect 6 0 26 1;
#X connect 7 0 27 1;
#X connect 8 0 28 1;
#X connect 9 0 29 1;
#X connect 10 0 30 1;
#X connect 11 0 31 1;
#X connect 12 0 32 1;
#X connect 13 0 33 1;
#X connect 14 0 34 1;
#X connect 15 0 35 1;
#X connect 16 0 36 1;
#X connect 17 0 37 1;
#X connect 18 0 38 1;
#X connect 19 0 39 1;
#X connect 20 0 40 1;
#X connect 21 0 41 1;
#X connect 22 0 25 1;
#X connect 23 0 1 0;
#X connect 24 0 1 0;
#X connect 25 0 1 0;
#X connect 26 0 1 0;
#X connect 27 0 1 0;
#X connect 28 0 1 0;
#X connect 29 0 1 0;
#X connect 30 0 1 0;
#X connect 31 0 1 0;
#X connect 32 0 1 0;
#X connect 33 0 1 0;
#X connect 34 0 1 0;
#X connect 35 0 1 0;
#X connect 36 0 1 0;
#X connect 37 0 1 0;
#X connect 38 0 1 0;
#X connect 39 0 1 0;
#X connect 40 0 1 0;
#X connect 41 0 1 0;
#X connect 42 0 0 2;
#X connect 42 0 23 2;
#X connect 42 0 24 2;
#X connect 42 0 25 2;
#X connect 42 0 26 2;
#X connect 42 0 27 2;
#X connect 42 0 28 2;
#X connect 42 0 29 2;
#X connect 42 0 30 2;
#X connect 42 0 31 2;
#X connect 42 0 32 2;
#X connect 42 0 33 2;
#X connect 42 0 34 2;
#X connect 42 0 35 2;
#X connect 42 0 36 2;
#X connect 42 0 37 2;
#X connect 42 0 38 2;
#X connect 42 0 39 2;
#X connect 42 0 40 2;
#X connect 42 0 41 2;
#X restore 461 315 pd harmonic-bank;
#X obj 460 289 slg.vibrato;
#X msg 26 178 f0 \$1;
#X msg 192 287 low \$1;
#X msg 193 308 mid \$1;
#X msg 192 329 high \$1;
#X msg 62 203 noise \$1;
#N canvas 537 33 865 735 control-freqs 0;
#X obj 162 185 bng 15 250 50 0 empty empty empty 0 -6 0 10 -262144
-1 -1;
#X obj 18 333 vsl 15 128 0 127 0 0 empty empty empty 0 -8 0 10 -262144
-1 -1 12400 1;
#X obj 73 335 vsl 15 128 0 127 0 0 empty empty empty 0 -8 0 10 -262144
-1 -1 100 1;
#X obj 73 307 * 1;
#X obj 104 226 * 0.9;
#X obj 104 250 * 0.9;
#X obj 104 333 vsl 15 128 0 127 0 0 empty empty empty 0 -8 0 10 -262144
-1 -1 90 1;
#X obj 734 -24 * 0.9;
#X obj 734 -2 * 0.9;
#X obj 735 20 * 0.9;
#X obj 735 41 * 0.9;
#X obj 735 61 * 0.9;
#X obj 735 85 * 0.9;
#X obj 735 108 * 0.9;
#X obj 735 130 * 0.9;
#X obj 735 151 * 0.9;
#X obj 735 173 * 0.9;
#X obj 736 195 * 0.9;
#X obj 736 217 * 0.9;
#X obj 736 240 * 0.9;
#X obj 736 262 * 0.9;
#X obj 144 336 vsl 15 128 0 127 0 0 empty empty empty 0 -8 0 10 -262144
-1 -1 81 1;
#X obj 144 308 * 1;
#X obj 181 331 vsl 15 128 0 127 0 0 empty empty empty 0 -8 0 10 -262144
-1 -1 200 1;
#X obj 219 337 vsl 15 128 0 127 0 0 empty empty empty 0 -8 0 10 -262144
-1 -1 180 1;
#X obj 219 309 * 1;
#X obj 250 335 vsl 15 128 0 127 0 0 empty empty empty 0 -8 0 10 -262144
-1 -1 162 1;
#X obj 292 335 vsl 15 128 0 127 0 0 empty empty empty 0 -8 0 10 -262144
-1 -1 146 1;
#X obj 292 307 * 1;
#X obj 323 333 vsl 15 128 0 127 0 0 empty empty empty 0 -8 0 10 -262144
-1 -1 131 1;
#X obj 363 337 vsl 15 128 0 127 0 0 empty empty empty 0 -8 0 10 -262144
-1 -1 118 1;
#X obj 363 309 * 1;
#X obj 394 335 vsl 15 128 0 127 0 0 empty empty empty 0 -8 0 10 -262144
-1 -1 106 1;
#X obj 435 337 vsl 15 128 0 127 0 0 empty empty empty 0 -8 0 10 -262144
-1 -1 96 1;
#X obj 435 309 * 1;
#X obj 466 335 vsl 15 128 0 127 0 0 empty empty empty 0 -8 0 10 -262144
-1 -1 86 1;
#X obj 507 337 vsl 15 128 0 127 0 0 empty empty empty 0 -8 0 10 -262144
-1 -1 77 1;
#X obj 507 309 * 1;
#X obj 538 335 vsl 15 128 0 127 0 0 empty empty empty 0 -8 0 10 -262144
-1 -1 70 1;
#X obj 583 338 vsl 15 128 0 127 0 0 empty empty empty 0 -8 0 10 -262144
-1 -1 63 1;
#X obj 583 310 * 1;
#X obj 614 336 vsl 15 128 0 127 0 0 empty empty empty 0 -8 0 10 -262144
-1 -1 56 1;
#X obj 657 340 vsl 15 128 0 127 0 0 empty empty empty 0 -8 0 10 -262144
-1 -1 51 1;
#X obj 657 312 * 1;
#X obj 696 337 vsl 15 128 0 127 0 0 empty empty empty 0 -8 0 10 -262144
-1 -1 46 1;
#X obj 736 286 * 0.9;
#X obj 736 341 vsl 15 128 0 127 0 0 empty empty empty 0 -8 0 10 -262144
-1 -1 41 1;
#X obj 736 313 * 1;
#X obj 735 -77 bng 15 250 50 0 empty empty empty 0 -6 0 10 -262144
-1 -1;
#X obj 352 68 / 100;
#X obj 352 294 bng 15 250 50 0 empty empty empty 0 -6 0 10 -262144
-1 -1;
#X obj 17 473 s \$0-one;
#X obj 73 476 s \$0-two;
#X obj 34 577 s \$0-eleven;
#X obj 110 576 s \$0-twelve;
#X obj 183 577 s \$0-thirteen;
#X obj 268 579 s \$0-fourteen;
#X obj 352 579 s \$0-fifteen;
#X obj 432 579 s \$0-sixteen;
#X obj 512 578 s \$0-seventeen;
#X obj 605 576 s \$0-eighteen;
#X obj 691 576 s \$0-nineteen;
#X obj 776 575 s \$0-twenty;
#X obj 99 497 s \$0-three;
#X obj 169 499 s \$0-four;
#X obj 206 524 s \$0-five;
#X obj 277 542 s \$0-six;
#X obj 268 483 s \$0-seven;
#X obj 315 507 s \$0-eight;
#X obj 370 534 s \$0-nine;
#X obj 416 551 s \$0-ten;
#X obj 259 291 r \$0-evennorm;
#X obj 352 94 s \$0-evennorm;
#X obj 763 -80 r \$0-dfnorm;
#X obj 162 119 r \$0-dfnorm;
#X obj 235 -42 s \$0-dfnorm;
#X obj 99 -69 route low mid high even decay;
#X obj 18 120 r \$0-low;
#X obj 104 118 r \$0-mid;
#X obj 660 -77 r \$0-high;
#X obj 49 -42 s \$0-low;
#X obj 109 -42 s \$0-mid;
#X obj 167 -42 s \$0-high;
#X obj 99 -92 inlet;
#X connect 0 0 4 0;
#X connect 0 0 5 0;
#X connect 1 0 51 0;
#X connect 2 0 52 0;
#X connect 3 0 2 0;
#X connect 4 0 5 0;
#X connect 4 0 6 0;
#X connect 5 0 22 0;
#X connect 6 0 63 0;
#X connect 7 0 8 0;
#X connect 7 0 25 0;
#X connect 8 0 9 0;
#X connect 8 0 26 0;
#X connect 9 0 10 0;
#X connect 9 0 28 0;
#X connect 10 0 11 0;
#X connect 10 0 29 0;
#X connect 11 0 12 0;
#X connect 11 0 31 0;
#X connect 12 0 13 0;
#X connect 12 0 32 0;
#X connect 13 0 14 0;
#X connect 13 0 34 0;
#X connect 14 0 15 0;
#X connect 14 0 35 0;
#X connect 15 0 16 0;
#X connect 15 0 37 0;
#X connect 16 0 17 0;
#X connect 16 0 38 0;
#X connect 17 0 18 0;
#X connect 17 0 40 0;
#X connect 18 0 19 0;
#X connect 18 0 41 0;
#X connect 19 0 20 0;
#X connect 19 0 43 0;
#X connect 20 0 44 0;
#X connect 20 0 45 0;
#X connect 21 0 64 0;
#X connect 22 0 21 0;
#X connect 23 0 65 0;
#X connect 24 0 66 0;
#X connect 25 0 24 0;
#X connect 26 0 67 0;
#X connect 27 0 68 0;
#X connect 28 0 27 0;
#X connect 29 0 69 0;
#X connect 30 0 70 0;
#X connect 31 0 30 0;
#X connect 32 0 53 0;
#X connect 33 0 54 0;
#X connect 34 0 33 0;
#X connect 35 0 55 0;
#X connect 36 0 56 0;
#X connect 37 0 36 0;
#X connect 38 0 57 0;
#X connect 39 0 58 0;
#X connect 40 0 39 0;
#X connect 41 0 59 0;
#X connect 42 0 60 0;
#X connect 43 0 42 0;
#X connect 44 0 61 0;
#X connect 45 0 47 0;
#X connect 46 0 62 0;
#X connect 47 0 46 0;
#X connect 48 0 7 0;
#X connect 48 0 8 0;
#X connect 48 0 9 0;
#X connect 48 0 10 0;
#X connect 48 0 11 0;
#X connect 48 0 12 0;
#X connect 48 0 13 0;
#X connect 48 0 14 0;
#X connect 48 0 15 0;
#X connect 48 0 16 0;
#X connect 48 0 17 0;
#X connect 48 0 18 0;
#X connect 48 0 19 0;
#X connect 48 0 20 0;
#X connect 48 0 45 0;
#X connect 49 0 50 0;
#X connect 49 0 72 0;
#X connect 50 0 22 0;
#X connect 50 0 25 0;
#X connect 50 0 28 0;
#X connect 50 0 31 0;
#X connect 50 0 34 0;
#X connect 50 0 37 0;
#X connect 50 0 40 0;
#X connect 50 0 43 0;
#X connect 50 0 47 0;
#X connect 71 0 3 1;
#X connect 71 0 22 1;
#X connect 71 0 25 1;
#X connect 71 0 28 1;
#X connect 71 0 31 1;
#X connect 71 0 34 1;
#X connect 71 0 37 1;
#X connect 71 0 40 1;
#X connect 71 0 43 1;
#X connect 71 0 47 1;
#X connect 73 0 48 0;
#X connect 73 0 7 1;
#X connect 73 0 8 1;
#X connect 73 0 9 1;
#X connect 73 0 10 1;
#X connect 73 0 11 1;
#X connect 73 0 12 1;
#X connect 73 0 13 1;
#X connect 73 0 14 1;
#X connect 73 0 15 1;
#X connect 73 0 16 1;
#X connect 73 0 17 1;
#X connect 73 0 18 1;
#X connect 73 0 19 1;
#X connect 73 0 20 1;
#X connect 73 0 45 1;
#X connect 74 0 0 0;
#X connect 74 0 4 1;
#X connect 74 0 5 1;
#X connect 76 0 80 0;
#X connect 76 1 81 0;
#X connect 76 2 82 0;
#X connect 76 3 49 0;
#X connect 76 4 75 0;
#X connect 77 0 1 0;
#X connect 78 0 4 0;
#X connect 78 0 3 0;
#X connect 79 0 7 0;
#X connect 79 0 23 0;
#X connect 83 0 76 0;
#X restore 298 405 pd control-freqs;
#X obj 270 455 +~;
#X obj 211 484 outlet~;
#X msg 459 197 on;
#X msg 488 197 off;
#X msg 79 257 q \$1;
#N canvas 264 22 294 250 geometrical-transform 0;
#X obj 158 -5 pack 0 50;
#X obj 158 23 line;
#X obj 88 -7 pack 0 50;
#X obj 88 21 line;
#X floatatom 45 63 5 0 0 0 - - -;
#X obj 88 102 expr ($f1 + $f2 -127) * -1;
#X obj 234 81 bng 15 250 50 0 empty empty empty 17 7 0 10 -262144 -1
-1;
#X floatatom 88 61 5 0 0 0 - - -;
#X floatatom 158 54 5 0 0 0 - - -;
#X obj 88 -38 inlet;
#X obj 158 -39 inlet;
#X obj 45 150 outlet;
#X obj 88 150 outlet;
#X obj 158 149 outlet;
#X connect 0 0 1 0;
#X connect 1 0 8 0;
#X connect 2 0 3 0;
#X connect 3 0 7 0;
#X connect 4 0 11 0;
#X connect 5 0 4 0;
#X connect 6 0 5 0;
#X connect 7 0 5 0;
#X connect 7 0 12 0;
#X connect 8 0 5 1;
#X connect 8 0 6 0;
#X connect 8 0 13 0;
#X connect 9 0 2 0;
#X connect 10 0 0 0;
#X restore 192 261 pd geometrical-transform;
#X obj 152 28 inlet;
#X msg 337 296 even \$1;
#X msg 337 317 decay \$1;
#X obj 25 42 inlet;
#X obj 28 82 unpack f f;
#X obj 476 404 multicurveadsr 0.9 10 10 100 10 0;
#X obj 140 195 sel 0;
#X obj 144 220 t b f;
#X msg 422 375 0;
#X obj 459 375 / 127;
#X msg 386 375 1;
#X obj 574 123 print param;
#X obj 437 446 *~;
#X obj 67 433 *~;
#X floatatom 20 130 5 0 0 0 - - -;
#X floatatom 72 133 5 0 0 0 - - -;
#X obj 30 105 mtof;
#X obj 270 483 outlet~;
#X obj 255 -12 loadbang;
#X floatatom 141 108 5 0 0 0 - - -;
#X floatatom 180 108 5 0 0 0 - - -;
#X msg 255 15 noise 2;
#X msg 360 13 f 5;
#X msg 465 13 x 60;
#X msg 501 12 y 60;
#X msg 538 12 even 50;
#X msg 592 12 decay 0.9;
#X msg 394 12 depth 100;
#X msg 309 14 q 100;
#X obj 152 59 route noise f0 q f depth x y vib even decay a d s r curve
detune;
#X msg 666 14 detune 0;
#X connect 0 0 29 0;
#X connect 1 0 28 0;
#X connect 2 0 1 0;
#X connect 3 0 2 0;
#X connect 4 0 0 0;
#X connect 5 0 0 0;
#X connect 5 0 9 0;
#X connect 6 0 0 0;
#X connect 6 0 9 0;
#X connect 7 0 0 0;
#X connect 7 0 9 0;
#X connect 8 0 0 0;
#X connect 10 0 11 0;
#X connect 10 0 33 0;
#X connect 12 0 3 0;
#X connect 13 0 3 0;
#X connect 14 0 0 0;
#X connect 15 0 5 0;
#X connect 15 1 6 0;
#X connect 15 2 7 0;
#X connect 16 0 45 0;
#X connect 17 0 9 0;
#X connect 18 0 9 0;
#X connect 19 0 20 0;
#X connect 20 0 30 0;
#X connect 20 0 32 0;
#X connect 20 1 22 0;
#X connect 20 1 31 0;
#X connect 21 0 28 1;
#X connect 21 0 29 1;
#X connect 22 0 24 0;
#X connect 22 1 23 0;
#X connect 23 0 26 0;
#X connect 23 1 25 0;
#X connect 24 0 21 0;
#X connect 25 0 21 1;
#X connect 26 0 21 0;
#X connect 28 0 10 1;
#X connect 29 0 10 0;
#X connect 32 0 3 1;
#X connect 32 0 4 0;
#X connect 34 0 37 0;
#X connect 34 0 44 0;
#X connect 34 0 38 0;
#X connect 34 0 43 0;
#X connect 34 0 39 0;
#X connect 34 0 40 0;
#X connect 34 0 41 0;
#X connect 34 0 42 0;
#X connect 34 0 46 0;
#X connect 37 0 45 0;
#X connect 38 0 45 0;
#X connect 39 0 45 0;
#X connect 40 0 45 0;
#X connect 41 0 45 0;
#X connect 42 0 45 0;
#X connect 43 0 45 0;
#X connect 44 0 45 0;
#X connect 45 0 8 0;
#X connect 45 0 35 0;
#X connect 45 1 4 0;
#X connect 45 1 3 1;
#X connect 45 1 36 0;
#X connect 45 2 14 0;
#X connect 45 3 3 2;
#X connect 45 4 3 3;
#X connect 45 5 15 0;
#X connect 45 6 15 1;
#X connect 45 7 3 0;
#X connect 45 8 17 0;
#X connect 45 9 18 0;
#X connect 45 10 21 2;
#X connect 45 11 21 3;
#X connect 45 12 21 4;
#X connect 45 13 21 5;
#X connect 45 14 21 6;
#X connect 45 15 2 1;
#X connect 46 0 45 0;
