#N canvas 9 319 547 392 10;
#X obj 101 137 probalizer 150 60 12 100 1 0 73 1 0 2 24 3 0 4 56 5
0 6 43 7 1 8 53 9 0 10 59 11 0;
#X text 126 182 D;
#X text 101 181 C;
#X text 153 181 E;
#X text 165 181 F;
#X text 189 181 G;
#X text 215 181 A;
#X text 239 183 B;
#X obj 102 231 + 59;
#X obj 100 34 inlet;
#X obj 102 263 outlet;
#X obj 303 15 Uzi 100;
#X obj 303 59 unpack f f f;
#X obj 242 15 bng 15 250 50 0 empty empty empty 0 -6 0 10 -262144 -1
-1;
#X msg 335 114 zero;
#X msg 303 37 0 4 7;
#X msg 273 249 0 4 7;
#X obj 273 278 + 2;
#X symbolatom 176 332 10 0 0 0 - - -;
#X obj 273 304 prepend set;
#X msg 273 329 4;
#X obj 100 63 bng 15 250 50 0 empty empty empty 0 -6 0 10 -262144 -1
-1;
#X obj 237 121 bng 10 250 50 0 empty empty empty 0 -6 0 10 -159808
-1 -1;
#N canvas 0 22 355 130 (c) 0;
#X obj 24 7 loadbang;
#X obj 24 67 print using;
#X msg 24 30 slg.randnotepick 2007 (c) Sylvain Le Groux <slegroux@iua.upf.edu>
;
#X connect 0 0 2 0;
#X connect 2 0 1 0;
#X restore 452 23 pd (c);
#X msg 429 175 substate \$1;
#X msg 402 175 set;
#X obj 402 153 t b f;
#X obj 402 197 originator \$1 \$0;
#X obj 105 121 hradio 10 1 0 12 empty empty empty 0 -6 0 10 -260097
-1 -1 0;
#X msg 330 172 50 30 20;
#X obj 395 252 commun probhist \$0;
#X connect 0 0 8 0;
#X connect 8 0 10 0;
#X connect 9 0 21 0;
#X connect 11 0 15 0;
#X connect 12 0 0 0;
#X connect 12 1 0 0;
#X connect 12 2 0 0;
#X connect 13 0 11 0;
#X connect 14 0 0 0;
#X connect 15 0 12 0;
#X connect 16 0 17 0;
#X connect 17 0 18 0;
#X connect 17 0 19 0;
#X connect 19 0 20 0;
#X connect 21 0 0 0;
#X connect 22 0 14 0;
#X connect 24 0 27 0;
#X connect 25 0 27 0;
#X connect 26 0 25 0;
#X connect 26 1 24 0;
#X connect 28 0 26 0;
#X connect 29 0 0 0;
#X coords 0 -1 1 1 152 100 1 100 100;
