#N canvas 0 22 490 340 10;
#X obj 102 102 cnv 15 65 16 empty empty empty 20 12 0 14 -233017 -66577
0;
#X symbolatom 103 103 5 0 0 0 - - -;
#X obj 103 32 inlet;
#X obj 103 53 rtc/note2pitch;
#X obj 103 78 rtc/show-pitchclass;
#X floatatom 163 105 5 0 0 0 - - -;
#X obj 210 104 outlet;
#X connect 2 0 3 0;
#X connect 3 0 4 0;
#X connect 3 0 5 0;
#X connect 3 0 6 0;
#X connect 4 0 1 0;
#X coords 0 -1 1 1 40 20 1 100 100;
