#N canvas 264 22 923 606 10;
#X obj 219 242 coll scale.coll;
#C restore;
#X obj 219 271 unpack 0 1 2 3 4 5 6 7 8 9 10 11;
#X floatatom 219 320 5 0 0 0 - - -;
#X floatatom 254 319 5 0 0 0 - - -;
#X floatatom 289 318 5 0 0 0 - - -;
#X floatatom 325 318 5 0 0 0 - - -;
#X floatatom 360 318 5 0 0 0 - - -;
#X floatatom 395 319 5 0 0 0 - - -;
#X floatatom 430 318 5 0 0 0 - - -;
#X floatatom 463 318 5 0 0 0 - - -;
#X floatatom 498 319 5 0 0 0 - - -;
#X floatatom 534 319 5 0 0 0 - - -;
#X floatatom 569 319 5 0 0 0 - - -;
#X floatatom 604 319 5 0 0 0 - - -;
#X obj 367 412 funnel 12;
#X obj 367 444 coll;
#C restore;
#X obj 102 131 popup 124 25 #ffffff popup chromatic major aeolian harmonic_minor
melodic_minor pentatonic whole_tone;
#X obj 267 409 pitch 30000;
#X obj 205 111 tgl 15 0 empty empty empty 0 -6 0 10 -262144 -1 -1 0
1;
#X obj 330 445 * 12;
#X obj 367 479 +;
#X obj 367 503 + 12;
#X obj 143 435 drunk 127 64;
#X obj 56 405 metro 250;
#X floatatom 56 462 5 0 0 0 - - -;
#X obj 56 436 drunk 127 13;
#X obj 61 530 outlet;
#X obj 357 532 outlet;
#X msg 96 53 options chromatic major aeolian harmonic_minor melodic_minor
pentatonic whole_tone;
#X msg 353 168 write /Users/sylvainlegroux/Projects/Roboser/scale.coll
;
#X obj 67 15 inlet;
#N canvas 0 22 355 238 (c) 0;
#X obj 46 40 loadbang;
#X obj 46 103 print using;
#X msg 46 68 slg.scalize (c) 2007 Sylvain Le Groux <slegroux@iua.upf.edu>
from R.Rowe;
#X connect 0 0 2 0;
#X connect 2 0 1 0;
#X restore 473 63 pd (c);
#X obj 105 16 inlet;
#X msg 353 212 read /Users/Shared/Musebot/scale.coll;
#X obj 352 126 loadbang;
#X connect 0 0 1 0;
#X connect 1 0 2 0;
#X connect 1 1 3 0;
#X connect 1 2 4 0;
#X connect 1 3 5 0;
#X connect 1 4 6 0;
#X connect 1 5 7 0;
#X connect 1 6 8 0;
#X connect 1 7 9 0;
#X connect 1 8 10 0;
#X connect 1 9 11 0;
#X connect 1 10 12 0;
#X connect 1 11 13 0;
#X connect 2 0 14 0;
#X connect 3 0 14 1;
#X connect 4 0 14 2;
#X connect 5 0 14 3;
#X connect 6 0 14 4;
#X connect 7 0 14 5;
#X connect 8 0 14 6;
#X connect 9 0 14 7;
#X connect 10 0 14 8;
#X connect 11 0 14 9;
#X connect 12 0 14 10;
#X connect 13 0 14 11;
#X connect 14 0 15 0;
#X connect 15 0 20 0;
#X connect 16 1 0 0;
#X connect 17 2 15 0;
#X connect 17 4 19 0;
#X connect 18 0 23 0;
#X connect 19 0 20 1;
#X connect 20 0 21 0;
#X connect 21 0 26 0;
#X connect 22 0 27 0;
#X connect 23 0 22 0;
#X connect 23 0 25 0;
#X connect 25 0 17 0;
#X connect 25 0 24 0;
#X connect 28 0 16 0;
#X connect 29 0 0 0;
#X connect 30 0 17 0;
#X connect 32 0 16 0;
#X connect 33 0 0 0;
#X connect 34 0 33 0;
#X coords 0 -1 1 1 130 60 1 100 100;
