#N canvas 15 22 1161 727 10;
#X obj 747 44 vsl 15 128 0 100 0 0 empty empty empty 0 -8 0 10 -262144
-1 -1 11430 1;
#X obj 241 -60 vsl 15 128 10 30 0 0 empty empty empty 0 -8 0 10 -262144
-1 -1 0 1;
#X obj 678 47 vsl 15 128 0 100 0 0 empty empty empty 0 -8 0 10 -262144
-1 -1 11430 1;
#X obj 232 82 * 2;
#X obj 233 107 * 3;
#X obj 233 133 * 4;
#X obj 235 156 * 5;
#X obj 235 179 * 6;
#X obj 235 202 * 7;
#X obj 236 227 * 8;
#X obj 747 182 s odd-amp;
#X obj 50 18 r odd-amp;
#X obj 678 183 s even-amp;
#X obj 66 47 r even-amp;
#X msg 373 -109 0;
#X obj 373 -86 s detune-all;
#X obj 156 36 r detune-all;
#X obj 21 358 slg.spectrum~;
#X floatatom 407 -111 5 0 0 0 - - -;
#X obj 334 79 * 2;
#X obj 328 106 * 3;
#X obj 328 132 * 4;
#X obj 330 155 * 5;
#X obj 330 178 * 6;
#X obj 330 201 * 7;
#X obj 331 226 * 8;
#X obj 328 -60 vsl 15 128 -100 100 0 0 empty empty empty 0 -8 0 10
-262144 -1 -1 4550 1;
#X obj 21 75 slg.osc-voice amp1 pit1;
#X obj 21 99 slg.osc-voice amp2 pit2;
#X obj 21 126 slg.osc-voice amp3 pit3;
#X obj 21 147 slg.osc-voice amp4 pit4;
#X obj 21 171 slg.osc-voice amp5 pit5;
#X obj 21 195 slg.osc-voice amp6 pit6;
#X obj 21 219 slg.osc-voice amp7 pit7;
#X obj 21 243 slg.osc-voice amp8 pit8;
#X floatatom 361 78 5 0 0 0 - - -;
#X floatatom 328 -81 5 0 0 0 - - -;
#X floatatom 269 66 5 0 0 0 - - -;
#X floatatom 241 -105 5 0 0 0 - - -;
#X obj 592 36 knob 32 32 0 1 0 0 empty empty empty 0 -8 0 8 -262144
-1 -1 0 1;
#X obj 603 323 line~;
#X obj 588 346 *~;
#X obj 819 -104 slg.audioonoff;
#X obj 241 -128 r pitch;
#X obj 676 -2 r ratio;
#X obj 400 -23 r harmonicity;
#X obj 373 -131 loadbang;
#X obj 591 -2 r intensity;
#X obj 524 193 r brightness;
#X obj 554 239 line;
#X floatatom 635 45 5 0 0 0 - - -;
#X msg 603 301 \$1 50;
#X obj 910 -104 loadbang;
#X obj 392 391 metro 500;
#X obj 392 370 tgl 15 0 empty empty empty 0 -6 0 10 -262144 -1 -1 1
1;
#X obj 331 516 line~;
#X obj 390 540 *~;
#X obj 390 567 dac~ 1 2 3 4;
#X obj 319 353 loadbang;
#X msg 319 374 1;
#X floatatom 472 365 5 0 0 0 - - -;
#X obj 630 374 r speed;
#X floatatom 630 395 5 0 0 0 - - -;
#X msg 554 216 \$1 150;
#X obj 636 445 random 5;
#X obj 241 -84 +;
#X floatatom 646 502 5 0 0 0 - - -;
#X floatatom 734 436 5 0 0 0 - - -;
#X obj 634 533 t b f;
#X obj 635 467 maxlib/scale 0 4 -2 2;
#X obj 390 432 slg.envelope;
#X obj 697 393 loadbang;
#X msg 698 415 5;
#X msg 730 415 200;
#N canvas 24 438 1260 366 INPUTS 0;
#X text 316 -52 pitch \, even/odd harmonic ratio \, harmonicity \,
intensity \, brightness;
#X obj 192 57 maxlib/scale 0 1 10 30;
#X obj 192 24 slg.parse;
#X obj 260 23 slg.parse;
#X obj 332 25 slg.parse;
#X obj 402 25 slg.parse;
#X obj 470 24 slg.parse;
#X obj 192 86 s pitch;
#X obj 263 103 s ratio;
#X obj 333 127 s harmonicity;
#X obj 404 186 s intensity;
#X obj 471 244 s brightness;
#X obj 333 101 maxlib/scale 0 1 -100 100;
#X obj 404 158 maxlib/scale 0 1 0 1;
#X obj 471 218 maxlib/scale 0 1 100 10000;
#X obj 263 78 maxlib/scale 0 1 0 100;
#X obj 192 -12 OSCroute /pitch /ratio /harmonicity /intensity /brightness
/speed;
#X obj 538 25 slg.parse;
#X obj 539 296 s speed;
#X obj 538 272 maxlib/scale 0 1 2000 200;
#X obj 190 -51 dumpOSC 6000;
#X connect 1 0 7 0;
#X connect 2 0 1 0;
#X connect 3 0 15 0;
#X connect 4 0 12 0;
#X connect 5 0 13 0;
#X connect 6 0 14 0;
#X connect 12 0 9 0;
#X connect 13 0 10 0;
#X connect 14 0 11 0;
#X connect 15 0 8 0;
#X connect 16 0 2 0;
#X connect 16 1 3 0;
#X connect 16 2 4 0;
#X connect 16 3 5 0;
#X connect 16 4 6 0;
#X connect 16 5 17 0;
#X connect 17 0 19 0;
#X connect 19 0 18 0;
#X connect 20 0 16 0;
#X restore 820 -36 pd INPUTS;
#X obj 889 131 slg.dafxbp~;
#X obj 854 85 noise~;
#X obj 905 446 *~;
#X obj 920 419 line~;
#X msg 920 397 \$1 50;
#X obj 1046 445 knob 32 32 0 1 0 0 empty empty empty 0 -8 0 8 -262144
-1 -1 930 1;
#X obj 859 509 +~;
#X obj 1091 81 mtof;
#X obj 1106 190 * 3;
#X obj 1102 263 * 9;
#X obj 1046 392 loadbang;
#X floatatom 1111 117 5 0 0 0 - - -;
#X obj 361 260 slg.dafxbp~;
#X obj 889 211 slg.dafxbp~;
#X obj 889 291 slg.dafxbp~;
#X text 928 28 noise component:;
#X text 33 -13 harmonic component:;
#X msg 1046 418 0.3;
#X msg 746 -3 90;
#X obj 726 265 maxlib/scale 0 1 0 0.3;
#X obj 319 549 env~;
#X floatatom 319 570 5 0 0 0 - - -;
#X obj 856 544 env~;
#X floatatom 856 565 5 0 0 0 - - -;
#X obj 521 532 env~;
#X floatatom 521 553 5 0 0 0 - - -;
#X obj 1011 509 ezdac~;
#X connect 0 0 10 0;
#X connect 1 0 3 0;
#X connect 1 0 4 0;
#X connect 1 0 5 0;
#X connect 1 0 6 0;
#X connect 1 0 7 0;
#X connect 1 0 8 0;
#X connect 1 0 9 0;
#X connect 1 0 27 2;
#X connect 1 0 37 0;
#X connect 1 0 82 0;
#X connect 2 0 12 0;
#X connect 3 0 28 2;
#X connect 4 0 29 2;
#X connect 5 0 30 2;
#X connect 6 0 31 2;
#X connect 7 0 32 2;
#X connect 8 0 33 2;
#X connect 9 0 34 2;
#X connect 11 0 27 1;
#X connect 11 0 29 1;
#X connect 11 0 31 1;
#X connect 11 0 33 1;
#X connect 13 0 28 1;
#X connect 13 0 30 1;
#X connect 13 0 32 1;
#X connect 13 0 34 1;
#X connect 14 0 15 0;
#X connect 14 0 36 0;
#X connect 16 0 28 3;
#X connect 16 0 30 3;
#X connect 16 0 31 3;
#X connect 16 0 32 3;
#X connect 16 0 33 3;
#X connect 16 0 34 3;
#X connect 18 0 15 0;
#X connect 19 0 28 3;
#X connect 20 0 29 3;
#X connect 21 0 30 3;
#X connect 22 0 31 3;
#X connect 23 0 32 3;
#X connect 24 0 33 3;
#X connect 25 0 34 3;
#X connect 26 0 19 0;
#X connect 26 0 20 0;
#X connect 26 0 21 0;
#X connect 26 0 22 0;
#X connect 26 0 23 0;
#X connect 26 0 24 0;
#X connect 26 0 25 0;
#X connect 26 0 35 0;
#X connect 27 0 28 0;
#X connect 28 0 29 0;
#X connect 29 0 30 0;
#X connect 30 0 31 0;
#X connect 31 0 32 0;
#X connect 32 0 33 0;
#X connect 33 0 34 0;
#X connect 34 0 17 0;
#X connect 34 0 87 0;
#X connect 36 0 26 0;
#X connect 38 0 65 0;
#X connect 39 0 51 0;
#X connect 39 0 94 0;
#X connect 40 0 41 1;
#X connect 41 0 81 0;
#X connect 43 0 38 0;
#X connect 44 0 2 0;
#X connect 45 0 36 0;
#X connect 46 0 14 0;
#X connect 46 0 93 0;
#X connect 47 0 39 0;
#X connect 47 0 50 0;
#X connect 48 0 63 0;
#X connect 49 0 87 1;
#X connect 51 0 40 0;
#X connect 52 0 42 0;
#X connect 53 0 64 0;
#X connect 53 0 70 0;
#X connect 54 0 53 0;
#X connect 56 0 57 1;
#X connect 56 0 57 0;
#X connect 56 0 57 2;
#X connect 56 0 57 3;
#X connect 56 0 95 0;
#X connect 56 0 101 0;
#X connect 56 0 101 1;
#X connect 58 0 59 0;
#X connect 59 0 54 0;
#X connect 60 0 53 1;
#X connect 61 0 53 1;
#X connect 61 0 62 0;
#X connect 63 0 49 0;
#X connect 64 0 67 0;
#X connect 64 0 69 0;
#X connect 65 0 1 0;
#X connect 68 0 38 0;
#X connect 68 1 65 1;
#X connect 69 0 66 0;
#X connect 69 0 68 0;
#X connect 70 0 55 0;
#X connect 70 0 56 0;
#X connect 70 0 99 0;
#X connect 71 0 72 0;
#X connect 71 0 73 0;
#X connect 72 0 70 2;
#X connect 73 0 70 1;
#X connect 75 0 77 0;
#X connect 76 0 75 0;
#X connect 76 0 88 0;
#X connect 76 0 89 0;
#X connect 77 0 81 1;
#X connect 78 0 77 1;
#X connect 79 0 78 0;
#X connect 80 0 79 0;
#X connect 81 0 56 1;
#X connect 81 0 97 0;
#X connect 82 0 75 1;
#X connect 82 0 83 0;
#X connect 82 0 84 0;
#X connect 82 0 86 0;
#X connect 83 0 88 1;
#X connect 84 0 89 1;
#X connect 85 0 92 0;
#X connect 87 0 41 0;
#X connect 88 0 77 0;
#X connect 89 0 77 0;
#X connect 92 0 80 0;
#X connect 93 0 0 0;
#X connect 93 0 2 0;
#X connect 94 0 80 0;
#X connect 95 0 96 0;
#X connect 97 0 98 0;
#X connect 99 0 100 0;
