#N canvas 0 22 1199 889 10;
#N canvas 284 32 476 424 jazzman 0;
#X obj 2 2 cnv 15 300 200 empty empty JAZZMAN 20 12 0 14 -257472 -66577
0;
#X obj 2 33 cnv 15 300 48 empty empty empty 20 12 0 14 -228992 -66577
0;
#X obj 2 88 cnv 15 300 48 empty empty empty 20 12 0 14 -228992 -66577
0;
#X obj 3 145 cnv 15 300 48 empty empty empty 20 12 0 14 -228992 -66577
0;
#X obj 67 156 vsl 12 32 0 1 0 0 empty empty Kick 0 -8 0 8 -24198 -1
-1 1550 1;
#X obj 23 156 vsl 12 32 0 1 0 0 empty empty HH 0 -8 0 8 -258699 -1
-1 1550 1;
#X obj 109 156 vsl 12 32 0 1 0 0 empty empty Snare 0 -8 0 8 -260818
-1 -1 1550 1;
#X obj 109 44 vsl 12 32 2 0.5 0 0 empty empty busy 0 -8 0 8 -241291
-1 -1 1653 1;
#X obj 157 43 vsl 12 32 0.3 1.2 0 0 empty empty swing 0 -8 0 8 -260818
-1 -1 2136 1;
#X obj 65 43 vsl 12 32 50 800 0 0 empty empty speed 0 -8 0 8 -44926
-1 -1 1831 1;
#X obj 514 18 loadbang;
#X obj 22 100 vsl 12 32 1 8 0 0 empty empty hihat_steps 0 -8 0 8 -261689
-1 -1 1771 1;
#X obj 197 101 vsl 12 32 1 12 0 0 empty empty snare_runs 0 -8 0 8 -261681
-1 -1 564 1;
#X obj 109 102 vsl 12 32 1 12 0 0 empty empty kick_runs 0 -8 0 8 -225271
-1 -1 564 1;
#X obj 241 156 vsl 12 32 1 4 1 0 empty empty distort 0 -8 0 8 -250685
-1 -1 1550 1;
#X obj 159 156 vsl 12 32 70 4000 0 0 empty empty F 0 -8 0 8 -44926
-1 -1 1207 1;
#X obj 198 156 vsl 12 32 0.1 6 1 0 empty empty Q 0 -8 0 8 -62784 -1
-1 1998 1;
#X obj 21 44 vsl 12 32 0 1 0 0 empty empty vol 0 -8 0 8 -262131 -1
-1 1572 1;
#X obj 110 253 s \$0-busy;
#X obj 195 233 s \$0-swing;
#X obj 65 224 s \$0-speed;
#X obj 22 324 s \$0-hhsteps;
#X obj 112 327 s \$0-kicksteps;
#X obj 375 167 s \$0-snaresteps;
#X obj 111 278 s \$0-snarel;
#X obj 543 268 s \$0-filq;
#X obj 67 300 s \$0-kickl;
#X obj 380 269 s \$0-filf;
#X obj 22 278 s \$0-hhl;
#X obj 23 249 s \$0-mainvol;
#X msg 383 51 1600;
#X msg 424 51 1.4;
#X msg 348 51 0.5;
#N canvas 50 128 721 765 gubbins 0;
#X floatatom 313 167 0 0 144 0 - - -;
#N canvas 0 22 338 265 loadsamples 0;
#X obj 22 200 soundfiler;
#X obj 72 134 makefilename #0-drum%d;
#X obj 22 156 pack s s;
#X msg 22 179 read -resize \$1 \$2;
#X msg 47 23 bang;
#X obj 47 66 until;
#X obj 47 87 f 0;
#X obj 75 87 + 1;
#X obj 109 87 sel 31;
#X msg 103 53 0;
#X obj 99 21 loadbang;
#X obj 22 114 makefilename ./sounds/kit/1/sound%d.wav;
#X connect 1 0 2 1;
#X connect 2 0 3 0;
#X connect 3 0 0 0;
#X connect 4 0 5 0;
#X connect 5 0 6 0;
#X connect 6 0 7 0;
#X connect 6 0 8 0;
#X connect 6 0 1 0;
#X connect 6 0 11 0;
#X connect 7 0 6 1;
#X connect 8 0 5 1;
#X connect 8 0 9 0;
#X connect 9 0 6 1;
#X connect 10 0 5 0;
#X connect 11 0 2 0;
#X restore 408 -55 pd loadsamples;
#N canvas 413 172 716 241 tables 0;
#X obj 8 13 table #0-drum0 2048;
#X obj 8 33 table #0-drum1 2048;
#X obj 8 53 table #0-drum2 2048;
#X obj 8 72 table #0-drum3 2048;
#X obj 8 91 table #0-drum4 2048;
#X obj 8 111 table #0-drum5 2048;
#X obj 8 130 table #0-drum6 2048;
#X obj 8 150 table #0-drum7 2048;
#X obj 182 14 table #0-drum8 2048;
#X obj 182 34 table #0-drum9 2048;
#X obj 182 54 table #0-drum10 2048;
#X obj 182 73 table #0-drum11 2048;
#X obj 182 92 table #0-drum12 2048;
#X obj 182 112 table #0-drum13 2048;
#X obj 182 131 table #0-drum14 2048;
#X obj 182 151 table #0-drum15 2048;
#X obj 354 12 table #0-drum16 2048;
#X obj 354 32 table #0-drum17 2048;
#X obj 354 52 table #0-drum18 2048;
#X obj 354 71 table #0-drum19 2048;
#X obj 354 90 table #0-drum20 2048;
#X obj 354 110 table #0-drum21 2048;
#X obj 354 129 table #0-drum22 2048;
#X obj 354 149 table #0-drum23 2048;
#X obj 515 11 table #0-drum24 2048;
#X obj 515 31 table #0-drum25 2048;
#X obj 514 51 table #0-drum26 2048;
#X obj 515 70 table #0-drum27 2048;
#X obj 514 88 table #0-drum28 2048;
#X obj 515 109 table #0-drum29 2048;
#X obj 515 128 table #0-drum30 2048;
#X obj 515 148 table #0-drum31 2048;
#X restore 406 -32 pd tables;
#X obj 324 332 random 16;
#N canvas 857 418 404 338 playeri1 0;
#X obj 247 198 hip~ 5;
#X obj 247 145 vline~;
#X obj 247 173 tabread4~;
#X obj 247 222 *~ 0.5;
#X obj 180 115 r i1snum;
#X obj 247 115 r i1phase;
#X obj 323 29 inlet;
#X text 313 8 vol;
#X obj 43 162 makefilename #0-drum%d;
#X obj 42 118 max 0;
#X obj 42 140 min 31;
#X msg 43 184 \; i1snum set \$1 \; i1phase 1 \, 4.41e+08 1e+07 \;;
#X obj 40 46 inlet;
#X text 36 23 note/sound;
#X text 101 -16 i1;
#X obj 245 254 outlet~;
#X floatatom 102 57 5 0 0 0 - - -;
#X connect 0 0 3 0;
#X connect 1 0 2 0;
#X connect 2 0 0 0;
#X connect 3 0 15 0;
#X connect 4 0 2 0;
#X connect 5 0 1 0;
#X connect 6 0 3 1;
#X connect 8 0 11 0;
#X connect 9 0 10 0;
#X connect 10 0 8 0;
#X connect 12 0 9 0;
#X connect 16 0 9 0;
#X restore 499 379 pd playeri1;
#X obj 264 72 f;
#X obj 293 72 + 1;
#X obj 498 278 sel 0;
#X obj 491 197 sel 5 13;
#X obj 498 298 random 7;
#X obj 161 297 + 16;
#X obj 498 255 random 2;
#X floatatom 336 355 5 0 0 0 - - -;
#X floatatom 505 352 5 0 0 0 - - -;
#X obj 498 320 + 25;
#X obj 265 166 mod 16;
#X obj 264 96 / 2;
#X obj 264 118 int;
#X obj 265 139 change;
#N canvas 0 22 425 381 playeri3 0;
#X obj 247 198 hip~ 5;
#X obj 247 145 vline~;
#X obj 247 173 tabread4~;
#X obj 247 222 *~ 0.5;
#X obj 323 29 inlet;
#X text 313 8 vol;
#X obj 43 162 makefilename #0-drum%d;
#X obj 42 118 max 0;
#X obj 42 140 min 31;
#X obj 40 46 inlet;
#X text 36 23 note/sound;
#X text 101 -16 i1;
#X obj 245 254 outlet~;
#X msg 43 184 \; i3snum set \$1 \; i3phase 1 \, 4.41e+08 1e+07 \;;
#X obj 247 115 r i3phase;
#X obj 180 115 r i3snum;
#X connect 0 0 3 0;
#X connect 1 0 2 0;
#X connect 2 0 0 0;
#X connect 3 0 12 0;
#X connect 4 0 3 1;
#X connect 6 0 13 0;
#X connect 7 0 8 0;
#X connect 8 0 6 0;
#X connect 9 0 7 0;
#X connect 14 0 1 0;
#X connect 15 0 2 0;
#X restore 324 401 pd playeri3;
#N canvas 0 22 437 393 playeri2 0;
#X obj 247 198 hip~ 5;
#X obj 247 145 vline~;
#X obj 247 173 tabread4~;
#X obj 247 222 *~ 0.5;
#X obj 323 29 inlet;
#X text 313 8 vol;
#X obj 43 162 makefilename #0-drum%d;
#X obj 42 118 max 0;
#X obj 42 140 min 31;
#X obj 40 46 inlet;
#X text 36 23 note/sound;
#X text 101 -16 i1;
#X obj 245 254 outlet~;
#X msg 43 184 \; i2snum set \$1 \; i2phase 1 \, 4.41e+08 1e+07 \;;
#X obj 247 115 r i2phase;
#X obj 180 115 r i2snum;
#X connect 0 0 3 0;
#X connect 1 0 2 0;
#X connect 2 0 0 0;
#X connect 3 0 12 0;
#X connect 4 0 3 1;
#X connect 6 0 13 0;
#X connect 7 0 8 0;
#X connect 8 0 6 0;
#X connect 9 0 7 0;
#X connect 14 0 1 0;
#X connect 15 0 2 0;
#X restore 166 405 pd playeri2;
#X obj 292 44 del 100;
#X obj 350 -5 / 2;
#N canvas 700 314 579 279 rupto 0;
#X obj 106 124 f;
#X obj 135 124 + 1;
#X obj 146 176 sel 1;
#X msg 148 199 0;
#X obj 164 25 inlet;
#X floatatom 204 155 5 0 0 0 - - -;
#X floatatom 89 162 5 0 0 0 - - -;
#X msg 191 50 bang;
#X obj 145 153 >=;
#X obj 96 96 spigot;
#X msg 160 73 1;
#X obj 54 161 t b;
#X obj 98 24 inlet;
#X obj 54 207 outlet;
#X text 83 7 metro;
#X text 162 8 trigbang;
#X text 286 129 send out random bangs at metro freq when triggered
;
#X obj 193 101 random 6;
#X obj 290 20 inlet;
#X obj 46 60 tgl 15 0 empty empty empty 0 -6 0 10 -262144 -1 -1 0 1
;
#X obj 119 234 bng 15 250 50 0 empty empty empty 0 -6 0 10 -262144
-1 -1;
#X obj 77 57 bng 15 250 50 0 empty empty empty 0 -6 0 10 -262144 -1
-1;
#X connect 0 0 1 0;
#X connect 0 0 6 0;
#X connect 0 0 8 0;
#X connect 0 0 11 0;
#X connect 1 0 0 1;
#X connect 2 0 3 0;
#X connect 3 0 0 1;
#X connect 3 0 9 1;
#X connect 4 0 7 0;
#X connect 4 0 10 0;
#X connect 7 0 17 0;
#X connect 8 0 2 0;
#X connect 9 0 0 0;
#X connect 10 0 9 1;
#X connect 11 0 13 0;
#X connect 11 0 20 0;
#X connect 12 0 9 0;
#X connect 17 0 5 0;
#X connect 17 0 8 1;
#X connect 18 0 17 1;
#X connect 19 0 9 0;
#X connect 21 0 9 0;
#X restore 497 232 pd rupto;
#X obj 291 271 sel 0 8;
#N canvas 0 22 745 282 rupto 0;
#X obj 106 124 f;
#X obj 135 124 + 1;
#X obj 146 176 sel 1;
#X msg 148 199 0;
#X obj 164 25 inlet;
#X floatatom 204 155 5 0 0 0 - - -;
#X floatatom 89 162 5 0 0 0 - - -;
#X msg 191 50 bang;
#X obj 145 153 >=;
#X obj 96 96 spigot;
#X msg 160 73 1;
#X obj 54 161 t b;
#X obj 98 24 inlet;
#X obj 59 207 outlet;
#X text 83 7 metro;
#X text 162 8 trigbang;
#X text 286 129 send out random bangs at metro freq when triggered
;
#X obj 193 101 random 6;
#X obj 290 20 inlet;
#X obj 63 52 bng 15 250 50 0 empty empty empty 0 -6 0 10 -262144 -1
-1;
#X connect 0 0 1 0;
#X connect 0 0 6 0;
#X connect 0 0 8 0;
#X connect 0 0 11 0;
#X connect 1 0 0 1;
#X connect 2 0 3 0;
#X connect 3 0 0 1;
#X connect 3 0 9 1;
#X connect 4 0 7 0;
#X connect 4 0 10 0;
#X connect 7 0 17 0;
#X connect 8 0 2 0;
#X connect 9 0 0 0;
#X connect 10 0 9 1;
#X connect 11 0 13 0;
#X connect 12 0 9 0;
#X connect 17 0 5 0;
#X connect 17 0 8 1;
#X connect 18 0 17 1;
#X connect 19 0 9 0;
#X restore 324 310 pd rupto;
#X obj 161 274 mod 7;
#X obj 160 236 int;
#X floatatom 160 257 5 0 0 0 - - -;
#X obj 138 -43 t;
#X obj 300 -19 f;
#X floatatom 89 -52 5 0 0 0 - - -;
#X floatatom 371 70 5 0 0 0 - - -;
#X obj 239 11 metro 300;
#X obj 352 24 * 0.6;
#X msg 311 -45 300;
#X obj 311 -66 loadbang;
#X obj 546 147 int;
#X floatatom 573 176 5 0 0 0 - - -;
#X obj 423 120 int;
#X floatatom 454 121 5 0 0 0 - - -;
#X obj 355 529 dist~;
#X obj 354 606 outlet~;
#X obj 325 479 vcf~;
#X obj 355 579 *~;
#X obj 172 -77 r \$0-busy;
#X floatatom 172 -50 5 0 0 0 - - -;
#X obj 87 -87 r \$0-swing;
#X obj 284 -87 r \$0-speed;
#X obj 570 358 r \$0-snarel;
#X obj 372 555 r \$0-mainvol;
#X obj 392 378 r \$0-kickl;
#X obj 375 428 r \$0-filq;
#X obj 307 427 r \$0-filf;
#X obj 232 380 r \$0-hhl;
#X obj 104 152 r \$0-hhsteps;
#X obj 425 95 r \$0-kicksteps;
#X obj 546 117 r \$0-snaresteps;
#X obj 386 508 max 0.5;
#X obj 385 486 min 5;
#X obj 386 464 r \$0-distort;
#X obj 30 -76 inlet;
#X text 16 -95 go;
#X obj 126 550 bng 15 250 50 0 empty empty empty 0 -6 0 10 -262144
-1 -1;
#X obj 148 550 bng 15 250 50 0 empty empty empty 0 -6 0 10 -262144
-1 -1;
#X obj 169 550 bng 15 250 50 0 empty empty empty 0 -6 0 10 -262144
-1 -1;
#X connect 3 0 19 0;
#X connect 3 0 12 0;
#X connect 3 0 64 0;
#X connect 4 0 43 0;
#X connect 5 0 6 0;
#X connect 5 0 16 0;
#X connect 6 0 5 1;
#X connect 7 0 9 0;
#X connect 8 0 23 1;
#X connect 8 1 23 1;
#X connect 9 0 14 0;
#X connect 10 0 20 0;
#X connect 10 0 63 0;
#X connect 11 0 7 0;
#X connect 14 0 4 0;
#X connect 14 0 13 0;
#X connect 14 0 65 0;
#X connect 15 0 0 0;
#X connect 15 0 8 0;
#X connect 15 0 24 0;
#X connect 15 0 26 0;
#X connect 16 0 17 0;
#X connect 17 0 18 0;
#X connect 18 0 15 0;
#X connect 19 0 43 0;
#X connect 20 0 43 0;
#X connect 21 0 5 0;
#X connect 21 0 23 0;
#X connect 21 0 25 0;
#X connect 22 0 34 0;
#X connect 23 0 11 0;
#X connect 24 0 25 1;
#X connect 24 1 25 1;
#X connect 25 0 3 0;
#X connect 26 0 10 0;
#X connect 27 0 28 0;
#X connect 27 0 26 1;
#X connect 29 0 30 0;
#X connect 30 0 22 0;
#X connect 30 0 33 1;
#X connect 33 0 21 0;
#X connect 33 0 5 0;
#X connect 33 0 25 0;
#X connect 33 0 23 0;
#X connect 34 0 21 1;
#X connect 34 0 32 0;
#X connect 35 0 30 0;
#X connect 36 0 35 0;
#X connect 37 0 38 0;
#X connect 37 0 23 2;
#X connect 39 0 40 0;
#X connect 39 0 25 2;
#X connect 41 0 44 0;
#X connect 43 0 41 0;
#X connect 44 0 42 0;
#X connect 45 0 16 1;
#X connect 45 0 29 0;
#X connect 45 0 46 0;
#X connect 47 0 29 0;
#X connect 47 0 31 0;
#X connect 47 0 34 1;
#X connect 48 0 30 0;
#X connect 49 0 4 1;
#X connect 50 0 44 1;
#X connect 51 0 19 1;
#X connect 52 0 43 2;
#X connect 53 0 43 1;
#X connect 54 0 20 1;
#X connect 55 0 27 0;
#X connect 56 0 39 0;
#X connect 57 0 37 0;
#X connect 58 0 41 1;
#X connect 59 0 58 0;
#X connect 60 0 59 0;
#X connect 61 0 33 0;
#X restore 500 126 pd gubbins;
#X obj 500 149 outlet~;
#X obj 115 15 tgl 15 0 empty empty start 0 -6 0 8 -262144 -1 -1 1 1
;
#X msg 567 50 5;
#X msg 606 48 3;
#X obj 609 267 s \$0-distort;
#X msg 522 49 0.92;
#X msg 458 52 230;
#X msg 491 51 1.2;
#X msg 677 48 2;
#X msg 641 49 0.6;
#X obj 20 -32 inlet;
#X obj 65 -32 inlet;
#X obj 115 -31 inlet;
#X connect 4 0 26 0;
#X connect 5 0 28 0;
#X connect 6 0 24 0;
#X connect 7 0 18 0;
#X connect 8 0 19 0;
#X connect 9 0 20 0;
#X connect 10 0 31 0;
#X connect 10 0 30 0;
#X connect 10 0 32 0;
#X connect 10 0 40 0;
#X connect 10 0 41 0;
#X connect 10 0 39 0;
#X connect 10 0 36 0;
#X connect 10 0 37 0;
#X connect 10 0 43 0;
#X connect 10 0 42 0;
#X connect 11 0 21 0;
#X connect 12 0 23 0;
#X connect 13 0 22 0;
#X connect 14 0 38 0;
#X connect 15 0 27 0;
#X connect 16 0 25 0;
#X connect 17 0 29 0;
#X connect 30 0 15 0;
#X connect 31 0 16 0;
#X connect 32 0 6 0;
#X connect 32 0 4 0;
#X connect 32 0 5 0;
#X connect 33 0 34 0;
#X connect 35 0 33 0;
#X connect 36 0 11 0;
#X connect 37 0 13 0;
#X connect 37 0 12 0;
#X connect 39 0 8 0;
#X connect 40 0 9 0;
#X connect 41 0 7 0;
#X connect 42 0 14 0;
#X connect 43 0 17 0;
#X connect 44 0 17 0;
#X connect 45 0 9 0;
#X connect 46 0 35 0;
#X coords 0 0 1 1 304 204 1 0 0;
#X restore 30 338 pd jazzman;
#X obj 162 67 vsl 40 128 0 1 0 0 empty empty empty 0 -8 0 10 -260097
-1 -1 7800 1;
#X obj 336 0 tgl 40 0 empty empty empty 0 -6 0 10 -258113 -1 -1 1 1
;
#X obj 141 -27 dumpOSC 6000;
#X obj 141 -4 OSCroute /physio2roboser;
#X obj 650 -35 loadbang;
#X msg 694 -7 1;
#X msg 650 -6 0;
#X obj 141 20 slg.parse;
#X obj 1391 88 slg.pianoroll;
#X obj 410 541 slg.randnotepick;
#X obj 410 672 - 12;
#X obj 437 256 metro 800;
#X obj 410 701 +;
#X obj 577 540 slg.randnotepick;
#X msg 426 456 1;
#X msg 463 455 2;
#X obj 1392 482 slg.randnotepick;
#X obj 487 496 gate 3;
#X obj 437 312 mod 16;
#X obj 437 283 f 0;
#X obj 465 284 + 1;
#X obj 437 360 bng 15 250 50 0 empty empty empty 0 -6 0 10 -262144
-1 -1;
#X obj 437 337 sel 0 1 2 3 4 5 6 7 8 9 10 11 12 13 14 15;
#X obj 1391 225 slg.miniseq;
#X obj 612 698 slg.spectralsynth20~;
#X obj 36 774 slg.gain1-6out~;
#X floatatom 459 672 5 0 0 0 - - -;
#X obj 410 726 - 60;
#X floatatom 410 750 5 0 0 0 - - -;
#X obj 1392 357 slg.randnotepick;
#X obj 787 671 maxlib/scale 0 1 50 85;
#N canvas 457 288 545 570 fmbasid 0;
#X obj 123 9 r hub;
#X obj 31 88 random 8;
#X floatatom 31 118 5 0 0 0 - - -;
#X obj 31 145 hradio 20 1 0 8 empty empty empty 0 -6 0 8 -262144 -1
-1 4;
#N canvas 177 22 578 515 presets 0;
#X obj 23 7 inlet;
#X obj 23 47 pack f \$0;
#X obj 23 77 route 0 1 2 3 4 5 6 7;
#X text 29 109 1 -2 - 3 -4 -5 - 6 -7 -8;
#X msg 23 247 \; \$1-preset61 33 \; \$1-preset62 7.5 61.16 5.25 2079.3
8.63 1100.81 5.63 \; \$1-preset63 0.08 2568.55 0.06 672.72 0;
#X msg 40 237 \; \$1-preset61 42 \; \$1-preset62 7.5 61.16 5.25 2079.3
8.63 764.45 10.5 336.36 5.63 \; \$1-preset63 0.09 1590.06 0.03 978.49
0.06 672.72 0;
#X msg 58 224 \; \$1-preset61 70 \; \$1-preset62 7.5 61.16 5.25 1161.96
8.25 917.34 8.63 764.45 10.5 336.36 5.63 \; \$1-preset63 0.08 978.5
0.09 611.56 0.03 978.49 0.06 672.72 0;
#X msg 76 213 \; \$1-preset61 42 \; \$1-preset62 7.5 61.16 5.25 1161.96
8.25 917.34 8.63 703.29 5.25 397.52 5.63 \; \$1-preset63 0.06 1131.39
0.05 2079.3 0.11 30.5801 0;
#X msg 94 198 \; \$1-preset61 14 \; \$1-preset62 7.5 61.16 5.25 1161.96
8.25 917.34 8.63 703.29 5.25 397.52 5.63 \; \$1-preset63 0.06 1131.39
0.05 2079.3 0.11 30.5801 0;
#X msg 111 186 \; \$1-preset61 50 \; \$1-preset62 7.5 61.16 5.25 1161.96
8.25 917.34 8.63 764.45 10.5 336.36 5.63 \; \$1-preset63 0.02 947.92
0.06 642.14 0.03 978.49 0.06 672.72 0;
#X msg 129 166 \; \$1-preset61 14 \; \$1-preset62 7.5 61.16 5.25 2079.3
8.63 764.45 10.5 336.36 5.63 \; \$1-preset63 0.06 1590.06 0.03 978.49
0.06 672.72 0;
#X msg 147 151 \; \$1-preset61 29 \; \$1-preset62 11.63 1773.52 3 366.94
8.63 1100.81 5.63 \; \$1-preset63 0.05 2568.55 0.06 672.72 0;
#X obj 36 473 print ..1;
#X obj 142 473 print ..2;
#X obj 259 473 print ..3;
#X obj 36 442 r \$0-preset61;
#X obj 142 442 r \$0-preset62;
#X obj 259 442 r \$0-preset63;
#X text 184 78 fmbacid presets;
#X connect 0 0 1 0;
#X connect 1 0 2 0;
#X connect 2 0 4 0;
#X connect 2 1 5 0;
#X connect 2 2 6 0;
#X connect 2 3 7 0;
#X connect 2 4 8 0;
#X connect 2 5 9 0;
#X connect 2 6 10 0;
#X connect 2 7 11 0;
#X restore 31 178 pd presets;
#X floatatom 31 311 5 0 0 0 - - -;
#X obj 31 336 sig~;
#X obj 128 335 sig~;
#X obj 33 399 *~;
#X text 67 338 carrier;
#X obj 31 283 mtof;
#N canvas 78 62 904 546 functions 0;
#X obj 154 298 outlet;
#X obj 357 298 outlet;
#X text 271 269 fmod;
#X text 468 269 amp;
#X obj 270 -7 r hub;
#X floatatom 270 62 5 0 0 0 - - -;
#X text 313 61 dur;
#X obj 156 154 envgen 150 100 1 0  ;
#X msg 270 93 duration \$1;
#X obj 359 154 envgen 150 100 1 0  ;
#X obj 535 298 outlet;
#X obj 537 154 envgen 150 100 1 0  ;
#X text 623 269 cutoff env;
#X obj 270 29 * 33.33;
#X obj 384 69 r blinblin;
#X obj 535 69 r aceed;
#X obj 154 32 r \$0-preset62;
#X obj 357 -7 r \$0-preset63;
#X obj 535 100 bng 15 250 50 0 empty empty empty 0 -6 0 8 -262144 -1
-1;
#X obj 384 100 bng 15 250 50 0 empty empty empty 0 -6 0 8 -262144 -1
-1;
#X msg 487 41 24 9.38 1212.93 0 6564.07;
#X text 493 20 constant preset;
#X text 754 205 fmbacid;
#X connect 4 0 13 0;
#X connect 5 0 8 0;
#X connect 7 0 0 0;
#X connect 8 0 7 0;
#X connect 8 0 9 0;
#X connect 9 0 1 0;
#X connect 11 0 10 0;
#X connect 13 0 5 0;
#X connect 14 0 19 0;
#X connect 15 0 18 0;
#X connect 16 0 7 0;
#X connect 17 0 9 0;
#X connect 17 0 20 0;
#X connect 18 0 11 0;
#X connect 19 0 9 0;
#X connect 19 0 7 0;
#X connect 20 0 11 0;
#X restore 224 227 pd functions;
#X msg 128 309 1;
#X obj 34 485 lores~;
#X obj 304 403 +~ 1;
#X obj 327 315 r cutoff;
#X floatatom 327 372 5 0 0 0 - - -;
#X obj 327 344 mtof;
#X floatatom 304 492 5 0 0 0 - - -;
#X obj 123 40 * 768;
#X obj 31 227 r blinblin;
#X obj 31 255 - 24;
#X msg 304 467 0.42;
#X obj 136 266 r \$0-preset61;
#X obj 409 441 r \$0-preset61;
#X msg 409 474 0;
#X obj 398 326 r \$0-preset61;
#X obj 224 335 line~;
#X obj 263 381 line~;
#X obj 303 285 line~;
#X obj 30 10 r on.off-33;
#X obj 128 227 r strtbang-15;
#X obj 304 441 r strtbang-16;
#X obj 33 365 simpleFM~;
#X obj 34 509 outlet~;
#X obj 31 58 metro 15000;
#X connect 0 0 19 0;
#X connect 1 0 2 0;
#X connect 2 0 3 0;
#X connect 3 0 4 0;
#X connect 5 0 6 0;
#X connect 6 0 33 0;
#X connect 7 0 33 1;
#X connect 8 0 13 0;
#X connect 10 0 5 0;
#X connect 11 0 27 0;
#X connect 11 1 28 0;
#X connect 11 2 29 0;
#X connect 12 0 7 0;
#X connect 13 0 34 0;
#X connect 14 0 13 1;
#X connect 15 0 17 0;
#X connect 16 0 14 1;
#X connect 17 0 16 0;
#X connect 18 0 13 2;
#X connect 19 0 35 1;
#X connect 20 0 21 0;
#X connect 21 0 10 0;
#X connect 22 0 18 0;
#X connect 23 0 12 0;
#X connect 24 0 25 0;
#X connect 25 0 18 0;
#X connect 26 0 17 0;
#X connect 27 0 33 2;
#X connect 28 0 8 1;
#X connect 29 0 14 0;
#X connect 30 0 35 0;
#X connect 31 0 12 0;
#X connect 32 0 22 0;
#X connect 33 0 8 0;
#X connect 35 0 1 0;
#X restore 37 601 pd fmbasid;
#X obj 454 689 send blinblin;
#X obj 336 45 s on.off-33;
#X obj 612 674 r on.off-33;
#X obj 37 630 slg.gain~;
#X msg 104 609 4;
#X text 327 -40 start music;
#X obj 696 183 slg.convolution~;
#X obj 742 116 slg.loadsample~;
#X obj 576 110 slg.wind~;
#X obj 179 307 maxlib/scale 0 1 800 300;
#X obj 30 308 maxlib/scale 0 1 0.2 0.7;
#X obj 671 67 r blinblin;
#X obj 671 88 + 24;
#X obj 576 82 r on.off-33;
#X obj 742 95 r on.off-33;
#X msg 815 92 /Users/Shared/Roboser/wav/samples/chilld_high_down.wav
;
#X obj 431 84 maxlib/scale 0 1 1 1.5;
#X obj 28 38 s aceed;
#X obj 28 -4 random 10;
#X obj 28 16 + 60;
#X obj 28 -23 bng 15 250 50 0 empty empty empty 0 -6 0 10 -262144 -1
-1;
#X obj 422 -8 slg.audioonoff;
#X floatatom 115 41 5 0 0 0 - - -;
#X text 21 132 Input from Physio;
#X text 48 149 0--1;
#N canvas 38 22 632 472 fmintermit 0;
#X floatatom 243 49 5 0 0 0 - - -;
#X obj 243 131 sig~;
#X obj 350 131 sig~;
#X text 279 132 carrier;
#X floatatom 350 92 5 0 0 0 - - -;
#N canvas 304 157 611 452 functions 0;
#X obj 125 230 outlet;
#X obj 288 230 outlet;
#X obj 127 102 envgen 150 100 1 0  ;
#X obj 290 102 envgen 150 100 1 0  ;
#X text 225 209 fmod;
#X text 402 209 amp;
#X obj 249 55 bng 15 250 50 0 empty empty empty 0 -6 0 8 -262144 -1
-1;
#X obj 249 26 r intermit;
#X obj 125 54 r \$0-preset55;
#X obj 288 54 r \$0-preset56;
#X text 495 152 fmintermit;
#X connect 2 0 0 0;
#X connect 3 0 1 0;
#X connect 6 0 3 0;
#X connect 6 0 2 0;
#X connect 7 0 6 0;
#X connect 8 0 2 0;
#X connect 9 0 3 0;
#X restore 456 19 pd functions;
#X obj 32 260 random 8;
#X floatatom 32 292 5 0 0 0 - - -;
#X obj 32 325 hradio 20 1 0 8 empty empty empty 0 -6 0 8 -262144 -1
-1 2;
#N canvas 64 22 749 640 presets 0;
#X obj 35 7 inlet;
#X obj 35 39 pack f \$0;
#X obj 35 70 route 0 1 2 3 4 5 6 7;
#X obj 55 589 print ..1;
#X obj 161 589 print ..2;
#X obj 268 589 print ..3;
#X obj 379 589 print ..4;
#X obj 55 558 r \$0-preset51;
#X obj 161 558 r \$0-preset52;
#X obj 268 558 r \$0-preset53;
#X obj 379 558 r \$0-preset54;
#X obj 492 558 r \$0-preset55;
#X obj 602 558 r \$0-preset56;
#X obj 492 589 print ..5;
#X obj 602 589 print ..6;
#X msg 35 362 \; \$1-preset51 57 \; \$1-preset52 58 \; \$1-preset53
0.07 \; \$1-preset54 126 \; \$1-preset55 22.88 571.01 22.88 \; \$1-preset56
0.09 35.69 0.02 157.03 0.03 149.89 0 256.95 0.06 162.3 0;
#X msg 70 278 \; \$1-preset51 24 \; \$1-preset52 105 \; \$1-preset53
0.07 \; \$1-preset54 48 \; \$1-preset55 24 14.26 0 249.5 3 406.32 12.75
520.38 22.5 684.33 21 777 21.75 \; \$1-preset56 0.2 14.26 0 285.13
0.05 7.12997 0.03 242.37 0.02 128.31 0.08 83.68 0;
#X msg 88 247 \; \$1-preset51 54 \; \$1-preset52 105 \; \$1-preset53
0.07 \; \$1-preset54 126 \; \$1-preset55 10.5 377.81 21.75 28.51 12.75
114.06 22.5 163.95 21 92.67 21.75 \; \$1-preset56 0.11 220.98 0.03
256.63 0.03 64.15 0.13 135.44 0.08 83.68 0;
#X msg 106 217 \; \$1-preset51 51 \; \$1-preset52 75 \; \$1-preset53
0.07 \; \$1-preset54 60 \; \$1-preset55 24 128.31 14.63 142.57 7.13
242.37 1.88 263.75 0 \; \$1-preset56 0.09 57.03 0.03 278.01 0 163.95
0.06 42.77 0.13 135.44 0.08 83.68 0;
#X msg 123 185 \; \$1-preset51 33 \; \$1-preset52 47 \; \$1-preset53
0.07 \; \$1-preset54 51 \; \$1-preset55 24 92.67 9.38 235.24 9.38 185.34
1.88 263.75 0 \; \$1-preset56 0.16 21.39 0.05 313.65 0.08 163.95 0.06
42.77 0.13 135.44 0.08 83.68 0;
#X msg 141 147 \; \$1-preset51 63 \; \$1-preset52 91 \; \$1-preset53
0.07 \; \$1-preset54 126 \; \$1-preset55 22.88 570.28 22.88 \; \$1-preset56
0.13 14.26 0 142.57 0 192.46 0.05 411.59 0;
#X msg 159 111 \; \$1-preset51 42 \; \$1-preset52 38 \; \$1-preset53
0.42 \; \$1-preset54 72 \; \$1-preset55 4.88 741.36 1.5 \; \$1-preset56
0.28 370.68 0.27 135.44 0.2 99.8 0.39 64.15 0.3 85.55 0.27 5.26001
0;
#X msg 126 251 \; \$1-preset51 42 \; \$1-preset52 98 \; \$1-preset53
0.07 \; \$1-preset54 50 \; \$1-preset55 24 292.27 21.38 228.11 22.5
163.95 21 92.67 21.75 \; \$1-preset56 0.11 42.77 0 634.43 0.08 83.68
0;
#X text 195 70 fmintermit presets;
#X connect 0 0 1 0;
#X connect 1 0 2 0;
#X connect 2 0 15 0;
#X connect 2 1 22 0;
#X connect 2 2 16 0;
#X connect 2 3 17 0;
#X connect 2 4 18 0;
#X connect 2 5 19 0;
#X connect 2 6 20 0;
#X connect 2 7 21 0;
#X restore 32 363 pd presets;
#X msg 350 57 300;
#X obj 243 19 r intermit;
#X obj 243 75 mtof;
#X floatatom 243 104 5 0 0 0 - - -;
#X obj 246 346 lores~;
#X obj 315 260 r cutoff;
#X obj 264 293 mtof;
#X msg 315 293 0.07;
#X floatatom 264 320 5 0 0 0 - - -;
#X floatatom 315 320 5 0 0 0 - - -;
#X obj 119 31 r \$0-preset51;
#X obj 264 234 r \$0-preset52;
#X obj 355 302 r \$0-preset53;
#X obj 244 169 simpleFM~ ---------------------;
#X obj 245 206 *~;
#X obj 456 131 line~;
#X obj 525 183 line~;
#X obj 350 19 r strtbang-13;
#X obj 246 378 outlet~;
#X obj 32 175 r on.off-33;
#X obj 32 230 metro 17000;
#X obj 405 56 loadbang;
#X connect 0 0 12 0;
#X connect 1 0 23 0;
#X connect 2 0 23 1;
#X connect 4 0 2 0;
#X connect 5 0 25 0;
#X connect 5 1 26 0;
#X connect 6 0 7 0;
#X connect 7 0 8 0;
#X connect 8 0 9 0;
#X connect 10 0 4 0;
#X connect 11 0 0 0;
#X connect 12 0 13 0;
#X connect 13 0 1 0;
#X connect 14 0 28 0;
#X connect 15 0 16 0;
#X connect 15 0 17 0;
#X connect 16 0 18 0;
#X connect 17 0 19 0;
#X connect 18 0 14 1;
#X connect 19 0 14 2;
#X connect 20 0 0 0;
#X connect 21 0 16 0;
#X connect 22 0 19 0;
#X connect 23 0 24 0;
#X connect 24 0 14 0;
#X connect 25 0 23 2;
#X connect 26 0 24 1;
#X connect 27 0 10 0;
#X connect 29 0 30 0;
#X connect 30 0 6 0;
#X connect 31 0 10 0;
#X restore 185 612 pd fmintermit;
#X obj 185 632 slg.gain~;
#N canvas 17 308 528 589 intermitten 0;
#X obj 172 130 r hub;
#X obj 94 228 metro;
#X obj 144 181 * 32;
#X obj 196 181 * 16;
#X obj 166 272 metro;
#X obj 94 276 tgl 15 0 empty empty empty 0 -6 0 8 -262144 -1 -1 0 1
;
#X obj 72 181 t f f f;
#X msg 19 230 0;
#X obj 21 129 inlet;
#X obj 94 336 tgl 15 0 empty empty empty 0 -6 0 8 -262144 -1 -1 0 1
;
#X obj 19 372 s zeroff;
#X obj 271 111 inlet;
#X obj 271 181 + 24;
#X obj 271 255 change;
#X obj 364 255 - 24;
#X obj 446 192 r hub;
#X obj 416 246 metro;
#X obj 446 220 * 5;
#X floatatom 364 282 5 0 0 0 - - -;
#X floatatom 271 282 5 0 0 0 - - -;
#X floatatom 288 390 5 0 0 0 - - -;
#X obj 288 416 t b f;
#X obj 288 454 s intermit;
#X obj 19 258 t f f f;
#X obj 416 164 r on.off-3;
#X obj 94 302 max.gswitch;
#X obj 288 351 max.gswitch;
#X obj 271 226 max.split 0 64;
#X obj 271 148 max.split 0 64;
#X obj 72 130 r on.off-33;
#X connect 0 0 2 0;
#X connect 0 0 3 0;
#X connect 1 0 5 0;
#X connect 2 0 1 1;
#X connect 3 0 4 1;
#X connect 4 0 25 2;
#X connect 5 0 25 0;
#X connect 6 0 7 0;
#X connect 6 1 1 0;
#X connect 6 2 4 0;
#X connect 7 0 23 0;
#X connect 8 0 7 0;
#X connect 9 0 26 0;
#X connect 11 0 28 0;
#X connect 12 0 27 0;
#X connect 13 0 19 0;
#X connect 14 0 18 0;
#X connect 15 0 17 0;
#X connect 16 0 26 2;
#X connect 17 0 16 1;
#X connect 18 0 26 1;
#X connect 19 0 26 1;
#X connect 20 0 21 0;
#X connect 21 0 22 0;
#X connect 21 1 22 0;
#X connect 23 0 10 0;
#X connect 23 1 9 0;
#X connect 23 2 5 0;
#X connect 24 0 16 0;
#X connect 25 0 9 0;
#X connect 26 0 20 0;
#X connect 27 0 13 0;
#X connect 27 1 14 0;
#X connect 28 0 12 0;
#X connect 28 1 27 0;
#X connect 29 0 6 0;
#X restore 780 547 pd intermitten;
#X obj 861 520 + 24;
#X obj 860 480 random 120;
#X floatatom 882 500 5 0 0 0 - - -;
#X floatatom 911 428 5 0 0 0 - - -;
#X obj 859 399 r on.off-33;
#X obj 860 449 metro 500;
#X obj 860 373 maxlib/scale 0 1 800 300;
#X obj 184 586 maxlib/scale 0 1 0.5 4.5;
#N canvas 0 22 430 402 out-levels 0;
#X obj 5 -4 slg.multiout8~;
#X restore 910 -15 pd out-levels;
#X obj 437 231 r on.off-33;
#X obj 328 288 r on.off-33;
#X obj 162 203 s control;
#X obj 30 286 r control;
#X obj 179 285 r control;
#X obj 431 62 r control;
#X obj 184 563 r control;
#X obj 860 350 r control;
#X obj 787 649 r control;
#X obj 651 20 s lb0;
#X obj 694 15 s lb1;
#X obj 422 -27 r lb1;
#X obj 336 -21 r lb1;
#X obj 163 45 r lb0;
#X obj 815 71 r lb0;
#X obj 426 434 r lb0;
#X obj 104 587 r lb0;
#X obj 36 751 catch~ out;
#X obj 696 251 throw~ out;
#X obj 37 697 throw~ out;
#X obj 612 812 throw~ out;
#X obj 185 700 throw~ out;
#X obj 29 547 throw~ out;
#X obj 215 46 slg.parse;
#X obj 215 22 OSCroute /volume;
#X obj 215 69 s volume;
#X obj 129 732 r volume;
#X obj 129 753 maxlib/scale 0 1 -20 3;
#X connect 0 0 92 0;
#X connect 1 0 72 0;
#X connect 2 0 34 0;
#X connect 3 0 4 0;
#X connect 3 0 94 0;
#X connect 4 0 8 0;
#X connect 5 0 6 0;
#X connect 5 0 7 0;
#X connect 6 0 80 0;
#X connect 7 0 79 0;
#X connect 8 0 55 0;
#X connect 10 0 11 0;
#X connect 11 0 13 0;
#X connect 11 0 27 0;
#X connect 11 0 33 0;
#X connect 12 0 20 0;
#X connect 13 0 28 0;
#X connect 14 0 11 0;
#X connect 15 0 18 0;
#X connect 16 0 18 0;
#X connect 18 0 10 0;
#X connect 18 1 14 0;
#X connect 19 0 23 0;
#X connect 20 0 21 0;
#X connect 20 0 19 0;
#X connect 21 0 20 1;
#X connect 23 0 22 0;
#X connect 23 0 18 1;
#X connect 23 4 18 1;
#X connect 23 8 18 1;
#X connect 23 12 18 1;
#X connect 24 0 30 0;
#X connect 25 0 90 0;
#X connect 28 0 29 0;
#X connect 28 0 25 2;
#X connect 31 0 25 1;
#X connect 32 0 36 0;
#X connect 35 0 25 0;
#X connect 36 0 89 0;
#X connect 37 0 36 1;
#X connect 39 0 88 0;
#X connect 40 0 39 1;
#X connect 41 0 39 0;
#X connect 42 0 0 1;
#X connect 42 0 12 1;
#X connect 43 0 0 0;
#X connect 44 0 45 0;
#X connect 45 0 41 2;
#X connect 46 0 41 0;
#X connect 47 0 40 3;
#X connect 47 0 40 0;
#X connect 48 0 40 1;
#X connect 49 0 41 1;
#X connect 51 0 52 0;
#X connect 52 0 50 0;
#X connect 53 0 51 0;
#X connect 58 0 59 0;
#X connect 59 0 91 0;
#X connect 61 0 60 1;
#X connect 62 0 61 0;
#X connect 63 0 61 1;
#X connect 64 0 66 1;
#X connect 65 0 66 0;
#X connect 66 0 62 0;
#X connect 67 0 64 0;
#X connect 68 0 59 1;
#X connect 70 0 12 0;
#X connect 71 0 0 2;
#X connect 73 0 43 0;
#X connect 74 0 42 0;
#X connect 75 0 49 0;
#X connect 76 0 68 0;
#X connect 77 0 67 0;
#X connect 78 0 31 0;
#X connect 81 0 54 0;
#X connect 82 0 2 0;
#X connect 83 0 1 0;
#X connect 84 0 48 0;
#X connect 85 0 15 0;
#X connect 86 0 37 0;
#X connect 87 0 26 0;
#X connect 93 0 95 0;
#X connect 94 0 93 0;
#X connect 96 0 97 0;
#X connect 97 0 26 1;
