#N canvas 486 22 762 706 10;
#X declare -path .. -path score -path ../../lib;
#X obj 242 258 t b f;
#X obj 238 381 route 1 2 3 4 5 6 7 8;
#X obj 272 233 unpack 0 0 0 0 0 0 0 0;
#X obj 238 352 pack 0 0 0 0 0 0 0 0 0;
#X obj 134 537 declare -path .. -path score -path ../../lib;
#X obj 272 171 pack 0 0 0 0 0 0 0 0;
#X obj 570 600 ezdac~;
#N canvas 645 410 600 392 samples 0;
#N canvas 0 22 450 300 (subpatch) 0;
#X array sample1 176403 float 0;
#X coords 0 1.02 176403 -1.02 200 130 1;
#X restore 262 41 graph;
#X text 282 385 ------ 4 seconds ------;
#N canvas 0 22 450 300 (subpatch) 0;
#X array sample2 176403 float 0;
#X coords 0 1.02 176403 -1.02 200 130 1;
#X restore 262 226 graph;
#X restore 523 122 pd samples;
#N canvas 389 22 967 340 recorder 0;
#X obj 220 21 inlet;
#X obj 174 174 adc~ 1;
#X obj 174 202 hip~ 5;
#X obj 243 232 line~;
#X obj 174 231 *~;
#X msg 243 204 1;
#X obj 302 169 del 3990;
#X msg 279 204 0 10;
#X obj 174 282 tabwrite~ sample1;
#X msg 26 117 set \$1 \, bang;
#X msg 348 140 stop;
#X msg 302 140 bang;
#X obj 220 50 route record stop reload browse;
#X obj 411 158 loadbang;
#X obj 514 113 openpanel;
#X msg 514 85 bang;
#X text 556 84 <-- browse for samples;
#X text 482 209 v-- re-read original samples;
#X obj 411 295 soundfiler;
#X msg 411 237 read ../sound/bell.aiff sample1 \, read ../sound/voice2.wav
sample2;
#X obj 514 167 soundfiler;
#X msg 120 156 print;
#X obj 26 88 makefilename sample%d;
#X msg 514 140 read \$1 sample1;
#X connect 0 0 12 0;
#X connect 1 0 2 0;
#X connect 2 0 4 0;
#X connect 3 0 4 1;
#X connect 4 0 8 0;
#X connect 5 0 3 0;
#X connect 6 0 7 0;
#X connect 7 0 3 0;
#X connect 9 0 8 0;
#X connect 10 0 6 0;
#X connect 11 0 6 0;
#X connect 12 0 11 0;
#X connect 12 0 5 0;
#X connect 12 0 22 0;
#X connect 12 1 7 0;
#X connect 12 1 10 0;
#X connect 12 2 19 0;
#X connect 12 3 15 0;
#X connect 13 0 19 0;
#X connect 14 0 23 0;
#X connect 15 0 14 0;
#X connect 19 0 18 0;
#X connect 22 0 9 0;
#X connect 22 0 21 0;
#X connect 23 0 20 0;
#X restore 541 327 pd recorder;
#X msg 541 189 record 1;
#X msg 541 245 stop;
#X msg 541 217 record 2;
#X msg 541 272 reload;
#X msg 541 300 browse;
#X text 539 167 record \, etc.;
#X obj 610 472 catch~ \$0-out-right;
#X obj 570 521 catch~ \$0-out-left;
#N canvas 126 214 776 612 voice 0;
#X msg 140 51 bang;
#X obj 140 74 delay 5;
#X obj 360 185 f;
#X obj 306 163 f;
#X obj 248 163 f;
#X obj 217 163 f;
#X obj 191 163 f;
#X obj 112 163 f;
#X obj 112 186 mtof;
#X obj 112 209 / 261.62;
#X obj 112 232 * 4.41e+08;
#X obj 112 255 +;
#X obj 333 163 delay;
#X obj 191 291 pack 0 0 0 0 0;
#X obj 140 97 t b b b;
#X obj 248 209 + 1;
#X obj 248 186 * 44.1;
#X obj 582 116 line~;
#X obj 582 283 *~;
#X msg 592 173 set \$1;
#X obj 582 207 tabread4~ sample1;
#X obj 597 341 dbtorms;
#X obj 597 317 unpack;
#X obj 597 365 sqrt;
#X obj 597 389 sqrt;
#X obj 582 486 *~;
#X obj 597 437 *~;
#X obj 597 461 *~;
#X msg 478 67 0 5;
#X msg 207 337 1 5;
#X msg 360 208 0 \$1;
#X msg 203 366 0 \, \$1 \$2;
#X msg 193 397 \$3 \, \$4 1e+07;
#X msg 182 427 \$5;
#X obj 228 74 inlet;
#X obj 592 149 makefilename sample%d;
#X obj 397 160 f;
#X obj 228 97 unpack 0 0 0 0 0 0 0 0;
#X text 231 23 inlet: pitch amplitude duration sample-number onset
rise-time decay-time pan;
#X obj 540 445 *;
#X obj 480 444 1;
#X obj 508 444 2;
#X obj 514 467 *;
#X obj 516 417 t b f f;
#X obj 538 494 -;
#X obj 516 369 - 1;
#X obj 516 391 * 0.125;
#X obj 547 525 *~ 0;
#X obj 582 526 *~ 0;
#X obj 514 493 -;
#X obj 478 44 r reset;
#X obj 34 68 r reset;
#X msg 33 91 stop;
#X obj 597 413 vline~;
#X obj 598 259 vline~;
#X obj 476 556 throw~ \$0-out-left;
#X obj 617 553 throw~ \$0-out-right;
#X floatatom 429 193 5 0 0 0 - - -;
#X connect 0 0 1 0;
#X connect 0 0 28 0;
#X connect 1 0 14 0;
#X connect 2 0 30 0;
#X connect 3 0 13 1;
#X connect 4 0 16 0;
#X connect 5 0 13 4;
#X connect 6 0 13 0;
#X connect 7 0 8 0;
#X connect 8 0 9 0;
#X connect 9 0 10 0;
#X connect 10 0 11 0;
#X connect 11 0 13 3;
#X connect 12 0 2 0;
#X connect 13 0 29 0;
#X connect 13 0 31 0;
#X connect 13 0 32 0;
#X connect 13 0 33 0;
#X connect 14 0 6 0;
#X connect 14 1 7 0;
#X connect 14 2 3 0;
#X connect 14 2 4 0;
#X connect 14 2 5 0;
#X connect 14 2 12 0;
#X connect 14 2 36 0;
#X connect 15 0 13 2;
#X connect 15 0 11 1;
#X connect 16 0 15 0;
#X connect 17 0 20 0;
#X connect 18 0 25 0;
#X connect 19 0 20 0;
#X connect 20 0 18 0;
#X connect 21 0 23 0;
#X connect 22 0 21 0;
#X connect 22 1 53 1;
#X connect 23 0 24 0;
#X connect 24 0 53 0;
#X connect 25 0 47 0;
#X connect 25 0 48 0;
#X connect 26 0 27 0;
#X connect 26 0 27 1;
#X connect 27 0 25 1;
#X connect 28 0 54 0;
#X connect 29 0 54 0;
#X connect 30 0 22 0;
#X connect 31 0 22 0;
#X connect 32 0 17 0;
#X connect 33 0 35 0;
#X connect 34 0 37 0;
#X connect 35 0 19 0;
#X connect 36 0 45 0;
#X connect 36 0 57 0;
#X connect 37 0 7 1;
#X connect 37 0 0 0;
#X connect 37 1 6 1;
#X connect 37 2 12 1;
#X connect 37 3 5 1;
#X connect 37 4 4 1;
#X connect 37 5 3 1;
#X connect 37 6 2 1;
#X connect 37 7 36 1;
#X connect 39 0 44 1;
#X connect 39 0 49 1;
#X connect 40 0 49 0;
#X connect 41 0 42 0;
#X connect 42 0 44 0;
#X connect 43 0 41 0;
#X connect 43 0 40 0;
#X connect 43 1 39 0;
#X connect 43 1 42 1;
#X connect 43 2 39 1;
#X connect 44 0 48 1;
#X connect 45 0 46 0;
#X connect 46 0 43 0;
#X connect 47 0 55 0;
#X connect 48 0 56 0;
#X connect 49 0 47 1;
#X connect 50 0 28 0;
#X connect 51 0 52 0;
#X connect 52 0 1 0;
#X connect 52 0 12 0;
#X connect 53 0 26 0;
#X connect 53 0 26 1;
#X connect 54 0 18 1;
#X restore 239 410 pd voice;
#N canvas 627 22 776 612 voice 0;
#X msg 140 51 bang;
#X obj 140 74 delay 5;
#X obj 360 185 f;
#X obj 306 163 f;
#X obj 248 163 f;
#X obj 217 163 f;
#X obj 191 163 f;
#X obj 112 163 f;
#X obj 112 186 mtof;
#X obj 112 209 / 261.62;
#X obj 112 232 * 4.41e+08;
#X obj 112 255 +;
#X obj 333 163 delay;
#X obj 191 291 pack 0 0 0 0 0;
#X obj 140 97 t b b b;
#X obj 248 209 + 1;
#X obj 248 186 * 44.1;
#X obj 582 116 line~;
#X obj 582 283 *~;
#X msg 592 173 set \$1;
#X obj 582 207 tabread4~ sample1;
#X obj 597 341 dbtorms;
#X obj 597 317 unpack;
#X obj 597 365 sqrt;
#X obj 597 389 sqrt;
#X obj 582 486 *~;
#X obj 597 437 *~;
#X obj 597 461 *~;
#X msg 478 67 0 5;
#X msg 207 337 1 5;
#X msg 360 208 0 \$1;
#X msg 203 366 0 \, \$1 \$2;
#X msg 193 397 \$3 \, \$4 1e+07;
#X msg 182 427 \$5;
#X obj 228 74 inlet;
#X obj 592 149 makefilename sample%d;
#X obj 397 160 f;
#X obj 228 97 unpack 0 0 0 0 0 0 0 0;
#X text 231 23 inlet: pitch amplitude duration sample-number onset
rise-time decay-time pan;
#X obj 540 445 *;
#X obj 480 444 1;
#X obj 508 444 2;
#X obj 514 467 *;
#X obj 516 417 t b f f;
#X obj 538 494 -;
#X obj 516 369 - 1;
#X obj 516 391 * 0.125;
#X obj 547 525 *~ 0;
#X obj 582 526 *~ 0;
#X obj 514 493 -;
#X obj 478 44 r reset;
#X obj 34 68 r reset;
#X msg 33 91 stop;
#X obj 597 413 vline~;
#X obj 598 259 vline~;
#X obj 476 556 throw~ \$0-out-left;
#X obj 617 553 throw~ \$0-out-right;
#X connect 0 0 1 0;
#X connect 0 0 28 0;
#X connect 1 0 14 0;
#X connect 2 0 30 0;
#X connect 3 0 13 1;
#X connect 4 0 16 0;
#X connect 5 0 13 4;
#X connect 6 0 13 0;
#X connect 7 0 8 0;
#X connect 8 0 9 0;
#X connect 9 0 10 0;
#X connect 10 0 11 0;
#X connect 11 0 13 3;
#X connect 12 0 2 0;
#X connect 13 0 29 0;
#X connect 13 0 31 0;
#X connect 13 0 32 0;
#X connect 13 0 33 0;
#X connect 14 0 6 0;
#X connect 14 1 7 0;
#X connect 14 2 3 0;
#X connect 14 2 4 0;
#X connect 14 2 5 0;
#X connect 14 2 12 0;
#X connect 14 2 36 0;
#X connect 15 0 13 2;
#X connect 15 0 11 1;
#X connect 16 0 15 0;
#X connect 17 0 20 0;
#X connect 18 0 25 0;
#X connect 19 0 20 0;
#X connect 20 0 18 0;
#X connect 21 0 23 0;
#X connect 22 0 21 0;
#X connect 22 1 53 1;
#X connect 23 0 24 0;
#X connect 24 0 53 0;
#X connect 25 0 47 0;
#X connect 25 0 48 0;
#X connect 26 0 27 0;
#X connect 26 0 27 1;
#X connect 27 0 25 1;
#X connect 28 0 54 0;
#X connect 29 0 54 0;
#X connect 30 0 22 0;
#X connect 31 0 22 0;
#X connect 32 0 17 0;
#X connect 33 0 35 0;
#X connect 34 0 37 0;
#X connect 35 0 19 0;
#X connect 36 0 45 0;
#X connect 37 0 7 1;
#X connect 37 0 0 0;
#X connect 37 1 6 1;
#X connect 37 2 12 1;
#X connect 37 3 5 1;
#X connect 37 4 4 1;
#X connect 37 5 3 1;
#X connect 37 6 2 1;
#X connect 37 7 36 1;
#X connect 39 0 44 1;
#X connect 39 0 49 1;
#X connect 40 0 49 0;
#X connect 41 0 42 0;
#X connect 42 0 44 0;
#X connect 43 0 41 0;
#X connect 43 0 40 0;
#X connect 43 1 39 0;
#X connect 43 1 42 1;
#X connect 43 2 39 1;
#X connect 44 0 48 1;
#X connect 45 0 46 0;
#X connect 46 0 43 0;
#X connect 47 0 55 0;
#X connect 48 0 56 0;
#X connect 49 0 47 1;
#X connect 50 0 28 0;
#X connect 51 0 52 0;
#X connect 52 0 1 0;
#X connect 52 0 12 0;
#X connect 53 0 26 0;
#X connect 53 0 26 1;
#X connect 54 0 18 1;
#X restore 249 420 pd voice;
#N canvas 627 22 776 612 voice 0;
#X msg 140 51 bang;
#X obj 140 74 delay 5;
#X obj 360 185 f;
#X obj 306 163 f;
#X obj 248 163 f;
#X obj 217 163 f;
#X obj 191 163 f;
#X obj 112 163 f;
#X obj 112 186 mtof;
#X obj 112 209 / 261.62;
#X obj 112 232 * 4.41e+08;
#X obj 112 255 +;
#X obj 333 163 delay;
#X obj 191 291 pack 0 0 0 0 0;
#X obj 140 97 t b b b;
#X obj 248 209 + 1;
#X obj 248 186 * 44.1;
#X obj 582 116 line~;
#X obj 582 283 *~;
#X msg 592 173 set \$1;
#X obj 582 207 tabread4~ sample1;
#X obj 597 341 dbtorms;
#X obj 597 317 unpack;
#X obj 597 365 sqrt;
#X obj 597 389 sqrt;
#X obj 582 486 *~;
#X obj 597 437 *~;
#X obj 597 461 *~;
#X msg 478 67 0 5;
#X msg 207 337 1 5;
#X msg 360 208 0 \$1;
#X msg 203 366 0 \, \$1 \$2;
#X msg 193 397 \$3 \, \$4 1e+07;
#X msg 182 427 \$5;
#X obj 228 74 inlet;
#X obj 592 149 makefilename sample%d;
#X obj 397 160 f;
#X obj 228 97 unpack 0 0 0 0 0 0 0 0;
#X text 231 23 inlet: pitch amplitude duration sample-number onset
rise-time decay-time pan;
#X obj 540 445 *;
#X obj 480 444 1;
#X obj 508 444 2;
#X obj 514 467 *;
#X obj 516 417 t b f f;
#X obj 538 494 -;
#X obj 516 369 - 1;
#X obj 516 391 * 0.125;
#X obj 547 525 *~ 0;
#X obj 582 526 *~ 0;
#X obj 514 493 -;
#X obj 478 44 r reset;
#X obj 34 68 r reset;
#X msg 33 91 stop;
#X obj 597 413 vline~;
#X obj 598 259 vline~;
#X obj 476 556 throw~ \$0-out-left;
#X obj 617 553 throw~ \$0-out-right;
#X connect 0 0 1 0;
#X connect 0 0 28 0;
#X connect 1 0 14 0;
#X connect 2 0 30 0;
#X connect 3 0 13 1;
#X connect 4 0 16 0;
#X connect 5 0 13 4;
#X connect 6 0 13 0;
#X connect 7 0 8 0;
#X connect 8 0 9 0;
#X connect 9 0 10 0;
#X connect 10 0 11 0;
#X connect 11 0 13 3;
#X connect 12 0 2 0;
#X connect 13 0 29 0;
#X connect 13 0 31 0;
#X connect 13 0 32 0;
#X connect 13 0 33 0;
#X connect 14 0 6 0;
#X connect 14 1 7 0;
#X connect 14 2 3 0;
#X connect 14 2 4 0;
#X connect 14 2 5 0;
#X connect 14 2 12 0;
#X connect 14 2 36 0;
#X connect 15 0 13 2;
#X connect 15 0 11 1;
#X connect 16 0 15 0;
#X connect 17 0 20 0;
#X connect 18 0 25 0;
#X connect 19 0 20 0;
#X connect 20 0 18 0;
#X connect 21 0 23 0;
#X connect 22 0 21 0;
#X connect 22 1 53 1;
#X connect 23 0 24 0;
#X connect 24 0 53 0;
#X connect 25 0 47 0;
#X connect 25 0 48 0;
#X connect 26 0 27 0;
#X connect 26 0 27 1;
#X connect 27 0 25 1;
#X connect 28 0 54 0;
#X connect 29 0 54 0;
#X connect 30 0 22 0;
#X connect 31 0 22 0;
#X connect 32 0 17 0;
#X connect 33 0 35 0;
#X connect 34 0 37 0;
#X connect 35 0 19 0;
#X connect 36 0 45 0;
#X connect 37 0 7 1;
#X connect 37 0 0 0;
#X connect 37 1 6 1;
#X connect 37 2 12 1;
#X connect 37 3 5 1;
#X connect 37 4 4 1;
#X connect 37 5 3 1;
#X connect 37 6 2 1;
#X connect 37 7 36 1;
#X connect 39 0 44 1;
#X connect 39 0 49 1;
#X connect 40 0 49 0;
#X connect 41 0 42 0;
#X connect 42 0 44 0;
#X connect 43 0 41 0;
#X connect 43 0 40 0;
#X connect 43 1 39 0;
#X connect 43 1 42 1;
#X connect 43 2 39 1;
#X connect 44 0 48 1;
#X connect 45 0 46 0;
#X connect 46 0 43 0;
#X connect 47 0 55 0;
#X connect 48 0 56 0;
#X connect 49 0 47 1;
#X connect 50 0 28 0;
#X connect 51 0 52 0;
#X connect 52 0 1 0;
#X connect 52 0 12 0;
#X connect 53 0 26 0;
#X connect 53 0 26 1;
#X connect 54 0 18 1;
#X restore 259 430 pd voice;
#N canvas 627 22 776 612 voice 0;
#X msg 140 51 bang;
#X obj 140 74 delay 5;
#X obj 360 185 f;
#X obj 306 163 f;
#X obj 248 163 f;
#X obj 217 163 f;
#X obj 191 163 f;
#X obj 112 163 f;
#X obj 112 186 mtof;
#X obj 112 209 / 261.62;
#X obj 112 232 * 4.41e+08;
#X obj 112 255 +;
#X obj 333 163 delay;
#X obj 191 291 pack 0 0 0 0 0;
#X obj 140 97 t b b b;
#X obj 248 209 + 1;
#X obj 248 186 * 44.1;
#X obj 582 116 line~;
#X obj 582 283 *~;
#X msg 592 173 set \$1;
#X obj 582 207 tabread4~ sample1;
#X obj 597 341 dbtorms;
#X obj 597 317 unpack;
#X obj 597 365 sqrt;
#X obj 597 389 sqrt;
#X obj 582 486 *~;
#X obj 597 437 *~;
#X obj 597 461 *~;
#X msg 478 67 0 5;
#X msg 207 337 1 5;
#X msg 360 208 0 \$1;
#X msg 203 366 0 \, \$1 \$2;
#X msg 193 397 \$3 \, \$4 1e+07;
#X msg 182 427 \$5;
#X obj 228 74 inlet;
#X obj 592 149 makefilename sample%d;
#X obj 397 160 f;
#X obj 228 97 unpack 0 0 0 0 0 0 0 0;
#X text 231 23 inlet: pitch amplitude duration sample-number onset
rise-time decay-time pan;
#X obj 540 445 *;
#X obj 480 444 1;
#X obj 508 444 2;
#X obj 514 467 *;
#X obj 516 417 t b f f;
#X obj 538 494 -;
#X obj 516 369 - 1;
#X obj 516 391 * 0.125;
#X obj 547 525 *~ 0;
#X obj 582 526 *~ 0;
#X obj 514 493 -;
#X obj 478 44 r reset;
#X obj 34 68 r reset;
#X msg 33 91 stop;
#X obj 597 413 vline~;
#X obj 598 259 vline~;
#X obj 476 556 throw~ \$0-out-left;
#X obj 617 553 throw~ \$0-out-right;
#X connect 0 0 1 0;
#X connect 0 0 28 0;
#X connect 1 0 14 0;
#X connect 2 0 30 0;
#X connect 3 0 13 1;
#X connect 4 0 16 0;
#X connect 5 0 13 4;
#X connect 6 0 13 0;
#X connect 7 0 8 0;
#X connect 8 0 9 0;
#X connect 9 0 10 0;
#X connect 10 0 11 0;
#X connect 11 0 13 3;
#X connect 12 0 2 0;
#X connect 13 0 29 0;
#X connect 13 0 31 0;
#X connect 13 0 32 0;
#X connect 13 0 33 0;
#X connect 14 0 6 0;
#X connect 14 1 7 0;
#X connect 14 2 3 0;
#X connect 14 2 4 0;
#X connect 14 2 5 0;
#X connect 14 2 12 0;
#X connect 14 2 36 0;
#X connect 15 0 13 2;
#X connect 15 0 11 1;
#X connect 16 0 15 0;
#X connect 17 0 20 0;
#X connect 18 0 25 0;
#X connect 19 0 20 0;
#X connect 20 0 18 0;
#X connect 21 0 23 0;
#X connect 22 0 21 0;
#X connect 22 1 53 1;
#X connect 23 0 24 0;
#X connect 24 0 53 0;
#X connect 25 0 47 0;
#X connect 25 0 48 0;
#X connect 26 0 27 0;
#X connect 26 0 27 1;
#X connect 27 0 25 1;
#X connect 28 0 54 0;
#X connect 29 0 54 0;
#X connect 30 0 22 0;
#X connect 31 0 22 0;
#X connect 32 0 17 0;
#X connect 33 0 35 0;
#X connect 34 0 37 0;
#X connect 35 0 19 0;
#X connect 36 0 45 0;
#X connect 37 0 7 1;
#X connect 37 0 0 0;
#X connect 37 1 6 1;
#X connect 37 2 12 1;
#X connect 37 3 5 1;
#X connect 37 4 4 1;
#X connect 37 5 3 1;
#X connect 37 6 2 1;
#X connect 37 7 36 1;
#X connect 39 0 44 1;
#X connect 39 0 49 1;
#X connect 40 0 49 0;
#X connect 41 0 42 0;
#X connect 42 0 44 0;
#X connect 43 0 41 0;
#X connect 43 0 40 0;
#X connect 43 1 39 0;
#X connect 43 1 42 1;
#X connect 43 2 39 1;
#X connect 44 0 48 1;
#X connect 45 0 46 0;
#X connect 46 0 43 0;
#X connect 47 0 55 0;
#X connect 48 0 56 0;
#X connect 49 0 47 1;
#X connect 50 0 28 0;
#X connect 51 0 52 0;
#X connect 52 0 1 0;
#X connect 52 0 12 0;
#X connect 53 0 26 0;
#X connect 53 0 26 1;
#X connect 54 0 18 1;
#X restore 269 440 pd voice;
#N canvas 627 22 776 612 voice 0;
#X msg 140 51 bang;
#X obj 140 74 delay 5;
#X obj 360 185 f;
#X obj 306 163 f;
#X obj 248 163 f;
#X obj 217 163 f;
#X obj 191 163 f;
#X obj 112 163 f;
#X obj 112 186 mtof;
#X obj 112 209 / 261.62;
#X obj 112 232 * 4.41e+08;
#X obj 112 255 +;
#X obj 333 163 delay;
#X obj 191 291 pack 0 0 0 0 0;
#X obj 140 97 t b b b;
#X obj 248 209 + 1;
#X obj 248 186 * 44.1;
#X obj 582 116 line~;
#X obj 582 283 *~;
#X msg 592 173 set \$1;
#X obj 582 207 tabread4~ sample1;
#X obj 597 341 dbtorms;
#X obj 597 317 unpack;
#X obj 597 365 sqrt;
#X obj 597 389 sqrt;
#X obj 582 486 *~;
#X obj 597 437 *~;
#X obj 597 461 *~;
#X msg 478 67 0 5;
#X msg 207 337 1 5;
#X msg 360 208 0 \$1;
#X msg 203 366 0 \, \$1 \$2;
#X msg 193 397 \$3 \, \$4 1e+07;
#X msg 182 427 \$5;
#X obj 228 74 inlet;
#X obj 592 149 makefilename sample%d;
#X obj 397 160 f;
#X obj 228 97 unpack 0 0 0 0 0 0 0 0;
#X text 231 23 inlet: pitch amplitude duration sample-number onset
rise-time decay-time pan;
#X obj 540 445 *;
#X obj 480 444 1;
#X obj 508 444 2;
#X obj 514 467 *;
#X obj 516 417 t b f f;
#X obj 538 494 -;
#X obj 516 369 - 1;
#X obj 516 391 * 0.125;
#X obj 547 525 *~ 0;
#X obj 582 526 *~ 0;
#X obj 514 493 -;
#X obj 478 44 r reset;
#X obj 34 68 r reset;
#X msg 33 91 stop;
#X obj 597 413 vline~;
#X obj 598 259 vline~;
#X obj 476 556 throw~ \$0-out-left;
#X obj 617 553 throw~ \$0-out-right;
#X connect 0 0 1 0;
#X connect 0 0 28 0;
#X connect 1 0 14 0;
#X connect 2 0 30 0;
#X connect 3 0 13 1;
#X connect 4 0 16 0;
#X connect 5 0 13 4;
#X connect 6 0 13 0;
#X connect 7 0 8 0;
#X connect 8 0 9 0;
#X connect 9 0 10 0;
#X connect 10 0 11 0;
#X connect 11 0 13 3;
#X connect 12 0 2 0;
#X connect 13 0 29 0;
#X connect 13 0 31 0;
#X connect 13 0 32 0;
#X connect 13 0 33 0;
#X connect 14 0 6 0;
#X connect 14 1 7 0;
#X connect 14 2 3 0;
#X connect 14 2 4 0;
#X connect 14 2 5 0;
#X connect 14 2 12 0;
#X connect 14 2 36 0;
#X connect 15 0 13 2;
#X connect 15 0 11 1;
#X connect 16 0 15 0;
#X connect 17 0 20 0;
#X connect 18 0 25 0;
#X connect 19 0 20 0;
#X connect 20 0 18 0;
#X connect 21 0 23 0;
#X connect 22 0 21 0;
#X connect 22 1 53 1;
#X connect 23 0 24 0;
#X connect 24 0 53 0;
#X connect 25 0 47 0;
#X connect 25 0 48 0;
#X connect 26 0 27 0;
#X connect 26 0 27 1;
#X connect 27 0 25 1;
#X connect 28 0 54 0;
#X connect 29 0 54 0;
#X connect 30 0 22 0;
#X connect 31 0 22 0;
#X connect 32 0 17 0;
#X connect 33 0 35 0;
#X connect 34 0 37 0;
#X connect 35 0 19 0;
#X connect 36 0 45 0;
#X connect 37 0 7 1;
#X connect 37 0 0 0;
#X connect 37 1 6 1;
#X connect 37 2 12 1;
#X connect 37 3 5 1;
#X connect 37 4 4 1;
#X connect 37 5 3 1;
#X connect 37 6 2 1;
#X connect 37 7 36 1;
#X connect 39 0 44 1;
#X connect 39 0 49 1;
#X connect 40 0 49 0;
#X connect 41 0 42 0;
#X connect 42 0 44 0;
#X connect 43 0 41 0;
#X connect 43 0 40 0;
#X connect 43 1 39 0;
#X connect 43 1 42 1;
#X connect 43 2 39 1;
#X connect 44 0 48 1;
#X connect 45 0 46 0;
#X connect 46 0 43 0;
#X connect 47 0 55 0;
#X connect 48 0 56 0;
#X connect 49 0 47 1;
#X connect 50 0 28 0;
#X connect 51 0 52 0;
#X connect 52 0 1 0;
#X connect 52 0 12 0;
#X connect 53 0 26 0;
#X connect 53 0 26 1;
#X connect 54 0 18 1;
#X restore 302 462 pd voice;
#N canvas 627 22 776 612 voice 0;
#X msg 140 51 bang;
#X obj 140 74 delay 5;
#X obj 360 185 f;
#X obj 306 163 f;
#X obj 248 163 f;
#X obj 217 163 f;
#X obj 191 163 f;
#X obj 112 163 f;
#X obj 112 186 mtof;
#X obj 112 209 / 261.62;
#X obj 112 232 * 4.41e+08;
#X obj 112 255 +;
#X obj 333 163 delay;
#X obj 191 291 pack 0 0 0 0 0;
#X obj 140 97 t b b b;
#X obj 248 209 + 1;
#X obj 248 186 * 44.1;
#X obj 582 116 line~;
#X obj 582 283 *~;
#X msg 592 173 set \$1;
#X obj 582 207 tabread4~ sample1;
#X obj 597 341 dbtorms;
#X obj 597 317 unpack;
#X obj 597 365 sqrt;
#X obj 597 389 sqrt;
#X obj 582 486 *~;
#X obj 597 437 *~;
#X obj 597 461 *~;
#X msg 478 67 0 5;
#X msg 207 337 1 5;
#X msg 360 208 0 \$1;
#X msg 203 366 0 \, \$1 \$2;
#X msg 193 397 \$3 \, \$4 1e+07;
#X msg 182 427 \$5;
#X obj 228 74 inlet;
#X obj 592 149 makefilename sample%d;
#X obj 397 160 f;
#X obj 228 97 unpack 0 0 0 0 0 0 0 0;
#X text 231 23 inlet: pitch amplitude duration sample-number onset
rise-time decay-time pan;
#X obj 540 445 *;
#X obj 480 444 1;
#X obj 508 444 2;
#X obj 514 467 *;
#X obj 516 417 t b f f;
#X obj 538 494 -;
#X obj 516 369 - 1;
#X obj 516 391 * 0.125;
#X obj 547 525 *~ 0;
#X obj 582 526 *~ 0;
#X obj 514 493 -;
#X obj 478 44 r reset;
#X obj 34 68 r reset;
#X msg 33 91 stop;
#X obj 597 413 vline~;
#X obj 598 259 vline~;
#X obj 476 556 throw~ \$0-out-left;
#X obj 617 553 throw~ \$0-out-right;
#X connect 0 0 1 0;
#X connect 0 0 28 0;
#X connect 1 0 14 0;
#X connect 2 0 30 0;
#X connect 3 0 13 1;
#X connect 4 0 16 0;
#X connect 5 0 13 4;
#X connect 6 0 13 0;
#X connect 7 0 8 0;
#X connect 8 0 9 0;
#X connect 9 0 10 0;
#X connect 10 0 11 0;
#X connect 11 0 13 3;
#X connect 12 0 2 0;
#X connect 13 0 29 0;
#X connect 13 0 31 0;
#X connect 13 0 32 0;
#X connect 13 0 33 0;
#X connect 14 0 6 0;
#X connect 14 1 7 0;
#X connect 14 2 3 0;
#X connect 14 2 4 0;
#X connect 14 2 5 0;
#X connect 14 2 12 0;
#X connect 14 2 36 0;
#X connect 15 0 13 2;
#X connect 15 0 11 1;
#X connect 16 0 15 0;
#X connect 17 0 20 0;
#X connect 18 0 25 0;
#X connect 19 0 20 0;
#X connect 20 0 18 0;
#X connect 21 0 23 0;
#X connect 22 0 21 0;
#X connect 22 1 53 1;
#X connect 23 0 24 0;
#X connect 24 0 53 0;
#X connect 25 0 47 0;
#X connect 25 0 48 0;
#X connect 26 0 27 0;
#X connect 26 0 27 1;
#X connect 27 0 25 1;
#X connect 28 0 54 0;
#X connect 29 0 54 0;
#X connect 30 0 22 0;
#X connect 31 0 22 0;
#X connect 32 0 17 0;
#X connect 33 0 35 0;
#X connect 34 0 37 0;
#X connect 35 0 19 0;
#X connect 36 0 45 0;
#X connect 37 0 7 1;
#X connect 37 0 0 0;
#X connect 37 1 6 1;
#X connect 37 2 12 1;
#X connect 37 3 5 1;
#X connect 37 4 4 1;
#X connect 37 5 3 1;
#X connect 37 6 2 1;
#X connect 37 7 36 1;
#X connect 39 0 44 1;
#X connect 39 0 49 1;
#X connect 40 0 49 0;
#X connect 41 0 42 0;
#X connect 42 0 44 0;
#X connect 43 0 41 0;
#X connect 43 0 40 0;
#X connect 43 1 39 0;
#X connect 43 1 42 1;
#X connect 43 2 39 1;
#X connect 44 0 48 1;
#X connect 45 0 46 0;
#X connect 46 0 43 0;
#X connect 47 0 55 0;
#X connect 48 0 56 0;
#X connect 49 0 47 1;
#X connect 50 0 28 0;
#X connect 51 0 52 0;
#X connect 52 0 1 0;
#X connect 52 0 12 0;
#X connect 53 0 26 0;
#X connect 53 0 26 1;
#X connect 54 0 18 1;
#X restore 312 472 pd voice;
#N canvas 627 22 776 612 voice 0;
#X msg 140 51 bang;
#X obj 140 74 delay 5;
#X obj 360 185 f;
#X obj 306 163 f;
#X obj 248 163 f;
#X obj 217 163 f;
#X obj 191 163 f;
#X obj 112 163 f;
#X obj 112 186 mtof;
#X obj 112 209 / 261.62;
#X obj 112 232 * 4.41e+08;
#X obj 112 255 +;
#X obj 333 163 delay;
#X obj 191 291 pack 0 0 0 0 0;
#X obj 140 97 t b b b;
#X obj 248 209 + 1;
#X obj 248 186 * 44.1;
#X obj 582 116 line~;
#X obj 582 283 *~;
#X msg 592 173 set \$1;
#X obj 582 207 tabread4~ sample1;
#X obj 597 341 dbtorms;
#X obj 597 317 unpack;
#X obj 597 365 sqrt;
#X obj 597 389 sqrt;
#X obj 582 486 *~;
#X obj 597 437 *~;
#X obj 597 461 *~;
#X msg 478 67 0 5;
#X msg 207 337 1 5;
#X msg 360 208 0 \$1;
#X msg 203 366 0 \, \$1 \$2;
#X msg 193 397 \$3 \, \$4 1e+07;
#X msg 182 427 \$5;
#X obj 228 74 inlet;
#X obj 592 149 makefilename sample%d;
#X obj 397 160 f;
#X obj 228 97 unpack 0 0 0 0 0 0 0 0;
#X text 231 23 inlet: pitch amplitude duration sample-number onset
rise-time decay-time pan;
#X obj 540 445 *;
#X obj 480 444 1;
#X obj 508 444 2;
#X obj 514 467 *;
#X obj 516 417 t b f f;
#X obj 538 494 -;
#X obj 516 369 - 1;
#X obj 516 391 * 0.125;
#X obj 547 525 *~ 0;
#X obj 582 526 *~ 0;
#X obj 514 493 -;
#X obj 478 44 r reset;
#X obj 34 68 r reset;
#X msg 33 91 stop;
#X obj 597 413 vline~;
#X obj 598 259 vline~;
#X obj 476 556 throw~ \$0-out-left;
#X obj 617 553 throw~ \$0-out-right;
#X connect 0 0 1 0;
#X connect 0 0 28 0;
#X connect 1 0 14 0;
#X connect 2 0 30 0;
#X connect 3 0 13 1;
#X connect 4 0 16 0;
#X connect 5 0 13 4;
#X connect 6 0 13 0;
#X connect 7 0 8 0;
#X connect 8 0 9 0;
#X connect 9 0 10 0;
#X connect 10 0 11 0;
#X connect 11 0 13 3;
#X connect 12 0 2 0;
#X connect 13 0 29 0;
#X connect 13 0 31 0;
#X connect 13 0 32 0;
#X connect 13 0 33 0;
#X connect 14 0 6 0;
#X connect 14 1 7 0;
#X connect 14 2 3 0;
#X connect 14 2 4 0;
#X connect 14 2 5 0;
#X connect 14 2 12 0;
#X connect 14 2 36 0;
#X connect 15 0 13 2;
#X connect 15 0 11 1;
#X connect 16 0 15 0;
#X connect 17 0 20 0;
#X connect 18 0 25 0;
#X connect 19 0 20 0;
#X connect 20 0 18 0;
#X connect 21 0 23 0;
#X connect 22 0 21 0;
#X connect 22 1 53 1;
#X connect 23 0 24 0;
#X connect 24 0 53 0;
#X connect 25 0 47 0;
#X connect 25 0 48 0;
#X connect 26 0 27 0;
#X connect 26 0 27 1;
#X connect 27 0 25 1;
#X connect 28 0 54 0;
#X connect 29 0 54 0;
#X connect 30 0 22 0;
#X connect 31 0 22 0;
#X connect 32 0 17 0;
#X connect 33 0 35 0;
#X connect 34 0 37 0;
#X connect 35 0 19 0;
#X connect 36 0 45 0;
#X connect 37 0 7 1;
#X connect 37 0 0 0;
#X connect 37 1 6 1;
#X connect 37 2 12 1;
#X connect 37 3 5 1;
#X connect 37 4 4 1;
#X connect 37 5 3 1;
#X connect 37 6 2 1;
#X connect 37 7 36 1;
#X connect 39 0 44 1;
#X connect 39 0 49 1;
#X connect 40 0 49 0;
#X connect 41 0 42 0;
#X connect 42 0 44 0;
#X connect 43 0 41 0;
#X connect 43 0 40 0;
#X connect 43 1 39 0;
#X connect 43 1 42 1;
#X connect 43 2 39 1;
#X connect 44 0 48 1;
#X connect 45 0 46 0;
#X connect 46 0 43 0;
#X connect 47 0 55 0;
#X connect 48 0 56 0;
#X connect 49 0 47 1;
#X connect 50 0 28 0;
#X connect 51 0 52 0;
#X connect 52 0 1 0;
#X connect 52 0 12 0;
#X connect 53 0 26 0;
#X connect 53 0 26 1;
#X connect 54 0 18 1;
#X restore 322 482 pd voice;
#N canvas 640 22 776 612 voice 0;
#X msg 140 51 bang;
#X obj 140 74 delay 5;
#X obj 360 185 f;
#X obj 306 163 f;
#X obj 248 163 f;
#X obj 217 163 f;
#X obj 191 163 f;
#X obj 112 163 f;
#X obj 112 186 mtof;
#X obj 112 209 / 261.62;
#X obj 112 232 * 4.41e+08;
#X obj 112 255 +;
#X obj 333 163 delay;
#X obj 191 291 pack 0 0 0 0 0;
#X obj 140 97 t b b b;
#X obj 248 209 + 1;
#X obj 248 186 * 44.1;
#X obj 582 116 line~;
#X obj 582 283 *~;
#X msg 592 173 set \$1;
#X obj 582 207 tabread4~ sample1;
#X obj 597 341 dbtorms;
#X obj 597 317 unpack;
#X obj 597 365 sqrt;
#X obj 597 389 sqrt;
#X obj 582 486 *~;
#X obj 597 437 *~;
#X obj 597 461 *~;
#X msg 478 67 0 5;
#X msg 207 337 1 5;
#X msg 360 208 0 \$1;
#X msg 203 366 0 \, \$1 \$2;
#X msg 193 397 \$3 \, \$4 1e+07;
#X msg 182 427 \$5;
#X obj 228 74 inlet;
#X obj 592 149 makefilename sample%d;
#X obj 397 160 f;
#X obj 228 97 unpack 0 0 0 0 0 0 0 0;
#X text 231 23 inlet: pitch amplitude duration sample-number onset
rise-time decay-time pan;
#X obj 540 445 *;
#X obj 480 444 1;
#X obj 508 444 2;
#X obj 514 467 *;
#X obj 516 417 t b f f;
#X obj 538 494 -;
#X obj 516 369 - 1;
#X obj 516 391 * 0.125;
#X obj 547 525 *~ 0;
#X obj 582 526 *~ 0;
#X obj 514 493 -;
#X obj 478 44 r reset;
#X obj 34 68 r reset;
#X msg 33 91 stop;
#X obj 597 413 vline~;
#X obj 598 259 vline~;
#X obj 476 556 throw~ \$0-out-left;
#X obj 617 553 throw~ \$0-out-right;
#X connect 0 0 1 0;
#X connect 0 0 28 0;
#X connect 1 0 14 0;
#X connect 2 0 30 0;
#X connect 3 0 13 1;
#X connect 4 0 16 0;
#X connect 5 0 13 4;
#X connect 6 0 13 0;
#X connect 7 0 8 0;
#X connect 8 0 9 0;
#X connect 9 0 10 0;
#X connect 10 0 11 0;
#X connect 11 0 13 3;
#X connect 12 0 2 0;
#X connect 13 0 29 0;
#X connect 13 0 31 0;
#X connect 13 0 32 0;
#X connect 13 0 33 0;
#X connect 14 0 6 0;
#X connect 14 1 7 0;
#X connect 14 2 3 0;
#X connect 14 2 4 0;
#X connect 14 2 5 0;
#X connect 14 2 12 0;
#X connect 14 2 36 0;
#X connect 15 0 13 2;
#X connect 15 0 11 1;
#X connect 16 0 15 0;
#X connect 17 0 20 0;
#X connect 18 0 25 0;
#X connect 19 0 20 0;
#X connect 20 0 18 0;
#X connect 21 0 23 0;
#X connect 22 0 21 0;
#X connect 22 1 53 1;
#X connect 23 0 24 0;
#X connect 24 0 53 0;
#X connect 25 0 47 0;
#X connect 25 0 48 0;
#X connect 26 0 27 0;
#X connect 26 0 27 1;
#X connect 27 0 25 1;
#X connect 28 0 54 0;
#X connect 29 0 54 0;
#X connect 30 0 22 0;
#X connect 31 0 22 0;
#X connect 32 0 17 0;
#X connect 33 0 35 0;
#X connect 34 0 37 0;
#X connect 35 0 19 0;
#X connect 36 0 45 0;
#X connect 37 0 7 1;
#X connect 37 0 0 0;
#X connect 37 1 6 1;
#X connect 37 2 12 1;
#X connect 37 3 5 1;
#X connect 37 4 4 1;
#X connect 37 5 3 1;
#X connect 37 6 2 1;
#X connect 37 7 36 1;
#X connect 39 0 44 1;
#X connect 39 0 49 1;
#X connect 40 0 49 0;
#X connect 41 0 42 0;
#X connect 42 0 44 0;
#X connect 43 0 41 0;
#X connect 43 0 40 0;
#X connect 43 1 39 0;
#X connect 43 1 42 1;
#X connect 43 2 39 1;
#X connect 44 0 48 1;
#X connect 45 0 46 0;
#X connect 46 0 43 0;
#X connect 47 0 55 0;
#X connect 48 0 56 0;
#X connect 49 0 47 1;
#X connect 50 0 28 0;
#X connect 51 0 52 0;
#X connect 52 0 1 0;
#X connect 52 0 12 0;
#X connect 53 0 26 0;
#X connect 53 0 26 1;
#X connect 54 0 18 1;
#X restore 332 492 pd voice;
#X text 125 27 samp: pitch (midi) amplitude (dB) duration sample-number
onset rise-time decay-time pan (0-10);
#X obj 127 100 notein;
#X obj 123 136 stripnote;
#X obj 131 269 f;
#X obj 167 269 + 1;
#X obj 139 306 mod 1e+06;
#X obj 131 335 makenote 64;
#X obj 131 363 poly 8 1;
#X obj 131 390 stripnote;
#X msg 123 169 \$1 90 1000 1 30 5 5 5;
#X connect 0 0 28 0;
#X connect 0 1 3 1;
#X connect 1 0 17 0;
#X connect 1 1 18 0;
#X connect 1 2 19 0;
#X connect 1 3 20 0;
#X connect 1 4 21 0;
#X connect 1 5 22 0;
#X connect 1 6 23 0;
#X connect 1 7 24 0;
#X connect 2 0 0 0;
#X connect 2 1 3 2;
#X connect 2 2 3 3;
#X connect 2 3 3 4;
#X connect 2 4 3 5;
#X connect 2 5 3 6;
#X connect 2 6 3 7;
#X connect 2 7 3 8;
#X connect 3 0 1 0;
#X connect 5 0 2 0;
#X connect 9 0 8 0;
#X connect 10 0 8 0;
#X connect 11 0 8 0;
#X connect 12 0 8 0;
#X connect 13 0 8 0;
#X connect 15 0 6 1;
#X connect 16 0 6 0;
#X connect 26 0 27 0;
#X connect 26 1 27 1;
#X connect 27 0 34 0;
#X connect 28 0 29 0;
#X connect 28 0 31 0;
#X connect 29 0 30 0;
#X connect 30 0 28 1;
#X connect 31 0 32 0;
#X connect 31 1 32 1;
#X connect 32 0 33 0;
#X connect 32 2 33 1;
#X connect 33 0 3 0;
#X connect 34 0 2 0;
