#N canvas 122 117 860 667 10;
#X obj 408 431 cnv 15 150 325 empty empty empty 20 12 0 14 -233017
-66577 0;
#X obj 560 46 r \$0-trigger;
#X obj 454 101 sel 1 2 3 4;
#X obj 119 357 bng 15 250 50 0 empty empty empty 0 -6 0 10 -260097
-1 -1;
#X obj 101 101 slg.loadsoundfile~;
#X obj 167 357 nbx 3 14 -1e+37 1e+37 0 0 empty empty empty 0 -6 0 10
-257985 -1 -1 1 256;
#X text 136 356 in;
#X obj 413 33 inlet;
#X obj 101 165 slg.loadsoundfile~;
#X obj 100 230 slg.loadsoundfile~;
#X obj 102 291 slg.loadsoundfile~;
#X obj 505 188 loadbang;
#X msg 356 244 wav/repercursoundtrack/1-prologue.wav;
#X msg 358 270 wav/repercursoundtrack/2-elements.wav;
#X msg 357 296 wav/repercursoundtrack/3-dance.wav;
#X msg 359 322 wav/repercursoundtrack/4-epilogue.wav;
#X obj 8 230 outlet~;
#X connect 2 0 4 0;
#X connect 2 1 8 0;
#X connect 2 2 9 0;
#X connect 2 3 10 0;
#X connect 4 0 16 0;
#X connect 7 0 3 0;
#X connect 7 0 5 0;
#X connect 7 0 2 0;
#X connect 8 0 16 0;
#X connect 9 0 16 0;
#X connect 10 0 16 0;
#X connect 11 0 12 0;
#X connect 11 0 13 0;
#X connect 11 0 14 0;
#X connect 11 0 15 0;
#X connect 12 0 4 1;
#X connect 13 0 8 1;
#X connect 14 0 9 1;
#X connect 15 0 10 1;
#X coords 0 -1 1 1 152 275 1 100 100;
