#N canvas 171 51 1087 610 10;
#X obj 101 102 cnv 15 148 46 empty \$0-canvas-r empty 5 5 0 9 -212212
-1 0;
#X obj 103 449 soundfiler;
#X obj 102 193 openpanel;
#X obj 102 113 bng 12 250 50 0 \$0-load-s \$0-load-r Load 0 -6 0 8
-258049 -1 -1;
#X obj 121 113 bng 12 250 50 0 \$0-play-s \$0-play-r Play 0 -6 0 8
-4033 -1 -1;
#X obj 178 118 nbx 7 10 -1e+37 1e+37 0 0 empty \$0-size-gui empty -110
0 0 10 -262081 -1 -1 0.81483 256;
#X obj 299 442 outlet~;
#X obj 158 113 tgl 12 0 \$0-loop-s \$0-loop-r Loop 0 -6 1 8 -4033 -1
-1 1 1;
#X obj 403 311 spigot;
#X obj 298 286 tabplay~ \$0-sample;
#X msg 103 426 read -resize \$1 \$2;
#X obj 103 402 pack s s;
#X symbolatom 148 381 20 0 0 0 - - -;
#X obj 148 361 symbol \$0-sample;
#X obj 148 340 loadbang;
#X obj 128 340 bng 15 250 50 0 empty empty empty 0 -6 0 8 -262144 -1
-1;
#X obj 123 34 inlet;
#X obj 219 508 table \$0-sample;
#X obj 187 105 hsl 60 10 0 2 0 0 \$0-volume-s \$0-volume-r empty -2
-6 0 8 -106458 -1 -1 2950 1;
#X obj 314 332 r \$0-volume-s;
#X obj 590 11 inlet;
#X obj 590 57 s \$0-load-r;
#X obj 663 57 s \$0-play-r;
#X obj 812 57 s \$0-loop-r;
#X obj 886 57 s \$0-volume-r;
#X msg 535 236 label \$1;
#X obj 528 212 makefilename %s;
#X obj 535 258 s \$0-cnv;
#X obj 831 211 cnv 10 1 1 empty \$0-cnv /Users/Shared/Musebot/addons/ma4u/audioloops/BASS.aif
-180 5 1 9 -233017 -1 0;
#X obj -10 356 symbol2list /;
#X obj -10 379 list-rev;
#X obj -10 401 list-idx;
#X symbolatom 104 130 22 0 0 0 - #0-filename-gui -;
#X obj 528 337 float \$1;
#X obj 528 316 bng 15 250 50 0 empty empty empty 0 -6 0 10 -262144
-1 -1;
#X obj 274 138 bng 10 250 50 0 \$0-save-s \$0-save-r save 0 -6 0 8
-4032 -1 -1;
#X obj 139 113 bng 12 250 50 0 \$0-stop-s \$0-stop-r Stop 0 -6 0 8
-4033 -1 -1;
#X obj 298 237 r \$0-stop-s;
#X msg 298 260 stop;
#X obj 737 57 s \$0-stop-r;
#X obj 590 35 OSCroute /load /play /stop /loop /volume /save;
#X obj 975 57 s \$0-save-r;
#X obj 528 370 pack f s;
#X obj 546 393 prepend set;
#X msg 546 419 0 /Users/Shared/Musebot/addons/ma4u/audioloops/BASS.aif
;
#X obj 528 454 outlet;
#X obj 528 283 t b s;
#X obj 168 34 inlet;
#X obj -10 322 pack s;
#X msg 376 388 1;
#X obj 210 33 inlet;
#X obj 314 378 line~;
#X obj 314 354 pack 0 50;
#X obj 299 418 *~;
#X obj 590 82 loadbang;
#X msg 591 108 1;
#X text 600 342 sends the object's argument: slg.loadsample [2];
#X obj 130 508 samplerate~;
#X obj 103 482 t f b;
#X obj 103 534 /;
#X obj 535 530 outlet;
#X obj 267 28 inlet;
#X obj 618 133 print using;
#X msg 618 108 slg.loadsample~ 2007 (c) Sylvain Le Groux;
#X obj 436 281 r \$0-loop-s;
#X obj 403 334 s \$0-play-r;
#X obj 535 504 r \$0-play-s;
#X obj 220 239 r \$0-play-s;
#X obj 104 558 s \$0-size-gui;
#X obj -10 433 s \$0-filename-gui;
#X obj 102 170 r \$0-load-s;
#X obj 125 58 sel 1 0;
#X obj 600 534 bng 15 250 50 0 empty empty empty 17 7 0 10 -262144
-1 -1;
#X connect 1 0 58 0;
#X connect 2 0 11 0;
#X connect 2 0 26 0;
#X connect 2 0 29 0;
#X connect 8 0 65 0;
#X connect 9 0 53 0;
#X connect 9 1 8 0;
#X connect 10 0 1 0;
#X connect 11 0 10 0;
#X connect 12 0 11 1;
#X connect 13 0 12 0;
#X connect 14 0 13 0;
#X connect 15 0 13 0;
#X connect 16 0 71 0;
#X connect 19 0 52 0;
#X connect 20 0 40 0;
#X connect 25 0 27 0;
#X connect 26 0 25 0;
#X connect 26 0 46 0;
#X connect 29 0 30 0;
#X connect 30 0 31 0;
#X connect 31 0 69 0;
#X connect 33 0 42 0;
#X connect 34 0 33 0;
#X connect 37 0 38 0;
#X connect 38 0 9 0;
#X connect 40 0 21 0;
#X connect 40 1 22 0;
#X connect 40 2 39 0;
#X connect 40 3 23 0;
#X connect 40 4 24 0;
#X connect 40 5 41 0;
#X connect 42 0 43 0;
#X connect 42 0 45 0;
#X connect 43 0 44 0;
#X connect 46 0 34 0;
#X connect 46 1 42 1;
#X connect 47 0 48 0;
#X connect 48 0 29 0;
#X connect 48 0 11 0;
#X connect 49 0 53 1;
#X connect 50 0 18 0;
#X connect 51 0 53 1;
#X connect 52 0 51 0;
#X connect 53 0 6 0;
#X connect 54 0 55 0;
#X connect 54 0 63 0;
#X connect 55 0 18 0;
#X connect 57 0 59 1;
#X connect 58 0 59 0;
#X connect 58 1 57 0;
#X connect 59 0 68 0;
#X connect 61 0 7 0;
#X connect 63 0 62 0;
#X connect 64 0 8 1;
#X connect 66 0 60 0;
#X connect 66 0 72 0;
#X connect 67 0 9 0;
#X connect 70 0 2 0;
#X connect 71 0 4 0;
#X connect 71 1 36 0;
#X coords 0 -1 1 1 150 50 1 100 100;
