#N canvas 615 241 531 357 10;
#N canvas 0 22 280 260 matrix-stuff 0;
#X obj 13 137 matrix 5 6;
#X msg 13 112 element \$1 \$2 \$3;
#X obj 154 99 bng 15 250 50 0 empty empty empty 0 -6 0 10 -262144 -1
-1;
#X obj 13 87 pack f f f;
#X obj 13 161 zl slice 3;
#X connect 0 0 4 0;
#X connect 1 0 0 0;
#X connect 2 0 3 0;
#X connect 2 0 0 0;
#X connect 3 0 1 0;
#X restore 19 360 pd matrix-stuff;
#N canvas 0 22 1248 701 control-point-gui 0;
#X obj 119 157 grid grid1 200 1 7 200 1 6 1 1 1 6 5 142 300;
#X floatatom 119 358 5 0 0 0 - - -;
#X obj 266 358 nbx 5 14 -1e+37 1e+37 0 0 empty empty empty 0 -6 0 10
-262144 -1 -1 1 256;
#X obj 335 117 grid grid1 20 0 2 240 1 13 1 1 1 1 12 343 183;
#X obj 394 267 knob 32 32 0 1 0 0 empty empty empty 0 -8 0 8 -4160
-4160 -1 0 1;
#X obj 394 307 nbx 5 14 -1e+37 1e+37 0 0 empty empty empty 0 -6 0 10
-203904 -1 -1 0 256;
#X text 121 126 Cell Group;
#X text 258 120 Cell Layer;
#X text 380 238 Cell color;
#X obj 470 265 knob 32 32 0 1 0 0 empty empty empty 0 -8 0 8 -4160
-4160 -1 0 1;
#X obj 470 305 nbx 5 14 -1e+37 1e+37 0 0 empty empty empty 0 -6 0 10
-203904 -1 -1 0 256;
#X text 462 238 Cell Value;
#X obj 376 729 prepend set;
#X msg 377 750 send 0 0 0 0 0 0 0 0 0 8 0 0 0 0 0 0 0 0 0 0 0 0 0 0
0 0 0 0 0 0 0 0;
#X obj 376 558 list append;
#X obj 375 589 list append;
#X obj 375 613 prepend send;
#X obj 375 699 netsend 1;
#X msg 749 281 disconnect;
#X msg 747 259 connect 10.211.55.12 11979;
#X obj 351 410 - 1;
#X obj 351 438 div;
#X floatatom 380 437 5 0 0 0 - - -;
#X floatatom 351 463 5 0 0 0 - - -;
#X obj 383 197 tgl 20 0 empty empty empty 0 -6 0 10 -4160 -1 -1 0 1
;
#X text 380 177 Data;
#X obj 375 659 spigot;
#X obj 675 433 +;
#X obj 690 361 - 1;
#X obj 690 381 * 6;
#X obj 675 413 bng 15 250 50 0 empty empty empty 0 -6 0 10 -262144
-1 -1;
#X floatatom 627 450 5 0 0 0 - - -;
#X obj 644 557 list prepend;
#X floatatom 713 536 5 0 0 0 - - -;
#X obj 644 611 zl rot;
#X floatatom 677 589 5 0 0 0 - - -;
#X msg 644 512 0 0 0 0 0 0 0 0 0 0 0 0 0 0 0 0 0 0 0 0 0 0 0 0 0 0
0 0 0;
#X obj 675 457 - 1;
#X obj 639 379 bng 15 250 50 0 empty empty empty 0 -6 0 10 -262144
-1 -1;
#X text 372 113 Network Connection;
#X obj 382 140 tgl 20 0 empty empty empty 0 -6 0 10 -4160 -1 -1 0 1
;
#X obj 765 168 sel 0 1;
#X connect 0 0 1 0;
#X connect 0 1 2 0;
#X connect 0 1 28 0;
#X connect 1 0 27 0;
#X connect 1 0 38 0;
#X connect 2 0 38 0;
#X connect 3 1 20 0;
#X connect 4 0 5 0;
#X connect 5 0 14 1;
#X connect 5 0 38 0;
#X connect 9 0 10 0;
#X connect 10 0 15 1;
#X connect 10 0 38 0;
#X connect 12 0 13 0;
#X connect 14 0 15 0;
#X connect 15 0 16 0;
#X connect 16 0 12 0;
#X connect 16 0 26 0;
#X connect 18 0 17 0;
#X connect 19 0 17 0;
#X connect 20 0 21 0;
#X connect 20 0 22 0;
#X connect 21 0 23 0;
#X connect 21 0 33 0;
#X connect 24 0 26 1;
#X connect 26 0 17 0;
#X connect 27 0 31 0;
#X connect 27 0 37 0;
#X connect 28 0 29 0;
#X connect 29 0 27 1;
#X connect 29 0 30 0;
#X connect 30 0 27 0;
#X connect 32 0 34 0;
#X connect 33 0 32 1;
#X connect 34 0 14 0;
#X connect 35 0 34 1;
#X connect 36 0 32 0;
#X connect 37 0 35 0;
#X connect 38 0 36 0;
#X connect 40 0 41 0;
#X connect 41 0 18 0;
#X connect 41 1 19 0;
#X coords 0 -1 1 1 500 300 1 100 100;
#X restore 21 38 pd control-point-gui;
