#N canvas 0 22 1263 752 10;
#X obj 101 102 cnv 15 475 58 empty empty empty 20 12 0 14 -233017 -66577
0;
#X obj 101 152 slg.sampler12~;
#X obj 102 122 bng 30 250 50 0 empty empty empty 0 -6 0 10 -162280
-1 -1;
#X obj 141 121 bng 30 250 50 0 empty empty empty 0 -6 0 10 -258113
-1 -1;
#X obj 179 122 bng 30 250 50 0 empty empty empty 0 -6 0 10 -258113
-1 -1;
#X obj 217 122 bng 30 250 50 0 empty empty empty 0 -6 0 10 -258113
-1 -1;
#X obj 254 122 bng 30 250 50 0 empty empty empty 0 -6 0 10 -258113
-1 -1;
#X obj 295 122 bng 30 250 50 0 empty empty empty 0 -6 0 10 -258113
-1 -1;
#X obj 337 122 bng 30 250 50 0 empty empty empty 0 -6 0 10 -162280
-1 -1;
#X obj 377 122 bng 30 250 50 0 empty empty empty 0 -6 0 10 -258113
-1 -1;
#X obj 420 122 bng 30 250 50 0 empty empty empty 0 -6 0 10 -258113
-1 -1;
#X obj 465 122 bng 30 250 50 0 empty empty empty 0 -6 0 10 -258113
-1 -1;
#X obj 503 121 bng 30 250 50 0 empty empty empty 0 -6 0 10 -258113
-1 -1;
#X obj 542 122 bng 30 250 50 0 empty empty empty 0 -6 0 10 -258113
-1 -1;
#X msg 528 -116 /s1 b;
#X msg 575 -118 /s2 b;
#X msg 621 -119 /s3 b;
#X msg 666 -119 /s4 b;
#X msg 525 -93 /s5 b;
#X msg 575 -92 /s6 b;
#X msg 624 -93 /s7 b;
#X msg 674 -94 /s8 b;
#X msg 525 -68 /s9 b;
#X msg 575 -67 /s10 b;
#X msg 624 -69 /s11 b;
#X msg 674 -69 /s12 b;
#X obj 100 481 outlet~;
#X obj 3 -224 notein;
#X floatatom 11 -199 5 0 0 0 - - -;
#X floatatom 53 -198 5 0 0 0 - - -;
#X floatatom 91 -199 5 0 0 0 - - -;
#X text 102 -177 channel;
#X text 40 -176 velocity;
#X text 3 -175 note;
#X obj 66 -160 maxlib/scale 0 127 0 1;
#X obj 256 105 nbx 5 14 -1e+37 1e+37 0 0 empty empty empty 0 -6 0 10
-257985 -1 -1 0 256;
#X obj 161 104 nbx 5 14 -1e+37 1e+37 0 0 empty empty empty 0 -6 0 10
-257985 -1 -1 0 256;
#X obj 365 104 nbx 5 14 -1e+37 1e+37 0 0 empty empty empty 0 -6 0 10
-257985 -1 -1 0 256;
#X text 218 103 note;
#X text 312 103 velocity;
#X text 423 103 channel;
#X text 105 102 MIDI IN:;
#X floatatom 640 147 5 0 0 0 - - -;
#X floatatom 640 129 5 0 0 0 - - -;
#X obj 531 103 nbx 3 14 -1e+37 1e+37 0 0 empty empty empty 0 -6 0 10
-260097 -1 -1 0 256;
#X obj 488 103 nbx 3 14 -1e+37 1e+37 0 0 empty empty empty 0 -6 0 10
-260097 -1 -1 5 256;
#X text 500 102 bank;
#X text 549 101 env;
#X obj 398 -183 inlet;
#X obj 453 -184 inlet;
#X text 400 -204 bank;
#X text 455 -202 env;
#X obj 201 -206 hsl 128 15 0 1 0 0 empty empty empty -2 -6 0 10 -262144
-1 -1 0 1;
#X floatatom 198 -185 5 0 0 0 - - -;
#X obj 277 -177 inlet;
#X obj 618 235 bng 15 250 50 0 empty empty empty 0 -6 0 10 -262144
-1 -1;
#X obj 618 215 debounce 15;
#X obj 695 236 bng 15 250 50 0 empty empty empty 0 -6 0 10 -262144
-1 -1;
#X obj 695 214 debounce 15;
#X obj 776 235 bng 15 250 50 0 empty empty empty 0 -6 0 10 -262144
-1 -1;
#X obj 776 213 debounce 15;
#X obj 858 235 bng 15 250 50 0 empty empty empty 0 -6 0 10 -262144
-1 -1;
#X obj 858 213 debounce 15;
#X obj 937 234 bng 15 250 50 0 empty empty empty 0 -6 0 10 -262144
-1 -1;
#X obj 937 212 debounce 15;
#X obj 1015 235 bng 15 250 50 0 empty empty empty 0 -6 0 10 -262144
-1 -1;
#X obj 1015 213 debounce 15;
#X obj 692 376 bng 15 250 50 0 empty empty empty 0 -6 0 10 -262144
-1 -1;
#X obj 692 356 debounce 15;
#X obj 769 377 bng 15 250 50 0 empty empty empty 0 -6 0 10 -262144
-1 -1;
#X obj 769 355 debounce 15;
#X obj 850 376 bng 15 250 50 0 empty empty empty 0 -6 0 10 -262144
-1 -1;
#X obj 850 354 debounce 15;
#X obj 932 376 bng 15 250 50 0 empty empty empty 0 -6 0 10 -262144
-1 -1;
#X obj 932 354 debounce 15;
#X obj 1011 375 bng 15 250 50 0 empty empty empty 0 -6 0 10 -262144
-1 -1;
#X obj 1011 353 debounce 15;
#X obj 1089 376 bng 15 250 50 0 empty empty empty 0 -6 0 10 -262144
-1 -1;
#X obj 1089 354 debounce 15;
#X floatatom 1203 76 5 0 0 0 - - -;
#X text 1170 58 debounce time;
#X obj 1203 12 loadbang;
#X msg 1203 39 100;
#X obj 929 -184 select 30 100 31 32 33 34 35 36 37 38 39 40;
#X connect 1 0 26 0;
#X connect 2 0 14 0;
#X connect 3 0 15 0;
#X connect 4 0 16 0;
#X connect 5 0 17 0;
#X connect 6 0 18 0;
#X connect 7 0 19 0;
#X connect 8 0 20 0;
#X connect 9 0 21 0;
#X connect 10 0 22 0;
#X connect 11 0 23 0;
#X connect 12 0 24 0;
#X connect 13 0 25 0;
#X connect 14 0 1 4;
#X connect 15 0 1 4;
#X connect 16 0 1 4;
#X connect 17 0 1 4;
#X connect 18 0 1 4;
#X connect 19 0 1 4;
#X connect 20 0 1 4;
#X connect 21 0 1 4;
#X connect 22 0 1 4;
#X connect 23 0 1 4;
#X connect 24 0 1 4;
#X connect 25 0 1 4;
#X connect 27 0 28 0;
#X connect 27 1 29 0;
#X connect 27 2 30 0;
#X connect 28 0 36 0;
#X connect 28 0 83 0;
#X connect 29 0 34 0;
#X connect 30 0 37 0;
#X connect 42 0 1 3;
#X connect 43 0 1 2;
#X connect 44 0 43 0;
#X connect 45 0 42 0;
#X connect 48 0 45 0;
#X connect 49 0 44 0;
#X connect 52 0 53 0;
#X connect 53 0 1 1;
#X connect 54 0 1 1;
#X connect 55 0 2 0;
#X connect 56 0 55 0;
#X connect 57 0 3 0;
#X connect 58 0 57 0;
#X connect 59 0 4 0;
#X connect 60 0 59 0;
#X connect 61 0 5 0;
#X connect 62 0 61 0;
#X connect 63 0 6 0;
#X connect 64 0 63 0;
#X connect 65 0 7 0;
#X connect 66 0 65 0;
#X connect 67 0 8 0;
#X connect 68 0 67 0;
#X connect 69 0 9 0;
#X connect 70 0 69 0;
#X connect 71 0 10 0;
#X connect 72 0 71 0;
#X connect 73 0 11 0;
#X connect 74 0 73 0;
#X connect 75 0 12 0;
#X connect 76 0 75 0;
#X connect 77 0 13 0;
#X connect 78 0 77 0;
#X connect 79 0 56 1;
#X connect 79 0 58 1;
#X connect 79 0 60 1;
#X connect 79 0 62 1;
#X connect 79 0 64 1;
#X connect 79 0 66 1;
#X connect 79 0 68 1;
#X connect 79 0 70 1;
#X connect 79 0 72 1;
#X connect 79 0 74 1;
#X connect 79 0 76 1;
#X connect 79 0 78 1;
#X connect 81 0 82 0;
#X connect 82 0 79 0;
#X connect 83 0 56 0;
#X connect 83 1 58 0;
#X connect 83 2 60 0;
#X connect 83 3 62 0;
#X connect 83 4 64 0;
#X connect 83 5 66 0;
#X connect 83 6 68 0;
#X connect 83 7 70 0;
#X connect 83 8 72 0;
#X connect 83 9 74 0;
#X connect 83 10 76 0;
#X connect 83 11 78 0;
#X coords 0 -1 1 1 477 375 1 100 100;
