#N canvas 368 235 572 500 10;
#X obj 101 101 cnv 15 210 100 empty empty empty 20 12 0 14 -128992
-66577 0;
#X obj 106 108 vsl 15 75 -99 18 0 1 \$0-getDBMaster \$0-setDBMaster
empty 0 -7 0 8 -260097 -1 -1 5882 1;
#X obj 106 187 nbx 3 10 -1e+37 1e+37 0 0 empty empty empty 0 -6 0 10
-191407 -1 -1 -6.00081 256;
#X obj 121 176 bng 10 250 50 0 \$0-resetDBMaster empty empty 0 -6 0
10 -4034 -1 -1;
#X obj 141 107 slg.v~;
#X obj 183 107 slg.v~;
#X obj 224 107 slg.v~;
#X obj 266 107 slg.v~;
#N canvas 421 66 1019 329 dac 1;
#X obj 629 271 line~;
#X obj 680 149 loadbang;
#X obj 629 208 pack 0 30;
#X obj 629 176 + 127;
#X obj 629 152 t f;
#X text 591 85 range( -127db : +18db);
#X text 756 165 optional fade time (ms);
#X msg 680 173 0;
#X obj 298 152 *~;
#X obj 629 246 linedrive 145 7.94328 1.12202 30;
#X obj 323 151 *~;
#X obj 295 222 dac~ 1 2 3 4;
#X obj 378 154 *~;
#X obj 403 153 *~;
#X text 220 7 left front;
#X text 315 6 right front;
#X text 406 6 left rear;
#X text 470 6 right rear;
#X obj 568 24 catch~ LRFR;
#X obj 495 149 *~;
#X obj 648 110 s \$0-setDBMaster;
#X obj 648 128 r \$0-getDBMaster;
#X obj 755 183 r \$0-getFadeMaster;
#X floatatom 761 209 5 0 0 0 - - -;
#X obj 407 27 catch~ LRear;
#X obj 483 26 catch~ RRear;
#X obj 212 27 catch~ LFront;
#X obj 305 28 catch~ RFront;
#X msg 93 60 -6;
#X obj 92 9 loadbang;
#X obj 74 27 r \$0-resetDBMaster;
#X obj 93 81 s \$0-setDBMaster;
#X obj 240 283 outlet~;
#X obj 295 282 outlet~;
#X obj 348 281 outlet~;
#X obj 402 280 outlet~;
#X msg 132 58 100;
#X obj 132 110 s \$0-setFadeMaster;
#X connect 0 0 8 1;
#X connect 0 0 10 1;
#X connect 0 0 12 1;
#X connect 0 0 13 1;
#X connect 0 0 19 1;
#X connect 1 0 7 0;
#X connect 2 0 9 0;
#X connect 3 0 2 0;
#X connect 4 0 3 0;
#X connect 7 0 2 1;
#X connect 8 0 11 0;
#X connect 8 0 32 0;
#X connect 9 0 0 0;
#X connect 10 0 11 1;
#X connect 10 0 33 0;
#X connect 12 0 11 2;
#X connect 12 0 34 0;
#X connect 13 0 11 3;
#X connect 13 0 35 0;
#X connect 18 0 19 0;
#X connect 19 0 11 0;
#X connect 19 0 11 1;
#X connect 19 0 11 2;
#X connect 19 0 11 3;
#X connect 21 0 4 0;
#X connect 22 0 2 1;
#X connect 22 0 23 0;
#X connect 24 0 12 0;
#X connect 25 0 13 0;
#X connect 26 0 8 0;
#X connect 27 0 10 0;
#X connect 28 0 31 0;
#X connect 29 0 28 0;
#X connect 29 0 36 0;
#X connect 30 0 28 0;
#X connect 36 0 37 0;
#X restore 177 55 pd dac;
#X obj 124 157 knob 15 15 20 10000 0 0 \$0-getFadeMaster \$0-setFadeMaster
empty 0 -8 192 8 -257985 -1 -1 0 1;
#X connect 1 0 2 0;
#X connect 8 0 4 0;
#X connect 8 1 5 0;
#X connect 8 2 6 0;
#X connect 8 3 7 0;
#X coords 0 -1 1 1 212 102 2 100 100;
