#N canvas 408 22 1032 536 10;
#X obj 101 101 cnv 15 528 150 empty empty empty 20 12 0 14 -1 -66577
0;
#X text 310 309 Textures;
#X text 253 308 Rhythm;
#X obj 230 -84 catch~ rhythmL;
#X obj 230 -84 catch~ rhythmR;
#X obj 140 -84 catch~ musicL;
#X obj 140 -84 catch~ musicR;
#X obj 325 -66 catch~ textureL;
#X obj 325 -84 catch~ textureR;
#X text 371 308 Voice Over;
#X obj 427 -84 catch~ voiceR;
#X obj 427 -84 catch~ voiceL;
#X obj 527 -84 catch~ sfxL;
#X obj 527 -84 catch~ sfxR;
#X text 495 308 Sound Track;
#X obj 610 -84 catch~ trackR;
#X obj 610 -84 catch~ trackL;
#X obj 699 -84 catch~ loopsL;
#X obj 699 -84 catch~ loopsR;
#X text 582 307 Loops;
#X obj 472 -137 loadbang;
#X msg 749 -111 -10;
#X msg 472 -114 -3;
#X msg 185 -110 -5;
#X msg 370 -116 -10;
#X msg 85 -114 -27;
#X obj 658 140 closebang;
#X obj 659 166 s closeMixer;
#X text 449 309 SFX;
#X text 188 307 Melody;
#X text 125 308 Live;
#X obj 57 -81 catch~ liveR;
#X obj 55 -80 catch~ liveL;
#X obj 111 109 slg.2-M~;
#X obj 174 109 slg.2-M~;
#X obj 301 109 slg.2-M~;
#X obj 238 109 slg.2-M~;
#X obj 365 109 slg.2-M~;
#X obj 429 110 slg.2-M~;
#X obj 491 109 slg.2-M~;
#X obj 553 109 slg.2-M~;
#X obj 128 235 comment 0 12 Times ? 0 255 255 255 Live;
#X obj 249 235 comment 0 12 Times ? 0 255 255 255 Rhythm;
#X obj 312 235 comment 0 12 Times ? 0 255 255 255 Textures;
#X obj 186 235 comment 0 12 Times ? 0 255 255 255 Melody;
#X obj 376 234 comment 0 12 Times ? 0 255 255 255 Voice;
#X obj 441 235 comment 0 12 Times ? 0 255 255 255 SFX;
#X obj 506 236 comment 0 12 Times ? 0 255 255 255 Track;
#X obj 567 235 comment 0 12 Times ? 0 255 255 255 Loops;
#X connect 3 0 36 0;
#X connect 4 0 36 1;
#X connect 5 0 34 0;
#X connect 6 0 34 1;
#X connect 7 0 35 0;
#X connect 8 0 35 1;
#X connect 10 0 37 1;
#X connect 11 0 37 0;
#X connect 12 0 38 0;
#X connect 13 0 38 1;
#X connect 15 0 39 1;
#X connect 16 0 39 0;
#X connect 17 0 40 0;
#X connect 18 0 40 1;
#X connect 20 0 22 0;
#X connect 20 0 21 0;
#X connect 20 0 24 0;
#X connect 20 0 23 0;
#X connect 20 0 25 0;
#X connect 21 0 40 2;
#X connect 22 0 37 2;
#X connect 23 0 34 2;
#X connect 24 0 35 2;
#X connect 26 0 27 0;
#X connect 31 0 33 1;
#X connect 32 0 33 0;
#X coords 0 -1 1 1 530 150 1 100 100;
