#N canvas 488 172 892 613 10;
#X obj 10 40 inlet~;
#X obj 612 40 inlet;
#X obj 10 298 *~;
#X obj 612 220 line~;
#X obj 652 76 loadbang;
#X obj 805 40 inlet;
#X obj 612 157 pack 0 30;
#X obj 10 328 outlet~;
#X obj 66 40 inlet~;
#X obj 66 298 *~;
#X obj 66 328 outlet~;
#X obj 122 40 inlet~;
#X obj 122 298 *~;
#X obj 122 328 outlet~;
#X obj 178 40 inlet~;
#X obj 178 298 *~;
#X obj 178 328 outlet~;
#X obj 612 125 + 127;
#X obj 612 101 t f;
#X text 553 25 range( -127db : +18db);
#X text 745 24 optional fade time (ms);
#X obj 612 195 linedrivee 145 7.94328 1.12202 30;
#X text 8 5 5gain2~ : 5 channels gain control;
#X text 12 392 xjimmies lib. z. settel/jm dumas 2003-2006;
#X msg 652 100 0;
#X obj 238 38 inlet~;
#X obj 238 296 *~;
#X obj 238 326 outlet~;
#X obj 294 38 inlet~;
#X obj 294 296 *~;
#X obj 294 326 outlet~;
#X connect 0 0 2 0;
#X connect 1 0 18 0;
#X connect 2 0 7 0;
#X connect 3 0 2 1;
#X connect 3 0 9 1;
#X connect 3 0 12 1;
#X connect 3 0 15 1;
#X connect 3 0 26 1;
#X connect 3 0 29 1;
#X connect 4 0 24 0;
#X connect 5 0 6 1;
#X connect 6 0 21 0;
#X connect 8 0 9 0;
#X connect 9 0 10 0;
#X connect 11 0 12 0;
#X connect 12 0 13 0;
#X connect 14 0 15 0;
#X connect 15 0 16 0;
#X connect 17 0 6 0;
#X connect 18 0 17 0;
#X connect 21 0 3 0;
#X connect 24 0 6 1;
#X connect 25 0 26 0;
#X connect 26 0 27 0;
#X connect 28 0 29 0;
#X connect 29 0 30 0;
