#N canvas 207 81 906 472 10;
#X obj 10 40 inlet~;
#X obj 612 40 inlet;
#X obj 10 298 *~;
#X obj 612 220 line~;
#X obj 652 76 loadbang;
#X obj 805 40 inlet;
#X obj 612 157 pack 0 30;
#X obj 10 328 outlet~;
#X obj 66 298 *~;
#X obj 66 328 outlet~;
#X obj 122 298 *~;
#X obj 122 328 outlet~;
#X obj 178 298 *~;
#X obj 178 328 outlet~;
#X obj 612 125 + 127;
#X obj 612 101 t f;
#X text 553 25 range( -127db : +18db);
#X text 745 24 optional fade time (ms);
#X text 8 5 5gain2~ : 5 channels gain control;
#X text 12 392 xjimmies lib. z. settel/jm dumas 2003-2006;
#X msg 652 100 0;
#X obj 238 296 *~;
#X obj 238 326 outlet~;
#X obj 294 296 *~;
#X obj 294 326 outlet~;
#X obj 612 195 linedrive 145 7.94328 1.12202 30;
#X obj 406 347 env~;
#X floatatom 406 371 5 0 0 0 - - -;
#X connect 0 0 2 0;
#X connect 0 0 8 0;
#X connect 0 0 10 0;
#X connect 0 0 12 0;
#X connect 0 0 21 0;
#X connect 0 0 23 0;
#X connect 0 0 26 0;
#X connect 1 0 15 0;
#X connect 2 0 7 0;
#X connect 3 0 2 1;
#X connect 3 0 8 1;
#X connect 3 0 10 1;
#X connect 3 0 12 1;
#X connect 3 0 21 1;
#X connect 3 0 23 1;
#X connect 4 0 20 0;
#X connect 5 0 6 1;
#X connect 6 0 25 0;
#X connect 8 0 9 0;
#X connect 10 0 11 0;
#X connect 12 0 13 0;
#X connect 14 0 6 0;
#X connect 15 0 14 0;
#X connect 20 0 6 1;
#X connect 21 0 22 0;
#X connect 23 0 24 0;
#X connect 25 0 3 0;
#X connect 26 0 27 0;
