#N canvas 0 22 698 445 10;
#X obj 276 34 inlet;
#X obj 276 214 line~;
#X obj 316 70 loadbang;
#X obj 469 34 inlet;
#X obj 276 151 pack 0 30;
#X obj 276 119 + 127;
#X obj 276 95 t f;
#X text 217 19 range( -127db : +18db);
#X text 409 18 optional fade time (ms);
#X msg 316 94 0;
#X obj 61 32 inlet~;
#X obj 61 290 *~;
#X obj 61 320 outlet~;
#X obj 276 189 linedrive 145 7.94328 1.12202 30;
#X obj 97 78 env~ 8192;
#X floatatom 183 99 5 0 0 0 - - -;
#X connect 0 0 6 0;
#X connect 1 0 11 1;
#X connect 2 0 9 0;
#X connect 3 0 4 1;
#X connect 4 0 13 0;
#X connect 5 0 4 0;
#X connect 6 0 5 0;
#X connect 9 0 4 1;
#X connect 10 0 11 0;
#X connect 10 0 14 0;
#X connect 11 0 12 0;
#X connect 13 0 1 0;
#X connect 14 0 15 0;
