#N canvas 915 396 450 300 10;
#N canvas 421 22 1019 329 adc 1;
#X obj 629 271 line~;
#X obj 680 149 loadbang;
#X obj 629 208 pack 0 30;
#X obj 629 176 + 127;
#X obj 629 152 t f;
#X text 591 85 range( -127db : +18db);
#X text 756 165 optional fade time (ms);
#X msg 680 173 0;
#X obj 298 152 *~;
#X obj 629 246 linedrive 145 7.94328 1.12202 30;
#X obj 323 151 *~;
#X floatatom 761 209 5 0 0 0 - - -;
#X msg 93 60 -6;
#X obj 92 9 loadbang;
#X obj 74 27 r \$0-resetDBInput;
#X obj 93 81 s \$0-setDBInput;
#X obj 647 126 r \$0-getDBInput;
#X obj 755 183 r \$0-getFaderInput;
#X obj 291 28 adc~ 1 2;
#X obj 190 258 throw~ LFront;
#X obj 282 255 throw~ RFront;
#X obj 269 287 throw~ LRear;
#X obj 361 284 throw~ RRear;
#X obj 37 151 outlet~;
#X obj 91 150 outlet~;
#X obj 148 154 outlet~;
#X obj 202 153 outlet~;
#X obj 365 71 s~ input1;
#X obj 436 71 s~ input2;
#X obj 196 80 s \$0-setFaderInput;
#X msg 194 54 100;
#X connect 0 0 8 1;
#X connect 0 0 10 1;
#X connect 1 0 7 0;
#X connect 2 0 9 0;
#X connect 3 0 2 0;
#X connect 4 0 3 0;
#X connect 7 0 2 1;
#X connect 8 0 19 0;
#X connect 8 0 21 0;
#X connect 8 0 25 0;
#X connect 9 0 0 0;
#X connect 10 0 20 0;
#X connect 10 0 22 0;
#X connect 10 0 26 0;
#X connect 12 0 15 0;
#X connect 13 0 12 0;
#X connect 13 0 30 0;
#X connect 14 0 12 0;
#X connect 16 0 4 0;
#X connect 17 0 2 1;
#X connect 17 0 11 0;
#X connect 18 0 8 0;
#X connect 18 0 23 0;
#X connect 18 0 27 0;
#X connect 18 1 10 0;
#X connect 18 1 24 0;
#X connect 18 1 28 0;
#X connect 30 0 29 0;
#X restore 167 42 pd adc;
#X obj 101 101 cnv 15 210 100 empty empty empty 20 12 0 14 -128992
-66577 0;
#X obj 193 110 vsl 15 75 -99 18 0 1 \$0-getDBInput \$0-setDBInput empty
0 -7 0 8 -260097 -1 -1 5882 1;
#X obj 193 189 nbx 3 10 -1e+37 1e+37 0 0 empty empty empty 0 -6 0 10
-191407 -1 -1 -6.00081 256;
#X obj 208 178 bng 10 250 50 0 \$0-resetDBInput empty empty 0 -6 0
10 -4034 -1 -1;
#X obj 211 159 knob 15 15 20 1000 0 0 \$0-getFaderInput \$0-setFaderInput
empty 0 -8 192 8 -257985 -1 -1 114 1;
#X obj 106 107 slg.v~;
#X obj 147 107 slg.v~;
#X obj 228 108 slg.v~;
#X obj 269 108 slg.v~;
#X connect 0 0 6 0;
#X connect 0 1 7 0;
#X connect 0 2 8 0;
#X connect 0 3 9 0;
#X connect 2 0 3 0;
#X coords 0 -1 1 1 212 102 1 100 100;
