#N canvas 170 22 802 152 10;
#X obj -14 -22 cnv 15 800 150 empty empty empty 20 12 0 14 -1 -66577
0;
#N canvas 549 110 814 448 aubio 0;
#X obj 101 101 cnv 15 160 125 empty empty empty 20 12 0 14 -162280
-66577 0;
#X obj 178 182 bng 25 250 50 0 empty \$0-AubioOnset empty 17 7 0 10
-258113 -1 -1;
#X obj 132 110 nbx 4 14 -1e+37 1e+37 0 0 empty \$0-set-aubio-pitch
empty 0 -8 0 10 -228856 -1 -1 0 256;
#X obj 225 181 bng 25 250 50 0 empty \$0-AubioBeat empty 17 7 0 10
-258113 -1 -1;
#X obj 229 -53 aubiopitch~;
#X obj 346 -54 aubioquiet~;
#X obj 440 -37 aubiotempo~;
#X obj 546 -53 aubiotss~;
#X obj 130 -121 r~ input1;
#X obj 130 -31 s \$0-AubioOnset;
#X obj 130 -53 aubioonset~ 0.3;
#X msg 130 18 0.3;
#X obj 130 41 s \$0-set-aubio-onset-threshold;
#X obj 130 -5 loadbang;
#X obj 218 -123 r \$0-get-aubio-onset-threshold;
#X obj 229 -31 s \$0-set-aubio-pitch;
#X obj 440 -7 s \$0-AubioBeat;
#X obj 363 12 ftom;
#X floatatom 179 109 5 0 0 0 - - -;
#X floatatom 131 143 5 0 0 0 - - -;
#X floatatom 178 143 5 0 0 0 - - -;
#X floatatom 219 145 5 0 0 0 - - -;
#X symbolatom 215 110 7 0 0 0 - - -;
#X obj 365 38 pitch 72;
#X obj 85 -118 inlet~;
#X obj 106 129 vsl 15 90 0 10 0 0 \$0-get-aubio-onset-threshold \$0-set-aubio-onset-threshold
empty 0 -9 0 10 -260097 -1 -1 267 1;
#X text 123 125 frequency;
#X text 179 126 Midi;
#X text 215 125 Name;
#X text 133 157 pc;
#X text 159 160 interval;
#X text 210 161 register;
#X text 174 209 onset;
#X text 225 207 beat;
#N canvas 634 131 359 300 Note_to_Midi 0;
#X obj 9 8 cnv 15 27 260 empty empty empty 20 12 0 14 -233017 -66577
0;
#X text 11 27 C;
#X text 12 48 C#;
#X text 14 69 D;
#X text 12 91 D#;
#X text 13 108 E;
#X text 13 127 F;
#X text 13 146 F#;
#X text 13 168 G;
#X text 11 188 G#;
#X text 13 208 A;
#X text 12 230 A#;
#X text 13 248 B;
#X obj 9 7 cnv 15 314 20 empty empty empty 20 12 0 14 -233017 -66577
0;
#X obj 6 5 cnv 2 316 2 empty empty empty 20 12 0 14 -1 -66577 0;
#X obj 6 25 cnv 2 316 2 empty empty empty 20 12 0 14 -1 -66577 0;
#X obj 6 45 cnv 2 316 2 empty empty empty 20 12 0 14 -1 -66577 0;
#X obj 6 65 cnv 2 316 2 empty empty empty 20 12 0 14 -1 -66577 0;
#X obj 6 5 cnv 2 2 262 empty empty empty 20 12 0 14 -1 -66577 0;
#X obj 60 5 cnv 2 2 262 empty empty empty 20 12 0 14 -1 -66577 0;
#X obj 86 5 cnv 2 2 262 empty empty empty 20 12 0 14 -1 -66577 0;
#X obj 112 5 cnv 2 2 262 empty empty empty 20 12 0 14 -1 -66577 0;
#X obj 137 5 cnv 2 2 262 empty empty empty 20 12 0 14 -1 -66577 0;
#X obj 6 85 cnv 2 316 2 empty empty empty 20 12 0 14 -1 -66577 0;
#X obj 6 125 cnv 2 316 2 empty empty empty 20 12 0 14 -1 -66577 0;
#X obj 6 145 cnv 2 316 2 empty empty empty 20 12 0 14 -1 -66577 0;
#X obj 6 105 cnv 2 316 2 empty empty empty 20 12 0 14 -1 -66577 0;
#X obj 6 165 cnv 2 316 2 empty empty empty 20 12 0 14 -1 -66577 0;
#X obj 6 205 cnv 2 316 2 empty empty empty 20 12 0 14 -1 -66577 0;
#X obj 6 225 cnv 2 316 2 empty empty empty 20 12 0 14 -1 -66577 0;
#X obj 6 185 cnv 2 316 2 empty empty empty 20 12 0 14 -1 -66577 0;
#X obj 6 245 cnv 2 316 2 empty empty empty 20 12 0 14 -1 -66577 0;
#X obj 6 265 cnv 2 316 2 empty empty empty 20 12 0 14 -1 -66577 0;
#X text 66 7 0;
#X text 92 7 1;
#X text 118 8 2;
#X text 144 8 3;
#X obj 163 5 cnv 2 2 262 empty empty empty 20 12 0 14 -1 -66577 0;
#X obj 191 5 cnv 2 2 262 empty empty empty 20 12 0 14 -1 -66577 0;
#X obj 217 5 cnv 2 2 262 empty empty empty 20 12 0 14 -1 -66577 0;
#X obj 243 5 cnv 2 2 262 empty empty empty 20 12 0 14 -1 -66577 0;
#X obj 268 5 cnv 2 2 262 empty empty empty 20 12 0 14 -1 -66577 0;
#X obj 294 5 cnv 2 2 262 empty empty empty 20 12 0 14 -1 -66577 0;
#X text 167 9 4;
#X text 197 9 5;
#X text 223 8 6;
#X text 248 10 7;
#X text 276 9 8;
#X text 169 28 60;
#X text 168 50 61;
#X text 170 71 62;
#X text 169 91 63;
#X text 170 110 64;
#X text 169 128 65;
#X text 169 150 66;
#X text 170 170 67;
#X text 169 189 68;
#X text 169 210 69;
#X text 168 228 70;
#X text 169 248 71;
#X text 199 28 72;
#X text 199 50 73;
#X text 199 70 74;
#X text 198 89 75;
#X text 199 108 76;
#X text 200 128 77;
#X text 198 150 78;
#X text 199 169 79;
#X text 199 188 80;
#X text 198 209 81;
#X text 198 229 82;
#X text 197 248 83;
#X text 225 29 84;
#X text 226 47 85;
#X text 225 68 86;
#X text 224 89 87;
#X text 224 109 88;
#X text 224 128 89;
#X text 225 148 90;
#X text 225 168 91;
#X text 224 190 92;
#X text 224 210 93;
#X text 225 228 94;
#X text 224 248 95;
#X text 249 28 96;
#X text 249 47 97;
#X text 249 68 98;
#X text 250 88 99;
#X text 247 107 100;
#X text 247 128 101;
#X text 247 148 102;
#X text 247 167 103;
#X text 247 189 104;
#X text 247 208 105;
#X text 247 229 106;
#X text 246 249 107;
#X text 272 28 108;
#X text 272 47 109;
#X text 272 68 110;
#X text 273 88 111;
#X text 272 107 112;
#X text 272 128 113;
#X text 272 148 114;
#X text 272 167 115;
#X text 272 189 116;
#X text 271 208 117;
#X text 272 229 118;
#X text 271 249 119;
#X text 303 9 9;
#X text 299 28 120;
#X text 299 47 121;
#X text 299 68 122;
#X text 300 88 123;
#X text 299 107 124;
#X text 299 128 125;
#X text 299 148 126;
#X text 299 167 127;
#X obj 320 5 cnv 2 2 262 empty empty empty 20 12 0 14 -1 -66577 0;
#X text 144 247 59;
#X text 144 227 58;
#X text 144 206 57;
#X text 143 187 56;
#X text 143 165 55;
#X text 143 146 54;
#X text 143 126 53;
#X text 143 105 52;
#X text 142 87 51;
#X text 143 66 50;
#X text 143 46 49;
#X text 143 27 48;
#X text 119 246 47;
#X text 120 226 46;
#X text 119 208 45;
#X text 119 188 44;
#X text 120 166 43;
#X text 120 146 42;
#X text 119 126 41;
#X text 119 107 40;
#X text 119 87 39;
#X text 120 66 38;
#X text 121 45 37;
#X text 120 27 36;
#X text 92 246 35;
#X text 93 227 34;
#X text 93 207 33;
#X text 94 186 32;
#X text 94 167 31;
#X text 93 148 30;
#X text 93 126 29;
#X text 93 106 28;
#X text 93 87 27;
#X text 94 68 26;
#X text 94 48 25;
#X text 94 26 24;
#X text 64 246 23;
#X text 63 226 22;
#X text 64 208 21;
#X text 64 187 20;
#X text 65 168 19;
#X text 64 148 18;
#X text 64 126 17;
#X text 65 108 16;
#X text 64 89 15;
#X text 65 69 14;
#X text 63 48 13;
#X text 64 26 12;
#X obj 34 5 cnv 2 2 262 empty empty empty 20 12 0 14 -1 -66577 0;
#X text 40 247 11;
#X text 39 227 10;
#X text 40 209 9;
#X text 40 188 8;
#X text 41 169 7;
#X text 40 149 6;
#X text 40 127 5;
#X text 41 109 4;
#X text 40 90 3;
#X text 41 70 2;
#X text 39 49 1;
#X text 39 7 -1;
#X text 324 7 (*);
#X text 4 270 * The middle C takes as a reference register the number
4;
#X restore 470 84 pd Note_to_Midi;
#X obj 130 182 bng 12 250 50 0 open_mtn empty empty 0 -6 0 10 -262130
-1 -1;
#X text 141 180 table;
#X obj 27 154 switch~;
#X obj 104 103 tgl 20 0 empty empty empty 17 7 0 10 -258113 -1 -1 0
1;
#X text 121 207 thr.;
#X connect 4 0 15 0;
#X connect 4 0 17 0;
#X connect 6 0 16 0;
#X connect 8 0 4 0;
#X connect 8 0 5 0;
#X connect 8 0 6 0;
#X connect 8 0 7 0;
#X connect 8 0 10 0;
#X connect 10 0 9 0;
#X connect 11 0 12 0;
#X connect 13 0 11 0;
#X connect 14 0 10 1;
#X connect 14 0 6 1;
#X connect 17 0 23 0;
#X connect 23 0 18 0;
#X connect 23 1 22 0;
#X connect 23 2 19 0;
#X connect 23 3 20 0;
#X connect 23 4 21 0;
#X connect 24 0 10 0;
#X connect 24 0 4 0;
#X connect 24 0 5 0;
#X connect 24 0 6 0;
#X connect 24 0 7 0;
#X connect 38 0 37 0;
#X coords 0 -1 1 1 162 127 1 100 100;
#X restore -5 -14 pd aubio;
#X obj 427 -13 slg.sigmundanalysis~;
#X obj 167 -13 slg.bonkers;
#X obj 688 -1 slg.plot;
#N canvas 1107 22 327 362 plotWindow 1;
#X obj -26 -168 cnv 15 325 360 empty empty empty 20 12 0 14 -99865
-66577 0;
#X obj -20 -158 cnv 15 300 150 empty empty empty 20 12 0 14 -191407
-66577 0;
#N canvas 0 22 450 300 (subpatch) 0;
#X array signal 882 float 0;
#X coords 0 5 882 -5 200 130 1;
#X restore 19 -146 graph;
#N canvas 0 22 450 300 (subpatch) 0;
#X array spectrum 128 float 0;
#X coords 0 4300 127 -40 257 130 1;
#X restore -13 23 graph;
#X text 6 26 ---- 0.02 seconds ----;
#X text 17 155 1;
#X text 51 155 2;
#X text 83 155 3;
#X text 115 155 4;
#X text 148 155 5;
#X text 178 155 6;
#X text 209 155 7;
#X text -15 155 0;
#X text 39 170 -- partial number --;
#X text 76 -7 SPECTRUM;
#X obj -17 6 cnv 15 300 150 empty empty empty 20 12 0 14 -191407 -66577
0;
#X restore 691 78 pd plotWindow;
#X obj 38 114 comment 42 12 Times ? 0 255 255 255 Aubio;
#X obj 225 113 comment 42 12 Times ? 0 255 255 255 fiddle~;
#X obj 496 112 comment 438 12 Times ? 0 255 255 255 bonk~;
