#N canvas 1105 409 336 208 10;
#N canvas 0 22 1263 773 InputControlsOverNetwork 0;
#X obj 998 153 prepend set;
#X msg 998 175 18.4568 -92.4396 3 13 7 11;
#X floatatom 988 231 5 0 0 0 - - -;
#X floatatom 1025 232 5 0 0 0 - - -;
#X floatatom 1059 233 5 0 0 0 - - -;
#X obj 988 202 unpack f f f f f f;
#X floatatom 1095 232 5 0 0 0 - - -;
#X floatatom 1132 233 5 0 0 0 - - -;
#X text 991 254 x/ y/ speed/ collision/ wina/ winb;
#X text 991 286 0: 16 -100 /8;
#X obj 1190 293 change;
#X floatatom 1170 232 5 0 0 0 - - -;
#X obj 1256 291 change;
#X obj 1095 289 change;
#X obj 1095 320 s \$0-collision;
#X obj 1190 319 s \$0-wina;
#X obj 1256 318 s \$0-winb;
#X obj 988 121 netreceive 11111 1;
#X obj 108 361 OSCroute /repercusosynth;
#X floatatom 108 498 5 0 0 0 - - -;
#N canvas 0 22 129 175 parse 0;
#X obj 35 54 any2list;
#X obj 35 75 symbol2list;
#X obj 35 99 unpack f;
#X obj 35 25 inlet;
#X obj 35 126 outlet;
#X connect 0 0 1 0;
#X connect 1 0 2 0;
#X connect 2 0 4 0;
#X connect 3 0 0 0;
#X restore 108 475 pd parse;
#N canvas 0 22 129 175 parse 0;
#X obj 35 54 any2list;
#X obj 35 75 symbol2list;
#X obj 35 99 unpack f;
#X obj 35 25 inlet;
#X obj 35 126 outlet;
#X connect 0 0 1 0;
#X connect 1 0 2 0;
#X connect 2 0 4 0;
#X connect 3 0 0 0;
#X restore 173 475 pd parse;
#N canvas 0 22 129 175 parse 0;
#X obj 35 54 any2list;
#X obj 35 75 symbol2list;
#X obj 35 99 unpack f;
#X obj 35 25 inlet;
#X obj 35 126 outlet;
#X connect 0 0 1 0;
#X connect 1 0 2 0;
#X connect 2 0 4 0;
#X connect 3 0 0 0;
#X restore 233 475 pd parse;
#X obj 108 548 delta;
#X floatatom 108 571 5 0 0 0 - - -;
#N canvas 0 22 129 175 parse 0;
#X obj 35 54 any2list;
#X obj 35 75 symbol2list;
#X obj 35 99 unpack f;
#X obj 35 25 inlet;
#X obj 35 126 outlet;
#X connect 0 0 1 0;
#X connect 1 0 2 0;
#X connect 2 0 4 0;
#X connect 3 0 0 0;
#X restore 367 472 pd parse;
#X obj 367 515 s \$0-trigger;
#N canvas 0 22 129 175 parse 0;
#X obj 35 54 any2list;
#X obj 35 75 symbol2list;
#X obj 35 99 unpack f;
#X obj 35 25 inlet;
#X obj 35 126 outlet;
#X connect 0 0 1 0;
#X connect 1 0 2 0;
#X connect 2 0 4 0;
#X connect 3 0 0 0;
#X restore 449 467 pd parse;
#N canvas 0 22 129 175 parse 0;
#X obj 35 54 any2list;
#X obj 35 75 symbol2list;
#X obj 35 99 unpack f;
#X obj 35 25 inlet;
#X obj 35 126 outlet;
#X connect 0 0 1 0;
#X connect 1 0 2 0;
#X connect 2 0 4 0;
#X connect 3 0 0 0;
#X restore 595 469 pd parse;
#X obj 449 516 s \$0-x;
#X obj 595 516 s \$0-y;
#X obj 449 495 maxlib/scale -1 1 0 144;
#X obj 595 492 maxlib/scale 1 -1 0 144;
#X obj 367 496 change;
#N canvas 0 22 129 175 parse 0;
#X obj 35 54 any2list;
#X obj 35 75 symbol2list;
#X obj 35 99 unpack f;
#X obj 35 25 inlet;
#X obj 35 126 outlet;
#X connect 0 0 1 0;
#X connect 1 0 2 0;
#X connect 2 0 4 0;
#X connect 3 0 0 0;
#X restore 739 466 pd parse;
#N canvas 0 22 129 175 parse 0;
#X obj 35 54 any2list;
#X obj 35 75 symbol2list;
#X obj 35 99 unpack f;
#X obj 35 25 inlet;
#X obj 35 126 outlet;
#X connect 0 0 1 0;
#X connect 1 0 2 0;
#X connect 2 0 4 0;
#X connect 3 0 0 0;
#X restore 909 467 pd parse;
#X obj 739 513 s \$0-rx;
#X obj 909 514 s \$0-ry;
#X obj 739 490 maxlib/scale -280 280 0 144;
#X obj 909 493 maxlib/scale -266.5 266.5 0 144;
#X obj 109 520 s \$0-pitchfromiqr;
#X obj 173 545 s \$0-enveloppefromiqr;
#X obj 233 499 s \$0-onsetfromiqr;
#X floatatom 798 470 5 0 0 0 - - -;
#X floatatom 963 468 5 0 0 0 - - -;
#N canvas 0 22 129 175 parse 0;
#X obj 35 54 any2list;
#X obj 35 75 symbol2list;
#X obj 35 99 unpack f;
#X obj 35 25 inlet;
#X obj 35 126 outlet;
#X connect 0 0 1 0;
#X connect 1 0 2 0;
#X connect 2 0 4 0;
#X connect 3 0 0 0;
#X restore 1111 450 pd parse;
#X obj 1111 474 change;
#X obj 1111 493 s \$0-vodemo;
#N canvas 0 22 129 175 parse 0;
#X obj 35 54 any2list;
#X obj 35 75 symbol2list;
#X obj 35 99 unpack f;
#X obj 35 25 inlet;
#X obj 35 126 outlet;
#X connect 0 0 1 0;
#X connect 1 0 2 0;
#X connect 2 0 4 0;
#X connect 3 0 0 0;
#X restore 283 612 pd parse;
#X obj 283 636 change;
#X obj 283 656 s interactrigger;
#N canvas 0 22 129 175 parse 0;
#X obj 35 54 any2list;
#X obj 35 75 symbol2list;
#X obj 35 99 unpack f;
#X obj 35 25 inlet;
#X obj 35 126 outlet;
#X connect 0 0 1 0;
#X connect 1 0 2 0;
#X connect 2 0 4 0;
#X connect 3 0 0 0;
#X restore 104 671 pd parse;
#X obj 104 693 change;
#N canvas 0 22 129 175 parse 0;
#X obj 35 54 any2list;
#X obj 35 75 symbol2list;
#X obj 35 99 unpack f;
#X obj 35 25 inlet;
#X obj 35 126 outlet;
#X connect 0 0 1 0;
#X connect 1 0 2 0;
#X connect 2 0 4 0;
#X connect 3 0 0 0;
#X restore 539 587 pd parse;
#X obj 539 611 change;
#N canvas 0 22 129 175 parse 0;
#X obj 35 54 any2list;
#X obj 35 75 symbol2list;
#X obj 35 99 unpack f;
#X obj 35 25 inlet;
#X obj 35 126 outlet;
#X connect 0 0 1 0;
#X connect 1 0 2 0;
#X connect 2 0 4 0;
#X connect 3 0 0 0;
#X restore 684 587 pd parse;
#X obj 684 611 change;
#N canvas 0 22 129 175 parse 0;
#X obj 35 54 any2list;
#X obj 35 75 symbol2list;
#X obj 35 99 unpack f;
#X obj 35 25 inlet;
#X obj 35 126 outlet;
#X connect 0 0 1 0;
#X connect 1 0 2 0;
#X connect 2 0 4 0;
#X connect 3 0 0 0;
#X restore 830 587 pd parse;
#X obj 830 611 change;
#X obj 539 661 s section1;
#X obj 684 660 s section2;
#X obj 830 660 s section3;
#X obj 104 713 s int26;
#X obj 539 637 maxlib/scale 0 0.7 0 1;
#X obj 685 638 maxlib/scale 0 0.7 0 1;
#X obj 830 635 maxlib/scale 0 0.7 0 1;
#X obj 101 101 cnv 15 325 200 empty empty empty 20 12 0 14 -128992
-66577 0;
#X obj 131 130 nbx 5 14 -1e+37 1e+37 0 0 empty empty empty 0 -6 0 10
-262144 -1 -1 0 256;
#X obj 206 131 nbx 5 14 -1e+37 1e+37 0 0 empty empty empty 0 -6 0 10
-262144 -1 -1 0 256;
#X obj 281 132 nbx 5 14 -1e+37 1e+37 0 0 empty empty empty 0 -6 0 10
-262144 -1 -1 0 256;
#X obj 209 197 nbx 5 14 -1e+37 1e+37 0 0 empty empty empty 0 -6 0 10
-262144 -1 -1 0 256;
#X text 135 115 pitch;
#X text 203 114 enveloppe;
#X text 287 115 onset;
#X text 210 180 trigger;
#X text 146 142 x;
#X obj 132 159 nbx 5 14 -1e+37 1e+37 0 0 empty empty empty 0 -6 0 10
-262144 -1 -1 0 256;
#X obj 207 160 nbx 5 14 -1e+37 1e+37 0 0 empty empty empty 0 -6 0 10
-262144 -1 -1 0 256;
#X obj 284 162 nbx 5 14 -1e+37 1e+37 0 0 empty empty empty 0 -6 0 10
-262144 -1 -1 0 256;
#X obj 360 161 nbx 5 14 -1e+37 1e+37 0 0 empty empty empty 0 -6 0 10
-262144 -1 -1 0 256;
#X text 221 145 y;
#X text 291 147 rx;
#X text 364 142 ry;
#X obj 131 194 nbx 5 14 -1e+37 1e+37 0 0 empty empty empty 0 -6 0 10
-262144 -1 -1 0 256;
#X obj 283 195 nbx 5 14 -1e+37 1e+37 0 0 empty empty empty 0 -6 0 10
-262144 -1 -1 0 256;
#X obj 209 230 nbx 5 14 -1e+37 1e+37 0 0 empty empty empty 0 -6 0 10
-262144 -1 -1 0 256;
#X obj 282 230 nbx 5 14 -1e+37 1e+37 0 0 empty empty empty 0 -6 0 10
-262144 -1 -1 0 256;
#X text 133 175 vodemo;
#X text 281 180 inttrig;
#X text 210 214 sect1;
#X text 289 213 sect2;
#X obj 355 230 nbx 5 14 -1e+37 1e+37 0 0 empty empty empty 0 -6 0 10
-262144 -1 -1 0 256;
#X text 343 213 sect3;
#X obj 133 226 nbx 5 14 -1e+37 1e+37 0 0 empty empty empty 0 -6 0 10
-262144 -1 -1 0 256;
#X text 138 210 int26;
#X obj 499 173 r \$0-trigger;
#X obj 650 139 r \$0-x;
#X obj 697 139 r \$0-y;
#X obj 743 139 r \$0-rx;
#X obj 794 139 r \$0-ry;
#X text 268 101 INPUTS;
#X text 190 101 TORQUE;
#X text 230 100 & IQR;
#X obj 479 246 r \$0-collision;
#X obj 571 246 r \$0-wina;
#X obj 632 246 r \$0-winb;
#X obj 207 262 nbx 5 14 -1e+37 1e+37 0 0 empty empty empty 0 -6 0 10
-262144 -1 -1 0 256;
#X obj 280 262 nbx 5 14 -1e+37 1e+37 0 0 empty empty empty 0 -6 0 10
-262144 -1 -1 0 256;
#X obj 131 260 nbx 5 14 -1e+37 1e+37 0 0 empty empty empty 0 -6 0 10
-262144 -1 -1 0 256;
#X text 127 242 collison;
#X text 212 246 win A;
#X text 287 245 win B;
#X obj 115 129 bng 15 250 50 0 empty empty empty 0 -6 0 10 -262144
-1 -1;
#X obj 190 130 bng 15 250 50 0 empty empty empty 0 -6 0 10 -262144
-1 -1;
#X obj 266 131 bng 15 250 50 0 empty empty empty 0 -6 0 10 -262144
-1 -1;
#X obj 115 158 bng 15 250 50 0 empty empty empty 0 -6 0 10 -262144
-1 -1;
#X obj 192 160 bng 15 250 50 0 empty empty empty 0 -6 0 10 -262144
-1 -1;
#X obj 267 161 bng 15 250 50 0 empty empty empty 0 -6 0 10 -262144
-1 -1;
#X obj 115 193 bng 15 250 50 0 empty empty empty 0 -6 0 10 -262144
-1 -1;
#X obj 194 196 bng 15 250 50 0 empty empty empty 0 -6 0 10 -262144
-1 -1;
#X obj 117 225 bng 15 250 50 0 empty empty empty 0 -6 0 10 -262144
-1 -1;
#X obj 193 229 bng 15 250 50 0 empty empty empty 0 -6 0 10 -262144
-1 -1;
#X obj 266 229 bng 15 250 50 0 empty empty empty 0 -6 0 10 -262144
-1 -1;
#X obj 116 259 bng 15 250 50 0 empty empty empty 0 -6 0 10 -262144
-1 -1;
#X obj 191 261 bng 15 250 50 0 empty empty empty 0 -6 0 10 -262144
-1 -1;
#X obj 264 261 bng 15 250 50 0 empty empty empty 0 -6 0 10 -262144
-1 -1;
#X obj 343 161 bng 15 250 50 0 empty empty empty 0 -6 0 10 -262144
-1 -1;
#X obj 267 195 bng 15 250 50 0 empty empty empty 0 -6 0 10 -262144
-1 -1;
#X obj 339 229 bng 15 250 50 0 empty empty empty 0 -6 0 10 -262144
-1 -1;
#X obj 108 313 dumpOSC 5000;
#X obj 108 383 OSCroute /pitch /enveloppe /onset /trigger /x /y /rx
/ry /vodemo /interactrigger /section1 /section2 /section3 /int26 /energy
/energybell;
#N canvas 0 22 129 175 parse 0;
#X obj 35 54 any2list;
#X obj 35 75 symbol2list;
#X obj 35 99 unpack f;
#X obj 35 25 inlet;
#X obj 35 126 outlet;
#X connect 0 0 1 0;
#X connect 1 0 2 0;
#X connect 2 0 4 0;
#X connect 3 0 0 0;
#X restore 1053 575 pd parse;
#X obj 1053 599 change;
#X obj 1053 626 s \$0-energy;
#N canvas 0 22 129 175 parse 0;
#X obj 35 54 any2list;
#X obj 35 75 symbol2list;
#X obj 35 99 unpack f;
#X obj 35 25 inlet;
#X obj 35 126 outlet;
#X connect 0 0 1 0;
#X connect 1 0 2 0;
#X connect 2 0 4 0;
#X connect 3 0 0 0;
#X restore 1126 574 pd parse;
#X obj 1126 598 change;
#X obj 1126 625 s \$0-energybell;
#X obj 510 282 r \$0-energy;
#X obj 589 281 r \$0-energybell;
#X obj 369 260 nbx 5 14 -1e+37 1e+37 0 0 empty empty empty 0 -6 0 10
-262144 -1 -1 0 256;
#X obj 352 260 bng 15 250 50 0 empty empty empty 0 -6 0 10 -262144
-1 -1;
#X obj 368 284 nbx 5 14 -1e+37 1e+37 0 0 empty empty empty 0 -6 0 10
-262144 -1 -1 0 256;
#X obj 351 283 bng 15 250 50 0 empty empty empty 0 -6 0 10 -262144
-1 -1;
#X text 368 243 ernergy;
#X text 362 270 energybell;
#X text 121 280 --Ports-- torque: 11111 IQR: 5000;
#X obj 168 336 print debugIQR;
#X obj 108 337 spigot;
#X obj 397 125 tgl 15 0 empty empty empty 0 -6 0 10 -4034 -1 -1 1 1
;
#X obj 397 35 loadbang;
#X msg 397 60 1;
#X obj 506 198 r \$0-vodemo;
#X text 360 103 C'mon In!;
#X obj 602 84 r \$0-pitchfromiqr;
#X obj 714 84 r \$0-enveloppefromiqr;
#X obj 851 85 r \$0-onsetfromiqr;
#X obj 604 116 r \$0-pitch;
#X obj 716 116 r \$0-enveloppe;
#X obj 853 117 r \$0-onset;
#X obj 879 219 spigot;
#X connect 0 0 1 0;
#X connect 5 0 2 0;
#X connect 5 1 3 0;
#X connect 5 2 4 0;
#X connect 5 3 6 0;
#X connect 5 4 7 0;
#X connect 5 5 11 0;
#X connect 6 0 13 0;
#X connect 7 0 10 0;
#X connect 10 0 15 0;
#X connect 11 0 12 0;
#X connect 12 0 16 0;
#X connect 13 0 14 0;
#X connect 17 0 0 0;
#X connect 17 0 159 0;
#X connect 18 0 130 0;
#X connect 19 0 23 0;
#X connect 19 0 40 0;
#X connect 20 0 19 0;
#X connect 21 0 41 0;
#X connect 22 0 42 0;
#X connect 23 0 24 0;
#X connect 25 0 33 0;
#X connect 27 0 31 0;
#X connect 28 0 32 0;
#X connect 31 0 29 0;
#X connect 32 0 30 0;
#X connect 33 0 26 0;
#X connect 34 0 38 0;
#X connect 34 0 43 0;
#X connect 35 0 39 0;
#X connect 35 0 44 0;
#X connect 38 0 36 0;
#X connect 39 0 37 0;
#X connect 45 0 46 0;
#X connect 46 0 47 0;
#X connect 48 0 49 0;
#X connect 49 0 50 0;
#X connect 49 0 84 0;
#X connect 51 0 52 0;
#X connect 52 0 62 0;
#X connect 52 0 120 0;
#X connect 52 0 93 0;
#X connect 53 0 54 0;
#X connect 54 0 63 0;
#X connect 55 0 56 0;
#X connect 56 0 64 0;
#X connect 57 0 58 0;
#X connect 58 0 65 0;
#X connect 63 0 59 0;
#X connect 63 0 85 0;
#X connect 63 0 121 0;
#X connect 64 0 60 0;
#X connect 64 0 86 0;
#X connect 64 0 122 0;
#X connect 65 0 61 0;
#X connect 65 0 91 0;
#X connect 65 0 128 0;
#X connect 95 0 70 0;
#X connect 95 0 119 0;
#X connect 96 0 76 0;
#X connect 96 0 115 0;
#X connect 97 0 77 0;
#X connect 97 0 116 0;
#X connect 98 0 78 0;
#X connect 98 0 117 0;
#X connect 99 0 79 0;
#X connect 99 0 126 0;
#X connect 103 0 108 0;
#X connect 103 0 123 0;
#X connect 104 0 106 0;
#X connect 104 0 124 0;
#X connect 105 0 107 0;
#X connect 105 0 125 0;
#X connect 129 0 146 0;
#X connect 129 0 147 0;
#X connect 130 0 20 0;
#X connect 130 1 21 0;
#X connect 130 2 22 0;
#X connect 130 3 25 0;
#X connect 130 4 27 0;
#X connect 130 5 28 0;
#X connect 130 6 34 0;
#X connect 130 7 35 0;
#X connect 130 8 45 0;
#X connect 130 9 48 0;
#X connect 130 10 53 0;
#X connect 130 11 55 0;
#X connect 130 12 57 0;
#X connect 130 13 51 0;
#X connect 130 14 131 0;
#X connect 130 15 134 0;
#X connect 131 0 132 0;
#X connect 132 0 133 0;
#X connect 134 0 135 0;
#X connect 135 0 136 0;
#X connect 137 0 139 0;
#X connect 137 0 140 0;
#X connect 138 0 142 0;
#X connect 138 0 141 0;
#X connect 147 0 18 0;
#X connect 148 0 147 1;
#X connect 148 0 159 1;
#X connect 149 0 150 0;
#X connect 150 0 148 0;
#X connect 151 0 83 0;
#X connect 151 0 118 0;
#X connect 156 0 67 0;
#X connect 156 0 112 0;
#X connect 157 0 68 0;
#X connect 157 0 113 0;
#X connect 158 0 69 0;
#X connect 158 0 114 0;
#X connect 159 0 5 0;
#X coords 0 -1 1 1 328 202 1 100 100;
#X restore 4 3 pd InputControlsOverNetwork;
