#N canvas 714 25 156 114 10;
#N canvas 933 147 207 367 open/close_patches 1;
#X obj 10 11 closebang;
#X msg 11 56 \; pd quit;
#X text 11 90 pd verifyquit;
#N canvas 0 22 450 300 samplers 0;
#X restore 17 162 pd samplers;
#N canvas 270 279 216 143 sequencers 1;
#X obj 32 62 getdir;
#X msg 32 85 \; pd open Scofo_GUI.pd \$1 1 1;
#X obj 32 32 r openSCOFO;
#X connect 0 0 1 0;
#X connect 2 0 0 0;
#X restore 18 189 pd sequencers;
#N canvas 436 161 450 300 synthesizers 0;
#X obj 32 62 getdir;
#X obj 32 31 r openSynthesizer;
#X msg 32 85 \; pd open Synthesizer_GUI.pd \$1 1 1;
#X connect 0 0 2 0;
#X connect 1 0 0 0;
#X restore 17 216 pd synthesizers;
#N canvas 957 212 450 287 fx 0;
#X obj 49 52 getdir;
#X msg 49 75 \; pd open Dafx_GUI.pd \$1 1 1;
#X obj 49 22 r openDAFX;
#X connect 0 0 1 0;
#X connect 2 0 0 0;
#X restore 19 290 pd fx;
#N canvas 964 530 450 300 textures 1;
#X obj 32 62 getdir;
#X msg 32 85 \; pd open Texture_GUI.pd \$1 1 1;
#X obj 32 32 r openTexture;
#X connect 0 0 1 0;
#X connect 2 0 0 0;
#X restore 18 242 pd textures;
#N canvas 0 22 450 300 sfx 0;
#X restore 19 266 pd sfx;
#N canvas 394 370 468 491 inouts 0;
#X obj 49 23 r openMixer;
#X obj 48 131 r openIQR;
#X obj 47 245 r openAnalyzer;
#X obj 49 68 getdir;
#X msg 49 91 \; pd open Mixer_GUI.pd \$1 1 1;
#X obj 71 47 once;
#X obj 48 178 getdir;
#X obj 75 151 once;
#X msg 48 201 \; pd open IQRInputs_GUI.pd \$1 1 1;
#X obj 47 297 getdir;
#X obj 56 268 once;
#X msg 47 320 \; pd open Analysis_GUI.pd \$1 1 1;
#X obj 48 415 getdir;
#X obj 74 385 once;
#X obj 48 363 r openADCDAC;
#X msg 48 438 \; pd open Adcdac_GUI.pd \$1 1 1;
#X obj 274 107 spigot;
#X msg 213 66 1;
#X msg 286 64 0;
#X msg 279 139 \; pd-Mixer_GUI.pd menuclose 1;
#X obj 175 6 r closeMixer;
#X obj 167 30 bng 15 250 50 0 empty empty empty 17 7 0 10 -262144 -1
-1;
#X connect 0 0 5 0;
#X connect 0 0 3 0;
#X connect 1 0 7 0;
#X connect 1 0 6 0;
#X connect 2 0 10 0;
#X connect 2 0 9 0;
#X connect 3 0 4 0;
#X connect 6 0 8 0;
#X connect 9 0 11 0;
#X connect 12 0 15 0;
#X connect 14 0 13 0;
#X connect 14 0 12 0;
#X connect 16 0 19 0;
#X connect 17 0 16 1;
#X connect 18 0 16 1;
#X connect 20 0 21 0;
#X restore 19 313 pd inouts;
#X restore 10 14 pd open/close_patches;
