#N canvas 746 474 302 201 10;
#X declare -path . -path ../../lib;
#X obj -40 0 cnv 15 300 200 empty empty empty 20 12 0 14 -66577 -66577
0;
#X obj -27 7 slg.sequencer;
#X obj -24 253 score-editor;
#X obj -27 175 bng 20 250 50 0 empty empty empty 0 -6 0 8 -258113 -1
-1;
#X text -29 157 START;
#X msg 145 178 0;
#X msg 27 179 1;
#X msg 57 179 2;
#X msg 87 179 3;
#X obj 84 253 s section-start;
#X text 25 159 START;
#X text 144 158 STOP;
#X msg 115 178 100;
#X text 111 158 TEST;
#X obj 187 18 vu 10 120 vu-in1 empty -1 -8 0 8 -66577 -1 0 0;
#X text 182 141 IN;
#X obj 214 18 vu 10 120 out2-VU empty -1 -8 0 8 -66577 -1 0 0;
#X obj 238 18 vu 10 120 out4-VU empty -1 -8 0 8 -66577 -1 0 0;
#X text 218 157 OUT;
#X text 214 141 2;
#X text 239 140 4;
#X obj -23 275 declare -path . -path ../../lib;
#X connect 3 0 2 0;
#X connect 5 0 9 0;
#X connect 6 0 9 0;
#X connect 7 0 9 0;
#X connect 8 0 9 0;
#X connect 12 0 9 0;
