#N canvas 81 22 645 406 10;
#X obj 14 4 comment 196 20 Times ? 0 255 128 0 Synths;
#N canvas 103 235 642 254 sines 0;
#X restore 33 140 pd sines;
#N canvas 760 49 289 378 anthony 1;
#N canvas 0 22 470 320 transpose-behaviors 0;
#X obj 60 36 tgl 15 0 empty empty empty 0 -6 0 10 -262144 -1 -1 0 1
;
#X obj 90 87 random 6;
#X obj 90 109 sel 0 1 2 3;
#X msg 90 134 -4 3000;
#X msg 142 134 5 4000;
#X msg 200 134 0 5000;
#X msg 256 133 9 10000;
#X obj 122 198 outlet;
#X obj 90 35 inlet;
#X obj 90 64 metro 5000;
#X connect 0 0 9 0;
#X connect 1 0 2 0;
#X connect 2 0 3 0;
#X connect 2 1 4 0;
#X connect 2 2 5 0;
#X connect 2 3 6 0;
#X connect 3 0 7 0;
#X connect 4 0 7 0;
#X connect 5 0 7 0;
#X connect 6 0 7 0;
#X connect 8 0 9 0;
#X connect 9 0 1 0;
#X restore 26 70 pd transpose-behaviors;
#X obj 26 48 r additive-onoff;
#X obj 29 225 cross-delay-gop;
#X obj 29 341 throw~ musicL;
#X obj 162 338 throw~ musicR;
#X obj 28 98 slg.spectralsynth20~;
#X connect 1 0 0 0;
#X connect 2 0 3 0;
#X connect 2 1 4 0;
#X connect 5 0 2 0;
#X connect 5 0 2 1;
#X restore 65 355 pd anthony;
#N canvas 23 472 425 209 test-synth 0;
#X text 14 7 --- Sines ---;
#X text 149 5 --- Anthony ---;
#X obj 17 57 s sine-onoff;
#X obj 18 101 s sine-volume;
#X obj 18 144 s sine-freq;
#X obj 17 37 tgl 15 0 empty empty empty 0 -6 0 10 -262144 -1 -1 0 1
;
#X floatatom 18 82 5 0 0 0 - - -;
#X floatatom 18 125 5 0 0 0 - - -;
#X obj 153 52 s additive-onoff;
#X obj 151 95 s additive-volume;
#X obj 152 136 s additive-transpose;
#X obj 153 30 tgl 15 0 empty empty empty 0 -6 0 10 -262144 -1 -1 0
1;
#X floatatom 151 75 5 0 0 0 - - -;
#X floatatom 152 117 5 0 0 0 - - -;
#X text 277 3 --- R2D2 ---;
#X obj 289 25 tgl 15 0 empty empty empty 0 -6 0 10 -262144 -1 -1 0
1;
#X floatatom 287 70 5 0 0 0 - - -;
#X obj 289 47 s r2d2-onoff;
#X obj 287 90 s r2d2-metro;
#X connect 5 0 2 0;
#X connect 6 0 3 0;
#X connect 7 0 4 0;
#X connect 11 0 8 0;
#X connect 12 0 9 0;
#X connect 13 0 10 0;
#X connect 15 0 17 0;
#X connect 16 0 18 0;
#X restore 65 335 pd test-synth;
#N canvas 91 146 1011 139 2midisynths 1;
#X obj 10 53 slg.DLSPlayer;
#X obj 10 6 r midisynth-note;
#X obj 114 6 r midisynth-velocity;
#X obj 243 6 r midisynth-channel;
#X obj 369 8 r midisynth-pc;
#X obj 467 7 r midisynth-volume;
#X obj 596 7 r midisynth-modulation;
#X obj 742 8 r midisynth-panning;
#X obj 871 8 r midisynth-pitchbend;
#X connect 1 0 0 0;
#X connect 2 0 0 1;
#X connect 3 0 0 3;
#X connect 4 0 0 4;
#X connect 5 0 0 5;
#X connect 6 0 0 6;
#X connect 7 0 0 7;
#X connect 8 0 0 8;
#X restore 65 314 pd 2midisynths;
#X obj 66 294 addons/obi/G2-padsynth;
#X text 23 113 Mono;
#X obj 309 209 addons/obi/M1-strings;
#X text 450 46 Drums;
#X obj 451 65 addons/obi/H1-drums;
#X obj 296 64 addons/obi/I1-bassline;
#X text 296 42 Bass;
#X obj 296 88 addons/obi/L1-sawswoop;
#X text 578 48 FX;
#N canvas 175 22 548 470 R2D2 0;
#X obj 92 63 metro 90;
#X obj 19 176 osc~;
#X obj 101 175 osc~;
#X obj 53 290 osc~;
#X obj 53 212 +~;
#X obj 53 264 +~;
#X obj 53 238 *~;
#X obj 268 128 random 500;
#X obj 101 128 random 2000;
#X obj 19 128 random 1000;
#X obj 19 152 + 20;
#X obj 101 152 + 20;
#X obj 184 128 random 3000;
#X obj 92 85 t b b b b;
#X text 353 128 4 random values;
#X text 353 154 base offset;
#X text 98 234 random scaling;
#X text 96 264 random offset;
#X text 290 70 3 oscillators in simple FM;
#X text 352 179 sum 2 oscillators;
#X text 96 291 input to FM oscillator;
#X obj 92 37 tgl 15 0 empty empty empty 0 -6 0 10 -262144 -1 -1 0 1
;
#X floatatom 173 37 5 0 0 0 - - -;
#X obj 53 372 throw~ sfxL;
#X obj 133 371 throw~ sfxR;
#X obj 92 10 r r2d2-onoff;
#X obj 173 10 r r2d2-metro;
#X obj 53 345 *~;
#X obj 258 266 bng 15 250 50 0 empty empty empty 0 -6 0 10 -262144
-1 -1;
#X obj 348 245 sel 0;
#X obj 276 266 sel 1;
#X obj 347 271 pack 0 500;
#X obj 258 290 pack 0.05 4000;
#X obj 258 310 line~ 0.05;
#X connect 0 0 13 0;
#X connect 1 0 4 0;
#X connect 2 0 4 1;
#X connect 3 0 27 0;
#X connect 4 0 6 0;
#X connect 5 0 3 0;
#X connect 6 0 5 0;
#X connect 7 0 6 1;
#X connect 8 0 11 0;
#X connect 9 0 10 0;
#X connect 10 0 1 0;
#X connect 11 0 2 0;
#X connect 12 0 5 1;
#X connect 13 0 9 0;
#X connect 13 1 8 0;
#X connect 13 2 12 0;
#X connect 13 3 7 0;
#X connect 21 0 0 0;
#X connect 21 0 30 0;
#X connect 21 0 29 0;
#X connect 22 0 0 1;
#X connect 25 0 21 0;
#X connect 26 0 22 0;
#X connect 27 0 23 0;
#X connect 27 0 24 0;
#X connect 28 0 32 0;
#X connect 29 0 31 0;
#X connect 30 0 32 0;
#X connect 31 0 33 0;
#X connect 32 0 33 0;
#X connect 33 0 27 1;
#X restore 579 66 pd R2D2;
#N canvas 0 22 523 319 analog-drums 0;
#X obj 23 186 slg.bombo;
#X obj 86 186 slg.caja;
#X obj 142 185 slg.cowbell;
#X obj 217 185 slg.crash;
#X msg 21 139 100;
#X msg 49 139 200;
#X msg 78 140 400;
#X msg 163 142 200;
#X msg 197 142 400;
#X msg 397 147 200;
#X msg 429 146 400;
#X msg 361 147 100;
#X msg 127 142 50;
#X obj 31 81 random 3;
#X obj 31 104 sel 0 1 2;
#X obj 150 79 random 3;
#X obj 150 102 sel 0 1 2;
#X msg 270 141 200;
#X msg 304 141 400;
#X msg 234 141 50;
#X obj 257 78 random 3;
#X obj 257 101 sel 0 1 2;
#X obj 363 84 random 3;
#X obj 363 107 sel 0 1 2;
#X obj 257 56 sel 2;
#X obj 257 34 random 6;
#X obj 32 264 throw~ rhythmL;
#X obj 196 259 throw~ rhythmR;
#X obj 31 52 r bombo;
#X obj 150 49 r caja;
#X obj 257 10 r cowbell;
#X obj 363 61 r crash;
#X connect 0 0 26 0;
#X connect 0 0 27 0;
#X connect 1 0 26 0;
#X connect 2 0 26 0;
#X connect 3 0 27 0;
#X connect 4 0 0 0;
#X connect 5 0 0 0;
#X connect 6 0 0 0;
#X connect 7 0 1 0;
#X connect 8 0 1 0;
#X connect 9 0 3 0;
#X connect 10 0 3 0;
#X connect 11 0 3 0;
#X connect 12 0 1 0;
#X connect 13 0 14 0;
#X connect 14 0 4 0;
#X connect 14 1 5 0;
#X connect 14 2 6 0;
#X connect 15 0 16 0;
#X connect 16 0 12 0;
#X connect 16 1 7 0;
#X connect 16 2 8 0;
#X connect 17 0 2 0;
#X connect 18 0 2 0;
#X connect 19 0 2 0;
#X connect 20 0 21 0;
#X connect 21 0 19 0;
#X connect 21 1 17 0;
#X connect 21 2 18 0;
#X connect 22 0 23 0;
#X connect 23 0 11 0;
#X connect 23 1 9 0;
#X connect 23 2 10 0;
#X connect 24 0 20 0;
#X connect 25 0 24 0;
#X connect 28 0 13 0;
#X connect 29 0 15 0;
#X connect 30 0 25 0;
#X connect 31 0 22 0;
#X restore 452 88 pd analog-drums;
#X obj 139 236 throw~ musicR;
#X obj 26 237 throw~ musicL;
#X obj 26 214 gpan~;
#X obj 25 131 drunk_sines;
#X obj 72 82 makenote 90 500;
#X obj 72 57 notein;
#X msg 238 138 50 52 66 69 76 79 83 86;
#X obj 163 166 list-dripslow;
#X obj 163 141 bng 15 250 50 0 empty empty empty 17 7 0 10 -262144
-1 -1;
#X msg 155 12 60 90;
#X obj 155 36 unpack f f;
#X text 14 290 Poly:;
#X connect 18 0 17 0;
#X connect 18 1 16 0;
#X connect 19 0 18 0;
#X connect 19 1 18 1;
#X connect 20 0 19 1;
#X connect 20 1 19 2;
#X connect 21 0 20 0;
#X connect 21 1 20 1;
#X connect 22 0 23 1;
#X connect 23 0 19 1;
#X connect 24 0 23 0;
#X connect 25 0 26 0;
#X connect 26 0 19 1;
#X connect 26 1 19 2;
