#N canvas 447 22 501 129 10;
#X obj 4 7 cnv 15 500 120 empty empty empty 20 12 0 14 -1 -66577 0
;
#N canvas 307 324 642 254 sines 0;
#X restore 26 54 pd sines;
#X obj 15 32 drunk_sines;
#X obj 327 13 cross-delay-gop;
#X obj 127 10 slg.spectralsynth20~;
#X obj 333 130 throw~ LF;
#X obj 445 128 throw~ RF;
#X connect 3 0 5 0;
#X connect 3 1 6 0;
#X connect 4 0 3 0;
#X connect 4 0 3 1;
