#N canvas 241 306 907 160 10;
#X obj 3 5 cnv 15 900 150 empty empty empty 20 12 0 14 -1 -66577 0
;
#N canvas 607 525 656 412 windchild 0;
#X obj 76 115 slg.wind~;
#X obj 76 188 slg.convolution~;
#X obj 236 169 slg.gain~;
#N canvas 0 22 458 308 modulate-behaviors 0;
#X obj 72 194 line;
#X obj 72 84 metro 4000;
#X obj 41 60 tgl 15 0 empty empty empty 0 -6 0 10 -262144 -1 -1 0 1
;
#X floatatom 140 133 5 0 0 0 - - -;
#X obj 72 109 random 6;
#X msg 124 164 50 4000;
#X msg 238 163 40 10000;
#X obj 72 135 sel 0 1 2 3;
#X msg 182 164 60 5000;
#X msg 72 164 80 3000;
#X obj 72 218 outlet;
#X obj 72 57 inlet;
#X connect 0 0 10 0;
#X connect 1 0 4 0;
#X connect 2 0 1 0;
#X connect 4 0 3 0;
#X connect 4 0 7 0;
#X connect 5 0 0 0;
#X connect 6 0 0 0;
#X connect 7 0 9 0;
#X connect 7 1 5 0;
#X connect 7 2 8 0;
#X connect 7 3 6 0;
#X connect 8 0 0 0;
#X connect 9 0 0 0;
#X connect 11 0 1 0;
#X restore 149 92 pd modulate-behaviors;
#X obj 171 76 tgl 15 0 empty empty empty 0 -6 0 10 -262144 -1 -1 0
1;
#X obj 76 59 r wind-onoff;
#N canvas 60 22 253 114 autoloadchild 0;
#X obj 28 25 loadbang;
#X obj 28 70 outlet;
#X msg 28 48 media/sounds/chilld_high_down.wav;
#X connect 0 0 2 0;
#X connect 2 0 1 0;
#X restore 308 87 pd autoloadchild;
#X obj 343 188 slg.gain~;
#X obj 452 112 loadbang;
#X msg 474 156 4;
#X obj 426 62 r wind-volume;
#X obj 514 62 r child-volume;
#X text 553 89 0-127;
#X obj 344 17 loadbang;
#X msg 344 41 1;
#X obj 237 63 r child-onoff;
#X obj 76 263 throw~ textureL;
#X obj 173 262 throw~ textureR;
#X msg 438 156 0.2;
#X msg 508 154 200;
#X obj 237 113 slg.loadsample~;
#X obj 245 30 tgl 15 0 empty empty empty 0 -6 0 10 -262144 -1 -1 0
1;
#X msg 538 111 20;
#X obj 499 233 switch~;
#X connect 0 0 1 0;
#X connect 0 0 7 0;
#X connect 1 0 16 0;
#X connect 1 0 17 0;
#X connect 2 0 1 1;
#X connect 3 0 0 2;
#X connect 4 0 3 0;
#X connect 5 0 4 0;
#X connect 5 0 0 0;
#X connect 6 0 20 1;
#X connect 8 0 18 0;
#X connect 8 0 9 0;
#X connect 8 0 19 0;
#X connect 9 0 2 1;
#X connect 10 0 7 1;
#X connect 11 0 1 2;
#X connect 13 0 14 0;
#X connect 14 0 20 3;
#X connect 15 0 20 0;
#X connect 18 0 7 1;
#X connect 19 0 1 2;
#X connect 20 0 2 0;
#X connect 21 0 20 0;
#X connect 21 0 23 0;
#X connect 22 0 1 2;
#X restore 465 131 pd windchild;
#N canvas 15 440 617 227 test-textures 0;
#X obj 17 49 s wind-onoff;
#X obj 17 28 tgl 15 0 empty empty empty 0 -6 0 10 -262144 -1 -1 0 1
;
#X obj 17 91 s child-onoff;
#X obj 17 70 tgl 15 0 empty empty empty 0 -6 0 10 -262144 -1 -1 0 1
;
#X obj 18 131 s wind-volume;
#X obj 18 172 s child-volume;
#X floatatom 18 113 5 0 0 0 - - -;
#X floatatom 18 153 5 0 0 0 - - -;
#X obj 146 46 s storm-onoff;
#X obj 146 24 tgl 15 0 empty empty empty 0 -6 0 10 -262144 -1 -1 0
1;
#X obj 254 26 tgl 15 0 empty empty empty 0 -6 0 10 -262144 -1 -1 0
1;
#X obj 254 46 s substractive-onoff;
#X text 419 5 --- Spacey ---;
#X text 252 6 --- Substractive ---;
#X text 145 6 --- Storm ---;
#X text 14 7 ---- Windchild ----;
#X obj 422 26 tgl 15 0 empty empty empty 0 -6 0 10 -262144 -1 -1 0
1;
#X obj 422 46 s outerspace-onoff;
#X obj 422 87 s outerspace-volume;
#X obj 423 126 s outerspace-preset;
#X floatatom 422 69 5 0 0 0 - - -;
#X floatatom 423 110 5 0 0 0 - - -;
#X connect 1 0 0 0;
#X connect 3 0 2 0;
#X connect 6 0 4 0;
#X connect 7 0 5 0;
#X connect 9 0 8 0;
#X connect 10 0 11 0;
#X connect 16 0 17 0;
#X connect 20 0 18 0;
#X connect 21 0 19 0;
#X restore 548 132 pd test-textures;
#X obj 12 19 outerSpace/OuterSpaceMainPDGui;
#X obj 462 17 slg.substractive~;
#X obj 259 118 slg.storm;
#X obj 232 20 slg.sea_waves;
