#N canvas 430 128 1081 767 10;
#X obj 387 201 bng 15 250 50 0 empty empty empty 0 -6 0 8 -262144 -1
-1;
#X obj 741 613 *~ 1;
#X obj 816 610 *~ 1;
#X obj 873 482 vsl 15 128 0 1 0 0 empty empty empty 20 8 0 8 -262144
-1 -1 0 1;
#X floatatom 873 617 5 0 0 0 - - -;
#X obj 239 321 vbap 0 0;
#X obj 341 350 route 0 1 2 3;
#X floatatom 341 374 10 0 0 0 - - -;
#X floatatom 407 376 10 0 0 0 - - -;
#X floatatom 473 376 10 0 0 0 - - -;
#X floatatom 539 376 10 0 0 0 - - -;
#X obj -22 158 pack f f;
#X floatatom -22 206 5 0 0 0 - - -;
#X obj -22 3 grid grid1 144 0 1 144 0 1 0 0.001 0.001 10 10 113 132
;
#X floatatom 99 206 5 0 0 0 - - -;
#N canvas 0 22 482 430 graph-to-aziele 0;
#X obj 42 505 expr acos($f1/$f3) * 180 / 3.1415 * $f2;
#X obj 323 366 expr sqrt($f1);
#X obj 323 338 + 0;
#X obj 78 313 * 0;
#X obj 343 276 * 0;
#X msg 460 505 0;
#X msg 233 265 -1;
#X msg 268 265 1;
#X obj 42 249 expr ($f1-0.5)/0.5;
#X obj 233 145 expr ($f1-0.5)/0.5;
#X obj 42 16 inlet;
#X obj 42 570 outlet;
#X obj 488 569 outlet;
#X obj 407 431 expr 90 - ($f1*90.0);
#X obj 460 479 moses 0;
#X obj 233 238 moses 0;
#X obj 42 279 t f f f;
#X obj 233 179 t f f f;
#X obj 42 99 unpack f f;
#X msg 42 67 \$2 \$1;
#X text 101 66 reverse order;
#X text 101 16 float x \, float y;
#X obj 323 393 t f f;
#X connect 0 0 11 0;
#X connect 1 0 22 0;
#X connect 2 0 1 0;
#X connect 3 0 2 0;
#X connect 4 0 2 1;
#X connect 5 0 12 0;
#X connect 6 0 0 1;
#X connect 7 0 0 1;
#X connect 8 0 16 0;
#X connect 9 0 17 0;
#X connect 10 0 19 0;
#X connect 13 0 14 0;
#X connect 14 0 5 0;
#X connect 14 1 12 0;
#X connect 15 0 6 0;
#X connect 15 1 7 0;
#X connect 16 0 0 0;
#X connect 16 1 3 0;
#X connect 16 2 3 1;
#X connect 17 0 15 0;
#X connect 17 1 4 0;
#X connect 17 2 4 1;
#X connect 18 0 8 0;
#X connect 18 1 9 0;
#X connect 19 0 18 0;
#X connect 22 0 0 2;
#X connect 22 1 13 0;
#X restore -22 183 pd graph-to-aziele;
#X floatatom 114 183 5 0 100 0 - - -;
#X obj 239 298 bng 15 250 50 0 empty empty empty 0 -6 0 8 -262144 -1
-1;
#X obj 160 5 slg.loadsample~;
#X obj 488 7 slg.loadsample~;
#X obj 741 535 catch~ 1channel;
#X obj 766 557 catch~ 2channel;
#X text 109 164 spread;
#X obj 239 274 metro 200;
#X obj 741 638 dac~ 1 2;
#X obj 625 337 vbap 0 0;
#X obj 625 362 route 0 1 2 3;
#X floatatom 625 387 10 0 0 0 - - -;
#X floatatom 701 387 10 0 0 0 - - -;
#X floatatom 777 387 10 0 0 0 - - -;
#X floatatom 854 387 10 0 0 0 - - -;
#X obj 741 163 pack f f;
#X floatatom 741 211 5 0 0 0 - - -;
#X obj 741 8 grid grid1 144 0 1 144 0 1 0 0.001 0.001 10 10 802 92
;
#X floatatom 841 211 5 0 0 0 - - -;
#N canvas 0 22 454 304 graph-to-aziele 0;
#X obj 42 505 expr acos($f1/$f3) * 180 / 3.1415 * $f2;
#X obj 323 366 expr sqrt($f1);
#X obj 323 338 + 0;
#X obj 78 313 * 0;
#X obj 343 276 * 0;
#X msg 460 505 0;
#X msg 233 265 -1;
#X msg 268 265 1;
#X obj 42 249 expr ($f1-0.5)/0.5;
#X obj 233 145 expr ($f1-0.5)/0.5;
#X obj 42 16 inlet;
#X obj 42 570 outlet;
#X obj 488 569 outlet;
#X obj 407 431 expr 90 - ($f1*90.0);
#X obj 460 479 moses 0;
#X obj 233 238 moses 0;
#X obj 42 279 t f f f;
#X obj 233 179 t f f f;
#X obj 42 99 unpack f f;
#X msg 42 67 \$2 \$1;
#X text 101 66 reverse order;
#X text 101 16 float x \, float y;
#X obj 323 393 t f f;
#X connect 0 0 11 0;
#X connect 1 0 22 0;
#X connect 2 0 1 0;
#X connect 3 0 2 0;
#X connect 4 0 2 1;
#X connect 5 0 12 0;
#X connect 6 0 0 1;
#X connect 7 0 0 1;
#X connect 8 0 16 0;
#X connect 9 0 17 0;
#X connect 10 0 19 0;
#X connect 13 0 14 0;
#X connect 14 0 5 0;
#X connect 14 1 12 0;
#X connect 15 0 6 0;
#X connect 15 1 7 0;
#X connect 16 0 0 0;
#X connect 16 1 3 0;
#X connect 16 2 3 1;
#X connect 17 0 15 0;
#X connect 17 1 4 0;
#X connect 17 2 4 1;
#X connect 18 0 8 0;
#X connect 18 1 9 0;
#X connect 19 0 18 0;
#X connect 22 0 0 2;
#X connect 22 1 13 0;
#X restore 741 188 pd graph-to-aziele;
#X floatatom 896 191 5 0 100 0 - - -;
#X text 891 172 spread;
#X obj 488 68 throw~ 2channel;
#X msg 625 408 1 0 \$1;
#X msg 701 409 1 1 \$1;
#X obj 239 248 tgl 15 0 empty empty empty 0 -6 0 8 -262144 -1 -1 0
1;
#X obj 741 580 matrix~ 2 2 f;
#X obj 341 418 prepend element;
#X obj 407 418 prepend element;
#X obj 327 480 prepend set;
#X msg 327 503 element 1 1 0.31141;
#X msg 407 395 1 2 \$1;
#X msg 195 636 50;
#X msg 341 393 1 1 \$1;
#X obj 607 625 float \$1;
#X obj 607 602 loadbang;
#X msg 542 683 element \$3 \$1 \$2;
#X obj 498 444 unpack f f;
#X obj 498 467 + 1;
#X obj 476 617 ==;
#X obj 476 641 sel 1;
#X obj 498 491 t f f f;
#N canvas 0 22 454 304 high 0;
#X obj 102 43 inlet;
#X obj 124 188 f 0;
#X obj 102 239 >;
#X obj 102 281 sel 1;
#X obj 201 158 f;
#X obj 203 354 outlet;
#X obj 203 267 f;
#X obj 292 42 inlet;
#X text 339 42 reset to float;
#X text 148 44 test against high;
#X obj 102 91 t b f b f;
#X obj 292 89 t b f;
#X connect 0 0 10 0;
#X connect 1 0 2 1;
#X connect 1 0 6 1;
#X connect 2 0 3 0;
#X connect 3 0 4 0;
#X connect 4 0 1 0;
#X connect 6 0 5 0;
#X connect 7 0 11 0;
#X connect 10 0 6 0;
#X connect 10 1 2 0;
#X connect 10 2 1 0;
#X connect 10 3 4 1;
#X connect 11 0 6 0;
#X connect 11 1 1 0;
#X restore 492 591 pd high;
#X floatatom 632 653 5 0 0 0 - - -;
#X obj 542 648 pack f f 1;
#X obj 173 70 send~ 1channel;
#X obj 90 611 receive~ 1channel;
#X obj 121 635 matrix 1 4;
#X obj 90 660 matrix~ 1 4;
#X obj 90 684 dac~ 1 2 3 4;
#X obj 387 228 define_loudspeakers 2 -45 45 -135 135;
#X obj 54 435 rvbap;
#X connect 0 0 66 0;
#X connect 1 0 24 0;
#X connect 2 0 24 1;
#X connect 3 0 2 1;
#X connect 3 0 1 1;
#X connect 3 0 4 0;
#X connect 5 0 6 0;
#X connect 5 0 53 0;
#X connect 6 0 7 0;
#X connect 6 1 8 0;
#X connect 6 2 9 0;
#X connect 6 3 10 0;
#X connect 7 0 49 0;
#X connect 8 0 47 0;
#X connect 11 0 15 0;
#X connect 13 0 11 0;
#X connect 13 1 11 1;
#X connect 15 0 12 0;
#X connect 15 0 5 1;
#X connect 15 1 14 0;
#X connect 15 1 5 2;
#X connect 16 0 5 3;
#X connect 17 0 5 0;
#X connect 17 0 25 0;
#X connect 18 0 61 0;
#X connect 19 0 38 0;
#X connect 20 0 42 0;
#X connect 21 0 42 1;
#X connect 23 0 17 0;
#X connect 25 0 26 0;
#X connect 26 0 27 0;
#X connect 26 1 28 0;
#X connect 26 2 29 0;
#X connect 26 3 30 0;
#X connect 27 0 39 0;
#X connect 28 0 40 0;
#X connect 31 0 35 0;
#X connect 33 0 31 0;
#X connect 33 1 31 1;
#X connect 35 0 32 0;
#X connect 35 0 25 1;
#X connect 35 1 34 0;
#X connect 35 1 25 2;
#X connect 36 0 25 3;
#X connect 41 0 23 0;
#X connect 42 0 1 0;
#X connect 42 1 2 0;
#X connect 45 0 46 0;
#X connect 47 0 44 0;
#X connect 48 0 64 2;
#X connect 49 0 43 0;
#X connect 50 0 59 0;
#X connect 50 0 60 2;
#X connect 51 0 50 0;
#X connect 52 0 63 0;
#X connect 53 0 54 0;
#X connect 53 1 60 1;
#X connect 54 0 57 0;
#X connect 55 0 56 0;
#X connect 56 0 63 0;
#X connect 57 0 55 0;
#X connect 57 1 58 0;
#X connect 57 2 60 0;
#X connect 58 0 55 1;
#X connect 60 0 52 0;
#X connect 62 0 64 0;
#X connect 63 0 64 1;
#X connect 64 0 65 0;
#X connect 64 1 65 1;
#X connect 64 2 65 2;
#X connect 64 3 65 3;
#X connect 66 0 5 0;
#X connect 66 0 25 0;
