#N canvas 41 22 1243 768 10;
#X obj 101 102 cnv 15 178 286 empty empty empty 20 12 0 14 -233017
-66577 0;
#X floatatom 113 505 5 0 100 1 - - -;
#X msg 192 582 clear;
#N canvas 0 22 786 614 four-reverbs 0;
#X obj 67 179 rev1~;
#X obj 114 179 rev1~;
#X obj 160 179 rev1~;
#X obj 210 179 rev1~;
#X obj 282 55 inlet;
#X obj 67 54 inlet~;
#X obj 113 54 inlet~;
#X obj 160 53 inlet~;
#X obj 211 53 inlet~;
#X obj 67 286 outlet~;
#X obj 114 268 outlet~;
#X obj 159 246 outlet~;
#X obj 209 226 outlet~;
#X obj 339 55 inlet;
#X obj 339 76 b;
#X connect 0 0 9 0;
#X connect 1 0 10 0;
#X connect 2 0 11 0;
#X connect 3 0 12 0;
#X connect 4 0 3 1;
#X connect 4 0 2 1;
#X connect 4 0 1 1;
#X connect 4 0 0 1;
#X connect 5 0 0 0;
#X connect 6 0 1 0;
#X connect 7 0 2 0;
#X connect 8 0 3 0;
#X connect 13 0 14 0;
#X connect 14 0 3 2;
#X connect 14 0 2 2;
#X connect 14 0 1 2;
#X connect 14 0 0 2;
#X restore 105 643 pd four-reverbs;
#X text 418 670 RVBAP Spatialization;
#X obj 430 712 import vbap;
#X obj 753 253 s \$0-config;
#X obj 532 257 r \$0-config;
#X obj 752 188 bng 20 250 50 0 empty empty empty 0 -6 0 10 -258113
-1 -1;
#X text 791 199 Configure Loudspeaker Geometry;
#X text 412 686 slegroux@iua.upf.edu;
#X obj 537 555 s \$0-vbapout;
#X obj -24 482 r \$0-vbapout;
#X obj -22 607 *~;
#X obj 4 609 *~;
#X obj 33 610 *~;
#X obj 61 610 *~;
#X obj 89 611 *~;
#X obj 117 614 *~;
#X obj 145 616 *~;
#X obj 171 615 *~;
#X obj 13 22 inlet~;
#X obj 113 337 nbx 5 14 0 100 0 0 empty empty empty 0 -6 0 10 -257985
-1 -1 0 256;
#X obj 118 356 bng 15 250 50 0 empty empty empty 0 -6 0 10 -159808
-1 -1;
#X text 109 320 db after 1s;
#X text 137 356 clear;
#X obj 326 185 pack f f;
#X floatatom 326 231 5 0 0 0 - - -;
#X obj 115 105 grid grid1 144 0 1 144 0 1 0 0.001 0.001 10 10 -13 110
;
#X floatatom 432 230 5 0 0 0 - - -;
#N canvas 0 22 482 430 graph-to-aziele 0;
#X obj 42 505 expr acos($f1/$f3) * 180 / 3.1415 * $f2;
#X obj 323 366 expr sqrt($f1);
#X obj 323 338 + 0;
#X obj 78 313 * 0;
#X obj 343 276 * 0;
#X msg 460 505 0;
#X msg 233 265 -1;
#X msg 268 265 1;
#X obj 42 249 expr ($f1-0.5)/0.5;
#X obj 233 145 expr ($f1-0.5)/0.5;
#X obj 42 16 inlet;
#X obj 42 570 outlet;
#X obj 488 569 outlet;
#X obj 407 431 expr 90 - ($f1*90.0);
#X obj 460 479 moses 0;
#X obj 233 238 moses 0;
#X obj 42 279 t f f f;
#X obj 233 179 t f f f;
#X obj 42 99 unpack f f;
#X msg 42 67 \$2 \$1;
#X text 101 66 reverse order;
#X text 101 16 float x \, float y;
#X obj 323 393 t f f;
#X connect 0 0 11 0;
#X connect 1 0 22 0;
#X connect 2 0 1 0;
#X connect 3 0 2 0;
#X connect 4 0 2 1;
#X connect 5 0 12 0;
#X connect 6 0 0 1;
#X connect 7 0 0 1;
#X connect 8 0 16 0;
#X connect 9 0 17 0;
#X connect 10 0 19 0;
#X connect 13 0 14 0;
#X connect 14 0 5 0;
#X connect 14 1 12 0;
#X connect 15 0 6 0;
#X connect 15 1 7 0;
#X connect 16 0 0 0;
#X connect 16 1 3 0;
#X connect 16 2 3 1;
#X connect 17 0 15 0;
#X connect 17 1 4 0;
#X connect 17 2 4 1;
#X connect 18 0 8 0;
#X connect 18 1 9 0;
#X connect 19 0 18 0;
#X connect 22 0 0 2;
#X connect 22 1 13 0;
#X restore 326 208 pd graph-to-aziele;
#X floatatom 558 343 5 0 0 2 azi - -;
#X floatatom 602 343 5 0 0 2 ele - -;
#X floatatom 637 343 5 0 100 2 spread - -;
#X text 629 475 actual location;
#X floatatom 557 446 5 0 0 3 azi - -;
#X floatatom 601 446 5 0 0 3 ele - -;
#X floatatom 645 446 5 0 0 3 spread - -;
#X floatatom 700 445 5 0 0 3 dist - -;
#N canvas 352 196 555 368 set-element 0;
#X obj 70 81 unpack 0 0;
#X obj 70 104 + 1;
#X obj 70 137 pack 0 1 0;
#X obj 70 179 list trim;
#X obj 70 158 list prepend element;
#X obj 70 59 inlet;
#X obj 70 261 outlet;
#X obj 70 221 t b a;
#X text 48 33 transforms rvbap-output to be used with [mtx] from iemmatrix
;
#X obj 168 80 inlet;
#X connect 0 0 1 0;
#X connect 0 1 2 2;
#X connect 1 0 2 0;
#X connect 2 0 4 0;
#X connect 3 0 7 0;
#X connect 4 0 3 0;
#X connect 5 0 0 0;
#X connect 7 0 6 0;
#X connect 7 1 6 0;
#X connect 9 0 2 1;
#X restore 537 531 pd set-element;
#N canvas 203 642 802 273 peek 0;
#X floatatom 55 198 10 0 0 0 - - -;
#X floatatom 134 198 10 0 0 0 - - -;
#X floatatom 213 198 10 0 0 0 - - -;
#X floatatom 292 198 10 0 0 0 - - -;
#X obj 55 74 route 0 1 2 3 4 5 6 7;
#X floatatom 366 197 10 0 0 0 - - -;
#X floatatom 445 197 10 0 0 0 - - -;
#X floatatom 524 197 10 0 0 0 - - -;
#X floatatom 603 197 10 0 0 0 - - -;
#X obj 55 49 inlet;
#X connect 4 0 0 0;
#X connect 4 1 1 0;
#X connect 4 2 2 0;
#X connect 4 3 3 0;
#X connect 4 4 5 0;
#X connect 4 5 6 0;
#X connect 4 6 7 0;
#X connect 4 7 8 0;
#X connect 9 0 4 0;
#X restore 551 505 pd peek;
#N canvas 0 22 458 308 tba 0;
#X obj 143 51 inlet;
#X obj 96 49 inlet;
#X obj 191 51 inlet;
#X obj 238 51 inlet;
#X obj 173 180 outlet;
#X obj 61 178 outlet;
#X obj 221 180 outlet;
#X obj 268 180 outlet;
#X obj 126 180 outlet;
#X obj 96 73 t b a;
#X obj 143 72 t b a;
#X obj 191 72 t b a;
#X obj 238 72 t b a;
#X connect 0 0 10 0;
#X connect 1 0 9 0;
#X connect 2 0 11 0;
#X connect 3 0 12 0;
#X connect 9 0 5 0;
#X connect 9 1 8 0;
#X connect 10 0 5 0;
#X connect 10 1 4 0;
#X connect 11 0 5 0;
#X connect 11 1 6 0;
#X connect 12 0 5 0;
#X connect 12 1 7 0;
#X restore 562 388 pd tba;
#X obj 119 294 hsl 64 15 1 20 0 0 empty empty empty -2 -8 0 10 -260097
-1 -1 2700 1;
#X obj 851 166 loadbang;
#X obj 841 357 hradio 15 1 0 3 empty empty id: -20 8 1 10 -262144 -1
-1 0;
#X obj 851 187 0;
#X text 915 369 in an abstraction \, use;
#X obj 841 385 + 1;
#X obj 114 267 nbx 4 14 -1e+37 1e+37 0 0 empty empty empty 0 -6 0 10
-260097 -1 -1 -89.31 256;
#X obj 190 293 nbx 3 14 -1e+37 1e+37 0 0 empty empty empty 0 -6 0 10
-257985 -1 -1 9.14286 256;
#X obj 218 267 nbx 4 14 0 100 0 0 empty empty empty 0 -6 0 10 -260097
-1 -1 59 256;
#X obj 166 268 nbx 4 14 -1e+37 1e+37 0 0 empty empty empty 0 -6 0 10
-260097 -1 -1 0 256;
#X text 115 251 azimuth;
#X text 217 250 spread;
#X text 174 250 ele;
#X floatatom 584 46 5 0 0 0 - - -;
#X floatatom 696 45 5 0 0 0 - - -;
#X obj 521 43 pack f f;
#X msg 442 42 goto \$1 \$2;
#X msg 656 44 bang;
#X text 634 45 X;
#X text 443 24 Set position :;
#X obj 584 18 inlet;
#X obj 696 18 inlet;
#X obj 756 17 inlet;
#X obj 537 417 vbap/rvbap 0 0;
#X obj 27 380 env~;
#X floatatom 30 409 5 0 0 0 - - -;
#X obj -24 504 mtx 8 1;
#X obj -25 566 mtx_*~ 8 1 20;
#X obj 76 567 line~;
#X obj 217 326 knob 32 32 0 2 0 0 empty empty empty 0 -8 0 8 -262144
-1 -1 775 1;
#X obj 217 363 nbx 4 10 -1e+37 1e+37 0 0 empty empty empty 0 -6 0 10
-257985 -1 -1 0.5 256;
#X obj 117 107 cnv 15 30 30 empty \$0-2-loopNo 1 2 16 1 24 -1 -262144
0;
#X obj 228 106 cnv 15 30 30 empty \$0-3-loopNo 2 2 16 1 24 -1 -262144
0;
#X obj 228 217 cnv 15 30 30 empty \$0-4-loopNo 3 2 16 1 24 -1 -262144
0;
#X obj 115 218 cnv 15 30 30 empty \$0-5-loopNo 4 2 16 1 24 -1 -262144
0;
#X text 184 101 0;
#X text 243 165 90;
#X text 177 234 180;
#X text 118 165 -90;
#X obj 753 232 define_loudspeakers 2 -45 45 135 -135;
#X msg 822 186 10;
#X obj 803 18 inlet;
#X obj 76 547 pack \$1 50;
#X obj 183 362 tgl 15 0 empty empty empty 0 -6 0 10 -4034 -1 -1 1 1
;
#X text 172 346 on/off;
#X obj 354 379 pack \$1 3000;
#X obj 354 399 line;
#X obj 1 722 outlet~;
#X obj 52 723 outlet~;
#X obj 103 724 outlet~;
#X obj 154 725 outlet~;
#X obj 846 19 inlet;
#X msg 881 188 0.5;
#X msg 354 353 0.5;
#X obj 262 422 sel 0 1;
#X msg 271 460 0;
#X obj 263 545 prepend set;
#X msg 263 568 matrix 8 1 0.0783664 0.00467603 0.00406415 0.0760474
0.229127 0.0306787 0.0290309 0.222882;
#X connect 1 0 3 4;
#X connect 2 0 3 5;
#X connect 3 0 89 0;
#X connect 3 1 90 0;
#X connect 3 2 91 0;
#X connect 3 3 92 0;
#X connect 7 0 65 0;
#X connect 8 0 81 0;
#X connect 12 0 68 0;
#X connect 13 0 89 0;
#X connect 14 0 90 0;
#X connect 15 0 91 0;
#X connect 16 0 92 0;
#X connect 17 0 3 0;
#X connect 18 0 3 1;
#X connect 19 0 3 2;
#X connect 20 0 3 3;
#X connect 21 0 66 0;
#X connect 21 0 69 1;
#X connect 22 0 1 0;
#X connect 23 0 2 0;
#X connect 26 0 30 0;
#X connect 28 0 26 0;
#X connect 28 1 26 1;
#X connect 30 0 27 0;
#X connect 30 0 48 0;
#X connect 30 1 29 0;
#X connect 30 1 51 0;
#X connect 31 0 41 0;
#X connect 32 0 41 1;
#X connect 33 0 41 2;
#X connect 39 0 11 0;
#X connect 41 0 65 0;
#X connect 41 1 65 1;
#X connect 41 2 65 2;
#X connect 41 3 65 3;
#X connect 41 4 65 4;
#X connect 42 0 49 0;
#X connect 43 0 45 0;
#X connect 43 0 8 0;
#X connect 43 0 94 0;
#X connect 43 0 82 0;
#X connect 44 0 47 0;
#X connect 45 0 44 0;
#X connect 47 0 39 1;
#X connect 48 0 31 0;
#X connect 49 0 41 3;
#X connect 50 0 33 0;
#X connect 51 0 32 0;
#X connect 55 0 57 0;
#X connect 56 0 57 1;
#X connect 56 0 59 0;
#X connect 57 0 58 0;
#X connect 58 0 28 0;
#X connect 59 0 55 0;
#X connect 62 0 55 0;
#X connect 63 0 56 0;
#X connect 64 0 42 0;
#X connect 65 0 39 0;
#X connect 65 0 40 0;
#X connect 65 1 35 0;
#X connect 65 2 36 0;
#X connect 65 3 37 0;
#X connect 65 4 38 0;
#X connect 66 0 67 0;
#X connect 68 0 69 0;
#X connect 68 0 98 0;
#X connect 69 0 13 0;
#X connect 69 1 14 0;
#X connect 69 2 15 0;
#X connect 69 3 16 0;
#X connect 69 4 17 0;
#X connect 69 5 18 0;
#X connect 69 6 19 0;
#X connect 69 7 20 0;
#X connect 70 0 13 1;
#X connect 70 0 14 1;
#X connect 70 0 15 1;
#X connect 70 0 16 1;
#X connect 71 0 72 0;
#X connect 71 0 84 0;
#X connect 81 0 6 0;
#X connect 82 0 50 0;
#X connect 83 0 85 0;
#X connect 84 0 70 0;
#X connect 85 0 96 0;
#X connect 87 0 88 0;
#X connect 88 0 71 0;
#X connect 93 0 71 0;
#X connect 94 0 71 0;
#X connect 94 0 95 0;
#X connect 95 0 87 0;
#X connect 96 0 97 0;
#X connect 96 1 95 0;
#X connect 97 0 87 0;
#X connect 98 0 99 0;
#X coords 0 -1 1 1 180 290 1 100 100;
