#N canvas 101 44 673 464 10;
#X obj 101 100 cnv 15 38 58 empty empty empty 20 12 0 14 -128992 -66577
0;
#X msg 164 216 \; pd dsp 1;
#X msg 104 216 \; pd dsp 0;
#X obj 104 127 tgl 30 0 empty empty empty 0 -6 0 10 -258113 -1 -1 0
1;
#X obj 104 191 sel 0 1;
#X text 102 99 Audio;
#X text 101 110 ON/OFF;
#X obj 104 38 inlet;
#X obj 145 38 loadbang;
#X msg 145 62 1;
#X connect 3 0 4 0;
#X connect 4 0 2 0;
#X connect 4 1 1 0;
#X connect 7 0 3 0;
#X connect 8 0 9 0;
#X connect 9 0 3 0;
#X coords 0 -1 1 1 40 60 1 100 100;
