#N canvas 39 22 450 300 10;
#X obj 100 101 cnv 15 84 59 empty empty empty 20 12 0 14 -162280 -66577
0;
#N canvas 900 268 450 300 plot 0;
#X text 220 223 <-- click to graph;
#N canvas 45 83 558 569 fft 0;
#X obj 19 62 inlet~;
#X obj 85 214 inlet;
#X obj 19 92 rfft~;
#X obj 19 125 *~;
#X obj 50 125 *~;
#X obj 19 155 sqrt~;
#X obj 332 109 block~ 4096 1;
#X obj 19 181 biquad~ 0 0 0 0 1;
#X text 83 93 Fourier series;
#X text 88 146 magnitude;
#X text 86 131 calculate;
#X text 21 3 This subpatch computes the spectrum of the incoming signal
with a (rectangular windowed) FFT. FFTs aren't properly introduced
until much later.;
#X text 83 62 signal to analyze;
#X text 182 166 delay two samples;
#X text 181 182 for better graphing;
#X obj 90 425 samplerate~;
#X obj 90 402 bng 18 250 50 0 empty empty empty 0 -6 0 8 -262144 -1
-1;
#X floatatom 90 472 5 0 0 0 - - -;
#X obj 90 448 / 256;
#X obj 90 378 loadbang;
#X floatatom 90 541 5 0 0 0 - - -;
#X obj 98 494 s fundamental;
#X obj 90 517 ftom;
#X text 146 540 <-just out of curiosity \, here's the pitch;
#X text 14 319 At load time \, calculate a good choice of fundamental
frequency for showing spectra: the 16th bin in a 4096-point spectrum
\, so SR*16/4096 or SR/256.;
#X text 135 216 "bang" into this inlet to graph it;
#X obj 85 248 tabwrite~ spectrum;
#X connect 0 0 2 0;
#X connect 1 0 26 0;
#X connect 2 0 3 0;
#X connect 2 0 3 1;
#X connect 2 1 4 0;
#X connect 2 1 4 1;
#X connect 3 0 5 0;
#X connect 4 0 5 0;
#X connect 5 0 7 0;
#X connect 7 0 26 0;
#X connect 15 0 18 0;
#X connect 16 0 15 0;
#X connect 17 0 21 0;
#X connect 17 0 22 0;
#X connect 18 0 17 0;
#X connect 19 0 16 0;
#X connect 22 0 20 0;
#X restore 137 259 pd fft;
#X obj 302 176 metro 500;
#X floatatom 160 203 5 0 0 0 - - -;
#X obj 137 229 *~ 5;
#X obj 138 86 inlet~;
#X obj 188 86 inlet;
#X obj 245 88 inlet;
#X obj 360 238 bng 15 250 50 0 empty empty empty 17 7 0 10 -262144
-1 -1;
#X obj 200 256 tabwrite~ signal;
#X connect 2 0 1 1;
#X connect 2 0 8 0;
#X connect 2 0 9 0;
#X connect 3 0 4 1;
#X connect 4 0 1 0;
#X connect 4 0 9 0;
#X connect 5 0 4 0;
#X connect 6 0 4 1;
#X connect 7 0 2 0;
#X restore 22 225 pd plot;
#X obj 142 126 tgl 15 0 \$0-setPlotOn \$0-getPloton ON 17 7 0 10 -258113
-1 -1 0 1;
#X obj 105 121 knob 25 25 0 10 0 1 \$0-setPlotGain \$0-getPlotGain
PlotGain 0 -8 192 8 -258113 -258113 -1 1000 1;
#X obj 19 73 inlet~;
#X obj 138 36 inlet;
#X obj 195 55 inlet;
#X obj 278 148 loadbang;
#X msg 277 175 2;
#X obj 31 113 r~ input1;
#X connect 2 0 1 2;
#X connect 3 0 1 1;
#X connect 4 0 1 0;
#X connect 5 0 1 1;
#X connect 6 0 1 2;
#X connect 7 0 8 0;
#X connect 9 0 1 0;
#X coords 0 -1 1 1 86 61 1 100 100;
