#N canvas 763 22 450 300 10;
#X obj 209 39 inlet;
#X obj 223 259 switch~;
#X msg 222 214 0;
#X obj 57 200 line 0.3;
#X msg 254 215 1;
#X obj 209 118 sel 0 1;
#X obj 228 159 t b b;
#X obj 57 271 outlet;
#X obj 57 143 pack \$3 \$4;
#X obj 228 183 pack \$1 \$2;
#X obj 133 144 delay \$4;
#X obj 273 258 tgl 15 0 empty empty empty 17 7 0 10 -262144 -1 -1 0
1;
#X connect 0 0 5 0;
#X connect 2 0 1 0;
#X connect 2 0 11 0;
#X connect 3 0 7 0;
#X connect 4 0 1 0;
#X connect 4 0 11 0;
#X connect 5 0 8 0;
#X connect 5 0 10 0;
#X connect 5 1 6 0;
#X connect 6 0 9 0;
#X connect 6 1 4 0;
#X connect 8 0 3 0;
#X connect 9 0 3 0;
#X connect 10 0 2 0;
