#N canvas 49 23 1198 931 10;
#X obj -230 86 slg.spectralsynth20~;
#X obj -230 219 slg.substractive~;
#X obj -221 377 slg.wind~;
#X obj 152 506 slg.sinusynth~;
#X obj -217 55 comment 0 20 Times ? 0 255 128 0 SYNTHESIS;
#X obj 317 89 comment 0 14 Helvetica ? 0 0 128 128 Moving Spectrum
;
#X obj 334 222 comment 0 14 Helvetica ? 0 0 128 128 Substractive;
#X obj 347 106 comment 0 14 Helvetica ? 0 0 128 128 Synth;
#X obj 355 239 comment 0 14 Helvetica ? 0 0 128 128 Synth;
#X obj -54 511 comment 0 14 Helvetica ? 0 0 128 128 Wind;
#X obj -54 526 comment 0 14 Helvetica ? 0 0 128 128 Synth;
#X obj -219 492 slg.wind~;
#X obj -205 686 slg.dafxreverb~;
#X obj -93 353 r \$0-pitch;
#X obj -220 467 r \$0-enveloppe;
#X obj -122 468 r \$0-onset;
#X obj -106 445 + 5;
#X floatatom -44 446 5 0 0 0 - - -;
#X obj 23 440 slg.convolution~;
#X floatatom 133 426 5 0 0 0 - - -;
#X obj 773 88 r \$0-trigger;
#X floatatom 846 112 5 0 0 0 - - -;
#X obj 773 110 sel 1 2 3 4;
#X obj 881 110 bng 15 250 50 0 empty empty empty 0 -6 0 10 -262144
-1 -1;
#X obj 23 364 slg.loadsample~;
#X obj 178 364 slg.loadsample~;
#X obj 773 133 slg.loadsoundfile~;
#X obj 773 198 slg.loadsoundfile~;
#X obj 773 263 slg.loadsoundfile~;
#X obj 773 328 slg.loadsoundfile~;
#N canvas 0 22 786 459 fromIQRtoPD 0;
#X obj 149 70 OSCroute /repercusosynth;
#X obj 149 165 s \$0-pitch;
#X obj 215 200 s \$0-enveloppe;
#X obj 279 141 s \$0-onset;
#X obj 215 179 maxlib/scale 0 100 0 5;
#X floatatom 149 144 5 0 0 0 - - -;
#N canvas 0 22 129 175 parse 0;
#X obj 35 54 any2list;
#X obj 35 75 symbol2list;
#X obj 35 99 unpack f;
#X obj 35 25 inlet;
#X obj 35 126 outlet;
#X connect 0 0 1 0;
#X connect 1 0 2 0;
#X connect 2 0 4 0;
#X connect 3 0 0 0;
#X restore 149 121 pd parse;
#N canvas 0 22 129 175 parse 0;
#X obj 35 54 any2list;
#X obj 35 75 symbol2list;
#X obj 35 99 unpack f;
#X obj 35 25 inlet;
#X obj 35 126 outlet;
#X connect 0 0 1 0;
#X connect 1 0 2 0;
#X connect 2 0 4 0;
#X connect 3 0 0 0;
#X restore 214 120 pd parse;
#X floatatom 231 146 5 0 0 0 - - -;
#N canvas 0 22 129 175 parse 0;
#X obj 35 54 any2list;
#X obj 35 75 symbol2list;
#X obj 35 99 unpack f;
#X obj 35 25 inlet;
#X obj 35 126 outlet;
#X connect 0 0 1 0;
#X connect 1 0 2 0;
#X connect 2 0 4 0;
#X connect 3 0 0 0;
#X restore 279 117 pd parse;
#X obj 152 228 delta;
#X floatatom 152 251 5 0 0 0 - - -;
#X obj 149 92 OSCroute /pitch /enveloppe /onset /trigger;
#N canvas 0 22 129 175 parse 0;
#X obj 35 54 any2list;
#X obj 35 75 symbol2list;
#X obj 35 99 unpack f;
#X obj 35 25 inlet;
#X obj 35 126 outlet;
#X connect 0 0 1 0;
#X connect 1 0 2 0;
#X connect 2 0 4 0;
#X connect 3 0 0 0;
#X restore 362 118 pd parse;
#X obj 362 142 s \$0-trigger;
#X obj 151 39 dumpOSC 3000;
#X connect 0 0 12 0;
#X connect 4 0 2 0;
#X connect 5 0 1 0;
#X connect 5 0 10 0;
#X connect 6 0 5 0;
#X connect 7 0 4 0;
#X connect 7 0 8 0;
#X connect 9 0 3 0;
#X connect 10 0 11 0;
#X connect 12 0 6 0;
#X connect 12 1 7 0;
#X connect 12 2 9 0;
#X connect 12 3 13 0;
#X connect 13 0 14 0;
#X connect 15 0 0 0;
#X restore 27 764 pd fromIQRtoPD;
#X obj 25 716 comment 0 20 Times ? 0 255 128 0 From iqr;
#X obj 23 739 comment 0 14 Helvetica ? 0 0 128 128 via sendOSC;
#X obj 23 505 slg.gain~;
#X obj 141 460 comment 0 14 Helvetica ? 0 0 128 128 Cross-Synthesis
;
#X obj 520 436 slg.multiout8~;
#X obj -199 614 throw~ c2;
#X obj -199 636 throw~ c3;
#X obj -199 658 throw~ c4;
#X msg -120 604 \; pd dsp 1;
#X msg -119 639 \; pd dsp 0;
#X obj -198 593 throw~ c1;
#X obj -230 196 throw~ c1;
#X obj -230 345 throw~ c2;
#X obj 520 103 slg.rvbap1-4~;
#X obj 520 47 slg.loadsample~;
#X obj 581 403 throw~ c2;
#X obj 642 403 throw~ c3;
#X obj 702 402 throw~ c4;
#X obj 520 404 throw~ c1;
#X obj -225 7 comment 0 20 Times ? 0 255 128 0 PD-REPERCURSO 2007;
#X obj -229 898 comment 0 14 Helvetica ? 0 0 128 128 (c) Sylvain Le
Groux :: slegroux@iua.upf.edu;
#X connect 0 0 42 0;
#X connect 1 0 43 0;
#X connect 13 0 2 2;
#X connect 13 0 16 0;
#X connect 14 0 11 1;
#X connect 16 0 11 2;
#X connect 17 0 16 1;
#X connect 18 0 33 0;
#X connect 19 0 18 2;
#X connect 20 0 21 0;
#X connect 20 0 22 0;
#X connect 21 0 23 0;
#X connect 22 0 26 0;
#X connect 22 1 27 0;
#X connect 22 2 28 0;
#X connect 22 3 29 0;
#X connect 24 0 18 0;
#X connect 25 0 18 1;
#X connect 44 0 49 0;
#X connect 44 1 46 0;
#X connect 44 2 47 0;
#X connect 44 3 48 0;
#X connect 45 0 44 0;
