#N canvas 5 22 1238 754 10;
#N canvas 476 22 616 529 SPATIALIZATION 0;
#X obj 3 50 slg.rvbap1-4~;
#X obj 78 -59 r \$0-x;
#X obj 178 -59 r \$0-y;
#X obj 123 -59 r \$0-rx;
#X obj 227 -61 r \$0-ry;
#X obj 59 355 throw~ c2;
#X obj 117 355 throw~ c3;
#X obj 176 355 throw~ c4;
#X obj 1 355 throw~ c1;
#X obj 1 -57 inlet~;
#X msg 392 -1 1;
#X msg 420 -1 2;
#X obj 278 -60 inlet;
#X obj 144 9 switch 2;
#X obj 59 7 switch 2;
#X obj 278 35 sel 0 1 2;
#X msg 360 -2 0;
#X floatatom 5 35 5 0 0 0 - - -;
#X floatatom 43 34 5 0 0 0 - - -;
#X floatatom 109 33 5 0 0 0 - - -;
#X floatatom 150 32 5 0 0 0 - - -;
#X obj 228 180 line;
#X floatatom 228 203 5 0 0 0 - - -;
#X msg 228 141 144 60000;
#X obj 295 181 line;
#X floatatom 295 204 5 0 0 0 - - -;
#X msg 198 138 0 0;
#X obj 228 115 bng 15 250 50 0 empty empty empty 0 -6 0 10 -262144
-1 -1;
#X obj 198 116 bng 15 250 50 0 empty empty empty 0 -6 0 10 -262144
-1 -1;
#X obj 435 194 maxlib/scale 0 144 144 0;
#X obj 390 218 switch 2;
#X obj 376 137 hradio 15 1 0 2 empty empty empty 0 -6 0 10 -262144
-1 -1 0;
#X obj 398 34 r \$0-trigger;
#X obj 398 58 sel 2;
#X msg 376 105 1;
#X msg 412 104 0;
#X obj 493 134 maxlib/scale 0 144 144 0;
#X obj 441 166 switch 2;
#X text 418 89 normal;
#X text 362 91 symmetry;
#X obj 499 62 clock;
#X obj 499 90 sel 360000;
#X connect 1 0 14 1;
#X connect 1 0 17 0;
#X connect 2 0 13 1;
#X connect 2 0 18 0;
#X connect 3 0 19 0;
#X connect 3 0 36 0;
#X connect 3 0 37 1;
#X connect 4 0 20 0;
#X connect 4 0 30 1;
#X connect 4 0 29 0;
#X connect 9 0 0 0;
#X connect 10 0 13 0;
#X connect 10 0 14 0;
#X connect 11 0 13 0;
#X connect 11 0 14 0;
#X connect 12 0 15 0;
#X connect 13 0 0 2;
#X connect 14 0 0 1;
#X connect 15 0 16 0;
#X connect 15 1 10 0;
#X connect 15 2 11 0;
#X connect 16 0 14 0;
#X connect 16 0 13 0;
#X connect 21 0 22 0;
#X connect 21 0 0 1;
#X connect 23 0 21 0;
#X connect 23 0 24 0;
#X connect 24 0 25 0;
#X connect 24 0 0 2;
#X connect 26 0 21 0;
#X connect 26 0 24 0;
#X connect 27 0 23 0;
#X connect 28 0 26 0;
#X connect 29 0 30 2;
#X connect 30 0 13 2;
#X connect 31 0 30 0;
#X connect 31 0 37 0;
#X connect 32 0 33 0;
#X connect 33 0 34 0;
#X connect 33 0 40 0;
#X connect 33 1 35 0;
#X connect 34 0 31 0;
#X connect 35 0 31 0;
#X connect 36 0 37 2;
#X connect 37 0 14 2;
#X connect 40 0 41 0;
#X connect 41 0 35 0;
#X restore 33 393 pd SPATIALIZATION;
#X obj -185 30 slg.audioonoff;
#N canvas 689 47 528 562 CARPETS 0;
#X obj -133 68 slg.carpet;
#X obj -133 448 outlet~;
#X obj -134 -17 r \$0-trigger;
#N canvas 344 22 906 383 autocarpet 0;
#X obj 102 112 clock;
#X obj 300 21 mod 60;
#X obj 300 45 sel 0;
#X obj 300 68 cyclone/counter 0 15;
#X msg 266 162 5 0;
#X obj 301 201 unpack f f;
#X msg 305 163 1 1;
#X msg 355 166 2 2;
#X msg 404 164 3 3;
#X msg 467 161 4 4;
#X obj 205 57 sel 3;
#X obj 103 137 clock;
#X obj 500 49 sel 4;
#X obj 587 34 mod 60;
#X obj 587 58 sel 0;
#X msg 587 138 5 0;
#X obj 587 177 unpack f f;
#X obj 587 81 cyclone/counter 0 7;
#X obj 587 106 sel 4 5;
#X msg 639 139 4 4;
#X floatatom 861 205 5 0 0 0 - - -;
#X floatatom 745 232 5 0 0 0 - - -;
#X msg 744 199 0.96;
#X msg 779 199 0.97;
#X msg 861 180 0.95;
#X msg 890 181 0.96;
#X msg 921 180 0.97;
#X msg 948 179 0.98;
#X msg 982 178 0.99;
#X floatatom 408 96 5 0 0 0 - - -;
#X msg 241 111 3;
#X obj 388 27 bng 15 250 50 0 empty empty empty 0 -6 0 10 -262144 -1
-1;
#X floatatom 433 35 5 0 0 0 - - -;
#X obj 670 35 bng 15 250 50 0 empty empty empty 0 -6 0 10 -262144 -1
-1;
#X text 264 146 sopro;
#X msg 235 146 4;
#X text 182 129 epilogo;
#X text 299 145 folhas;
#X text 338 133 folhasypeles;
#X text 385 145 pedrasypeles;
#X text 468 142 peles;
#X text 584 123 sopros;
#X text 636 122 peles;
#X obj 207 -31 inlet;
#X obj 250 300 outlet;
#X obj 301 302 outlet;
#X obj 364 304 outlet;
#X obj 196 115 bng 15 250 50 0 empty empty empty 0 -6 0 10 -262144
-1 -1;
#X obj 195 142 bng 15 250 50 0 empty empty empty 0 -6 0 10 -262144
-1 -1;
#X obj 428 -35 loadbang;
#X floatatom 701 118 5 0 0 0 - - -;
#X text 189 100 dance;
#X msg 439 204;
#X obj 299 108 sel 1 3 4 5 6 8 11;
#X connect 0 0 1 0;
#X connect 1 0 2 0;
#X connect 2 0 3 0;
#X connect 3 0 29 0;
#X connect 3 0 53 0;
#X connect 4 0 5 0;
#X connect 4 0 24 0;
#X connect 5 0 45 0;
#X connect 5 1 46 0;
#X connect 6 0 5 0;
#X connect 6 0 25 0;
#X connect 7 0 5 0;
#X connect 7 0 26 0;
#X connect 8 0 5 0;
#X connect 8 0 27 0;
#X connect 9 0 5 0;
#X connect 9 0 28 0;
#X connect 10 0 0 0;
#X connect 11 0 13 0;
#X connect 12 0 11 0;
#X connect 13 0 14 0;
#X connect 14 0 17 0;
#X connect 15 0 16 0;
#X connect 15 0 22 0;
#X connect 16 0 45 0;
#X connect 16 1 46 0;
#X connect 17 0 18 0;
#X connect 17 0 50 0;
#X connect 18 0 15 0;
#X connect 18 1 19 0;
#X connect 19 0 16 0;
#X connect 19 0 23 0;
#X connect 20 0 44 0;
#X connect 21 0 44 0;
#X connect 22 0 21 0;
#X connect 23 0 21 0;
#X connect 24 0 20 0;
#X connect 25 0 20 0;
#X connect 26 0 20 0;
#X connect 27 0 20 0;
#X connect 28 0 20 0;
#X connect 30 0 10 0;
#X connect 30 0 31 0;
#X connect 31 0 3 3;
#X connect 32 0 1 0;
#X connect 33 0 17 3;
#X connect 35 0 12 0;
#X connect 35 0 33 0;
#X connect 43 0 10 0;
#X connect 43 0 31 0;
#X connect 43 0 33 0;
#X connect 43 0 12 0;
#X connect 47 0 30 0;
#X connect 48 0 35 0;
#X connect 49 0 31 0;
#X connect 49 0 33 0;
#X connect 53 0 4 0;
#X connect 53 1 6 0;
#X connect 53 2 9 0;
#X connect 53 3 7 0;
#X connect 53 4 9 0;
#X connect 53 5 8 0;
#X connect 53 6 9 0;
#X coords 0 -1 1 1 130 60 1 100 100;
#X restore -134 7 pd autocarpet;
#X obj 235 -31 key;
#X obj 235 -5 sel 32;
#X text 160 37 (C) 2007 slegroux@iua.upf.edu;
#X obj -45 449 slg.v~;
#X connect 0 0 1 0;
#X connect 0 0 7 0;
#X connect 2 0 3 0;
#X connect 3 0 0 0;
#X connect 3 1 0 1;
#X connect 3 2 0 2;
#X connect 4 0 5 0;
#X restore -76 231 pd CARPETS;
#N canvas 145 22 674 241 ANALYSIS 0;
#X obj -2 -7 slg.audioanalysis~;
#X obj -2 215 s \$0-pitch;
#X obj 324 216 s \$0-envelope;
#X obj 487 319 s \$0-onset;
#X obj 691 -23 inlet~;
#X obj 651 215 throw~ c1;
#X obj 499 212 bng 15 250 50 0 empty empty empty 0 -6 0 10 -262144
-1 -1;
#X obj 487 300 bng 15 250 50 0 empty empty empty 0 -6 0 10 -262144
-1 -1;
#X obj 487 277 debounce 15;
#X floatatom 550 259 5 0 0 0 - - -;
#X obj 550 212 loadbang;
#X msg 550 236 3000;
#X connect 0 0 1 0;
#X connect 0 2 2 0;
#X connect 0 3 6 0;
#X connect 0 3 8 0;
#X connect 0 4 5 0;
#X connect 4 0 0 0;
#X connect 7 0 3 0;
#X connect 8 0 7 0;
#X connect 9 0 8 1;
#X connect 10 0 11 0;
#X connect 11 0 9 0;
#X restore 305 97 pd ANALYSIS;
#X obj 295 292 hradio 30 1 0 3 empty empty empty 0 -6 0 10 -4034 -1
-1 0;
#N canvas 21 27 1263 739 SYNTHESIS 0;
#X obj -99 6 slg.spectralsynth20~;
#X obj -95 131 slg.substractive~;
#X obj 500 8 slg.sinusynth~;
#X obj -15 282 slg.wind~;
#X obj 170 371 slg.convolution~;
#X obj 170 437 slg.gain~;
#X obj -149 421 outlet~;
#X obj 612 20 slg.fmsynth~bug;
#X obj 766 314 outlet~;
#X obj 614 182 outlet~;
#X obj 139 278 slg.loadsample~;
#X obj 394 281 slg.loadsample~;
#X obj 394 335 slg.gain~;
#X text 611 -3 TO DO: source volumes+rt spatialization?;
#X obj 766 247 slg.wind~;
#X obj 556 281 slg.loadsample~;
#X obj -232 160 outlet~;
#X obj 170 657 outlet~;
#X obj -20 539 outlet~;
#X obj -228 188 slg.v~;
#X obj -232 2 slg.gain1-1~;
#X obj -149 266 slg.gain1-1~;
#X obj 170 502 slg.gain1-1~;
#X obj -20 384 slg.gain1-1~;
#X connect 0 0 20 0;
#X connect 1 0 21 0;
#X connect 3 0 4 0;
#X connect 3 0 23 0;
#X connect 4 0 5 0;
#X connect 5 0 22 0;
#X connect 7 0 9 0;
#X connect 10 0 4 0;
#X connect 11 0 12 0;
#X connect 11 1 15 0;
#X connect 12 0 4 1;
#X connect 14 0 8 0;
#X connect 15 0 12 0;
#X connect 20 0 16 0;
#X connect 20 0 19 0;
#X connect 21 0 6 0;
#X connect 22 0 17 0;
#X connect 23 0 18 0;
#X restore -187 197 pd SYNTHESIS;
#X obj 521 323 slg.loadsample~;
#X obj -184 94 slg.cpu;
#X obj -84 32 slg.midimonitor;
#X obj 305 75 receive~ in2;
#X obj 33 230 receive~ in1;
#X obj 141 229 receive~ in2;
#X obj 521 275 key;
#X obj 521 301 sel 32;
#N canvas 880 22 193 466 SOUNDTRACK 1;
#X obj 7 -177 slg.soundtrack~;
#X obj 7 -199 r \$0-trigger;
#X connect 1 0 0 0;
#X coords 0 0 1 1 151 325 0;
#X restore 681 270 pd SOUNDTRACK;
#N canvas 24 25 472 441 INPUTS8~ 0;
#X obj -27 -23 slg.multiin8~;
#X restore 671 139 pd INPUTS8~;
#N canvas 10 338 504 466 OUTPUTS8~ 0;
#X obj 3 0 slg.multiout8~;
#X restore 671 161 pd OUTPUTS8~;
#N canvas 358 363 905 441 ANALYSIS-OLD 0;
#X obj -326 78 slg.sigmundanalysis~;
#X obj 95 187 bng 40 250 50 0 empty empty empty 0 -6 0 10 -258113 -1
-1;
#X obj 94 -21 slg.bonkers;
#X obj -326 233 slg.lbyl;
#X obj -44 38 comment 0 20 Times ? 0 255 128 0 ANALYSIS;
#X obj -44 74 comment 0 14 Helvetica ? 0 0 128 128 Analyses Pitch;
#X obj -44 111 comment 0 14 Helvetica ? 0 0 128 128 Sinusoidal Tracks
;
#X obj 285 -81 comment 0 14 Helvetica ? 0 0 128 128 Onset Detection
;
#X obj -41 136 comment 0 14 Helvetica ? 0 0 128 128 Enveloppe;
#X obj -48 -77 comment 0 14 Helvetica ? 0 0 128 128 Line input;
#N canvas 40 528 421 222 analysis-parameters-help 0;
#X text 48 44 npts - number of points in each analysis window (1024)
;
#X text 48 62 hop - number of points between each analysis (512);
#X text 48 79 npeak - number of sinusoidal peaks (20);
#X text 49 116 vibrato - depth of vibrato to expect in 1/2-tones (1)
;
#X text 48 135 stabletime - time (msec) to wait to report notes (50)
;
#X text 50 153 minpower - minimum power (dB) to report a pitch (50)
;
#X text 50 172 growth - growth (dB) to report a new note (7);
#X text 49 97 maxfreq - maximum sinusoid frequency in Hz. (1000000)
;
#X restore -242 51 pd analysis-parameters-help;
#N canvas 773 433 427 186 onset-detection-parameter-help 0;
#X text 20 16 Set low and high thresholds. Signal growth must exceed
the high one and then fall to the low one to make an attack.;
#X text 21 54 Minimum "velocity" to output (quieter notes are ignored.)
;
#X text 19 79 Describes how energy in each frequency band masks later
energy in the band. Here the masking is total for 4 analysis periods
and then drops by 0.7 each period.;
#X text 22 134 Minimum time (msec) between attacks;
#X restore 288 -43 pd onset-detection-parameter-help;
#X obj 286 -62 comment 0 14 Helvetica ? 0 0 128 128 Clik here for help
-->;
#X obj -201 28 comment 0 14 Helvetica ? 0 0 128 128 Clik here for help
-->;
#N canvas 56 38 441 301 2PDsynthesis_directly 0;
#X obj 36 235 sendOSC;
#X msg 35 93 disconnect;
#X msg 30 71 connect localhost 9999;
#X msg 41 115 send /repercusosynth/pitch \$1;
#X msg 49 136 send /repercusosynth/enveloppe \$1;
#X msg 56 157 send /repercusosynth/onset \$1;
#X obj 35 213 spigot;
#X obj 68 178 tgl 15 0 empty empty empty 0 -6 0 10 -262144 -1 -1 0
1;
#X text 87 177 send data;
#X obj 25 19 comment 0 20 Times ? 0 255 128 0 Connect to PD synthesis
module directly;
#X text 37 41 booh... shhh...don't say anything to Paul about this
;
#X text 180 64 we are skipping going through iqr;
#X text 213 83 for the sake of testing.;
#X connect 1 0 0 0;
#X connect 2 0 0 0;
#X connect 3 0 6 0;
#X connect 4 0 6 0;
#X connect 5 0 6 0;
#X connect 6 0 0 0;
#X connect 7 0 6 1;
#X restore 308 213 pd 2PDsynthesis_directly;
#N canvas 813 183 456 248 buildpulse 0;
#X obj 71 69 t b b;
#X msg 70 99 1;
#X msg 147 129 0;
#X floatatom 192 88 5 0 0 0 - - -;
#X obj 71 160 line \$1 5;
#X obj 147 109 delay 40;
#X obj 71 185 outlet;
#X text 208 110 delay b/w 0 and 1 values;
#X obj 71 37 inlet;
#X obj 139 32 bng 15 250 50 0 empty empty empty 0 -6 0 10 -262144 -1
-1;
#X obj 147 186 outlet;
#X connect 0 0 5 0;
#X connect 0 1 1 0;
#X connect 1 0 4 0;
#X connect 2 0 4 0;
#X connect 3 0 5 1;
#X connect 4 0 6 0;
#X connect 5 0 2 0;
#X connect 8 0 0 0;
#X connect 9 0 0 0;
#X restore 95 234 pd buildpulse;
#X obj -151 -80 slg.audioin~;
#X obj -326 28 receive~ \$0-samplein;
#X obj 94 -44 receive~ \$0-samplein;
#N canvas 44 405 302 133 stuff 0;
#X obj 32 -12 timer;
#X obj 32 10 nbx 5 14 -1e+37 1e+37 0 0 empty empty empty 0 -6 0 10
-262144 -1 -1 0 256;
#X obj 31 -33 bng 15 250 50 0 empty empty empty 0 -6 0 10 -262144 -1
-1;
#X text 29 -54 time between 2 bangs;
#X obj 167 -18 samplerate~;
#X floatatom 167 10 5 0 0 0 - - -;
#X obj 167 -37 bng 15 250 50 0 empty empty empty 0 -6 0 10 -262144
-1 -1;
#X connect 0 0 1 0;
#X connect 1 0 2 0;
#X connect 2 0 0 0;
#X connect 4 0 5 0;
#X connect 6 0 4 0;
#X restore 308 235 pd stuff;
#X obj -326 301 s \$0-pitch;
#X obj -5 225 s \$0-envelope;
#X obj 95 255 s \$0-onset;
#N canvas 180 154 598 343 connect2iqr 0;
#X obj 52 200 netsend 1;
#X obj 52 86 pack f f f;
#X msg -205 155 disconnect;
#X obj 52 109 list prepend send;
#X obj 52 130 list trim;
#X obj 52 171 spigot;
#X obj -62 41 tgl 15 0 empty empty empty 0 -6 0 10 -4034 -1 -1 0 72.049
;
#X text -44 39 send data;
#X obj 52 220 != 1;
#X obj 118 249 prepend set;
#X msg 118 269 send -1500 0.000209153 0;
#X msg 223 218 send \$1;
#X msg -207 102 connect 192.168.1.22 3001;
#X floatatom 223 194 5 0 0 0 - - -;
#X obj 30 265 metro 500;
#X floatatom 62 247 5 0 0 0 - - -;
#X obj -41 103 loadbang;
#X obj 33 23 inlet;
#X obj 72 23 inlet;
#X obj 111 23 inlet;
#X obj -62 18 inlet;
#X floatatom 113 54 5 0 0 0 - - -;
#X floatatom 76 55 5 0 0 0 - - -;
#X floatatom 38 54 5 0 0 0 - - -;
#X obj 153 53 bng 15 250 50 0 empty empty empty 0 -6 0 10 -262144 -1
-1;
#X connect 0 0 8 0;
#X connect 1 0 3 0;
#X connect 2 0 0 0;
#X connect 3 0 4 0;
#X connect 4 0 5 0;
#X connect 5 0 0 0;
#X connect 5 0 9 0;
#X connect 6 0 5 1;
#X connect 8 0 14 0;
#X connect 8 0 15 0;
#X connect 9 0 10 0;
#X connect 11 0 0 0;
#X connect 12 0 0 0;
#X connect 13 0 11 0;
#X connect 14 0 12 0;
#X connect 16 0 12 0;
#X connect 17 0 23 0;
#X connect 18 0 22 0;
#X connect 18 0 24 0;
#X connect 19 0 21 0;
#X connect 19 0 24 0;
#X connect 20 0 6 0;
#X connect 21 0 1 2;
#X connect 22 0 1 1;
#X connect 23 0 1 0;
#X connect 24 0 23 0;
#X restore -153 286 pd connect2iqr;
#X obj -153 259 tgl 15 0 empty empty empty 0 -6 0 10 -4034 -1 -1 0
72.049;
#X text -165 240 send data;
#X obj -126 258 r \$0-pitch;
#X obj -58 257 r \$0-envelope;
#X obj 28 257 r \$0-onset;
#X floatatom -259 302 5 0 0 0 - - -;
#X obj -51 180 slg.env~;
#X obj -51 157 receive~ \$0-samplein;
#X floatatom -51 207 5 0 0 0 - - -;
#X floatatom -6 208 5 0 0 0 - - -;
#X obj -337 -16 send~ \$0-samplein;
#X obj -326 51 receive~ in1;
#X obj -223 -15 throw~ c1;
#X obj -337 -75 slg.loadsample~;
#X connect 0 0 3 0;
#X connect 1 0 15 0;
#X connect 2 0 1 0;
#X connect 3 0 29 0;
#X connect 3 0 20 0;
#X connect 15 0 22 0;
#X connect 17 0 0 0;
#X connect 18 0 2 0;
#X connect 24 0 23 0;
#X connect 26 0 23 1;
#X connect 27 0 23 2;
#X connect 28 0 23 3;
#X connect 30 0 32 0;
#X connect 30 1 33 0;
#X connect 31 0 30 0;
#X connect 33 0 21 0;
#X connect 35 0 0 0;
#X connect 37 0 34 0;
#X connect 37 0 36 0;
#X restore 671 244 pd ANALYSIS-OLD;
#N canvas 64 50 344 201 fromPD2IQRport3001 0;
#N canvas 294 680 391 248 buildpulse 0;
#X obj 71 69 t b b;
#X msg 70 99 1;
#X msg 147 129 0;
#X floatatom 192 88 5 0 0 0 - - -;
#X obj 71 160 line \$1 5;
#X obj 147 109 delay 40;
#X obj 71 185 outlet;
#X text 208 110 delay b/w 0 and 1 values;
#X obj 71 37 inlet;
#X floatatom 127 69 5 0 0 0 - - -;
#X floatatom 123 192 5 0 0 0 - - -;
#X obj 142 48 bng 15 250 50 0 empty empty empty 0 -6 0 10 -262144 -1
-1;
#X obj 181 19 bng 15 250 50 0 empty empty empty 0 -6 0 10 -262144 -1
-1;
#X obj 264 50 print;
#X connect 0 0 5 0;
#X connect 0 1 1 0;
#X connect 1 0 4 0;
#X connect 2 0 4 0;
#X connect 3 0 5 1;
#X connect 4 0 6 0;
#X connect 4 0 10 0;
#X connect 5 0 2 0;
#X connect 8 0 0 0;
#X connect 8 0 9 0;
#X connect 8 0 11 0;
#X restore 62 63 pd buildpulse;
#N canvas 55 343 650 395 connect2iqr 0;
#X obj 52 200 netsend 1;
#X obj 52 86 pack f f f;
#X msg -205 155 disconnect;
#X obj 52 109 list prepend send;
#X obj 52 130 list trim;
#X obj 52 171 spigot;
#X obj -62 41 tgl 15 0 empty empty empty 0 -6 0 10 -4034 -1 -1 0 72.049
;
#X text -44 39 send data;
#X obj 52 220 != 1;
#X obj 118 249 prepend set;
#X msg 118 269 send -1500 0.00439334 0;
#X msg 223 218 send \$1;
#X msg -207 102 connect 192.168.1.22 3001;
#X floatatom 223 194 5 0 0 0 - - -;
#X obj 30 265 metro 500;
#X floatatom 62 247 5 0 0 0 - - -;
#X obj -41 103 loadbang;
#X obj 33 23 inlet;
#X obj 72 23 inlet;
#X obj 111 23 inlet;
#X obj -62 18 inlet;
#X floatatom 113 54 5 0 0 0 - - -;
#X floatatom 76 55 5 0 0 0 - - -;
#X floatatom 38 54 5 0 0 0 - - -;
#X obj 153 53 bng 15 250 50 0 empty empty empty 0 -6 0 10 -262144 -1
-1;
#X connect 0 0 8 0;
#X connect 1 0 3 0;
#X connect 2 0 0 0;
#X connect 3 0 4 0;
#X connect 4 0 5 0;
#X connect 5 0 0 0;
#X connect 5 0 9 0;
#X connect 6 0 5 1;
#X connect 8 0 14 0;
#X connect 8 0 15 0;
#X connect 9 0 10 0;
#X connect 11 0 0 0;
#X connect 12 0 0 0;
#X connect 13 0 11 0;
#X connect 14 0 12 0;
#X connect 16 0 12 0;
#X connect 17 0 23 0;
#X connect 18 0 22 0;
#X connect 18 0 24 0;
#X connect 19 0 21 0;
#X connect 19 0 24 0;
#X connect 20 0 6 0;
#X connect 21 0 1 2;
#X connect 22 0 1 1;
#X connect 23 0 1 0;
#X connect 24 0 23 0;
#X restore -120 104 pd connect2iqr;
#X obj -120 45 tgl 15 0 empty empty empty 0 -6 0 10 -4034 -1 -1 0 72.049
;
#X text -78 12 send data;
#X obj -93 44 r \$0-pitch;
#X obj -25 43 r \$0-envelope;
#X obj 61 18 r \$0-onset;
#X obj -120 12 inlet;
#X connect 0 0 1 3;
#X connect 2 0 1 0;
#X connect 4 0 1 1;
#X connect 5 0 1 2;
#X connect 6 0 0 0;
#X connect 7 0 2 0;
#X restore 671 49 pd fromPD2IQRport3001;
#X obj 671 18 tgl 25 0 empty empty empty 0 -6 0 10 -4034 -1 -1 0 72.049
;
#X text 703 22 send data;
#N canvas 7 33 551 488 SOUNDEFFECTS 0;
#X obj 46 83 slg.DAFXchorus4~;
#X obj -181 3 inlet~;
#X obj 46 468 outlet~;
#X obj -182 311 slg.dafxtremolo~;
#X obj 46 310 slg.dafxreverb~;
#X obj -181 26 slg.dafxbp~;
#X obj 46 167 slg.dafxdelay~;
#X obj -182 167 slg.dafxharmonizer~;
#X obj 153 34 slg.distortion~;
#X obj -181 118 slg.colorfilter~;
#X connect 0 0 6 0;
#X connect 1 0 5 0;
#X connect 3 0 0 0;
#X connect 4 0 2 0;
#X connect 5 0 9 0;
#X connect 6 0 4 0;
#X connect 7 0 3 0;
#X connect 9 0 7 0;
#X restore 671 94 pd SOUNDEFFECTS;
#N canvas 916 387 204 96 ROUTING 0;
#X obj 19 55 throw~ c3;
#X obj 101 54 throw~ c4;
#X obj 15 13 receive~ in1;
#X obj 97 14 receive~ in2;
#X restore 671 117 pd ROUTING;
#N canvas 164 34 1120 356 fromIQR2PDport5000 0;
#X obj 82 52 OSCroute /repercusosynth;
#X floatatom 84 170 5 0 0 0 - - -;
#N canvas 0 22 129 175 parse 0;
#X obj 35 54 any2list;
#X obj 35 75 symbol2list;
#X obj 35 99 unpack f;
#X obj 35 25 inlet;
#X obj 35 126 outlet;
#X connect 0 0 1 0;
#X connect 1 0 2 0;
#X connect 2 0 4 0;
#X connect 3 0 0 0;
#X restore 84 147 pd parse;
#N canvas 0 22 129 175 parse 0;
#X obj 35 54 any2list;
#X obj 35 75 symbol2list;
#X obj 35 99 unpack f;
#X obj 35 25 inlet;
#X obj 35 126 outlet;
#X connect 0 0 1 0;
#X connect 1 0 2 0;
#X connect 2 0 4 0;
#X connect 3 0 0 0;
#X restore 149 146 pd parse;
#X floatatom 166 172 5 0 0 0 - - -;
#N canvas 0 22 129 175 parse 0;
#X obj 35 54 any2list;
#X obj 35 75 symbol2list;
#X obj 35 99 unpack f;
#X obj 35 25 inlet;
#X obj 35 126 outlet;
#X connect 0 0 1 0;
#X connect 1 0 2 0;
#X connect 2 0 4 0;
#X connect 3 0 0 0;
#X restore 214 143 pd parse;
#X obj 84 220 delta;
#X floatatom 84 243 5 0 0 0 - - -;
#N canvas 0 22 129 175 parse 0;
#X obj 35 54 any2list;
#X obj 35 75 symbol2list;
#X obj 35 99 unpack f;
#X obj 35 25 inlet;
#X obj 35 126 outlet;
#X connect 0 0 1 0;
#X connect 1 0 2 0;
#X connect 2 0 4 0;
#X connect 3 0 0 0;
#X restore 343 144 pd parse;
#X obj 343 187 s \$0-trigger;
#N canvas 0 22 129 175 parse 0;
#X obj 35 54 any2list;
#X obj 35 75 symbol2list;
#X obj 35 99 unpack f;
#X obj 35 25 inlet;
#X obj 35 126 outlet;
#X connect 0 0 1 0;
#X connect 1 0 2 0;
#X connect 2 0 4 0;
#X connect 3 0 0 0;
#X restore 425 139 pd parse;
#N canvas 0 22 129 175 parse 0;
#X obj 35 54 any2list;
#X obj 35 75 symbol2list;
#X obj 35 99 unpack f;
#X obj 35 25 inlet;
#X obj 35 126 outlet;
#X connect 0 0 1 0;
#X connect 1 0 2 0;
#X connect 2 0 4 0;
#X connect 3 0 0 0;
#X restore 571 141 pd parse;
#X obj 425 188 s \$0-x;
#X obj 571 188 s \$0-y;
#X obj 425 164 maxlib/scale -1 1 0 144;
#X obj 571 164 maxlib/scale 1 -1 0 144;
#X obj 343 168 change;
#X obj 303 19 OSCroute /pitch /enveloppe /onset /trigger /x /y /rx
/ry;
#N canvas 0 22 129 175 parse 0;
#X obj 35 54 any2list;
#X obj 35 75 symbol2list;
#X obj 35 99 unpack f;
#X obj 35 25 inlet;
#X obj 35 126 outlet;
#X connect 0 0 1 0;
#X connect 1 0 2 0;
#X connect 2 0 4 0;
#X connect 3 0 0 0;
#X restore 719 140 pd parse;
#N canvas 0 22 129 175 parse 0;
#X obj 35 54 any2list;
#X obj 35 75 symbol2list;
#X obj 35 99 unpack f;
#X obj 35 25 inlet;
#X obj 35 126 outlet;
#X connect 0 0 1 0;
#X connect 1 0 2 0;
#X connect 2 0 4 0;
#X connect 3 0 0 0;
#X restore 911 136 pd parse;
#X obj 719 187 s \$0-rx;
#X obj 911 183 s \$0-ry;
#X obj 719 164 maxlib/scale -280 280 0 144;
#X obj 911 162 maxlib/scale -266.5 266.5 0 144;
#X floatatom 717 247 5 0 0 0 - - -;
#X floatatom 910 232 5 0 0 0 - - -;
#X obj 94 191 s \$0-pitchfromiqr;
#X obj 149 216 s \$0-enveloppefromiqr;
#X obj 214 167 s \$0-onsetfromiqr;
#X obj 81 29 dumpOSC 6000;
#X connect 0 0 17 0;
#X connect 1 0 6 0;
#X connect 1 0 26 0;
#X connect 2 0 1 0;
#X connect 3 0 4 0;
#X connect 3 0 27 0;
#X connect 5 0 28 0;
#X connect 6 0 7 0;
#X connect 8 0 16 0;
#X connect 10 0 14 0;
#X connect 11 0 15 0;
#X connect 14 0 12 0;
#X connect 15 0 13 0;
#X connect 16 0 9 0;
#X connect 17 0 2 0;
#X connect 17 1 3 0;
#X connect 17 2 5 0;
#X connect 17 3 8 0;
#X connect 17 4 10 0;
#X connect 17 5 11 0;
#X connect 17 6 18 0;
#X connect 17 7 19 0;
#X connect 18 0 22 0;
#X connect 19 0 23 0;
#X connect 22 0 20 0;
#X connect 22 0 24 0;
#X connect 23 0 21 0;
#X connect 23 0 25 0;
#X connect 29 0 0 0;
#X restore 670 71 pd fromIQR2PDport5000;
#X obj 522 434 r \$0-onset;
#X obj 522 456 bng 15 250 50 0 empty empty empty 0 -6 0 10 -262144
-1 -1;
#X obj 590 434 r \$0-enveloppe;
#X floatatom 590 456 5 0 0 0 - - -;
#X obj 671 223 s \$0-trigger;
#X msg 671 190 1;
#X msg 702 189 2;
#X msg 732 188 3;
#X msg 763 189 4;
#N canvas 0 22 383 348 copyright 0;
#X obj 188 179 image rePERcurso.gif;
#X obj 80 56 comment 0 14 Helvetica ? 0 0 128 128 Interactive Musical
Systems Design;
#X obj 81 69 comment 0 14 Helvetica ? 0 0 128 128 Real-time Sound Analysis/Synthesis
;
#X obj 130 82 comment 0 14 Helvetica ? 0 0 128 128 by Sylvain Le Groux
;
#X obj 32 302 comment 0 14 Helvetica ? 0 0 128 128 PD Realization:
(c) 2007 slegroux@iua.upf.edu;
#X obj 105 11 comment 196 20 Times ? 0 255 128 0 Re(PER)curso 2007
;
#X obj 92 38 comment 0 14 Helvetica ? 0 0 128 128 Composition by Jonatas
Manzolli;
#X restore -185 7 pd copyright;
#N canvas 0 22 458 308 sequencer 0;
#X obj 483 10 clock;
#X obj 269 35 sel 1 2 3 4;
#X msg 454 13 1;
#X msg 254 265 \; wind-onoff 1 \;;
#X msg 271 469 \; substractive-onoff 1 \;;
#X msg 416 470 \; wind-onoff 1 \;;
#X msg 508 470 \; additive-onoff 1 \;;
#X msg 241 9 1;
#X msg 271 9 2;
#X msg 299 8 3;
#X msg 332 9 4;
#X msg 506 266 \; voicesamplebank 1 \;;
#X obj 94 1 r \$0-scene;
#X msg 370 266 \; play-experience bang \;;
#X floatatom 94 20 5 0 0 0 - - -;
#X obj 142 22 bng 15 250 50 0 empty empty empty 0 -6 0 10 -262144 -1
-1;
#X obj 395 246 bng 15 250 50 0 empty empty empty 0 -6 0 10 -262144
-1 -1;
#X obj 325 234 bng 15 250 50 0 empty empty empty 0 -6 0 10 -262144
-1 -1;
#X obj 511 239 bng 15 250 50 0 empty empty empty 0 -6 0 10 -262144
-1 -1;
#X obj 94 338 t b b;
#X msg 121 360 \; sampler-onoff 0 \; spat-onoff 0 \; circle-spat-onoff
0 \; substractive-onoff 0 \; additive-onoff 0 \; wind-onoff 0 \; voicesamplebank
0 \;;
#X obj 254 233 delay 20000;
#X msg 115 742 \; substractive-onoff 0 \; wind-onoff 0 \; additive-onoff
0 \; spat-onoff 0 \; sampler-onoff 0 \; readsoundfile-onoff 0 \; spat-who
0 \;;
#X obj 184 62 s scene1-bang;
#X obj 94 158 r scene1-bang;
#X obj 270 62 s scene2-bang;
#X obj 94 315 r scene2-bang;
#X obj 354 62 s scene3-bang;
#X obj 441 62 s scene4-bang;
#X obj 254 156 r scene1-bang;
#X obj 370 153 r scene1-bang;
#X obj 505 154 r scene1-bang;
#X obj 270 365 r scene2-bang;
#X obj 415 362 r scene2-bang;
#X obj 508 360 r scene2-bang;
#X obj 594 11 clock;
#X msg 564 12 1;
#X obj 701 11 clock;
#X msg 674 13 1;
#X msg 94 182 \; sampler-onoff 1 \; spat-onoff 1 \; circle-spat-onoff
1 \; folhassamplebank bang \; substractive-onoff 1 \; additive-onoff
0 \; wind-onoff 0 \; spat-who 0 \;;
#X obj 98 67 loadbang;
#X msg 98 91 \; funk-volume -90 \;;
#X text 22 90 Initialize;
#X text 27 159 scene 1;
#X text 32 313 scene 2;
#X text 35 527 scene 3;
#X obj 281 444 bng 15 250 50 0 empty empty empty 0 -6 0 10 -262144
-1 -1;
#X obj 424 444 bng 15 250 50 0 empty empty empty 0 -6 0 10 -262144
-1 -1;
#X obj 517 447 bng 15 250 50 0 empty empty empty 0 -6 0 10 -262144
-1 -1;
#X obj 116 720 t b b;
#X obj 270 420 delay 15000;
#X obj 415 420 delay 25000;
#X obj 508 422 delay 70000;
#X text 50 695 scene 4;
#X obj 370 229 delay 30000;
#X obj 644 445 bng 15 250 50 0 empty empty empty 0 -6 0 10 -262144
-1 -1;
#X obj 634 360 r scene2-bang;
#X obj 634 421 delay 80000;
#X obj 116 697 r scene4-bang;
#X obj 93 527 r scene3-bang;
#X msg 635 470 \; substractive-onoff 0 \;;
#X obj 93 550 t b b;
#X msg 120 575 \; readsoundfile-onoff 0 \; spat-onoff 0 \; sampler-onoff
0 \; spat-who 0 \; substractive-onoff 0 \; additive-onoff 0 \; wind-onoff
0 \;;
#X obj 505 211 delay 35000;
#X msg 95 475 \; readsoundfile-onoff 1 \; spat-onoff 1 \;;
#X msg 267 579 \; readsoundtrack-onoff 1 \; sampler-onoff 1 \; spat-who
1 \; spat-onoff 1 \; behaviorsamplebank bang \;;
#X msg 263 746 \; funk-onoff 1 \; funk-volume -10 \;;
#X msg 20 200 \; funk-volume -90 \;;
#X msg 319 826 \; readsoundtrack-onoff 0 \;;
#X connect 1 0 2 0;
#X connect 1 0 23 0;
#X connect 1 1 25 0;
#X connect 1 1 36 0;
#X connect 1 2 27 0;
#X connect 1 2 38 0;
#X connect 1 3 28 0;
#X connect 2 0 0 0;
#X connect 7 0 1 0;
#X connect 8 0 1 0;
#X connect 9 0 1 0;
#X connect 10 0 1 0;
#X connect 12 0 14 0;
#X connect 12 0 1 0;
#X connect 14 0 15 0;
#X connect 19 0 64 0;
#X connect 19 1 20 0;
#X connect 21 0 3 0;
#X connect 21 0 17 0;
#X connect 24 0 39 0;
#X connect 24 0 67 0;
#X connect 26 0 19 0;
#X connect 29 0 21 0;
#X connect 30 0 54 0;
#X connect 31 0 63 0;
#X connect 32 0 50 0;
#X connect 33 0 51 0;
#X connect 34 0 52 0;
#X connect 36 0 35 0;
#X connect 38 0 37 0;
#X connect 40 0 41 0;
#X connect 49 0 66 0;
#X connect 49 1 22 0;
#X connect 49 1 68 0;
#X connect 50 0 4 0;
#X connect 50 0 46 0;
#X connect 51 0 5 0;
#X connect 51 0 47 0;
#X connect 52 0 6 0;
#X connect 52 0 48 0;
#X connect 54 0 13 0;
#X connect 54 0 16 0;
#X connect 56 0 57 0;
#X connect 57 0 60 0;
#X connect 57 0 55 0;
#X connect 58 0 49 0;
#X connect 59 0 61 0;
#X connect 61 0 65 0;
#X connect 61 1 62 0;
#X connect 63 0 11 0;
#X connect 63 0 18 0;
#X restore 546 51 pd sequencer;
#X obj 300 208 slg.gain1-6out~;
#X obj 300 186 catch~ 1->6;
#X obj 309 206 comment 0 14 Helvetica ? 0 0 128 128 SoundTracks;
#X obj 141 253 slg.gain1-1~;
#X obj -188 253 slg.gain1-1~;
#X obj -76 255 slg.gain1-1~;
#X obj 33 255 slg.gain1-1~;
#X text 309 167 comment;
#X obj -207 492 slg.rvbap1-4~;
#N canvas 0 22 659 628 circle-spat 0;
#X obj 101 101 cnv 15 100 60 empty empty empty 20 12 0 14 -233017 -66577
0;
#X obj 57 378 cos;
#X floatatom 135 330 5 0 0 0 - - -;
#X obj 58 400 maxlib/scale -1 1 0 144;
#X obj 207 380 sin;
#X obj 208 401 maxlib/scale -1 1 0 144;
#X obj 110 118 tgl 15 0 empty empty empty 0 -6 0 10 -262144 -1 -1 0
1;
#X floatatom 135 268 0 0 0 0 - - -;
#X obj 135 308 * 6.28319;
#X obj 135 288 / 360;
#X obj 138 226 cyclone/counter 0 360;
#X floatatom 140 118 6 0 0 0 - - -;
#X obj 139 200 metro 1;
#X obj 190 178 / 360;
#X obj 289 111 loadbang;
#X msg 289 133 5000;
#X obj 58 428 outlet;
#X obj 209 433 outlet;
#X obj 147 67 inlet;
#X obj 53 -44 inlet;
#X obj 218 -8 line;
#X msg 267 44 70;
#X msg 301 44 70;
#X obj 267 24 bng 15 250 50 0 empty empty empty 0 -6 0 10 -262144 -1
-1;
#X msg 248 -44 0 \, 60000 10000;
#X obj 207 -78 sel 1 0;
#X msg 277 0 0;
#X msg 141 -17 1;
#X obj 270 -19 delay 9000;
#X msg 140 -44 80000 \, 0 75000;
#X connect 1 0 3 0;
#X connect 2 0 1 0;
#X connect 2 0 4 0;
#X connect 3 0 16 0;
#X connect 4 0 5 0;
#X connect 5 0 17 0;
#X connect 6 0 12 0;
#X connect 7 0 9 0;
#X connect 8 0 2 0;
#X connect 9 0 8 0;
#X connect 10 0 7 0;
#X connect 11 0 13 0;
#X connect 12 0 10 0;
#X connect 13 0 12 1;
#X connect 14 0 15 0;
#X connect 15 0 11 0;
#X connect 18 0 11 0;
#X connect 19 0 25 0;
#X connect 20 0 11 0;
#X connect 21 0 16 0;
#X connect 22 0 17 0;
#X connect 23 0 21 0;
#X connect 23 0 22 0;
#X connect 24 0 20 0;
#X connect 25 0 29 0;
#X connect 25 0 27 0;
#X connect 25 1 24 0;
#X connect 25 1 28 0;
#X connect 26 0 6 0;
#X connect 27 0 6 0;
#X connect 28 0 26 0;
#X connect 28 0 23 0;
#X connect 29 0 20 0;
#X coords 0 -1 1 1 102 62 1 100 100;
#X restore -17 524 pd circle-spat;
#X obj -33 465 r spat-onoff;
#X obj -17 502 r circle-spat-onoff;
#N canvas 0 22 404 278 spat 0;
#X obj 67 -52 r \$0-x;
#X obj 168 -50 r \$0-y;
#X obj 112 -52 r \$0-rx;
#X obj 216 -51 r \$0-ry;
#X msg 300 57 1;
#X msg 328 57 2;
#X obj 267 -50 inlet;
#X obj 235 132 switch 2;
#X obj 77 104 switch 2;
#X obj 267 30 sel 0 1 2;
#X msg 268 56 0;
#X obj 77 130 outlet;
#X obj 235 158 outlet;
#X connect 0 0 8 1;
#X connect 1 0 7 1;
#X connect 2 0 8 2;
#X connect 3 0 7 2;
#X connect 4 0 7 0;
#X connect 4 0 8 0;
#X connect 5 0 7 0;
#X connect 5 0 8 0;
#X connect 6 0 9 0;
#X connect 7 0 12 0;
#X connect 8 0 11 0;
#X connect 9 0 10 0;
#X connect 9 1 4 0;
#X connect 9 2 5 0;
#X connect 10 0 8 0;
#X connect 10 0 7 0;
#X restore 143 552 pd spat;
#X obj 143 529 hradio 20 1 0 3 empty empty empty 0 -6 0 10 -4034 -1
-1 0;
#X obj 143 506 r spat-who;
#X obj -206 466 catch~ spat;
#X text 209 529 manual/avatar/room;
#X obj -134 466 r spatx;
#X obj -85 466 r spaty;
#X obj -17 589 s spatx;
#X obj 78 590 s spaty;
#X obj 143 578 s spatx;
#X obj 192 578 s spaty;
#X floatatom 55 465 5 0 0 0 - - -;
#X connect 2 0 40 0;
#X connect 4 0 0 1;
#X connect 5 0 39 0;
#X connect 5 1 39 0;
#X connect 5 2 39 0;
#X connect 5 3 39 0;
#X connect 5 4 39 0;
#X connect 5 5 39 0;
#X connect 9 0 3 0;
#X connect 10 0 41 0;
#X connect 11 0 38 0;
#X connect 12 0 13 0;
#X connect 13 0 6 0;
#X connect 19 0 18 0;
#X connect 24 0 25 0;
#X connect 26 0 27 0;
#X connect 29 0 28 0;
#X connect 30 0 28 0;
#X connect 31 0 28 0;
#X connect 32 0 28 0;
#X connect 36 0 35 0;
#X connect 38 0 0 0;
#X connect 39 0 0 0;
#X connect 40 0 0 0;
#X connect 41 0 0 0;
#X connect 44 0 54 0;
#X connect 44 1 55 0;
#X connect 45 0 43 4;
#X connect 46 0 44 0;
#X connect 47 0 56 0;
#X connect 47 1 57 0;
#X connect 48 0 47 0;
#X connect 49 0 48 0;
#X connect 50 0 43 0;
#X connect 52 0 43 1;
#X connect 53 0 43 2;
#X connect 58 0 43 2;
