#N canvas 58 32 1181 832 10;
#X obj 334 95 slg.rvbap1-4~;
#X obj 391 392 throw~ c2;
#X obj 449 392 throw~ c3;
#X obj 507 392 throw~ c4;
#X obj 334 392 throw~ c1;
#N canvas 58 28 1012 289 fromIQRtoPD 0;
#X obj 83 57 OSCroute /repercusosynth;
#X obj 85 196 s \$0-pitch;
#X obj 150 221 s \$0-enveloppe;
#X obj 215 172 s \$0-onset;
#X floatatom 85 175 5 0 0 0 - - -;
#N canvas 0 22 129 175 parse 0;
#X obj 35 54 any2list;
#X obj 35 75 symbol2list;
#X obj 35 99 unpack f;
#X obj 35 25 inlet;
#X obj 35 126 outlet;
#X connect 0 0 1 0;
#X connect 1 0 2 0;
#X connect 2 0 4 0;
#X connect 3 0 0 0;
#X restore 85 152 pd parse;
#N canvas 0 22 129 175 parse 0;
#X obj 35 54 any2list;
#X obj 35 75 symbol2list;
#X obj 35 99 unpack f;
#X obj 35 25 inlet;
#X obj 35 126 outlet;
#X connect 0 0 1 0;
#X connect 1 0 2 0;
#X connect 2 0 4 0;
#X connect 3 0 0 0;
#X restore 150 151 pd parse;
#X floatatom 167 177 5 0 0 0 - - -;
#N canvas 0 22 129 175 parse 0;
#X obj 35 54 any2list;
#X obj 35 75 symbol2list;
#X obj 35 99 unpack f;
#X obj 35 25 inlet;
#X obj 35 126 outlet;
#X connect 0 0 1 0;
#X connect 1 0 2 0;
#X connect 2 0 4 0;
#X connect 3 0 0 0;
#X restore 215 148 pd parse;
#X obj 85 225 delta;
#X floatatom 85 248 5 0 0 0 - - -;
#N canvas 0 22 129 175 parse 0;
#X obj 35 54 any2list;
#X obj 35 75 symbol2list;
#X obj 35 99 unpack f;
#X obj 35 25 inlet;
#X obj 35 126 outlet;
#X connect 0 0 1 0;
#X connect 1 0 2 0;
#X connect 2 0 4 0;
#X connect 3 0 0 0;
#X restore 298 149 pd parse;
#X obj 298 192 s \$0-trigger;
#X obj 83 34 dumpOSC 3000;
#N canvas 0 22 129 175 parse 0;
#X obj 35 54 any2list;
#X obj 35 75 symbol2list;
#X obj 35 99 unpack f;
#X obj 35 25 inlet;
#X obj 35 126 outlet;
#X connect 0 0 1 0;
#X connect 1 0 2 0;
#X connect 2 0 4 0;
#X connect 3 0 0 0;
#X restore 380 144 pd parse;
#N canvas 0 22 129 175 parse 0;
#X obj 35 54 any2list;
#X obj 35 75 symbol2list;
#X obj 35 99 unpack f;
#X obj 35 25 inlet;
#X obj 35 126 outlet;
#X connect 0 0 1 0;
#X connect 1 0 2 0;
#X connect 2 0 4 0;
#X connect 3 0 0 0;
#X restore 526 146 pd parse;
#X obj 380 193 s \$0-x;
#X obj 526 193 s \$0-y;
#X obj 380 169 maxlib/scale -1 1 0 144;
#X obj 526 169 maxlib/scale 1 -1 0 144;
#X obj 298 171 change;
#X obj 304 24 OSCroute /pitch /enveloppe /onset /trigger /x /y /rx
/ry;
#N canvas 0 22 129 175 parse 0;
#X obj 35 54 any2list;
#X obj 35 75 symbol2list;
#X obj 35 99 unpack f;
#X obj 35 25 inlet;
#X obj 35 126 outlet;
#X connect 0 0 1 0;
#X connect 1 0 2 0;
#X connect 2 0 4 0;
#X connect 3 0 0 0;
#X restore 674 145 pd parse;
#N canvas 0 22 129 175 parse 0;
#X obj 35 54 any2list;
#X obj 35 75 symbol2list;
#X obj 35 99 unpack f;
#X obj 35 25 inlet;
#X obj 35 126 outlet;
#X connect 0 0 1 0;
#X connect 1 0 2 0;
#X connect 2 0 4 0;
#X connect 3 0 0 0;
#X restore 820 144 pd parse;
#X obj 674 169 maxlib/scale 0 20 0 144;
#X obj 820 170 maxlib/scale 20 0 0 144;
#X obj 674 192 s \$0-rx;
#X obj 820 191 s \$0-ry;
#X connect 0 0 21 0;
#X connect 4 0 1 0;
#X connect 4 0 9 0;
#X connect 5 0 4 0;
#X connect 6 0 7 0;
#X connect 6 0 2 0;
#X connect 8 0 3 0;
#X connect 9 0 10 0;
#X connect 11 0 20 0;
#X connect 13 0 0 0;
#X connect 14 0 18 0;
#X connect 15 0 19 0;
#X connect 18 0 16 0;
#X connect 19 0 17 0;
#X connect 20 0 12 0;
#X connect 21 0 5 0;
#X connect 21 1 6 0;
#X connect 21 2 8 0;
#X connect 21 3 11 0;
#X connect 21 4 14 0;
#X connect 21 5 15 0;
#X connect 21 6 22 0;
#X connect 21 7 23 0;
#X connect 22 0 24 0;
#X connect 23 0 25 0;
#X connect 24 0 26 0;
#X connect 25 0 27 0;
#X restore 787 67 pd fromIQRtoPD;
#X obj 785 24 comment 0 20 Times ? 0 255 128 0 From iqr;
#X obj 787 47 comment 0 14 Helvetica ? 0 0 128 128 via sendOSC;
#X obj -138 7 comment 0 20 Times ? 0 255 128 0 PD-REPERCURSO 2007;
#X obj -128 61 slg.midimonitor;
#X obj -59 503 slg.dafxreverb~;
#X obj 14 731 throw~ c2;
#X obj 14 753 throw~ c3;
#X obj 14 775 throw~ c4;
#X obj 15 710 throw~ c1;
#X obj -130 281 slg.audioonoff;
#X obj 391 71 r \$0-x;
#X obj 449 71 r \$0-y;
#X obj 157 47 slg.loadsample~;
#X obj 502 71 r \$0-rx;
#X obj 560 71 r \$0-ry;
#N canvas 822 43 443 402 OUTPUTS 1;
#X obj 22 7 slg.multiout8~;
#X restore 324 515 pd OUTPUTS;
#N canvas 874 316 167 272 SPATIALIZATION 1;
#X obj 97 72 slg.rvbap1-4~;
#X obj 154 34 r \$0-x;
#X obj 212 34 r \$0-y;
#X obj 276 33 r \$0-rx;
#X obj 334 33 r \$0-ry;
#X obj 155 377 throw~ c2;
#X obj 213 377 throw~ c3;
#X obj 272 377 throw~ c4;
#X obj 97 377 throw~ c1;
#X obj 97 34 inlet~;
#X connect 0 0 8 0;
#X connect 0 1 5 0;
#X connect 0 2 6 0;
#X connect 0 3 7 0;
#X connect 1 0 0 1;
#X connect 2 0 0 2;
#X connect 9 0 0 0;
#X restore 324 492 pd SPATIALIZATION;
#N canvas 240 452 720 79 SOUNDTRACK 1;
#X obj 30 -4 r \$0-trigger;
#X floatatom 103 20 5 0 0 0 - - -;
#X obj 30 18 sel 1 2 3 4;
#X obj 136 19 bng 15 250 50 0 empty empty empty 0 -6 0 10 -262144 -1
-1;
#X obj 8 54 slg.loadsoundfile~;
#X obj 157 229 slg.gain4~ ______________________;
#X obj 640 56 vsl 20 50 -99 18 0 1 empty empty empty 0 -7 0 8 -260818
-1 -1 4900 1;
#X obj 639 105 nbx 3 10 -1e+37 1e+37 0 0 empty empty empty 0 -6 0 10
-257985 -1 -1 2.33858 256;
#X obj 222 254 throw~ c2;
#X obj 287 254 throw~ c3;
#X obj 352 253 throw~ c4;
#X obj 157 253 throw~ c1;
#X obj 171 54 slg.loadsoundfile~;
#X obj 332 54 slg.loadsoundfile~;
#X obj 489 54 slg.loadsoundfile~;
#X connect 0 0 1 0;
#X connect 0 0 2 0;
#X connect 1 0 3 0;
#X connect 2 0 4 0;
#X connect 2 1 12 0;
#X connect 2 2 13 0;
#X connect 2 3 14 0;
#X connect 4 0 5 0;
#X connect 5 0 11 0;
#X connect 5 1 8 0;
#X connect 5 2 9 0;
#X connect 5 3 10 0;
#X connect 6 0 7 0;
#X connect 6 0 5 4;
#X connect 12 0 5 1;
#X connect 13 0 5 2;
#X connect 14 0 5 3;
#X restore 324 464 pd SOUNDTRACK;
#X obj 157 97 slg.loadsoundfile~;
#X connect 0 0 4 0;
#X connect 0 1 1 0;
#X connect 0 2 2 0;
#X connect 0 3 3 0;
#X connect 16 0 0 1;
#X connect 17 0 0 2;
#X connect 18 0 0 0;
#X connect 24 0 0 0;
