#N struct 1757preview float x float y float p float h;
#N canvas 88 133 1130 503 10;
#X obj 12 240 sample.bank inside;
#X msg 12 83 0 data/wav/autodemo/inside/2_1_intro.wav;
#X msg 34 266 inside 0;
#X obj 34 313 sample.display_;
#X obj 385 277 sample.play~;
#X obj 385 301 ezdac~;
#X msg 427 250 1;
#X msg 454 250 0;
#X msg 481 250 -1;
#X msg 24 105 1 data/wav/autodemo/inside/2_2_sensing.wav;
#X msg 34 128 2 data/wav/autodemo/inside/2_3_floor.wav;
#X msg 43 149 3 data/wav/autodemo/inside/2_4_fingers.wav;
#X msg 50 171 4 data/wav/autodemo/inside/2_5_roboser.wav;
#X msg 59 192 5 data/wav/autodemo/inside/2_6_interaction.wav;
#X msg 311 19 write data/banks/inside.bank.coll;
#X msg 333 50 read data/banks/inside.bank.coll;
#X obj 34 289 sample.r inside;
#X msg 94 266 inside 2;
#X obj 244 237 t b b;
#X obj 244 214 bng 15 250 50 0 empty empty empty 0 -6 0 10 -262144
-1 -1;
#X obj 424 187 sample.bank intro;
#X msg 424 161 0 data/wav/autodemo/intro/1_1_welcome.wav;
#X obj 703 208 sample.bank outside;
#X msg 703 38 0 data/wav/autodemo/outside/3_1_intro_PVC.wav;
#X msg 721 58 1 data/wav/autodemo/outside/3_2_flying.wav;
#X msg 740 102 3 data/wav/autodemo/outside/3_4_intro_interaction.wav
;
#X msg 747 124 4 data/wav/autodemo/outside/3_5_pong_explained.wav;
#X msg 756 145 5 data/wav/autodemo/outside/3_6_farewell.wav;
#X msg 731 81 2 data/wav/autodemo/outside/3_3_videos.wav;
#X msg 834 188 write data/banks/outside.bank.coll;
#X msg 856 219 read data/banks/outside.bank.coll;
#X msg 455 100 write data/banks/intro.bank.coll;
#X msg 466 127 read data/banks/intro.bank.coll;
#X connect 1 0 0 0;
#X connect 2 0 16 0;
#X connect 4 0 5 0;
#X connect 4 1 5 1;
#X connect 6 0 4 1;
#X connect 7 0 4 1;
#X connect 8 0 4 1;
#X connect 9 0 0 0;
#X connect 10 0 0 0;
#X connect 11 0 0 0;
#X connect 12 0 0 0;
#X connect 13 0 0 0;
#X connect 14 0 0 0;
#X connect 15 0 0 0;
#X connect 16 0 3 0;
#X connect 16 0 4 0;
#X connect 17 0 16 0;
#X connect 18 0 6 0;
#X connect 18 1 17 0;
#X connect 19 0 18 0;
#X connect 21 0 20 0;
#X connect 23 0 22 0;
#X connect 24 0 22 0;
#X connect 26 0 22 0;
#X connect 27 0 22 0;
#X connect 28 0 22 0;
#X connect 29 0 22 0;
#X connect 30 0 22 0;
#X connect 31 0 20 0;
#X connect 32 0 20 0;
