#N canvas 373 35 1067 788 10;
#X declare -lib vbap;
#X obj 785 578 slg.audioonoff;
#X obj 785 645 slg.cpu;
#N canvas 0 22 286 102 (c) 0;
#X obj 8 66 print using;
#X obj 8 6 loadbang;
#X msg 8 31 slg.autodemo1107 (c) 2007 Sylvain Le Groux <slegroux@iua.upf.edu>
;
#X connect 1 0 2 0;
#X connect 2 0 0 0;
#X restore 485 6 pd (c);
#X text 530 5 (c) 2008 Sylvain Le Groux;
#X obj 220 9 comment 196 20 Times ? 0 255 128 0 THE MUSIC ENGINE;
#X obj 24 583 slg.master2~;
#X text 38 710 Master;
#X text 337 714 Textures;
#X text 159 712 Music;
#X text 243 712 Rhythm;
#X obj 25 408 comment 196 20 Times ? 0 255 128 0 Samplers;
#X obj 228 563 catch~ rhythmL;
#X obj 228 563 catch~ rhythmR;
#X obj 138 563 catch~ musicL;
#X obj 138 563 catch~ musicR;
#X obj 323 563 catch~ textureL;
#X obj 323 563 catch~ textureR;
#X obj 23 523 comment 103 20 Times ? 0 255 128 0 Mixing;
#N canvas 39 425 697 311 interaction 0;
#X obj 46 70 r section1;
#X obj 146 69 r section2;
#X obj 221 69 r section3;
#X obj 357 69 r int26;
#X obj 463 70 loadbang;
#X msg 463 92 1;
#X obj 32 15 loadbang;
#X obj 376 95 tgl 15 0 empty empty empty 0 -6 0 10 -262144 -1 -1 0
1;
#X floatatom 31 106 5 0 0 0 - - -;
#X floatatom 142 96 5 0 0 0 - - -;
#X floatatom 220 94 5 0 0 0 - - -;
#X floatatom 393 97 5 0 0 0 - - -;
#X obj 240 12 loadbang;
#X obj 445 12 loadbang;
#X obj 201 214 throw~ loopsL;
#X obj 295 215 throw~ loopsR;
#X msg 32 37 autodemo/data/wav/loops/bass.wav;
#X msg 240 36 autodemo/data/wav/loops/drum.wav;
#X msg 445 35 autodemo/data/wav/loops/piano.wav;
#X obj 357 134 slg.loadsample~;
#X obj 42 134 slg.loadsample~;
#X obj 200 134 slg.loadsample~;
#X connect 0 0 8 0;
#X connect 0 0 20 2;
#X connect 1 0 9 0;
#X connect 1 0 21 2;
#X connect 2 0 10 0;
#X connect 2 0 19 2;
#X connect 3 0 11 0;
#X connect 3 0 19 0;
#X connect 3 0 20 0;
#X connect 3 0 21 0;
#X connect 4 0 5 0;
#X connect 5 0 19 3;
#X connect 5 0 20 3;
#X connect 5 0 21 3;
#X connect 6 0 16 0;
#X connect 7 0 19 0;
#X connect 7 0 20 0;
#X connect 7 0 21 0;
#X connect 12 0 17 0;
#X connect 13 0 18 0;
#X connect 16 0 20 1;
#X connect 17 0 21 1;
#X connect 18 0 19 1;
#X connect 19 0 14 0;
#X connect 19 0 15 0;
#X connect 20 0 14 0;
#X connect 20 0 15 0;
#X connect 21 0 14 0;
#X connect 21 0 15 0;
#X coords 0 0 1 1 85 60 0;
#X restore 144 463 pd interaction;
#N canvas 14 52 747 613 welcome-samples 0;
#X obj 87 37 loadbang;
#X obj 52 16 r happy-onoff;
#X obj 82 208 loadbang;
#X obj 47 187 r happytechno-onoff;
#X obj 318 196 loadbang;
#X msg 318 223 1;
#X obj 413 214 loadbang;
#X obj 625 169 loadbang;
#X msg 625 192 1;
#X obj 378 193 r happysynth-onoff;
#X obj 128 401 loadbang;
#X obj 363 384 loadbang;
#X msg 395 432 1;
#X obj 93 380 r sense-onoff;
#X msg 363 432 0.5;
#X msg 82 229 autodemo/data/wav/loops/happytechno.aif;
#X msg 413 238 autodemo/data/wav/loops/happysynth.wav;
#X msg 87 58 autodemo/data/wav/loops/tema14.wav;
#X msg 128 422 autodemo/data/wav/loops/sense.wav;
#X obj 52 155 throw~ loopsL;
#X obj 147 155 throw~ loopsR;
#X obj 47 326 throw~ loopsL;
#X obj 143 326 throw~ loopsR;
#X obj 378 332 throw~ loopsL;
#X obj 472 332 throw~ loopsR;
#X obj 93 519 throw~ loopsL;
#X obj 187 519 throw~ loopsR;
#X obj 52 85 slg.loadsample~;
#X obj 47 256 slg.loadsample~;
#X obj 378 262 slg.loadsample~;
#X obj 93 465 slg.loadsample~;
#X obj 29 378 tgl 15 0 empty empty empty 0 -6 0 10 -262144 -1 -1 0
1;
#X obj 236 377 r sense-volume;
#X connect 0 0 17 0;
#X connect 1 0 27 0;
#X connect 2 0 15 0;
#X connect 3 0 28 0;
#X connect 4 0 5 0;
#X connect 5 0 28 3;
#X connect 6 0 16 0;
#X connect 7 0 8 0;
#X connect 8 0 29 3;
#X connect 9 0 29 0;
#X connect 10 0 18 0;
#X connect 11 0 12 0;
#X connect 11 0 14 0;
#X connect 13 0 30 0;
#X connect 14 0 30 2;
#X connect 15 0 28 1;
#X connect 16 0 29 1;
#X connect 17 0 27 1;
#X connect 18 0 30 1;
#X connect 27 0 19 0;
#X connect 27 0 20 0;
#X connect 28 0 21 0;
#X connect 28 0 22 0;
#X connect 29 0 23 0;
#X connect 29 0 24 0;
#X connect 30 0 25 0;
#X connect 30 0 26 0;
#X connect 32 0 30 2;
#X restore 25 485 pd welcome-samples;
#N canvas 566 22 327 194 track 0;
#X obj 23 74 slg.loadsoundfile~;
#X obj 23 48 r readsoundfile-onoff;
#N canvas 316 160 763 487 autoloadsndfile 0;
#X obj 277 252 loadbang;
#X obj 277 302 outlet;
#X msg 277 278 autodemo/data/wav/soundtrack/4-epilogueCut.wav;
#X connect 0 0 2 0;
#X connect 2 0 1 0;
#X restore 94 24 pd autoloadsndfile;
#X obj 166 49 r readsoundfile-volume;
#X obj 23 147 throw~ trackL;
#X obj 166 145 throw~ trackR;
#X obj 241 16 loadbang;
#X msg 241 77 80;
#X connect 0 0 4 0;
#X connect 0 1 5 0;
#X connect 1 0 0 0;
#X connect 2 0 0 1;
#X connect 3 0 0 2;
#X connect 6 0 7 0;
#X connect 7 0 0 2;
#X restore 144 439 pd track;
#X text 435 713 Voice Over;
#X obj 425 563 catch~ voiceR;
#X obj 425 563 catch~ voiceL;
#X obj 525 563 catch~ sfxL;
#X obj 525 563 catch~ sfxR;
#X text 523 714 Sound Effects;
#N canvas 89 165 1076 527 soundfx 0;
#X obj 505 277 sample.play~;
#X obj 104 103 sample.display_;
#X obj 104 196 sample.bounds_;
#X obj 104 249 sample.adsr_;
#X msg 574 109 60 127;
#X obj 574 160 midi.note.close;
#X msg 585 -44 0;
#X obj 730 243 sample.bank garden;
#X obj 505 304 throw~ sfxL;
#X obj 598 304 throw~ sfxR;
#X obj 530 342 tgl 15 0 empty empty empty 0 -6 0 10 -262144 -1 -1 0
1;
#X obj 530 363 gate;
#X msg 730 212 read data/banks/garden.bank.coll;
#X msg 788 157 write data/banks/garden.bank.coll;
#X obj 585 -21 s garden;
#X msg 617 -43 1;
#X obj 728 175 loadbang;
#X msg 788 107 0 data/wav/sfx/nature/garden.wav;
#X msg 788 132 1 data/wav/sfx/nature/walkingforest.wav;
#X obj 585 -93 r birdy-onoff;
#X obj 585 -69 sel 1;
#X obj 768 287 sample.bank welcome;
#X obj 458 -42 t b f;
#X obj 407 -64 route off;
#X obj 407 -87 r garden;
#X msg 625 110 60 0;
#X msg 485 4 garden \$1;
#X obj 728 354 sample.bank pong;
#X obj 796 -51 t b f;
#X obj 745 -73 route off;
#X obj 745 -96 r pong;
#X msg 823 -2 pong \$1;
#X obj 823 -26 - 1;
#X obj 104 78 sample.r;
#X msg 728 330 read data/banks/pong.bank.coll;
#X connect 0 0 8 0;
#X connect 0 1 9 0;
#X connect 0 2 11 1;
#X connect 1 0 2 0;
#X connect 2 0 3 0;
#X connect 3 0 0 0;
#X connect 4 0 5 0;
#X connect 5 0 0 1;
#X connect 6 0 14 0;
#X connect 10 0 11 0;
#X connect 12 0 7 0;
#X connect 13 0 7 0;
#X connect 15 0 14 0;
#X connect 16 0 12 0;
#X connect 16 0 34 0;
#X connect 17 0 7 0;
#X connect 18 0 7 0;
#X connect 19 0 20 0;
#X connect 20 0 6 0;
#X connect 22 0 4 0;
#X connect 22 1 26 0;
#X connect 23 0 25 0;
#X connect 23 1 22 0;
#X connect 24 0 23 0;
#X connect 25 0 5 0;
#X connect 26 0 33 0;
#X connect 28 0 4 0;
#X connect 28 1 32 0;
#X connect 29 0 25 0;
#X connect 29 1 28 0;
#X connect 30 0 29 0;
#X connect 31 0 33 0;
#X connect 32 0 31 0;
#X connect 33 0 1 0;
#X connect 34 0 27 0;
#X coords 0 0 1 1 310 90 0;
#X restore 25 461 pd soundfx;
#X text 615 713 Sound Track;
#X obj 608 563 catch~ trackR;
#X obj 608 563 catch~ trackL;
#X obj 697 563 catch~ loopsL;
#X obj 697 563 catch~ loopsR;
#X text 723 710 Loops;
#N canvas 113 427 1165 339 test-samples 0;
#X msg 14 118 0;
#X msg 11 38 0;
#X obj 11 61 s welcome-onoff;
#X obj 14 141 s awasample;
#X text 9 19 INTRO;
#X text 12 87 INSIDE;
#X text 47 101 intro;
#X text 84 101 sense;
#X text 120 102 floor;
#X text 153 103 light;
#X text 186 103 robbie;
#X text 223 103 inter;
#X msg 49 118 1;
#X msg 85 119 2;
#X msg 119 120 3;
#X msg 152 121 4;
#X msg 189 120 5;
#X text 12 166 OUTSIDE;
#X msg 14 198 0;
#X text 51 179 intro;
#X msg 49 198 1;
#X msg 85 199 2;
#X msg 119 200 3;
#X msg 152 201 4;
#X msg 186 201 5;
#X obj 14 221 s outside;
#X text 85 181 fly;
#X text 119 182 video;
#X text 154 183 inter;
#X text 187 183 pong;
#X text 217 183 farewell;
#X msg 285 53 0;
#X obj 285 76 s garden;
#X msg 317 54 1;
#X text 9 4 -----VOICE OVER-----;
#X text 257 9 ---SOUNDFX----;
#X text 281 21 bird;
#X text 373 9 ----SOUNDTRACK----;
#X obj 373 51 s readsoundfile-onoff;
#X obj 373 30 tgl 15 0 empty empty empty 0 -6 0 10 -262144 -1 -1 0
1;
#X floatatom 373 72 5 0 0 0 - - -;
#X obj 373 90 s readsounfile-volume;
#X text 520 5 ----INTERACTION----;
#X obj 520 46 s int26;
#X obj 520 92 s section1;
#X obj 587 91 s section2;
#X obj 654 91 s section3;
#X floatatom 520 72 5 0 0 0 - - -;
#X floatatom 587 71 5 0 0 0 - - -;
#X floatatom 654 72 5 0 0 0 - - -;
#X obj 520 25 tgl 15 0 empty empty empty 0 -6 0 10 -262144 -1 -1 0
1;
#X msg 45 37 off;
#X text 288 32 walk forest;
#X msg 254 53 off;
#X msg 244 120 off;
#X msg 252 202 off;
#X text 268 123 ----WELCOME SAMPLES----;
#X obj 287 166 s happy-onoff;
#X obj 287 206 s happytechno-onoff;
#X obj 288 247 s sense-onoff;
#X obj 289 288 s happysynth-onoff;
#X obj 287 146 tgl 15 0 empty empty empty 0 -6 0 10 -262144 -1 -1 0
1;
#X obj 287 187 tgl 15 0 empty empty empty 0 -6 0 10 -262144 -1 -1 0
1;
#X obj 288 226 tgl 15 0 empty empty empty 0 -6 0 10 -262144 -1 -1 0
1;
#X obj 289 268 tgl 15 0 empty empty empty 0 -6 0 10 -262144 -1 -1 0
1;
#X msg 219 120;
#X text 479 132 --- PONG ---;
#X text 486 154 intro;
#X msg 480 174 1;
#X msg 516 175 2;
#X msg 550 176 3;
#X msg 583 177 4;
#X msg 617 177 5;
#X text 523 154 fly;
#X text 557 155 video;
#X text 592 156 inter;
#X text 625 156 pong;
#X text 655 156 farewell;
#X msg 1110 178 off;
#X obj 817 251 s pong;
#X msg 653 177 6;
#X msg 686 177 7;
#X msg 722 177 8;
#X msg 753 177 9;
#X msg 786 176 10;
#X msg 843 178 12;
#X msg 877 179 13;
#X msg 910 180 14;
#X msg 944 180 15;
#X msg 980 180 16;
#X msg 1013 180 17;
#X msg 1049 180 18;
#X msg 1080 180 19;
#X msg 814 177 11;
#X msg 222 201 6;
#X connect 0 0 3 0;
#X connect 1 0 2 0;
#X connect 12 0 3 0;
#X connect 13 0 3 0;
#X connect 14 0 3 0;
#X connect 15 0 3 0;
#X connect 16 0 3 0;
#X connect 18 0 25 0;
#X connect 20 0 25 0;
#X connect 21 0 25 0;
#X connect 22 0 25 0;
#X connect 23 0 25 0;
#X connect 24 0 25 0;
#X connect 31 0 32 0;
#X connect 33 0 32 0;
#X connect 39 0 38 0;
#X connect 40 0 41 0;
#X connect 47 0 44 0;
#X connect 48 0 45 0;
#X connect 49 0 46 0;
#X connect 50 0 43 0;
#X connect 51 0 2 0;
#X connect 53 0 32 0;
#X connect 54 0 3 0;
#X connect 55 0 25 0;
#X connect 61 0 57 0;
#X connect 62 0 58 0;
#X connect 63 0 59 0;
#X connect 64 0 60 0;
#X connect 65 0 3 0;
#X connect 68 0 79 0;
#X connect 69 0 79 0;
#X connect 70 0 79 0;
#X connect 71 0 79 0;
#X connect 72 0 79 0;
#X connect 78 0 79 0;
#X connect 80 0 79 0;
#X connect 81 0 79 0;
#X connect 82 0 79 0;
#X connect 83 0 79 0;
#X connect 84 0 79 0;
#X connect 85 0 79 0;
#X connect 86 0 79 0;
#X connect 87 0 79 0;
#X connect 88 0 79 0;
#X connect 89 0 79 0;
#X connect 90 0 79 0;
#X connect 91 0 79 0;
#X connect 92 0 79 0;
#X connect 93 0 79 0;
#X connect 94 0 25 0;
#X restore 144 487 pd test-samples;
#X obj 340 65 comment 196 20 Times ? 0 255 128 0 Pitch;
#N canvas 338 493 672 411 spat 0;
#X obj 1 -173 slg.rvbap1-4~;
#X obj 1 -193 catch~ spat;
#N canvas 688 367 518 561 circle-spat 0;
#X obj 101 101 cnv 15 100 60 empty empty empty 20 12 0 14 -233017 -66577
0;
#X obj 110 369 cos;
#X floatatom 110 336 5 0 0 0 - - -;
#X obj 110 390 maxlib/scale -1 1 0 144;
#X obj 301 390 sin;
#X obj 301 411 maxlib/scale -1 1 0 144;
#X obj 110 118 tgl 15 0 empty empty empty 0 -6 0 10 -262144 -1 -1 0
1;
#X floatatom 110 274 0 0 0 0 - - -;
#X obj 110 314 * 6.28319;
#X obj 110 294 / 360;
#X obj 110 232 cyclone/counter 0 360;
#X floatatom 149 118 6 0 0 0 - - -;
#X obj 110 206 metro 1;
#X obj 149 183 / 360;
#X obj 262 79 loadbang;
#X msg 262 101 5000;
#X obj 110 418 outlet;
#X obj 301 435 outlet;
#X obj 149 67 inlet;
#X obj 53 -44 inlet;
#X obj 386 0 line;
#X msg 301 44 70;
#X obj 267 24 bng 15 250 50 0 empty empty empty 0 -6 0 10 -262144 -1
-1;
#X obj 207 -78 sel 1 0;
#X msg 267 3 0;
#X msg 141 -17 1;
#X obj 267 -18 delay 9000;
#X msg 267 44 0;
#X obj 55 -65 tgl 15 0 empty empty empty 0 -6 0 10 -262144 -1 -1 0
1;
#X msg 386 -30 0 \, 30000 10000;
#X msg 132 -43 30000 \, 0 60000;
#X connect 1 0 3 0;
#X connect 2 0 1 0;
#X connect 2 0 4 0;
#X connect 3 0 16 0;
#X connect 4 0 5 0;
#X connect 5 0 17 0;
#X connect 6 0 12 0;
#X connect 7 0 9 0;
#X connect 8 0 2 0;
#X connect 9 0 8 0;
#X connect 10 0 7 0;
#X connect 11 0 13 0;
#X connect 12 0 10 0;
#X connect 13 0 12 1;
#X connect 14 0 15 0;
#X connect 15 0 11 0;
#X connect 18 0 11 0;
#X connect 19 0 23 0;
#X connect 20 0 11 0;
#X connect 21 0 17 0;
#X connect 22 0 27 0;
#X connect 22 0 21 0;
#X connect 23 0 30 0;
#X connect 23 0 25 0;
#X connect 23 1 29 0;
#X connect 23 1 26 0;
#X connect 24 0 6 0;
#X connect 25 0 6 0;
#X connect 26 0 24 0;
#X connect 26 0 22 0;
#X connect 27 0 16 0;
#X connect 28 0 23 0;
#X connect 29 0 20 0;
#X connect 30 0 20 0;
#X coords 0 -1 1 1 102 62 1 100 100;
#X restore 318 -235 pd circle-spat;
#X obj 318 -257 r circle-spat-onoff;
#N canvas 0 22 408 282 spat 0;
#X obj 67 -52 r \$0-x;
#X obj 168 -50 r \$0-y;
#X obj 112 -52 r \$0-rx;
#X obj 216 -51 r \$0-ry;
#X msg 300 57 1;
#X msg 328 57 2;
#X obj 267 -50 inlet;
#X obj 235 132 switch 2;
#X obj 77 104 switch 2;
#X obj 267 30 sel 0 1 2;
#X msg 268 56 0;
#X obj 77 130 outlet;
#X obj 235 158 outlet;
#X connect 0 0 8 1;
#X connect 1 0 7 1;
#X connect 2 0 8 2;
#X connect 3 0 7 2;
#X connect 4 0 7 0;
#X connect 4 0 8 0;
#X connect 5 0 7 0;
#X connect 5 0 8 0;
#X connect 6 0 9 0;
#X connect 7 0 12 0;
#X connect 8 0 11 0;
#X connect 9 0 10 0;
#X connect 9 1 4 0;
#X connect 9 2 5 0;
#X connect 10 0 8 0;
#X connect 10 0 7 0;
#X restore 422 -51 pd spat;
#X obj 422 -74 hradio 20 1 0 3 empty empty empty 0 -6 0 10 -4034 -1
-1 0;
#X obj 422 -97 r spat-who;
#X text 532 -204 manual/avatar/room;
#X obj 318 -167 s spatx;
#X obj 413 -169 s spaty;
#X obj 422 -25 s spatx;
#X obj 471 -25 s spaty;
#X obj 44 -236 r x;
#X obj 79 -227 r y;
#X text 231 43 0;
#X text 250 42 144;
#X text 230 70 144;
#X obj 427 -211 tgl 15 0 empty empty empty 0 -6 0 10 -262144 -1 -1
0 1;
#X obj 174 -194 r spat-volume;
#X obj 174 -244 loadbang;
#X msg 174 -223 0.5;
#X msg 426 -232 0;
#X obj 441 117 throw~ spat1;
#X obj 441 117 throw~ spat2;
#X obj 441 117 throw~ spat3;
#X obj 441 117 throw~ spat4;
#X obj 316 -110 loadbang;
#X msg 242 -138 0;
#X msg 242 -116 70;
#X obj 490 -222 slg.loadsample~;
#X connect 0 0 22 0;
#X connect 0 1 23 0;
#X connect 0 2 24 0;
#X connect 0 3 25 0;
#X connect 1 0 0 0;
#X connect 2 0 8 0;
#X connect 2 0 0 1;
#X connect 2 1 9 0;
#X connect 2 1 0 2;
#X connect 3 0 2 0;
#X connect 4 0 10 0;
#X connect 4 1 11 0;
#X connect 5 0 4 0;
#X connect 6 0 5 0;
#X connect 17 0 2 0;
#X connect 18 0 0 5;
#X connect 19 0 20 0;
#X connect 20 0 0 5;
#X connect 21 0 2 0;
#X connect 26 0 27 0;
#X connect 26 0 28 0;
#X connect 27 0 0 1;
#X connect 28 0 0 2;
#X connect 29 0 0 0;
#X coords 0 0 1 1 185 295 0;
#X restore 512 173 pd spat;
#X obj 511 145 comment 196 20 Times ? 0 255 128 0 Spatialization;
#N canvas 0 22 1263 773 InputControlsOverNetwork 0;
#X obj 998 153 prepend set;
#X msg 998 175 18.4568 -92.4396 3 13 7 11;
#X floatatom 988 231 5 0 0 0 - - -;
#X floatatom 1025 232 5 0 0 0 - - -;
#X floatatom 1059 233 5 0 0 0 - - -;
#X obj 988 202 unpack f f f f f f;
#X floatatom 1095 232 5 0 0 0 - - -;
#X floatatom 1132 233 5 0 0 0 - - -;
#X text 991 254 x/ y/ speed/ collision/ wina/ winb;
#X text 991 286 0: 16 -100 /8;
#X obj 1190 293 change;
#X floatatom 1170 232 5 0 0 0 - - -;
#X obj 1256 291 change;
#X obj 1095 289 change;
#X obj 1095 320 s \$0-collision;
#X obj 1190 319 s \$0-wina;
#X obj 1256 318 s \$0-winb;
#X obj 988 121 netreceive 11111 1;
#X obj 108 361 OSCroute /repercusosynth;
#X floatatom 108 498 5 0 0 0 - - -;
#N canvas 0 22 129 175 parse 0;
#X obj 35 54 any2list;
#X obj 35 75 symbol2list;
#X obj 35 99 unpack f;
#X obj 35 25 inlet;
#X obj 35 126 outlet;
#X connect 0 0 1 0;
#X connect 1 0 2 0;
#X connect 2 0 4 0;
#X connect 3 0 0 0;
#X restore 108 475 pd parse;
#N canvas 0 22 129 175 parse 0;
#X obj 35 54 any2list;
#X obj 35 75 symbol2list;
#X obj 35 99 unpack f;
#X obj 35 25 inlet;
#X obj 35 126 outlet;
#X connect 0 0 1 0;
#X connect 1 0 2 0;
#X connect 2 0 4 0;
#X connect 3 0 0 0;
#X restore 173 475 pd parse;
#N canvas 0 22 129 175 parse 0;
#X obj 35 54 any2list;
#X obj 35 75 symbol2list;
#X obj 35 99 unpack f;
#X obj 35 25 inlet;
#X obj 35 126 outlet;
#X connect 0 0 1 0;
#X connect 1 0 2 0;
#X connect 2 0 4 0;
#X connect 3 0 0 0;
#X restore 233 475 pd parse;
#X obj 108 548 delta;
#X floatatom 108 571 5 0 0 0 - - -;
#N canvas 0 22 129 175 parse 0;
#X obj 35 54 any2list;
#X obj 35 75 symbol2list;
#X obj 35 99 unpack f;
#X obj 35 25 inlet;
#X obj 35 126 outlet;
#X connect 0 0 1 0;
#X connect 1 0 2 0;
#X connect 2 0 4 0;
#X connect 3 0 0 0;
#X restore 367 472 pd parse;
#X obj 367 515 s \$0-trigger;
#N canvas 0 22 129 175 parse 0;
#X obj 35 54 any2list;
#X obj 35 75 symbol2list;
#X obj 35 99 unpack f;
#X obj 35 25 inlet;
#X obj 35 126 outlet;
#X connect 0 0 1 0;
#X connect 1 0 2 0;
#X connect 2 0 4 0;
#X connect 3 0 0 0;
#X restore 449 467 pd parse;
#N canvas 0 22 129 175 parse 0;
#X obj 35 54 any2list;
#X obj 35 75 symbol2list;
#X obj 35 99 unpack f;
#X obj 35 25 inlet;
#X obj 35 126 outlet;
#X connect 0 0 1 0;
#X connect 1 0 2 0;
#X connect 2 0 4 0;
#X connect 3 0 0 0;
#X restore 595 469 pd parse;
#X obj 449 516 s \$0-x;
#X obj 595 516 s \$0-y;
#X obj 449 495 maxlib/scale -1 1 0 144;
#X obj 595 492 maxlib/scale 1 -1 0 144;
#X obj 367 496 change;
#N canvas 0 22 129 175 parse 0;
#X obj 35 54 any2list;
#X obj 35 75 symbol2list;
#X obj 35 99 unpack f;
#X obj 35 25 inlet;
#X obj 35 126 outlet;
#X connect 0 0 1 0;
#X connect 1 0 2 0;
#X connect 2 0 4 0;
#X connect 3 0 0 0;
#X restore 739 466 pd parse;
#N canvas 0 22 129 175 parse 0;
#X obj 35 54 any2list;
#X obj 35 75 symbol2list;
#X obj 35 99 unpack f;
#X obj 35 25 inlet;
#X obj 35 126 outlet;
#X connect 0 0 1 0;
#X connect 1 0 2 0;
#X connect 2 0 4 0;
#X connect 3 0 0 0;
#X restore 909 467 pd parse;
#X obj 739 513 s \$0-rx;
#X obj 909 514 s \$0-ry;
#X obj 739 490 maxlib/scale -280 280 0 144;
#X obj 909 493 maxlib/scale -266.5 266.5 0 144;
#X obj 109 520 s \$0-pitchfromiqr;
#X obj 173 545 s \$0-enveloppefromiqr;
#X obj 233 499 s \$0-onsetfromiqr;
#X floatatom 798 470 5 0 0 0 - - -;
#X floatatom 963 468 5 0 0 0 - - -;
#N canvas 0 22 129 175 parse 0;
#X obj 35 54 any2list;
#X obj 35 75 symbol2list;
#X obj 35 99 unpack f;
#X obj 35 25 inlet;
#X obj 35 126 outlet;
#X connect 0 0 1 0;
#X connect 1 0 2 0;
#X connect 2 0 4 0;
#X connect 3 0 0 0;
#X restore 1111 450 pd parse;
#X obj 1111 474 change;
#X obj 1111 493 s \$0-vodemo;
#N canvas 0 22 129 175 parse 0;
#X obj 35 54 any2list;
#X obj 35 75 symbol2list;
#X obj 35 99 unpack f;
#X obj 35 25 inlet;
#X obj 35 126 outlet;
#X connect 0 0 1 0;
#X connect 1 0 2 0;
#X connect 2 0 4 0;
#X connect 3 0 0 0;
#X restore 283 612 pd parse;
#X obj 283 636 change;
#X obj 283 656 s interactrigger;
#N canvas 0 22 129 175 parse 0;
#X obj 35 54 any2list;
#X obj 35 75 symbol2list;
#X obj 35 99 unpack f;
#X obj 35 25 inlet;
#X obj 35 126 outlet;
#X connect 0 0 1 0;
#X connect 1 0 2 0;
#X connect 2 0 4 0;
#X connect 3 0 0 0;
#X restore 104 671 pd parse;
#X obj 104 693 change;
#N canvas 0 22 129 175 parse 0;
#X obj 35 54 any2list;
#X obj 35 75 symbol2list;
#X obj 35 99 unpack f;
#X obj 35 25 inlet;
#X obj 35 126 outlet;
#X connect 0 0 1 0;
#X connect 1 0 2 0;
#X connect 2 0 4 0;
#X connect 3 0 0 0;
#X restore 539 587 pd parse;
#X obj 539 611 change;
#N canvas 0 22 129 175 parse 0;
#X obj 35 54 any2list;
#X obj 35 75 symbol2list;
#X obj 35 99 unpack f;
#X obj 35 25 inlet;
#X obj 35 126 outlet;
#X connect 0 0 1 0;
#X connect 1 0 2 0;
#X connect 2 0 4 0;
#X connect 3 0 0 0;
#X restore 684 587 pd parse;
#X obj 684 611 change;
#N canvas 0 22 129 175 parse 0;
#X obj 35 54 any2list;
#X obj 35 75 symbol2list;
#X obj 35 99 unpack f;
#X obj 35 25 inlet;
#X obj 35 126 outlet;
#X connect 0 0 1 0;
#X connect 1 0 2 0;
#X connect 2 0 4 0;
#X connect 3 0 0 0;
#X restore 830 587 pd parse;
#X obj 830 611 change;
#X obj 539 661 s section1;
#X obj 684 660 s section2;
#X obj 830 660 s section3;
#X obj 104 713 s int26;
#X obj 539 637 maxlib/scale 0 0.7 0 1;
#X obj 685 638 maxlib/scale 0 0.7 0 1;
#X obj 830 635 maxlib/scale 0 0.7 0 1;
#X obj 101 101 cnv 15 325 200 empty empty empty 20 12 0 14 -260097
-66577 0;
#X obj 131 130 nbx 5 14 -1e+37 1e+37 0 0 empty empty empty 0 -6 0 10
-262144 -1 -1 0 256;
#X obj 206 131 nbx 5 14 -1e+37 1e+37 0 0 empty empty empty 0 -6 0 10
-262144 -1 -1 0 256;
#X obj 281 132 nbx 5 14 -1e+37 1e+37 0 0 empty empty empty 0 -6 0 10
-262144 -1 -1 0 256;
#X obj 209 197 nbx 5 14 -1e+37 1e+37 0 0 empty empty empty 0 -6 0 10
-262144 -1 -1 0 256;
#X text 135 115 pitch;
#X text 203 114 enveloppe;
#X text 287 115 onset;
#X text 210 180 trigger;
#X text 146 142 x;
#X obj 132 159 nbx 5 14 -1e+37 1e+37 0 0 empty empty empty 0 -6 0 10
-262144 -1 -1 0 256;
#X obj 207 160 nbx 5 14 -1e+37 1e+37 0 0 empty empty empty 0 -6 0 10
-262144 -1 -1 0 256;
#X obj 284 162 nbx 5 14 -1e+37 1e+37 0 0 empty empty empty 0 -6 0 10
-262144 -1 -1 0 256;
#X obj 360 161 nbx 5 14 -1e+37 1e+37 0 0 empty empty empty 0 -6 0 10
-262144 -1 -1 0 256;
#X text 221 145 y;
#X text 291 147 rx;
#X text 364 142 ry;
#X obj 131 194 nbx 5 14 -1e+37 1e+37 0 0 empty empty empty 0 -6 0 10
-262144 -1 -1 0 256;
#X obj 283 195 nbx 5 14 -1e+37 1e+37 0 0 empty empty empty 0 -6 0 10
-262144 -1 -1 0 256;
#X obj 209 230 nbx 5 14 -1e+37 1e+37 0 0 empty empty empty 0 -6 0 10
-262144 -1 -1 0 256;
#X obj 282 230 nbx 5 14 -1e+37 1e+37 0 0 empty empty empty 0 -6 0 10
-262144 -1 -1 0 256;
#X text 133 175 vodemo;
#X text 281 180 inttrig;
#X text 210 214 sect1;
#X text 289 213 sect2;
#X obj 355 230 nbx 5 14 -1e+37 1e+37 0 0 empty empty empty 0 -6 0 10
-262144 -1 -1 0 256;
#X text 343 213 sect3;
#X obj 133 226 nbx 5 14 -1e+37 1e+37 0 0 empty empty empty 0 -6 0 10
-262144 -1 -1 0 256;
#X text 138 210 int26;
#X obj 499 173 r \$0-trigger;
#X obj 650 139 r \$0-x;
#X obj 697 139 r \$0-y;
#X obj 743 139 r \$0-rx;
#X obj 794 139 r \$0-ry;
#X text 268 101 INPUTS;
#X text 190 101 TORQUE;
#X text 230 100 & IQR;
#X obj 479 246 r \$0-collision;
#X obj 571 246 r \$0-wina;
#X obj 632 246 r \$0-winb;
#X obj 207 262 nbx 5 14 -1e+37 1e+37 0 0 empty empty empty 0 -6 0 10
-262144 -1 -1 0 256;
#X obj 280 262 nbx 5 14 -1e+37 1e+37 0 0 empty empty empty 0 -6 0 10
-262144 -1 -1 0 256;
#X obj 131 260 nbx 5 14 -1e+37 1e+37 0 0 empty empty empty 0 -6 0 10
-262144 -1 -1 0 256;
#X text 127 242 collison;
#X text 212 246 win A;
#X text 287 245 win B;
#X obj 115 129 bng 15 250 50 0 empty empty empty 0 -6 0 10 -262144
-1 -1;
#X obj 190 130 bng 15 250 50 0 empty empty empty 0 -6 0 10 -262144
-1 -1;
#X obj 266 131 bng 15 250 50 0 empty empty empty 0 -6 0 10 -262144
-1 -1;
#X obj 115 158 bng 15 250 50 0 empty empty empty 0 -6 0 10 -262144
-1 -1;
#X obj 192 160 bng 15 250 50 0 empty empty empty 0 -6 0 10 -262144
-1 -1;
#X obj 267 161 bng 15 250 50 0 empty empty empty 0 -6 0 10 -262144
-1 -1;
#X obj 115 193 bng 15 250 50 0 empty empty empty 0 -6 0 10 -262144
-1 -1;
#X obj 194 196 bng 15 250 50 0 empty empty empty 0 -6 0 10 -262144
-1 -1;
#X obj 117 225 bng 15 250 50 0 empty empty empty 0 -6 0 10 -262144
-1 -1;
#X obj 193 229 bng 15 250 50 0 empty empty empty 0 -6 0 10 -262144
-1 -1;
#X obj 266 229 bng 15 250 50 0 empty empty empty 0 -6 0 10 -262144
-1 -1;
#X obj 116 259 bng 15 250 50 0 empty empty empty 0 -6 0 10 -262144
-1 -1;
#X obj 191 261 bng 15 250 50 0 empty empty empty 0 -6 0 10 -262144
-1 -1;
#X obj 264 261 bng 15 250 50 0 empty empty empty 0 -6 0 10 -262144
-1 -1;
#X obj 343 161 bng 15 250 50 0 empty empty empty 0 -6 0 10 -262144
-1 -1;
#X obj 267 195 bng 15 250 50 0 empty empty empty 0 -6 0 10 -262144
-1 -1;
#X obj 339 229 bng 15 250 50 0 empty empty empty 0 -6 0 10 -262144
-1 -1;
#X obj 108 313 dumpOSC 5000;
#X obj 108 383 OSCroute /pitch /enveloppe /onset /trigger /x /y /rx
/ry /vodemo /interactrigger /section1 /section2 /section3 /int26 /energy
/energybell;
#N canvas 0 22 129 175 parse 0;
#X obj 35 54 any2list;
#X obj 35 75 symbol2list;
#X obj 35 99 unpack f;
#X obj 35 25 inlet;
#X obj 35 126 outlet;
#X connect 0 0 1 0;
#X connect 1 0 2 0;
#X connect 2 0 4 0;
#X connect 3 0 0 0;
#X restore 1053 575 pd parse;
#X obj 1053 599 change;
#X obj 1053 626 s \$0-energy;
#N canvas 0 22 129 175 parse 0;
#X obj 35 54 any2list;
#X obj 35 75 symbol2list;
#X obj 35 99 unpack f;
#X obj 35 25 inlet;
#X obj 35 126 outlet;
#X connect 0 0 1 0;
#X connect 1 0 2 0;
#X connect 2 0 4 0;
#X connect 3 0 0 0;
#X restore 1126 574 pd parse;
#X obj 1126 598 change;
#X obj 1126 625 s \$0-energybell;
#X obj 510 282 r \$0-energy;
#X obj 589 281 r \$0-energybell;
#X obj 369 260 nbx 5 14 -1e+37 1e+37 0 0 empty empty empty 0 -6 0 10
-262144 -1 -1 0 256;
#X obj 352 260 bng 15 250 50 0 empty empty empty 0 -6 0 10 -262144
-1 -1;
#X obj 368 284 nbx 5 14 -1e+37 1e+37 0 0 empty empty empty 0 -6 0 10
-262144 -1 -1 0 256;
#X obj 351 283 bng 15 250 50 0 empty empty empty 0 -6 0 10 -262144
-1 -1;
#X text 368 243 ernergy;
#X text 362 270 energybell;
#X text 121 280 --Ports-- torque: 11111 IQR: 5000;
#X obj 168 336 print debugIQR;
#X obj 108 337 spigot;
#X obj 397 125 tgl 15 0 empty empty empty 0 -6 0 10 -4034 -1 -1 1 1
;
#X obj 397 35 loadbang;
#X msg 397 60 1;
#X obj 506 198 r \$0-vodemo;
#X text 360 103 C'mon In!;
#X obj 602 84 r \$0-pitchfromiqr;
#X obj 714 84 r \$0-enveloppefromiqr;
#X obj 851 85 r \$0-onsetfromiqr;
#X obj 604 116 r \$0-pitch;
#X obj 716 116 r \$0-enveloppe;
#X obj 853 117 r \$0-onset;
#X obj 879 219 spigot;
#X connect 0 0 1 0;
#X connect 5 0 2 0;
#X connect 5 1 3 0;
#X connect 5 2 4 0;
#X connect 5 3 6 0;
#X connect 5 4 7 0;
#X connect 5 5 11 0;
#X connect 6 0 13 0;
#X connect 7 0 10 0;
#X connect 10 0 15 0;
#X connect 11 0 12 0;
#X connect 12 0 16 0;
#X connect 13 0 14 0;
#X connect 17 0 0 0;
#X connect 17 0 159 0;
#X connect 18 0 130 0;
#X connect 19 0 23 0;
#X connect 19 0 40 0;
#X connect 20 0 19 0;
#X connect 21 0 41 0;
#X connect 22 0 42 0;
#X connect 23 0 24 0;
#X connect 25 0 33 0;
#X connect 27 0 31 0;
#X connect 28 0 32 0;
#X connect 31 0 29 0;
#X connect 32 0 30 0;
#X connect 33 0 26 0;
#X connect 34 0 38 0;
#X connect 34 0 43 0;
#X connect 35 0 39 0;
#X connect 35 0 44 0;
#X connect 38 0 36 0;
#X connect 39 0 37 0;
#X connect 45 0 46 0;
#X connect 46 0 47 0;
#X connect 48 0 49 0;
#X connect 49 0 50 0;
#X connect 49 0 84 0;
#X connect 51 0 52 0;
#X connect 52 0 62 0;
#X connect 52 0 120 0;
#X connect 52 0 93 0;
#X connect 53 0 54 0;
#X connect 54 0 63 0;
#X connect 55 0 56 0;
#X connect 56 0 64 0;
#X connect 57 0 58 0;
#X connect 58 0 65 0;
#X connect 63 0 59 0;
#X connect 63 0 85 0;
#X connect 63 0 121 0;
#X connect 64 0 60 0;
#X connect 64 0 86 0;
#X connect 64 0 122 0;
#X connect 65 0 61 0;
#X connect 65 0 91 0;
#X connect 65 0 128 0;
#X connect 95 0 70 0;
#X connect 95 0 119 0;
#X connect 96 0 76 0;
#X connect 96 0 115 0;
#X connect 97 0 77 0;
#X connect 97 0 116 0;
#X connect 98 0 78 0;
#X connect 98 0 117 0;
#X connect 99 0 79 0;
#X connect 99 0 126 0;
#X connect 103 0 108 0;
#X connect 103 0 123 0;
#X connect 104 0 106 0;
#X connect 104 0 124 0;
#X connect 105 0 107 0;
#X connect 105 0 125 0;
#X connect 129 0 146 0;
#X connect 129 0 147 0;
#X connect 130 0 20 0;
#X connect 130 1 21 0;
#X connect 130 2 22 0;
#X connect 130 3 25 0;
#X connect 130 4 27 0;
#X connect 130 5 28 0;
#X connect 130 6 34 0;
#X connect 130 7 35 0;
#X connect 130 8 45 0;
#X connect 130 9 48 0;
#X connect 130 10 53 0;
#X connect 130 11 55 0;
#X connect 130 12 57 0;
#X connect 130 13 51 0;
#X connect 130 14 131 0;
#X connect 130 15 134 0;
#X connect 131 0 132 0;
#X connect 132 0 133 0;
#X connect 134 0 135 0;
#X connect 135 0 136 0;
#X connect 137 0 139 0;
#X connect 137 0 140 0;
#X connect 138 0 142 0;
#X connect 138 0 141 0;
#X connect 147 0 18 0;
#X connect 148 0 147 1;
#X connect 148 0 159 1;
#X connect 149 0 150 0;
#X connect 150 0 148 0;
#X connect 151 0 83 0;
#X connect 151 0 118 0;
#X connect 156 0 67 0;
#X connect 156 0 112 0;
#X connect 157 0 68 0;
#X connect 157 0 113 0;
#X connect 158 0 69 0;
#X connect 158 0 114 0;
#X connect 159 0 5 0;
#X coords 0 -1 1 1 328 202 1 100 100;
#X restore 502 295 pd InputControlsOverNetwork;
#X obj 508 272 comment 196 20 Times ? 0 255 128 0 Inputs From IQR;
#X obj 20 55 comment 196 20 Times ? 0 255 128 0 Tempo;
#X obj 22 126 comment 196 20 Times ? 0 255 128 0 Synths;
#X obj 504 60 comment 196 20 Times ? 0 255 128 0 Rhythm;
#X obj 340 316 comment 196 20 Times ? 0 255 128 0 Score;
#N canvas 640 54 458 381 spacey 0;
#X obj 10 30 outerSpace/OuterSpaceMainPDGui;
#X text 28 3 on/off;
#X text 92 5 volume;
#X text 271 7 preset;
#X obj 10 -25 r outerspace-onoff;
#X obj 144 -23 r outerspace-volume;
#X obj 278 -23 r outerspace-preset;
#X obj 10 5 tgl 15 0 empty empty empty 0 -6 0 10 -262144 -1 -1 0 1
;
#X floatatom 144 4 5 0 0 0 - - -;
#X obj 10 267 throw~ textureL;
#X obj 278 265 throw~ textureR;
#X msg 325 7 1;
#X msg 354 5 2;
#X floatatom 369 83 5 0 0 0 - - -;
#X msg 382 8 0;
#X connect 0 0 9 0;
#X connect 0 1 10 0;
#X connect 4 0 0 0;
#X connect 5 0 0 1;
#X connect 6 0 0 2;
#X connect 7 0 0 0;
#X connect 8 0 0 1;
#X connect 11 0 0 2;
#X connect 12 0 0 2;
#X connect 14 0 0 2;
#X restore 341 179 pd spacey;
#N canvas 8 401 641 266 sines 0;
#X obj 17 65 drunk_sines/drunk_sines;
#X obj 17 38 r sine-onoff;
#X obj 84 38 r sine-volume;
#X obj 152 38 r sine-freq;
#X obj 203 57 tgl 15 0 empty empty empty 0 -6 0 10 -262144 -1 -1 0
1;
#X floatatom 203 84 5 0 0 0 - - -;
#X obj 130 228 throw~ musicR;
#X obj 17 230 throw~ musicL;
#X obj 403 57 vsl 15 128 0 1 0 0 empty empty empty 0 -8 0 10 -262144
-1 -1 0 1;
#X obj 430 52 hsl 128 15 0 1 0 0 empty empty empty -2 -6 0 10 -262144
-1 -1 6350 1;
#X obj 403 193 maxlib/scale 0 1 0 100;
#X obj 17 202 gpan~;
#X obj 563 29 loadbang;
#X msg 563 50 0.5;
#X obj 403 19 r updown;
#X obj 459 18 r leftright;
#X connect 0 0 11 0;
#X connect 0 1 11 1;
#X connect 1 0 0 0;
#X connect 2 0 0 1;
#X connect 3 0 0 2;
#X connect 4 0 0 0;
#X connect 5 0 0 1;
#X connect 8 0 10 0;
#X connect 9 0 11 2;
#X connect 10 0 0 2;
#X connect 11 0 7 0;
#X connect 11 1 6 0;
#X connect 12 0 13 0;
#X connect 13 0 9 0;
#X connect 14 0 8 0;
#X connect 15 0 9 0;
#X restore 23 173 pd sines;
#N canvas 49 320 631 434 anthony 0;
#X obj 28 98 slg.spectralsynth20~;
#N canvas 0 22 470 320 transpose-behaviors 0;
#X obj 60 36 tgl 15 0 empty empty empty 0 -6 0 10 -262144 -1 -1 0 1
;
#X obj 90 87 random 6;
#X obj 90 109 sel 0 1 2 3;
#X msg 90 134 -4 3000;
#X msg 142 134 5 4000;
#X msg 200 134 0 5000;
#X msg 256 133 9 10000;
#X obj 122 198 outlet;
#X obj 90 35 inlet;
#X obj 90 64 metro 5000;
#X connect 0 0 9 0;
#X connect 1 0 2 0;
#X connect 2 0 3 0;
#X connect 2 1 4 0;
#X connect 2 2 5 0;
#X connect 2 3 6 0;
#X connect 3 0 7 0;
#X connect 4 0 7 0;
#X connect 5 0 7 0;
#X connect 6 0 7 0;
#X connect 8 0 9 0;
#X connect 9 0 1 0;
#X restore 354 30 pd transpose-behaviors;
#X obj 36 78 r additive-onoff;
#X obj 354 8 r additive-onoff;
#X obj 387 71 r additive-transpose;
#X obj 211 74 r additive-volume;
#X obj 290 307 loadbang;
#X obj 28 249 cross-delay-gop;
#X obj 239 220 loadbang;
#X msg 332 250 0.8;
#X msg 234 251 80;
#X msg 267 251 160;
#X msg 198 252 0.7;
#X msg 300 252 0.2;
#X msg 290 337 \; volr 60 \; bfreqr 40 \;;
#X obj 211 12 loadbang;
#X obj 28 388 throw~ musicL;
#X obj 181 386 throw~ musicR;
#X msg 464 49 0;
#X msg 496 48 12;
#X msg 557 55 1;
#X msg 211 33 63;
#X obj 557 29 loadbang;
#X connect 0 0 7 0;
#X connect 0 0 7 1;
#X connect 2 0 0 0;
#X connect 3 0 1 0;
#X connect 4 0 0 2;
#X connect 5 0 0 1;
#X connect 6 0 14 0;
#X connect 7 0 16 0;
#X connect 7 1 17 0;
#X connect 8 0 12 0;
#X connect 8 0 10 0;
#X connect 8 0 11 0;
#X connect 8 0 13 0;
#X connect 8 0 9 0;
#X connect 9 0 7 6;
#X connect 10 0 7 3;
#X connect 11 0 7 4;
#X connect 12 0 7 2;
#X connect 13 0 7 5;
#X connect 15 0 21 0;
#X connect 18 0 0 2;
#X connect 19 0 0 2;
#X connect 20 0 0 3;
#X connect 21 0 0 1;
#X connect 22 0 20 0;
#X restore 23 197 pd anthony;
#N canvas 599 593 634 311 windchild 0;
#X obj 76 115 slg.wind~;
#X obj 76 188 slg.convolution~;
#X obj 236 169 slg.gain~;
#N canvas 0 22 458 308 modulate-behaviors 0;
#X obj 72 194 line;
#X obj 72 84 metro 4000;
#X obj 41 60 tgl 15 0 empty empty empty 0 -6 0 10 -262144 -1 -1 0 1
;
#X floatatom 140 133 5 0 0 0 - - -;
#X obj 72 109 random 6;
#X msg 124 164 50 4000;
#X msg 238 163 40 10000;
#X obj 72 135 sel 0 1 2 3;
#X msg 182 164 60 5000;
#X msg 72 164 80 3000;
#X obj 72 218 outlet;
#X obj 72 57 inlet;
#X connect 0 0 10 0;
#X connect 1 0 4 0;
#X connect 2 0 1 0;
#X connect 4 0 3 0;
#X connect 4 0 7 0;
#X connect 5 0 0 0;
#X connect 6 0 0 0;
#X connect 7 0 9 0;
#X connect 7 1 5 0;
#X connect 7 2 8 0;
#X connect 7 3 6 0;
#X connect 8 0 0 0;
#X connect 9 0 0 0;
#X connect 11 0 1 0;
#X restore 149 92 pd modulate-behaviors;
#X obj 171 76 tgl 15 0 empty empty empty 0 -6 0 10 -262144 -1 -1 0
1;
#X obj 76 59 r wind-onoff;
#N canvas 110 24 346 132 autoloadchild 0;
#X obj 28 25 loadbang;
#X obj 28 70 outlet;
#X msg 28 48 autodemo/data/wav/loops/chilld_high_down.wav;
#X connect 0 0 2 0;
#X connect 2 0 1 0;
#X restore 308 87 pd autoloadchild;
#X obj 289 263 throw~ spat;
#X obj 343 188 slg.gain~;
#X obj 452 112 loadbang;
#X msg 474 156 4;
#X obj 426 62 r wind-volume;
#X obj 514 62 r child-volume;
#X text 553 89 0-127;
#X obj 344 17 loadbang;
#X msg 344 41 1;
#X obj 237 63 r child-onoff;
#X obj 69 263 throw~ textureL;
#X obj 172 263 throw~ textureR;
#X msg 438 156 0.2;
#X msg 508 154 200;
#X obj 237 113 slg.loadsample~;
#X obj 245 30 tgl 15 0 empty empty empty 0 -6 0 10 -262144 -1 -1 0
1;
#X msg 538 111 20;
#X connect 0 0 1 0;
#X connect 0 0 8 0;
#X connect 1 0 7 0;
#X connect 2 0 1 1;
#X connect 3 0 0 2;
#X connect 4 0 3 0;
#X connect 5 0 4 0;
#X connect 5 0 0 0;
#X connect 6 0 21 1;
#X connect 9 0 19 0;
#X connect 9 0 10 0;
#X connect 9 0 20 0;
#X connect 10 0 2 1;
#X connect 11 0 8 1;
#X connect 12 0 1 2;
#X connect 14 0 15 0;
#X connect 15 0 21 3;
#X connect 16 0 21 0;
#X connect 19 0 8 1;
#X connect 20 0 1 2;
#X connect 21 0 2 0;
#X connect 22 0 21 0;
#X connect 23 0 1 2;
#X restore 341 227 pd windchild;
#N canvas 0 22 572 479 substractive 0;
#X obj 69 98 slg.substractive~;
#X obj 69 48 r substractive-onoff;
#X floatatom 87 76 5 0 0 0 - - -;
#X obj 70 222 cross-delay-gop;
#X obj 70 366 throw~ textureL;
#X obj 223 371 throw~ textureR;
#X connect 0 0 3 0;
#X connect 0 0 3 1;
#X connect 1 0 0 0;
#X connect 1 0 2 0;
#X connect 3 0 4 0;
#X connect 3 1 5 0;
#X restore 341 203 pd substractive;
#N canvas 46 35 234 126 storm 0;
#X obj 13 30 slg.storm;
#X obj 13 8 r storm-onoff;
#X obj 13 69 throw~ textureL;
#X obj 113 68 throw~ textureR;
#X connect 0 0 2 0;
#X connect 0 0 3 0;
#X connect 1 0 0 0;
#X restore 343 255 pd storm;
#N canvas 15 440 617 227 test-textures 0;
#X obj 17 49 s wind-onoff;
#X obj 17 28 tgl 15 0 empty empty empty 0 -6 0 10 -262144 -1 -1 0 1
;
#X obj 17 91 s child-onoff;
#X obj 17 70 tgl 15 0 empty empty empty 0 -6 0 10 -262144 -1 -1 0 1
;
#X obj 18 131 s wind-volume;
#X obj 18 172 s child-volume;
#X floatatom 18 113 5 0 0 0 - - -;
#X floatatom 18 153 5 0 0 0 - - -;
#X obj 146 46 s storm-onoff;
#X obj 146 24 tgl 15 0 empty empty empty 0 -6 0 10 -262144 -1 -1 0
1;
#X obj 254 26 tgl 15 0 empty empty empty 0 -6 0 10 -262144 -1 -1 0
1;
#X obj 254 46 s substractive-onoff;
#X text 419 5 --- Spacey ---;
#X text 252 6 --- Substractive ---;
#X text 145 6 --- Storm ---;
#X text 14 7 ---- Windchild ----;
#X obj 422 26 tgl 15 0 empty empty empty 0 -6 0 10 -262144 -1 -1 0
1;
#X obj 422 46 s outerspace-onoff;
#X obj 422 87 s outerspace-volume;
#X obj 423 126 s outerspace-preset;
#X floatatom 422 69 5 0 0 0 - - -;
#X floatatom 423 110 5 0 0 0 - - -;
#X connect 1 0 0 0;
#X connect 3 0 2 0;
#X connect 6 0 4 0;
#X connect 7 0 5 0;
#X connect 9 0 8 0;
#X connect 10 0 11 0;
#X connect 16 0 17 0;
#X connect 20 0 18 0;
#X connect 21 0 19 0;
#X restore 343 280 pd test-textures;
#N canvas 23 472 425 209 test-synth 0;
#X text 14 7 --- Sines ---;
#X text 149 5 --- Anthony ---;
#X obj 17 57 s sine-onoff;
#X obj 18 101 s sine-volume;
#X obj 18 144 s sine-freq;
#X obj 17 37 tgl 15 0 empty empty empty 0 -6 0 10 -262144 -1 -1 0 1
;
#X floatatom 18 82 5 0 0 0 - - -;
#X floatatom 18 125 5 0 0 0 - - -;
#X obj 153 52 s additive-onoff;
#X obj 151 95 s additive-volume;
#X obj 152 136 s additive-transpose;
#X obj 153 30 tgl 15 0 empty empty empty 0 -6 0 10 -262144 -1 -1 0
1;
#X floatatom 151 75 5 0 0 0 - - -;
#X floatatom 152 117 5 0 0 0 - - -;
#X text 277 3 --- R2D2 ---;
#X obj 289 25 tgl 15 0 empty empty empty 0 -6 0 10 -262144 -1 -1 0
1;
#X floatatom 287 70 5 0 0 0 - - -;
#X obj 289 47 s r2d2-onoff;
#X obj 287 90 s r2d2-metro;
#X connect 5 0 2 0;
#X connect 6 0 3 0;
#X connect 7 0 4 0;
#X connect 11 0 8 0;
#X connect 12 0 9 0;
#X connect 13 0 10 0;
#X connect 15 0 17 0;
#X connect 16 0 18 0;
#X restore 23 334 pd test-synth;
#N canvas 6 194 452 243 sequencer 0;
#X obj 230 3 r \$0-vodemo;
#X obj 276 64 tgl 15 0 empty empty empty 0 -6 0 10 -262144 -1 -1 0
1;
#X msg 276 83 \; pong-onoff \$1 \;;
#X obj 150 30 gate 3;
#X obj 150 3 r \$0-trigger;
#N canvas 15 48 593 756 chapter3 0;
#X msg -121 181 bang;
#X msg -85 181 next;
#X msg -44 181 rewind;
#X obj 4 204 qlist;
#X obj 4 230 print;
#X msg -130 72 bang;
#X msg -94 72 next;
#X msg -53 72 rewind;
#X obj -2 101 qlist;
#X obj 7 146 print;
#X msg 86 94 write intro.txt;
#X msg -125 513 bang;
#X msg -89 513 next;
#X msg -48 513 rewind;
#X obj 7 542 qlist;
#X obj 7 568 print;
#X msg 97 534 write robosersolo.txt;
#X msg 91 198 write sensing.txt;
#X msg -127 292 bang;
#X msg -91 292 next;
#X msg -50 292 rewind;
#X obj 5 321 qlist;
#X obj 5 347 print;
#X msg 92 318 write floor.txt;
#X msg -126 399 bang;
#X msg -90 399 next;
#X msg -49 399 rewind;
#X obj 6 428 qlist;
#X obj 6 454 print;
#X msg 89 421 write lightfingers.txt;
#X msg -124 610 bang;
#X msg -88 610 next;
#X msg -47 610 rewind;
#X obj 8 639 qlist;
#X obj 4 657 print;
#X msg 94 641 write interaction.txt;
#X obj -210 4 sel 1 2 3 4 5 6;
#X obj -210 -18 inlet;
#X obj -1 7 inlet;
#X msg -3 72 read data/qlists/autodemo/3_1_intro.txt;
#X msg 4 181 read data/qlists/autodemo/3_2_flying.txt;
#X msg 4 295 read data/qlists/autodemo/3_3_videos.txt;
#X msg 4 398 read data/qlists/autodemo/3_4_interaction.txt;
#X msg 8 512 read data/qlists/autodemo/3_5_pong.txt;
#X msg 8 616 read data/qlists/autodemo/3_6_farewell.txt;
#X obj 25 122 s clockreset;
#X obj -129 119 s clockonoff;
#X obj 31 251 s clockreset;
#X obj -120 249 s clockonoff;
#X obj 62 359 s clockreset;
#X obj -99 357 s clockonoff;
#X obj 77 472 s clockreset;
#X obj -74 470 s clockonoff;
#X obj 49 567 s clockreset;
#X obj -115 571 s clockonoff;
#X obj 52 668 s clockreset;
#X obj -123 658 s clockonoff;
#X connect 0 0 3 0;
#X connect 0 0 48 0;
#X connect 1 0 3 0;
#X connect 2 0 3 0;
#X connect 3 0 4 0;
#X connect 3 1 47 0;
#X connect 5 0 8 0;
#X connect 5 0 46 0;
#X connect 6 0 8 0;
#X connect 7 0 8 0;
#X connect 8 0 9 0;
#X connect 8 1 45 0;
#X connect 10 0 8 0;
#X connect 11 0 14 0;
#X connect 11 0 54 0;
#X connect 12 0 14 0;
#X connect 13 0 14 0;
#X connect 14 0 15 0;
#X connect 14 1 53 0;
#X connect 16 0 14 0;
#X connect 17 0 3 0;
#X connect 18 0 21 0;
#X connect 18 0 50 0;
#X connect 19 0 21 0;
#X connect 20 0 21 0;
#X connect 21 0 22 0;
#X connect 21 1 49 0;
#X connect 23 0 21 0;
#X connect 24 0 27 0;
#X connect 24 0 52 0;
#X connect 25 0 27 0;
#X connect 26 0 27 0;
#X connect 27 0 28 0;
#X connect 27 1 51 0;
#X connect 29 0 27 0;
#X connect 30 0 33 0;
#X connect 30 0 56 0;
#X connect 31 0 33 0;
#X connect 32 0 33 0;
#X connect 33 0 34 0;
#X connect 33 1 55 0;
#X connect 35 0 33 0;
#X connect 36 0 5 0;
#X connect 36 1 0 0;
#X connect 36 2 18 0;
#X connect 36 3 24 0;
#X connect 36 4 11 0;
#X connect 36 5 30 0;
#X connect 37 0 36 0;
#X connect 38 0 39 0;
#X connect 38 0 40 0;
#X connect 38 0 41 0;
#X connect 38 0 42 0;
#X connect 38 0 43 0;
#X connect 38 0 44 0;
#X connect 39 0 8 0;
#X connect 40 0 3 0;
#X connect 41 0 21 0;
#X connect 42 0 27 0;
#X connect 43 0 14 0;
#X connect 44 0 33 0;
#X restore 178 97 pd chapter3;
#N canvas 131 101 610 282 chapter1 0;
#X msg 7 74 bang;
#X msg 43 74 next;
#X msg 84 74 rewind;
#X obj 139 134 qlist;
#X msg 197 60 add 100 hey;
#X msg 222 105 write entrance.txt;
#X text 13 -13 Entrance;
#X obj 139 51 bng 15 250 50 0 empty empty empty 0 -6 0 10 -262144 -1
-1;
#X text 250 -15 read inside story qlists;
#X obj 68 27 sel 1;
#X obj 70 -8 inlet;
#X obj 138 -11 inlet;
#X msg 139 83 read data/qlists/autodemo/1_1_welcome.txt;
#X obj 252 184 s clockreset;
#X obj 98 181 s clockonoff;
#X connect 0 0 3 0;
#X connect 0 0 14 0;
#X connect 1 0 3 0;
#X connect 2 0 3 0;
#X connect 3 1 13 0;
#X connect 4 0 3 0;
#X connect 5 0 3 0;
#X connect 7 0 12 0;
#X connect 9 0 0 0;
#X connect 10 0 9 0;
#X connect 11 0 7 0;
#X connect 12 0 3 0;
#X restore 30 97 pd chapter1;
#N canvas 513 46 527 740 chapter2 0;
#X msg -122 193 bang;
#X msg -86 193 next;
#X msg -45 193 rewind;
#X obj 3 216 qlist;
#X obj 3 242 print;
#X text -130 37 Inside Story;
#X msg -130 72 bang;
#X msg -94 72 next;
#X msg -53 72 rewind;
#X obj -2 101 qlist;
#X obj -2 125 print;
#X msg 86 94 write intro.txt;
#X obj -130 104 slg.clock;
#X text -131 52 Intro;
#X obj -129 230 slg.clock;
#X msg -125 513 bang;
#X msg -89 513 next;
#X msg -48 513 rewind;
#X obj 7 542 qlist;
#X obj 7 568 print;
#X msg 97 534 write robosersolo.txt;
#X text -124 485 Roboser Solo;
#X obj -125 556 slg.clock;
#X text -125 170 Sensing;
#X msg 90 210 write sensing.txt;
#X msg -127 292 bang;
#X msg -91 292 next;
#X msg -50 292 rewind;
#X obj 5 321 qlist;
#X obj 5 347 print;
#X obj -127 342 slg.clock;
#X text -128 272 Floor;
#X msg 92 318 write floor.txt;
#X msg -126 399 bang;
#X msg -90 399 next;
#X msg -49 399 rewind;
#X obj 6 428 qlist;
#X obj 6 454 print;
#X obj -126 442 slg.clock;
#X text -127 379 Light Fingers;
#X msg 89 421 write lightfingers.txt;
#X msg -124 610 bang;
#X msg -88 610 next;
#X msg -47 610 rewind;
#X obj 8 639 qlist;
#X obj 8 656 print;
#X obj -124 643 slg.clock;
#X text -126 582 Interaction;
#X msg 94 641 write interaction.txt;
#X obj -210 4 sel 1 2 3 4 5 6;
#X obj -210 -18 inlet;
#X obj -1 7 inlet;
#X msg -3 72 read data/qlists/autodemo/2_1_intro.txt;
#X msg 3 192 read data/qlists/autodemo/2_2_sensing.txt;
#X msg 4 295 read data/qlists/autodemo/2_3_floor.txt;
#X msg 4 398 read data/qlists/autodemo/2_4_fingers.txt;
#X msg 8 512 read data/qlists/autodemo/2_5_roboser.txt;
#X msg 8 616 read data/qlists/autodemo/2_6_interaction.txt;
#X obj 69 153 s clockreset;
#X obj -85 150 s clockonoff;
#X obj 91 267 s clockreset;
#X obj -63 264 s clockonoff;
#X obj 96 371 s clockreset;
#X obj -58 368 s clockonoff;
#X obj 101 484 s clockreset;
#X obj -53 481 s clockonoff;
#X obj 101 587 s clockreset;
#X obj -53 584 s clockonoff;
#X obj 94 681 s clockreset;
#X obj -60 678 s clockonoff;
#X connect 0 0 3 0;
#X connect 0 0 14 0;
#X connect 0 0 61 0;
#X connect 1 0 3 0;
#X connect 2 0 3 0;
#X connect 3 0 4 0;
#X connect 3 1 14 1;
#X connect 3 1 60 0;
#X connect 6 0 9 0;
#X connect 6 0 12 0;
#X connect 6 0 59 0;
#X connect 7 0 9 0;
#X connect 8 0 9 0;
#X connect 9 0 10 0;
#X connect 9 1 12 1;
#X connect 9 1 58 0;
#X connect 11 0 9 0;
#X connect 15 0 18 0;
#X connect 15 0 22 0;
#X connect 15 0 67 0;
#X connect 16 0 18 0;
#X connect 17 0 18 0;
#X connect 18 0 19 0;
#X connect 18 1 22 1;
#X connect 18 1 66 0;
#X connect 20 0 18 0;
#X connect 24 0 3 0;
#X connect 25 0 28 0;
#X connect 25 0 30 0;
#X connect 25 0 63 0;
#X connect 26 0 28 0;
#X connect 27 0 28 0;
#X connect 28 0 29 0;
#X connect 28 1 30 1;
#X connect 28 1 62 0;
#X connect 32 0 28 0;
#X connect 33 0 36 0;
#X connect 33 0 38 0;
#X connect 33 0 65 0;
#X connect 34 0 36 0;
#X connect 35 0 36 0;
#X connect 36 0 37 0;
#X connect 36 1 38 1;
#X connect 36 1 64 0;
#X connect 40 0 36 0;
#X connect 41 0 44 0;
#X connect 41 0 46 0;
#X connect 41 0 69 0;
#X connect 42 0 44 0;
#X connect 43 0 44 0;
#X connect 44 0 45 0;
#X connect 44 1 46 1;
#X connect 44 1 68 0;
#X connect 48 0 44 0;
#X connect 49 0 6 0;
#X connect 49 1 0 0;
#X connect 49 2 25 0;
#X connect 49 3 33 0;
#X connect 49 4 15 0;
#X connect 49 5 41 0;
#X connect 50 0 49 0;
#X connect 51 0 52 0;
#X connect 51 0 53 0;
#X connect 51 0 54 0;
#X connect 51 0 55 0;
#X connect 51 0 56 0;
#X connect 51 0 57 0;
#X connect 52 0 9 0;
#X connect 53 0 3 0;
#X connect 54 0 28 0;
#X connect 55 0 36 0;
#X connect 56 0 18 0;
#X connect 57 0 44 0;
#X restore 103 97 pd chapter2;
#X obj 93 3 loadbang;
#X obj 93 54 bng 15 250 50 0 empty empty empty 0 -6 0 10 -262144 -1
-1;
#X obj 30 120 r comment;
#X obj 30 144 print comment;
#X obj 44 16 inlet;
#X connect 0 0 3 1;
#X connect 1 0 2 0;
#X connect 3 0 6 0;
#X connect 3 1 7 0;
#X connect 3 2 5 0;
#X connect 4 0 3 0;
#X connect 8 0 9 0;
#X connect 9 0 6 1;
#X connect 9 0 7 1;
#X connect 9 0 5 1;
#X connect 10 0 11 0;
#X connect 12 0 9 0;
#X restore 356 341 pd sequencer;
#N canvas 12 22 380 184 test-score 0;
#X obj 29 90 s \$0-trigger;
#X obj 137 94 s \$0-vodemo;
#X msg 29 63 1;
#X msg 137 65 1;
#X text 28 6 -- Sequencer ---;
#X msg 57 64 2;
#X msg 165 65 2;
#X msg 196 66 3;
#X msg 88 64 3;
#X text 31 40 chapters;
#X text 150 39 sections;
#X msg 226 66 4;
#X msg 255 66 5;
#X msg 286 67 6;
#X connect 2 0 0 0;
#X connect 3 0 1 0;
#X connect 5 0 0 0;
#X connect 6 0 1 0;
#X connect 7 0 1 0;
#X connect 8 0 0 0;
#X connect 11 0 1 0;
#X connect 12 0 1 0;
#X connect 13 0 1 0;
#X restore 342 363 pd test-score;
#N canvas 46 433 374 334 pong-tictac 0;
#X obj 77 57 aepd_v1/aeTM3_2;
#X obj 77 30 r pong-onoff;
#X obj 77 93 slg.gain2-2~;
#X obj 57 31 tgl 15 0 empty empty empty 0 -6 0 10 -262144 -1 -1 0 1
;
#X obj 123 6 r pong-volume;
#X obj 77 228 throw~ musicL;
#X obj 162 227 throw~ musicR;
#X msg 215 34 -6;
#X obj 215 10 loadbang;
#X connect 0 0 2 0;
#X connect 0 1 2 1;
#X connect 1 0 0 0;
#X connect 2 0 5 0;
#X connect 2 1 6 0;
#X connect 3 0 0 0;
#X connect 4 0 2 2;
#X connect 7 0 2 3;
#X connect 8 0 7 0;
#X restore 342 446 pd pong-tictac;
#N canvas 0 22 258 149 test-pong 0;
#X obj 26 35 tgl 15 0 empty empty empty 0 -6 0 10 -262144 -1 -1 0 1
;
#X obj 26 56 s pong-onoff;
#X obj 108 56 s pong-volume;
#X floatatom 108 37 5 0 0 0 - - -;
#X text 33 8 --- Pong ---;
#X connect 0 0 1 0;
#X connect 3 0 2 0;
#X restore 342 422 pd test-pong;
#N canvas 36 184 1241 720 energy 0;
#X obj 17 -22 r \$0-energy;
#X obj 346 -50 r \$0-energybell;
#X floatatom 14 27 5 0 0 0 - - -;
#X floatatom 357 -18 5 0 0 0 - - -;
#X obj 14 229 s bfreqr;
#X obj 568 -14 s sine-onoff;
#X obj 568 -50 tgl 15 0 empty empty empty 0 -6 0 10 -262144 -1 -1 0
1;
#X obj 439 -6 s additive-onoff;
#X obj 17 325 s additive-transpose;
#X obj 382 134 slg.loadsample~;
#X obj 456 198 throw~ sfxR;
#X obj 382 199 throw~ sfxL;
#X obj 346 76 sel 1;
#X msg 346 105 0;
#X msg 382 106 1;
#X obj 417 80 loadbang;
#X obj 346 49 debounce 2000;
#X msg 417 104 autodemo/data/wav/sfx/pong/win.wav;
#X obj 755 180 s bpm;
#X obj 14 208 maxlib/scale 0 0.5 30 50;
#X obj 17 301 maxlib/scale 0 0.5 -12 12;
#X floatatom 831 146 5 0 0 0 - - -;
#X obj 755 155 + 100;
#X obj 263 292 mean;
#X obj 246 378 sel 1 0;
#X msg 246 402 1;
#X msg 278 401 0;
#X obj 246 351 >= 0.1;
#X floatatom 818 181 5 0 0 0 - - -;
#X obj 400 376 sel 1 0;
#X msg 400 400 1;
#X msg 432 399 0;
#X obj 400 352 >= 0.05;
#X obj 556 365 sel 1 0;
#X msg 556 389 1;
#X msg 588 388 0;
#X obj 556 341 >= 0.14;
#X obj 717 371 sel 1 0;
#X msg 717 395 1;
#X msg 749 394 0;
#X obj 556 416 s basscell-onoff;
#X obj 717 347 >= 0.2;
#X obj 717 427 s tribasscell-onoff;
#X obj 883 372 sel 1 0;
#X msg 883 396 1;
#X msg 915 395 0;
#X obj 883 428 s trimelocell-onoff;
#X obj 654 -14 s start;
#X obj 883 348 >= 0.26;
#X obj 705 18 s bassline-onoff;
#X obj 417 290 mean;
#X obj 571 286 mean;
#X obj 737 285 mean;
#X obj 898 281 mean;
#X obj 755 83 r \$0-energy;
#X obj 674 103 cyclone/mean;
#X obj 568 -71 r nrginteract-onoff;
#X obj 246 429 s beat2-onoff;
#X obj 400 426 s beat3-onoff;
#X obj 246 315 maxlib/scale 0 0.7 0 0.3;
#X obj 400 316 maxlib/scale 0 0.7 0 0.3;
#X obj 556 316 maxlib/scale 0 0.7 0 0.3;
#X obj 717 318 maxlib/scale 0 0.7 0 0.3;
#X obj 883 318 maxlib/scale 0 0.7 0 0.3;
#X floatatom 199 369 5 0 0 0 - - -;
#X obj 993 -23 vsl 15 128 0 0.7 0 0 empty empty empty 0 -8 0 10 -262144
-1 -1 0 1;
#X obj 993 123 s \$0-energy;
#X obj 1048 381 sel 1 0;
#X msg 1048 405 1;
#X msg 1080 404 0;
#X obj 1063 272 mean;
#X obj 1048 300 maxlib/scale 0 0.7 0 0.3;
#X obj 1048 330 >= 0.23;
#X obj 1048 437 s beat4-onoff;
#X obj 499 31 loadbang;
#X msg 500 52 1.5;
#X obj 92 19 line;
#X obj 15 70 * 1;
#X obj 14 187 r \$0-energy-smooth;
#X obj 17 278 r \$0-energy-smooth;
#X obj 24 131 s \$0-energy-smooth;
#X obj 136 -36 delay 2000;
#X obj 368 15 bng 15 250 50 0 empty empty empty 0 -6 0 10 -262144 -1
-1;
#X msg 387 12 1;
#X obj 246 266 r \$0-energy-smooth;
#X obj 717 249 r \$0-energy-smooth;
#X obj 556 260 r \$0-energy-smooth;
#X obj 883 251 r \$0-energy-smooth;
#X obj 1048 242 r \$0-energy-smooth;
#X obj 400 260 r \$0-energy-smooth;
#X floatatom 124 60 5 0 0 0 - - -;
#X floatatom 171 106 5 0 0 0 - - -;
#X obj 76 40 t b f;
#X obj 346 132 bng 15 250 50 0 empty empty empty 0 -6 0 10 -262144
-1 -1;
#X obj 145 -65 bng 15 250 50 0 empty empty empty 0 -6 0 10 -262144
-1 -1;
#X obj 148 26 bng 15 250 50 0 empty empty empty 0 -6 0 10 -262144 -1
-1;
#X obj 218 10 bng 15 250 50 0 empty empty empty 0 -6 0 10 -262144 -1
-1;
#X msg 92 -67 0 5000;
#X msg 223 -44 5000;
#X msg 136 -5 1 5000;
#X obj 223 -68 loadbang;
#X obj 755 128 * 50;
#X obj 705 -14 s sawswoop-onoff;
#X obj 218 454 timeroll;
#X obj 15 454 timeroll;
#X floatatom 176 68 5 0 0 0 - - -;
#X floatatom 198 179 5 0 0 0 - - -;
#X msg 227 75 0.5;
#X obj 24 108 mavg 35;
#X connect 0 0 2 0;
#X connect 0 0 77 0;
#X connect 1 0 3 0;
#X connect 1 0 16 0;
#X connect 6 0 5 0;
#X connect 6 0 7 0;
#X connect 6 0 47 0;
#X connect 6 0 49 0;
#X connect 6 0 102 0;
#X connect 9 0 10 0;
#X connect 9 0 11 0;
#X connect 12 0 13 0;
#X connect 12 0 14 0;
#X connect 14 0 9 0;
#X connect 14 0 93 0;
#X connect 15 0 17 0;
#X connect 16 0 12 0;
#X connect 17 0 9 1;
#X connect 19 0 4 0;
#X connect 20 0 8 0;
#X connect 22 0 18 0;
#X connect 22 0 28 0;
#X connect 24 0 25 0;
#X connect 24 1 26 0;
#X connect 25 0 57 0;
#X connect 26 0 57 0;
#X connect 27 0 24 0;
#X connect 29 0 30 0;
#X connect 29 1 31 0;
#X connect 30 0 58 0;
#X connect 31 0 58 0;
#X connect 32 0 29 0;
#X connect 33 0 34 0;
#X connect 33 1 35 0;
#X connect 34 0 40 0;
#X connect 35 0 40 0;
#X connect 36 0 33 0;
#X connect 37 0 38 0;
#X connect 37 1 39 0;
#X connect 38 0 42 0;
#X connect 39 0 42 0;
#X connect 41 0 37 0;
#X connect 43 0 44 0;
#X connect 43 1 45 0;
#X connect 44 0 46 0;
#X connect 45 0 46 0;
#X connect 48 0 43 0;
#X connect 54 0 55 0;
#X connect 54 0 101 0;
#X connect 56 0 6 0;
#X connect 59 0 27 0;
#X connect 59 0 64 0;
#X connect 60 0 32 0;
#X connect 61 0 36 0;
#X connect 62 0 41 0;
#X connect 63 0 48 0;
#X connect 65 0 66 0;
#X connect 67 0 68 0;
#X connect 67 1 69 0;
#X connect 68 0 73 0;
#X connect 69 0 73 0;
#X connect 71 0 72 0;
#X connect 72 0 67 0;
#X connect 74 0 75 0;
#X connect 75 0 9 2;
#X connect 76 0 90 0;
#X connect 76 0 92 0;
#X connect 77 0 91 0;
#X connect 77 0 104 0;
#X connect 77 0 108 0;
#X connect 78 0 19 0;
#X connect 79 0 20 0;
#X connect 81 0 99 0;
#X connect 81 0 96 0;
#X connect 82 0 16 0;
#X connect 83 0 16 0;
#X connect 84 0 23 0;
#X connect 84 0 59 0;
#X connect 85 0 52 0;
#X connect 85 0 62 0;
#X connect 86 0 51 0;
#X connect 86 0 61 0;
#X connect 87 0 53 0;
#X connect 87 0 63 0;
#X connect 88 0 70 0;
#X connect 88 0 71 0;
#X connect 89 0 50 0;
#X connect 89 0 60 0;
#X connect 92 0 77 0;
#X connect 92 1 77 1;
#X connect 93 0 97 0;
#X connect 94 0 81 0;
#X connect 97 0 76 0;
#X connect 97 0 94 0;
#X connect 98 0 81 1;
#X connect 99 0 76 0;
#X connect 99 0 95 0;
#X connect 100 0 98 0;
#X connect 101 0 21 0;
#X connect 101 0 22 0;
#X connect 108 0 80 0;
#X connect 108 0 103 0;
#X restore 251 389 pd energy;
#X obj 23 221 slg.tristimulusynth~;
#X obj 338 153 comment 196 20 Times ? 0 255 128 0 Texture;
#N canvas 0 22 470 320 scales 0;
#X msg 55 9 0 2 4 5 7 9 11;
#X text 166 10 major;
#X msg 73 36 0 1 4 5 7 8 11;
#X msg 87 64 0 2 4 6 7 9 10;
#X msg 110 95 0 2 3 5 7 8 11;
#X msg 138 145 0 2 4 6 8 10;
#X msg 151 170 0 2 3 5 6 8 9 11;
#X text 188 37 middle-east-like minor;
#X text 201 66 lydian-dominant (jazzy);
#X text 229 96 harmonic minor;
#X msg 126 123 0 2 3 4 5 6 7 9 10 11;
#X text 276 123 chromatic blues;
#X text 246 149 whole-tones scale;
#X text 274 171 diminished scale;
#X msg 168 195 0 2 4 7 9;
#X text 250 198 pentatonic;
#X text 277 221 pentatonic blues;
#X msg 173 222 0 2 3 4 7 8 9;
#X restore 340 113 pd scales;
#X obj 731 103 comment 196 20 Times ? 0 255 128 0 Analysis;
#N canvas 55 374 1176 517 voice-over 0;
#X obj 714 220 sample.bank outside;
#X msg 714 198 read data/banks/outside.bank.coll;
#X obj 714 126 sample.bank intro;
#X msg 714 103 read data/banks/intro.bank.coll;
#X obj 714 175 sample.bank inside;
#X msg 714 150 read data/banks/inside.bank.coll;
#X obj 477 268 sample.play~;
#X obj 84 139 sample.display_;
#X obj 84 231 sample.bounds_;
#X obj 84 284 sample.adsr_;
#X obj 546 145 midi.note.close;
#X obj 84 79 sample.r;
#X obj 714 75 loadbang;
#X msg 584 5 inside \$1;
#X msg 476 -20 intro \$1;
#X msg 683 -2 outside \$1;
#X obj 898 -69 s outside;
#X obj 504 -105 r awasample;
#X msg 930 -91 -1;
#X msg 898 -92 0;
#X msg 750 24 -1;
#X msg 718 23 0;
#X obj 718 46 s welcome-onoff;
#X obj 398 -106 r welcome-onoff;
#X obj 819 46 s awasample;
#X msg 938 204 read data;
#X obj 477 295 throw~ voiceL;
#X obj 570 295 throw~ voiceR;
#X msg 608 116 60 0;
#X obj 449 -52 t b f;
#X obj 555 -44 t b f;
#X obj 656 -43 t b f;
#X obj 398 -78 route off;
#X msg 801 -91 off;
#X obj 504 -77 route off;
#X obj 605 -78 route off;
#X obj 584 -18 - 1;
#X obj 682 -23 - 1;
#X obj 605 -106 r outside;
#X msg 86 -1 inside 1;
#X msg 147 0 inside 2;
#X msg 22 0 inside 0;
#X msg 819 20 1;
#X msg 851 21 2;
#X msg 883 21 3;
#X obj 714 324 sample.bank test;
#X msg 32 -74 test 0;
#X msg 758 262 0 /Users/Shared/Musebot/addons/pdmtl/medias/sounds/loop0.wav
;
#X msg 82 -74 test 1;
#X msg 757 286 1 /Users/Shared/Musebot/addons/pdmtl/medias/sounds/drum01.wav
;
#X obj 87 -103 t b b;
#X obj 87 -123 bng 15 250 50 0 empty empty empty 0 -6 0 10 -262144
-1 -1;
#X obj 281 -94 t b b;
#X obj 281 -114 bng 15 250 50 0 empty empty empty 0 -6 0 10 -262144
-1 -1;
#X obj 281 -45 delay 100;
#X msg 546 119 60 127;
#X obj 451 36 delay 100;
#X obj 555 44 delay 100;
#X obj 633 54 delay 100;
#X connect 1 0 0 0;
#X connect 3 0 2 0;
#X connect 5 0 4 0;
#X connect 6 0 26 0;
#X connect 6 1 27 0;
#X connect 7 0 8 0;
#X connect 8 0 9 0;
#X connect 10 0 6 1;
#X connect 11 0 6 0;
#X connect 11 0 7 0;
#X connect 12 0 3 0;
#X connect 12 0 5 0;
#X connect 12 0 1 0;
#X connect 12 0 47 0;
#X connect 12 0 49 0;
#X connect 13 0 11 0;
#X connect 14 0 11 0;
#X connect 15 0 11 0;
#X connect 17 0 34 0;
#X connect 18 0 16 0;
#X connect 19 0 16 0;
#X connect 20 0 22 0;
#X connect 21 0 22 0;
#X connect 23 0 32 0;
#X connect 28 0 6 1;
#X connect 29 0 56 0;
#X connect 29 1 14 0;
#X connect 30 0 57 0;
#X connect 30 1 36 0;
#X connect 31 0 58 0;
#X connect 31 1 37 0;
#X connect 32 0 28 0;
#X connect 32 1 29 0;
#X connect 34 0 28 0;
#X connect 34 1 30 0;
#X connect 35 0 28 0;
#X connect 35 1 31 0;
#X connect 36 0 13 0;
#X connect 37 0 15 0;
#X connect 38 0 35 0;
#X connect 39 0 11 0;
#X connect 40 0 11 0;
#X connect 41 0 11 0;
#X connect 42 0 24 0;
#X connect 43 0 24 0;
#X connect 44 0 24 0;
#X connect 46 0 11 0;
#X connect 47 0 45 0;
#X connect 48 0 11 0;
#X connect 49 0 45 0;
#X connect 50 0 55 0;
#X connect 50 1 48 0;
#X connect 51 0 50 0;
#X connect 52 0 54 0;
#X connect 52 1 40 0;
#X connect 53 0 52 0;
#X connect 54 0 55 0;
#X connect 55 0 10 0;
#X connect 56 0 55 0;
#X connect 57 0 55 0;
#X connect 58 0 55 0;
#X coords 0 0 1 1 310 90 0;
#X restore 25 437 pd voice-over;
#X obj 509 242 comment 196 20 Times ? 0 255 128 0 Recording;
#X obj 507 207 comment 196 20 Times ? 0 255 128 0 Emotion-Control;
#N canvas 19 600 285 278 tempo 0;
#X obj 136 173 slg.clock;
#X obj 27 114 timing.tempo_;
#X obj 27 166 s beat;
#X floatatom 32 7 5 0 0 0 - - -;
#X obj 32 26 s bpm;
#X floatatom 75 7 5 0 0 0 - - -;
#X obj 75 26 s steps;
#X obj 82 90 r bpm;
#X obj 190 92 r steps;
#X obj 174 -8 tgl 15 0 empty empty empty 0 -6 0 10 -262144 -1 -1 0
1;
#X obj 137 26 s start;
#X obj 28 90 r start;
#X obj 32 -40 loadbang;
#X msg 32 -17 120;
#X msg 75 -16 16;
#X obj 137 -9 inlet;
#X connect 1 0 2 0;
#X connect 3 0 4 0;
#X connect 5 0 6 0;
#X connect 7 0 1 1;
#X connect 8 0 1 3;
#X connect 9 0 10 0;
#X connect 11 0 1 0;
#X connect 12 0 13 0;
#X connect 12 0 14 0;
#X connect 13 0 3 0;
#X connect 14 0 5 0;
#X connect 15 0 10 0;
#X restore 24 101 pd tempo;
#X obj 21 32 slg.clock;
#X obj 21 8 r clockonoff;
#X obj 100 8 r clockreset;
#N canvas 91 146 1035 158 2midisynths 0;
#X obj 25 54 slg.DLSPlayer;
#X obj 25 7 r midisynth-note;
#X obj 129 7 r midisynth-velocity;
#X obj 258 7 r midisynth-channel;
#X obj 384 9 r midisynth-pc;
#X obj 482 8 r midisynth-volume;
#X obj 611 8 r midisynth-modulation;
#X obj 757 9 r midisynth-panning;
#X obj 886 9 r midisynth-pitchbend;
#X connect 1 0 0 0;
#X connect 2 0 0 1;
#X connect 3 0 0 3;
#X connect 4 0 0 4;
#X connect 5 0 0 5;
#X connect 6 0 0 6;
#X connect 7 0 0 7;
#X connect 8 0 0 8;
#X restore 23 281 pd 2midisynths;
#X obj 23 305 addons/obi/G2-padsynth;
#X obj 342 393 comment 196 20 Times ? 0 255 128 0 Misc.;
#N canvas 619 22 669 514 all-off 0;
#X obj 176 52 r allsynthsoff;
#X obj 35 305 r alltexturesoff;
#X msg 37 95 \; welcome-onoff off \; awasample off \; outside off \;
garden off \; readsoundfile 0 \; int26 0 \; happy-onoff 0 \; happytechno-onoff
0 \; sense-onoff 0 \; happysynth-onoff 0 \; pong off \;;
#X obj 37 72 r allsamplesoff;
#X obj 37 12 inlet;
#X msg 304 72 \; start 0 \;;
#X obj 304 49 r tempo-off;
#X msg 286 257 \; trimelocell-onoff 0 \; tribasscell-onoff 0 \; basscell-onoff
0 \; sawswoop-onoff 0 \; bassline-onoff 0 \; r2d2-onoff 0 \;;
#X obj 435 226 r allrhythmcellsoff;
#X obj 286 227 r allpitchcellsoff;
#X msg 451 366 \; nrginteract-onoff 0 \;;
#X msg 445 283 \; fourtrack-onoff 0 \; scarsevent-onoff 0 \;;
#X text 237 411 sea-onoff triggers last;
#X msg 176 73 \; sine-onoff 0 \; additive-onoff 0 \; sawswoop-onoff
0 \; bassline-onoff 0 \; r2d2-onoff 0 \; padsynth-onoff 0 \;;
#X obj 393 48 r spat-off;
#X msg 393 71 \; spat-volume 0 \; spat-onoff 0 \;;
#X msg 35 327 \; wind-onoff 0 \; child-onoff 0 \; storm-onoff 0 \;
substractive-onoff 0 \; outerspace-onoff 0 \; child-volume 20 \;;
#X connect 0 0 13 0;
#X connect 1 0 16 0;
#X connect 3 0 2 0;
#X connect 4 0 2 0;
#X connect 4 0 13 0;
#X connect 4 0 16 0;
#X connect 4 0 5 0;
#X connect 4 0 7 0;
#X connect 4 0 11 0;
#X connect 4 0 10 0;
#X connect 4 0 15 0;
#X connect 6 0 5 0;
#X connect 8 0 11 0;
#X connect 9 0 7 0;
#X connect 14 0 15 0;
#X restore 733 73 pd all-off;
#X obj 733 7 comment 196 20 Times ? 0 255 128 0 Emergency;
#X text 23 151 Mono;
#X text 24 263 Poly;
#X obj 23 245 addons/obi/M1-strings;
#X text 177 148 Drums;
#X obj 178 167 addons/obi/H1-drums;
#X obj 177 247 addons/obi/I1-bassline;
#X text 177 225 Bass;
#X obj 177 271 addons/obi/L1-sawswoop;
#N canvas 160 173 1146 662 pitch-material 0;
#X obj -10 64 slg.randnotepick;
#X obj 7 179 slg.scalize;
#X obj 187 149 musical.arpeggio 0 4 7 11;
#X obj 187 170 + 36;
#X obj 187 127 count.up&down 0 25;
#X obj 234 589 s trisynth-note;
#X obj 188 250 pack f f;
#X msg 233 229 120;
#X obj 188 208 t f b;
#X obj 234 566 pack f f;
#X obj 234 497 t f b;
#X msg 280 518 127;
#X obj 445 521 s hollowstring-note;
#X msg 445 496 60;
#X msg 477 496 80;
#X obj 708 358 slg.randnotepick;
#X obj 708 480 slg.scalize;
#X msg 770 123 50 52 66 69 76 79 83 86;
#X msg 735 144 50 48 64 67 76 79 81 86;
#X msg 709 165 52 48 64 67 76 79 81 83;
#X text -12 18 PITCH;
#X text 656 35 HARMONY;
#X obj 707 315 s padsynth-chords;
#X msg 334 114 0 4 7 11;
#X obj 918 409 s bass-chords;
#X obj 508 337 s sawswoop-chords;
#X obj 605 39 r beat;
#X floatatom 669 56 5 0 0 0 - - -;
#X obj 605 61 mod 12;
#X obj 607 126 sel 0 1 2;
#X obj 605 106 random 2;
#X obj 774 86 prepend set;
#X msg 738 107 2;
#X obj 605 84 sel 0;
#X obj 186 53 r beat;
#X msg 400 114 0 4 7 11 14;
#X obj 740 241 tgl 15 0 empty empty empty 0 -6 0 10 -262144 -1 -1 0
1;
#X obj 707 266 spigot;
#X msg 964 331 0 0 0 0 0 0 0 0 0;
#X obj -10 41 r prob;
#X obj -10 281 musical.closest.note 0 4 7 11;
#X obj 188 274 spigot;
#X obj 274 259 tgl 15 0 empty empty empty 0 -6 0 10 -262144 -1 -1 0
1;
#X obj -10 304 - 12;
#X obj -10 370 spigot;
#X floatatom 327 521 5 0 0 0 - - -;
#X obj 234 540 makenote 127 500;
#X obj 258 173 r transpose;
#X obj 189 189 + 0;
#X obj 22 321 r transpose;
#X obj -10 346 + 0;
#X obj 281 50 s transpose;
#X floatatom 211 8 5 0 0 0 - - -;
#X obj 999 358 r transpose;
#X obj 918 386 list-apply + 0;
#X obj 788 232 r transpose;
#X obj 707 289 list-apply + 0;
#X obj 706 189 s accords;
#X obj 707 222 r accords;
#X msg 372 6 4;
#X msg 255 6 0;
#X msg 403 6 5;
#X msg 344 6 3;
#X msg 284 6 1;
#X msg 314 6 2;
#X msg 918 247 50 52;
#X obj 918 206 r accords;
#X obj 918 229 bng 15 250 50 0 empty empty empty 0 -6 0 10 -262144
-1 -1;
#X msg 439 6 6;
#X msg 469 6 7;
#X msg 499 6 8;
#X msg 527 6 9;
#X msg 558 5 10;
#X msg 591 5 11;
#X msg 622 4 12;
#X obj 964 274 tgl 15 0 empty empty empty 0 -6 0 10 -262144 -1 -1 0
1;
#X obj 918 303 spigot;
#X obj 964 302 sel 0;
#X obj 100 349 tgl 15 0 empty empty empty 0 -6 0 10 -262144 -1 -1 0
1;
#X obj 541 261 tgl 15 0 empty empty empty 0 -6 0 10 -262144 -1 -1 1
1;
#X obj 508 286 spigot;
#X obj 589 252 r transpose;
#X obj 508 309 list-apply + 0;
#X obj 508 236 r accords;
#X obj 100 324 r tribasscell-onoff;
#X obj 964 252 r basscell-onoff;
#X obj 274 232 r trimelocell-onoff;
#X obj 541 208 r sawswoop-onoff;
#X msg 25 258 12;
#X obj 234 365 slg.passpct 50;
#X obj 234 407 float;
#X obj 279 408 bng 15 250 50 0 empty empty empty 0 -6 0 10 -262144
-1 -1;
#X obj 234 339 bng 15 250 50 0 empty empty empty 0 -6 0 10 -262144
-1 -1;
#X floatatom 282 437 5 0 0 0 - - -;
#X obj 234 316 t f b;
#X obj -9 451 slg.passpct 50;
#X obj -9 493 float;
#X obj -9 425 bng 15 250 50 0 empty empty empty 0 -6 0 10 -262144 -1
-1;
#X obj -9 402 t f b;
#X obj 20 515 bng 15 250 50 0 empty empty empty 0 -6 0 10 -262144 -1
-1;
#X floatatom 319 338 5 0 0 0 - - -;
#X obj 486 168 s sawswoop-onoff;
#X obj 486 146 tgl 15 0 empty empty empty 0 -6 0 10 -262144 -1 -1 0
1;
#X obj 789 202 r padsynth-onoff;
#X obj 401 567 prepend set;
#X msg 401 590 52 127;
#X connect 0 0 1 0;
#X connect 0 0 40 0;
#X connect 2 0 3 0;
#X connect 3 0 48 0;
#X connect 4 0 2 0;
#X connect 6 0 41 0;
#X connect 7 0 6 1;
#X connect 8 0 6 0;
#X connect 8 1 7 0;
#X connect 9 0 5 0;
#X connect 9 0 104 0;
#X connect 10 0 46 0;
#X connect 10 1 11 0;
#X connect 11 0 46 1;
#X connect 13 0 12 0;
#X connect 14 0 12 0;
#X connect 15 0 16 0;
#X connect 17 0 57 0;
#X connect 18 0 57 0;
#X connect 19 0 57 0;
#X connect 23 0 2 1;
#X connect 26 0 27 0;
#X connect 26 0 28 0;
#X connect 28 0 31 0;
#X connect 28 0 33 0;
#X connect 29 0 19 0;
#X connect 29 1 18 0;
#X connect 29 2 17 0;
#X connect 30 0 29 0;
#X connect 31 0 32 0;
#X connect 33 0 30 0;
#X connect 34 0 4 0;
#X connect 35 0 2 1;
#X connect 36 0 37 1;
#X connect 37 0 56 0;
#X connect 38 0 54 0;
#X connect 39 0 0 0;
#X connect 40 0 43 0;
#X connect 41 0 94 0;
#X connect 42 0 41 1;
#X connect 43 0 50 0;
#X connect 44 0 98 0;
#X connect 45 0 46 2;
#X connect 46 0 9 0;
#X connect 46 1 9 1;
#X connect 47 0 48 1;
#X connect 48 0 8 0;
#X connect 49 0 50 1;
#X connect 50 0 44 0;
#X connect 52 0 51 0;
#X connect 53 0 54 2;
#X connect 54 0 24 0;
#X connect 55 0 56 2;
#X connect 56 0 22 0;
#X connect 58 0 37 0;
#X connect 59 0 51 0;
#X connect 60 0 51 0;
#X connect 61 0 51 0;
#X connect 62 0 51 0;
#X connect 63 0 51 0;
#X connect 64 0 51 0;
#X connect 65 0 76 0;
#X connect 66 0 67 0;
#X connect 67 0 65 0;
#X connect 68 0 51 0;
#X connect 69 0 51 0;
#X connect 70 0 51 0;
#X connect 71 0 51 0;
#X connect 72 0 51 0;
#X connect 73 0 51 0;
#X connect 74 0 51 0;
#X connect 75 0 76 1;
#X connect 75 0 77 0;
#X connect 76 0 54 0;
#X connect 77 0 38 0;
#X connect 78 0 44 1;
#X connect 79 0 80 1;
#X connect 80 0 82 0;
#X connect 81 0 82 2;
#X connect 82 0 25 0;
#X connect 83 0 80 0;
#X connect 84 0 78 0;
#X connect 85 0 75 0;
#X connect 86 0 42 0;
#X connect 87 0 79 0;
#X connect 88 0 43 1;
#X connect 89 0 90 0;
#X connect 89 0 91 0;
#X connect 90 0 10 0;
#X connect 90 0 93 0;
#X connect 92 0 89 0;
#X connect 94 0 90 1;
#X connect 94 1 92 0;
#X connect 95 0 96 0;
#X connect 95 0 99 0;
#X connect 96 0 10 0;
#X connect 97 0 95 0;
#X connect 98 0 96 1;
#X connect 98 1 97 0;
#X connect 100 0 89 1;
#X connect 102 0 101 0;
#X connect 103 0 36 0;
#X connect 104 0 105 0;
#X restore 340 89 pd pitch-material;
#N canvas 17 77 1271 588 rhythmic-material 0;
#X obj 270 66 seq.8x8_;
#X obj 563 44 seq.tgl8_;
#X obj 19 38 r bpm;
#X obj 137 103 r start;
#X obj 175 135 r melorhythm;
#X obj 20 156 slg.miniseq;
#X obj 57 58 r steps;
#X obj 98 77 r stepsperbeat;
#X floatatom 21 296 5 0 0 0 - - -;
#X obj 57 294 bng 15 250 50 0 empty empty empty 0 -6 0 10 -262144 -1
-1;
#X msg 425 41 1 0 0 0 0 1 1 1 1;
#X obj 563 69 bng 15 250 50 0 empty empty empty 0 -6 0 10 -262144 -1
-1;
#X obj 563 23 r beat;
#X obj 270 26 r beat;
#X obj 270 236 prepend set;
#X msg 270 260 0 0 0 0 0 0 0 0;
#X obj 498 106 r beat;
#X obj 506 214 bng 15 250 50 0 empty empty empty 0 -6 0 10 -262144
-1 -1;
#X msg 454 145 on;
#X msg 452 170 off;
#X obj 555 174 slg.seq12;
#X msg 615 106 0 0 0 0 0 0 0 0 0 0 0 0;
#X obj 505 295 s cyberbeat;
#X msg 505 272 0;
#X obj 580 296 s cyberbeat;
#X msg 580 273 1;
#X obj 656 294 s cyberbeat;
#X msg 656 271 2;
#X obj 739 295 s cyberbeat;
#X msg 739 272 3;
#X msg 844 127 1 0 0 0 0 0 1 0 0 0 0 0;
#X msg 844 157 0 0 0 1 0 0 0 0 0 1 0 0;
#X msg 845 188 0 1 0 0 0 0 0 0 0 0 0 0;
#X msg 846 219 0 0 0 0 0 0 0 1 0 0 0 1;
#X obj 843 101 loadbang;
#X msg 206 48 0 0 0 1 0 0 0 0 0 1 0 0;
#X obj 114 307 s prob;
#X obj 433 291 s bombo;
#X obj 585 325 s cowbell;
#X msg 20 360 0.52381 0.412698 0.619048 0.460317 0.444444 0.380952
0.31746 0.587302 0.746032 0.412698 0.333333 0.222222 0.571429 0.222222
0.269841 0.31746;
#X obj 20 335 prepend set;
#X msg 16 430 0.52381 0.412698 0.619048 0.460317 0.444444 0.380952
0.31746 0.587302 0.746032 0.412698 0.333333 0.222222 0.571429 0.222222
0.269841 0.31746;
#X obj 16 407 loadbang;
#X obj 1064 137 r beat;
#X obj 1064 186 sel 0;
#X obj 1064 247 sel 4;
#X obj 1064 294 sel 0;
#X obj 1064 387 s r2d2-onoff;
#X msg 1064 324 1;
#X floatatom 1151 267 5 0 0 0 - - -;
#X obj 1064 224 cyclone/counter 0 4;
#X msg 1104 350 0;
#X obj 1064 271 random 4;
#X obj 1103 323 delay 5000;
#X obj 1064 163 spigot;
#X obj 1113 137 tgl 15 0 empty empty empty 0 -6 0 10 -262144 -1 -1
1 1;
#X obj 777 17 r beat3-onoff;
#X obj 557 144 slg.seq12;
#X obj 555 205 slg.seq12;
#X obj 555 236 slg.seq12;
#X obj 777 39 sel 0 1;
#X msg 777 62 off;
#X msg 808 63 on;
#X obj 869 36 sel 0 1;
#X msg 869 59 off;
#X msg 900 60 on;
#X obj 869 14 r beat2-onoff;
#X obj 1113 110 r scarsevent-onoff;
#X obj 573 408 r fourtrack-onoff;
#X obj 573 437 sel 0 1;
#X obj 959 36 sel 0 1;
#X msg 959 59 off;
#X msg 990 60 on;
#X obj 959 14 r beat1-onoff;
#X obj 1052 35 sel 0 1;
#X msg 1052 58 off;
#X msg 1083 59 on;
#X obj 1052 13 r beat4-onoff;
#X floatatom 1021 226 5 0 0 0 - - -;
#X connect 0 0 14 0;
#X connect 1 0 11 0;
#X connect 2 0 5 0;
#X connect 3 0 5 3;
#X connect 4 0 5 4;
#X connect 5 0 8 0;
#X connect 5 0 9 0;
#X connect 5 0 36 0;
#X connect 5 1 40 0;
#X connect 6 0 5 1;
#X connect 7 0 5 2;
#X connect 10 0 0 1;
#X connect 12 0 1 0;
#X connect 13 0 0 0;
#X connect 14 0 15 0;
#X connect 16 0 20 0;
#X connect 16 0 57 0;
#X connect 16 0 58 0;
#X connect 16 0 59 0;
#X connect 18 0 20 0;
#X connect 18 0 57 0;
#X connect 18 0 58 0;
#X connect 18 0 59 0;
#X connect 19 0 20 0;
#X connect 19 0 57 0;
#X connect 19 0 58 0;
#X connect 19 0 59 0;
#X connect 20 0 25 0;
#X connect 21 0 57 0;
#X connect 23 0 22 0;
#X connect 25 0 24 0;
#X connect 27 0 26 0;
#X connect 29 0 28 0;
#X connect 30 0 57 1;
#X connect 31 0 20 1;
#X connect 32 0 58 1;
#X connect 33 0 59 1;
#X connect 34 0 30 0;
#X connect 34 0 31 0;
#X connect 34 0 32 0;
#X connect 34 0 33 0;
#X connect 35 0 5 4;
#X connect 40 0 39 0;
#X connect 41 0 5 4;
#X connect 42 0 41 0;
#X connect 43 0 54 0;
#X connect 43 0 78 0;
#X connect 44 0 50 0;
#X connect 45 0 52 0;
#X connect 46 0 48 0;
#X connect 46 0 53 0;
#X connect 48 0 47 0;
#X connect 50 0 45 0;
#X connect 50 0 49 0;
#X connect 51 0 47 0;
#X connect 52 0 46 0;
#X connect 53 0 51 0;
#X connect 54 0 44 0;
#X connect 55 0 54 1;
#X connect 56 0 60 0;
#X connect 57 0 17 0;
#X connect 57 0 23 0;
#X connect 58 0 27 0;
#X connect 59 0 29 0;
#X connect 59 0 38 0;
#X connect 60 0 61 0;
#X connect 60 1 62 0;
#X connect 61 0 58 0;
#X connect 62 0 58 0;
#X connect 63 0 64 0;
#X connect 63 1 65 0;
#X connect 64 0 20 0;
#X connect 65 0 20 0;
#X connect 66 0 63 0;
#X connect 67 0 55 0;
#X connect 68 0 69 0;
#X connect 69 0 19 0;
#X connect 69 1 18 0;
#X connect 70 0 71 0;
#X connect 70 1 72 0;
#X connect 71 0 57 0;
#X connect 72 0 57 0;
#X connect 73 0 70 0;
#X connect 74 0 75 0;
#X connect 74 1 76 0;
#X connect 75 0 59 0;
#X connect 76 0 59 0;
#X connect 77 0 74 0;
#X restore 504 89 pd rhythmic-material;
#X obj 461 512 loadbang;
#X obj 733 36 bng 30 250 50 0 empty all-off empty 0 -6 0 10 -258113
-1 -1;
#X text 771 36 All Voices Off;
#X obj 24 80 tgl 15 0 empty empty empty 0 -6 0 10 -262144 -1 -1 0 1
;
#X text 178 294 FX;
#N canvas 24 22 548 470 R2D2 0;
#X obj 92 63 metro 90;
#X obj 19 176 osc~;
#X obj 101 175 osc~;
#X obj 53 290 osc~;
#X obj 53 212 +~;
#X obj 53 264 +~;
#X obj 53 238 *~;
#X obj 268 128 random 500;
#X obj 101 128 random 2000;
#X obj 19 128 random 1000;
#X obj 19 152 + 20;
#X obj 101 152 + 20;
#X obj 184 128 random 3000;
#X obj 92 85 t b b b b;
#X text 353 128 4 random values;
#X text 353 154 base offset;
#X text 98 234 random scaling;
#X text 96 264 random offset;
#X text 290 70 3 oscillators in simple FM;
#X text 352 179 sum 2 oscillators;
#X text 96 291 input to FM oscillator;
#X obj 92 37 tgl 15 0 empty empty empty 0 -6 0 10 -262144 -1 -1 0 1
;
#X floatatom 173 37 5 0 0 0 - - -;
#X obj 53 372 throw~ sfxL;
#X obj 133 371 throw~ sfxR;
#X obj 92 10 r r2d2-onoff;
#X obj 173 10 r r2d2-metro;
#X obj 53 345 *~;
#X obj 258 266 bng 15 250 50 0 empty empty empty 0 -6 0 10 -262144
-1 -1;
#X obj 348 245 sel 0;
#X obj 276 266 sel 1;
#X obj 347 271 pack 0 500;
#X obj 258 290 pack 0.05 4000;
#X obj 258 310 line~ 0.05;
#X connect 0 0 13 0;
#X connect 1 0 4 0;
#X connect 2 0 4 1;
#X connect 3 0 27 0;
#X connect 4 0 6 0;
#X connect 5 0 3 0;
#X connect 6 0 5 0;
#X connect 7 0 6 1;
#X connect 8 0 11 0;
#X connect 9 0 10 0;
#X connect 10 0 1 0;
#X connect 11 0 2 0;
#X connect 12 0 5 1;
#X connect 13 0 9 0;
#X connect 13 1 8 0;
#X connect 13 2 12 0;
#X connect 13 3 7 0;
#X connect 21 0 0 0;
#X connect 21 0 30 0;
#X connect 21 0 29 0;
#X connect 22 0 0 1;
#X connect 25 0 21 0;
#X connect 26 0 22 0;
#X connect 27 0 23 0;
#X connect 27 0 24 0;
#X connect 28 0 32 0;
#X connect 29 0 31 0;
#X connect 30 0 32 0;
#X connect 31 0 33 0;
#X connect 32 0 33 0;
#X connect 33 0 27 1;
#X restore 179 312 pd R2D2;
#N canvas 8 22 542 349 pong-control 0;
#X obj 173 25 r \$0-collision;
#X obj 345 19 r \$0-wina;
#X obj 407 19 r \$0-winb;
#X obj 176 251 t f b;
#X obj 89 24 r pongsample;
#X obj 174 139 + 1;
#X floatatom 194 159 5 0 0 0 - - -;
#X floatatom 262 162 5 0 0 0 - - -;
#X obj 174 91 sel 0 1;
#X obj 173 69 random 2;
#X msg 426 164 14;
#X obj 345 44 bng 15 250 50 0 empty empty empty 0 -6 0 10 -262144 -1
-1;
#X obj 173 48 bng 15 250 50 0 empty empty empty 0 -6 0 10 -262144 -1
-1;
#X obj 344 112 sel 0 1;
#X obj 344 61 random 2;
#X msg 338 171 9;
#X msg 371 149 10;
#X obj 174 118 random 5;
#X obj 262 141 + 11;
#X obj 263 120 random 6;
#X obj 176 275 s pong;
#X obj 344 89 debounce 2000;
#X connect 0 0 12 0;
#X connect 1 0 11 0;
#X connect 2 0 11 0;
#X connect 3 0 20 0;
#X connect 4 0 3 0;
#X connect 5 0 6 0;
#X connect 5 0 3 0;
#X connect 7 0 3 0;
#X connect 8 0 17 0;
#X connect 8 1 19 0;
#X connect 9 0 8 0;
#X connect 10 0 3 0;
#X connect 11 0 14 0;
#X connect 12 0 9 0;
#X connect 13 0 15 0;
#X connect 13 1 16 0;
#X connect 14 0 21 0;
#X connect 15 0 3 0;
#X connect 16 0 3 0;
#X connect 17 0 5 0;
#X connect 18 0 7 0;
#X connect 19 0 18 0;
#X connect 21 0 13 0;
#X restore 342 468 pd pong-control;
#N canvas 0 22 523 319 analog-drums 0;
#X obj 23 186 slg.bombo;
#X obj 86 186 slg.caja;
#X obj 142 185 slg.cowbell;
#X obj 217 185 slg.crash;
#X msg 21 139 100;
#X msg 49 139 200;
#X msg 78 140 400;
#X msg 163 142 200;
#X msg 197 142 400;
#X msg 397 147 200;
#X msg 429 146 400;
#X msg 361 147 100;
#X msg 127 142 50;
#X obj 31 81 random 3;
#X obj 31 104 sel 0 1 2;
#X obj 150 79 random 3;
#X obj 150 102 sel 0 1 2;
#X msg 270 141 200;
#X msg 304 141 400;
#X msg 234 141 50;
#X obj 257 78 random 3;
#X obj 257 101 sel 0 1 2;
#X obj 363 84 random 3;
#X obj 363 107 sel 0 1 2;
#X obj 257 56 sel 2;
#X obj 257 34 random 6;
#X obj 32 264 throw~ rhythmL;
#X obj 196 259 throw~ rhythmR;
#X obj 31 52 r bombo;
#X obj 150 49 r caja;
#X obj 257 10 r cowbell;
#X obj 363 61 r crash;
#X connect 0 0 26 0;
#X connect 0 0 27 0;
#X connect 1 0 26 0;
#X connect 2 0 26 0;
#X connect 3 0 27 0;
#X connect 4 0 0 0;
#X connect 5 0 0 0;
#X connect 6 0 0 0;
#X connect 7 0 1 0;
#X connect 8 0 1 0;
#X connect 9 0 3 0;
#X connect 10 0 3 0;
#X connect 11 0 3 0;
#X connect 12 0 1 0;
#X connect 13 0 14 0;
#X connect 14 0 4 0;
#X connect 14 1 5 0;
#X connect 14 2 6 0;
#X connect 15 0 16 0;
#X connect 16 0 12 0;
#X connect 16 1 7 0;
#X connect 16 2 8 0;
#X connect 17 0 2 0;
#X connect 18 0 2 0;
#X connect 19 0 2 0;
#X connect 20 0 21 0;
#X connect 21 0 19 0;
#X connect 21 1 17 0;
#X connect 21 2 18 0;
#X connect 22 0 23 0;
#X connect 23 0 11 0;
#X connect 23 1 9 0;
#X connect 23 2 10 0;
#X connect 24 0 20 0;
#X connect 25 0 24 0;
#X connect 28 0 13 0;
#X connect 29 0 15 0;
#X connect 30 0 25 0;
#X connect 31 0 22 0;
#X restore 179 190 pd analog-drums;
#N canvas 0 22 590 440 sea 0;
#X obj 101 79 slg.sea_waves;
#X obj 101 54 r sea-onoff;
#X obj 101 204 throw~ textureL;
#X obj 264 205 throw~ textureR;
#X connect 0 0 2 0;
#X connect 0 1 3 0;
#X connect 1 0 0 0;
#X restore 401 254 pd sea;
#N canvas 467 465 817 481 ANALYSIS 0;
#X obj 104 105 slg.audioanalysis~;
#X obj 104 327 s \$0-pitch;
#X obj 410 372 s \$0-envelope;
#X obj 593 431 s \$0-onset;
#X obj 105 78 inlet~;
#X obj 604 329 bng 15 250 50 0 empty empty empty 0 -6 0 10 -262144
-1 -1;
#X obj 593 412 bng 15 250 50 0 empty empty empty 0 -6 0 10 -262144
-1 -1;
#X obj 593 389 debounce 15;
#X floatatom 656 371 5 0 0 0 - - -;
#X obj 656 324 loadbang;
#X msg 656 348 3000;
#X floatatom 402 331 5 0 0 0 - - -;
#X obj 460 330 / 100;
#X floatatom 460 354 5 0 0 0 - - -;
#X obj 498 43 tgl 15 0 empty empty empty 0 -6 0 10 -262144 -1 -1 0
1;
#X obj 579 48 tgl 15 0 empty empty empty 0 -6 0 10 -262144 -1 -1 0
1;
#X obj 104 17 slg.loadsample~;
#X connect 0 0 1 0;
#X connect 0 2 11 0;
#X connect 0 2 12 0;
#X connect 0 3 5 0;
#X connect 0 3 7 0;
#X connect 4 0 0 0;
#X connect 6 0 3 0;
#X connect 7 0 6 0;
#X connect 8 0 7 1;
#X connect 9 0 10 0;
#X connect 10 0 8 0;
#X connect 12 0 13 0;
#X connect 12 0 2 0;
#X connect 14 0 0 1;
#X connect 15 0 0 2;
#X connect 16 0 0 0;
#X coords 0 0 1 1 675 225 0;
#X restore 728 264 pd ANALYSIS;
#X obj 728 131 slg.gaininput~;
#N canvas 0 22 486 336 drumloop 0;
#N canvas 0 22 1057 673 loopzor 0;
#N canvas 0 22 450 300 (subpatch) 0;
#X array drums1 61205 float 0;
#X coords 0 0 61204 1 200 130 0;
#X restore 156 -251 graph;
#X obj 69 -252 soundfiler;
#X obj 153 -320 list;
#X obj 153 -370 loadbang;
#X msg 69 -274 read -resize \$1 drums1;
#X obj 52 -97 tabread4~ drums1;
#X obj 52 52 *~ 0.5;
#X obj 51 76 *~;
#X obj 168 137 tgl 12 1 empty \$0-lpzr-inout-r empty 0 -6 0 8 -260818
-1 -1 0 1;
#X obj 53 -358 inlet~;
#X obj 53 -120 *~;
#X text 379 -240 amen.wav anizts.wav bigj.wav lofi.wav neck.wav skipper.wav
;
#X obj 107 152 hradio 12 1 0 6 empty \$0-lpzr-brksel-r empty 0 -6 0
8 -260818 -1 -1 0;
#X obj 384 -405 r \$0-breakselector;
#X obj 108 216 s \$0-breakselector;
#X obj 384 -381 sel 0 1 2 3 4 5;
#X obj 51 -54 *~;
#X obj 175 -117 cos~;
#X obj 174 -97 abs~;
#X obj 175 -139 *~;
#X obj 107 166 hradio 12 1 0 6 empty \$0-lpzr-cutf-r empty 0 -6 0 8
-260818 -1 -1 0;
#X obj 191 -203 swap 2;
#X obj 191 -178 pow;
#X obj 191 -158 * 0.125;
#X obj 191 -227 r \$0-cutterfreq;
#X obj 114 190 s \$0-cutterfreq;
#X obj 174 -77 sqrt~;
#X obj 101 51 line~;
#X obj 107 -36 r \$0-loopzorinout;
#X obj 225 190 s \$0-loopzorinout;
#X text 50 176 ajf;
#X obj 107 -15 t b f;
#X obj 101 8 *;
#X obj 101 -55 r \$0-loopzorvol;
#X obj 114 123 hsl 64 10 0 1 0 1 empty \$0-lpzr-vol-r vol 18 5 1 8
-260818 -1 -1 4780 1;
#X obj 224 168 s \$0-loopzorvol;
#X obj 51 97 hip~ 10;
#X obj 53 -332 *~ 2;
#X obj 52 -312 wrap~;
#X msg 101 30 \$1 5;
#X obj 0 155 outlet~;
#X obj 52 155 outlet~;
#X msg 153 -341 ./data/wav/loops/bigj.wav;
#X msg 315 -341 ./data/wav/loops/amen.wav;
#X msg 478 -341 ./data/wav/loops/anizts.wav;
#X msg 660 -341 ./data/wav/loops/lofi.wav;
#X msg 826 -341 ./data/wav/loops/neck.wav;
#X msg 990 -340 ./data/wav/loops/skipper.wav;
#X floatatom 263 -195 5 0 0 0 - - -;
#X obj 338 -113 snapshot~;
#X floatatom 342 -84 5 0 0 0 - - -;
#X obj 363 -167 tgl 15 0 empty empty empty 0 -6 0 10 -262144 -1 -1
0 1;
#X obj 346 -141 metro 200;
#X obj 416 -106 snapshot~;
#X floatatom 420 -77 5 0 0 0 - - -;
#X connect 1 0 10 1;
#X connect 2 0 4 0;
#X connect 3 0 42 0;
#X connect 4 0 1 0;
#X connect 5 0 16 0;
#X connect 6 0 7 0;
#X connect 7 0 36 0;
#X connect 8 0 29 0;
#X connect 9 0 37 0;
#X connect 10 0 5 0;
#X connect 12 0 14 0;
#X connect 13 0 15 0;
#X connect 15 0 42 0;
#X connect 15 1 43 0;
#X connect 15 2 44 0;
#X connect 15 3 45 0;
#X connect 15 4 46 0;
#X connect 15 5 47 0;
#X connect 16 0 6 0;
#X connect 17 0 18 0;
#X connect 18 0 26 0;
#X connect 19 0 17 0;
#X connect 20 0 25 0;
#X connect 21 0 22 0;
#X connect 21 1 22 1;
#X connect 22 0 23 0;
#X connect 23 0 19 1;
#X connect 24 0 21 0;
#X connect 26 0 16 1;
#X connect 27 0 7 1;
#X connect 28 0 31 0;
#X connect 31 0 32 0;
#X connect 31 1 32 1;
#X connect 32 0 39 0;
#X connect 33 0 32 0;
#X connect 34 0 35 0;
#X connect 36 0 40 0;
#X connect 36 0 41 0;
#X connect 37 0 38 0;
#X connect 38 0 19 0;
#X connect 38 0 10 0;
#X connect 39 0 27 0;
#X connect 42 0 2 0;
#X connect 43 0 2 0;
#X connect 44 0 2 0;
#X connect 45 0 2 0;
#X connect 46 0 2 0;
#X connect 47 0 2 0;
#X connect 48 0 21 0;
#X connect 49 0 50 0;
#X connect 51 0 52 0;
#X connect 52 0 49 0;
#X connect 52 0 53 0;
#X connect 53 0 54 0;
#X coords 0 -1 1 1 85 80 1 100 100;
#X restore 98 74 pd loopzor;
#X obj 98 166 throw~ loopsL;
#X obj 188 167 throw~ loopsR;
#X obj 98 39 phasor~ 440;
#X floatatom 98 -6 5 0 0 0 - - -;
#X obj 98 14 sig~;
#X connect 0 0 1 0;
#X connect 0 1 2 0;
#X connect 3 0 0 0;
#X connect 4 0 5 0;
#X connect 5 0 3 0;
#X restore 244 437 pd drumloop;
#N canvas 54 46 1108 538 drumbank 0;
#X obj 409 281 sample.play~;
#X obj 8 107 sample.display_;
#X obj 8 200 sample.bounds_;
#X obj 8 253 sample.adsr_;
#X msg 478 113 60 127;
#X obj 478 164 midi.note.close;
#X obj 434 346 tgl 15 0 empty empty empty 0 -6 0 10 -262144 -1 -1 0
1;
#X obj 434 367 gate;
#X msg 807 62 write data/banks/garden.bank.coll;
#X obj 739 64 loadbang;
#X obj 362 -38 t b f;
#X obj 311 -60 route off;
#X msg 529 114 60 0;
#X obj 8 82 sample.r;
#X obj 409 308 throw~ rhythmL;
#X obj 502 308 throw~ rhythmR;
#X obj 739 154 sample.bank cyberbeat;
#X obj 311 -83 r cyberbeat;
#X msg 401 -5 cyberbeat \$1;
#X msg 808 86 read data/banks/cyberbeat.bank.coll;
#X obj 605 -51 s cyberbeat;
#X msg 605 -85 2;
#X msg 547 -85 0;
#X msg 576 -85 1;
#X msg 635 -86 3;
#X msg 666 -86 4;
#X msg 697 -86 5;
#X msg 728 -86 6;
#X obj 478 48 delay 100;
#X obj 664 211 poly;
#X obj 666 239 nqpoly;
#X connect 0 0 14 0;
#X connect 0 1 15 0;
#X connect 0 2 7 1;
#X connect 1 0 2 0;
#X connect 2 0 3 0;
#X connect 3 0 0 0;
#X connect 4 0 5 0;
#X connect 5 0 0 1;
#X connect 6 0 7 0;
#X connect 8 0 16 0;
#X connect 9 0 19 0;
#X connect 10 0 28 0;
#X connect 10 1 18 0;
#X connect 11 0 12 0;
#X connect 11 1 10 0;
#X connect 12 0 5 0;
#X connect 13 0 1 0;
#X connect 17 0 11 0;
#X connect 18 0 13 0;
#X connect 19 0 16 0;
#X connect 21 0 20 0;
#X connect 22 0 20 0;
#X connect 23 0 20 0;
#X connect 24 0 20 0;
#X connect 25 0 20 0;
#X connect 26 0 20 0;
#X connect 27 0 20 0;
#X connect 28 0 4 0;
#X restore 244 459 pd drumbank;
#X obj 177 67 comment 196 20 Times ? 0 255 128 0 Roboser;
#N canvas 556 89 397 151 midivariations 0;
#X obj 21 15 slg.midiseq;
#X obj 21 96 s midisynth-note;
#X obj 123 96 s midisynth-velocity;
#X obj 250 96 s midisynth-channel;
#X connect 0 0 1 0;
#X connect 0 1 2 0;
#X connect 0 2 3 0;
#X restore 177 97 pd midivariations;
#N canvas 32 162 330 202 fromPD2IQRport3001 0;
#N canvas 268 511 419 276 buildpulse 0;
#X obj 71 69 t b b;
#X msg 70 99 1;
#X msg 147 129 0;
#X floatatom 192 88 5 0 0 0 - - -;
#X obj 71 160 line \$1 5;
#X obj 147 109 delay 40;
#X obj 71 185 outlet;
#X text 208 110 delay b/w 0 and 1 values;
#X obj 71 37 inlet;
#X floatatom 127 69 5 0 0 0 - - -;
#X floatatom 123 192 5 0 0 0 - - -;
#X obj 166 67 bng 15 250 50 0 empty empty empty 0 -6 0 10 -262144 -1
-1;
#X obj 225 37 inlet;
#X connect 0 0 5 0;
#X connect 0 1 1 0;
#X connect 1 0 4 0;
#X connect 2 0 4 0;
#X connect 3 0 5 1;
#X connect 4 0 6 0;
#X connect 4 0 10 0;
#X connect 5 0 2 0;
#X connect 8 0 0 0;
#X connect 8 0 9 0;
#X connect 8 0 11 0;
#X connect 12 0 3 0;
#X restore 62 63 pd buildpulse;
#N canvas 55 343 682 427 connect2iqr 0;
#X obj 52 200 netsend 1;
#X obj 52 86 pack f f f;
#X msg -205 155 disconnect;
#X obj 52 109 list prepend send;
#X obj 52 130 list trim;
#X obj 52 171 spigot;
#X obj -62 41 tgl 15 0 empty empty empty 0 -6 0 10 -4034 -1 -1 0 72.049
;
#X text -44 39 send data;
#X obj 52 220 != 1;
#X obj 118 249 prepend set;
#X msg 118 269 send 0 0.527042 0.15;
#X msg 223 218 send \$1;
#X msg -207 102 connect 192.168.1.22 3001;
#X floatatom 223 194 5 0 0 0 - - -;
#X obj 30 265 metro 500;
#X floatatom 62 247 5 0 0 0 - - -;
#X obj -41 103 loadbang;
#X obj 33 23 inlet;
#X obj 72 23 inlet;
#X obj 111 23 inlet;
#X obj -62 18 inlet;
#X floatatom 113 54 5 0 0 0 - - -;
#X floatatom 76 55 5 0 0 0 - - -;
#X floatatom 38 54 5 0 0 0 - - -;
#X obj 153 53 bng 15 250 50 0 empty empty empty 0 -6 0 10 -262144 -1
-1;
#X connect 0 0 8 0;
#X connect 1 0 3 0;
#X connect 2 0 0 0;
#X connect 3 0 4 0;
#X connect 4 0 5 0;
#X connect 5 0 0 0;
#X connect 5 0 9 0;
#X connect 6 0 5 1;
#X connect 8 0 14 0;
#X connect 8 0 15 0;
#X connect 9 0 10 0;
#X connect 11 0 0 0;
#X connect 12 0 0 0;
#X connect 13 0 11 0;
#X connect 14 0 12 0;
#X connect 16 0 12 0;
#X connect 17 0 23 0;
#X connect 18 0 22 0;
#X connect 18 0 24 0;
#X connect 19 0 21 0;
#X connect 19 0 24 0;
#X connect 20 0 6 0;
#X connect 21 0 1 2;
#X connect 22 0 1 1;
#X connect 23 0 1 0;
#X connect 24 0 23 0;
#X restore -121 105 pd connect2iqr;
#X obj -121 45 tgl 15 0 empty empty empty 0 -6 0 10 -4034 -1 -1 0 72.049
;
#X text -78 12 send data;
#X obj -93 44 r \$0-pitch;
#X obj -25 43 r \$0-envelope;
#X obj 62 12 r \$0-onset;
#X obj -121 12 inlet;
#N canvas 627 27 532 463 spring 0;
#X obj 12 -36 loadbang;
#X obj 47 41 s \$0-link;
#X obj 12 16 t b b;
#X obj 12 67 s \$0-mass;
#X obj 235 160 vsl 15 128 0 127 0 0 empty empty empty 0 -8 0 8 -262144
-1 -1 0 0;
#X obj 186 197 vsl 15 128 0 127 0 0 empty empty empty 0 -8 0 8 -262144
-1 -1 0 0;
#X obj 19 127 link \$0-link 0 1 0 200;
#X obj 206 127 mass \$0-mass 10000 0;
#X obj 180 174 bng 15 250 50 0 empty empty empty 0 -6 0 10 -262144
-1 -1;
#X floatatom 288 250 5 0 0 0 - - -;
#X obj 206 342 maxlib/scale 0 127 0 0.3;
#X floatatom 197 377 5 0 0 0 - - -;
#X obj 12 -11 metro 10;
#X obj 186 42 inlet;
#X obj 186 67 * 64;
#X obj 254 380 outlet;
#X obj 82 -29 bng 15 250 50 0 empty empty empty 0 -6 0 10 -262144 -1
-1;
#X msg 19 102 setK 50 \, setD 200 \, setD2 80;
#X obj 309 376 + 0.15;
#X connect 0 0 12 0;
#X connect 0 0 17 0;
#X connect 2 0 3 0;
#X connect 2 1 1 0;
#X connect 4 0 9 0;
#X connect 4 0 10 0;
#X connect 5 0 6 0;
#X connect 6 1 7 0;
#X connect 7 0 4 0;
#X connect 7 0 6 1;
#X connect 8 0 5 0;
#X connect 10 0 11 0;
#X connect 10 0 18 0;
#X connect 12 0 2 0;
#X connect 13 0 14 0;
#X connect 14 0 5 0;
#X connect 16 0 12 0;
#X connect 17 0 6 0;
#X connect 18 0 15 0;
#X restore 62 88 pd spring;
#X obj 137 13 loadbang;
#X floatatom 63 123 5 0 0 0 - - -;
#X obj 79 38 bng 15 250 50 0 empty empty empty 0 -6 0 10 -262144 -1
-1;
#X msg 137 39 500;
#X connect 0 0 8 0;
#X connect 2 0 1 0;
#X connect 4 0 1 1;
#X connect 5 0 1 2;
#X connect 6 0 0 0;
#X connect 7 0 2 0;
#X connect 8 0 10 0;
#X connect 8 0 1 3;
#X connect 9 0 12 0;
#X connect 11 0 0 0;
#X connect 12 0 0 1;
#X restore 876 375 pd fromPD2IQRport3001;
#X obj 876 344 tgl 25 0 empty empty empty 0 -6 0 10 -4034 -1 -1 0 72.049
;
#X text 908 348 send data;
#X msg 738 537 -10;
#X obj 882 85 bng 15 250 50 0 empty empty empty 0 -6 0 10 -262144 -1
-1;
#X text 876 38 sleep mode;
#X obj 884 270 slg.bubbles;
#X msg 884 237 \; start 1 \;;
#X obj 341 342 bng 15 250 50 0 empty empty empty 0 -6 0 10 -262144
-1 -1;
#X obj 658 73 s sea-onoff;
#X obj 658 53 tgl 15 0 empty empty empty 0 -6 0 10 -262144 -1 -1 0
1;
#X msg 882 106 \; outerspace-preset 0 \; outerspace-volume 1 \; outerspace-onoff
1 \; start 1 \; sawswoop-onoff 1 \; scarsevent-onoff 1 \; sea-onoff
0 \;;
#X msg 461 535 -3;
#X obj 960 41 loadbang;
#X obj 960 68 delay 30000;
#X msg 174 538 -5;
#X msg 359 537 -10;
#X msg 86 559 -27;
#X obj 323 587 slg.2-M~;
#X obj 138 587 slg.2-M~;
#X obj 228 586 slg.2-M~;
#X obj 425 587 slg.2-M~;
#X obj 525 587 slg.2-M~;
#X obj 608 587 slg.2-M~;
#X obj 702 579 slg.2-M~;
#X connect 11 0 118 0;
#X connect 12 0 118 1;
#X connect 13 0 117 0;
#X connect 14 0 117 1;
#X connect 15 0 116 0;
#X connect 16 0 116 1;
#X connect 22 0 119 1;
#X connect 23 0 119 0;
#X connect 24 0 120 0;
#X connect 25 0 120 1;
#X connect 29 0 121 1;
#X connect 30 0 121 0;
#X connect 31 0 122 0;
#X connect 32 0 122 1;
#X connect 66 0 65 0;
#X connect 67 0 65 1;
#X connect 83 0 110 0;
#X connect 83 0 101 0;
#X connect 83 0 114 0;
#X connect 83 0 113 0;
#X connect 83 0 115 0;
#X connect 84 0 71 0;
#X connect 86 0 64 0;
#X connect 93 0 92 0;
#X connect 99 0 98 0;
#X connect 101 0 122 2;
#X connect 102 0 109 0;
#X connect 106 0 52 0;
#X connect 108 0 107 0;
#X connect 110 0 119 2;
#X connect 111 0 112 0;
#X connect 112 0 102 0;
#X connect 113 0 117 2;
#X connect 114 0 116 2;
#X connect 115 0 5 2;
