#N canvas 0 115 1280 464 12;
#X msg -58 110 \; pd dsp 1;
#X msg -144 123 \; pd dsp 0;
#X obj 134 28 transpositor;
#X obj 7 26 granulador;
#X obj -218 220 chunker1~;
#X obj -146 -14 r pa;
#X obj -14 -14 r p5;
#X obj 39 -16 r p6;
#X obj 93 -17 r p7;
#X obj 138 -16 r p8;
#X text -64 161 off audio;
#X text -150 166 on audio;
#X obj -137 26 sel 0;
#X obj -131 76 bng 15 250 50 0 empty empty empty 17 7 0 10 -262144
-1 -1;
#X obj -92 74 bng 15 250 50 0 empty empty empty 17 7 0 10 -262144 -1
-1;
#X obj -112 277 pan~;
#X obj -80 220 r mix1;
#X obj -138 220 r pan1;
#X obj 91 278 pan~;
#X obj 291 276 pan~;
#X obj 492 278 pan~;
#X obj 683 286 pan~;
#X obj -17 220 chunker2~;
#X obj 65 221 r pan2;
#X obj 123 220 r mix2;
#X obj 184 219 chunker3~;
#X obj 265 219 r pan3;
#X obj 323 219 r mix3;
#X obj 386 220 chunker4~;
#X obj 466 221 r pan4;
#X obj 534 225 r mix4;
#X obj 597 231 chunker5~;
#X obj 670 229 r pan5;
#X obj 728 229 r mix5;
#X obj -108 325 output~;
#X obj 95 326 output~;
#X obj 295 324 output~;
#X obj 496 326 output~;
#X obj 704 337 output~;
#X connect 4 0 15 0;
#X connect 5 0 12 0;
#X connect 6 0 3 0;
#X connect 7 0 3 1;
#X connect 8 0 3 2;
#X connect 9 0 2 0;
#X connect 12 0 13 0;
#X connect 12 1 14 0;
#X connect 13 0 1 0;
#X connect 14 0 0 0;
#X connect 15 0 34 0;
#X connect 15 1 34 1;
#X connect 16 0 34 2;
#X connect 17 0 15 1;
#X connect 18 0 35 0;
#X connect 18 1 35 1;
#X connect 19 0 36 0;
#X connect 19 1 36 1;
#X connect 20 0 37 0;
#X connect 20 1 37 1;
#X connect 21 0 38 0;
#X connect 21 1 38 1;
#X connect 22 0 18 0;
#X connect 23 0 18 1;
#X connect 24 0 35 2;
#X connect 25 0 19 0;
#X connect 26 0 19 1;
#X connect 27 0 36 2;
#X connect 28 0 20 0;
#X connect 29 0 20 1;
#X connect 30 0 37 2;
#X connect 31 0 21 0;
#X connect 32 0 21 1;
#X connect 33 0 38 2;
