#N canvas 88 60 728 670 10;
#X obj -75 -35 cnv 15 400 650 empty empty abstractions_(c)_2008_J._Manzolli
20 12 0 14 -233017 -66577 0;
#X obj 327 -34 cnv 15 320 500 empty empty inializations 20 12 0 14
-233017 -66577 0;
#X obj -67 95 gem_init;
#X obj 351 -4 loadbang;
#X obj 354 58 s mix1value;
#X obj 353 81 s mix2value;
#X obj 353 102 s mix3value;
#X obj 353 126 s mix4value;
#X obj 353 149 s mix5value;
#X obj 552 35 s p5value;
#X obj 564 248 s p6value;
#X obj 561 90 s p7value;
#X obj 487 62 s p8value;
#X obj 564 143 s rd1value;
#X obj 563 164 s rd2value;
#X obj 564 187 s rd3value;
#X obj 564 206 s rd4value;
#X obj 565 225 s rd5value;
#X text -21 1 metronomo;
#X text 38 26 granulador;
#X text 17 57 controle visual;
#X text 16 95 inicia visual;
#X text 6 145 controla arquivos de som;
#X text 28 197 guarda som gravado;
#X obj -68 293 map_fader_mixer_vd;
#X text 50 222 mapping granular with mouse;
#X text 35 244 mapping mixer with mouse;
#X text 64 271 mapping granular with video;
#X text 53 294 mapping mixer with video motion;
#X obj -64 371 window_size;
#X text 23 377 muda tamanho da janela GEM;
#X text 15 411 load arquivo com partitura;
#X text 26 165 guarda som gravado de fora;
#X obj -74 172 soundscape_in;
#X obj -67 148 soundscape;
#X obj -72 220 map_fader_granular;
#X obj -73 270 map_fader_granular_vd;
#X obj 358 173 s rdp1value;
#X obj 357 198 s rdp2value;
#X obj 359 219 s rdp3value;
#X obj 358 241 s rdp4value;
#X obj 359 264 s rdp5value;
#X obj 359 286 s rdp6value;
#X obj 357 311 s rdp7value;
#X obj 355 335 s rdp8value;
#X obj 357 363 s rdp9value;
#X obj 356 386 s rdp10value;
#X obj 360 414 s pavalue;
#X obj 441 211 s video_on_value;
#X obj 451 274 s psizevalue;
#X obj 434 181 s p9value;
#X obj 497 180 s p10value;
#X text 53 324 escreve arquivo de som no disco;
#X text 30 349 escreve arquivo de padroes;
#X obj 453 322 s pattern_onvalue;
#X obj -64 496 waver2;
#X obj -65 522 waver3;
#X obj -63 551 waver4;
#X obj -66 583 waver5;
#X obj -73 197 soundscape_out;
#X msg 350 31 0;
#X msg 564 120 1;
#X msg 557 63 9996;
#X msg 552 8 7500;
#X msg 487 20 1.2;
#X msg 435 151 23;
#X msg 495 150 48;
#X obj -66 -2 cronos;
#X obj -67 392 write_score;
#X obj -70 59 synth_visual;
#X obj -65 414 read_score;
#X obj -69 26 bifurcation_loop;
#X obj 481 398 s pan1_value;
#X obj 479 426 s pan2_value;
#X obj 477 452 s pan3_value;
#X obj 476 474 s pan4_value;
#X obj 477 501 s pan5_value;
#X obj -74 243 map_fader_mixer;
#X obj -67 350 write_patterns;
#X obj -65 437 read_patterns;
#X msg 471 363 0;
#X obj -69 322 file_audio_writer;
#X obj -65 463 waver1;
#X obj 17 569 read_pan_curves;
#X obj 188 436 s metro_curve1_value;
#X obj 189 466 s metro_curve2_value;
#X obj 188 486 s metro_curve3_value;
#X obj 189 513 s metro_curve4_value;
#X obj 188 537 s metro_curve5_value;
#X msg 194 404 500;
#X connect 3 0 60 0;
#X connect 3 0 61 0;
#X connect 3 0 62 0;
#X connect 3 0 63 0;
#X connect 3 0 64 0;
#X connect 3 0 65 0;
#X connect 3 0 66 0;
#X connect 3 0 80 0;
#X connect 3 0 89 0;
#X connect 60 0 4 0;
#X connect 60 0 5 0;
#X connect 60 0 6 0;
#X connect 60 0 7 0;
#X connect 60 0 8 0;
#X connect 60 0 37 0;
#X connect 60 0 38 0;
#X connect 60 0 39 0;
#X connect 60 0 40 0;
#X connect 60 0 41 0;
#X connect 60 0 42 0;
#X connect 60 0 43 0;
#X connect 60 0 44 0;
#X connect 60 0 45 0;
#X connect 60 0 46 0;
#X connect 60 0 47 0;
#X connect 60 0 49 0;
#X connect 60 0 54 0;
#X connect 60 0 48 0;
#X connect 61 0 13 0;
#X connect 61 0 14 0;
#X connect 61 0 15 0;
#X connect 61 0 16 0;
#X connect 61 0 17 0;
#X connect 61 0 10 0;
#X connect 62 0 11 0;
#X connect 63 0 9 0;
#X connect 64 0 12 0;
#X connect 65 0 50 0;
#X connect 66 0 51 0;
#X connect 80 0 72 0;
#X connect 80 0 73 0;
#X connect 80 0 74 0;
#X connect 80 0 75 0;
#X connect 80 0 76 0;
#X connect 89 0 84 0;
#X connect 89 0 85 0;
#X connect 89 0 86 0;
#X connect 89 0 87 0;
#X connect 89 0 88 0;
