#N canvas 380 51 240 204 10;
#X obj 12 139 soundfiler;
#X obj 11 13 inlet;
#X obj 11 49 sel 1;
#X obj 9 82 openpanel;
#X msg 12 112 read \$1 wavetable4;
#X obj 137 100 404;
#X obj 143 143 s wave_on4value;
#X connect 1 0 2 0;
#X connect 2 0 3 0;
#X connect 2 0 5 0;
#X connect 3 0 4 0;
#X connect 4 0 0 0;
#X connect 5 0 6 0;
