#N canvas 380 51 450 300 10;
#X obj 12 139 soundfiler;
#X obj 11 13 inlet;
#X obj 9 57 sel 1;
#X obj 8 85 openpanel;
#X msg 12 113 read \$1 wavetable3;
#X obj 170 158 s wave_on3value;
#X obj 164 114 303;
#X connect 1 0 2 0;
#X connect 2 0 3 0;
#X connect 2 0 6 0;
#X connect 3 0 4 0;
#X connect 4 0 0 0;
#X connect 6 0 5 0;
