#N canvas 379 49 450 300 10;
#X obj 12 139 soundfiler;
#X obj 11 13 inlet;
#X obj 13 49 sel 1;
#X obj 12 83 openpanel;
#X msg 11 112 read \$1 wavetable2;
#X obj 172 129 s wave_on2value;
#X obj 166 85 202;
#X connect 1 0 2 0;
#X connect 2 0 3 0;
#X connect 2 0 6 0;
#X connect 3 0 4 0;
#X connect 4 0 0 0;
#X connect 6 0 5 0;
