#N canvas 339 73 574 210 10;
#X obj -147 88 soundfiler;
#X obj -146 -22 inlet;
#X obj -145 4 sel 1;
#X obj -147 43 openpanel;
#X obj -2 87 s wave_on1value;
#X obj -6 42 101;
#X msg -148 67 read -resize \$1 wavetable1;
#X connect 1 0 2 0;
#X connect 2 0 3 0;
#X connect 2 0 5 0;
#X connect 3 0 6 0;
#X connect 5 0 4 0;
#X connect 6 0 0 0;
