#N canvas 86 39 889 455 10;
#X obj -268 352 outlet;
#X obj -96 122 r p6;
#X obj -75 88 r p7;
#X obj -50 59 r p8;
#X obj -21 31 r p9;
#X obj 4 5 r p10;
#X obj -440 -28 inlet;
#X obj -265 320 l2s;
#X obj -119 155 r p5;
#X obj -262 -16 r wave_on1;
#X obj -243 26 r wave_on2;
#X obj -226 63 r wave_on3;
#X obj -208 104 r wave_on4;
#X obj -190 142 r wave_on5;
#X obj -36 182 r mix1;
#X obj -4 153 r mix2;
#X obj 37 119 r mix3;
#X obj 68 89 r mix4;
#X obj 112 51 r mix5;
#X obj -387 -18 r duration_section;
#X obj 7 237 r visual_ctr1;
#X obj 41 214 r visual_ctr2;
#X obj 77 182 r psize;
#X obj 117 147 r rec6;
#X obj 159 125 r rec7;
#X obj 221 77 r rec8;
#X obj 267 53 r rec9;
#X obj 309 37 r rec10;
#X obj -269 291 pack f f f f f f f f f f f f f f f f f f f f f f f
f f f f f f f f;
#X obj 298 186 r metro_curve5;
#X obj 251 196 r metro_curve4;
#X obj 201 210 r metro_curve3;
#X obj 151 226 r metro_curve2;
#X obj 106 239 r metro_curve1;
#X connect 1 0 28 8;
#X connect 2 0 28 9;
#X connect 3 0 28 10;
#X connect 4 0 28 11;
#X connect 5 0 28 12;
#X connect 6 0 28 0;
#X connect 7 0 0 0;
#X connect 8 0 28 7;
#X connect 9 0 28 2;
#X connect 10 0 28 3;
#X connect 11 0 28 4;
#X connect 12 0 28 5;
#X connect 13 0 28 6;
#X connect 14 0 28 13;
#X connect 15 0 28 14;
#X connect 16 0 28 15;
#X connect 17 0 28 16;
#X connect 18 0 28 17;
#X connect 19 0 28 1;
#X connect 20 0 28 18;
#X connect 21 0 28 19;
#X connect 22 0 28 20;
#X connect 23 0 28 21;
#X connect 24 0 28 22;
#X connect 25 0 28 23;
#X connect 26 0 28 24;
#X connect 27 0 28 25;
#X connect 28 0 7 0;
#X connect 29 0 28 30;
#X connect 30 0 28 29;
#X connect 31 0 28 28;
#X connect 32 0 28 27;
#X connect 33 0 28 26;
