#N canvas 86 39 889 455 10;
#X obj -268 352 outlet;
#X obj -122 92 r p6;
#X obj -95 69 r p7;
#X obj -70 43 r p8;
#X obj -44 18 r p9;
#X obj -15 -8 r p10;
#X obj -440 -28 inlet;
#X obj -265 320 l2s;
#X obj -149 119 r p5;
#X obj -314 -9 r wave_on1;
#X obj -286 22 r wave_on2;
#X obj -264 51 r wave_on3;
#X obj -242 81 r wave_on4;
#X obj -225 111 r wave_on5;
#X obj -58 168 r mix1;
#X obj -37 146 r mix2;
#X obj -17 121 r mix3;
#X obj 9 98 r mix4;
#X obj 36 69 r mix5;
#X obj 76 209 r visual_ctr1;
#X obj 113 178 r visual_ctr2;
#X obj -271 295 pack f f f f f f f f f f f f f f f f f f f f f f f
f;
#X obj 7 182 r metro_curve1;
#X obj 28 160 r metro_cureve2;
#X obj 48 135 r metro_curve3;
#X obj 74 112 r metro_curve4;
#X obj 101 83 r metro_curve5;
#X connect 1 0 21 7;
#X connect 2 0 21 8;
#X connect 3 0 21 9;
#X connect 4 0 21 10;
#X connect 5 0 21 11;
#X connect 6 0 21 0;
#X connect 7 0 0 0;
#X connect 8 0 21 6;
#X connect 9 0 21 1;
#X connect 10 0 21 2;
#X connect 11 0 21 3;
#X connect 12 0 21 4;
#X connect 13 0 21 5;
#X connect 14 0 21 12;
#X connect 15 0 21 13;
#X connect 16 0 21 14;
#X connect 17 0 21 15;
#X connect 18 0 21 16;
#X connect 19 0 21 22;
#X connect 20 0 21 23;
#X connect 21 0 7 0;
#X connect 22 0 21 17;
#X connect 23 0 21 18;
#X connect 24 0 21 19;
#X connect 25 0 21 20;
#X connect 26 0 21 21;
