#N canvas 693 37 416 324 10;
#X obj -30 237 hip~ 5;
#X obj -29 184 *~;
#X obj -29 86 +~;
#X obj -30 38 samphold~;
#X obj -29 62 *~;
#X obj 104 97 r~ phase;
#X obj 58 39 r~ phase;
#X obj 6 63 r~ phase;
#X obj 103 122 -~ 0.5;
#X obj 103 146 *~ 0.5;
#X obj 103 169 cos~;
#X obj 9 86 r~ read-pt;
#X obj -30 213 +~;
#X obj -29 110 *~ 44100;
#X obj -30 13 r chunk-size;
#X obj -30 136 +~ 1;
#X obj 182 184 *~;
#X obj 182 86 +~;
#X obj 181 38 samphold~;
#X obj 182 62 *~;
#X obj 317 119 -~ 0.5;
#X obj 317 143 *~ 0.5;
#X obj 317 166 cos~;
#X obj 220 86 r~ read-pt;
#X obj 182 110 *~ 44100;
#X obj 181 13 r chunk-size;
#X obj 181 136 +~ 1;
#X obj 269 39 r~ phase2;
#X obj 217 63 r~ phase2;
#X obj 317 95 r~ phase2;
#X obj -28 288 outlet~;
#X obj -29 160 tabread4~ wavetable1;
#X obj 182 160 tabread4~ wavetable1;
#X connect 0 0 30 0;
#X connect 1 0 12 0;
#X connect 2 0 13 0;
#X connect 3 0 4 0;
#X connect 4 0 2 0;
#X connect 5 0 8 0;
#X connect 6 0 3 1;
#X connect 7 0 4 1;
#X connect 8 0 9 0;
#X connect 9 0 10 0;
#X connect 10 0 1 1;
#X connect 11 0 2 1;
#X connect 12 0 0 0;
#X connect 13 0 15 0;
#X connect 14 0 3 0;
#X connect 15 0 31 0;
#X connect 16 0 12 1;
#X connect 17 0 24 0;
#X connect 18 0 19 0;
#X connect 19 0 17 0;
#X connect 20 0 21 0;
#X connect 21 0 22 0;
#X connect 22 0 16 1;
#X connect 23 0 17 1;
#X connect 24 0 26 0;
#X connect 25 0 18 0;
#X connect 26 0 32 0;
#X connect 27 0 18 1;
#X connect 28 0 19 1;
#X connect 29 0 20 0;
#X connect 31 0 1 0;
#X connect 32 0 16 0;
