#N canvas 622 45 450 300 10;
#X obj -82 -23 inlet;
#X obj -36 -23 inlet;
#X obj 40 -27 inlet;
#X obj 96 -24 inlet;
#X obj -62 113 outlet;
#X obj 68 107 outlet;
#X text 6 141 parametros: xmouse \, ymouse \, xvideo \, yvideo \, alfax
e 0< alfay < 1 saida: combinacao das duas;
#X obj 201 -31 inlet;
#X obj 246 -29 inlet;
#X obj -61 73 +;
#X obj 204 -7 * -1;
#X obj 205 18 + 1;
#X obj 253 0 * -1;
#X obj 256 28 + 1;
#X obj 71 61 +;
#X obj 96 27 *;
#X floatatom 40 -7 5 0 0 0 - - -;
#X floatatom -80 3 5 0 0 0 - - -;
#X obj -72 40 *;
#X obj -34 42 *;
#X obj 51 25 *;
#X floatatom -36 3 5 0 0 0 - - -;
#X floatatom 99 -1 5 0 0 0 - - -;
#X connect 0 0 17 0;
#X connect 1 0 21 0;
#X connect 2 0 16 0;
#X connect 3 0 22 0;
#X connect 7 0 10 0;
#X connect 7 0 18 1;
#X connect 8 0 12 0;
#X connect 8 0 20 1;
#X connect 9 0 4 0;
#X connect 10 0 11 0;
#X connect 11 0 19 0;
#X connect 12 0 13 0;
#X connect 13 0 15 1;
#X connect 14 0 5 0;
#X connect 15 0 14 1;
#X connect 16 0 19 0;
#X connect 17 0 18 0;
#X connect 18 0 9 0;
#X connect 19 0 9 1;
#X connect 20 0 14 0;
#X connect 21 0 20 0;
#X connect 22 0 15 0;
