#N canvas 187 132 913 410 10;
#X obj -55 -200 inlet;
#X obj 313 -123 0;
#X obj 255 -45 s pavalue;
#X obj -33 61 s bangcontinuevalue;
#X obj 136 63 s bangvalue;
#X obj 311 -190 r bangcronos;
#X obj 203 -188 r bangcontinue;
#X obj 222 -126 1;
#X obj 489 -172 r write_partitura;
#X obj 482 -43 s read_partitura_value;
#X obj 492 -138 expr if ($f1==1 \, 1 \, 0) \;;
#X obj 491 -108 sel 1;
#X obj 490 -67 0;
#X obj 404 -192 r bangpause;
#X obj 76 -201 r loop_partitura;
#X obj 483 -9 r write_partitura;
#X obj 332 67 sel 1;
#X obj 326 148 s add_score_value;
#X obj 346 103 bng 15 250 50 0 empty empty empty 17 7 0 10 -262144
-1 -1;
#X obj 327 -3 r readmatrix;
#X obj 330 32 expr if ($f1>=0&&$f2 \, 1 \, 0) \;;
#X obj -28 -38 expr if ($f1==1&&$f2==0 \, 1 \, 0) \; if($f1==1&&$f2==1
\, 1 \, 0) \;;
#X msg -38 -132 1;
#X obj -29 9 sel 1;
#X obj 151 12 sel 1;
#X connect 0 0 22 0;
#X connect 1 0 2 0;
#X connect 5 0 1 0;
#X connect 6 0 7 0;
#X connect 7 0 2 0;
#X connect 8 0 10 0;
#X connect 10 0 11 0;
#X connect 11 0 12 0;
#X connect 12 0 9 0;
#X connect 13 0 1 0;
#X connect 15 0 20 1;
#X connect 16 0 18 0;
#X connect 18 0 17 0;
#X connect 19 0 20 0;
#X connect 20 0 16 0;
#X connect 21 0 23 0;
#X connect 21 1 24 0;
#X connect 23 0 3 0;
#X connect 24 0 4 0;
