#N canvas 125 74 450 300 10;
#X obj -8 -24 inlet;
#X obj 70 -26 inlet;
#X text 185 13 direita soundscape \, esquerda valor;
#X obj 14 54 expr if ($f1==1 \, 1 \, 0) \; if ($f1==2 \, 1 \, 0) \;
if ($f1==3 \, 1 \, 0) \;;
#X obj 8 189 s rd2value;
#X obj 100 191 s rdp2value;
#X obj 199 196 s rdpv7alue;
#X obj 11 129 spigot;
#X obj 88 146 spigot;
#X obj 160 138 spigot;
#X connect 0 0 3 0;
#X connect 1 0 7 0;
#X connect 1 0 8 0;
#X connect 1 0 9 0;
#X connect 3 0 7 1;
#X connect 3 1 8 1;
#X connect 3 2 9 1;
#X connect 7 0 4 0;
#X connect 8 0 5 0;
#X connect 9 0 6 0;
