#N canvas 125 74 450 300 10;
#X obj -8 -24 inlet;
#X obj 70 -24 inlet;
#X text 185 13 direita soundscape \, esquerda valor;
#X obj 14 54 expr if ($f1==1 \, 1 \, 0) \; if ($f1==2 \, 1 \, 0) \;
if ($f1==3 \, 1 \, 0) \;;
#X obj 8 188 s rd5value;
#X obj 100 191 s rdp5value;
#X obj 8 126 spigot;
#X obj 94 157 spigot;
#X obj 166 149 spigot;
#X obj 199 195 s rdp10value;
#X connect 0 0 3 0;
#X connect 1 0 6 0;
#X connect 1 0 7 0;
#X connect 1 0 8 0;
#X connect 3 0 6 1;
#X connect 3 1 7 1;
#X connect 3 2 8 1;
#X connect 6 0 4 0;
#X connect 7 0 5 0;
#X connect 8 0 9 0;
