#N canvas 125 74 450 300 10;
#X obj -8 -24 inlet;
#X obj 70 -26 inlet;
#X text 185 13 direita soundscape \, esquerda valor;
#X obj 14 54 expr if ($f1==1 \, 1 \, 0) \; if ($f1==2 \, 1 \, 0) \;
if ($f1==3 \, 1 \, 0) \;;
#X obj 8 189 s rd4value;
#X obj 100 191 s rdp4value;
#X obj 17 140 spigot;
#X obj 94 157 spigot;
#X obj 166 149 spigot;
#X obj 198 196 s rdp9value;
#X connect 0 0 3 0;
#X connect 1 0 6 0;
#X connect 1 0 7 0;
#X connect 1 0 8 0;
#X connect 3 0 6 1;
#X connect 3 1 7 1;
#X connect 3 2 8 1;
#X connect 6 0 4 0;
#X connect 7 0 5 0;
#X connect 8 0 9 0;
