#N canvas 20 72 450 300 10;
#X obj -8 -24 inlet;
#X obj 70 -26 inlet;
#X text 185 13 direita soundscape \, esquerda valor;
#X obj 14 54 expr if ($f1==1 \, 1 \, 0) \; if ($f1==2 \, 1 \, 0) \;
if ($f1==3 \, 1 \, 0) \;;
#X obj -2 186 s rd1value;
#X obj 87 189 s rdp1value;
#X obj 192 193 s rdp6value;
#X obj 7 130 spigot;
#X obj 70 141 spigot;
#X obj 144 131 spigot;
#X connect 0 0 3 0;
#X connect 1 0 7 0;
#X connect 1 0 8 0;
#X connect 1 0 9 0;
#X connect 3 0 7 1;
#X connect 3 1 8 1;
#X connect 3 2 9 1;
#X connect 7 0 4 0;
#X connect 8 0 5 0;
#X connect 9 0 6 0;
