#N canvas -95 29 724 341 10;
#X obj -41 7 r bangcronos;
#X obj 14 202 + 1;
#X msg -29 66 stop;
#X obj 16 179 float;
#X msg 133 127 0;
#X obj 77 6 r bangpause;
#X obj 161 5 r bangcontinue;
#X obj 1 105 metro 100;
#X obj 11 264 s metronomo;
#X obj 44 146 r metronomo;
#X obj 143 168 s metronomo;
#X obj 179 66 loadbang;
#X msg 17 66 1;
#X obj -35 36 t b b;
#X obj -122 257 s duration_section;
#X obj -35 205 + 1;
#X obj -38 176 float;
#X obj -134 126 r duration_section;
#X obj 137 210 s duration_section;
#X obj 308 12 r metronomo;
#X obj 316 61 / 10;
#X obj 339 113 div 60;
#X obj 395 112 % 60;
#X obj 334 171 s minutos;
#X obj 402 171 s segundos;
#X obj 265 171 s horas;
#X obj 272 114 div 36000;
#X obj 481 169 s centesimos;
#X obj 474 110 % 10;
#X connect 0 0 13 0;
#X connect 1 0 8 0;
#X connect 2 0 7 0;
#X connect 3 0 1 0;
#X connect 4 0 10 0;
#X connect 4 0 18 0;
#X connect 5 0 2 0;
#X connect 6 0 7 0;
#X connect 7 0 3 0;
#X connect 7 0 16 0;
#X connect 9 0 3 1;
#X connect 11 0 4 0;
#X connect 12 0 7 0;
#X connect 13 0 2 0;
#X connect 13 1 4 0;
#X connect 15 0 14 0;
#X connect 16 0 15 0;
#X connect 17 0 16 1;
#X connect 19 0 20 0;
#X connect 19 0 28 0;
#X connect 20 0 21 0;
#X connect 20 0 22 0;
#X connect 20 0 26 0;
#X connect 21 0 23 0;
#X connect 22 0 24 0;
#X connect 26 0 25 0;
#X connect 28 0 27 0;
