#N canvas 528 88 645 533 10;
#X obj -30 -106 pix_blob 4;
#X obj -30 1 pix_texture;
#X obj 81 -54 * 8;
#X obj 88 -14 - 4;
#X obj 165 -51 * 8;
#X obj 165 -29 - 4;
#X obj 254 -50 * 2;
#X obj 61 117 outlet;
#X obj 160 124 outlet;
#X obj 266 118 outlet;
#X obj -36 -199 gemhead 1;
#X obj 95 20 r video_on;
#X obj 55 60 spigot;
#X obj 199 24 r video_on;
#X obj 159 64 spigot;
#X obj 294 19 r video_on;
#X obj 257 69 spigot;
#X obj -16 -43 r video_on;
#X obj -33 -136 pix_movement 0.7;
#X obj -22 91 circle 3;
#X obj -35 -168 pix_videoxx;
#X connect 0 0 1 0;
#X connect 0 1 2 0;
#X connect 0 2 4 0;
#X connect 0 3 6 0;
#X connect 1 0 19 0;
#X connect 2 0 3 0;
#X connect 3 0 12 0;
#X connect 4 0 5 0;
#X connect 5 0 14 0;
#X connect 6 0 16 0;
#X connect 10 0 20 0;
#X connect 11 0 12 1;
#X connect 12 0 7 0;
#X connect 13 0 14 1;
#X connect 14 0 8 0;
#X connect 15 0 16 1;
#X connect 16 0 9 0;
#X connect 17 0 1 0;
#X connect 18 0 0 0;
#X connect 20 0 18 0;
