#N canvas 38 111 1242 704 10;
#X obj -255 -300 r rec6;
#X obj -277 -76 makefilename ./sound/recycleout/r%d1.wav;
#X obj 7 -97 makefilename ./sound/recycleout/r%d2.wav;
#X obj -317 -299 r ciclo1;
#X obj -201 -167 + 1;
#X obj -212 -191 float;
#X obj -204 -142 % 5;
#X obj -211 -112 s ciclo1value;
#X obj -309 -245 + 1;
#X obj -13 -231 + 1;
#X obj -24 -302 r ciclo2;
#X obj 44 -304 r rec7;
#X obj 125 -191 + 1;
#X obj 114 -215 float;
#X obj 130 -157 % 5;
#X obj 118 -127 s ciclo2value;
#X obj 316 -226 + 1;
#X obj 503 -192 + 1;
#X obj 492 -216 float;
#X obj 508 -158 % 5;
#X obj 305 -307 r ciclo3;
#X obj 373 -305 r rec8;
#X obj 347 -101 makefilename ./sound/recycleout/r%d3.wav;
#X obj 496 -129 s ciclo3value;
#X obj 364 14 + 1;
#X obj 650 95 + 1;
#X obj 619 59 float;
#X obj 670 126 % 5;
#X obj 366 -44 r ciclo4;
#X obj 604 -43 r rec9;
#X obj 366 55 makefilename ./sound/recycleout/r%d4.wav;
#X obj 663 152 s ciclo4value;
#X obj -244 98 + 1;
#X obj -88 132 + 1;
#X obj -99 108 float;
#X obj -83 166 % 5;
#X obj -255 17 r ciclo5;
#X obj -186 19 r rec10;
#X obj -250 216 makefilename ./sound/recycleout/r%d5.wav;
#X obj -95 193 s ciclo5value;
#X obj 603 -7 sel 1;
#X obj 381 -266 sel 1;
#X obj -192 56 sel 1;
#X obj 56 -258 sel 1;
#X obj -256 -255 sel 1;
#X obj -185 -271 pipe 100;
#X obj 378 193 catch~ bifput;
#X msg 132 213 start;
#X msg 77 229 stop;
#X obj 70 129 sel 0;
#X obj 81 190 bng 15 250 50 0 empty empty empty 17 7 0 10 -262144 -1
-1;
#X obj 106 173 bng 15 250 50 0 empty empty empty 17 7 0 10 -262144
-1 -1;
#X msg 192 197 open -bytes 2 \$1;
#X obj 38 -197 pipe 100;
#X obj 365 -217 pipe 100;
#X obj 526 14 pipe 100;
#X obj -122 65 pipe 100;
#X obj 209 416 writesf~ 1;
#X connect 0 0 44 0;
#X connect 0 0 45 0;
#X connect 1 0 52 0;
#X connect 2 0 52 0;
#X connect 3 0 8 0;
#X connect 4 0 5 1;
#X connect 4 0 6 0;
#X connect 5 0 4 0;
#X connect 6 0 7 0;
#X connect 8 0 1 0;
#X connect 9 0 2 0;
#X connect 10 0 9 0;
#X connect 11 0 43 0;
#X connect 11 0 53 0;
#X connect 12 0 13 1;
#X connect 12 0 14 0;
#X connect 13 0 12 0;
#X connect 14 0 15 0;
#X connect 16 0 22 0;
#X connect 17 0 18 1;
#X connect 17 0 19 0;
#X connect 18 0 17 0;
#X connect 19 0 23 0;
#X connect 20 0 16 0;
#X connect 21 0 41 0;
#X connect 21 0 54 0;
#X connect 22 0 52 0;
#X connect 24 0 30 0;
#X connect 25 0 26 1;
#X connect 25 0 27 0;
#X connect 26 0 25 0;
#X connect 27 0 31 0;
#X connect 28 0 24 0;
#X connect 29 0 40 0;
#X connect 29 0 55 0;
#X connect 30 0 52 0;
#X connect 32 0 38 0;
#X connect 33 0 34 1;
#X connect 33 0 35 0;
#X connect 34 0 33 0;
#X connect 35 0 39 0;
#X connect 36 0 32 0;
#X connect 37 0 42 0;
#X connect 37 0 56 0;
#X connect 38 0 52 0;
#X connect 40 0 26 0;
#X connect 41 0 18 0;
#X connect 42 0 34 0;
#X connect 43 0 13 0;
#X connect 44 0 5 0;
#X connect 45 0 49 0;
#X connect 46 0 57 0;
#X connect 47 0 57 0;
#X connect 48 0 57 0;
#X connect 49 0 50 0;
#X connect 49 1 51 0;
#X connect 50 0 48 0;
#X connect 51 0 47 0;
#X connect 52 0 57 0;
#X connect 53 0 49 0;
#X connect 54 0 49 0;
#X connect 55 0 49 0;
#X connect 56 0 49 0;
