#N canvas 30 138 1199 495 10;
#X obj -670 -263 inlet;
#X obj -514 36 s p5value;
#X obj -513 0 s p6value;
#X obj -511 -27 s p7value;
#X obj -508 -55 s p8value;
#X obj -502 -81 s p9value;
#X obj -492 -107 s p10value;
#X obj -447 71 s mix1value;
#X obj -442 41 s mix2value;
#X obj -428 11 s mix3value;
#X obj -421 -19 s mix4value;
#X obj -411 -51 s mix5value;
#X obj -1025 3 % 10;
#X obj -915 38 % 10;
#X obj -803 13 % 10;
#X obj -679 14 % 10;
#X obj -555 33 % 10;
#X obj -1094 16 div 10;
#X obj -971 45 div 10;
#X obj -855 32 div 10;
#X obj -734 38 div 10;
#X obj -613 50 div 10;
#X obj -1086 102 control_score_w1;
#X obj -969 100 control_score_w2;
#X obj -850 104 control_score_w3;
#X obj -722 108 control_score_w4;
#X obj -609 106 control_score_w5;
#X obj -374 -93 s visual_ctr1_value;
#X obj -319 -67 s visual_ctr2_value;
#X obj -273 -41 s psize_value;
#X obj -235 -20 s rec6_value;
#X obj -202 4 s rec7_value;
#X obj -165 23 s rec8_value;
#X obj -122 45 s rec9_value;
#X obj -88 66 s rec10_value;
#X obj -671 -172 unpack f f f f f f f f f f f f f f f f f f f f f f
f f f f f f f f f;
#X obj -248 -168 s metro_curve1_value;
#X obj -231 -92 s metro_curve2_value;
#X obj -95 -112 s metro_curve3_value;
#X obj -57 -82 s metro_curve4_value;
#X obj -31 -144 s metro_curve5_value;
#X connect 0 0 35 0;
#X connect 12 0 22 1;
#X connect 13 0 23 1;
#X connect 14 0 24 1;
#X connect 15 0 25 1;
#X connect 16 0 26 1;
#X connect 17 0 22 0;
#X connect 18 0 23 0;
#X connect 19 0 24 0;
#X connect 20 0 25 0;
#X connect 21 0 26 0;
#X connect 35 2 17 0;
#X connect 35 2 12 0;
#X connect 35 3 18 0;
#X connect 35 3 13 0;
#X connect 35 4 19 0;
#X connect 35 4 14 0;
#X connect 35 5 20 0;
#X connect 35 5 15 0;
#X connect 35 6 21 0;
#X connect 35 6 16 0;
#X connect 35 7 1 0;
#X connect 35 8 2 0;
#X connect 35 9 3 0;
#X connect 35 10 4 0;
#X connect 35 11 5 0;
#X connect 35 12 6 0;
#X connect 35 13 7 0;
#X connect 35 14 8 0;
#X connect 35 15 9 0;
#X connect 35 16 10 0;
#X connect 35 17 11 0;
#X connect 35 18 27 0;
#X connect 35 19 28 0;
#X connect 35 20 29 0;
#X connect 35 21 30 0;
#X connect 35 22 31 0;
#X connect 35 23 32 0;
#X connect 35 24 33 0;
#X connect 35 25 34 0;
#X connect 35 26 36 0;
#X connect 35 27 37 0;
#X connect 35 28 38 0;
#X connect 35 29 39 0;
#X connect 35 30 40 0;
