#N canvas 344 167 306 347 10;
#X floatatom -42 61 4 0 500 0 - - -;
#X floatatom -43 163 0 0 600 0 - - -;
#X obj -42 104 s chunk-size;
#X text 67 92 chunk size;
#X text 83 105 in seconds;
#X obj -44 318 s~ read-pt;
#X obj -42 81 * 0.001;
#X obj -43 260 phasor~;
#X obj -35 214 s precession;
#X obj -43 191 * 0.01;
#X text 22 144 <-- precession \, percent;
#X floatatom 90 208 10 0 8100 0 - - -;
#X obj 87 228 * 0.001;
#X obj 87 253 t b f;
#X text 137 191 <-- loop length;
#X text 148 212 (msec);
#X obj -43 284 *~;
#X obj -43 236 /;
#X obj -40 12 inlet;
#X obj 10 12 inlet;
#X obj 58 7 inlet;
#X connect 0 0 6 0;
#X connect 1 0 9 0;
#X connect 6 0 2 0;
#X connect 7 0 16 0;
#X connect 9 0 8 0;
#X connect 9 0 17 0;
#X connect 11 0 12 0;
#X connect 12 0 13 0;
#X connect 12 0 16 1;
#X connect 13 0 17 0;
#X connect 13 1 17 1;
#X connect 16 0 5 0;
#X connect 17 0 7 0;
#X connect 18 0 0 0;
#X connect 19 0 1 0;
#X connect 20 0 11 0;
