#N canvas 486 22 395 245 10;
#X obj 192 180 world_light;
#X obj 21 172 world_light;
#X obj 15 5 inlet;
#X obj 63 6 inlet;
#X obj 20 128 rotateXYZ -30 120 0;
#X obj 194 129 rotateXYZ 30 -30 2;
#X obj 113 6 inlet;
#X obj 156 8 inlet;
#X obj 251 9 inlet;
#X obj 203 8 inlet;
#X obj 21 95 gemhead;
#X obj 194 99 gemhead;
#X connect 2 0 1 1;
#X connect 3 0 0 1;
#X connect 4 0 1 0;
#X connect 5 0 0 0;
#X connect 6 0 4 1;
#X connect 6 0 5 2;
#X connect 7 0 4 2;
#X connect 7 0 5 1;
#X connect 8 0 4 3;
#X connect 9 0 5 3;
#X connect 10 0 4 0;
#X connect 11 0 5 0;
