#N canvas 400 84 450 300 10;
#X obj 217 245 gemwin;
#X obj 89 248 outlet;
#X obj 77 10 inlet;
#X obj 77 51 route create;
#X msg 77 80 set destroy;
#X msg 195 82 set create;
#X msg 120 133 create \, 1;
#X msg 208 122 destroy;
#X obj -64 15 loadbang;
#X msg -4 130 0.5 0.8 0.3;
#X msg -50 176 1 1.5 0;
#X obj -99 239 world_light;
#X obj -7 238 world_light;
#X obj -103 206 gemhead 1;
#X obj -4 205 gemhead 1;
#X connect 2 0 3 0;
#X connect 3 0 4 0;
#X connect 3 0 6 0;
#X connect 3 1 5 0;
#X connect 3 1 7 0;
#X connect 4 0 1 0;
#X connect 5 0 1 0;
#X connect 6 0 0 0;
#X connect 7 0 0 0;
#X connect 8 0 10 0;
#X connect 8 0 9 0;
#X connect 9 0 12 1;
#X connect 10 0 11 1;
#X connect 13 0 11 0;
#X connect 14 0 12 0;
