#N canvas 306 61 599 349 10;
#X obj -107 47 loadbang;
#X obj -102 103 soundfiler;
#X obj -86 -13 inlet;
#X obj -65 168 soundfiler;
#X obj -39 -14 inlet;
#X obj 23 -11 inlet;
#X obj 24 197 soundfiler;
#X obj -94 14 sel 1;
#X obj -40 16 sel 1;
#X obj 22 19 sel 1;
#X obj 126 226 soundfiler;
#X obj 223 256 soundfiler;
#X obj 122 -1 inlet;
#X obj 121 29 sel 1;
#X obj 217 -3 inlet;
#X obj 216 27 sel 1;
#X obj 290 107 s wave_on2value;
#X obj 181 106 s wave_on2value;
#X obj 37 115 s wave_on2value;
#X obj -89 231 s wave_on2value;
#X obj 33 273 s wave_on2value;
#X obj -94 187 11;
#X obj 27 230 12;
#X obj 30 92 13;
#X obj 179 80 14;
#X obj 285 63 15;
#X msg -107 72 read ./sound/soundscape/l12.wav wavetable2;
#X msg -70 131 read ./sound/soundscape/l22.wav wavetable2;
#X msg 21 162 read ./sound/soundscape/l32.wav wavetable2;
#X msg 121 195 read ./sound/soundscape/l42.wav wavetable2;
#X msg 218 225 read ./sound/soundscape/l52.wav wavetable2;
#X connect 0 0 26 0;
#X connect 2 0 7 0;
#X connect 4 0 8 0;
#X connect 5 0 9 0;
#X connect 7 0 26 0;
#X connect 7 0 21 0;
#X connect 8 0 27 0;
#X connect 8 0 22 0;
#X connect 9 0 28 0;
#X connect 9 0 23 0;
#X connect 12 0 13 0;
#X connect 13 0 29 0;
#X connect 13 0 24 0;
#X connect 14 0 15 0;
#X connect 15 0 30 0;
#X connect 15 0 25 0;
#X connect 21 0 19 0;
#X connect 22 0 20 0;
#X connect 23 0 18 0;
#X connect 24 0 17 0;
#X connect 25 0 16 0;
#X connect 26 0 1 0;
#X connect 27 0 3 0;
#X connect 28 0 6 0;
#X connect 29 0 10 0;
#X connect 30 0 11 0;
