#N canvas 138 27 788 441 10;
#X obj -107 41 loadbang;
#X obj -93 130 soundfiler;
#X obj -86 -13 inlet;
#X obj -51 210 soundfiler;
#X obj -39 -14 inlet;
#X obj 14 -7 inlet;
#X obj 38 239 soundfiler;
#X obj -89 12 sel 1;
#X obj -42 19 sel 1;
#X obj 14 29 sel 1;
#X obj 68 -7 inlet;
#X obj 119 -7 inlet;
#X obj 150 269 soundfiler;
#X obj 243 295 soundfiler;
#X obj 77 35 sel 1;
#X obj 130 43 sel 1;
#X obj 404 361 s wave_on1value;
#X obj 284 358 s wave_on1value;
#X obj 148 345 s wave_on1value;
#X obj -98 339 s wave_on1value;
#X obj 28 338 s wave_on1value;
#X obj -91 279 11;
#X obj 24 293 12;
#X obj 146 294 13;
#X obj 280 313 14;
#X obj 400 315 15;
#X msg -93 100 read ./sound/soundscape/l11.wav wavetable1;
#X msg -43 162 read ./sound/soundscape/l21.wav wavetable1;
#X msg 46 198 read ./sound/soundscape/l31.wav wavetable1;
#X msg 147 232 read ./sound/soundscape/l41.wav wavetable1;
#X msg 240 258 read ./sound/soundscape/l51.wav wavetable1;
#X connect 0 0 26 0;
#X connect 2 0 7 0;
#X connect 4 0 8 0;
#X connect 5 0 9 0;
#X connect 7 0 26 0;
#X connect 7 0 21 0;
#X connect 8 0 27 0;
#X connect 8 0 22 0;
#X connect 9 0 28 0;
#X connect 9 0 23 0;
#X connect 10 0 14 0;
#X connect 11 0 15 0;
#X connect 14 0 29 0;
#X connect 14 0 24 0;
#X connect 15 0 30 0;
#X connect 15 0 25 0;
#X connect 21 0 19 0;
#X connect 22 0 20 0;
#X connect 23 0 18 0;
#X connect 24 0 17 0;
#X connect 25 0 16 0;
#X connect 26 0 1 0;
#X connect 27 0 3 0;
#X connect 28 0 6 0;
#X connect 29 0 12 0;
#X connect 30 0 13 0;
