#N canvas 379 50 659 481 10;
#X obj -93 130 soundfiler;
#X obj -86 -13 inlet;
#X obj -51 210 soundfiler;
#X obj -39 -14 inlet;
#X obj 14 -7 inlet;
#X obj 38 239 soundfiler;
#X obj -89 12 sel 1;
#X obj -42 19 sel 1;
#X obj 14 29 sel 1;
#X obj 68 -7 inlet;
#X obj 119 -7 inlet;
#X obj 150 269 soundfiler;
#X obj 243 295 soundfiler;
#X obj 77 35 sel 1;
#X obj 136 43 sel 1;
#X msg -93 101 read ./sound/recycleout/r13.wav wavetable3;
#X msg -54 175 read ./sound/recycleout/r23.wav wavetable3;
#X msg 35 202 read ./sound/recycleout/r33.wav wavetable3;
#X msg 147 231 read ./sound/recycleout/r43.wav wavetable3;
#X msg 240 258 read ./sound/recycleout/r53.wav wavetable3;
#X obj -119 275 del 50;
#X msg -116 314 \; wavetable3 normalize;
#X obj 315 407 s wave_on3value;
#X obj 193 384 s wave_on3value;
#X obj 87 398 s wave_on3value;
#X obj 2 426 s wave_on3value;
#X obj -101 405 s wave_on3value;
#X obj 314 377 34;
#X obj 195 357 33;
#X obj 83 348 32;
#X obj 0 366 31;
#X obj -99 363 30;
#X connect 1 0 6 0;
#X connect 3 0 7 0;
#X connect 4 0 8 0;
#X connect 6 0 15 0;
#X connect 6 0 20 0;
#X connect 6 0 31 0;
#X connect 7 0 16 0;
#X connect 7 0 20 0;
#X connect 7 0 30 0;
#X connect 8 0 17 0;
#X connect 8 0 20 0;
#X connect 8 0 29 0;
#X connect 9 0 13 0;
#X connect 10 0 14 0;
#X connect 13 0 18 0;
#X connect 13 0 20 0;
#X connect 13 0 28 0;
#X connect 14 0 19 0;
#X connect 14 0 20 0;
#X connect 14 0 27 0;
#X connect 15 0 0 0;
#X connect 16 0 2 0;
#X connect 17 0 5 0;
#X connect 18 0 11 0;
#X connect 19 0 12 0;
#X connect 20 0 21 0;
#X connect 27 0 22 0;
#X connect 28 0 23 0;
#X connect 29 0 24 0;
#X connect 30 0 25 0;
#X connect 31 0 26 0;
