#N canvas 231 45 648 398 10;
#X obj -107 47 loadbang;
#X obj -102 103 soundfiler;
#X obj -86 -13 inlet;
#X obj -65 168 soundfiler;
#X obj -39 -14 inlet;
#X obj 23 -11 inlet;
#X obj 24 197 soundfiler;
#X obj -89 15 sel 1;
#X obj -35 21 sel 1;
#X obj 26 19 sel 1;
#X obj 87 -14 inlet;
#X obj 90 16 sel 1;
#X obj 151 -13 inlet;
#X obj 154 17 sel 1;
#X obj 118 222 soundfiler;
#X obj 204 249 soundfiler;
#X obj -86 270 s wave_on4value;
#X obj -37 303 s wave_on4value;
#X obj 62 305 s wave_on4value;
#X obj 172 299 s wave_on4value;
#X obj 336 313 s wave_on4value;
#X obj -93 226 11;
#X obj -25 234 12;
#X obj 54 245 13;
#X obj 166 272 14;
#X obj 330 269 15;
#X msg -106 71 read ./sound/soundscape/l14.wav wavetable4;
#X msg -70 134 read ./sound/soundscape/l24.wav wavetable4;
#X msg 20 161 read ./sound/soundscape/l34.wav wavetable4;
#X msg 114 186 read ./sound/soundscape/l44.wav wavetable4;
#X msg 201 213 read ./sound/soundscape/l54.wav wavetable4;
#X connect 0 0 26 0;
#X connect 2 0 7 0;
#X connect 4 0 8 0;
#X connect 5 0 9 0;
#X connect 7 0 26 0;
#X connect 7 0 21 0;
#X connect 8 0 27 0;
#X connect 8 0 22 0;
#X connect 9 0 28 0;
#X connect 9 0 23 0;
#X connect 10 0 11 0;
#X connect 11 0 29 0;
#X connect 11 0 24 0;
#X connect 12 0 13 0;
#X connect 13 0 30 0;
#X connect 13 0 25 0;
#X connect 21 0 16 0;
#X connect 22 0 17 0;
#X connect 23 0 18 0;
#X connect 24 0 19 0;
#X connect 25 0 20 0;
#X connect 26 0 1 0;
#X connect 27 0 3 0;
#X connect 28 0 6 0;
#X connect 29 0 14 0;
#X connect 30 0 15 0;
