#N canvas 365 51 631 487 10;
#X obj -93 130 soundfiler;
#X obj -86 -13 inlet;
#X obj -51 210 soundfiler;
#X obj -39 -14 inlet;
#X obj 14 -7 inlet;
#X obj 38 239 soundfiler;
#X obj -89 12 sel 1;
#X obj -42 19 sel 1;
#X obj 14 29 sel 1;
#X obj 68 -7 inlet;
#X obj 119 -7 inlet;
#X obj 150 269 soundfiler;
#X obj 243 295 soundfiler;
#X obj 77 35 sel 1;
#X obj 130 43 sel 1;
#X msg -93 100 read ./sound/recycleout/r11.wav wavetable1;
#X msg -56 176 read ./sound/recycleout/r21.wav wavetable1;
#X msg 34 202 read ./sound/recycleout/r31.wav wavetable1;
#X msg 147 232 read ./sound/recycleout/r41.wav wavetable1;
#X msg 240 258 read ./sound/recycleout/r51.wav wavetable1;
#X msg -116 314 \; wavetable1 normalize;
#X obj -8 416 s wave_on1value;
#X obj 77 388 s wave_on1value;
#X obj 183 375 s wave_on1value;
#X obj -111 395 s wave_on1value;
#X obj 305 397 s wave_on1value;
#X obj -119 274 del 100;
#X obj -109 352 30;
#X obj -9 361 31;
#X obj 80 353 32;
#X obj 183 347 33;
#X obj 304 365 34;
#X connect 1 0 6 0;
#X connect 3 0 7 0;
#X connect 4 0 8 0;
#X connect 6 0 15 0;
#X connect 6 0 26 0;
#X connect 6 0 27 0;
#X connect 7 0 16 0;
#X connect 7 0 26 0;
#X connect 7 0 28 0;
#X connect 8 0 17 0;
#X connect 8 0 26 0;
#X connect 8 0 29 0;
#X connect 9 0 13 0;
#X connect 10 0 14 0;
#X connect 13 0 18 0;
#X connect 13 0 26 0;
#X connect 13 0 30 0;
#X connect 14 0 19 0;
#X connect 14 0 26 0;
#X connect 14 0 31 0;
#X connect 15 0 0 0;
#X connect 16 0 2 0;
#X connect 17 0 5 0;
#X connect 18 0 11 0;
#X connect 19 0 12 0;
#X connect 26 0 20 0;
#X connect 27 0 24 0;
#X connect 28 0 21 0;
#X connect 29 0 22 0;
#X connect 30 0 23 0;
#X connect 31 0 25 0;
