#N canvas 273 69 754 484 10;
#X obj -93 130 soundfiler;
#X obj -92 -14 inlet;
#X obj -51 210 soundfiler;
#X obj -39 -14 inlet;
#X obj 14 -7 inlet;
#X obj 38 239 soundfiler;
#X obj -94 30 sel 1;
#X obj -39 37 sel 1;
#X obj 16 38 sel 1;
#X obj 68 -7 inlet;
#X obj 119 -7 inlet;
#X obj 150 269 soundfiler;
#X obj 243 295 soundfiler;
#X obj 79 43 sel 1;
#X obj 126 41 sel 1;
#X msg -94 101 read ./sound/recycleout/r12.wav wavetable2;
#X msg -54 174 read ./sound/recycleout/r22.wav wavetable2;
#X msg 35 202 read ./sound/recycleout/r32.wav wavetable2;
#X msg 147 232 read ./sound/recycleout/r42.wav wavetable2;
#X msg 239 258 read ./sound/recycleout/r52.wav wavetable2;
#X msg -126 304 \; wavetable2 normalize;
#X obj -129 265 del 50;
#X obj 314 406 s wave_on2value;
#X obj 193 384 s wave_on2value;
#X obj 87 398 s wave_on2value;
#X obj 2 426 s wave_on2value;
#X obj -101 406 s wave_on2value;
#X obj -99 362 30;
#X obj 1 368 31;
#X obj 89 363 32;
#X obj 194 357 33;
#X obj 313 376 34;
#X connect 1 0 6 0;
#X connect 3 0 7 0;
#X connect 4 0 8 0;
#X connect 6 0 15 0;
#X connect 6 0 21 0;
#X connect 6 0 27 0;
#X connect 7 0 16 0;
#X connect 7 0 21 0;
#X connect 7 0 28 0;
#X connect 8 0 17 0;
#X connect 8 0 21 0;
#X connect 8 0 29 0;
#X connect 9 0 13 0;
#X connect 10 0 14 0;
#X connect 13 0 18 0;
#X connect 13 0 21 0;
#X connect 13 0 30 0;
#X connect 14 0 19 0;
#X connect 14 0 21 0;
#X connect 14 0 31 0;
#X connect 15 0 0 0;
#X connect 16 0 2 0;
#X connect 17 0 5 0;
#X connect 18 0 11 0;
#X connect 19 0 12 0;
#X connect 21 0 20 0;
#X connect 27 0 26 0;
#X connect 28 0 25 0;
#X connect 29 0 24 0;
#X connect 30 0 23 0;
#X connect 31 0 22 0;
