#N canvas 291 45 702 374 10;
#X obj -107 47 loadbang;
#X obj -102 103 soundfiler;
#X obj -86 -13 inlet;
#X obj -65 168 soundfiler;
#X obj -29 -17 inlet;
#X obj 23 -11 inlet;
#X obj 24 197 soundfiler;
#X obj -86 17 sel 1;
#X obj -32 17 sel 1;
#X obj 18 23 sel 1;
#X obj 114 231 soundfiler;
#X obj 207 261 soundfiler;
#X obj 98 -7 inlet;
#X obj 93 27 sel 1;
#X obj 195 -4 inlet;
#X obj 190 30 sel 1;
#X obj -96 260 s wave_on3value;
#X obj 17 279 s wave_on3value;
#X obj 133 301 s wave_on3value;
#X obj 296 302 s wave_on3value;
#X obj 414 306 s wave_on3value;
#X obj -102 215 11;
#X obj 11 235 12;
#X obj 127 257 13;
#X obj 290 258 14;
#X obj 407 262 15;
#X msg -107 72 read ./sound/soundscape/l13.wav wavetable3;
#X msg -68 133 read ./sound/soundscape/l23.wav wavetable3;
#X msg 21 161 read ./sound/soundscape/l33.wav wavetable3;
#X msg 124 196 read ./sound/soundscape/l43.wav wavetable3;
#X msg 204 226 read ./sound/soundscape/l53.wav wavetable3;
#X connect 0 0 26 0;
#X connect 2 0 7 0;
#X connect 4 0 8 0;
#X connect 5 0 9 0;
#X connect 7 0 26 0;
#X connect 7 0 21 0;
#X connect 8 0 27 0;
#X connect 8 0 22 0;
#X connect 9 0 28 0;
#X connect 9 0 23 0;
#X connect 12 0 13 0;
#X connect 13 0 29 0;
#X connect 13 0 24 0;
#X connect 14 0 15 0;
#X connect 15 0 30 0;
#X connect 15 0 25 0;
#X connect 21 0 16 0;
#X connect 22 0 17 0;
#X connect 23 0 18 0;
#X connect 24 0 19 0;
#X connect 25 0 20 0;
#X connect 26 0 1 0;
#X connect 27 0 3 0;
#X connect 28 0 6 0;
#X connect 29 0 10 0;
#X connect 30 0 11 0;
