#N canvas 121 62 733 419 10;
#X obj -107 47 loadbang;
#X obj -102 103 soundfiler;
#X obj -86 -13 inlet;
#X obj -65 168 soundfiler;
#X obj -39 -14 inlet;
#X obj 23 -11 inlet;
#X obj 24 197 soundfiler;
#X obj -80 19 sel 1;
#X obj -35 21 sel 1;
#X obj 26 19 sel 1;
#X obj 88 -4 inlet;
#X obj 91 26 sel 1;
#X obj 152 -4 inlet;
#X obj 155 26 sel 1;
#X obj 119 223 soundfiler;
#X obj 217 246 soundfiler;
#X obj -87 260 s wave_on5value;
#X obj 24 268 s wave_on5value;
#X obj 147 282 s wave_on5value;
#X obj 283 284 s wave_on5value;
#X obj 392 284 s wave_on5value;
#X obj -93 215 11;
#X obj 19 225 12;
#X obj 141 250 13;
#X obj 291 256 14;
#X obj 385 255 15;
#X msg -106 72 read ./sound/soundscape/l15.wav wavetable5;
#X msg -70 133 read ./sound/soundscape/l25.wav wavetable5;
#X msg 21 161 read ./sound/soundscape/l35.wav wavetable5;
#X msg 114 189 read ./sound/soundscape/l45.wav wavetable5;
#X msg 212 211 read ./sound/soundscape/l55.wav wavetable5;
#X connect 0 0 26 0;
#X connect 2 0 7 0;
#X connect 4 0 8 0;
#X connect 5 0 9 0;
#X connect 7 0 26 0;
#X connect 7 0 21 0;
#X connect 8 0 27 0;
#X connect 8 0 22 0;
#X connect 9 0 28 0;
#X connect 9 0 23 0;
#X connect 10 0 11 0;
#X connect 11 0 29 0;
#X connect 11 0 24 0;
#X connect 12 0 13 0;
#X connect 13 0 30 0;
#X connect 13 0 25 0;
#X connect 21 0 16 0;
#X connect 22 0 17 0;
#X connect 23 0 18 0;
#X connect 24 0 19 0;
#X connect 25 0 20 0;
#X connect 26 0 1 0;
#X connect 27 0 3 0;
#X connect 28 0 6 0;
#X connect 29 0 14 0;
#X connect 30 0 15 0;
