#N canvas 21 144 760 453 10;
#X obj -6 89 / 5;
#X obj -7 118 int;
#X obj -12 191 hradio 15 1 0 5 empty empty empty 0 -8 0 10 -262144
-1 -1 4;
#X obj 39 6 gemmouse 1 2;
#X obj -44 8 r p9;
#X obj -12 51 *;
#X obj 170 38 *;
#X obj 144 87 abs;
#X obj 191 7 r p10;
#X obj 40 307 tgl 15 0 empty empty empty 17 7 0 10 -262144 -1 -1 0
1;
#X obj 76 310 tgl 15 0 empty empty empty 17 7 0 10 -262144 -1 -1 0
1;
#X obj 111 311 tgl 15 0 empty empty empty 17 7 0 10 -262144 -1 -1 0
1;
#X obj 146 311 tgl 15 0 empty empty empty 17 7 0 10 -262144 -1 -1 0
1;
#X obj 183 305 tgl 15 0 empty empty empty 17 7 0 10 -262144 -1 -1 0
1;
#X obj -7 144 abs;
#X obj -23 372 s mix1value;
#X obj 80 382 s mix2value;
#X obj 169 383 s mix3value;
#X obj 332 388 s mix5value;
#X obj 250 383 s mix4value;
#X obj 18 338 spigot;
#X obj 145 147 s fader_value;
#X obj 89 347 spigot;
#X obj 177 347 spigot;
#X obj 234 346 spigot;
#X obj 300 337 spigot;
#X obj 233 265 r fader_value;
#X obj 71 191 r mix1_on;
#X obj 137 192 r mix2_on;
#X obj 199 192 r mix3_on;
#X obj 264 192 r mix4_on;
#X obj 331 189 r mix5_on;
#X obj 44 226 expr if ($f1==0&&$f2 \, 1 \, 0) \; if ($f1==1&&$f3 \,
1 \, 0) \; if ($f1==2&&$f4 \, 1 \, 0) \; if ($f1==3&&$f5 \, 1 \, 0)
\; if ($f1==4&&$f6 \, 1 \, 0) \;;
#X obj 143 116 pipe 150;
#X obj 147 63 100;
#X connect 0 0 1 0;
#X connect 1 0 14 0;
#X connect 2 0 32 0;
#X connect 3 0 5 0;
#X connect 3 1 6 0;
#X connect 4 0 5 1;
#X connect 5 0 0 0;
#X connect 6 0 34 0;
#X connect 7 0 33 0;
#X connect 8 0 6 1;
#X connect 9 0 20 1;
#X connect 10 0 22 1;
#X connect 11 0 23 1;
#X connect 12 0 24 1;
#X connect 13 0 25 1;
#X connect 14 0 2 0;
#X connect 20 0 15 0;
#X connect 22 0 16 0;
#X connect 23 0 17 0;
#X connect 24 0 19 0;
#X connect 25 0 18 0;
#X connect 26 0 20 0;
#X connect 26 0 22 0;
#X connect 26 0 23 0;
#X connect 26 0 24 0;
#X connect 26 0 25 0;
#X connect 27 0 32 1;
#X connect 28 0 32 2;
#X connect 29 0 32 3;
#X connect 30 0 32 4;
#X connect 31 0 32 5;
#X connect 32 0 9 0;
#X connect 32 1 10 0;
#X connect 32 2 11 0;
#X connect 32 3 12 0;
#X connect 32 4 13 0;
#X connect 33 0 21 0;
#X connect 34 0 7 0;
