#N canvas 22 74 1258 507 10;
#X obj 447 82 hradio 15 1 0 4 empty empty empty 0 -8 0 10 -262144 -1
-1 0;
#X obj 130 -19 *;
#X obj 449 -31 *;
#X obj 457 194 tgl 15 0 empty empty empty 17 7 0 10 -262144 -1 -1 0
1;
#X obj 528 203 tgl 15 0 empty empty empty 17 7 0 10 -262144 -1 -1 0
1;
#X obj 591 205 tgl 15 0 empty empty empty 17 7 0 10 -262144 -1 -1 0
1;
#X obj 686 210 tgl 15 0 empty empty empty 17 7 0 10 -262144 -1 -1 0
1;
#X obj 486 -135 r p10;
#X obj 154 -127 r p9;
#X obj 538 70 r p5_on;
#X obj 604 71 r p6_on;
#X obj 666 71 r p7_on;
#X obj 738 70 r p8_on;
#X obj 466 103 expr if ($f1==0&&$f2 \, 1 \, 0) \; if ($f1==1&&$f3 \,
1 \, 0) \; if ($f1==2&&$f4 \, 1 \, 0) \; if ($f1==3&&$f5 \, 1 \, 0)
\;;
#X obj 384 199 spigot;
#X obj 474 221 spigot;
#X obj 553 234 spigot;
#X obj 642 229 spigot;
#X obj 409 272 s p5value;
#X obj 487 274 s p6value;
#X obj 558 276 s p7value;
#X obj 641 272 s p8value;
#X obj 691 182 r fader_value8;
#X obj 596 171 r fader_value7;
#X obj 480 171 r fader_value6;
#X obj 362 168 r fader_value5;
#X obj 448 24 int;
#X obj 449 48 abs;
#X obj -2 175 int;
#X obj 2 208 abs;
#X obj -5 284 s fader_value5;
#X obj 102 173 int;
#X obj 106 206 abs;
#X obj 206 171 int;
#X obj 210 204 abs;
#X obj 304 167 int;
#X obj 99 282 s fader_value6;
#X obj 203 280 s fader_value7;
#X obj 301 277 s fader_value8;
#X obj 57 -138 r coord_vd_z;
#X floatatom 60 -89 5 0 0 0 - - -;
#X obj 391 -129 r coord_vd_y;
#X floatatom 405 -75 5 0 0 0 - - -;
#X obj 452 0 % 4;
#X obj -1 250 pipe 150;
#X obj 104 247 pipe 150;
#X obj 208 246 pipe 150;
#X obj 305 239 pipe 150;
#X obj 99 136 + -40;
#X obj 205 133 + -30;
#X obj -3 137 + -25;
#X obj 302 130 + 34;
#X connect 0 0 13 0;
#X connect 1 0 48 0;
#X connect 1 0 49 0;
#X connect 1 0 50 0;
#X connect 1 0 51 0;
#X connect 2 0 43 0;
#X connect 3 0 14 1;
#X connect 4 0 15 1;
#X connect 5 0 16 1;
#X connect 6 0 17 1;
#X connect 7 0 2 1;
#X connect 8 0 1 1;
#X connect 9 0 13 1;
#X connect 10 0 13 2;
#X connect 11 0 13 3;
#X connect 12 0 13 4;
#X connect 13 0 3 0;
#X connect 13 1 4 0;
#X connect 13 2 5 0;
#X connect 13 3 6 0;
#X connect 14 0 18 0;
#X connect 15 0 19 0;
#X connect 16 0 20 0;
#X connect 17 0 21 0;
#X connect 22 0 17 0;
#X connect 23 0 16 0;
#X connect 24 0 15 0;
#X connect 25 0 14 0;
#X connect 26 0 27 0;
#X connect 27 0 0 0;
#X connect 28 0 29 0;
#X connect 29 0 44 0;
#X connect 31 0 32 0;
#X connect 32 0 45 0;
#X connect 33 0 34 0;
#X connect 34 0 46 0;
#X connect 35 0 47 0;
#X connect 39 0 40 0;
#X connect 40 0 1 0;
#X connect 41 0 42 0;
#X connect 42 0 2 0;
#X connect 43 0 26 0;
#X connect 44 0 30 0;
#X connect 45 0 36 0;
#X connect 46 0 37 0;
#X connect 47 0 38 0;
#X connect 48 0 31 0;
#X connect 49 0 33 0;
#X connect 50 0 28 0;
#X connect 51 0 35 0;
