#N canvas 313 141 1258 507 10;
#X obj 447 82 hradio 15 1 0 4 empty empty empty 0 -8 0 10 -262144 -1
-1 0;
#X obj 130 -19 *;
#X obj 454 -57 *;
#X obj 457 194 tgl 15 0 empty empty empty 17 7 0 10 -262144 -1 -1 0
1;
#X obj 528 203 tgl 15 0 empty empty empty 17 7 0 10 -262144 -1 -1 0
1;
#X obj 591 205 tgl 15 0 empty empty empty 17 7 0 10 -262144 -1 -1 0
1;
#X obj 686 210 tgl 15 0 empty empty empty 17 7 0 10 -262144 -1 -1 0
1;
#X obj 491 -161 r p10;
#X obj 1 -164 r p9;
#X obj 452 0 / 25;
#X obj 215 -148 gemmouse 1 2;
#X obj 538 70 r p5_on;
#X obj 604 71 r p6_on;
#X obj 666 71 r p7_on;
#X obj 738 70 r p8_on;
#X obj 466 103 expr if ($f1==0&&$f2 \, 1 \, 0) \; if ($f1==1&&$f3 \,
1 \, 0) \; if ($f1==2&&$f4 \, 1 \, 0) \; if ($f1==3&&$f5 \, 1 \, 0)
\;;
#X obj 384 199 spigot;
#X obj 474 221 spigot;
#X obj 553 234 spigot;
#X obj 642 229 spigot;
#X obj 409 272 s p5value;
#X obj 487 274 s p6value;
#X obj 558 276 s p7value;
#X obj 641 272 s p8value;
#X obj 691 182 r fader_value8;
#X obj 596 171 r fader_value7;
#X obj 480 171 r fader_value6;
#X obj 362 168 r fader_value5;
#X obj 448 24 int;
#X obj 449 48 abs;
#X obj -2 100 * 383;
#X obj -3 137 + 25;
#X obj -2 175 int;
#X obj 2 208 abs;
#X obj -5 284 s fader_value5;
#X obj 102 173 int;
#X obj 106 206 abs;
#X obj 206 171 int;
#X obj 210 204 abs;
#X obj 99 282 s fader_value6;
#X obj 203 280 s fader_value7;
#X obj 300 276 s fader_value8;
#X obj 102 98 * 4;
#X obj 100 136 + -100;
#X obj 205 133 + 30;
#X obj 206 96 * 385;
#X obj 303 175 + -240;
#X obj 306 240 pipe 100;
#X obj 208 246 pipe 100;
#X obj 104 247 pipe 100;
#X obj 0 250 pipe 100;
#X obj 807 74 * 383;
#X obj 806 111 + 25;
#X obj 807 149 int;
#X obj 811 182 abs;
#X obj 804 258 s fader_value5;
#X obj 911 147 int;
#X obj 915 180 abs;
#X obj 1015 145 int;
#X obj 1019 178 abs;
#X obj 1113 141 int;
#X obj 908 256 s fader_value6;
#X obj 1012 254 s fader_value7;
#X obj 1109 250 s fader_value8;
#X obj 911 72 * 4;
#X obj 909 110 + -100;
#X obj 1014 107 + 30;
#X obj 1015 70 * 385;
#X obj 1113 64 * 19.2;
#X obj 1111 103 + -240;
#X obj 1115 214 pipe 100;
#X obj 1017 220 pipe 100;
#X obj 913 221 pipe 100;
#X obj 809 224 pipe 100;
#X obj 282 63 % 12;
#X obj 335 61 / 12;
#X obj 282 87 int;
#X obj 335 86 int;
#X obj 299 125 +;
#X obj 306 29 * 213;
#X connect 0 0 15 0;
#X connect 1 0 30 0;
#X connect 1 0 42 0;
#X connect 1 0 45 0;
#X connect 1 0 79 0;
#X connect 2 0 9 0;
#X connect 3 0 16 1;
#X connect 4 0 17 1;
#X connect 5 0 18 1;
#X connect 6 0 19 1;
#X connect 7 0 2 1;
#X connect 8 0 1 1;
#X connect 9 0 28 0;
#X connect 10 0 1 0;
#X connect 10 1 2 0;
#X connect 11 0 15 1;
#X connect 12 0 15 2;
#X connect 13 0 15 3;
#X connect 14 0 15 4;
#X connect 15 0 3 0;
#X connect 15 1 4 0;
#X connect 15 2 5 0;
#X connect 15 3 6 0;
#X connect 16 0 20 0;
#X connect 17 0 21 0;
#X connect 18 0 22 0;
#X connect 19 0 23 0;
#X connect 24 0 19 0;
#X connect 25 0 18 0;
#X connect 26 0 17 0;
#X connect 27 0 16 0;
#X connect 28 0 29 0;
#X connect 29 0 0 0;
#X connect 30 0 31 0;
#X connect 31 0 32 0;
#X connect 32 0 33 0;
#X connect 33 0 50 0;
#X connect 35 0 36 0;
#X connect 36 0 49 0;
#X connect 37 0 38 0;
#X connect 38 0 48 0;
#X connect 42 0 43 0;
#X connect 43 0 35 0;
#X connect 44 0 37 0;
#X connect 45 0 44 0;
#X connect 46 0 47 0;
#X connect 47 0 41 0;
#X connect 48 0 40 0;
#X connect 49 0 39 0;
#X connect 50 0 34 0;
#X connect 51 0 52 0;
#X connect 52 0 53 0;
#X connect 53 0 54 0;
#X connect 54 0 73 0;
#X connect 56 0 57 0;
#X connect 57 0 72 0;
#X connect 58 0 59 0;
#X connect 59 0 71 0;
#X connect 60 0 70 0;
#X connect 64 0 65 0;
#X connect 65 0 56 0;
#X connect 66 0 58 0;
#X connect 67 0 66 0;
#X connect 68 0 69 0;
#X connect 69 0 60 0;
#X connect 70 0 63 0;
#X connect 71 0 62 0;
#X connect 72 0 61 0;
#X connect 73 0 55 0;
#X connect 74 0 76 0;
#X connect 75 0 77 0;
#X connect 76 0 78 0;
#X connect 77 0 78 1;
#X connect 78 0 46 0;
#X connect 79 0 74 0;
#X connect 79 0 75 0;
