#N canvas 54 46 1097 552 10;
#X obj -4 68 int;
#X obj -12 191 hradio 15 1 0 5 empty empty empty 0 -8 0 10 -262144
-1 -1 4;
#X obj 84 -86 r p9;
#X obj -5 13 *;
#X obj 153 26 *;
#X obj 144 87 abs;
#X obj 249 -73 r p10;
#X obj 40 307 tgl 15 0 empty empty empty 17 7 0 10 -262144 -1 -1 0
1;
#X obj 76 310 tgl 15 0 empty empty empty 17 7 0 10 -262144 -1 -1 0
1;
#X obj 111 311 tgl 15 0 empty empty empty 17 7 0 10 -262144 -1 -1 0
1;
#X obj 146 311 tgl 15 0 empty empty empty 17 7 0 10 -262144 -1 -1 0
1;
#X obj 183 305 tgl 15 0 empty empty empty 17 7 0 10 -262144 -1 -1 1
1;
#X obj -4 96 abs;
#X obj -23 372 s mix1value;
#X obj 80 382 s mix2value;
#X obj 169 383 s mix3value;
#X obj 332 388 s mix5value;
#X obj 250 383 s mix4value;
#X obj 18 338 spigot;
#X obj 145 147 s fader_value;
#X obj 89 347 spigot;
#X obj 177 347 spigot;
#X obj 234 346 spigot;
#X obj 300 337 spigot;
#X obj 233 265 r fader_value;
#X obj 71 191 r mix1_on;
#X obj 137 192 r mix2_on;
#X obj 199 192 r mix3_on;
#X obj 264 192 r mix4_on;
#X obj 331 189 r mix5_on;
#X obj 44 226 expr if ($f1==0&&$f2 \, 1 \, 0) \; if ($f1==1&&$f3 \,
1 \, 0) \; if ($f1==2&&$f4 \, 1 \, 0) \; if ($f1==3&&$f5 \, 1 \, 0)
\; if ($f1==4&&$f6 \, 1 \, 0) \;;
#X obj -37 -88 r coord_vd_x;
#X obj 318 -52 r coord_vd_y;
#X obj 143 -77 r coord_vd_z;
#X obj 143 116 pipe 250;
#X floatatom 29 155 5 0 0 0 - - -;
#X floatatom 174 -29 5 0 0 0 - - -;
#X floatatom 338 12 5 0 0 0 - - -;
#X obj -6 121 pipe 250;
#X floatatom -10 -43 5 0 0 0 - - -;
#X obj -4 41 % 5;
#X obj 147 63 - 90;
#X connect 0 0 12 0;
#X connect 1 0 30 0;
#X connect 2 0 3 1;
#X connect 3 0 40 0;
#X connect 4 0 41 0;
#X connect 5 0 34 0;
#X connect 6 0 4 1;
#X connect 7 0 18 1;
#X connect 8 0 20 1;
#X connect 9 0 21 1;
#X connect 10 0 22 1;
#X connect 11 0 23 1;
#X connect 12 0 38 0;
#X connect 18 0 13 0;
#X connect 20 0 14 0;
#X connect 21 0 15 0;
#X connect 22 0 17 0;
#X connect 23 0 16 0;
#X connect 24 0 18 0;
#X connect 24 0 20 0;
#X connect 24 0 21 0;
#X connect 24 0 22 0;
#X connect 24 0 23 0;
#X connect 25 0 30 1;
#X connect 26 0 30 2;
#X connect 27 0 30 3;
#X connect 28 0 30 4;
#X connect 29 0 30 5;
#X connect 30 0 7 0;
#X connect 30 1 8 0;
#X connect 30 2 9 0;
#X connect 30 3 10 0;
#X connect 30 4 11 0;
#X connect 31 0 3 0;
#X connect 31 0 39 0;
#X connect 32 0 37 0;
#X connect 33 0 4 0;
#X connect 33 0 36 0;
#X connect 34 0 19 0;
#X connect 38 0 1 0;
#X connect 38 0 35 0;
#X connect 40 0 0 0;
#X connect 41 0 5 0;
