#N canvas 147 52 358 471 10;
#X obj 65 130 dbtorms;
#X obj 57 -59 inlet;
#X obj 66 190 line~;
#X text 18 -60 audio;
#X obj -74 -62 inlet~;
#X obj -40 194 *~;
#X obj 51 323 pvu~;
#X text 99 -60 OUTPUT~;
#X obj 36 287 dac~;
#X obj -71 315 throw~ bifput;
#X obj 161 317 pvu~;
#X obj 47 364 s sinal_left;
#X obj 161 357 s sinal_right;
#X obj -29 -62 inlet~;
#X obj 21 217 *~;
#X msg 141 240 start;
#X obj 160 -55 loadbang;
#X obj -37 278 +~;
#X obj 67 162 pack 0 50;
#X connect 0 0 18 0;
#X connect 1 0 0 0;
#X connect 2 0 5 1;
#X connect 2 0 14 1;
#X connect 4 0 5 0;
#X connect 5 0 8 0;
#X connect 5 0 17 0;
#X connect 5 0 6 0;
#X connect 6 0 11 0;
#X connect 10 0 12 0;
#X connect 13 0 14 0;
#X connect 14 0 8 1;
#X connect 14 0 17 1;
#X connect 14 0 10 0;
#X connect 15 0 10 0;
#X connect 15 0 6 0;
#X connect 16 0 15 0;
#X connect 17 0 9 0;
#X connect 18 0 2 0;
