#N canvas 4 53 442 314 10;
#X obj 21 186 tabread pan_curve1;
#X obj 20 236 s pan1_value;
#X obj 216 4 r metro_curve1;
#X obj 150 58 metro 1000;
#X obj 8 10 r index_curve1;
#X obj 153 100 float;
#X obj 153 131 + 1;
#X obj 155 160 % 100;
#X obj 155 190 s index_curve1;
#X floatatom 225 230 5 0 0 0 - - -;
#X floatatom 140 245 5 0 0 0 - - -;
#X obj 106 4 r liga_curve1;
#X connect 0 0 1 0;
#X connect 0 0 10 0;
#X connect 2 0 3 1;
#X connect 3 0 5 0;
#X connect 4 0 0 0;
#X connect 4 0 5 1;
#X connect 5 0 6 0;
#X connect 6 0 7 0;
#X connect 7 0 8 0;
#X connect 7 0 9 0;
#X connect 11 0 3 0;
