#N canvas 0 84 1265 353 10;
#X obj -814 -61 tabread pan_curve1;
#X obj -810 -10 s pan1_value;
#X obj -626 -262 r metro_curve1;
#X obj -693 -190 metro 1000;
#X obj -821 -259 r index_curve1;
#X obj -690 -148 float;
#X obj -690 -117 + 1;
#X obj -688 -88 % 100;
#X obj -688 -58 s index_curve1;
#X obj -418 -200 metro 1000;
#X obj -415 -158 float;
#X obj -415 -127 + 1;
#X obj -413 -98 % 100;
#X obj -139 -188 metro 1000;
#X obj -136 -146 float;
#X obj -136 -115 + 1;
#X obj -134 -86 % 100;
#X obj 186 -223 metro 1000;
#X obj 189 -181 float;
#X obj 189 -150 + 1;
#X obj 191 -121 % 100;
#X obj -532 -262 r index_curve2;
#X obj -337 -263 r metro_curve2;
#X obj -413 -68 s index_curve2;
#X obj -538 -95 tabread pan_curve2;
#X obj -540 -35 s pan2_value;
#X obj -53 -269 r metro_curve3;
#X obj -134 -56 s index_curve3;
#X obj -261 -90 tabread pan_curve3;
#X obj -267 -32 s pan3_value;
#X obj 44 -271 r index_curve4;
#X obj 252 -278 r metro_curve4;
#X obj 191 -91 s index_curve4;
#X obj 46 -95 tabread pan_curve4;
#X obj 38 -43 s pan4_value;
#X obj 491 -226 metro 1000;
#X obj 494 -184 float;
#X obj 494 -153 + 1;
#X obj 496 -124 % 100;
#X obj 349 -274 r index_curve5;
#X obj 557 -282 r metro_curve5;
#X obj 496 -94 s index_curve5;
#X obj 351 -98 tabread pan_curve5;
#X obj 343 -46 s pan5_value;
#X obj -719 -260 r pa;
#X obj -430 -265 r pa;
#X obj -244 -268 r index_curve3;
#X obj -145 -269 r pa;
#X obj 142 -277 r pa;
#X obj 447 -280 r pa;
#X connect 0 0 1 0;
#X connect 2 0 3 1;
#X connect 3 0 5 0;
#X connect 4 0 0 0;
#X connect 4 0 5 1;
#X connect 5 0 6 0;
#X connect 6 0 7 0;
#X connect 7 0 8 0;
#X connect 9 0 10 0;
#X connect 10 0 11 0;
#X connect 11 0 12 0;
#X connect 12 0 23 0;
#X connect 13 0 14 0;
#X connect 14 0 15 0;
#X connect 15 0 16 0;
#X connect 16 0 27 0;
#X connect 17 0 18 0;
#X connect 18 0 19 0;
#X connect 19 0 20 0;
#X connect 20 0 32 0;
#X connect 21 0 10 1;
#X connect 21 0 24 0;
#X connect 22 0 9 1;
#X connect 24 0 25 0;
#X connect 26 0 13 1;
#X connect 28 0 29 0;
#X connect 30 0 18 1;
#X connect 30 0 33 0;
#X connect 31 0 17 1;
#X connect 33 0 34 0;
#X connect 35 0 36 0;
#X connect 36 0 37 0;
#X connect 37 0 38 0;
#X connect 38 0 41 0;
#X connect 39 0 36 1;
#X connect 39 0 42 0;
#X connect 40 0 35 1;
#X connect 42 0 43 0;
#X connect 44 0 3 0;
#X connect 45 0 9 0;
#X connect 46 0 14 1;
#X connect 46 0 28 0;
#X connect 47 0 13 0;
#X connect 48 0 17 0;
#X connect 49 0 35 0;
