#N canvas 37 96 853 653 10;
#X obj -86 175 textfile;
#X obj -144 -114 r bangcontinue;
#X obj -329 7 openpanel;
#X obj -334 -117 r read_partitura;
#X msg -258 -2 clear;
#X obj -181 -11 s bangvalue;
#X msg -57 -23 rewind;
#X obj -264 -71 sel 0;
#X msg -304 64 read \$1;
#X obj -136 238 unpack f f;
#X obj 51 -111 r metrovalue;
#X obj 50 -62 expr if ($f1>=$f2 \, 1 \, 0) \;;
#X obj 60 -11 sel 1;
#X obj -72 301 +;
#X obj -327 -61 sel 1;
#X obj -5 248 r metrovalue;
#X obj -63 389 s duration_section;
#X obj -58 349 0;
#X obj -63 327 bng 15 250 50 0 empty empty empty 17 7 0 10 -262144
-1 -1;
#X obj -201 352 s next_section;
#X obj -37 -113 r bangcronos;
#X obj -72 215 get_score;
#X obj 25 207 controle_toggles;
#X connect 0 0 9 0;
#X connect 0 0 21 0;
#X connect 0 1 22 0;
#X connect 1 0 0 0;
#X connect 2 0 8 0;
#X connect 3 0 14 0;
#X connect 3 0 7 0;
#X connect 4 0 0 0;
#X connect 6 0 0 0;
#X connect 7 0 4 0;
#X connect 7 0 5 0;
#X connect 8 0 0 0;
#X connect 9 1 13 0;
#X connect 10 0 11 0;
#X connect 11 0 12 0;
#X connect 12 0 0 0;
#X connect 13 0 11 1;
#X connect 13 0 18 0;
#X connect 13 0 19 0;
#X connect 14 0 2 0;
#X connect 15 0 13 1;
#X connect 17 0 16 0;
#X connect 18 0 17 0;
#X connect 20 0 6 0;
