#N canvas 86 91 685 596 10;
#X obj -476 277 textfile;
#X obj -377 -6 + 1;
#X msg -212 -6 clear;
#X obj -382 62 makefilename ./control/patterns/pattern%d.txt;
#X obj -556 -193 r readmatrix;
#X obj -371 -204 r readmatrix;
#X msg -406 144 read \$1;
#X msg -507 10 rewind;
#X obj -540 -68 del 50;
#X obj -548 -128 t b b b;
#X obj -539 -34 t b b;
#X obj -485 321 get_pattern;
#X connect 0 0 11 0;
#X connect 1 0 3 0;
#X connect 2 0 0 0;
#X connect 3 0 6 0;
#X connect 4 0 9 0;
#X connect 5 0 1 0;
#X connect 6 0 0 0;
#X connect 7 0 0 0;
#X connect 8 0 10 0;
#X connect 9 0 8 0;
#X connect 9 1 1 0;
#X connect 9 2 2 0;
#X connect 10 0 0 0;
#X connect 10 1 7 0;
