#N canvas 26 331 1034 260 10;
#X obj -225 60 tgl 15 0 empty empty empty 17 7 0 10 -262144 -1 -1 0
1;
#X obj -188 59 tgl 15 0 empty empty empty 17 7 0 10 -262144 -1 -1 0
1;
#X obj -155 60 tgl 15 0 empty empty empty 17 7 0 10 -262144 -1 -1 0
1;
#X obj 8 60 tgl 15 0 empty empty empty 17 7 0 10 -262144 -1 -1 1 1
;
#X obj 37 62 tgl 15 0 empty empty empty 17 7 0 10 -262144 -1 -1 0 1
;
#X obj 74 60 tgl 15 0 empty empty empty 17 7 0 10 -262144 -1 -1 0 1
;
#X obj -123 59 tgl 15 0 empty empty empty 17 7 0 10 -262144 -1 -1 1
1;
#X obj -257 58 tgl 15 0 empty empty empty 17 7 0 10 -262144 -1 -1 0
1;
#X obj 109 63 tgl 15 0 empty empty empty 17 7 0 10 -262144 -1 -1 0
1;
#X obj -32 58 tgl 15 0 empty empty empty 17 7 0 10 -262144 -1 -1 0
1;
#X obj 213 53 tgl 15 0 empty empty empty 17 7 0 10 -262144 -1 -1 0
1;
#X obj 244 49 tgl 15 0 empty empty empty 17 7 0 10 -262144 -1 -1 1
1;
#X obj 273 50 tgl 15 0 empty empty empty 17 7 0 10 -262144 -1 -1 0
1;
#X obj 308 48 tgl 15 0 empty empty empty 17 7 0 10 -262144 -1 -1 0
1;
#X obj 180 50 tgl 15 0 empty empty empty 17 7 0 10 -262144 -1 -1 0
1;
#X obj 399 57 tgl 15 0 empty empty empty 17 7 0 10 -262144 -1 -1 0
1;
#X obj 437 60 tgl 15 0 empty empty empty 17 7 0 10 -262144 -1 -1 0
1;
#X obj 469 54 tgl 15 0 empty empty empty 17 7 0 10 -262144 -1 -1 1
1;
#X obj 500 56 tgl 15 0 empty empty empty 17 7 0 10 -262144 -1 -1 0
1;
#X obj 365 54 tgl 15 0 empty empty empty 17 7 0 10 -262144 -1 -1 0
1;
#X obj 586 56 tgl 15 0 empty empty empty 17 7 0 10 -262144 -1 -1 0
1;
#X obj 617 57 tgl 15 0 empty empty empty 17 7 0 10 -262144 -1 -1 0
1;
#X obj 646 58 tgl 15 0 empty empty empty 17 7 0 10 -262144 -1 -1 0
1;
#X obj 678 58 tgl 15 0 empty empty empty 17 7 0 10 -262144 -1 -1 1
1;
#X obj 550 56 tgl 15 0 empty empty empty 17 7 0 10 -262144 -1 -1 0
1;
#X obj -258 -75 r rdp1;
#X obj -2 -62 r rdp2;
#X obj 173 -70 r rdp3;
#X obj 382 -62 r rdp4;
#X obj 547 -62 r rdp5;
#X obj -252 -39 expr if ($f1==0 \, 1 \, 0) \; if ($f1==1 \, 1 \, 0)
\; if ($f1==2 \, 1 \, 0) \; if ($f1==3 \, 1 \, 0) \; if ($f1==4 \,
1 \, 0) \;;
#X obj -23 -25 expr if ($f1==0 \, 1 \, 0) \; if ($f1==1 \, 1 \, 0)
\; if ($f1==2 \, 1 \, 0) \; if ($f1==3 \, 1 \, 0) \; if ($f1==4 \,
1 \, 0) \;;
#X obj 178 -39 expr if ($f1==0 \, 1 \, 0) \; if ($f1==1 \, 1 \, 0)
\; if ($f1==2 \, 1 \, 0) \; if ($f1==3 \, 1 \, 0) \; if ($f1==4 \,
1 \, 0) \;;
#X obj 368 -38 expr if ($f1==0 \, 1 \, 0) \; if ($f1==1 \, 1 \, 0)
\; if ($f1==2 \, 1 \, 0) \; if ($f1==3 \, 1 \, 0) \; if ($f1==4 \,
1 \, 0) \;;
#X obj 545 -35 expr if ($f1==0 \, 1 \, 0) \; if ($f1==1 \, 1 \, 0)
\; if ($f1==2 \, 1 \, 0) \; if ($f1==3 \, 1 \, 0) \; if ($f1==4 \,
1 \, 0) \;;
#X obj -233 100 loader1rdp;
#X obj 221 115 loader3rdp;
#X obj 599 109 loader5rdp;
#X obj 408 110 loader4rdp;
#X obj 5 112 loader2rdp;
#X connect 0 0 35 1;
#X connect 1 0 35 2;
#X connect 2 0 35 3;
#X connect 3 0 39 1;
#X connect 4 0 39 2;
#X connect 5 0 39 3;
#X connect 6 0 35 4;
#X connect 7 0 35 0;
#X connect 8 0 39 4;
#X connect 9 0 39 0;
#X connect 10 0 36 1;
#X connect 11 0 36 2;
#X connect 12 0 36 3;
#X connect 13 0 36 4;
#X connect 14 0 36 0;
#X connect 15 0 38 1;
#X connect 16 0 38 2;
#X connect 17 0 38 3;
#X connect 18 0 38 4;
#X connect 19 0 38 0;
#X connect 20 0 37 1;
#X connect 21 0 37 2;
#X connect 22 0 37 3;
#X connect 23 0 37 4;
#X connect 24 0 37 0;
#X connect 25 0 30 0;
#X connect 26 0 31 0;
#X connect 27 0 32 0;
#X connect 28 0 33 0;
#X connect 29 0 34 0;
#X connect 30 0 7 0;
#X connect 30 1 0 0;
#X connect 30 2 1 0;
#X connect 30 3 2 0;
#X connect 30 4 6 0;
#X connect 31 0 9 0;
#X connect 31 1 3 0;
#X connect 31 2 4 0;
#X connect 31 3 5 0;
#X connect 31 4 8 0;
#X connect 32 0 14 0;
#X connect 32 1 10 0;
#X connect 32 2 11 0;
#X connect 32 3 12 0;
#X connect 32 4 13 0;
#X connect 33 0 19 0;
#X connect 33 1 15 0;
#X connect 33 2 16 0;
#X connect 33 3 17 0;
#X connect 33 4 18 0;
#X connect 34 0 24 0;
#X connect 34 1 20 0;
#X connect 34 2 21 0;
#X connect 34 3 22 0;
#X connect 34 4 23 0;
