#N canvas 82 239 1034 260 10;
#X obj -258 -75 r rd1;
#X obj -1 -62 r rd2;
#X obj 173 -70 r rd3;
#X obj 382 -62 r rd4;
#X obj -257 60 tgl 15 0 empty empty empty 17 7 0 10 -262144 -1 -1 0
1;
#X obj -225 60 tgl 15 0 empty empty empty 17 7 0 10 -262144 -1 -1 0
1;
#X obj -197 61 tgl 15 0 empty empty empty 17 7 0 10 -262144 -1 -1 0
1;
#X obj -173 61 tgl 15 0 empty empty empty 17 7 0 10 -262144 -1 -1 0
1;
#X obj -32 75 tgl 15 0 empty empty empty 17 7 0 10 -262144 -1 -1 0
1;
#X obj 3 71 tgl 15 0 empty empty empty 17 7 0 10 -262144 -1 -1 0 1
;
#X obj 33 73 tgl 15 0 empty empty empty 17 7 0 10 -262144 -1 -1 0 1
;
#X obj 58 74 tgl 15 0 empty empty empty 17 7 0 10 -262144 -1 -1 0 1
;
#X obj 547 -62 r rd5;
#X obj -252 -39 expr if ($f1==0 \, 1 \, 0) \; if ($f1==1 \, 1 \, 0)
\; if ($f1==2 \, 1 \, 0) \; if ($f1==3 \, 1 \, 0) \; if ($f1==4 \,
1 \, 0) \; if ($f1==5 \, 1 \, 0) \;;
#X obj -148 63 tgl 15 0 empty empty empty 17 7 0 10 -262144 -1 -1 0
1;
#X obj -122 63 tgl 15 0 empty empty empty 17 7 0 10 -262144 -1 -1 1
1;
#X obj -23 -25 expr if ($f1==0 \, 1 \, 0) \; if ($f1==1 \, 1 \, 0)
\; if ($f1==2 \, 1 \, 0) \; if ($f1==3 \, 1 \, 0) \; if ($f1==4 \,
1 \, 0) \; if ($f1==5 \, 1 \, 0) \;;
#X obj 84 71 tgl 15 0 empty empty empty 17 7 0 10 -262144 -1 -1 0 1
;
#X obj 111 72 tgl 15 0 empty empty empty 17 7 0 10 -262144 -1 -1 1
1;
#X obj 168 70 tgl 15 0 empty empty empty 17 7 0 10 -262144 -1 -1 0
1;
#X obj 192 72 tgl 15 0 empty empty empty 17 7 0 10 -262144 -1 -1 0
1;
#X obj 216 71 tgl 15 0 empty empty empty 17 7 0 10 -262144 -1 -1 0
1;
#X obj 248 74 tgl 15 0 empty empty empty 17 7 0 10 -262144 -1 -1 0
1;
#X obj 178 -39 expr if ($f1==0 \, 1 \, 0) \; if ($f1==1 \, 1 \, 0)
\; if ($f1==2 \, 1 \, 0) \; if ($f1==3 \, 1 \, 0) \; if ($f1==4 \,
1 \, 0) \; if ($f1==5 \, 1 \, 0) \;;
#X obj 279 73 tgl 15 0 empty empty empty 17 7 0 10 -262144 -1 -1 0
1;
#X obj 303 69 tgl 15 0 empty empty empty 17 7 0 10 -262144 -1 -1 1
1;
#X obj 358 72 tgl 15 0 empty empty empty 17 7 0 10 -262144 -1 -1 0
1;
#X obj 382 74 tgl 15 0 empty empty empty 17 7 0 10 -262144 -1 -1 1
1;
#X obj 406 73 tgl 15 0 empty empty empty 17 7 0 10 -262144 -1 -1 0
1;
#X obj 438 76 tgl 15 0 empty empty empty 17 7 0 10 -262144 -1 -1 0
1;
#X obj 368 -37 expr if ($f1==0 \, 1 \, 0) \; if ($f1==1 \, 1 \, 0)
\; if ($f1==2 \, 1 \, 0) \; if ($f1==3 \, 1 \, 0) \; if ($f1==4 \,
1 \, 0) \; if ($f1==5 \, 1 \, 0) \;;
#X obj 469 75 tgl 15 0 empty empty empty 17 7 0 10 -262144 -1 -1 0
1;
#X obj 493 71 tgl 15 0 empty empty empty 17 7 0 10 -262144 -1 -1 0
1;
#X obj 535 75 tgl 15 0 empty empty empty 17 7 0 10 -262144 -1 -1 0
1;
#X obj 559 77 tgl 15 0 empty empty empty 17 7 0 10 -262144 -1 -1 0
1;
#X obj 583 76 tgl 15 0 empty empty empty 17 7 0 10 -262144 -1 -1 0
1;
#X obj 615 79 tgl 15 0 empty empty empty 17 7 0 10 -262144 -1 -1 0
1;
#X obj 545 -34 expr if ($f1==0 \, 1 \, 0) \; if ($f1==1 \, 1 \, 0)
\; if ($f1==2 \, 1 \, 0) \; if ($f1==3 \, 1 \, 0) \; if ($f1==4 \,
1 \, 0) \; if ($f1==5 \, 1 \, 0) \;;
#X obj 646 78 tgl 15 0 empty empty empty 17 7 0 10 -262144 -1 -1 0
1;
#X obj 670 74 tgl 15 0 empty empty empty 17 7 0 10 -262144 -1 -1 1
1;
#X obj 541 109 browser5;
#X obj -39 108 browser2;
#X obj 163 109 browser3;
#X obj 351 106 browser4;
#X obj -189 109 loader1;
#X obj -258 110 browser1;
#X obj 37 110 loader2;
#X obj 242 113 loader3;
#X obj 419 104 loader4;
#X obj 619 108 loader5;
#X text -248 147 (c) 2008 Jonatas Manzolli;
#X connect 0 0 13 0;
#X connect 1 0 16 0;
#X connect 2 0 23 0;
#X connect 3 0 30 0;
#X connect 4 0 45 0;
#X connect 5 0 44 0;
#X connect 6 0 44 1;
#X connect 7 0 44 2;
#X connect 8 0 41 0;
#X connect 9 0 46 0;
#X connect 10 0 46 1;
#X connect 11 0 46 2;
#X connect 12 0 37 0;
#X connect 13 0 4 0;
#X connect 13 1 5 0;
#X connect 13 2 6 0;
#X connect 13 3 7 0;
#X connect 13 4 14 0;
#X connect 13 5 15 0;
#X connect 14 0 44 3;
#X connect 15 0 44 4;
#X connect 16 0 8 0;
#X connect 16 1 9 0;
#X connect 16 2 10 0;
#X connect 16 3 11 0;
#X connect 16 4 17 0;
#X connect 16 5 18 0;
#X connect 17 0 46 3;
#X connect 18 0 46 4;
#X connect 19 0 42 0;
#X connect 20 0 47 0;
#X connect 21 0 47 1;
#X connect 22 0 47 2;
#X connect 23 0 19 0;
#X connect 23 1 20 0;
#X connect 23 2 21 0;
#X connect 23 3 22 0;
#X connect 23 4 24 0;
#X connect 23 5 25 0;
#X connect 24 0 47 3;
#X connect 25 0 47 4;
#X connect 26 0 43 0;
#X connect 27 0 48 0;
#X connect 28 0 48 1;
#X connect 29 0 48 2;
#X connect 30 0 26 0;
#X connect 30 1 27 0;
#X connect 30 2 28 0;
#X connect 30 3 29 0;
#X connect 30 4 31 0;
#X connect 30 5 32 0;
#X connect 31 0 48 3;
#X connect 32 0 48 4;
#X connect 33 0 40 0;
#X connect 34 0 49 0;
#X connect 35 0 49 1;
#X connect 36 0 49 2;
#X connect 37 0 33 0;
#X connect 37 1 34 0;
#X connect 37 2 35 0;
#X connect 37 3 36 0;
#X connect 37 4 38 0;
#X connect 37 5 39 0;
#X connect 38 0 49 3;
#X connect 39 0 49 4;
