#N canvas 74 37 1034 260 10;
#X obj -225 60 tgl 15 0 empty empty empty 17 7 0 10 -262144 -1 -1 0
1;
#X obj -188 59 tgl 15 0 empty empty empty 17 7 0 10 -262144 -1 -1 0
1;
#X obj -155 60 tgl 15 0 empty empty empty 17 7 0 10 -262144 -1 -1 0
1;
#X obj 8 60 tgl 15 0 empty empty empty 17 7 0 10 -262144 -1 -1 0 1
;
#X obj 37 62 tgl 15 0 empty empty empty 17 7 0 10 -262144 -1 -1 0 1
;
#X obj 74 60 tgl 15 0 empty empty empty 17 7 0 10 -262144 -1 -1 1 1
;
#X obj -123 59 tgl 15 0 empty empty empty 17 7 0 10 -262144 -1 -1 0
1;
#X obj -257 58 tgl 15 0 empty empty empty 17 7 0 10 -262144 -1 -1 1
1;
#X obj 109 63 tgl 15 0 empty empty empty 17 7 0 10 -262144 -1 -1 0
1;
#X obj -32 58 tgl 15 0 empty empty empty 17 7 0 10 -262144 -1 -1 0
1;
#X obj 213 53 tgl 15 0 empty empty empty 17 7 0 10 -262144 -1 -1 0
1;
#X obj 244 49 tgl 15 0 empty empty empty 17 7 0 10 -262144 -1 -1 1
1;
#X obj 273 50 tgl 15 0 empty empty empty 17 7 0 10 -262144 -1 -1 0
1;
#X obj 308 48 tgl 15 0 empty empty empty 17 7 0 10 -262144 -1 -1 0
1;
#X obj 180 50 tgl 15 0 empty empty empty 17 7 0 10 -262144 -1 -1 0
1;
#X obj 399 57 tgl 15 0 empty empty empty 17 7 0 10 -262144 -1 -1 0
1;
#X obj 437 60 tgl 15 0 empty empty empty 17 7 0 10 -262144 -1 -1 1
1;
#X obj 469 54 tgl 15 0 empty empty empty 17 7 0 10 -262144 -1 -1 0
1;
#X obj 500 56 tgl 15 0 empty empty empty 17 7 0 10 -262144 -1 -1 0
1;
#X obj 365 54 tgl 15 0 empty empty empty 17 7 0 10 -262144 -1 -1 0
1;
#X obj 586 56 tgl 15 0 empty empty empty 17 7 0 10 -262144 -1 -1 0
1;
#X obj 617 57 tgl 15 0 empty empty empty 17 7 0 10 -262144 -1 -1 0
1;
#X obj 646 58 tgl 15 0 empty empty empty 17 7 0 10 -262144 -1 -1 0
1;
#X obj 678 58 tgl 15 0 empty empty empty 17 7 0 10 -262144 -1 -1 1
1;
#X obj 550 56 tgl 15 0 empty empty empty 17 7 0 10 -262144 -1 -1 0
1;
#X obj -252 -39 expr if ($f1==0 \, 1 \, 0) \; if ($f1==1 \, 1 \, 0)
\; if ($f1==2 \, 1 \, 0) \; if ($f1==3 \, 1 \, 0) \; if ($f1==4 \,
1 \, 0) \;;
#X obj -23 -25 expr if ($f1==0 \, 1 \, 0) \; if ($f1==1 \, 1 \, 0)
\; if ($f1==2 \, 1 \, 0) \; if ($f1==3 \, 1 \, 0) \; if ($f1==4 \,
1 \, 0) \;;
#X obj 178 -39 expr if ($f1==0 \, 1 \, 0) \; if ($f1==1 \, 1 \, 0)
\; if ($f1==2 \, 1 \, 0) \; if ($f1==3 \, 1 \, 0) \; if ($f1==4 \,
1 \, 0) \;;
#X obj 368 -38 expr if ($f1==0 \, 1 \, 0) \; if ($f1==1 \, 1 \, 0)
\; if ($f1==2 \, 1 \, 0) \; if ($f1==3 \, 1 \, 0) \; if ($f1==4 \,
1 \, 0) \;;
#X obj 545 -35 expr if ($f1==0 \, 1 \, 0) \; if ($f1==1 \, 1 \, 0)
\; if ($f1==2 \, 1 \, 0) \; if ($f1==3 \, 1 \, 0) \; if ($f1==4 \,
1 \, 0) \;;
#X obj -259 -75 r rdp6;
#X obj -2 -62 r rdp7;
#X obj 173 -70 r rdp8;
#X obj 382 -62 r rdp9;
#X obj 547 -62 r rdp10;
#X obj -233 100 loader6rdp;
#X obj 221 114 loader8rdp;
#X obj 5 112 loader7rdp;
#X obj 408 110 loader9rdp;
#X obj 599 108 loader10rdp;
#X connect 0 0 35 1;
#X connect 1 0 35 2;
#X connect 2 0 35 3;
#X connect 3 0 37 1;
#X connect 4 0 37 2;
#X connect 5 0 37 3;
#X connect 6 0 35 4;
#X connect 7 0 35 0;
#X connect 8 0 37 4;
#X connect 9 0 37 0;
#X connect 10 0 36 1;
#X connect 11 0 36 2;
#X connect 12 0 36 3;
#X connect 13 0 36 4;
#X connect 14 0 36 0;
#X connect 15 0 38 1;
#X connect 16 0 38 2;
#X connect 17 0 38 3;
#X connect 18 0 38 4;
#X connect 19 0 38 0;
#X connect 20 0 39 1;
#X connect 21 0 39 2;
#X connect 22 0 39 3;
#X connect 23 0 39 4;
#X connect 24 0 39 0;
#X connect 25 0 7 0;
#X connect 25 1 0 0;
#X connect 25 2 1 0;
#X connect 25 3 2 0;
#X connect 25 4 6 0;
#X connect 26 0 9 0;
#X connect 26 1 3 0;
#X connect 26 2 4 0;
#X connect 26 3 5 0;
#X connect 26 4 8 0;
#X connect 27 0 14 0;
#X connect 27 1 10 0;
#X connect 27 2 11 0;
#X connect 27 3 12 0;
#X connect 27 4 13 0;
#X connect 28 0 19 0;
#X connect 28 1 15 0;
#X connect 28 2 16 0;
#X connect 28 3 17 0;
#X connect 28 4 18 0;
#X connect 29 0 24 0;
#X connect 29 1 20 0;
#X connect 29 2 21 0;
#X connect 29 3 22 0;
#X connect 29 4 23 0;
#X connect 30 0 25 0;
#X connect 31 0 26 0;
#X connect 32 0 27 0;
#X connect 33 0 28 0;
#X connect 34 0 29 0;
