#N canvas 116 48 926 404 10;
#X msg -170 -291 0.3 0.18 0.001;
#X msg 193 -292 0.3 0.18 0.003;
#X msg 193 -386 0.5 1.9 0.01;
#X msg 194 -418 1.5 0.8 0.01;
#X msg -172 -417 1.5 0.8 0.1;
#X msg -175 -387 0.05 1.9 0.03;
#X msg -174 -323 2.5 0.08 0;
#X msg 193 -324 1.2 0.008 0;
#X msg -172 -358 0.05 0.08 1.5;
#X msg 193 -350 0.001 0.1 0.3;
#X msg -172 -266 0.05 0.08 0.13;
#X msg 193 -256 0.001 0.1 0.13;
#X obj -304 -628 r visual_ctr1;
#X obj -299 -584 expr if ($f1==0 \, 1 \, 0) \; if ($f1==1 \, 1 \, 0)
\; if ($f1==2 \, 1 \, 0) \; if ($f1==3 \, 1 \, 0) \; if ($f1==4 \,
1 \, 0) \; if ($f1==5 \, 1 \, 0) \;;
#X obj 298 -647 r visual_ctr2;
#X obj 305 -607 expr if ($f1==0 \, 1 \, 0) \; if ($f1==1 \, 1 \, 0)
\; if ($f1==2 \, 1 \, 0) \; if ($f1==3 \, 1 \, 0) \; if ($f1==4 \,
1 \, 0) \; if ($f1==5 \, 1 \, 0) \;;
#X obj -340 -474 sel 1;
#X obj -280 -477 sel 1;
#X obj -233 -471 sel 1;
#X obj -187 -467 sel 1;
#X obj -124 -463 sel 1;
#X obj -61 -461 sel 1;
#X obj 193 -491 sel 1;
#X obj 264 -490 sel 1;
#X obj 317 -496 sel 1;
#X obj 363 -492 sel 1;
#X obj 426 -488 sel 1;
#X obj 489 -486 sel 1;
#X obj -30 -151 visual_controller;
#X connect 0 0 28 0;
#X connect 1 0 28 1;
#X connect 2 0 28 1;
#X connect 3 0 28 1;
#X connect 4 0 28 0;
#X connect 5 0 28 0;
#X connect 6 0 28 0;
#X connect 7 0 28 1;
#X connect 8 0 28 0;
#X connect 9 0 28 1;
#X connect 10 0 28 0;
#X connect 11 0 28 1;
#X connect 12 0 13 0;
#X connect 13 0 16 0;
#X connect 13 1 17 0;
#X connect 13 2 18 0;
#X connect 13 3 19 0;
#X connect 13 4 20 0;
#X connect 13 5 21 0;
#X connect 14 0 15 0;
#X connect 15 0 22 0;
#X connect 15 1 23 0;
#X connect 15 2 24 0;
#X connect 15 3 25 0;
#X connect 15 4 26 0;
#X connect 15 5 27 0;
#X connect 16 0 4 0;
#X connect 17 0 5 0;
#X connect 18 0 8 0;
#X connect 19 0 6 0;
#X connect 20 0 0 0;
#X connect 21 0 10 0;
#X connect 22 0 3 0;
#X connect 23 0 2 0;
#X connect 24 0 9 0;
#X connect 25 0 7 0;
#X connect 26 0 1 0;
#X connect 27 0 11 0;
