#N canvas 274 82 450 300 10;
#X obj 47 236 s~ phase;
#X floatatom 53 55 0 0 0 0 - - -;
#X obj 60 93 r chunk-size;
#X obj 60 118 t b f;
#X obj 47 203 phasor~;
#X obj 135 217 +~ 0.5;
#X obj 136 243 wrap~;
#X obj 123 264 s~ phase2;
#X floatatom 66 180 5 0 0 0 - - -;
#X obj 159 114 t b f;
#X obj 159 89 r precession;
#X obj 49 151 expr (pow(2 \, $f1/120)-$f3)/$f2;
#X text 78 40 <-- transposition \, halftones/10;
#X obj 54 26 int;
#X obj 16 -14 inlet;
#X msg 109 18 60;
#X obj 96 -10 loadbang;
#X connect 1 0 11 0;
#X connect 2 0 3 0;
#X connect 3 0 11 0;
#X connect 3 1 11 1;
#X connect 4 0 0 0;
#X connect 4 0 5 0;
#X connect 5 0 6 0;
#X connect 6 0 7 0;
#X connect 9 0 11 0;
#X connect 9 1 11 2;
#X connect 10 0 9 0;
#X connect 11 0 4 0;
#X connect 11 0 8 0;
#X connect 13 0 1 0;
#X connect 14 0 13 0;
#X connect 15 0 1 0;
#X connect 16 0 15 0;
