#N canvas 145 48 1033 643 10;
#X obj 281 160 translateXYZ 1 2 -3;
#X obj 173 -274 rotateXYZ;
#X obj 96 -365 render_trigger;
#X obj 178 -318 i;
#X obj 258 -94 cylinder;
#X obj 282 119 gemhead;
#X obj 251 -196 cylinder;
#X obj 248 -268 gemhead;
#X obj 257 -16 cylinder;
#X obj 293 207 cylinder;
#X obj 257 22 gemhead;
#X obj 255 -76 gemhead;
#X obj 353 -77 * -1;
#X floatatom 255 -358 5 0 0 0 - - -;
#X obj 220 -301 - 5;
#X obj 253 -141 translateXYZ -1.7 -7 5;
#X obj 257 -45 translateXYZ -2.65 -1.5 1;
#X obj 248 -242 translateXYZ -1.7 -2 1;
#X obj 260 46 translateXYZ -0.95 5 1;
#X obj 239 -331 % 290;
#X obj -542 -404 inlet;
#X obj 253 -386 +;
#X obj 333 183 * 7;
#X obj 302 -122 * 10;
#X obj -473 -401 inlet;
#X obj 20 -359 * 120;
#X obj 20 -389 * 120;
#X obj -515 -47 cnv 15 100 60 empty empty empty 20 12 0 14 -195568
-66577 0;
#X msg -508 -31 create;
#X text -514 -48 Create window:;
#X obj -455 -250 light_random;
#X obj 266 84 cylinder;
#X obj -511 -178 ilumina 1 1 -30 100 2 1;
#X obj -509 -99 r pv;
#X obj -256 -385 gemmouse 1 2;
#X obj 97 -389 gemhead;
#X obj 251 -167 gemhead;
#X obj 287 -219 * 5;
#X obj -236 -140 s coord_vd_z;
#X obj -321 -136 s coord_vd_y;
#X obj -412 -136 s coord_vd_x;
#X obj -334 -315 detecta_mover;
#X obj -510 -8 janela;
#X connect 0 0 9 0;
#X connect 1 0 0 0;
#X connect 1 0 15 0;
#X connect 1 0 16 0;
#X connect 1 0 17 0;
#X connect 1 0 18 0;
#X connect 2 0 1 0;
#X connect 2 1 3 0;
#X connect 3 0 1 1;
#X connect 3 0 14 0;
#X connect 5 0 0 0;
#X connect 7 0 17 0;
#X connect 10 0 18 0;
#X connect 11 0 16 0;
#X connect 12 0 16 2;
#X connect 13 0 19 1;
#X connect 14 0 19 0;
#X connect 15 0 4 0;
#X connect 16 0 8 0;
#X connect 17 0 6 0;
#X connect 18 0 31 0;
#X connect 19 0 3 1;
#X connect 20 0 30 0;
#X connect 20 0 32 0;
#X connect 21 0 13 0;
#X connect 22 0 9 2;
#X connect 23 0 4 2;
#X connect 24 0 30 0;
#X connect 24 0 32 1;
#X connect 25 0 21 0;
#X connect 26 0 21 1;
#X connect 28 0 42 0;
#X connect 30 0 32 2;
#X connect 30 1 32 3;
#X connect 30 2 32 4;
#X connect 30 3 32 5;
#X connect 33 0 28 0;
#X connect 34 0 6 1;
#X connect 34 0 15 1;
#X connect 34 0 23 0;
#X connect 34 0 0 3;
#X connect 34 0 16 1;
#X connect 34 0 0 1;
#X connect 34 0 22 0;
#X connect 34 0 25 0;
#X connect 34 0 16 0;
#X connect 34 0 37 0;
#X connect 34 1 9 1;
#X connect 34 1 26 0;
#X connect 34 1 17 3;
#X connect 34 1 15 2;
#X connect 34 1 15 0;
#X connect 34 1 18 2;
#X connect 34 1 8 1;
#X connect 34 1 0 2;
#X connect 34 1 31 1;
#X connect 34 1 12 0;
#X connect 35 0 2 0;
#X connect 36 0 15 0;
#X connect 37 0 6 2;
#X connect 41 0 9 1;
#X connect 41 0 26 0;
#X connect 41 0 8 1;
#X connect 41 0 6 1;
#X connect 41 0 15 1;
#X connect 41 0 40 0;
#X connect 41 1 0 2;
#X connect 41 1 18 2;
#X connect 41 1 15 2;
#X connect 41 1 39 0;
#X connect 41 2 38 0;
#X connect 42 0 28 0;
