#N canvas 127 57 850 307 10;
#X obj 44 -9 hip~ 5;
#X msg -45 -10 bang;
#X obj 44 -34 adc~ 1;
#X obj -127 67 del 10002;
#X obj -14 106 + 1;
#X obj -38 55 float;
#X obj -9 136 % 5;
#X obj -225 23 del 10010;
#X obj 42 44 tabwrite~ wavetable2;
#X msg -163 178 \; wavetable2 normalize;
#X obj -329 186 soundfiler;
#X obj -331 72 + 1;
#X msg -329 149 write \$1 wavetable2;
#X obj -46 9 t b b b b;
#X obj -331 103 makefilename ./sound/recyclein/s%d2.wav;
#X obj -10 172 s index2value;
#X obj -49 -35 r rec2;
#X obj -331 30 r index2;
#X connect 0 0 8 0;
#X connect 1 0 13 0;
#X connect 2 0 0 0;
#X connect 3 0 9 0;
#X connect 4 0 5 1;
#X connect 4 0 6 0;
#X connect 5 0 4 0;
#X connect 6 0 15 0;
#X connect 7 0 11 0;
#X connect 11 0 14 0;
#X connect 12 0 10 0;
#X connect 13 0 7 0;
#X connect 13 1 3 0;
#X connect 13 2 5 0;
#X connect 13 3 8 0;
#X connect 14 0 12 0;
#X connect 16 0 1 0;
#X connect 17 0 11 0;
