#N canvas 102 66 779 471 10;
#X obj 54 1 hip~ 5;
#X msg -35 0 bang;
#X obj 54 -24 adc~ 1;
#X obj -117 77 del 10002;
#X obj -4 116 + 1;
#X obj -28 65 float;
#X obj 1 146 % 5;
#X obj -229 63 del 10010;
#X obj 53 54 tabwrite~ wavetable5;
#X msg -153 188 \; wavetable5 normalize;
#X obj -342 221 soundfiler;
#X obj -348 114 + 1;
#X msg -347 191 write \$1 wavetable5;
#X obj -36 19 t b b b b;
#X obj -347 144 makefilename ./sound/recyclein/s%d5.wav;
#X obj 1 181 s index5value;
#X obj -40 -25 r rec5;
#X obj -348 73 r index5;
#X connect 0 0 8 0;
#X connect 1 0 13 0;
#X connect 2 0 0 0;
#X connect 3 0 9 0;
#X connect 4 0 5 1;
#X connect 4 0 6 0;
#X connect 5 0 4 0;
#X connect 6 0 15 0;
#X connect 7 0 11 0;
#X connect 11 0 14 0;
#X connect 12 0 10 0;
#X connect 13 0 7 0;
#X connect 13 1 3 0;
#X connect 13 2 5 0;
#X connect 13 3 8 0;
#X connect 14 0 12 0;
#X connect 16 0 1 0;
#X connect 17 0 11 0;
