#N canvas 40 28 796 398 10;
#X obj 54 1 hip~ 5;
#X msg -35 0 bang;
#X obj 54 -24 adc~ 1;
#X obj -117 77 del 10002;
#X obj -4 116 + 1;
#X obj -28 65 float;
#X obj 1 146 % 5;
#X obj -222 60 del 10010;
#X obj 53 54 tabwrite~ wavetable4;
#X msg -154 188 \; wavetable4 normalize;
#X obj -342 221 soundfiler;
#X obj -348 114 + 1;
#X msg -346 191 write \$1 wavetable4;
#X obj -36 19 t b b b b;
#X obj -347 146 makefilename ./sound/recyclein/s%d4.wav;
#X obj 0 182 s index4value;
#X obj -348 73 r index4;
#X obj -39 -26 r rec4;
#X connect 0 0 8 0;
#X connect 1 0 13 0;
#X connect 2 0 0 0;
#X connect 3 0 9 0;
#X connect 4 0 5 1;
#X connect 4 0 6 0;
#X connect 5 0 4 0;
#X connect 6 0 15 0;
#X connect 7 0 11 0;
#X connect 11 0 14 0;
#X connect 12 0 10 0;
#X connect 13 0 7 0;
#X connect 13 1 3 0;
#X connect 13 2 5 0;
#X connect 13 3 8 0;
#X connect 14 0 12 0;
#X connect 16 0 11 0;
#X connect 17 0 1 0;
