#N canvas 35 175 555 347 10;
#X obj 43 -24 hip~ 5;
#X msg -45 -23 bang;
#X obj 43 -49 adc~ 1;
#X obj 41 26 tabwrite~ wavetable1;
#X obj -14 106 + 1;
#X obj -38 55 float;
#X obj -9 136 % 5;
#X obj -352 211 soundfiler;
#X msg -185 191 \; wavetable1 normalize;
#X obj -357 109 + 1;
#X msg -356 181 write \$1 wavetable1;
#X obj -46 9 t b b b b;
#X obj -358 136 makefilename ./sound/recyclein/s%d1.wav;
#X obj -10 172 s index1value;
#X obj -49 -48 r rec1;
#X obj -358 63 r index1;
#X obj -127 67 del 10001;
#X obj -210 67 del 10002;
#X connect 0 0 3 0;
#X connect 1 0 11 0;
#X connect 2 0 0 0;
#X connect 4 0 5 1;
#X connect 4 0 6 0;
#X connect 5 0 4 0;
#X connect 6 0 13 0;
#X connect 9 0 12 0;
#X connect 10 0 7 0;
#X connect 11 0 17 0;
#X connect 11 1 16 0;
#X connect 11 2 5 0;
#X connect 11 3 3 0;
#X connect 12 0 10 0;
#X connect 14 0 1 0;
#X connect 15 0 9 0;
#X connect 16 0 8 0;
#X connect 17 0 9 0;
