#N canvas 133 44 450 300 10;
#X msg 296 107 dimen 1024 768;
#X msg 61 98 dimen 500 500;
#X msg 184 104 dimen 800 600;
#X obj 34 15 r psize;
#X obj 59 50 sel 0 1 2;
#X obj 152 195 gemwin;
#X connect 0 0 5 0;
#X connect 1 0 5 0;
#X connect 2 0 5 0;
#X connect 3 0 4 0;
#X connect 4 0 1 0;
#X connect 4 1 2 0;
#X connect 4 2 0 0;
