#N canvas 280 33 685 596 10;
#X msg -302 54 add \$1;
#X obj -274 357 textfile;
#X obj -310 -102 t b b b;
#X obj -317 -161 r writematrix;
#X msg -564 193 write \$1;
#X obj -560 -36 r writematrix;
#X obj -564 93 + 1;
#X msg -157 3 clear;
#X obj -564 147 makefilename ./control/patterns/pattern%d.txt;
#X obj -304 1 catch_pattern;
#X connect 0 0 1 0;
#X connect 2 0 6 0;
#X connect 2 1 9 0;
#X connect 2 2 7 0;
#X connect 3 0 2 0;
#X connect 4 0 1 0;
#X connect 5 0 6 0;
#X connect 6 0 8 0;
#X connect 7 0 1 0;
#X connect 8 0 4 0;
#X connect 9 0 0 0;
