#N canvas 968 24 432 514 10;
#X obj 30 256 vsl 15 64 0 1 0 0 \$0-in1-s laser1 empty 0 -8 0 10 -260097
-1 -1 0 1;
#X obj 30 329 nbx 5 14 -1e+37 1e+37 0 0 empty empty empty 0 -6 0 10
-257985 -1 -1 0 256;
#X obj 53 164 vsl 15 64 0 1 0 0 \$0-in2-s laser2 empty 0 -8 0 10 -260097
-1 -1 0 1;
#X obj 53 237 nbx 5 14 -1e+37 1e+37 0 0 empty empty empty 0 -6 0 10
-257985 -1 -1 0 256;
#X obj 93 110 vsl 15 64 0 1 0 0 \$0-in3-s laser3 empty 0 -8 0 10 -260097
-1 -1 0 1;
#X obj 93 183 nbx 5 14 -1e+37 1e+37 0 0 empty empty empty 0 -6 0 10
-257985 -1 -1 0 256;
#X obj 154 109 vsl 15 64 0 1 0 0 \$0-in4-s laser4 empty 0 -8 0 10 -260097
-1 -1 0 1;
#X obj 154 182 nbx 5 14 -1e+37 1e+37 0 0 empty empty empty 0 -6 0 10
-257985 -1 -1 0 256;
#X obj 212 163 vsl 15 64 0 1 0 0 \$0-in5-s laser5 empty 0 -8 0 10 -260097
-1 -1 0 1;
#X obj 198 231 nbx 5 14 -1e+37 1e+37 0 0 empty empty empty 0 -6 0 10
-257985 -1 -1 0 256;
#X obj 241 265 vsl 15 64 0 1 0 0 \$0-in6-s laser6 empty 0 -8 0 10 -260097
-1 -1 0 1;
#X obj 241 338 nbx 5 14 -1e+37 1e+37 0 0 empty empty empty 0 -6 0 10
-257985 -1 -1 0 256;
#X obj 171 359 vsl 15 64 0 1 0 0 \$0-in7-s laser7 empty 0 -8 0 10 -260097
-1 -1 0 1;
#X obj 171 432 nbx 5 14 -1e+37 1e+37 0 0 empty empty empty 0 -6 0 10
-257985 -1 -1 0 256;
#X obj 114 359 vsl 15 64 0 1 0 0 \$0-in8-s laser8 empty 0 -8 0 10 -260097
-1 -1 0 1;
#X obj 114 432 nbx 5 14 -1e+37 1e+37 0 0 empty empty empty 0 -6 0 10
-257985 -1 -1 0 256;
#X obj 270 150 nbx 5 14 -1e+37 1e+37 0 0 \$0-in11-s motionsum empty
0 -6 0 10 -260097 -1 -1 0 256;
#X obj 269 85 nbx 5 14 -1e+37 1e+37 0 0 \$0-in10-s red empty 0 -6 0
10 -258113 -1 -1 0 256;
#N canvas 122 494 1129 324 listen2port3000fromIQR 0;
#X obj 892 16 any2list;
#X obj 892 39 symbol2list;
#X obj 892 68 unpack f f f f f f;
#X floatatom 892 100 5 0 0 0 - - -;
#X floatatom 928 101 5 0 0 0 - - -;
#X floatatom 962 102 5 0 0 0 - - -;
#X floatatom 997 103 5 0 0 0 - - -;
#X floatatom 1031 103 5 0 0 0 - - -;
#X floatatom 1066 103 5 0 0 0 - - -;
#N canvas 0 22 206 235 convert 0;
#X obj 58 71 any2list;
#X obj 58 94 symbol2list;
#X obj 58 116 unpack f;
#X obj 58 43 inlet;
#X obj 58 145 outlet;
#X connect 0 0 1 0;
#X connect 1 0 2 0;
#X connect 2 0 4 0;
#X connect 3 0 0 0;
#X restore 14 80 pd convert;
#N canvas 0 22 190 219 convert 0;
#X obj 58 71 any2list;
#X obj 58 94 symbol2list;
#X obj 58 116 unpack f;
#X obj 58 43 inlet;
#X obj 58 145 outlet;
#X connect 0 0 1 0;
#X connect 1 0 2 0;
#X connect 2 0 4 0;
#X connect 3 0 0 0;
#X restore 83 83 pd convert;
#X obj 381 7 OSCroute /in1 /in2 /in3 /in3 /in4 /in5 /in6 /in7 /in8
/in9 /in10 /in11 /in12 /in13 /in14 /in15 /in16 /in17 /in18 /in19 /in20
;
#N canvas 0 22 190 219 convert 0;
#X obj 58 71 any2list;
#X obj 58 94 symbol2list;
#X obj 58 116 unpack f;
#X obj 58 43 inlet;
#X obj 58 145 outlet;
#X connect 0 0 1 0;
#X connect 1 0 2 0;
#X connect 2 0 4 0;
#X connect 3 0 0 0;
#X restore 307 84 pd convert;
#N canvas 0 22 190 219 convert 0;
#X obj 58 71 any2list;
#X obj 58 94 symbol2list;
#X obj 58 116 unpack f;
#X obj 58 43 inlet;
#X obj 58 145 outlet;
#X connect 0 0 1 0;
#X connect 1 0 2 0;
#X connect 2 0 4 0;
#X connect 3 0 0 0;
#X restore 157 83 pd convert;
#N canvas 0 22 190 219 convert 0;
#X obj 58 71 any2list;
#X obj 58 94 symbol2list;
#X obj 58 116 unpack f;
#X obj 58 43 inlet;
#X obj 58 145 outlet;
#X connect 0 0 1 0;
#X connect 1 0 2 0;
#X connect 2 0 4 0;
#X connect 3 0 0 0;
#X restore 235 84 pd convert;
#N canvas 0 22 190 219 convert 0;
#X obj 58 71 any2list;
#X obj 58 94 symbol2list;
#X obj 58 116 unpack f;
#X obj 58 43 inlet;
#X obj 58 145 outlet;
#X connect 0 0 1 0;
#X connect 1 0 2 0;
#X connect 2 0 4 0;
#X connect 3 0 0 0;
#X restore 381 83 pd convert;
#N canvas 0 22 190 219 convert 0;
#X obj 58 71 any2list;
#X obj 58 94 symbol2list;
#X obj 58 116 unpack f;
#X obj 58 43 inlet;
#X obj 58 145 outlet;
#X connect 0 0 1 0;
#X connect 1 0 2 0;
#X connect 2 0 4 0;
#X connect 3 0 0 0;
#X restore 450 84 pd convert;
#N canvas 0 22 190 219 convert 0;
#X obj 58 71 any2list;
#X obj 58 94 symbol2list;
#X obj 58 116 unpack f;
#X obj 58 43 inlet;
#X obj 58 145 outlet;
#X connect 0 0 1 0;
#X connect 1 0 2 0;
#X connect 2 0 4 0;
#X connect 3 0 0 0;
#X restore 517 85 pd convert;
#N canvas 0 22 190 219 convert 0;
#X obj 58 71 any2list;
#X obj 58 94 symbol2list;
#X obj 58 116 unpack f;
#X obj 58 43 inlet;
#X obj 58 145 outlet;
#X connect 0 0 1 0;
#X connect 1 0 2 0;
#X connect 2 0 4 0;
#X connect 3 0 0 0;
#X restore 585 87 pd convert;
#N canvas 0 22 190 219 convert 0;
#X obj 58 71 any2list;
#X obj 58 94 symbol2list;
#X obj 58 116 unpack f;
#X obj 58 43 inlet;
#X obj 58 145 outlet;
#X connect 0 0 1 0;
#X connect 1 0 2 0;
#X connect 2 0 4 0;
#X connect 3 0 0 0;
#X restore 657 87 pd convert;
#N canvas 0 22 190 219 convert 0;
#X obj 58 71 any2list;
#X obj 58 94 symbol2list;
#X obj 58 116 unpack f;
#X obj 58 43 inlet;
#X obj 58 145 outlet;
#X connect 0 0 1 0;
#X connect 1 0 2 0;
#X connect 2 0 4 0;
#X connect 3 0 0 0;
#X restore 729 87 pd convert;
#X obj 585 110 s \$0-in9-r;
#X obj 892 196 nbx 5 14 -1e+37 1e+37 0 0 empty empty empty 0 -6 0 10
-258113 -1 -1 0 256;
#N canvas 0 22 194 223 convert 0;
#X obj 58 71 any2list;
#X obj 58 94 symbol2list;
#X obj 58 116 unpack f;
#X obj 58 43 inlet;
#X obj 58 145 outlet;
#X connect 0 0 1 0;
#X connect 1 0 2 0;
#X connect 2 0 4 0;
#X connect 3 0 0 0;
#X restore 892 170 pd convert;
#X text 886 131 weird 9th input...;
#X text 887 148 ecchange with 10th;
#X obj 260 13 dumpOSC 3000;
#X obj 14 102 s laser1;
#X obj 83 106 s laser2;
#X obj 157 107 s laser3;
#X obj 235 108 s laser4;
#X obj 307 107 s laser5;
#X obj 381 106 s laser6;
#X obj 450 107 s laser7;
#X obj 517 108 s laser8;
#X obj 656 110 s red;
#X obj 729 110 s motionsum;
#X connect 0 0 1 0;
#X connect 1 0 2 0;
#X connect 2 0 3 0;
#X connect 2 1 4 0;
#X connect 2 2 5 0;
#X connect 2 3 6 0;
#X connect 2 4 7 0;
#X connect 2 5 8 0;
#X connect 9 0 27 0;
#X connect 10 0 28 0;
#X connect 11 0 9 0;
#X connect 11 1 10 0;
#X connect 11 2 13 0;
#X connect 11 3 14 0;
#X connect 11 4 12 0;
#X connect 11 5 15 0;
#X connect 11 6 16 0;
#X connect 11 7 17 0;
#X connect 11 8 18 0;
#X connect 11 9 19 0;
#X connect 11 10 20 0;
#X connect 12 0 31 0;
#X connect 13 0 29 0;
#X connect 14 0 30 0;
#X connect 15 0 32 0;
#X connect 16 0 33 0;
#X connect 17 0 34 0;
#X connect 18 0 21 0;
#X connect 19 0 35 0;
#X connect 20 0 36 0;
#X connect 23 0 22 0;
#X connect 26 0 11 0;
#X restore 98 456 pd listen2port3000fromIQR;
#X obj 25 11 comment 0 20 Times ? 0 255 128 0 INPUTS FROM KHEPERA ROBOT-AVATAR
;
#X obj 78 61 comment 0 14 Helvetica ? 0 0 128 128 Proximity Sensors
;
#X obj 262 59 comment 0 14 Helvetica ? 0 0 128 128 Track Red;
#X obj 268 130 comment 0 14 Helvetica ? 0 0 128 128 Motion Sum;
#X obj 148 325 image khepera.gif;
#X obj 393 375 image kheperafoto.gif;
#X floatatom 269 107 5 0 0 0 - - -;
#X obj 627 72 outlet;
#N canvas 67 28 914 277 sendvalues 0;
#X obj 12 28 r \$0-in1-s;
#X obj 88 28 r \$0-in2-s;
#X obj 162 27 r \$0-in3-s;
#X obj 236 28 r \$0-in4-s;
#X obj 310 26 r \$0-in5-s;
#X obj 385 27 r \$0-in6-s;
#X obj 453 28 r \$0-in7-s;
#X obj 520 29 r \$0-in8-s;
#X obj 588 31 r \$0-in9-s;
#X obj 659 31 r \$0-in10-s;
#X obj 732 31 r \$0-in11-s;
#X obj 388 193 outlet;
#X obj 388 168 pack f f f f f f f f f f f;
#X floatatom 745 64 5 0 0 0 - - -;
#X obj 140 187 bng 15 250 50 0 empty empty empty 0 -6 0 10 -262144
-1 -1;
#X floatatom 722 98 5 0 0 0 - - -;
#X text 642 156 trigger output each time an input changes;
#X connect 0 0 12 0;
#X connect 0 0 14 0;
#X connect 1 0 12 1;
#X connect 1 0 14 0;
#X connect 2 0 12 2;
#X connect 2 0 14 0;
#X connect 3 0 12 3;
#X connect 3 0 14 0;
#X connect 4 0 12 4;
#X connect 4 0 14 0;
#X connect 5 0 12 5;
#X connect 5 0 14 0;
#X connect 6 0 12 6;
#X connect 6 0 14 0;
#X connect 7 0 12 7;
#X connect 7 0 14 0;
#X connect 8 0 12 8;
#X connect 8 0 14 0;
#X connect 9 0 12 9;
#X connect 9 0 15 0;
#X connect 9 0 14 0;
#X connect 10 0 12 10;
#X connect 10 0 13 0;
#X connect 10 0 14 0;
#X connect 12 0 11 0;
#X connect 14 0 12 0;
#X restore 627 49 pd sendvalues;
#X connect 0 0 1 0;
#X connect 2 0 3 0;
#X connect 4 0 5 0;
#X connect 6 0 7 0;
#X connect 8 0 9 0;
#X connect 10 0 11 0;
#X connect 12 0 13 0;
#X connect 14 0 15 0;
#X connect 17 0 25 0;
#X connect 27 0 26 0;
