#N canvas 0 22 588 353 10;
#X obj 101 101 cnv 15 138 88 empty empty empty 20 12 0 14 -203904 -66577
0;
#X obj 101 104 vsl 15 80 0 127 0 0 empty empty empty 0 -8 0 10 -261234
-1 -1 0 1;
#X obj 208 110 bng 15 250 50 0 empty empty empty 0 -6 0 10 -4034 -1
-1;
#X obj 206 139 nbx 2 14 -1e+37 1e+37 0 0 empty empty empty 0 -6 0 10
-257985 -1 -1 0 256;
#X obj 118 104 vsl 15 80 0 127 0 0 empty empty empty 0 -8 0 10 -261682
-1 -1 0 1;
#X obj 135 104 vsl 15 80 0 144 0 0 empty empty empty 0 -8 0 10 -260097
-1 -1 0 1;
#X obj 152 104 vsl 15 80 0 144 0 0 empty empty empty 0 -8 0 10 -260097
-1 -1 0 1;
#X obj 169 104 vsl 15 80 0 144 0 0 empty empty empty 0 -8 0 10 -260097
-1 -1 0 1;
#X obj 185 104 vsl 15 80 0 144 0 0 empty empty empty 0 -8 0 10 -260097
-1 -1 0 1;
#X text 117 157 env;
#X text 102 155 p;
#X text 138 156 x;
#X text 155 157 y;
#X text 169 158 rx;
#X text 186 158 ry;
#X text 205 122 onset;
#X text 208 153 trig;
#X obj 341 159 s \$0-trigger;
#X obj 256 260 s \$0-x;
#X obj 302 260 s \$0-y;
#X obj 351 260 s \$0-rx;
#X obj 402 260 s \$0-ry;
#X obj 103 263 s \$0-pitchfromiqr;
#X obj 159 288 s \$0-enveloppefromiqr;
#X obj 428 159 s \$0-onsetfromiqr;
#X connect 1 0 22 0;
#X connect 2 0 24 0;
#X connect 3 0 17 0;
#X connect 4 0 23 0;
#X connect 5 0 18 0;
#X connect 6 0 19 0;
#X connect 7 0 20 0;
#X connect 8 0 21 0;
#X coords 0 -1 1 1 140 90 1 100 100;
