#N canvas 592 22 583 521 10;
#X obj 135 69 dumpOSC 9000;
#X obj 135 97 OSCroute /wii;
#X obj 135 123 OSCroute /1;
#X obj 135 149 OSCroute /accel;
#X obj 135 178 OSCroute /pry;
#X obj 279 181 OSCroute /xyz;
#X obj 127 358 osc~ 440;
#X obj 204 350 osc~ 550;
#X obj 289 350 osc~ 900;
#X obj 135 423 ezdac~;
#X obj 314 93 print;
#X obj 436 133 prepend set;
#X msg 436 155 0.497097;
#X obj 135 207 unpack f f f;
#X obj 127 327 + 440;
#X obj 127 299 * 100;
#X obj 436 319 vsl 15 128 0 1 0 0 empty empty empty 0 -9 0 10 -262144
-1 -1 6751 1;
#X obj 473 319 vsl 15 128 0 1 0 0 empty empty empty 0 -9 0 10 -262144
-1 -1 8068 1;
#X obj 504 318 vsl 15 128 0 1 0 0 empty empty empty 0 -9 0 10 -262144
-1 -1 11826 1;
#X obj 204 293 * 100;
#X obj 289 292 * 100;
#X obj 204 322 + 460;
#X obj 289 320 + 500;
#X connect 0 0 1 0;
#X connect 0 0 10 0;
#X connect 1 0 2 0;
#X connect 2 0 3 0;
#X connect 3 0 4 0;
#X connect 3 0 5 0;
#X connect 4 0 13 0;
#X connect 6 0 9 0;
#X connect 7 0 9 1;
#X connect 8 0 9 1;
#X connect 8 0 9 0;
#X connect 11 0 12 0;
#X connect 13 0 15 0;
#X connect 13 0 16 0;
#X connect 13 1 17 0;
#X connect 13 1 19 0;
#X connect 13 2 18 0;
#X connect 13 2 20 0;
#X connect 14 0 6 0;
#X connect 15 0 14 0;
#X connect 19 0 21 0;
#X connect 20 0 22 0;
#X connect 21 0 7 0;
#X connect 22 0 8 0;
