#N canvas 437 248 988 559 10;
#X obj 13 8 slg.midimonitor;
#X obj 344 16 midiin;
#X obj 344 38 midiparse;
#X obj 55 150 alternate;
#X msg 55 174 1;
#X msg 106 175 0;
#X obj 55 216 s adc-fft-eq-pan;
#X obj 161 217 s tgl1;
#X obj 243 218 s tgl2;
#X obj 326 220 s tgl3;
#X obj 161 154 alternate;
#X msg 161 178 1;
#X msg 212 179 0;
#X obj 243 155 alternate;
#X msg 243 179 1;
#X msg 294 180 0;
#X obj 326 155 alternate;
#X msg 326 179 1;
#X msg 377 180 0;
#X obj 55 119 sel 0 1 2 3;
#X obj 441 151 alternate;
#X msg 441 175 1;
#X msg 492 176 0;
#X obj 546 155 alternate;
#X msg 546 179 1;
#X msg 597 180 0;
#X obj 441 121 sel 5 6;
#X obj 441 217 s granulator1-on;
#X obj 546 216 s granulator2-on;
#X obj 631 342 s rec1-on;
#X obj 693 342 s rec2-on;
#X obj 755 342 s rec3-on;
#X obj 817 342 s rec4-on;
#X obj 631 314 sel 20 21 22 23;
#X obj 52 396 alternate;
#X msg 52 420 1;
#X msg 103 421 0;
#X obj 52 448 s anthony-onoff;
#X obj 104 372 s anthony-clear;
#X obj 127 394 s anthony-0;
#X obj 148 420 s anthony-12;
#X obj 164 441 s anthony-24;
#X obj 183 465 s anthony-36;
#X obj 52 298 sel 10 11 15 16 17 18;
#X obj 251 304 sel 13 14;
#X obj 252 341 alternate;
#X msg 252 365 1;
#X msg 303 366 0;
#X text 11 143 FX;
#X text 9 337 SYNTH;
#X obj 351 340 alternate;
#X msg 351 364 1;
#X msg 402 365 0;
#X obj 252 393 s drunk-onoff;
#X obj 351 392 s drunk-midi-onoff;
#X obj 25 370 bng 15 250 50 0 empty empty empty 17 7 0 10 -262144 -1
-1;
#X obj 72 354 bng 15 250 50 0 empty empty empty 17 7 0 10 -262144 -1
-1;
#X obj 181 338 bng 15 250 50 0 empty empty empty 17 7 0 10 -262144
-1 -1;
#X text 570 318 REC;
#X obj 514 378 sel 25 26 27 28;
#X obj 514 414 alternate;
#X msg 514 438 1;
#X msg 565 439 0;
#X obj 613 413 alternate;
#X msg 613 437 1;
#X msg 664 438 0;
#X obj 698 414 alternate;
#X msg 698 438 1;
#X msg 749 439 0;
#X obj 797 413 alternate;
#X msg 797 437 1;
#X msg 848 438 0;
#X obj 514 469 s sndfile1-onoff;
#X obj 616 509 s sndfile2-onoff;
#X obj 698 477 s sndfile3-onoff;
#X obj 802 512 s sndfile4-onoff;
#X obj 487 66 prepend set;
#X floatatom 500 95 5 0 0 0 - - -;
#X connect 1 0 2 0;
#X connect 2 3 19 0;
#X connect 2 3 26 0;
#X connect 2 3 33 0;
#X connect 2 3 43 0;
#X connect 2 3 44 0;
#X connect 2 3 59 0;
#X connect 2 3 76 0;
#X connect 3 0 4 0;
#X connect 3 1 5 0;
#X connect 4 0 6 0;
#X connect 5 0 6 0;
#X connect 10 0 11 0;
#X connect 10 1 12 0;
#X connect 11 0 7 0;
#X connect 12 0 7 0;
#X connect 13 0 14 0;
#X connect 13 1 15 0;
#X connect 14 0 8 0;
#X connect 15 0 8 0;
#X connect 16 0 17 0;
#X connect 16 1 18 0;
#X connect 17 0 9 0;
#X connect 18 0 9 0;
#X connect 19 0 3 0;
#X connect 19 1 10 0;
#X connect 19 2 13 0;
#X connect 19 3 16 0;
#X connect 20 0 21 0;
#X connect 20 1 22 0;
#X connect 21 0 27 0;
#X connect 22 0 27 0;
#X connect 23 0 24 0;
#X connect 23 1 25 0;
#X connect 24 0 28 0;
#X connect 25 0 28 0;
#X connect 26 0 20 0;
#X connect 26 1 23 0;
#X connect 33 0 29 0;
#X connect 33 1 30 0;
#X connect 33 2 31 0;
#X connect 33 3 32 0;
#X connect 34 0 35 0;
#X connect 34 1 36 0;
#X connect 35 0 37 0;
#X connect 36 0 37 0;
#X connect 43 0 34 0;
#X connect 43 1 38 0;
#X connect 43 2 39 0;
#X connect 43 3 40 0;
#X connect 43 4 41 0;
#X connect 43 5 42 0;
#X connect 44 0 45 0;
#X connect 44 1 50 0;
#X connect 45 0 46 0;
#X connect 45 1 47 0;
#X connect 46 0 53 0;
#X connect 47 0 53 0;
#X connect 50 0 51 0;
#X connect 50 1 52 0;
#X connect 51 0 54 0;
#X connect 52 0 54 0;
#X connect 55 0 34 0;
#X connect 56 0 38 0;
#X connect 57 0 41 0;
#X connect 59 0 60 0;
#X connect 59 1 63 0;
#X connect 59 2 66 0;
#X connect 59 3 69 0;
#X connect 60 0 61 0;
#X connect 60 1 62 0;
#X connect 61 0 72 0;
#X connect 62 0 72 0;
#X connect 63 0 64 0;
#X connect 63 1 65 0;
#X connect 64 0 73 0;
#X connect 65 0 73 0;
#X connect 66 0 67 0;
#X connect 66 1 68 0;
#X connect 67 0 74 0;
#X connect 68 0 74 0;
#X connect 69 0 70 0;
#X connect 69 1 71 0;
#X connect 70 0 75 0;
#X connect 71 0 75 0;
#X connect 76 0 77 0;
