#N canvas 0 0 610 451 12;
#X floatatom 113 218 5 0 0 0 - - -;
#X obj 123 113 f;
#X obj 104 198 random 4;
#X obj 26 197 random 2;
#X floatatom 35 219 5 0 0 0 - - -;
#X obj 123 138 t b b f;
#X obj 26 253 sel 0 1;
#X obj 159 328 +;
#X obj 104 252 + 1;
#X floatatom 242 153 5 0 0 0 - - -;
#X obj 82 309 *;
#X msg 26 282 -1;
#X obj 242 83 moses 0;
#X obj 316 83 moses 100;
#X obj 242 107 * -1;
#X obj 407 86 * -1;
#X obj 407 111 + 200;
#X msg 60 282 1;
#X text 298 152 output;
#X text 35 235 sign;
#X text 113 234 magnitude;
#X obj 243 397 outlet;
#X obj 122 28 inlet;
#X msg 198 50 0;
#X obj 198 20 r reset;
#X connect 1 0 5 0;
#X connect 2 0 0 0;
#X connect 2 0 8 0;
#X connect 3 0 4 0;
#X connect 3 0 6 0;
#X connect 5 0 3 0;
#X connect 5 1 2 0;
#X connect 5 2 7 1;
#X connect 6 0 11 0;
#X connect 6 1 17 0;
#X connect 7 0 12 0;
#X connect 8 0 10 1;
#X connect 9 0 1 1;
#X connect 9 0 21 0;
#X connect 10 0 7 0;
#X connect 11 0 10 0;
#X connect 12 0 14 0;
#X connect 12 1 13 0;
#X connect 13 0 9 0;
#X connect 13 1 15 0;
#X connect 14 0 9 0;
#X connect 15 0 16 0;
#X connect 16 0 9 0;
#X connect 17 0 10 0;
#X connect 22 0 1 0;
#X connect 23 0 1 1;
#X connect 24 0 23 0;
