#N canvas 558 41 522 660 10;
#X declare -path synth/;
#X declare -path ../persistance/_sssad;
#X obj 30 36 GUI;
#X obj 70 319 ezdac~;
#X obj 70 213 slg.freeverb~;
#X obj 344 -67 sssad/panel;
#X obj 30 -69 slg.midiseq;
#X obj 30 9 pack f f;
#X text 334 -92 Save/Load Presets;
#X text 55 -96 Read midi file;
#X text 168 241 Reverb;
#X text 178 331 Audio Out;
#X obj 13 -152 comment 0 14 Helvetica ? 0 0 128 128 Tristimulus Polyphonic
Synthesizer Demo Patch;
#X obj 300 233 slg.plot;
#X obj 441 -214 image iua_logo.gif;
#X obj 190 -204 image specs_logo.gif;
#X text 373 -183 <slegroux@iua.upf.edu>;
#X text 280 214 Plot Audio & Spectrum;
#N canvas 1087 22 294 366 plotWindow 1;
#N canvas 0 22 450 300 (subpatch) 0;
#X array signal 882 float 0;
#X coords 0 5 882 -5 200 130 1;
#X restore 22 -13 graph;
#N canvas 0 22 450 300 (subpatch) 0;
#X array spectrum 128 float 0;
#X coords 0 4300 127 -40 257 130 1;
#X restore 22 158 graph;
#X text 51 118 ---- 0.02 seconds ----;
#X text 52 290 1;
#X text 86 290 2;
#X text 118 290 3;
#X text 150 290 4;
#X text 183 290 5;
#X text 213 290 6;
#X text 244 290 7;
#X text 20 290 0;
#X text 56 309 -- partial number --;
#X text 114 135 SPECTRUM;
#X restore 303 306 pd plotWindow;
#N canvas 0 22 242 58 TODO 0;
#X text 26 -53 - psychoacoustics vu-meters;
#X restore 415 -153 pd TODO;
#N canvas 497 347 839 496 visuals 0;
#X obj 350 204 gemhead;
#X obj 350 382 rotate;
#X floatatom 409 320 0 0 0 0 - - -;
#X msg 452 189 1 1 1;
#X text 438 137 change the color;
#X msg 237 358 draw line;
#X msg 237 391 draw fill;
#X text 111 73 this demonstrates how to create a blue rectangle;
#X obj 350 424 rectangle 2 1;
#X text 382 305 rotate the rectangle;
#X msg 452 214 0 0 1;
#X text 402 404 width;
#X text 460 403 height;
#X obj 20 104 cnv 15 220 70 empty empty empty 20 12 0 14 -195568 -66577
0;
#N canvas 397 422 454 304 gemwin 0;
#X obj 132 136 gemwin;
#X obj 67 89 outlet;
#X obj 67 10 inlet;
#X obj 67 41 route create;
#X msg 67 70 set destroy;
#X msg 182 68 set create;
#X msg 132 112 create \, 1;
#X msg 238 112 destroy;
#N canvas 87 154 247 179 Gem.init 0;
#X obj 59 46 loadbang;
#X msg 118 81 reset;
#X obj 118 113 outlet;
#X obj 59 65 t b b;
#X connect 0 0 3 0;
#X connect 1 0 2 0;
#X connect 3 1 1 0;
#X restore 289 80 pd Gem.init;
#X connect 2 0 3 0;
#X connect 3 0 4 0;
#X connect 3 0 6 0;
#X connect 3 1 5 0;
#X connect 3 1 7 0;
#X connect 4 0 1 0;
#X connect 5 0 1 0;
#X connect 6 0 0 0;
#X connect 7 0 0 0;
#X connect 8 0 0 0;
#X restore 25 148 pd gemwin;
#X msg 24 123 destroy;
#X text 21 104 Create window and render;
#X text 504 215 blue;
#X text 495 191 white;
#X obj 350 264 color 0 0 1;
#X text 422 266 (blue);
#X floatatom 297 129 5 0 0 0 - - -;
#X floatatom 333 130 5 0 0 0 - - -;
#X floatatom 373 130 5 0 0 0 - - -;
#X obj 375 175 pack f f f;
#X obj 278 159 bng 15 250 50 0 empty empty empty 17 7 0 10 -262144
-1 -1;
#X obj 546 288 loadbang;
#X msg 547 325 3;
#X msg 579 326 2;
#X obj 25 72 inlet;
#X obj 453 11 inlet;
#X obj 481 58 unpack f f;
#X msg 555 373 create;
#X obj 481 114 expr ($f1 + $f2 -1.0) * -1;
#X obj 666 134 maxlib/scale 0 127 0 1;
#X obj 613 71 maxlib/scale 0 127 0 1;
#X connect 0 0 19 0;
#X connect 1 0 8 0;
#X connect 2 0 1 1;
#X connect 3 0 19 1;
#X connect 5 0 8 0;
#X connect 6 0 8 0;
#X connect 10 0 19 1;
#X connect 14 0 15 0;
#X connect 15 0 14 0;
#X connect 19 0 1 0;
#X connect 21 0 24 0;
#X connect 22 0 24 1;
#X connect 22 0 25 0;
#X connect 23 0 24 2;
#X connect 23 0 25 0;
#X connect 24 0 19 1;
#X connect 25 0 24 0;
#X connect 26 0 27 0;
#X connect 26 0 28 0;
#X connect 26 0 32 0;
#X connect 27 0 8 1;
#X connect 28 0 8 2;
#X connect 29 0 15 0;
#X connect 30 0 31 0;
#X connect 30 0 25 0;
#X connect 31 0 34 0;
#X connect 31 1 35 0;
#X connect 32 0 14 0;
#X connect 33 0 24 2;
#X connect 34 0 33 0;
#X connect 34 0 24 0;
#X connect 35 0 33 1;
#X connect 35 0 24 1;
#X restore 367 345 pd visuals;
#X obj 350 346 bng 15 250 50 0 empty empty empty 17 7 0 10 -258113
-1 -1;
#X text 295 345 colors!;
#X connect 0 0 2 0;
#X connect 0 1 2 1;
#X connect 0 1 11 0;
#X connect 0 2 18 1;
#X connect 2 0 1 0;
#X connect 2 1 1 1;
#X connect 4 0 5 0;
#X connect 4 1 5 1;
#X connect 5 0 0 0;
#X connect 19 0 18 0;
