#N canvas 401 74 856 715 10;
#X obj 101 101 cnv 15 100 78 empty empty empty 20 12 0 14 -128992 -66577
0;
#X obj 771 204 metro 100;
#X text 117 111 on/off;
#X obj 206 478 *~ 0.1;
#X obj 127 220 brown_abs;
#X floatatom 133 270 5 0 0 0 - - -;
#X floatatom 200 271 5 0 0 0 - - -;
#X floatatom 267 270 5 0 0 0 - - -;
#X floatatom 331 271 5 0 0 0 - - -;
#X floatatom 395 271 5 0 0 0 - - -;
#X obj 127 248 + 120;
#X obj 548 503 loadbang;
#X floatatom 458 271 5 0 0 0 - - -;
#X floatatom 523 271 8 0 0 0 - - -;
#X obj 121 156 hsl 75 15 0 100 0 0 vol volr volume -2 6 0 8 -191407
-1 -258699 2940 1;
#X obj 8 277 dbtorms;
#X obj 144 327 tgl 15 0 empty empty empty 0 -6 0 8 -262144 -1 -1 0
1;
#X obj 128 408 *~;
#X obj 207 327 tgl 15 0 empty empty empty 0 -6 0 8 -262144 -1 -1 0
1;
#X obj 191 410 *~;
#X obj 399 327 tgl 15 0 empty empty empty 0 -6 0 8 -262144 -1 -1 0
1;
#X obj 384 408 *~;
#X obj 271 331 tgl 15 0 empty empty empty 0 -6 0 8 -262144 -1 -1 0
1;
#X obj 255 411 *~;
#X obj 338 329 tgl 15 0 empty empty empty 0 -6 0 8 -262144 -1 -1 0
1;
#X obj 323 409 *~;
#X obj 463 332 tgl 15 0 empty empty empty 0 -6 0 8 -262144 -1 -1 0
1;
#X obj 448 412 *~;
#X obj 528 334 tgl 15 0 empty empty empty 0 -6 0 8 -262144 -1 -1 0
1;
#X obj 513 411 *~;
#X obj 144 377 line;
#X msg 144 352 \$1 500;
#X msg 207 353 \$1 500;
#X obj 207 379 line;
#X msg 271 356 \$1 500;
#X obj 271 381 line;
#X msg 338 353 \$1 500;
#X obj 338 378 line;
#X msg 399 352 \$1 500;
#X obj 399 375 line;
#X msg 463 355 \$1 500;
#X obj 463 379 line;
#X msg 528 357 \$1 500;
#X obj 528 382 line;
#X floatatom 589 272 8 0 0 0 - - -;
#X obj 595 334 tgl 15 0 empty empty empty 0 -6 0 8 -262144 -1 -1 0
1;
#X obj 580 412 *~;
#X msg 595 357 \$1 500;
#X obj 595 382 line;
#X obj 192 248 + 240;
#X obj 257 248 + 480;
#X obj 322 248 + 960;
#X obj 385 248 + 1920;
#X obj 449 248 + 3860;
#X obj 512 248 + 660;
#X obj 579 248 + 640;
#X obj 127 297 osc~;
#X obj 192 299 osc~;
#X obj 256 299 osc~;
#X obj 322 300 osc~;
#X obj 385 300 osc~;
#X obj 449 300 osc~;
#X obj 512 300 osc~;
#X obj 579 300 osc~;
#X obj 104 110 vsl 12 64 0 8000 0 0 bfreq bfreqr Base_frequency 0 -8
0 8 -260097 -241291 -1 206 0;
#X obj 500 105 t f f f f f f f f;
#X obj 8 250 r vol;
#X text 219 21 a bank of brown noise driven oscillator frequencies.
AZ 2007;
#X text 632 331 <- play with these;
#X text 220 3 drunk oscillators;
#X obj 201 563 cross-delay-gop;
#X obj 192 221 brown_abs;
#X obj 257 221 brown_abs;
#X obj 322 221 brown_abs;
#X obj 385 221 brown_abs;
#X obj 449 221 brown_abs;
#X obj 512 221 brown_abs;
#X obj 579 221 brown_abs;
#X obj 725 16 bng 15 250 50 0 empty empty empty 0 -6 0 8 -262144 -1
-1;
#X obj 725 47 s reset;
#X text 758 14 reset brown;
#X obj 496 130 * 2;
#X obj 522 130 * 4;
#X obj 552 130 * 8;
#X obj 580 130 * 16;
#X obj 608 130 * 32;
#X obj 637 130 * 64;
#X obj 666 130 * 128;
#X msg 548 529 \; volr 60 \; bfreqr 40 \;;
#X text 422 84 <- 2;
#X obj 201 678 outlet~;
#X obj 334 677 outlet~;
#X obj 122 55 inlet;
#X obj 291 48 inlet;
#X obj 230 44 inlet;
#X obj 230 69 mtof;
#X obj 500 79 r \$0-f0;
#X obj 55 185 s \$0-f0;
#X obj 121 128 tgl 15 0 empty empty empty 0 -6 0 8 -258113 -1 -1 0
1;
#X obj 307 484 tgl 15 0 empty empty empty 17 7 0 10 -262144 -1 -1 0
1;
#X floatatom 308 533 5 0 0 0 - - -;
#X obj 307 506 slg.smoothswitch 1 4000 0 3000;
#X obj 205 522 *~;
#X obj 131 676 throw~ LF;
#X obj 385 676 throw~ RF;
#X obj 354 46 r amplitude;
#X floatatom 354 101 5 0 0 0 - - -;
#X obj 291 72 maxlib/scale 0 127 0 100 0;
#X obj 112 22 r pitch_midi;
#X obj 168 128 tgl 15 0 empty empty empty 17 7 0 10 -262144 -1 -1 1
1;
#X text 161 110 midiin;
#X obj 180 45 spigot;
#X obj 19 33 r drunk-onoff;
#X obj 212 103 r drunk-midi-onoff;
#X connect 1 0 4 0;
#X connect 1 0 71 0;
#X connect 1 0 72 0;
#X connect 1 0 73 0;
#X connect 1 0 74 0;
#X connect 1 0 75 0;
#X connect 1 0 76 0;
#X connect 1 0 77 0;
#X connect 3 0 102 0;
#X connect 4 0 10 0;
#X connect 10 0 5 0;
#X connect 10 0 56 0;
#X connect 11 0 88 0;
#X connect 15 0 3 1;
#X connect 16 0 31 0;
#X connect 17 0 3 0;
#X connect 18 0 32 0;
#X connect 19 0 3 0;
#X connect 20 0 38 0;
#X connect 21 0 3 0;
#X connect 22 0 34 0;
#X connect 23 0 3 0;
#X connect 24 0 36 0;
#X connect 25 0 3 0;
#X connect 26 0 40 0;
#X connect 27 0 3 0;
#X connect 28 0 42 0;
#X connect 29 0 3 0;
#X connect 30 0 17 1;
#X connect 31 0 30 0;
#X connect 32 0 33 0;
#X connect 33 0 19 1;
#X connect 34 0 35 0;
#X connect 35 0 23 1;
#X connect 36 0 37 0;
#X connect 37 0 25 1;
#X connect 38 0 39 0;
#X connect 39 0 21 1;
#X connect 40 0 41 0;
#X connect 41 0 27 1;
#X connect 42 0 43 0;
#X connect 43 0 29 1;
#X connect 45 0 47 0;
#X connect 46 0 3 0;
#X connect 47 0 48 0;
#X connect 48 0 46 1;
#X connect 49 0 6 0;
#X connect 49 0 57 0;
#X connect 50 0 7 0;
#X connect 50 0 58 0;
#X connect 51 0 8 0;
#X connect 51 0 59 0;
#X connect 52 0 9 0;
#X connect 52 0 60 0;
#X connect 53 0 12 0;
#X connect 53 0 61 0;
#X connect 54 0 13 0;
#X connect 54 0 62 0;
#X connect 55 0 44 0;
#X connect 55 0 63 0;
#X connect 56 0 17 0;
#X connect 57 0 19 0;
#X connect 58 0 23 0;
#X connect 59 0 25 0;
#X connect 60 0 21 0;
#X connect 61 0 27 0;
#X connect 62 0 29 0;
#X connect 63 0 46 0;
#X connect 64 0 97 0;
#X connect 65 0 10 1;
#X connect 65 1 81 0;
#X connect 65 2 82 0;
#X connect 65 3 83 0;
#X connect 65 4 84 0;
#X connect 65 5 85 0;
#X connect 65 6 86 0;
#X connect 65 7 87 0;
#X connect 66 0 15 0;
#X connect 70 0 90 0;
#X connect 70 0 103 0;
#X connect 70 1 91 0;
#X connect 70 1 104 0;
#X connect 71 0 49 0;
#X connect 72 0 50 0;
#X connect 73 0 51 0;
#X connect 74 0 52 0;
#X connect 75 0 53 0;
#X connect 76 0 54 0;
#X connect 77 0 55 0;
#X connect 78 0 79 0;
#X connect 81 0 49 1;
#X connect 82 0 50 1;
#X connect 83 0 51 1;
#X connect 84 0 52 1;
#X connect 85 0 53 1;
#X connect 86 0 54 1;
#X connect 87 0 55 1;
#X connect 92 0 98 0;
#X connect 93 0 107 0;
#X connect 94 0 95 0;
#X connect 95 0 64 0;
#X connect 96 0 65 0;
#X connect 98 0 1 0;
#X connect 98 0 16 0;
#X connect 98 0 18 0;
#X connect 98 0 22 0;
#X connect 98 0 24 0;
#X connect 98 0 20 0;
#X connect 98 0 26 0;
#X connect 98 0 28 0;
#X connect 98 0 45 0;
#X connect 98 0 101 0;
#X connect 99 0 101 0;
#X connect 101 0 100 0;
#X connect 101 0 102 1;
#X connect 102 0 70 0;
#X connect 102 0 70 1;
#X connect 105 0 106 0;
#X connect 105 0 107 0;
#X connect 108 0 111 0;
#X connect 109 0 111 1;
#X connect 111 0 95 0;
#X connect 112 0 98 0;
#X connect 113 0 109 0;
#X coords 0 -1 1 1 100 80 1 100 100;
