#N canvas 641 22 631 479 10;
#X declare -path synth/;
#X declare -path ../persistance/_sssad;
#X obj 102 102 cnv 15 395 160 empty empty empty 20 12 0 14 -1 -66577
0;
#X obj 104 104 cnv 15 390 155 empty empty empty 20 12 0 14 -128992
-66577 0;
#X obj 127 115 cnv 15 330 130 empty empty empty 20 12 0 14 -1 -66577
0;
#X obj 129 117 cnv 15 325 125 empty empty empty 20 12 0 14 -233017
-66577 0;
#X obj 291 135 vsl 10 40 1 5000 0 1 \$0-rel \$0-r-rel R 4 48 0 8 -258113
-1 -1 600 1;
#X obj 252 135 vsl 10 40 1 5000 0 1 \$0-atk \$0-r-atk A 4 48 0 8 -258113
-1 -1 100 1;
#X obj 278 135 vsl 10 40 0 100 0 1 \$0-sus \$0-r-sus S 4 48 0 8 -258113
-1 -1 600 1;
#X obj 265 135 vsl 10 40 1 9999 0 1 \$0-dec \$0-r-dec D 4 48 0 8 -258113
-1 -1 1000 1;
#X obj 138 126 grid grid1 100 0 127 100 0 127 1 1 1 10 10 82 106;
#X obj 333 144 knob 25 25 0 100 0 0 \$0-setNoise \$0-getNoise Noise
0 -8 192 8 -258113 -258113 -1 0 1;
#X obj 370 144 knob 25 25 0 100 0 0 \$0-setQ \$0-getQ Q 0 -8 192 8
-262144 -258113 -1 1400 1;
#X obj 336 190 knob 25 25 0 1 0 0 \$0-setDecay \$0-getDecay Decay 0
-8 192 8 -258113 -258113 -1 2400 1;
#X obj 374 190 knob 25 25 0 100 0 0 \$0-setEvenOdd \$0-getEvenOdd Even/Odd
0 -8 192 8 -258113 -258113 -1 2400 1;
#X obj 413 146 knob 25 25 0 10 0 0 \$0-setFVib \$0-getFVib FVib 0 -8
192 8 -262144 -258113 -1 200 1;
#X obj 415 190 knob 25 25 0 1000 0 0 \$0-setDepth \$0-getDepth depth
0 -8 192 8 -262144 -258113 -1 0 1;
#X floatatom 265 223 5 0 0 0 - #0-r-curve #0-curve;
#X obj 214 292 s \$0-setX;
#X obj 121 295 s \$0-setY;
#X text 128 244 (c) 2008 SPECS Sylvain Le Groux <slegroux@iua.upf.edu>
;
#X text 264 210 curve;
#X obj 121 338 r \$0-getY;
#X obj 166 338 r \$0-getX;
#X obj 121 363 pack f f;
#X msg 121 387 values \$1 \$2;
#N canvas 124 341 910 461 interface 0;
#X msg 153 43 q \$1;
#X msg 222 41 f \$1;
#X msg 302 39 depth \$1;
#X msg 411 39 even \$1;
#X msg 520 37 decay \$1;
#X obj 152 81 s 2in;
#X obj 153 14 r \$0-setQ;
#X obj 520 14 r \$0-setDecay;
#X obj 520 60 s 2in;
#X obj 411 14 r \$0-setEvenOdd;
#X obj 222 16 r \$0-setFVib;
#X obj 222 64 s 2in;
#X obj 302 15 r \$0-setDepth;
#X msg 523 228 f0 \$1;
#X floatatom 523 208 5 0 0 0 - - -;
#X obj 374 206 r \$0-rel;
#X obj 314 206 r \$0-sus;
#X obj 253 206 r \$0-dec;
#X obj 193 202 r \$0-atk;
#X obj 223 282 s 2in;
#X msg 196 242 a \$1;
#X msg 252 240 d \$1;
#X msg 314 239 s \$1;
#X msg 374 233 r \$1;
#X msg 437 231 curve \$1;
#X obj 437 205 r \$0-curve;
#X msg 130 229 x \$1;
#X msg 70 228 y \$1;
#X obj 70 202 r \$0-setY;
#X obj 130 203 r \$0-setX;
#X obj 70 253 s 2in;
#X obj 66 393 loadbang;
#X msg 66 420 noise 2;
#X msg 173 419 f 5;
#X msg 278 419 x 60;
#X msg 314 418 y 60;
#X msg 351 420 even 50;
#X msg 405 420 decay 0.9;
#X msg 207 418 depth 100;
#X msg 120 419 q 100;
#X obj 499 121 sssad/sssad EvenOdd;
#X text 11 406 Init:;
#X obj 180 122 sssad/sssad Q;
#X obj 273 120 sssad/sssad FVib;
#X obj 385 119 sssad/sssad Depth;
#X obj 634 121 sssad/sssad Decay;
#X obj 63 316 sssad/sssad Y;
#X obj 160 317 sssad/sssad X;
#X obj 259 317 sssad/sssad atk;
#X obj 363 318 sssad/sssad dec;
#X obj 470 315 sssad/sssad sus;
#X obj 582 312 sssad/sssad rel;
#X obj 687 311 sssad/sssad curve;
#X obj 180 157 s \$0-getQ;
#X obj 273 158 s \$0-getFVib;
#X obj 385 153 s \$0-getDepth;
#X obj 499 153 s \$0-getEvenOdd;
#X obj 634 151 s \$0-getDecay;
#X obj 69 353 s \$0-getY;
#X obj 161 354 s \$0-getX;
#X obj 261 354 s \$0-r-atk;
#X obj 366 357 s \$0-r-dec;
#X obj 471 350 s \$0-r-sus;
#X obj 584 350 s \$0-r-rel;
#X obj 687 349 s \$0-r-curve;
#X msg 62 41 noise \$1;
#X obj 57 13 r \$0-setNoise;
#X obj 68 74 s 2in;
#X obj 55 118 sssad/sssad Noise;
#X obj 61 154 s \$0-getNoise;
#X obj 756 18 r \$0-setDetune;
#X msg 756 48 detune \$1;
#X obj 757 76 sssad/sssad Detune;
#X obj 757 103 s \$0-getDetune;
#X floatatom 799 169 5 0 0 0 - - -;
#X connect 0 0 5 0;
#X connect 1 0 11 0;
#X connect 2 0 11 0;
#X connect 3 0 8 0;
#X connect 4 0 8 0;
#X connect 6 0 0 0;
#X connect 6 0 42 1;
#X connect 7 0 4 0;
#X connect 7 0 45 1;
#X connect 9 0 3 0;
#X connect 9 0 40 1;
#X connect 10 0 1 0;
#X connect 10 0 43 1;
#X connect 12 0 2 0;
#X connect 12 0 44 1;
#X connect 14 0 13 0;
#X connect 15 0 23 0;
#X connect 15 0 51 1;
#X connect 16 0 22 0;
#X connect 16 0 50 1;
#X connect 17 0 21 0;
#X connect 17 0 49 1;
#X connect 18 0 20 0;
#X connect 18 0 48 1;
#X connect 20 0 19 0;
#X connect 21 0 19 0;
#X connect 22 0 19 0;
#X connect 23 0 19 0;
#X connect 24 0 19 0;
#X connect 25 0 24 0;
#X connect 25 0 52 1;
#X connect 26 0 30 0;
#X connect 27 0 30 0;
#X connect 28 0 27 0;
#X connect 28 0 46 1;
#X connect 29 0 26 0;
#X connect 29 0 47 1;
#X connect 31 0 32 0;
#X connect 31 0 39 0;
#X connect 31 0 33 0;
#X connect 31 0 38 0;
#X connect 31 0 34 0;
#X connect 31 0 35 0;
#X connect 31 0 36 0;
#X connect 31 0 37 0;
#X connect 40 0 56 0;
#X connect 42 0 53 0;
#X connect 43 0 54 0;
#X connect 44 0 55 0;
#X connect 45 0 57 0;
#X connect 46 0 58 0;
#X connect 47 0 59 0;
#X connect 48 0 60 0;
#X connect 49 0 61 0;
#X connect 50 0 62 0;
#X connect 51 0 63 0;
#X connect 52 0 64 0;
#X connect 65 0 67 0;
#X connect 66 0 65 0;
#X connect 66 0 68 1;
#X connect 68 0 69 0;
#X connect 70 0 71 0;
#X connect 70 0 72 1;
#X connect 70 0 74 0;
#X connect 71 0 8 0;
#X connect 72 0 73 0;
#X restore 531 186 pd interface;
#N canvas 106 22 337 284 paths 0;
#X obj -4 13 declare -path synth/;
#X text 139 10 polypoly stuff and trisyth~;
#X obj -6 37 declare -path ../persistance/_sssad;
#X restore 532 163 pd paths;
#N canvas 42 346 402 247 guts 0;
#X obj 127 39 notein;
#X obj 127 68 pack f f;
#X obj 190 140 r 2in;
#X msg 126 123 57 90;
#X msg 85 123 70 80;
#X obj 124 184 polypoly 12 1 slg.trisynth~;
#X msg 48 123 stop;
#X text 331 156 midi file;
#X obj 282 38 r \$0-setVel;
#X obj 198 37 r \$0-setNote;
#X obj 54 18 inlet;
#X obj 126 208 throw~ \$0-outL;
#X obj 283 205 throw~ \$0-outR;
#X connect 0 0 1 0;
#X connect 0 1 1 1;
#X connect 1 0 5 0;
#X connect 2 0 5 1;
#X connect 3 0 5 0;
#X connect 4 0 5 0;
#X connect 5 0 11 0;
#X connect 5 1 12 0;
#X connect 6 0 5 0;
#X connect 8 0 1 1;
#X connect 9 0 1 0;
#X connect 10 0 5 0;
#X restore 326 342 pd guts;
#X msg 326 321 stop;
#N canvas 122 22 420 114 (c) 0;
#X obj 25 8 loadbang;
#X obj 79 9 bng 15 250 50 0 empty empty empty 17 7 0 10 -262144 -1
-1;
#X obj 30 48 print trisynthpoly~: tristimulus polyphonic synthesizer
(c) 2008 SPECS Sylvain Le Groux <slegroux@iua.upf.edu>;
#X connect 0 0 2 0;
#X connect 1 0 2 0;
#X restore 534 217 pd (c);
#X obj 332 228 bng 10 250 50 0 empty empty stop_midi 17 7 0 10 -258113
-1 -1;
#X obj 382 305 inlet;
#X msg 385 281 60 90;
#X obj 314 381 catch~ \$0-outL;
#X obj 413 379 catch~ \$0-outR;
#X obj 314 416 outlet~;
#X obj 413 415 outlet~;
#X obj 526 413 outlet;
#X obj 526 385 pack f f;
#X obj 256 201 hsl 50 10 -100 100 0 1 \$0-setDetune \$0-getDetune detune
-2 -8 0 10 -258113 -1 -1 2300 1;
#X obj 309 201 bng 10 250 50 0 empty empty empty 17 7 0 10 -261234
-1 -1;
#X msg 309 11 0;
#X obj 163 119 cnv 15 15 15 empty empty empty 20 12 0 14 -233017 -66577
0;
#X obj 158 130 cnv 15 15 15 empty empty empty 20 12 0 14 -233017 -66577
0;
#X obj 168 140 cnv 15 15 15 empty empty empty 20 12 0 14 -233017 -66577
0;
#X obj 178 150 cnv 15 15 15 empty empty empty 20 12 0 14 -233017 -66577
0;
#X obj 188 160 cnv 15 15 15 empty empty empty 20 12 0 14 -233017 -66577
0;
#X obj 198 170 cnv 15 15 15 empty empty empty 20 12 0 14 -233017 -66577
0;
#X obj 208 180 cnv 15 15 15 empty empty empty 20 12 0 14 -233017 -66577
0;
#X obj 218 190 cnv 15 15 15 empty empty empty 20 12 0 14 -233017 -66577
0;
#X obj 228 200 cnv 15 15 15 empty empty empty 20 12 0 14 -233017 -66577
0;
#X obj 148 120 cnv 15 15 15 empty empty empty 20 12 0 14 -233017 -66577
0;
#X obj 173 129 cnv 15 15 15 empty empty empty 20 12 0 14 -233017 -66577
0;
#X obj 183 139 cnv 15 15 15 empty empty empty 20 12 0 14 -233017 -66577
0;
#X obj 193 149 cnv 15 15 15 empty empty empty 20 12 0 14 -233017 -66577
0;
#X obj 203 159 cnv 15 15 15 empty empty empty 20 12 0 14 -233017 -66577
0;
#X obj 213 169 cnv 15 15 15 empty empty empty 20 12 0 14 -233017 -66577
0;
#X obj 179 121 cnv 15 15 15 empty empty empty 20 12 0 14 -233017 -66577
0;
#X obj 233 189 cnv 15 15 15 empty empty empty 20 12 0 14 -233017 -66577
0;
#X obj 223 179 cnv 15 15 15 empty empty empty 20 12 0 14 -233017 -66577
0;
#X obj 223 179 cnv 15 15 15 empty empty empty 20 12 0 14 -233017 -66577
0;
#X obj 223 179 cnv 15 15 15 empty empty empty 20 12 0 14 -233017 -66577
0;
#X obj 189 131 cnv 15 15 15 empty empty empty 20 12 0 14 -233017 -66577
0;
#X obj 199 141 cnv 15 15 15 empty empty empty 20 12 0 14 -233017 -66577
0;
#X obj 209 151 cnv 15 15 15 empty empty empty 20 12 0 14 -233017 -66577
0;
#X obj 195 122 cnv 15 15 15 empty empty empty 20 12 0 14 -233017 -66577
0;
#X obj 229 171 cnv 15 15 15 empty empty empty 20 12 0 14 -233017 -66577
0;
#X obj 219 161 cnv 15 15 15 empty empty empty 20 12 0 14 -233017 -66577
0;
#X obj 205 132 cnv 15 15 15 empty empty empty 20 12 0 14 -233017 -66577
0;
#X obj 230 161 cnv 15 15 15 empty empty empty 20 12 0 14 -233017 -66577
0;
#X obj 225 152 cnv 15 15 15 empty empty empty 20 12 0 14 -233017 -66577
0;
#X obj 209 124 cnv 15 15 15 empty empty empty 20 12 0 14 -233017 -66577
0;
#X obj 219 134 cnv 15 15 15 empty empty empty 20 12 0 14 -233017 -66577
0;
#X obj 229 144 cnv 15 15 15 empty empty empty 20 12 0 14 -233017 -66577
0;
#X obj 215 142 cnv 15 15 15 empty empty empty 20 12 0 14 -233017 -66577
0;
#X obj 224 125 cnv 15 15 15 empty empty empty 20 12 0 14 -233017 -66577
0;
#X obj 230 136 cnv 15 15 15 empty empty empty 20 12 0 14 -233017 -66577
0;
#X text 216 227 high;
#X text 133 112 med;
#X text 130 227 low;
#X obj 161 117 comment 0 14 Helvetica ? 0 0 128 128 Tristimulus synthesizer
;
#X connect 8 0 17 0;
#X connect 8 0 37 0;
#X connect 8 1 16 0;
#X connect 8 1 37 1;
#X connect 20 0 22 0;
#X connect 21 0 22 1;
#X connect 22 0 23 0;
#X connect 23 0 8 0;
#X connect 27 0 26 0;
#X connect 29 0 27 0;
#X connect 30 0 26 0;
#X connect 32 0 34 0;
#X connect 33 0 35 0;
#X connect 37 0 36 0;
#X connect 39 0 40 0;
#X connect 40 0 38 0;
#X coords 0 -1 1 1 400 165 1 100 100;
