#N canvas 197 39 549 518 10;
#N canvas 0 22 458 308 (subpatch) 0;
#X array envelope 10000 float 2;
#X coords 0 1 10000 0 400 140 1;
#X restore 22 121 graph;
#X msg 67 -136 \; pd dsp 1;
#X obj 28 -177 bng 15 250 50 0 empty empty empty 0 -6 0 10 -262144
-1 -1;
#X msg 80 -41 0;
#X msg 41 -41 1;
#X obj 73 78 tabwrite~ envelope;
#X obj 148 -179 notein;
#X obj 148 -156 sel 0;
#X obj 41 -4 t f b;
#X obj 152 -131 t b f;
#X obj 196 -88 / 127;
#X obj 12 -201 loadbang;
#X text 92 -203 Hit bang or MIDI key to see current envelope;
#X text 289 -77 Curve Factors;
#X text 236 -45 1 - linear;
#X text 225 -30 > 1 - exponential (fat) curves \, varying with C;
#X floatatom 305 84 5 0 0 0 - - -;
#X text 225 -60 < 1 - "quartic-like" (hollow) curve \, C=-0.214;
#X text 313 66 for [switch~]ing parent;
#X obj 28 -159 t b b b;
#X obj 110 49 multiCurveAdsr 0.98 60 20 50 79 0;
#X floatatom 305 10 3 0 9 2 curve_factor - -;
#X floatatom 272 10 4 0 100 2 R - -;
#X floatatom 206 10 4 0 100 2 D - -;
#X floatatom 174 10 4 0 100 2 A - -;
#X floatatom 239 10 4 0 100 2 S - -;
#X floatatom 142 10 4 0 1 2 Level - -;
#X obj 80 -65 delay 138;
#X floatatom 131 -85 4 0 200 2 hold_time - -;
#X text 105 270 Phil Stone - http://pkstonemusic.com;
#X connect 2 0 19 0;
#X connect 3 0 20 0;
#X connect 4 0 8 0;
#X connect 6 1 7 0;
#X connect 7 0 3 0;
#X connect 7 1 9 0;
#X connect 8 0 20 0;
#X connect 8 1 5 0;
#X connect 9 0 4 0;
#X connect 9 1 10 0;
#X connect 10 0 26 0;
#X connect 11 0 19 0;
#X connect 19 0 4 0;
#X connect 19 1 27 0;
#X connect 19 2 1 0;
#X connect 20 0 5 0;
#X connect 20 1 16 0;
#X connect 21 0 20 6;
#X connect 22 0 20 5;
#X connect 23 0 20 3;
#X connect 24 0 20 2;
#X connect 25 0 20 4;
#X connect 26 0 20 1;
#X connect 27 0 3 0;
#X connect 28 0 27 1;
