#N canvas 166 22 709 310 10;
#X text 44 114 fundfreq \, amplitudes \, detune \, vibfreq \, vibdepth
;
#X msg 43 168 50 40 40 40 50 60 10 10 10 10 30 30 50 30 20 10 30 40
20 10;
#X obj 43 193 unpack f f f f f f f f f f f f f f f f f f f f;
#X obj 43 231 s one;
#X obj 81 231 s two;
#X obj 121 231 s three;
#X obj 175 232 s four;
#X obj 219 232 s five;
#X obj 264 232 s six;
#X obj 302 232 s seven;
#X obj 355 232 s eight;
#X obj 406 232 s nine;
#X obj 450 233 s ten;
#X obj 41 253 s eleven;
#X obj 97 253 s twelve;
#X obj 153 254 s thirteen;
#X obj 221 254 s fourteen;
#X obj 289 255 s fifteen;
#X obj 352 256 s sixteen;
#X obj 414 257 s seventeen;
#X obj 488 257 s eighteen;
#X obj 557 256 s nineteen;
#X obj 625 255 s twenty;
#X obj 132 81 s fundfreq;
#X floatatom 132 54 5 0 0 0 - - -;
#X msg 43 146 90 10 10 20 20 50 90 90 90 90 90 90 20 40 50 60 70 80
10 10;
#X obj 204 82 s vibfreq;
#X obj 267 81 s vibdepth;
#X floatatom 204 56 5 0 0 0 - - -;
#X floatatom 267 53 5 0 0 0 - - -;
#X text 299 51 7000;
#X msg 204 34 5;
#X msg 267 33 100;
#N canvas 72 130 1145 598 oscillatorbank 0;
#X obj 985 41 r vibfreq;
#X obj 1057 41 r vibdepth;
#X obj 985 71 sig~;
#X obj 985 105 osc~;
#X obj 985 131 *~;
#X obj 985 159 +~ 1;
#X obj 1057 69 / 7000;
#X obj 985 184 s~ vib;
#X obj 33 285 r seven;
#X obj 29 15 r one;
#X obj 28 58 r two;
#X obj 29 103 r three;
#X obj 30 148 r four;
#X obj 31 192 r five;
#X obj 32 239 r six;
#X obj 34 332 r eight;
#X obj 33 376 r nine;
#X obj 34 423 r ten;
#X obj 168 17 r eleven;
#X obj 167 60 r twelve;
#X obj 168 105 r thirteen;
#X obj 169 150 r fourteen;
#X obj 170 194 r fifteen;
#X obj 171 241 r sixteen;
#X obj 172 287 r seventeen;
#X obj 173 334 r eighteen;
#X obj 172 378 r nineteen;
#X obj 173 425 r twenty;
#X obj 108 6 r detune;
#X obj 305 13 r detune;
#X obj 168 38 slg.tripartial~ 11;
#X obj 28 79 slg.tripartial~ 2;
#X obj 29 36 slg.tripartial~ 1;
#X obj 33 306 slg.tripartial~ 7;
#X obj 29 124 slg.tripartial~ 3;
#X obj 30 169 slg.tripartial~ 4;
#X obj 31 213 slg.tripartial~ 5;
#X obj 32 260 slg.tripartial~ 6;
#X obj 34 353 slg.tripartial~ 8;
#X obj 33 397 slg.tripartial~ 9;
#X obj 34 444 slg.tripartial~ 10;
#X obj 167 81 slg.tripartial~ 12;
#X obj 168 126 slg.tripartial~ 13;
#X obj 169 171 slg.tripartial~ 14;
#X obj 170 215 slg.tripartial~ 15;
#X obj 171 262 slg.tripartial~ 16;
#X obj 172 308 slg.tripartial~ 17;
#X obj 173 355 slg.tripartial~ 18;
#X obj 172 400 slg.tripartial~ 19;
#X obj 173 446 slg.tripartial~ 20;
#X connect 0 0 2 0;
#X connect 1 0 6 0;
#X connect 2 0 3 0;
#X connect 3 0 4 0;
#X connect 4 0 5 0;
#X connect 5 0 7 0;
#X connect 6 0 4 1;
#X connect 8 0 33 0;
#X connect 9 0 32 0;
#X connect 10 0 31 0;
#X connect 11 0 34 0;
#X connect 12 0 35 0;
#X connect 13 0 36 0;
#X connect 14 0 37 0;
#X connect 15 0 38 0;
#X connect 16 0 39 0;
#X connect 17 0 40 0;
#X connect 18 0 30 0;
#X connect 19 0 41 0;
#X connect 20 0 42 0;
#X connect 21 0 43 0;
#X connect 22 0 44 0;
#X connect 23 0 45 0;
#X connect 24 0 46 0;
#X connect 25 0 47 0;
#X connect 26 0 48 0;
#X connect 27 0 49 0;
#X connect 28 0 31 1;
#X connect 28 0 32 1;
#X connect 28 0 33 1;
#X connect 28 0 34 1;
#X connect 28 0 35 1;
#X connect 28 0 36 1;
#X connect 28 0 37 1;
#X connect 28 0 38 1;
#X connect 28 0 39 1;
#X connect 28 0 40 1;
#X connect 29 0 30 1;
#X connect 29 0 41 1;
#X connect 29 0 42 1;
#X connect 29 0 43 1;
#X connect 29 0 44 1;
#X connect 29 0 45 1;
#X connect 29 0 46 1;
#X connect 29 0 47 1;
#X connect 29 0 48 1;
#X connect 29 0 49 1;
#X restore 456 151 pd oscillatorbank;
#X connect 1 0 2 0;
#X connect 2 0 3 0;
#X connect 2 1 4 0;
#X connect 2 2 5 0;
#X connect 2 3 6 0;
#X connect 2 4 7 0;
#X connect 2 5 8 0;
#X connect 2 6 9 0;
#X connect 2 7 10 0;
#X connect 2 8 11 0;
#X connect 2 9 12 0;
#X connect 2 10 13 0;
#X connect 2 11 14 0;
#X connect 2 12 15 0;
#X connect 2 13 16 0;
#X connect 2 14 17 0;
#X connect 2 15 18 0;
#X connect 2 16 19 0;
#X connect 2 17 20 0;
#X connect 2 18 21 0;
#X connect 2 19 22 0;
#X connect 24 0 23 0;
#X connect 25 0 2 0;
#X connect 28 0 26 0;
#X connect 29 0 27 0;
#X connect 31 0 28 0;
#X connect 32 0 29 0;
