#N canvas 959 72 320 205 10;
#X obj 32 115 outlet~;
#X obj 102 114 outlet~;
#X obj 32 47 inlet;
#N canvas 0 22 450 300 \$0-instr 0;
#X obj 108 122 osc~;
#X obj 108 92 mtof;
#X obj 108 148 *~ 1;
#X obj 157 108 maxlib/scale 0 127 0 1;
#X obj 108 60 unpack f f;
#X obj 108 23 inlet;
#X obj 110 184 outlet~;
#X obj 168 186 outlet~;
#X obj 246 21 inlet;
#X connect 0 0 2 0;
#X connect 1 0 0 0;
#X connect 2 0 6 0;
#X connect 2 0 7 0;
#X connect 3 0 2 1;
#X connect 4 0 1 0;
#X connect 4 1 3 0;
#X connect 5 0 4 0;
#X restore 32 81 pd \$0-instr;
#X obj 95 50 inlet;
#X connect 2 0 3 0;
#X connect 3 0 0 0;
#X connect 3 1 1 0;
#X connect 4 0 3 1;
