#N canvas 0 22 450 300 10;
#X obj 182 121 line;
#N canvas 0 22 719 476 phasorbank 0;
#X obj 217 274 *~ 0.0125;
#X obj 126 220 phasor~;
#X obj 194 220 phasor~;
#X obj 242 219 phasor~;
#X obj 301 219 phasor~;
#X obj 358 219 phasor~;
#X obj 417 219 phasor~;
#X obj 474 218 phasor~;
#X obj 533 218 phasor~;
#X obj 143 158 *;
#X obj 211 183 *;
#X obj 244 183 *;
#X obj 276 183 *;
#X obj 309 183 *;
#X obj 341 182 *;
#X obj 374 183 *;
#X obj 406 183 *;
#X obj 162 106 * 1;
#X obj 327 108 * 1;
#X obj 165 282 * 2;
#X obj 218 301 lop~ 1000;
#X obj 218 325 hip~ 20;
#X obj 215 368 outlet~;
#X obj 185 50 inlet;
#X obj 185 78 unpack f f;
#X connect 0 0 20 0;
#X connect 1 0 0 0;
#X connect 2 0 0 0;
#X connect 3 0 0 0;
#X connect 4 0 0 0;
#X connect 5 0 0 0;
#X connect 6 0 0 0;
#X connect 7 0 0 0;
#X connect 8 0 0 0;
#X connect 9 0 1 0;
#X connect 9 0 10 0;
#X connect 10 0 2 0;
#X connect 10 0 11 0;
#X connect 11 0 3 0;
#X connect 11 0 12 0;
#X connect 12 0 4 0;
#X connect 12 0 13 0;
#X connect 13 0 5 0;
#X connect 13 0 14 0;
#X connect 14 0 6 0;
#X connect 14 0 15 0;
#X connect 15 0 7 0;
#X connect 15 0 16 0;
#X connect 16 0 8 0;
#X connect 17 0 9 0;
#X connect 18 0 9 1;
#X connect 18 0 10 1;
#X connect 18 0 11 1;
#X connect 18 0 12 1;
#X connect 18 0 13 1;
#X connect 18 0 14 1;
#X connect 18 0 15 1;
#X connect 18 0 16 1;
#X connect 19 0 20 1;
#X connect 20 0 21 0;
#X connect 21 0 22 0;
#X connect 23 0 24 0;
#X connect 24 0 17 0;
#X connect 24 0 19 0;
#X connect 24 1 18 0;
#X restore 161 197 pd phasorbank;
#X obj 162 174 pack 1 2;
#X obj 182 148 t;
#X obj 161 229 outlet~;
#X obj 132 70 inlet;
#X obj 183 69 inlet;
#X msg 183 100 \$1 2;
#X connect 0 0 2 1;
#X connect 0 0 3 0;
#X connect 1 0 4 0;
#X connect 2 0 1 0;
#X connect 3 0 2 0;
#X connect 5 0 2 0;
#X connect 6 0 7 0;
#X connect 7 0 0 0;
