#N canvas 479 68 396 562 10;
#X obj -63 246 slg.spectralsynth20~;
#X obj -61 478 ezdac~;
#X obj 43 121 slg.midiseq;
#X obj -62 370 cross-delay-gop;
#X msg -39 74 60;
#X msg -6 74 64;
#X msg 26 72 66;
#X msg -71 72 30;
#X connect 0 0 3 0;
#X connect 0 0 3 1;
#X connect 3 0 1 0;
#X connect 3 1 1 1;
#X connect 4 0 0 1;
#X connect 5 0 0 1;
#X connect 6 0 0 1;
#X connect 7 0 0 1;
