#N canvas 827 461 450 300 10;
#X obj 132 105 slg.paf~;
#X floatatom 129 50 5 0 0 0 - - -;
#X floatatom 168 49 5 0 0 0 - - -;
#X floatatom 205 48 5 0 0 0 - - -;
#X floatatom 242 46 5 0 0 0 - - -;
#X floatatom 281 46 5 0 0 0 - - -;
#X obj 130 155 ezdac~;
#X connect 0 0 6 0;
#X connect 0 0 6 1;
#X connect 1 0 0 0;
#X connect 2 0 0 1;
#X connect 3 0 0 2;
#X connect 4 0 0 3;
#X connect 5 0 0 4;
