#N canvas 261 308 517 495 10;
#X obj 124 282 ezdac~;
#N canvas 68 33 466 436 filterednoise 0;
#X obj -21 103 noise~;
#X obj -22 199 bp~ 100 1;
#X obj 288 129 / 100;
#X obj 139 130 * 3;
#X floatatom 148 156 5 0 0 0 - - -;
#X obj 114 268 *~ 0;
#X obj 114 201 bp~ 300 1;
#X obj 135 247 / 127;
#X obj -22 267 *~ 0;
#X obj -1 247 / 127;
#X obj 114 335 *~;
#X obj 309 317 / 100;
#X floatatom 309 344 5 0 0 0 - - -;
#X obj 330 276 *~ 0;
#X obj 351 255 / 127;
#X obj 330 209 bp~ 700 1;
#X obj 355 127 * 9;
#X obj 364 154 nbx 5 14 -1e+37 1e+37 0 0 empty empty empty 0 -6 0 10
-262144 -1 -1 153 256;
#X text -20 -13 fundfreq \, qfactor \, leveloff \, levelon \, natt
\, ndec \, nsus \, nrel;
#X floatatom 161 277 5 0 0 0 - - -;
#X floatatom 373 281 5 0 0 0 - - -;
#X floatatom 34 272 5 0 0 0 - - -;
#X obj 114 365 outlet~;
#X obj 167 25 inlet;
#X obj 139 102 r \$0-fund;
#X obj 355 97 r \$0-fund;
#X obj 167 76 s \$0-fund;
#X obj 167 50 route f0 q low mid high noise;
#X connect 0 0 1 0;
#X connect 0 0 6 0;
#X connect 0 0 15 0;
#X connect 1 0 8 0;
#X connect 2 0 1 2;
#X connect 2 0 6 2;
#X connect 2 0 15 2;
#X connect 3 0 4 0;
#X connect 3 0 6 1;
#X connect 5 0 10 0;
#X connect 6 0 5 0;
#X connect 7 0 5 1;
#X connect 7 0 19 0;
#X connect 8 0 10 0;
#X connect 9 0 8 1;
#X connect 9 0 21 0;
#X connect 10 0 22 0;
#X connect 11 0 10 1;
#X connect 11 0 12 0;
#X connect 13 0 10 0;
#X connect 14 0 13 1;
#X connect 14 0 20 0;
#X connect 15 0 13 0;
#X connect 16 0 15 1;
#X connect 16 0 17 0;
#X connect 23 0 27 0;
#X connect 24 0 3 0;
#X connect 24 0 1 1;
#X connect 25 0 16 0;
#X connect 27 0 26 0;
#X connect 27 1 2 0;
#X connect 27 2 9 0;
#X connect 27 3 7 0;
#X connect 27 4 14 0;
#X connect 27 5 11 0;
#X restore 124 241 pd filterednoise;
#X msg 190 41 f0 \$1;
#X msg 119 39 noise \$1;
#X msg 241 38 q \$1;
#X floatatom 119 -1 5 0 0 0 - - -;
#X floatatom 190 -5 5 0 0 0 - - -;
#X floatatom 241 -4 5 0 0 0 - - -;
#X msg 294 41 low \$1;
#X msg 343 43 mid \$1;
#X msg 392 44 high \$1;
#X floatatom 294 -1 5 0 0 0 - - -;
#X floatatom 343 0 5 0 0 0 - - -;
#X floatatom 392 2 5 0 0 0 - - -;
#X connect 1 0 0 0;
#X connect 1 0 0 1;
#X connect 2 0 1 0;
#X connect 3 0 1 0;
#X connect 4 0 1 0;
#X connect 5 0 3 0;
#X connect 6 0 2 0;
#X connect 7 0 4 0;
#X connect 8 0 1 0;
#X connect 9 0 1 0;
#X connect 10 0 1 0;
#X connect 11 0 8 0;
#X connect 12 0 9 0;
#X connect 13 0 10 0;
