#N canvas 255 25 780 421 10;
#X text 166 -203 pr.;
#X text 171 -272 ch.;
#X text 321 -253 modulation;
#X text 437 -253 vol;
#X text 530 -253 pan;
#X text 531 -135 pitch bend;
#X obj 319 -234 r \$0-getModulation;
#X obj 437 -235 r \$0-getVolume;
#X obj 530 -235 r \$0-getPan;
#X obj 533 -117 r \$0-getPitchBend;
#X obj 164 -185 r \$0-getProgramChange;
#X obj 169 -254 r \$0-getMidiChannel;
#X text 613 -259 portamento time;
#X obj 321 -306 inlet;
#X obj 533 -307 inlet;
#N canvas 116 126 945 327 direct-ctl 0;
#X obj 42 112 inlet;
#X text 44 158 pr.;
#X text 179 158 ch.;
#X text 301 158 modulation;
#X text 417 158 vol;
#X text 510 158 pan;
#X text 584 157 pitch bend;
#X obj 42 176 s \$0-getProgramChange;
#X obj 177 176 s \$0-getMidiChannel;
#X obj 299 177 s \$0-getModulation;
#X obj 417 176 s \$0-getVolume;
#X obj 510 176 s \$0-getPan;
#X obj 586 175 s \$0-getPitchBend;
#X obj 269 98 r pc\$1;
#X obj 313 98 r channel\$1;
#X obj 388 97 r mod\$1;
#X obj 440 97 r vol\$1;
#X obj 545 96 r bend\$1;
#X obj 491 96 r pan\$1;
#X obj 706 174 s \$0-getPortamento;
#X obj 42 139 route pc channel mod vol pan bend portamento;
#X obj 635 98 r portamento\$1;
#X connect 0 0 20 0;
#X connect 13 0 7 0;
#X connect 15 0 9 0;
#X connect 16 0 10 0;
#X connect 17 0 12 0;
#X connect 18 0 11 0;
#X connect 20 0 7 0;
#X connect 20 2 9 0;
#X connect 20 3 10 0;
#X connect 20 4 11 0;
#X connect 20 5 12 0;
#X connect 20 6 19 0;
#X connect 21 0 19 0;
#X restore 321 -281 pd direct-ctl \$1;
#N canvas 540 293 828 208 remote-ctl 0;
#X obj 29 -100 inlet;
#X obj 29 -70 OSCroute /\$1;
#X obj 29 34 s \$0-getProgramChange;
#X obj 164 34 s \$0-getMidiChannel;
#X obj 286 35 s \$0-getModulation;
#X obj 404 34 s \$0-getVolume;
#X obj 497 34 s \$0-getPan;
#X obj 573 33 s \$0-getPitchBend;
#X obj 29 -41 OSCroute /pc /channel /mod /vol /pan /bend /portamento
;
#X obj 684 31 s \$0-getPortamento;
#X connect 0 0 1 0;
#X connect 1 0 8 0;
#X connect 8 0 2 0;
#X connect 8 2 4 0;
#X connect 8 3 5 0;
#X connect 8 4 6 0;
#X connect 8 5 7 0;
#X connect 8 6 9 0;
#X restore 533 -281 pd remote-ctl \$1;
#N canvas 334 177 768 487 default 0;
#X msg 13 97 pc \$1;
#X msg 61 97 channel \$1;
#X msg 135 98 mod \$1;
#X msg 185 99 vol \$1;
#X msg 235 99 pan \$1;
#X msg 287 98 bend \$1;
#X floatatom 61 68 5 0 0 0 - - -;
#X floatatom 134 68 5 0 0 0 - - -;
#X floatatom 186 67 5 0 0 0 - - -;
#X floatatom 235 66 5 0 0 0 - - -;
#X floatatom 287 65 5 0 0 0 - - -;
#X obj 135 138 outlet;
#X obj 13 -4 loadbang;
#X obj 581 44 s \$0-iiwu;
#X obj 581 -41 openpanel;
#X obj 581 -61 bng 15 250 50 0 empty empty empty 0 -6 0 8 -260818 -1
-1;
#X msg 581 -19 load \$1;
#X msg 349 106 load \$1;
#X obj 640 -12 print;
#X msg 350 80 load /Users/Shared/Musebot/media/soundfont/fluidr3.sf2
;
#X obj 348 134 s \$0-iiwu;
#X connect 0 0 11 0;
#X connect 1 0 11 0;
#X connect 2 0 11 0;
#X connect 3 0 11 0;
#X connect 4 0 11 0;
#X connect 5 0 11 0;
#X connect 6 0 1 0;
#X connect 7 0 2 0;
#X connect 8 0 3 0;
#X connect 9 0 4 0;
#X connect 10 0 5 0;
#X connect 12 0 19 0;
#X connect 14 0 16 0;
#X connect 14 0 18 0;
#X connect 15 0 14 0;
#X connect 16 0 13 0;
#X connect 17 0 20 0;
#X connect 19 0 17 0;
#X restore 358 -306 pd default;
#X obj 12 16 fluid~;
#X obj 530 -179 s \$0-iiwu;
#X obj 533 -67 s \$0-iiwu;
#X obj 164 -68 s \$0-iiwu;
#X msg 282 15 bank 1 \$1;
#X floatatom 282 -4 5 0 0 0 - - -;
#X text 282 36 bank select;
#X obj 12 44 outlet~;
#X obj 63 45 outlet~;
#X obj 12 -16 r \$0-iiwu;
#X msg 164 -91 p \$1 \$2;
#X obj 616 -239 r \$0-getPortamento;
#X obj 164 -115 pack f f;
#X msg 533 -89 bend \$1 \$2;
#X obj 209 -138 - 1;
#X obj 172 -286 s \$0-getMidiChannel;
#X obj 164 -163 unpack f f;
#X msg 530 -207 cc \$1 10 \$2;
#X obj 437 -178 s \$0-iiwu;
#X msg 437 -206 cc \$1 7 \$2;
#X obj 616 -182 s \$0-iiwu;
#X msg 616 -210 cc \$1 5 \$2;
#X obj 319 -176 s \$0-iiwu;
#X msg 319 -204 cc \$1 5 \$2;
#X obj 240 -63 prepend set;
#X msg 240 -40 p 1 0;
#X obj 12 -249 unpack f f f;
#X obj 12 -284 inlet;
#X obj 12 -204 pack f f f;
#X obj 12 -226 bng 15 250 50 0 empty empty empty 17 7 0 10 -262144
-1 -1;
#X msg 269 -110 prog 1 1;
#X msg 334 -110 prog 2 9;
#X connect 6 0 41 0;
#X connect 7 0 37 0;
#X connect 8 0 35 0;
#X connect 9 0 31 0;
#X connect 10 0 34 0;
#X connect 13 0 15 0;
#X connect 14 0 16 0;
#X connect 17 0 15 0;
#X connect 18 0 25 0;
#X connect 18 1 26 0;
#X connect 23 0 22 0;
#X connect 27 0 18 0;
#X connect 28 0 21 0;
#X connect 28 0 42 0;
#X connect 29 0 39 0;
#X connect 30 0 28 0;
#X connect 31 0 20 0;
#X connect 32 0 30 1;
#X connect 34 0 30 0;
#X connect 34 1 32 0;
#X connect 35 0 19 0;
#X connect 37 0 36 0;
#X connect 39 0 38 0;
#X connect 41 0 40 0;
#X connect 42 0 43 0;
#X connect 44 0 46 1;
#X connect 44 0 47 0;
#X connect 44 1 46 2;
#X connect 44 2 46 0;
#X connect 45 0 44 0;
#X connect 46 0 18 0;
#X connect 47 0 46 0;
#X connect 48 0 21 0;
#X connect 49 0 21 0;
