#N canvas 220 586 421 172 10;
#X msg 94 40 57 90;
#X msg 53 40 70 80;
#X msg 16 40 stop;
#X text 209 62 midi file;
#X obj 14 15 inlet;
#X obj 94 99 polypoly \$1 1 slg.trisynth~;
#X obj 173 38 inlet;
#X obj 94 133 outlet~;
#X obj 253 131 outlet~;
#N canvas 229 444 386 401 osc-ctl 1;
#X obj 37 24 inlet;
#X obj 133 375 outlet;
#X msg 196 184 q \$1;
#X msg 196 209 f \$1;
#X msg 197 231 depth \$1;
#X msg 198 254 even \$1;
#X msg 198 277 decay \$1;
#X msg 195 162 noise \$1;
#X msg 200 302 detune \$1;
#X msg 49 328 f0 \$1;
#X msg 40 195 a \$1;
#X msg 44 224 d \$1;
#X msg 45 252 s \$1;
#X msg 46 278 r \$1;
#X msg 47 303 curve \$1;
#X msg 38 169 x \$1;
#X msg 49 140 y \$1;
#X obj 37 82 OSCroute /x /y /attack /decay /sustain /release /curve
/f0 /noise /q /vibf /vibdepth /evenodd /decay /detune;
#X obj 37 53 OSCroute /\$2;
#X connect 0 0 18 0;
#X connect 2 0 1 0;
#X connect 3 0 1 0;
#X connect 4 0 1 0;
#X connect 5 0 1 0;
#X connect 6 0 1 0;
#X connect 7 0 1 0;
#X connect 8 0 1 0;
#X connect 9 0 1 0;
#X connect 10 0 1 0;
#X connect 11 0 1 0;
#X connect 12 0 1 0;
#X connect 13 0 1 0;
#X connect 14 0 1 0;
#X connect 15 0 1 0;
#X connect 16 0 1 0;
#X connect 17 0 15 0;
#X connect 17 1 16 0;
#X connect 17 2 10 0;
#X connect 17 3 11 0;
#X connect 17 4 12 0;
#X connect 17 5 13 0;
#X connect 17 6 14 0;
#X connect 17 7 9 0;
#X connect 17 8 7 0;
#X connect 17 9 2 0;
#X connect 17 10 3 0;
#X connect 17 11 4 0;
#X connect 17 12 5 0;
#X connect 17 13 6 0;
#X connect 17 14 8 0;
#X connect 18 0 17 0;
#X restore 301 69 pd osc-ctl;
#X obj 301 41 inlet;
#N canvas 1020 283 377 450 default 0;
#X msg 221 174 q \$1;
#X msg 224 199 f \$1;
#X msg 225 226 depth \$1;
#X msg 228 251 even \$1;
#X msg 228 280 decay \$1;
#X msg 217 148 noise \$1;
#X msg 225 310 detune \$1;
#X msg 103 324 f0 \$1;
#X msg 94 191 a \$1;
#X msg 98 220 d \$1;
#X msg 99 248 s \$1;
#X msg 99 274 r \$1;
#X msg 101 299 curve \$1;
#X msg 98 166 x \$1;
#X msg 99 137 y \$1;
#X obj 186 359 outlet;
#X obj 93 -21 loadbang;
#X msg 108 63 64;
#X msg 307 163 5;
#X msg 308 192 100;
#X msg 309 220 100;
#X msg 312 252 0.9;
#X msg 310 288 0;
#X msg 46 51 3;
#X msg 41 75 1000;
#X msg 34 99 5;
#X msg 28 122 100;
#X floatatom 120 106 5 0 0 0 - - -;
#X connect 0 0 15 0;
#X connect 1 0 15 0;
#X connect 2 0 15 0;
#X connect 3 0 15 0;
#X connect 4 0 15 0;
#X connect 5 0 15 0;
#X connect 6 0 15 0;
#X connect 7 0 15 0;
#X connect 8 0 15 0;
#X connect 9 0 15 0;
#X connect 10 0 15 0;
#X connect 11 0 15 0;
#X connect 12 0 15 0;
#X connect 13 0 15 0;
#X connect 14 0 15 0;
#X connect 16 0 17 0;
#X connect 16 0 23 0;
#X connect 16 0 24 0;
#X connect 16 0 25 0;
#X connect 16 0 26 0;
#X connect 16 0 18 0;
#X connect 16 0 19 0;
#X connect 16 0 20 0;
#X connect 16 0 21 0;
#X connect 16 0 22 0;
#X connect 17 0 14 0;
#X connect 17 0 13 0;
#X connect 18 0 1 0;
#X connect 19 0 2 0;
#X connect 20 0 3 0;
#X connect 21 0 4 0;
#X connect 22 0 6 0;
#X connect 23 0 8 0;
#X connect 24 0 9 0;
#X connect 25 0 10 0;
#X connect 26 0 11 0;
#X connect 27 0 14 0;
#X restore 218 38 pd default;
#X connect 0 0 5 0;
#X connect 1 0 5 0;
#X connect 2 0 5 0;
#X connect 4 0 5 0;
#X connect 5 0 7 0;
#X connect 5 1 8 0;
#X connect 6 0 5 1;
#X connect 9 0 5 1;
#X connect 10 0 9 0;
#X connect 11 0 5 1;
