#N canvas 348 30 293 395 10;
#X msg 10 155 stop;
#X obj 46 311 ezdac~;
#N canvas 660 145 485 333 direct-ctl 0;
#X msg 198 78 q \$1;
#X msg 201 103 f \$1;
#X msg 202 125 depth \$1;
#X msg 203 148 even \$1;
#X msg 203 171 decay \$1;
#X msg 197 56 noise \$1;
#X msg 205 196 detune \$1;
#X msg 116 94 a \$1;
#X msg 120 123 d \$1;
#X msg 121 151 s \$1;
#X msg 122 177 r \$1;
#X msg 123 202 curve \$1;
#X msg 114 68 x \$1;
#X msg 115 39 y \$1;
#X obj 155 268 outlet;
#X obj 317 50 vsl 10 40 1 5000 0 1 \$0-rel \$0-r-rel R 4 48 0 8 -258113
-1 -1 400 1;
#X obj 278 50 vsl 10 40 1 1000 0 1 \$0-atk \$0-r-atk A 4 48 0 8 -258113
-1 -1 100 1;
#X obj 304 50 vsl 10 40 0 100 0 1 \$0-sus \$0-r-sus S 4 48 0 8 -258113
-1 -1 700 1;
#X obj 289 50 vsl 10 40 1 9999 0 1 \$0-dec \$0-r-dec D 4 48 0 8 -258113
-1 -1 500 1;
#X obj 25 18 grid grid1 50 0 128 50 0 128 1 1 1 10 10 41 46;
#X msg 344 137 adsr \$1 \$2 \$3 \$4;
#X obj 383 50 vsl 10 40 1 5000 0 1 \$0-rel \$0-r-rel R 4 48 0 8 -258113
-1 -1 200 1;
#X obj 344 50 vsl 10 40 1 1000 0 1 \$0-atk \$0-r-atk A 4 48 0 8 -258113
-1 -1 1200 1;
#X obj 370 50 vsl 10 40 0 100 0 1 \$0-sus \$0-r-sus S 4 48 0 8 -258113
-1 -1 900 1;
#X obj 357 50 vsl 10 40 1 9999 0 1 \$0-dec \$0-r-dec D 4 48 0 8 -258113
-1 -1 1800 1;
#X obj 344 113 pack f f f f;
#X connect 0 0 14 0;
#X connect 1 0 14 0;
#X connect 2 0 14 0;
#X connect 3 0 14 0;
#X connect 4 0 14 0;
#X connect 5 0 14 0;
#X connect 6 0 14 0;
#X connect 7 0 14 0;
#X connect 8 0 14 0;
#X connect 9 0 14 0;
#X connect 10 0 14 0;
#X connect 11 0 14 0;
#X connect 12 0 14 0;
#X connect 13 0 14 0;
#X connect 15 0 10 0;
#X connect 16 0 7 0;
#X connect 17 0 9 0;
#X connect 18 0 8 0;
#X connect 19 0 13 0;
#X connect 19 1 12 0;
#X connect 20 0 14 0;
#X connect 21 0 25 3;
#X connect 22 0 25 0;
#X connect 23 0 25 2;
#X connect 24 0 25 1;
#X connect 25 0 20 0;
#X restore 124 133 pd direct-ctl;
#X obj 45 186 slg.trisynthpoly~ 12 synth1;
#X obj 203 53 s \$0-osc;
#X obj 204 158 r \$0-osc;
#X obj 203 32 dumpOSC 3333;
#X obj 45 156 pack f f;
#X obj 45 214 slg.freeverb~;
#X obj 45 52 metro 1000;
#X obj 45 27 tgl 15 0 empty empty empty 17 7 0 10 -262144 -1 -1 0 1
;
#X obj 45 107 makenote 90 800;
#X msg 45 84 30 \, 60;
#X connect 0 0 3 0;
#X connect 2 0 3 1;
#X connect 3 0 8 0;
#X connect 3 1 8 1;
#X connect 5 0 3 2;
#X connect 6 0 4 0;
#X connect 7 0 3 0;
#X connect 8 0 1 0;
#X connect 8 1 1 1;
#X connect 9 0 12 0;
#X connect 10 0 9 0;
#X connect 11 0 7 0;
#X connect 11 1 7 1;
#X connect 12 0 11 0;
