#N canvas 518 99 389 466 10;
#X obj 135 281 osc~ 440;
#X obj 135 305 *~;
#X obj 200 212 hsl 128 15 0 10000 0 0 empty empty pitch -2 -6 0 8 -241291
-1 -1 0 1;
#X obj 116 147 random 100;
#X obj 116 170 moses 50;
#X obj 200 179 hsl 128 15 0 3000 0 0 empty empty attack -2 -6 0 8 -260818
-1 -1 0 1;
#X obj 201 147 hsl 128 15 0 100 0 0 empty empty amount -2 -6 0 8 -258699
-1 -1 0 1;
#X obj 44 236 ead~ 23 100;
#X msg 116 193 bang;
#X text 50 218 amplitude;
#X text 137 219 pitch;
#X obj 135 236 ead~ 400 10;
#X obj 135 259 *~ 1500;
#X obj 137 346 hip~ 40;
#X obj 136 324 *~ 0.03;
#X obj 18 58 f 0;
#X obj 49 58 + 1;
#X obj 18 83 mod 200;
#X obj 18 110 sel 29 37 47 67 89 113 157 197;
#X obj 18 9 tgl 15 0 empty empty empty 0 -6 0 8 -262144 -1 -1 1 1;
#X obj 18 32 metro 15;
#X obj 136 377 dac~ 5 6 7 8;
#X connect 0 0 1 0;
#X connect 1 0 14 0;
#X connect 2 0 12 1;
#X connect 3 0 4 0;
#X connect 4 0 8 0;
#X connect 5 0 11 1;
#X connect 6 0 4 1;
#X connect 7 0 1 1;
#X connect 8 0 7 0;
#X connect 8 0 11 0;
#X connect 11 0 12 0;
#X connect 12 0 0 0;
#X connect 13 0 21 0;
#X connect 13 0 21 1;
#X connect 13 0 21 2;
#X connect 13 0 21 3;
#X connect 14 0 13 0;
#X connect 15 0 16 0;
#X connect 15 0 17 0;
#X connect 16 0 15 1;
#X connect 17 0 18 0;
#X connect 18 0 3 0;
#X connect 18 1 3 0;
#X connect 18 2 3 0;
#X connect 18 3 3 0;
#X connect 18 4 3 0;
#X connect 18 5 3 0;
#X connect 18 6 3 0;
#X connect 18 7 3 0;
#X connect 19 0 20 0;
#X connect 20 0 15 0;
