#N canvas 399 22 731 642 10;
#X obj 342 25 r hub;
#X obj 342 52 * 768;
#X obj 250 70 metro;
#X obj 250 100 random 8;
#X floatatom 250 128 5 0 0 0 - - -;
#X obj 250 153 hradio 20 1 0 8 empty empty empty 0 -6 0 8 -262144 -1
-1 4;
#N canvas 442 66 644 601 presets 0;
#X obj 40 13 inlet;
#X obj 40 45 pack f \$0;
#X obj 41 500 r \$0-preset01;
#X obj 147 500 r \$0-preset02;
#X obj 264 500 r \$0-preset03;
#X obj 386 500 r \$0-preset04;
#X msg 78 250 \; \$1-preset01 3 \; \$1-preset02 12;
#X obj 40 73 route 0 1 2 3 4 5 6 7;
#X obj 41 531 print ..1;
#X obj 147 531 print ..2;
#X obj 264 531 print ..3;
#X obj 386 531 print ..4;
#X msg 40 374 \; \$1-preset01 9 \; \$1-preset02 2 \; \$1-preset03 18
178.44 0 256.96 0.75 71.37 2.63 271.23 0 \; \$1-preset04 0.36 71.38
0.19 395.42 0.02 311.2 0;
#X msg 57 306 \; \$1-preset03 7.5 320.78 0 456.22 0 \; \$1-preset04
0.36 42.77 0.16 423.43 0.02 310.8 0;
#X msg 200 191 \; \$1-preset03 7.5 64.16 1.88 256.62 0 456.22 0;
#X msg 202 141 \; \$1-preset04 0.36 121.18 0 345.02 0.02 310.8 0;
#X msg 197 247 \; \$1-preset04 0.41 64.16 0.16 121.18 0 280.86 0.02
310.8 0;
#X obj 468 365 f \$0;
#X msg 468 402 \; \$1-preset01 3 \; \$1-preset02 12;
#X text 208 71 fmkik presets;
#X obj 468 328 r strtbang-4;
#X connect 0 0 1 0;
#X connect 1 0 7 0;
#X connect 7 0 12 0;
#X connect 7 1 6 0;
#X connect 7 1 13 0;
#X connect 7 2 6 0;
#X connect 7 2 14 0;
#X connect 7 2 15 0;
#X connect 7 3 6 0;
#X connect 7 3 14 0;
#X connect 7 3 16 0;
#X connect 7 4 6 0;
#X connect 7 4 14 0;
#X connect 7 4 15 0;
#X connect 7 5 6 0;
#X connect 7 5 14 0;
#X connect 7 5 16 0;
#X connect 7 6 6 0;
#X connect 7 6 14 0;
#X connect 7 6 16 0;
#X connect 7 7 6 0;
#X connect 7 7 14 0;
#X connect 7 7 15 0;
#X connect 17 0 18 0;
#X connect 20 0 17 0;
#X restore 250 188 pd presets;
#X floatatom -142 285 5 0 0 0 - - -;
#X obj -142 255 r \$0-preset01;
#X obj -142 314 sig~;
#X floatatom -35 285 5 0 0 0 - - -;
#X obj -35 314 sig~;
#X obj -35 255 r \$0-preset02;
#X obj -140 388 *~;
#X text -109 314 carrier;
#N canvas 613 22 541 478 functions 0;
#X obj 117 227 outlet;
#X obj 280 227 outlet;
#X text 225 213 fmod;
#X text 402 213 amp;
#X obj 183 -134 * 7.77;
#X floatatom 183 -107 5 0 0 0 - - -;
#X text 225 -107 dur;
#X obj 119 105 envgen 150 100 1 0  ;
#X msg 183 -83 duration \$1;
#X obj 282 105 envgen 150 100 1 0  ;
#X obj 116 -79 bng 15 250 50 0 empty empty empty 0 -6 0 8 -262144 -1
-1;
#X text 457 143 fmkik;
#X obj 116 -115 inlet;
#X obj 183 -199 inlet;
#X obj 290 -135 inlet;
#X obj 413 -137 inlet;
#X connect 4 0 5 0;
#X connect 5 0 8 0;
#X connect 7 0 0 0;
#X connect 8 0 7 0;
#X connect 8 0 9 0;
#X connect 9 0 1 0;
#X connect 10 0 7 0;
#X connect 10 0 9 0;
#X connect 12 0 10 0;
#X connect 13 0 4 0;
#X connect 14 0 7 0;
#X connect 15 0 9 0;
#X coords 0 0 1 1 400 125 0;
#X restore 50 180 pd functions;
#X obj 150 370 line~;
#X obj 50 256 line~;
#X obj -141 347 simpleFM~ ---------------------;
#X obj 250 25 r on.off-30;
#X obj 50 148 r kick;
#X obj 96 94 r \$0-preset03;
#X obj 119 67 r \$0-preset04;
#X obj 73 122 r hub;
#X obj -140 447 outlet~;
#X obj 36 20 bng 15 250 50 0 empty empty empty 0 -6 0 10 -262144 -1
-1;
#X obj -57 457 ezdac~;
#X connect 0 0 1 0;
#X connect 1 0 2 1;
#X connect 2 0 3 0;
#X connect 3 0 4 0;
#X connect 4 0 5 0;
#X connect 5 0 6 0;
#X connect 7 0 9 0;
#X connect 8 0 7 0;
#X connect 9 0 18 0;
#X connect 10 0 11 0;
#X connect 11 0 18 1;
#X connect 12 0 10 0;
#X connect 13 0 26 0;
#X connect 13 0 26 1;
#X connect 13 0 24 0;
#X connect 15 0 17 0;
#X connect 15 1 16 0;
#X connect 16 0 13 1;
#X connect 17 0 18 2;
#X connect 18 0 13 0;
#X connect 19 0 2 0;
#X connect 20 0 15 0;
#X connect 21 0 15 2;
#X connect 22 0 15 3;
#X connect 23 0 15 1;
#X connect 25 0 15 0;
#X coords 0 0 1 1 425 175 0;
