#N canvas 109 118 189 210 10;
#X obj 33 116 pack f f;
#X obj 78 96 / 127;
#X obj 51 75 t b f;
#X obj 33 49 * \$1;
#X obj 33 168 outlet;
#X obj 33 138 prepend \$1;
#X obj 33 17 inlet;
#X obj 75 17 inlet;
#X obj 124 17 inlet;
#X obj 109 68 + 0;
#X connect 0 0 5 0;
#X connect 1 0 0 1;
#X connect 2 0 0 0;
#X connect 2 1 1 0;
#X connect 3 0 9 0;
#X connect 5 0 4 0;
#X connect 6 0 3 0;
#X connect 7 0 2 0;
#X connect 8 0 9 1;
#X connect 9 0 0 0;
