#N canvas 681 36 718 577 10;
#X obj 147 150 fluid~ fluidgm.sf2;
#X msg 147 123 prog 1 \$1;
#X floatatom 147 93 5 0 0 0 - - -;
#X obj 147 195 ezdac~;
#X msg 310 126 n 1 60 0;
#X obj 310 82 bang;
#X obj 310 40 bng 15 250 50 0 empty empty empty 0 -6 0 8 -24198 -1
-1;
#X obj 310 104 del 1000;
#X msg 194 29 load \$1;
#X obj 194 7 openpanel;
#X obj 194 -13 bng 15 250 50 0 empty empty empty 0 -6 0 8 -260818 -1
-1;
#X obj 92 -18 notein;
#X obj 92 4 pack 0 0 0;
#X msg 92 26 \$3 \$1 \$2;
#X msg 318 -266 options AcousticGrandPiano BrightAcousticPiano ElectricGrandPiano
HonkyTongPiano ElectricPiano1 ElectricPiano2 Harpsichord Clavi Celesta
Glockenspiel MusicBox Vibraphone Marimba Xylophone TubularBells Dulcimer
DrawbarOrgan PercussiveOrgan RockOrgan ChurchOrgan ReedOrgan Accordion
Harmonica TangoAccordion NylonGuitar SteelGuitar JazzGuitar CleanGuitar
MutedGuitar OverdrivenGuitar DistortionGuitar GuitarHarmonics AcousticBass
ElectricBassFinger ElectricBassPick FretlessBass;
#X obj 384 -76 popup 124 25 #ffffff popup AcousticGrandPiano BrightAcousticPiano
ElectricGrandPiano HonkyTongPiano ElectricPiano1 ElectricPiano2 Harpsichord
Clavi Celesta Glockenspiel MusicBox Vibraphone Marimba Xylophone TubularBells
Dulcimer DrawbarOrgan PercussiveOrgan RockOrgan ChurchOrgan ReedOrgan
Accordion Harmonica TangoAccordion NylonGuitar SteelGuitar JazzGuitar
CleanGuitar MutedGuitar OverdrivenGuitar DistortionGuitar GuitarHarmonics
AcousticBass ElectricBassFinger ElectricBassPick FretlessBass;
#X floatatom 435 -2 5 0 0 0 - - -;
#X msg 74 128 prog 10 \$1;
#X floatatom 62 81 5 0 0 0 - - -;
#X msg 310 59 note 1 60 120;
#X connect 0 0 3 0;
#X connect 0 0 3 1;
#X connect 1 0 0 0;
#X connect 2 0 1 0;
#X connect 4 0 0 0;
#X connect 5 0 7 0;
#X connect 6 0 19 0;
#X connect 7 0 4 0;
#X connect 8 0 0 0;
#X connect 9 0 8 0;
#X connect 10 0 9 0;
#X connect 11 0 12 0;
#X connect 11 1 12 1;
#X connect 11 2 12 2;
#X connect 12 0 13 0;
#X connect 13 0 0 0;
#X connect 14 0 15 0;
#X connect 15 0 1 0;
#X connect 17 0 0 0;
#X connect 18 0 17 0;
#X connect 19 0 5 0;
#X connect 19 0 0 0;
