#N canvas 617 36 222 322 10;
#X obj 32 224 slg.trisynth~;
#X obj 32 252 ezdac~;
#N canvas 369 251 728 288 osc-control 1;
#X msg 321 104 q \$1;
#X msg 324 129 f \$1;
#X msg 321 155 depth \$1;
#X msg 324 180 even \$1;
#X msg 324 209 decay \$1;
#X msg 321 76 noise \$1;
#X msg 321 239 detune \$1;
#X msg 87 116 a \$1;
#X msg 91 145 d \$1;
#X msg 92 173 s \$1;
#X msg 92 199 r \$1;
#X msg 94 224 curve \$1;
#X msg 88 91 x \$1;
#X msg 89 62 y \$1;
#X obj 208 268 outlet;
#X floatatom 10 34 5 0 0 0 - - -;
#X floatatom 45 34 5 0 0 0 - - -;
#X floatatom 83 35 5 0 0 0 - - -;
#X floatatom 119 35 5 0 0 0 - - -;
#X floatatom 157 36 5 0 0 0 - - -;
#X floatatom 193 36 5 0 0 0 - - -;
#X floatatom 230 36 5 0 0 0 - - -;
#X floatatom 286 38 5 0 0 0 - - -;
#X floatatom 321 38 5 0 0 0 - - -;
#X floatatom 359 39 5 0 0 0 - - -;
#X floatatom 395 39 5 0 0 0 - - -;
#X floatatom 433 40 5 0 0 0 - - -;
#X floatatom 469 40 5 0 0 0 - - -;
#X floatatom 506 40 5 0 0 0 - - -;
#X obj 38 9 inlet;
#X obj 84 9 inlet;
#X msg 555 94 adsr \$1 \$2 \$3 \$4;
#X msg 559 55 20 200 40 400;
#X connect 0 0 14 0;
#X connect 1 0 14 0;
#X connect 2 0 14 0;
#X connect 3 0 14 0;
#X connect 4 0 14 0;
#X connect 5 0 14 0;
#X connect 6 0 14 0;
#X connect 7 0 14 0;
#X connect 8 0 14 0;
#X connect 9 0 14 0;
#X connect 10 0 14 0;
#X connect 11 0 14 0;
#X connect 12 0 14 0;
#X connect 13 0 14 0;
#X connect 15 0 13 0;
#X connect 16 0 12 0;
#X connect 17 0 7 0;
#X connect 18 0 8 0;
#X connect 19 0 9 0;
#X connect 20 0 10 0;
#X connect 21 0 11 0;
#X connect 22 0 5 0;
#X connect 23 0 0 0;
#X connect 24 0 1 0;
#X connect 25 0 2 0;
#X connect 26 0 3 0;
#X connect 27 0 4 0;
#X connect 28 0 6 0;
#X connect 29 0 13 0;
#X connect 30 0 12 0;
#X connect 31 0 14 0;
#X connect 32 0 31 0;
#X restore 107 196 pd osc-control;
#X obj 32 183 pack f f;
#X msg 32 101 40;
#X msg 61 100 57;
#X text 29 8 tristimulus-based synthesizer;
#X obj 32 143 makenote 90 500;
#X obj 145 132 grid grid1 50 0 128 50 0 128 1 1 1 10 10 156 176;
#X obj 32 62 metro 1000;
#X obj 32 34 tgl 15 0 empty empty empty 17 7 0 10 -262144 -1 -1 1 1
;
#X msg 91 99 30;
#X obj 126 223 print;
#X connect 0 0 1 0;
#X connect 0 1 1 1;
#X connect 2 0 0 1;
#X connect 2 0 12 0;
#X connect 3 0 0 0;
#X connect 4 0 7 0;
#X connect 5 0 7 0;
#X connect 7 0 3 0;
#X connect 7 1 3 1;
#X connect 8 0 2 0;
#X connect 8 1 2 1;
#X connect 9 0 11 0;
#X connect 10 0 9 0;
#X connect 11 0 7 0;
