#N canvas 366 141 450 300 10;
#X obj 108 122 osc~;
#X obj 108 92 mtof;
#X obj 108 148 *~ 1;
#X obj 157 108 maxlib/scale 0 127 0 1;
#X obj 108 60 unpack f f;
#X obj 108 23 inlet;
#X obj 110 184 outlet~;
#X obj 168 186 outlet~;
#X obj 200 25 inlet;
#X connect 0 0 2 0;
#X connect 1 0 0 0;
#X connect 2 0 6 0;
#X connect 2 0 7 0;
#X connect 3 0 2 1;
#X connect 4 0 1 0;
#X connect 4 1 3 0;
#X connect 5 0 4 0;
#X connect 8 0 3 0;
