#N canvas 35 22 933 509 10;
#X obj 555 238 sqrt;
#X text 107 92 trigger;
#X text 123 179 relative frequency;
#X obj 107 345 *~;
#X obj 317 326 line~;
#X obj 317 353 *~;
#X obj 317 380 *~;
#X msg 317 289 0 \$1;
#X obj 555 265 sqrt;
#X obj 107 117 r trigger;
#X obj 555 184 float \$1;
#X obj 339 239 r duration;
#X obj 129 230 r frequency;
#X obj 317 162 t b b;
#X text 393 213 relative duration;
#X obj 107 144 bng 15 250 50 0 empty empty empty 0 -6 0 8 -262144 -1
-1;
#X msg 555 292 \$1 5;
#X obj 317 189 del 5;
#X obj 555 211 * 0.1;
#X obj 107 283 + \$4;
#X text 640 182 get amplitude from argument 1;
#X text 614 210 normalize to 0.1;
#X text 606 237 take fourth root (square root twice);
#X text 634 254 because we'll raise line~ output to;
#X text 633 271 fourth power;
#X text 605 296 attack time 5 msec;
#X text 370 188 decay after 5 msec;
#X text 559 161 attack;
#X obj 316 215 float \$2;
#X obj 317 262 *;
#X text 354 262 actual duration;
#X obj 107 204 float \$3;
#X obj 107 256 *;
#X obj 107 318 osc~;
#X text 139 256 times global freq.;
#X text 150 283 plus detune;
#X text 361 289 decay msg to line~;
#X text 356 354 raise to fourth power for;
#X text 357 372 natural-sounding decay shape;
#X text 110 400 add to global;
#X text 109 419 summing bus;
#X text 111 49 This patch is used as an abstraction in the additive
synthesis example \, D06.additive.pd;
#X text 115 8 partial -- sinusoidal partial for additive synthesis
;
#X text 721 16 arguments:;
#X text 695 41 1 amplitude \; 2 relative duration \; 3 relative frequency
\; 4 detune;
#X obj 271 95 inlet;
#X obj 310 95 inlet;
#X obj 351 95 inlet;
#X obj 391 95 inlet;
#X obj 50 456 outlet~;
#X obj 50 96 inlet~;
#X obj 50 429 +~;
#X connect 0 0 8 0;
#X connect 3 0 51 1;
#X connect 4 0 5 0;
#X connect 4 0 5 1;
#X connect 5 0 6 0;
#X connect 5 0 6 1;
#X connect 6 0 3 1;
#X connect 7 0 4 0;
#X connect 8 0 16 0;
#X connect 9 0 15 0;
#X connect 10 0 18 0;
#X connect 11 0 29 1;
#X connect 12 0 32 1;
#X connect 13 0 17 0;
#X connect 13 1 10 0;
#X connect 15 0 13 0;
#X connect 15 0 31 0;
#X connect 16 0 4 0;
#X connect 17 0 28 0;
#X connect 18 0 0 0;
#X connect 19 0 33 0;
#X connect 28 0 29 0;
#X connect 29 0 7 0;
#X connect 31 0 32 0;
#X connect 32 0 19 0;
#X connect 33 0 3 0;
#X connect 45 0 10 1;
#X connect 46 0 28 1;
#X connect 47 0 31 1;
#X connect 48 0 19 1;
#X connect 50 0 51 0;
#X connect 51 0 49 0;
