#N canvas 79 22 298 262 10;
#X floatatom 74 72 5 0 0 0 - - -;
#X floatatom 133 69 5 0 0 0 - - -;
#X floatatom 177 73 5 0 0 0 - - -;
#X obj 74 176 osc~;
#X obj 133 93 osc~;
#X obj 133 120 *~;
#X obj 74 150 +~;
#X text 75 48 Fc;
#X text 135 46 Fm;
#X text 177 50 Modulation Depth;
#X text 71 21 FM Synthesizer;
#X obj 74 212 dac~;
#X connect 0 0 6 0;
#X connect 1 0 4 0;
#X connect 2 0 5 1;
#X connect 3 0 11 0;
#X connect 3 0 11 1;
#X connect 4 0 5 0;
#X connect 5 0 6 1;
#X connect 6 0 3 0;
