#N canvas 420 72 391 419 10;
#X obj 126 333 *~;
#X floatatom 279 254 5 0 0 0 - - -;
#X obj 261 177 vline~;
#X obj 44 202 phasor~ 2000;
#X obj 127 357 outlet~;
#X obj 127 47 inlet;
#X msg 261 152 0.1 3 \, 0 \$1 10;
#X obj 173 141 noise~;
#X obj 44 176 line~;
#X msg 44 153 18010 \, 18000 \$1;
#X obj 129 255 vcf~ 12;
#X obj 175 179 sig~ 10000;
#X connect 0 0 4 0;
#X connect 1 0 10 2;
#X connect 2 0 0 1;
#X connect 3 0 10 0;
#X connect 5 0 6 0;
#X connect 5 0 9 0;
#X connect 6 0 2 0;
#X connect 7 0 10 0;
#X connect 8 0 3 0;
#X connect 9 0 8 0;
#X connect 10 0 0 0;
#X connect 11 0 10 1;
