#N canvas 150 22 945 805 10;
#X obj 101 101 cnv 15 148 78 empty empty empty 20 12 0 14 -233017 -66577
0;
#X obj 106 125 envgen 116 46 1 0  ;
#X msg 301 31 duration \$1;
#X obj 130 106 nbx 5 14 10 1e+09 0 0 empty empty empty 0 -6 0 10 -257985
-1 -1 1000 256;
#X obj 108 103 bng 15 250 50 0 empty empty empty 0 -6 0 10 -4034 -1
-1;
#X msg 140 20 dump;
#X obj 115 -15 inlet;
#X obj 228 104 vradio 9 1 0 8 empty empty empty 0 -6 0 10 -260097 -1
-1 0;
#X floatatom 234 191 5 0 0 0 - - -;
#X obj 214 104 bng 10 250 50 0 empty empty empty 0 -6 0 10 -260097
-1 -1;
#X obj 103 279 prepend set;
#X msg 103 301 0 23.1397 0.500001 32.2142 0.391305 34.3012 0.847826
46.5517 0.543478 21.9903 0.0869565 41.8028 0;
#X obj 134 339 prepend set;
#X msg 134 361 0 1225.04 0.26087 178.465 0.847826 657.895 0.434783
1052.63 0.173913 526.315 0.130435 614.035 0.0434783 745.615 0;
#X obj 246 61 t b b;
#X obj 382 233 + 1;
#X obj 102 410 prepend set;
#X msg 102 432 0 301.784 0.934783 906.11 0.130435 2585.97 0.130435
1207.14 0;
#X obj 101 475 prepend set;
#X msg 101 497 0 301.784 0.934783 388.765 0 3017.09 0 1293.36 0;
#X obj 99 539 prepend set;
#X msg 99 561 0 86.2241 0.934783 647.438 0.152174 2973.98 0 1293.36
0;
#X obj 97 599 prepend set;
#X msg 97 621 0 103.448 0.847827 112.069 0.369565 51.8754 0.347826
232.607 0.413043 241.38 0.347826 258.62 0;
#X obj 95 664 prepend set;
#X msg 95 686;
#X obj 96 728 prepend set;
#X msg 96 750;
#X obj 382 258 gate 8;
#X obj 338 145 select 0 1 2 3 4 5 6 7;
#X obj 408 21 inlet;
#X obj 18 14 loadbang;
#X text 184 107 s;
#X text 210 109 pr.;
#X obj 42 102 t b b;
#X msg 56 41 0;
#X obj 220 12 inlet;
#X obj 15 229 line~;
#X obj 15 290 outlet~;
#X obj 240 105 vsl 8 70 0 127 0 0 empty empty empty 0 -9 0 10 -204786
-1 -1 3477 1;
#X obj 15 258 *~;
#X obj 104 19 tgl 15 0 empty empty empty 17 7 0 10 -4034 -1 -1 0 261.626
;
#X text -53 173 if 0 \, go directly to release;
#X obj 455 22 inlet;
#X msg 417 78 0 50 1 50;
#X obj 199 104 bng 10 250 50 0 empty empty empty 17 7 0 10 -258113
-1 -1;
#X msg 17 38 1000;
#X obj 60 228 maxlib/scale 0 127 0 1;
#X msg 87 40 64;
#X connect 1 0 37 0;
#X connect 1 1 28 1;
#X connect 2 0 1 0;
#X connect 3 0 2 0;
#X connect 4 0 34 0;
#X connect 5 0 1 0;
#X connect 6 0 41 0;
#X connect 6 0 4 0;
#X connect 7 0 8 0;
#X connect 7 0 15 0;
#X connect 7 0 29 0;
#X connect 9 0 14 0;
#X connect 10 0 11 0;
#X connect 11 0 1 0;
#X connect 12 0 13 0;
#X connect 13 0 1 0;
#X connect 14 0 5 0;
#X connect 15 0 28 0;
#X connect 16 0 17 0;
#X connect 17 0 1 0;
#X connect 18 0 19 0;
#X connect 19 0 1 0;
#X connect 20 0 21 0;
#X connect 21 0 1 0;
#X connect 22 0 23 0;
#X connect 23 0 1 0;
#X connect 24 0 25 0;
#X connect 25 0 1 0;
#X connect 26 0 27 0;
#X connect 27 0 1 0;
#X connect 28 0 10 0;
#X connect 28 1 12 0;
#X connect 28 2 16 0;
#X connect 28 3 18 0;
#X connect 28 4 20 0;
#X connect 28 5 22 0;
#X connect 28 6 24 0;
#X connect 28 6 26 0;
#X connect 29 0 11 0;
#X connect 29 1 13 0;
#X connect 29 2 17 0;
#X connect 29 3 19 0;
#X connect 29 4 21 0;
#X connect 29 5 23 0;
#X connect 29 6 25 0;
#X connect 29 7 27 0;
#X connect 30 0 7 0;
#X connect 31 0 46 0;
#X connect 31 0 35 0;
#X connect 31 0 48 0;
#X connect 34 0 1 0;
#X connect 34 1 3 0;
#X connect 35 0 7 0;
#X connect 36 0 3 0;
#X connect 37 0 40 0;
#X connect 39 0 47 0;
#X connect 40 0 38 0;
#X connect 43 0 39 0;
#X connect 44 0 1 0;
#X connect 45 0 44 0;
#X connect 46 0 3 0;
#X connect 47 0 40 1;
#X connect 48 0 39 0;
#X coords 0 -1 1 1 150 80 1 100 100;
