#N canvas 0 22 499 339 10;
#N canvas 540 28 875 612 pafvoice 0;
#X msg 41 258 freq \$1 100;
#X msg 131 258 amp \$1 100;
#X obj 216 234 mtof;
#X msg 216 259 cf \$1 100;
#X msg 290 259 bw \$1 100;
#X obj 290 234 mtof;
#X msg 369 259 vib \$1 100;
#X msg 449 259 vfr \$1 100;
#X obj 449 234 / 8;
#X obj 369 234 / 660;
#X msg 534 259 shift \$1 100;
#X obj 131 233 dbtorms;
#X obj 289 287 paf~;
#X msg 631 260 phase 0 0 0;
#X obj 289 319 outlet~;
#X obj 67 83 inlet;
#X obj 123 81 inlet;
#X obj 182 81 inlet;
#X obj 238 79 inlet;
#X obj 301 79 inlet;
#X obj 357 77 inlet;
#X obj 405 76 inlet;
#X connect 0 0 12 0;
#X connect 1 0 12 0;
#X connect 2 0 3 0;
#X connect 3 0 12 0;
#X connect 4 0 12 0;
#X connect 5 0 4 0;
#X connect 6 0 12 0;
#X connect 7 0 12 0;
#X connect 8 0 7 0;
#X connect 9 0 6 0;
#X connect 10 0 12 0;
#X connect 11 0 1 0;
#X connect 12 0 14 0;
#X connect 13 0 12 0;
#X connect 15 0 0 0;
#X connect 16 0 11 0;
#X connect 17 0 2 0;
#X connect 18 0 5 0;
#X connect 19 0 9 0;
#X connect 20 0 8 0;
#X connect 21 0 10 0;
#X restore 149 185 pd pafvoice;
#X obj 99 54 inlet amp;
#X obj 178 55 inlet fc;
#X obj 249 55 inlet bw;
#X obj 322 57 inlet vib;
#X obj 21 55 inlet freq;
#X obj 286 117 * 12;
#X obj 310 86 clip 0 1;
#X obj 150 226 outlet~;
#X obj 329 117 * 48;
#X connect 0 0 8 0;
#X connect 1 0 0 1;
#X connect 2 0 0 2;
#X connect 3 0 0 3;
#X connect 4 0 7 0;
#X connect 5 0 0 0;
#X connect 6 0 0 4;
#X connect 7 0 6 0;
#X connect 7 0 9 0;
#X connect 9 0 0 5;
