#N canvas 0 22 517 543 10;
#X obj -12 99 mtof;
#X obj -35 372 ezdac~;
#X obj -12 47 + 48;
#X obj -12 24 random 30;
#X obj 112 130 slg.velamp;
#X obj 138 80 knob 32 32 0 127 0 0 empty empty empty 0 -8 0 8 -262144
-1 -1 1500 1;
#X obj 179 80 knob 32 32 0 127 0 0 empty empty empty 0 -8 0 8 -262144
-1 -1 800 1;
#X obj 86 189 *~;
#X obj 9 -14 bng 15 250 50 0 empty empty empty 0 -6 0 10 -262144 -1
-1;
#X obj 141 -17 bng 15 250 50 0 empty empty empty 0 -6 0 10 -262144
-1 -1;
#X msg 141 4 0;
#X obj -148 -19 midiin 1;
#X obj -12 129 phasor~ 440;
#X obj 168 233 lores~;
#X obj 173 274 reson~;
#X obj 180 183 biquad~;
#X obj 255 323 hip~;
#X obj 301 323 bp~;
#X floatatom 104 271 5 0 0 0 - - -;
#X obj 52 -51 metro 500;
#X obj 46 -81 tgl 15 0 empty empty empty 0 -6 0 10 -262144 -1 -1 0
1;
#X msg 99 49 100;
#X obj 79 310 bp~;
#X floatatom 139 271 5 0 0 0 - - -;
#X connect 0 0 12 0;
#X connect 2 0 0 0;
#X connect 3 0 2 0;
#X connect 4 0 7 1;
#X connect 5 0 4 1;
#X connect 6 0 4 2;
#X connect 7 0 22 0;
#X connect 8 0 3 0;
#X connect 8 0 21 0;
#X connect 9 0 10 0;
#X connect 10 0 4 0;
#X connect 11 0 0 0;
#X connect 11 1 4 0;
#X connect 12 0 7 0;
#X connect 18 0 22 1;
#X connect 19 0 8 0;
#X connect 20 0 19 0;
#X connect 21 0 4 0;
#X connect 22 0 1 0;
#X connect 22 0 1 1;
#X connect 23 0 22 2;
