#N canvas 514 25 589 474 10;
#X floatatom 24 115 5 0 0 0 - #0-frequency-r -;
#X floatatom 85 113 5 0 0 0 - #0-harmonicity-r -;
#X floatatom 237 109 5 0 0 0 - #0-modulationindex-r -;
#X obj 24 306 osc~;
#X obj 40 189 osc~;
#X obj 40 216 *~;
#X obj 24 280 +~;
#X text 64 166 Fm;
#X text 214 200 Modulation Depth;
#X obj 221 181 *~;
#X obj 328 80 envgen 107 63 1 0  ;
#X obj 316 171 line~;
#X obj 20 9 comment 0 20 Times ? 0 255 128 0 FM Synthesizer;
#X obj 24 68 comment 0 14 Helvetica ? 0 0 128 128 Fc;
#X obj 75 67 comment 0 14 Helvetica ? 0 0 128 128 Harmonicity Ratio
;
#X obj 201 66 comment 0 14 Helvetica ? 0 0 128 128 Modulation Index
;
#X obj 324 53 bng 15 250 50 0 empty \$0-note-r empty 0 -6 0 10 -262144
-1 -1;
#X obj 24 394 ezdac~;
#X text 82 96 Fm/Fc;
#X text 233 92 Am/Fm;
#X obj 40 166 *;
#X obj 441 79 envgen 110 64 1 0  ;
#X obj 24 333 *~;
#X msg 343 52 duration \$1;
#X floatatom 343 35 5 0 0 0 - #0-duration-r -;
#X obj 449 164 line~;
#N canvas 0 22 462 312 randnotegen 0;
#X obj 150 142 + 50;
#X obj 150 92 metro 500;
#X obj 150 169 mtof;
#X obj 150 71 tgl 15 0 empty empty empty 0 -6 0 10 -262144 -1 -1 0
1;
#X obj 150 118 drunk 50;
#X floatatom 201 70 5 0 0 0 - - -;
#X obj 150 193 s \$0-frequency-r;
#X connect 0 0 2 0;
#X connect 1 0 4 0;
#X connect 2 0 6 0;
#X connect 3 0 1 0;
#X connect 4 0 0 0;
#X connect 5 0 1 1;
#X restore 355 381 pd randnotegen;
#N canvas 0 22 152 149 dummy~ 0;
#X obj 46 53 inlet~;
#X obj 46 83 outlet~;
#X connect 0 0 1 0;
#X restore 449 312 pd dummy~;
#X text 351 429 (c) 2007 slegroux@iua.upf.edu;
#X obj 199 387 hradio 12 1 0 8 \$0-preset-s \$0-preset-r empty 0 -6
0 8 -262144 -1 -1 6;
#N canvas 638 22 616 590 store-recall 0;
#X obj 19 98 float \$0;
#X obj 19 15 bng 15 250 50 0 empty empty empty 0 -6 0 8 -262144 -1
-1;
#X floatatom 45 120 5 0 0 0 - - -;
#X msg 322 143 \; \$1-frequency-r 130.81 \; \$1-harmonicity-r 1.005
\; \$1-duration-r 5000 \; \$1-preset-name-r symbol electric-piano \;
;
#X msg 19 141 \; \$1-frequency-r 130.81 \; \$1-harmonicity-r 2.8 \;
\$1-duration-r 5000 \; \$1-preset-name-r symbol metallic-bell \;;
#X obj 34 62 route 0 1 2 3 4 5 6 7;
#X obj 34 40 r \$0-preset-s;
#X obj 322 118 float \$0;
#X obj 19 214 float \$0;
#X obj 324 214 float \$0;
#X obj 19 314 float \$0;
#X obj 19 414 float \$0;
#X obj 327 407 float \$0;
#X msg 19 240 \; \$1-frequency-r 130.81 \; \$1-harmonicity-r 0.707
\; \$1-duration-r 400 \; \$1-preset-name-r symbol pitched-drum \;;
#X msg 324 240 \; \$1-frequency-r 392 \; \$1-harmonicity-r 1 \; \$1-duration-r
400 \; \$1-preset-name-r symbol brassy \;;
#X msg 19 339 \; \$1-frequency-r 1046.6 \; \$1-harmonicity-r 1 \; \$1-duration-r
200 \; \$1-preset-name-r symbol trumpet-staccato \;;
#X obj 326 310 float \$0;
#X msg 19 440 \; \$1-frequency-r 392 \; \$1-harmonicity-r 4 \; \$1-duration-r
2000 \; \$1-preset-name-r symbol clarinet-odd \;;
#X msg 326 335 \; \$1-frequency-r 1046.6 \; \$1-harmonicity-r 1 \;
\$1-duration-r 200 \; \$1-preset-name-r symbol xylophone \;;
#X msg 327 433 \; \$1-frequency-r 61.81 \; \$1-harmonicity-r 2.5 \;
\$1-duration-r 2000 \; \$1-preset-name-r symbol wow \;;
#X connect 0 0 4 0;
#X connect 0 0 2 0;
#X connect 1 0 0 0;
#X connect 5 0 0 0;
#X connect 5 1 7 0;
#X connect 5 2 8 0;
#X connect 5 3 9 0;
#X connect 5 4 10 0;
#X connect 5 5 16 0;
#X connect 5 6 11 0;
#X connect 5 7 12 0;
#X connect 6 0 5 0;
#X connect 7 0 3 0;
#X connect 8 0 13 0;
#X connect 9 0 14 0;
#X connect 10 0 15 0;
#X connect 11 0 17 0;
#X connect 12 0 19 0;
#X connect 16 0 18 0;
#X restore 355 403 pd store-recall;
#X symbolatom 199 403 20 0 0 0 - #0-preset-name-r -;
#X obj 24 361 hip~ 5;
#X obj 316 80 vsl 10 64 0 24 0 0 empty empty empty 0 -8 0 10 -262144
-1 -1 0 1;
#X floatatom 374 150 5 0 0 0 - - -;
#N canvas 0 22 462 312 MI-amp 1;
#X obj 170 76 unpack f f;
#X obj 170 140 * 24;
#X obj 170 167 pack f f;
#X obj 170 43 inlet;
#X obj 170 222 outlet;
#X obj 257 39 inlet;
#X connect 0 0 1 0;
#X connect 0 1 2 1;
#X connect 1 0 2 0;
#X connect 2 0 4 0;
#X connect 3 0 0 0;
#X connect 5 0 1 1;
#X restore 316 149 pd MI-amp;
#X connect 0 0 6 0;
#X connect 0 0 20 0;
#X connect 1 0 20 1;
#X connect 2 0 9 1;
#X connect 3 0 22 0;
#X connect 4 0 5 0;
#X connect 5 0 6 1;
#X connect 6 0 3 0;
#X connect 9 0 5 1;
#X connect 10 0 35 0;
#X connect 11 0 9 1;
#X connect 16 0 10 0;
#X connect 16 0 21 0;
#X connect 20 0 4 0;
#X connect 20 0 9 0;
#X connect 21 0 25 0;
#X connect 22 0 32 0;
#X connect 23 0 10 0;
#X connect 23 0 21 0;
#X connect 24 0 23 0;
#X connect 25 0 27 0;
#X connect 27 0 22 1;
#X connect 32 0 17 0;
#X connect 32 0 17 1;
#X connect 33 0 34 0;
#X connect 33 0 35 1;
#X connect 35 0 11 0;
