#N canvas 70 25 755 506 10;
#X text 579 211 arg is channelnumber;
#X obj 130 333 midiout;
#X floatatom 529 146 5 0 0 0 - - -;
#X text 14 19 pr.;
#X text 378 -40 ch.;
#X text 149 94 modulation;
#X text 273 50 vol;
#X text 387 48 pan;
#X text 527 100 pitch bend;
#X obj 147 113 r \$0-getModulation;
#X obj 273 68 r \$0-getVolume;
#X obj 387 66 r \$0-getPan;
#X obj 529 118 r \$0-getPitchBend;
#X obj 12 37 r \$0-getProgramChange;
#X obj 400 -38 r \$0-getMidiChannel;
#X obj 125 -107 inlet;
#X obj 648 119 pack f 5;
#X text 635 93 portamento time;
#X obj 283 -96 inlet;
#X obj 398 -95 inlet;
#N canvas 335 426 803 426 direct-ctl 0;
#X obj 42 112 inlet;
#X obj 42 139 route pc channel mod vol pan bend;
#X text 44 158 pr.;
#X text 179 158 ch.;
#X text 301 158 modulation;
#X text 417 158 vol;
#X text 510 158 pan;
#X text 584 157 pitch bend;
#X obj 42 176 s \$0-getProgramChange;
#X obj 177 176 s \$0-getMidiChannel;
#X obj 299 177 s \$0-getModulation;
#X obj 417 176 s \$0-getVolume;
#X obj 510 176 s \$0-getPan;
#X obj 586 175 s \$0-getPitchBend;
#X obj 269 98 r pc\$1;
#X obj 313 98 r channel\$1;
#X obj 388 97 r mod\$1;
#X obj 440 97 r vol\$1;
#X obj 545 96 r bend\$1;
#X obj 491 96 r pan\$1;
#X connect 0 0 1 0;
#X connect 1 0 8 0;
#X connect 1 1 9 0;
#X connect 1 2 10 0;
#X connect 1 3 11 0;
#X connect 1 4 12 0;
#X connect 1 5 13 0;
#X connect 14 0 8 0;
#X connect 15 0 9 0;
#X connect 16 0 10 0;
#X connect 17 0 11 0;
#X connect 18 0 13 0;
#X connect 19 0 12 0;
#X restore 283 -73 pd direct-ctl \$1;
#N canvas 696 22 715 139 remote-ctl 0;
#X obj 29 -100 inlet;
#X obj 29 -70 OSCroute /\$1;
#X obj 29 -13 s \$0-getProgramChange;
#X obj 164 -13 s \$0-getMidiChannel;
#X obj 286 -12 s \$0-getModulation;
#X obj 404 -13 s \$0-getVolume;
#X obj 497 -13 s \$0-getPan;
#X obj 573 -14 s \$0-getPitchBend;
#X obj 29 -41 OSCroute /pc /channel /mod /vol /pan /bend;
#X connect 0 0 1 0;
#X connect 1 0 8 0;
#X connect 8 0 2 0;
#X connect 8 1 3 0;
#X connect 8 2 4 0;
#X connect 8 3 5 0;
#X connect 8 4 6 0;
#X connect 8 5 7 0;
#X restore 398 -71 pd remote-ctl \$1;
#N canvas 718 266 450 300 default 0;
#X msg 35 135 pc \$1;
#X msg 83 135 channel \$1;
#X msg 157 136 mod \$1;
#X msg 207 137 vol \$1;
#X msg 257 137 pan \$1;
#X msg 309 136 bend \$1;
#X floatatom 83 106 5 0 0 0 - - -;
#X floatatom 156 106 5 0 0 0 - - -;
#X floatatom 208 105 5 0 0 0 - - -;
#X floatatom 257 104 5 0 0 0 - - -;
#X floatatom 309 103 5 0 0 0 - - -;
#X obj 157 203 outlet;
#X obj 36 20 loadbang;
#X connect 0 0 11 0;
#X connect 1 0 11 0;
#X connect 2 0 11 0;
#X connect 3 0 11 0;
#X connect 4 0 11 0;
#X connect 5 0 11 0;
#X connect 6 0 1 0;
#X connect 7 0 2 0;
#X connect 8 0 3 0;
#X connect 9 0 4 0;
#X connect 10 0 5 0;
#X restore 320 -96 pd default;
#X obj 125 -80 unpack f f f;
#X obj 125 -43 pack f f;
#X obj 130 309 midiformat;
#X floatatom 156 36 5 0 0 0 - - -;
#X floatatom 218 36 5 0 0 0 - - -;
#X obj 387 115 unpack f f f;
#X obj 387 142 pack f f;
#X text 467 63 channel value;
#X msg 387 93 \$2 10 \$1;
#X obj 273 117 unpack f f f;
#X obj 273 144 pack f f;
#X msg 273 95 \$2 7 \$1;
#X obj 147 158 unpack f f f;
#X obj 147 185 pack f f;
#X msg 12 89 \$2 \$1;
#X obj 12 120 unpack f f;
#X obj 12 156 - 1;
#X obj 215 -43 prepend set;
#X msg 215 -21 60 90 1;
#X obj 136 -14 prepend set;
#X msg 136 8 60 90;
#X msg 295 4;
#X msg 147 136 \$2 1 \$1;
#X connect 9 0 45 0;
#X connect 10 0 34 0;
#X connect 11 0 31 0;
#X connect 12 0 2 0;
#X connect 12 0 25 5;
#X connect 13 0 37 0;
#X connect 15 0 23 0;
#X connect 15 0 40 0;
#X connect 16 0 25 2;
#X connect 18 0 20 0;
#X connect 19 0 21 0;
#X connect 22 0 20 0;
#X connect 23 0 24 0;
#X connect 23 1 24 1;
#X connect 23 2 25 6;
#X connect 23 2 44 0;
#X connect 24 0 25 0;
#X connect 24 0 42 0;
#X connect 25 0 1 0;
#X connect 26 0 25 3;
#X connect 27 0 25 6;
#X connect 28 0 29 0;
#X connect 28 1 29 1;
#X connect 28 2 25 6;
#X connect 29 0 25 2;
#X connect 31 0 28 0;
#X connect 32 0 33 0;
#X connect 32 1 33 1;
#X connect 32 2 25 6;
#X connect 33 0 25 2;
#X connect 34 0 32 0;
#X connect 35 0 36 0;
#X connect 35 1 36 1;
#X connect 35 2 25 6;
#X connect 36 0 25 2;
#X connect 37 0 38 0;
#X connect 38 0 39 0;
#X connect 38 1 25 6;
#X connect 39 0 25 3;
#X connect 40 0 41 0;
#X connect 42 0 43 0;
#X connect 45 0 35 0;
