#N canvas 578 462 337 349 10;
#X obj 29 23 r fundfreq;
#X obj 29 109 moses 22050;
#X obj 29 177 sig~;
#X msg 92 153 22050;
#X obj 92 133 bng 15 250 50 0 empty empty empty 0 -6 0 10 -262144 -1
-1;
#X obj 29 210 *~;
#X obj 65 178 r~ vib;
#X obj 29 240 osc~;
#X obj 29 288 *~ 0;
#X obj 29 317 throw~ partialbus;
#X obj 87 242 / 127;
#X floatatom 128 243 5 0 0 0 - - -;
#X floatatom 87 265 5 0 0 0 - - -;
#X obj 138 45 bng 15 250 50 0 empty empty empty 0 -6 0 10 -262144 -1
-1;
#X floatatom 138 94 5 0 0 0 - - -;
#X obj 138 67 float \$1;
#X obj 29 80 * 1;
#X obj 138 21 loadbang;
#X obj 244 21 inlet;
#X obj 30 55 + 0;
#X text 63 55 detune;
#X obj 287 21 inlet;
#X obj 254 131 * 1;
#X floatatom 197 174 5 0 0 0 - - -;
#X floatatom 227 72 5 0 0 0 - - -;
#X floatatom 284 78 5 0 0 0 - - -;
#X text 107 114 antialiasing;
#X connect 0 0 19 0;
#X connect 1 0 2 0;
#X connect 1 1 4 0;
#X connect 2 0 5 0;
#X connect 3 0 2 0;
#X connect 4 0 3 0;
#X connect 5 0 7 0;
#X connect 6 0 5 1;
#X connect 7 0 8 0;
#X connect 8 0 9 0;
#X connect 10 0 8 1;
#X connect 10 0 12 0;
#X connect 13 0 15 0;
#X connect 15 0 14 0;
#X connect 15 0 16 1;
#X connect 15 0 22 1;
#X connect 16 0 1 0;
#X connect 17 0 13 0;
#X connect 18 0 10 0;
#X connect 19 0 16 0;
#X connect 21 0 22 0;
#X connect 22 0 19 1;
#X connect 23 0 19 0;
#X connect 24 0 10 0;
#X connect 25 0 22 0;
