#N canvas 774 310 454 418 10;
#X declare -lib maxlib;
#X obj 47 317 ezdac~;
#X floatatom 90 225 5 0 0 0 - - -;
#X floatatom 47 226 5 0 0 0 - - -;
#X floatatom 131 224 5 0 0 0 - - -;
#X floatatom 169 223 5 0 0 0 - - -;
#X obj 294 124 line;
#X obj 294 102 pack f 10000;
#X floatatom 294 76 5 0 0 0 - - -;
#X msg 371 76 0;
#X msg 337 76 15;
#X obj 48 48 loadbang;
#X obj 47 143 unpack f f f f;
#X text 24 384 (C) 2007::slegroux@iua.upf.edu::;
#X msg 403 77 4;
#X obj 53 204 comment 0 14 Helvetica ? 0 0 128 128 Fc;
#X obj 149 43 comment 0 14 Helvetica ? 0 0 128 128 Harmonicity Ratio
;
#X obj 294 41 comment 0 14 Helvetica ? 0 0 128 128 Modulation Index
;
#X text 131 201 Fm/Fc;
#X text 171 201 Am/Fm;
#X text 75 204 Amplitude;
#X msg 157 91 150 0.95 2 0;
#X text 169 70 harmonic;
#X text 54 70 inharmonic;
#X text 295 55 brightness;
#X text 179 184 MI;
#X text 140 184 HR;
#X obj 52 5 comment 0 20 Times ? 0 255 128 0 FM Synthesis : harmonicity
& brightness;
#X obj 47 280 slg.fm~;
#X msg 48 94 146.83 0.95 1.31 0;
#X connect 1 0 27 1;
#X connect 2 0 27 0;
#X connect 3 0 27 2;
#X connect 4 0 27 3;
#X connect 5 0 4 0;
#X connect 6 0 5 0;
#X connect 7 0 6 0;
#X connect 8 0 6 0;
#X connect 9 0 6 0;
#X connect 10 0 20 0;
#X connect 11 0 2 0;
#X connect 11 1 1 0;
#X connect 11 2 3 0;
#X connect 11 3 4 0;
#X connect 13 0 6 0;
#X connect 20 0 11 0;
#X connect 27 0 0 0;
#X connect 27 0 0 1;
#X connect 28 0 11 0;
