#N canvas 0 22 934 738 10;
#X obj 101 101 cnv 15 82 58 empty empty empty 20 12 0 14 -233017 -66577
0;
#X obj 144 115 knob 32 32 0 127 0 0 empty empty empty 0 -8 0 8 -262144
-1 -1 0 1;
#X obj -35 144 / 127;
#X obj -50 168 *~;
#X obj -50 116 osc~ 440;
#X obj -50 93 mtof;
#X obj -50 71 moses 0;
#X obj -50 46 inlet;
#X obj -50 193 outlet~;
#X text 151 145 Vol.;
#X text 106 100 Sinus Synth;
#X obj 107 115 knob 32 32 0 127 0 0 empty empty empty 0 -8 0 8 -262144
-1 -1 0 1;
#X text 107 144 freq;
#X connect 1 0 2 0;
#X connect 2 0 3 1;
#X connect 3 0 8 0;
#X connect 4 0 3 0;
#X connect 5 0 4 0;
#X connect 6 1 5 0;
#X connect 7 0 6 0;
#X connect 11 0 5 0;
#X coords 0 -1 1 1 85 60 1 100 100;
