#N canvas 479 152 245 249 10;
#X obj 40 80 line~;
#X obj 41 114 osc~ 90;
#X obj 40 150 *~;
#X msg 40 47 160 \, 50 40;
#X obj 127 82 vline~;
#X obj 40 17 inlet;
#X obj 40 203 outlet~;
#X msg 127 47 1 10 \, 0 \$1 20;
#X obj 39 176 clip~ -0.7 0.7;
#X connect 0 0 1 0;
#X connect 1 0 2 0;
#X connect 2 0 8 0;
#X connect 3 0 0 0;
#X connect 4 0 2 1;
#X connect 5 0 3 0;
#X connect 5 0 7 0;
#X connect 7 0 4 0;
#X connect 8 0 6 0;
