#N canvas 494 48 672 627 10;
#X obj 101 102 cnv 15 83 58 empty empty empty 20 12 0 14 -233017 -66577
0;
#X obj 57 378 cos;
#X floatatom 135 330 5 0 0 0 - - -;
#X obj 58 400 maxlib/scale -1 1 0 144;
#X obj 207 380 sin;
#X obj 208 401 maxlib/scale -1 1 0 144;
#X obj 110 122 tgl 15 0 empty empty empty 0 -6 0 10 -4034 -1 -1 0 1
;
#X floatatom 135 268 0 0 0 0 - - -;
#X obj 135 308 * 6.28319;
#X obj 135 288 / 360;
#X obj 138 226 cyclone/counter 0 360;
#X floatatom 140 122 6 0 0 0 - - -;
#X obj 139 200 metro 1;
#X obj 190 178 / 360;
#X obj 289 111 loadbang;
#X msg 289 133 5000;
#X obj 58 428 outlet;
#X obj 209 433 outlet;
#X obj 290 78 inlet;
#X obj 227 -90 inlet;
#X obj 346 20 line;
#X msg 462 54 70;
#X msg 494 53 70;
#X obj 462 34 bng 15 250 50 0 empty empty empty 0 -6 0 10 -262144 -1
-1;
#X msg 347 -8 0 \, 60000 10000;
#X obj 227 -66 sel 1 0;
#X msg 469 12 0;
#X msg 196 -2 1;
#X obj 462 -10 delay 9000;
#X msg 239 -8 80000 \, 0 75000;
#X text 102 140 on/off;
#X text 139 140 ms/tour;
#X connect 1 0 3 0;
#X connect 2 0 1 0;
#X connect 2 0 4 0;
#X connect 3 0 16 0;
#X connect 4 0 5 0;
#X connect 5 0 17 0;
#X connect 6 0 12 0;
#X connect 7 0 9 0;
#X connect 8 0 2 0;
#X connect 9 0 8 0;
#X connect 10 0 7 0;
#X connect 11 0 13 0;
#X connect 12 0 10 0;
#X connect 13 0 12 1;
#X connect 14 0 15 0;
#X connect 15 0 11 0;
#X connect 18 0 11 0;
#X connect 19 0 25 0;
#X connect 20 0 11 0;
#X connect 21 0 16 0;
#X connect 22 0 17 0;
#X connect 23 0 21 0;
#X connect 23 0 22 0;
#X connect 24 0 20 0;
#X connect 25 0 29 0;
#X connect 25 0 27 0;
#X connect 25 1 24 0;
#X connect 25 1 28 0;
#X connect 26 0 6 0;
#X connect 27 0 6 0;
#X connect 28 0 26 0;
#X connect 28 0 23 0;
#X connect 29 0 20 0;
#X coords 0 -1 1 1 85 61 1 100 100;
