#N canvas 312 22 968 665 10;
#X obj 101 101 cnv 15 248 124 empty empty empty 20 12 0 14 -162280
-66577 0;
#X obj 105 207 nbx 5 14 -1e+37 1e+37 0 0 empty empty Pitch 0 -8 0 10
-257985 -1 -1 -1500 256;
#X obj 290 206 nbx 5 14 -1e+37 1e+37 0 0 empty empty Envelope 0 -8
0 10 -257985 -1 -1 34.612 256;
#X obj 32 16 inlet~;
#X obj 4 257 outlet;
#X obj 100 256 outlet;
#X msg 344 -20 npts \$1;
#X msg 235 -44 npeak \$1;
#X msg 235 -19 maxfreq \$1;
#X msg 234 7 vibrato \$1;
#X msg 238 30 stabletime \$1;
#X msg 238 53 minpower \$1;
#X msg 240 73 growth \$1;
#X obj 32 45 sigmund~ pitch note env tracks;
#X obj 198 206 nbx 5 14 -1e+37 1e+37 0 0 empty empty Note 0 -8 0 10
-257985 -1 -1 52.9844 256;
#X obj 53 257 outlet;
#X obj 106 161 nbx 5 14 -1e+37 1e+37 0 0 empty empty empty 0 -6 0 10
-228856 -1 -1 20 256;
#X text 106 145 npeaks;
#X obj 454 -30 loadbang;
#X msg 454 -6 20;
#X obj 521 194 note2pitch;
#X obj 521 224 show-pitchclass;
#X obj 373 204 note2pitch;
#X obj 373 229 show-pitchclass;
#X symbolatom 162 206 5 0 0 0 - - -;
#X symbolatom 254 204 5 0 0 0 - - -;
#X obj 170 104 hsl 64 10 20000 1e+07 0 0 empty empty empty -2 -6 0
10 -228856 -258113 -1 619 1;
#X obj 169 118 hsl 64 10 0 4 0 0 empty empty empty -2 -6 0 10 -228856
-4160 -1 1575 1;
#X obj 170 133 hsl 64 10 10 200 0 0 empty empty empty -2 -6 0 10 -228856
-1 -1 1326 1;
#X obj 170 148 hsl 64 10 20 90 0 0 empty empty empty -2 -6 0 10 -228856
-159808 -1 2700 1;
#X text 179 100 maxfreq;
#X text 187 114 vibrato;
#X text 179 128 stabletime;
#X text 177 144 minpower;
#X obj 171 162 hsl 64 10 5 15 0 0 empty empty empty -2 -6 0 10 -228856
-260097 -1 1260 1;
#X text 183 159 growth;
#X obj 247 133 nbx 3 10 -1e+37 1e+37 0 0 empty empty empty 0 -6 0 10
-204786 -1 -1 49.9905 256;
#X obj 247 148 nbx 3 10 -1e+37 1e+37 0 0 empty empty empty 0 -6 0 10
-204786 -1 -1 50 256;
#X obj 241 106 nbx 5 10 -1e+37 1e+37 0 0 empty empty empty 0 -6 0 10
-204786 -1 -1 1.00057e+06 256;
#X obj 246 119 nbx 3 10 -1e+37 1e+37 0 0 empty empty empty 0 -6 0 10
-204786 -1 -1 1 256;
#X obj 247 163 nbx 3 10 -1e+37 1e+37 0 0 empty empty empty 0 -6 0 10
-204786 -1 -1 7 256;
#X msg 497 -4 1e+06;
#X msg 563 -2 1;
#X msg 602 -1 50;
#X msg 634 -1 50;
#X msg 670 -1 7;
#X text 104 110 ANALYZER;
#X text 105 100 SPECTRAL;
#X text 534 114 Pitch class display depends on rtclib;
#X obj 156 256 outlet;
#X obj 299 109 vu 12 80 empty empty -1 -8 0 10 -66577 -1 1 0;
#X obj 314 266 - 80;
#X msg 245 370 quota \$1;
#X floatatom 245 346 5 0 0 0 - - -;
#X floatatom 306 347 5 0 0 0 - - -;
#X msg 306 372 tolerance \$1;
#X obj 204 411 lbyl;
#X msg 711 1 0.1;
#X msg 744 0 10;
#X obj 109 180 hsl 64 10 0 1 0 0 \$0-setTolerance \$0-getTolerance
empty -2 -6 0 10 -260097 -258113 -1 630 1;
#X obj 189 180 hsl 64 10 0 10 0 0 \$0-setQuota \$0-getQuota empty -2
-6 0 10 -260097 -258113 -1 6300 1;
#X text 112 177 tolerance;
#X text 204 176 quota;
#X obj 330 308 r \$0-setTolerance;
#X obj 244 313 r \$0-setQuota;
#X obj 711 39 s \$0-getTolerance;
#X obj 824 39 s \$0-getQuota;
#X obj 35 -6 r~ input1;
#X obj 116 127 tgl 20 0 empty empty empty 17 7 0 10 -258113 -1 -1 0
1;
#X obj 34 162 switch~;
#X connect 1 0 22 0;
#X connect 2 0 51 0;
#X connect 3 0 13 0;
#X connect 7 0 13 0;
#X connect 8 0 13 0;
#X connect 9 0 13 0;
#X connect 10 0 13 0;
#X connect 11 0 13 0;
#X connect 12 0 13 0;
#X connect 13 0 56 0;
#X connect 13 1 14 0;
#X connect 13 1 15 0;
#X connect 13 2 5 0;
#X connect 13 2 2 0;
#X connect 13 3 49 0;
#X connect 14 0 20 0;
#X connect 16 0 7 0;
#X connect 18 0 19 0;
#X connect 18 0 41 0;
#X connect 18 0 42 0;
#X connect 18 0 43 0;
#X connect 18 0 44 0;
#X connect 18 0 45 0;
#X connect 18 0 57 0;
#X connect 18 0 58 0;
#X connect 19 0 16 0;
#X connect 20 0 21 0;
#X connect 21 0 25 0;
#X connect 22 0 23 0;
#X connect 23 0 24 0;
#X connect 26 0 8 0;
#X connect 26 0 38 0;
#X connect 27 0 9 0;
#X connect 27 0 39 0;
#X connect 28 0 10 0;
#X connect 28 0 36 0;
#X connect 29 0 11 0;
#X connect 29 0 37 0;
#X connect 34 0 12 0;
#X connect 34 0 40 0;
#X connect 41 0 26 0;
#X connect 42 0 27 0;
#X connect 43 0 28 0;
#X connect 44 0 29 0;
#X connect 45 0 34 0;
#X connect 51 0 50 0;
#X connect 52 0 56 0;
#X connect 53 0 52 0;
#X connect 54 0 55 0;
#X connect 55 0 56 0;
#X connect 56 0 4 0;
#X connect 56 0 1 0;
#X connect 57 0 65 0;
#X connect 58 0 66 0;
#X connect 63 0 55 0;
#X connect 64 0 52 0;
#X connect 67 0 13 0;
#X connect 68 0 69 0;
#X coords 0 -1 1 1 250 125 1 100 100;
