#N canvas 672 176 515 369 10;
#X obj 57 218 coll pitch.coll;
#C restore;
#X obj 56 70 slg.scalize;
#X obj 57 153 cyclone/counter;
#X obj 57 190 pack f f;
#X floatatom 86 254 5 0 0 0 - - -;
#X obj 246 90 bng 15 250 50 0 empty empty empty 0 -6 0 10 -262144 -1
-1;
#X floatatom 194 161 5 0 0 0 - - -;
#X floatatom 153 191 5 0 0 0 - - -;
#X msg 223 208 write pitch.coll;
#X floatatom 259 156 5 0 0 0 - - -;
#X obj 382 182 counter -1 999;
#X obj 382 242 pack;
#X obj 403 209 / 200;
#X floatatom 372 35 5 0 0 0 - - -;
#X obj 95 323 iter;
#X obj 99 291 cyclone/counter 0 0 3;
#X obj 381 277 bangbang;
#X connect 0 1 4 0;
#X connect 1 0 2 0;
#X connect 1 0 3 1;
#X connect 1 0 6 0;
#X connect 1 0 9 0;
#X connect 2 0 3 0;
#X connect 2 0 7 0;
#X connect 3 0 0 0;
#X connect 5 0 2 2;
#X connect 8 0 0 0;
#X connect 10 0 11 0;
#X connect 12 0 11 1;
