#N canvas 694 159 560 682 10;
#X text 301 -28 hear the line in;
#X text 298 -46 Volume Line in;
#X msg 337 12 \; pd dsp 0;
#X msg 337 48 \; pd dsp 1;
#X obj 101 101 cnv 15 88 86 empty empty empty 20 12 0 14 -233017 -66577
0;
#X obj 45 101 adc~;
#X obj 46 156 *~;
#X obj 136 149 knob 24 24 0 1 0 0 empty empty empty 0 -8 0 8 -262144
-1 -1 0 1;
#X obj 46 220 outlet~;
#X obj 139 122 tgl 15 0 empty empty empty 0 -6 0 10 -4034 -1 -1 0 1
;
#X obj 263 149 sel 0 1;
#X text 103 102 Audio in;
#X obj 167 104 vu 10 80 \$0-monitor lev -1 -8 1 8 -233017 -1 0 0;
#X obj 146 208 env~;
#X obj 146 250 s \$0-monitor;
#X obj 146 228 - 80;
#X obj 230 181 pack \$1 100;
#X obj 231 207 line~;
#X text 103 122 DSP;
#X text 102 153 Level;
#X connect 5 0 6 0;
#X connect 6 0 8 0;
#X connect 6 0 13 0;
#X connect 7 0 16 0;
#X connect 9 0 10 0;
#X connect 10 0 2 0;
#X connect 10 1 3 0;
#X connect 13 0 15 0;
#X connect 15 0 14 0;
#X connect 16 0 17 0;
#X connect 17 0 6 1;
#X coords 0 -1 1 1 90 88 1 100 100;
