#N canvas 20 27 684 482 10;
#X obj 243 162 - 1;
#X obj 243 187 abs;
#X obj 241 138 dbtorms;
#X obj 243 323 snapshot~;
#X obj 318 275 metro 1;
#X obj 318 252 loadbang;
#X obj 244 271 lop~ 1;
#X obj 244 297 lop~ 1;
#X obj 244 248 lop~ 1;
#X obj 241 64 inlet~;
#X obj 243 347 outlet;
#X msg 303 235 bang;
#X obj 245 223 pow 48;
#X obj 241 114 env~ 32;
#X obj 288 166 nbx 5 14 -1e+37 1e+37 0 0 empty empty empty 0 -6 0 10
-262144 -1 -1 0 256;
#X obj 290 195 nbx 5 14 -1e+37 1e+37 0 0 empty empty empty 0 -6 0 10
-262144 -1 -1 1 256;
#X obj 241 89 *~ 1;
#X obj 315 53 knob 32 32 1 2 0 0 empty empty gain_[1_2] 0 -8 0 8 -262144
-1 -1 0 1;
#X floatatom 316 88 5 0 0 0 - - -;
#X obj 417 291 abs;
#X floatatom 417 311 5 0 0 0 - - -;
#X obj 417 268 - 1;
#X obj 417 329 outlet;
#X connect 0 0 1 0;
#X connect 1 0 12 0;
#X connect 1 0 15 0;
#X connect 2 0 0 0;
#X connect 2 0 14 0;
#X connect 3 0 10 0;
#X connect 3 0 21 0;
#X connect 4 0 3 0;
#X connect 5 0 4 0;
#X connect 6 0 7 0;
#X connect 7 0 3 0;
#X connect 8 0 6 0;
#X connect 9 0 16 0;
#X connect 11 0 3 0;
#X connect 11 0 4 0;
#X connect 12 0 8 0;
#X connect 13 0 2 0;
#X connect 16 0 13 0;
#X connect 17 0 18 0;
#X connect 17 0 16 1;
#X connect 19 0 20 0;
#X connect 20 0 22 0;
#X connect 21 0 19 0;
