#N canvas 38 22 684 596 10;
#X obj 239 459 bonk~;
#N canvas 366 126 200 413 synth 0;
#X obj 16 27 unpack;
#X obj 16 77 * 12;
#X obj 16 102 div 7;
#X obj 16 52 + 1;
#X obj 16 176 mtof;
#X obj 16 226 osc~;
#X obj 60 226 line~;
#X obj 60 251 *~;
#X obj 60 276 lop~ 500;
#X obj 16 308 *~;
#X obj 76 151 dbtorms;
#X obj 76 101 * 0.5;
#X obj 76 126 + 50;
#X obj 60 177 f;
#X obj 76 77 inlet;
#X obj 15 341 hip~ 5;
#X obj 16 201 sig~;
#X msg 60 201 \$1 \, 0 200;
#X obj 16 2 inlet notes;
#X obj 16 127 + 60;
#X obj 16 151 t f b;
#X obj 15 370 outlet~;
#X connect 0 0 3 0;
#X connect 1 0 2 0;
#X connect 2 0 19 0;
#X connect 3 0 1 0;
#X connect 4 0 16 0;
#X connect 5 0 9 0;
#X connect 6 0 7 0;
#X connect 6 0 7 1;
#X connect 7 0 8 0;
#X connect 8 0 9 1;
#X connect 9 0 15 0;
#X connect 10 0 13 1;
#X connect 11 0 12 0;
#X connect 12 0 10 0;
#X connect 13 0 17 0;
#X connect 14 0 11 0;
#X connect 15 0 21 0;
#X connect 16 0 5 0;
#X connect 17 0 6 0;
#X connect 18 0 0 0;
#X connect 19 0 20 0;
#X connect 20 0 4 0;
#X connect 20 1 13 0;
#X restore 378 498 pd synth;
#N canvas 12 145 1250 402 interface 0;
#X msg 97 136 thresh 6 50;
#X obj 23 47 r \$0-threshlow;
#X obj 133 47 r \$0-threshhigh;
#X obj 253 47 r \$0-velocitymin;
#X obj 378 46 r \$0-maskbands;
#X obj 483 46 r \$0-maskdecay;
#X obj 593 45 r \$0-debounce;
#X obj 23 145 pack f f;
#X obj 36 119 t b f;
#X obj 23 168 list prepend thresh;
#X obj 253 93 + 5;
#X obj 253 72 * 30;
#X obj 253 164 list prepend minvel;
#X obj 378 94 int;
#X obj 378 72 * 8;
#X obj 417 134 pack f f;
#X obj 430 108 t b f;
#X obj 417 164 list prepend mask;
#X obj 22 190 list trim;
#X obj 23 77 * 25;
#X obj 133 72 * 25;
#X obj 133 93 + 25;
#X obj 253 190 list trim;
#X obj 417 190 list trim;
#X obj 593 190 list trim;
#X obj 753 43 r \$0-learn;
#X obj 883 44 r \$0-forget;
#X obj 1023 43 r \$0-write;
#X obj 1163 42 r \$0-read;
#X obj 753 190 list trim;
#X obj 753 164 list prepend learn;
#X obj 883 190 list trim;
#X obj 883 164 list prepend forget;
#X obj 1023 190 list trim;
#X obj 1163 190 list trim;
#X obj 1023 164 list prepend write;
#X obj 1163 164 list prepend read;
#X obj 593 164 list prepend debounce;
#X obj 550 345 outlet;
#X msg 913 119 1;
#X obj 883 69 t b b;
#X msg 883 118 0;
#X obj 883 93 del 5;
#X obj 483 72 * 10;
#X obj 1023 92 openpanel;
#X obj 1163 94 openpanel;
#X obj 753 118 * 10;
#X connect 1 0 19 0;
#X connect 2 0 20 0;
#X connect 3 0 11 0;
#X connect 4 0 14 0;
#X connect 5 0 43 0;
#X connect 6 0 37 0;
#X connect 7 0 9 0;
#X connect 8 0 7 0;
#X connect 8 1 7 1;
#X connect 9 0 18 0;
#X connect 10 0 12 0;
#X connect 11 0 10 0;
#X connect 12 0 22 0;
#X connect 13 0 15 0;
#X connect 14 0 13 0;
#X connect 15 0 17 0;
#X connect 16 0 15 0;
#X connect 16 1 15 1;
#X connect 17 0 23 0;
#X connect 18 0 38 0;
#X connect 19 0 7 0;
#X connect 20 0 21 0;
#X connect 21 0 8 0;
#X connect 22 0 38 0;
#X connect 23 0 38 0;
#X connect 24 0 38 0;
#X connect 25 0 46 0;
#X connect 26 0 40 0;
#X connect 27 0 44 0;
#X connect 28 0 45 0;
#X connect 29 0 38 0;
#X connect 30 0 29 0;
#X connect 31 0 38 0;
#X connect 32 0 31 0;
#X connect 33 0 38 0;
#X connect 34 0 38 0;
#X connect 35 0 33 0;
#X connect 36 0 34 0;
#X connect 37 0 24 0;
#X connect 39 0 32 0;
#X connect 40 0 42 0;
#X connect 40 1 39 0;
#X connect 41 0 32 0;
#X connect 42 0 41 0;
#X connect 43 0 16 0;
#X connect 44 0 35 0;
#X connect 45 0 36 0;
#X connect 46 0 30 0;
#X restore 362 375 pd interface adaptor;
#X obj 137 486 *~;
#X obj 283 521 *~;
#X obj 364 454 line~;
#X msg 364 428 \$1 100;
#X obj 364 406 r \$0-outonoff;
#X obj 497 224 line~;
#X msg 497 203 \$1 100;
#X obj 497 132 r \$0-inonoff;
#X obj 135 393 *~;
#X obj 284 384 *~;
#X obj 239 436 +~;
#X obj 10 467 env~;
#X obj 10 509 s \$0-monitor;
#X obj 497 180 *;
#X obj 497 155 t b f;
#X obj 423 132 r \$0-volume;
#X obj 10 487 - 80;
#X obj 101 102 cnv 15 248 196 empty empty onset_analyzer 20 12 1 14
-233017 -62784 0;
#X obj 203 172 hsl 128 12 0 1 0 1 \$0-threshlow empty low-threshold
20 8 1 12 -195568 -62784 -1 4200 1;
#X obj 204 193 hsl 128 12 0 1 0 1 \$0-threshhigh empty hi-threshold
20 8 1 12 -195568 -62784 -1 8700 1;
#X obj 204 213 hsl 128 12 0 1 0 1 \$0-velocitymin empty velocity 20
8 1 12 -195568 -241291 -1 10600 1;
#X obj 205 233 hsl 128 12 0 1 0 1 \$0-maskbands empty mask-bands 20
8 1 12 -195568 -258699 -1 11900 1;
#X obj 206 255 hsl 128 12 0 1 0 1 \$0-maskdecay empty mask-decay 20
8 1 12 -195568 -258699 -1 3300 1;
#X obj 207 275 hsl 128 12 0 1 0 1 \$0-debounce empty debounce 20 8
1 12 -195568 -260227 -1 5000 1;
#X obj 222 114 tgl 18 0 \$0-learn empty learn 20 10 1 12 -195568 -24198
-1 0 1;
#X obj 223 143 bng 18 250 50 0 \$0-forget empty forget 20 10 1 12 -195568
-258699 -1;
#X obj 108 129 tgl 18 0 \$0-inonoff empty IN 20 10 1 12 -195568 -258699
-1 1 1;
#X obj 148 130 tgl 18 0 \$0-outonoff empty OUT 20 10 1 12 -195568 -258699
-1 1 1;
#X obj 109 174 vu 18 120 \$0-monitor lev -1 -8 1 8 -233017 -1 0 0;
#X obj 139 173 vsl 18 120 0 1 0 1 \$0-volume empty vol 0 -8 1 8 -233017
-62784 -1 8400 1;
#X obj 283 114 bng 18 250 50 0 \$0-write empty write 20 10 1 12 -195568
-258699 -1;
#X obj 285 144 bng 18 250 50 0 \$0-read empty read 20 10 1 12 -195568
-258699 -1;
#X obj 167 172 vsl 18 120 0 1 0 1 \$0-bonkvolume empty bonk 0 -8 1
8 -233017 -62784 -1 11600 1;
#X obj 423 463 * 100;
#X obj 423 441 r \$0-bonkvolume;
#X obj 73 38 inlet~;
#X obj 63 557 outlet;
#X obj 283 549 outlet~;
#X obj 135 553 outlet~;
#X obj 383 540 outlet~;
#X connect 0 1 1 0;
#X connect 0 1 39 0;
#X connect 1 0 42 0;
#X connect 2 0 0 0;
#X connect 3 0 41 0;
#X connect 4 0 40 0;
#X connect 5 0 4 1;
#X connect 5 0 3 1;
#X connect 6 0 5 0;
#X connect 7 0 6 0;
#X connect 8 0 12 1;
#X connect 8 0 11 1;
#X connect 9 0 8 0;
#X connect 10 0 17 0;
#X connect 11 0 3 0;
#X connect 11 0 13 0;
#X connect 12 0 4 0;
#X connect 12 0 13 1;
#X connect 13 0 0 0;
#X connect 13 0 14 0;
#X connect 14 0 19 0;
#X connect 16 0 9 0;
#X connect 17 0 16 0;
#X connect 17 1 16 1;
#X connect 18 0 16 0;
#X connect 19 0 15 0;
#X connect 36 0 1 1;
#X connect 37 0 36 0;
#X connect 38 0 11 0;
#X connect 38 0 12 0;
#X coords 0 -1 1 1 250 200 1 100 100;
