#N canvas 0 22 470 320 10;
#X obj 40 80 random 100;
#X obj 70 120 < 50;
#X obj 116 81 * 100;
#X obj 40 36 inlet;
#X obj 115 34 inlet;
#X obj 70 164 outlet;
#X text 164 33 Probability for event to happen (0-1);
#X text 165 81 scale to the random number generator;
#X text 4 36 Tick;
#X obj 70 141 sel 1;
#X text 135 166 Bang when event happens;
#X connect 0 0 1 0;
#X connect 1 0 9 0;
#X connect 2 0 1 1;
#X connect 3 0 0 0;
#X connect 4 0 2 0;
#X connect 9 0 5 0;
