#N canvas 39 42 1245 711 10;
#X obj 101 102 cnv 15 475 58 empty empty empty 20 12 0 14 -233017 -66577
0;
#X obj 102 122 bng 30 250 50 0 empty empty empty 0 -6 0 10 -162280
-1 -1;
#X obj 141 121 bng 30 250 50 0 empty empty empty 0 -6 0 10 -258113
-1 -1;
#X obj 179 122 bng 30 250 50 0 empty empty empty 0 -6 0 10 -258113
-1 -1;
#X obj 217 122 bng 30 250 50 0 empty empty empty 0 -6 0 10 -258113
-1 -1;
#X obj 254 122 bng 30 250 50 0 empty empty empty 0 -6 0 10 -258113
-1 -1;
#X obj 295 122 bng 30 250 50 0 empty empty empty 0 -6 0 10 -258113
-1 -1;
#X obj 337 122 bng 30 250 50 0 empty empty empty 0 -6 0 10 -162280
-1 -1;
#X obj 377 122 bng 30 250 50 0 empty empty empty 0 -6 0 10 -258113
-1 -1;
#X obj 420 122 bng 30 250 50 0 empty empty empty 0 -6 0 10 -258113
-1 -1;
#X obj 465 122 bng 30 250 50 0 empty empty empty 0 -6 0 10 -258113
-1 -1;
#X obj 503 121 bng 30 250 50 0 empty empty empty 0 -6 0 10 -258113
-1 -1;
#X obj 542 122 bng 30 250 50 0 empty empty empty 0 -6 0 10 -258113
-1 -1;
#X obj 3 -224 notein;
#X floatatom 11 -199 5 0 0 0 - - -;
#X floatatom 53 -198 5 0 0 0 - - -;
#X floatatom 91 -199 5 0 0 0 - - -;
#X text 102 -177 channel;
#X text 40 -176 velocity;
#X text 3 -175 note;
#X obj 222 103 nbx 5 14 -1e+37 1e+37 0 0 empty empty empty 0 -6 0 10
-257985 -1 -1 0 256;
#X obj 156 104 nbx 5 14 -1e+37 1e+37 0 0 empty empty empty 0 -6 0 10
-257985 -1 -1 67 256;
#X obj 292 102 nbx 5 14 -1e+37 1e+37 0 0 empty empty empty 0 -6 0 10
-257985 -1 -1 1 256;
#X text 183 102 note;
#X text 236 101 velocity;
#X text 308 101 channel;
#X text 104 102 MIDI IN:;
#X floatatom 640 147 5 0 0 0 - - -;
#X floatatom 640 129 5 0 0 0 - - -;
#X obj 531 103 nbx 3 14 -1e+37 1e+37 0 0 empty empty empty 0 -6 0 10
-260097 -1 -1 0 256;
#X obj 488 103 nbx 3 14 -1e+37 1e+37 0 0 empty empty empty 0 -6 0 10
-260097 -1 -1 0 256;
#X text 500 102 bank;
#X text 549 101 env;
#X obj 398 -183 inlet;
#X obj 453 -184 inlet;
#X text 400 -204 bank;
#X text 455 -202 env;
#X obj 584 234 bng 15 250 50 0 empty empty empty 0 -6 0 10 -262144
-1 -1;
#X obj 622 258 bng 15 250 50 0 empty empty empty 0 -6 0 10 -262144
-1 -1;
#X obj 674 282 bng 15 250 50 0 empty empty empty 0 -6 0 10 -262144
-1 -1;
#X obj 729 306 bng 15 250 50 0 empty empty empty 0 -6 0 10 -262144
-1 -1;
#X obj 759 327 bng 15 250 50 0 empty empty empty 0 -6 0 10 -262144
-1 -1;
#X obj 864 279 bng 15 250 50 0 empty empty empty 0 -6 0 10 -262144
-1 -1;
#X obj 692 376 bng 15 250 50 0 empty empty empty 0 -6 0 10 -262144
-1 -1;
#X obj 729 400 bng 15 250 50 0 empty empty empty 0 -6 0 10 -262144
-1 -1;
#X obj 772 426 bng 15 250 50 0 empty empty empty 0 -6 0 10 -262144
-1 -1;
#X obj 822 449 bng 15 250 50 0 empty empty empty 0 -6 0 10 -262144
-1 -1;
#X obj 983 418 bng 15 250 50 0 empty empty empty 0 -6 0 10 -262144
-1 -1;
#X obj 1089 376 bng 15 250 50 0 empty empty empty 0 -6 0 10 -262144
-1 -1;
#X floatatom 1122 3 5 0 0 0 - - -;
#X text 1091 -38 debounce time;
#X obj 1124 -84 loadbang;
#X msg 1124 -57 100;
#X obj 353 103 nbx 5 14 -1e+37 1e+37 0 0 empty empty empty 0 -6 0 10
-4034 -1 -1 100 256;
#X text 382 101 debounce;
#X obj 29 266 outlet;
#X obj 76 266 outlet;
#X obj 121 266 outlet;
#X obj 168 266 outlet;
#X obj 214 265 outlet;
#X obj 261 265 outlet;
#X obj 294 313 outlet;
#X obj 341 313 outlet;
#X obj 386 313 outlet;
#X obj 433 313 outlet;
#X obj 479 312 outlet;
#X obj 526 312 outlet;
#X obj 584 214 mapping/debounce;
#X obj 622 236 mapping/debounce 15;
#X obj 674 260 mapping/debounce 15;
#X obj 729 284 mapping/debounce 15;
#X obj 759 305 mapping/debounce 15;
#X obj 864 257 mapping/debounce 15;
#X obj 692 356 mapping/debounce 15;
#X obj 729 378 mapping/debounce 15;
#X obj 772 404 mapping/debounce 15;
#X obj 822 427 mapping/debounce 15;
#X obj 983 396 mapping/debounce 15;
#X obj 1089 354 mapping/debounce 15;
#X obj 261 -112 stripnote;
#X obj 385 -9 * 1;
#X obj 385 38 line~;
#X obj 384 -49 / 127;
#X obj 385 -30 t f f;
#X obj 357 -77 sel 0;
#X msg 385 14 \$1 20;
#X msg 344 -49 0 500;
#X obj 630 379 outlet;
#X text 629 403 velocity;
#X obj 587 380 outlet;
#X text 600 404 note;
#X obj 785 -187 select 61 100 31 32 33 34 51 49 57 62 65 67;
#X connect 1 0 55 0;
#X connect 2 0 56 0;
#X connect 3 0 57 0;
#X connect 4 0 58 0;
#X connect 5 0 59 0;
#X connect 6 0 60 0;
#X connect 7 0 61 0;
#X connect 8 0 62 0;
#X connect 9 0 63 0;
#X connect 10 0 64 0;
#X connect 11 0 65 0;
#X connect 12 0 66 0;
#X connect 13 0 14 0;
#X connect 13 0 79 0;
#X connect 13 1 15 0;
#X connect 13 1 79 1;
#X connect 13 1 84 0;
#X connect 13 2 16 0;
#X connect 14 0 21 0;
#X connect 14 0 89 0;
#X connect 15 0 20 0;
#X connect 16 0 22 0;
#X connect 20 0 87 0;
#X connect 29 0 28 0;
#X connect 30 0 27 0;
#X connect 33 0 30 0;
#X connect 34 0 29 0;
#X connect 37 0 1 0;
#X connect 38 0 2 0;
#X connect 39 0 3 0;
#X connect 40 0 4 0;
#X connect 41 0 5 0;
#X connect 42 0 6 0;
#X connect 43 0 7 0;
#X connect 44 0 8 0;
#X connect 45 0 9 0;
#X connect 46 0 10 0;
#X connect 47 0 11 0;
#X connect 48 0 12 0;
#X connect 49 0 67 1;
#X connect 49 0 68 1;
#X connect 49 0 69 1;
#X connect 49 0 70 1;
#X connect 49 0 71 1;
#X connect 49 0 72 1;
#X connect 49 0 73 1;
#X connect 49 0 74 1;
#X connect 49 0 75 1;
#X connect 49 0 76 1;
#X connect 49 0 77 1;
#X connect 49 0 78 1;
#X connect 51 0 52 0;
#X connect 52 0 53 0;
#X connect 53 0 49 0;
#X connect 67 0 37 0;
#X connect 68 0 38 0;
#X connect 69 0 39 0;
#X connect 70 0 40 0;
#X connect 71 0 41 0;
#X connect 72 0 42 0;
#X connect 73 0 43 0;
#X connect 74 0 44 0;
#X connect 75 0 45 0;
#X connect 76 0 46 0;
#X connect 77 0 47 0;
#X connect 78 0 48 0;
#X connect 79 0 91 0;
#X connect 80 0 85 0;
#X connect 82 0 83 0;
#X connect 83 0 80 0;
#X connect 83 1 80 1;
#X connect 84 0 86 0;
#X connect 84 1 82 0;
#X connect 85 0 81 0;
#X connect 86 0 81 0;
#X connect 91 0 67 0;
#X connect 91 1 68 0;
#X connect 91 2 69 0;
#X connect 91 3 70 0;
#X connect 91 4 71 0;
#X connect 91 5 72 0;
#X connect 91 6 73 0;
#X connect 91 7 74 0;
#X connect 91 8 75 0;
#X connect 91 9 76 0;
#X connect 91 10 77 0;
#X connect 91 11 78 0;
#X coords 0 -1 1 1 477 62 1 100 100;
